<?xml version="1.0" encoding="utf-8" standalone="no"?>
<!DOCTYPE svg PUBLIC "-//W3C//DTD SVG 1.1//EN"
  "http://www.w3.org/Graphics/SVG/1.1/DTD/svg11.dtd">
<!-- Created with matplotlib (https://matplotlib.org/) -->
<svg height="144pt" version="1.1" viewBox="0 0 216 144" width="216pt" xmlns="http://www.w3.org/2000/svg" xmlns:xlink="http://www.w3.org/1999/xlink">
 <defs>
  <style type="text/css">
*{stroke-linecap:butt;stroke-linejoin:round;}
  </style>
 </defs>
 <g id="figure_1">
  <g id="patch_1">
   <path d="M 0 144 
L 216 144 
L 216 0 
L 0 0 
z
" style="fill:#ffffff;"/>
  </g>
  <g id="axes_1">
   <g id="patch_2">
    <path clip-path="url(#p60ec613ddf)" d="M 19.636364 133.2 
L 24.054545 133.2 
L 24.054545 129.441555 
L 19.636364 129.441555 
z
" style="fill:#ff7f0e;"/>
   </g>
   <g id="patch_3">
    <path clip-path="url(#p60ec613ddf)" d="M 24.054545 133.2 
L 28.472727 133.2 
L 28.472727 125.433989 
L 24.054545 125.433989 
z
" style="fill:#ff7f0e;"/>
   </g>
   <g id="patch_4">
    <path clip-path="url(#p60ec613ddf)" d="M 28.472727 133.2 
L 32.890909 133.2 
L 32.890909 124.134929 
L 28.472727 124.134929 
z
" style="fill:#ff7f0e;"/>
   </g>
   <g id="patch_5">
    <path clip-path="url(#p60ec613ddf)" d="M 32.890909 133.2 
L 37.309091 133.2 
L 37.309091 118.410932 
L 32.890909 118.410932 
z
" style="fill:#ff7f0e;"/>
   </g>
   <g id="patch_6">
    <path clip-path="url(#p60ec613ddf)" d="M 37.309091 133.2 
L 41.727273 133.2 
L 41.727273 113.391598 
L 37.309091 113.391598 
z
" style="fill:#ff7f0e;"/>
   </g>
   <g id="patch_7">
    <path clip-path="url(#p60ec613ddf)" d="M 41.727273 133.2 
L 46.145455 133.2 
L 46.145455 105.541316 
L 41.727273 105.541316 
z
" style="fill:#ff7f0e;"/>
   </g>
   <g id="patch_8">
    <path clip-path="url(#p60ec613ddf)" d="M 46.145455 133.2 
L 50.563636 133.2 
L 50.563636 97.706321 
L 46.145455 97.706321 
z
" style="fill:#ff7f0e;"/>
   </g>
   <g id="patch_9">
    <path clip-path="url(#p60ec613ddf)" d="M 50.563636 133.2 
L 54.981818 133.2 
L 54.981818 92.229727 
L 50.563636 92.229727 
z
" style="fill:#ff7f0e;"/>
   </g>
   <g id="patch_10">
    <path clip-path="url(#p60ec613ddf)" d="M 54.981818 133.2 
L 59.4 133.2 
L 59.4 80.185542 
L 54.981818 80.185542 
z
" style="fill:#ff7f0e;"/>
   </g>
   <g id="patch_11">
    <path clip-path="url(#p60ec613ddf)" d="M 59.4 133.2 
L 63.818182 133.2 
L 63.818182 75.479331 
L 59.4 75.479331 
z
" style="fill:#ff7f0e;"/>
   </g>
   <g id="patch_12">
    <path clip-path="url(#p60ec613ddf)" d="M 63.818182 133.2 
L 68.236364 133.2 
L 68.236364 69.220556 
L 63.818182 69.220556 
z
" style="fill:#ff7f0e;"/>
   </g>
   <g id="patch_13">
    <path clip-path="url(#p60ec613ddf)" d="M 68.236364 133.2 
L 72.654545 133.2 
L 72.654545 57.071098 
L 68.236364 57.071098 
z
" style="fill:#ff7f0e;"/>
   </g>
   <g id="patch_14">
    <path clip-path="url(#p60ec613ddf)" d="M 72.654545 133.2 
L 77.072727 133.2 
L 77.072727 51.392861 
L 72.654545 51.392861 
z
" style="fill:#ff7f0e;"/>
   </g>
   <g id="patch_15">
    <path clip-path="url(#p60ec613ddf)" d="M 77.072727 133.2 
L 81.490909 133.2 
L 81.490909 46.925106 
L 77.072727 46.925106 
z
" style="fill:#ff7f0e;"/>
   </g>
   <g id="patch_16">
    <path clip-path="url(#p60ec613ddf)" d="M 81.490909 133.2 
L 85.909091 133.2 
L 85.909091 38.395405 
L 81.490909 38.395405 
z
" style="fill:#ff7f0e;"/>
   </g>
   <g id="patch_17">
    <path clip-path="url(#p60ec613ddf)" d="M 85.909091 133.2 
L 90.327273 133.2 
L 90.327273 40.300374 
L 85.909091 40.300374 
z
" style="fill:#ff7f0e;"/>
   </g>
   <g id="patch_18">
    <path clip-path="url(#p60ec613ddf)" d="M 90.327273 133.2 
L 94.745455 133.2 
L 94.745455 41.99906 
L 90.327273 41.99906 
z
" style="fill:#ff7f0e;"/>
   </g>
   <g id="patch_19">
    <path clip-path="url(#p60ec613ddf)" d="M 94.745455 133.2 
L 99.163636 133.2 
L 99.163636 45.478681 
L 94.745455 45.478681 
z
" style="fill:#ff7f0e;"/>
   </g>
   <g id="patch_20">
    <path clip-path="url(#p60ec613ddf)" d="M 99.163636 133.2 
L 103.581818 133.2 
L 103.581818 48.602418 
L 99.163636 48.602418 
z
" style="fill:#ff7f0e;"/>
   </g>
   <g id="patch_21">
    <path clip-path="url(#p60ec613ddf)" d="M 103.581818 133.2 
L 108 133.2 
L 108 51.39247 
L 103.581818 51.39247 
z
" style="fill:#ff7f0e;"/>
   </g>
   <g id="patch_22">
    <path clip-path="url(#p60ec613ddf)" d="M 108 133.2 
L 112.418182 133.2 
L 112.418182 65.421125 
L 108 65.421125 
z
" style="fill:#ff7f0e;"/>
   </g>
   <g id="patch_23">
    <path clip-path="url(#p60ec613ddf)" d="M 112.418182 133.2 
L 116.836364 133.2 
L 116.836364 80.398433 
L 112.418182 80.398433 
z
" style="fill:#ff7f0e;"/>
   </g>
   <g id="patch_24">
    <path clip-path="url(#p60ec613ddf)" d="M 116.836364 133.2 
L 121.254545 133.2 
L 121.254545 79.653339 
L 116.836364 79.653339 
z
" style="fill:#ff7f0e;"/>
   </g>
   <g id="patch_25">
    <path clip-path="url(#p60ec613ddf)" d="M 121.254545 133.2 
L 125.672727 133.2 
L 125.672727 88.1514 
L 121.254545 88.1514 
z
" style="fill:#ff7f0e;"/>
   </g>
   <g id="patch_26">
    <path clip-path="url(#p60ec613ddf)" d="M 125.672727 133.2 
L 130.090909 133.2 
L 130.090909 103.418733 
L 125.672727 103.418733 
z
" style="fill:#ff7f0e;"/>
   </g>
   <g id="patch_27">
    <path clip-path="url(#p60ec613ddf)" d="M 130.090909 133.2 
L 134.509091 133.2 
L 134.509091 108.146787 
L 130.090909 108.146787 
z
" style="fill:#ff7f0e;"/>
   </g>
   <g id="patch_28">
    <path clip-path="url(#p60ec613ddf)" d="M 134.509091 133.2 
L 138.927273 133.2 
L 138.927273 110.649367 
L 134.509091 110.649367 
z
" style="fill:#ff7f0e;"/>
   </g>
   <g id="patch_29">
    <path clip-path="url(#p60ec613ddf)" d="M 138.927273 133.2 
L 143.345455 133.2 
L 143.345455 115.657564 
L 138.927273 115.657564 
z
" style="fill:#ff7f0e;"/>
   </g>
   <g id="patch_30">
    <path clip-path="url(#p60ec613ddf)" d="M 143.345455 133.2 
L 147.763636 133.2 
L 147.763636 123.581628 
L 143.345455 123.581628 
z
" style="fill:#ff7f0e;"/>
   </g>
   <g id="patch_31">
    <path clip-path="url(#p60ec613ddf)" d="M 147.763636 133.2 
L 152.181818 133.2 
L 152.181818 128.597732 
L 147.763636 128.597732 
z
" style="fill:#ff7f0e;"/>
   </g>
   <g id="patch_32">
    <path clip-path="url(#p60ec613ddf)" d="M 152.181818 133.2 
L 156.6 133.2 
L 156.6 128.949826 
L 152.181818 128.949826 
z
" style="fill:#ff7f0e;"/>
   </g>
   <g id="patch_33">
    <path clip-path="url(#p60ec613ddf)" d="M 156.6 133.2 
L 161.018182 133.2 
L 161.018182 131.174144 
L 156.6 131.174144 
z
" style="fill:#ff7f0e;"/>
   </g>
   <g id="patch_34">
    <path clip-path="url(#p60ec613ddf)" d="M 161.018182 133.2 
L 165.436364 133.2 
L 165.436364 133.2 
L 161.018182 133.2 
z
" style="fill:#ff7f0e;"/>
   </g>
   <g id="patch_35">
    <path clip-path="url(#p60ec613ddf)" d="M 165.436364 133.2 
L 169.854545 133.2 
L 169.854545 133.2 
L 165.436364 133.2 
z
" style="fill:#ff7f0e;"/>
   </g>
   <g id="patch_36">
    <path clip-path="url(#p60ec613ddf)" d="M 169.854545 133.2 
L 174.272727 133.2 
L 174.272727 133.2 
L 169.854545 133.2 
z
" style="fill:#ff7f0e;"/>
   </g>
   <g id="patch_37">
    <path clip-path="url(#p60ec613ddf)" d="M 174.272727 133.2 
L 178.690909 133.2 
L 178.690909 133.2 
L 174.272727 133.2 
z
" style="fill:#ff7f0e;"/>
   </g>
   <g id="patch_38">
    <path clip-path="url(#p60ec613ddf)" d="M 178.690909 133.2 
L 183.109091 133.2 
L 183.109091 133.2 
L 178.690909 133.2 
z
" style="fill:#ff7f0e;"/>
   </g>
   <g id="patch_39">
    <path clip-path="url(#p60ec613ddf)" d="M 183.109091 133.2 
L 187.527273 133.2 
L 187.527273 133.2 
L 183.109091 133.2 
z
" style="fill:#ff7f0e;"/>
   </g>
   <g id="patch_40">
    <path clip-path="url(#p60ec613ddf)" d="M 187.527273 133.2 
L 191.945455 133.2 
L 191.945455 133.2 
L 187.527273 133.2 
z
" style="fill:#ff7f0e;"/>
   </g>
   <g id="patch_41">
    <path clip-path="url(#p60ec613ddf)" d="M 191.945455 133.2 
L 196.363636 133.2 
L 196.363636 133.2 
L 191.945455 133.2 
z
" style="fill:#ff7f0e;"/>
   </g>
   <g id="line2d_1">
    <path clip-path="url(#p60ec613ddf)" d="M 19.636364 132.520699 
L 23.188671 132.038774 
L 25.852901 131.498924 
L 28.517131 130.750858 
L 31.181361 129.733933 
L 32.957515 128.872257 
L 34.733668 127.837055 
L 36.509822 126.604052 
L 38.285975 125.148119 
L 40.062129 123.443861 
L 41.838282 121.466344 
L 43.614436 119.191951 
L 45.390589 116.599355 
L 47.166743 113.670582 
L 48.942896 110.392133 
L 50.71905 106.756131 
L 53.38328 100.631328 
L 56.04751 93.731197 
L 58.711741 86.131219 
L 62.264048 75.132326 
L 72.920968 41.005257 
L 75.585199 33.644397 
L 77.361352 29.301037 
L 79.137506 25.49979 
L 80.913659 22.309416 
L 82.689813 19.78814 
L 83.577889 18.793284 
L 84.465966 17.981877 
L 85.354043 17.357505 
L 86.24212 16.922835 
L 87.130196 16.679598 
L 88.018273 16.628571 
L 88.90635 16.769585 
L 89.794427 17.10152 
L 90.682503 17.622322 
L 91.57058 18.329025 
L 92.458657 19.217773 
L 94.23481 21.521773 
L 96.010964 24.487226 
L 97.787117 28.055688 
L 99.563271 32.159259 
L 101.339424 36.722703 
L 104.003655 44.253595 
L 107.555962 55.137425 
L 115.548652 80.091899 
L 118.212883 87.77278 
L 120.877113 94.873754 
L 123.541343 101.303667 
L 126.205573 107.012806 
L 128.869804 111.988077 
L 130.645957 114.904708 
L 132.422111 117.513565 
L 134.198264 119.829547 
L 135.974418 121.870353 
L 137.750571 123.655651 
L 139.526725 125.206312 
L 141.302878 126.54374 
L 143.967108 128.196679 
L 146.631339 129.48735 
L 149.295569 130.480153 
L 151.959799 131.232671 
L 155.512106 131.947481 
L 159.064413 132.420141 
L 163.504797 132.781851 
L 169.721334 133.034989 
L 179.490178 133.166477 
L 196.363636 133.198526 
L 196.363636 133.198526 
" style="fill:none;stroke:#000000;stroke-linecap:square;stroke-width:1.5;"/>
   </g>
  </g>
 </g>
 <defs>
  <clipPath id="p60ec613ddf">
   <rect height="122.4" width="194.4" x="10.8" y="10.8"/>
  </clipPath>
 </defs>
</svg>
