<?xml version="1.0" encoding="utf-8" standalone="no"?>
<!DOCTYPE svg PUBLIC "-//W3C//DTD SVG 1.1//EN"
  "http://www.w3.org/Graphics/SVG/1.1/DTD/svg11.dtd">
<!-- Created with matplotlib (https://matplotlib.org/) -->
<svg height="144pt" version="1.1" viewBox="0 0 216 144" width="216pt" xmlns="http://www.w3.org/2000/svg" xmlns:xlink="http://www.w3.org/1999/xlink">
 <defs>
  <style type="text/css">
*{stroke-linecap:butt;stroke-linejoin:round;}
  </style>
 </defs>
 <g id="figure_1">
  <g id="patch_1">
   <path d="M 0 144 
L 216 144 
L 216 0 
L 0 0 
z
" style="fill:#ffffff;"/>
  </g>
  <g id="axes_1">
   <g id="patch_2">
    <path clip-path="url(#p0fc5dc4968)" d="M 19.636364 133.2 
L 24.054545 133.2 
L 24.054545 133.2 
L 19.636364 133.2 
z
" style="fill:#1f77b4;"/>
   </g>
   <g id="patch_3">
    <path clip-path="url(#p0fc5dc4968)" d="M 24.054545 133.2 
L 28.472727 133.2 
L 28.472727 130.86751 
L 24.054545 130.86751 
z
" style="fill:#1f77b4;"/>
   </g>
   <g id="patch_4">
    <path clip-path="url(#p0fc5dc4968)" d="M 28.472727 133.2 
L 32.890909 133.2 
L 32.890909 130.170935 
L 28.472727 130.170935 
z
" style="fill:#1f77b4;"/>
   </g>
   <g id="patch_5">
    <path clip-path="url(#p0fc5dc4968)" d="M 32.890909 133.2 
L 37.309091 133.2 
L 37.309091 127.67727 
L 32.890909 127.67727 
z
" style="fill:#1f77b4;"/>
   </g>
   <g id="patch_6">
    <path clip-path="url(#p0fc5dc4968)" d="M 37.309091 133.2 
L 41.727273 133.2 
L 41.727273 124.532807 
L 37.309091 124.532807 
z
" style="fill:#1f77b4;"/>
   </g>
   <g id="patch_7">
    <path clip-path="url(#p0fc5dc4968)" d="M 41.727273 133.2 
L 46.145455 133.2 
L 46.145455 118.403376 
L 41.727273 118.403376 
z
" style="fill:#1f77b4;"/>
   </g>
   <g id="patch_8">
    <path clip-path="url(#p0fc5dc4968)" d="M 46.145455 133.2 
L 50.563636 133.2 
L 50.563636 111.812194 
L 46.145455 111.812194 
z
" style="fill:#1f77b4;"/>
   </g>
   <g id="patch_9">
    <path clip-path="url(#p0fc5dc4968)" d="M 50.563636 133.2 
L 54.981818 133.2 
L 54.981818 104.3046 
L 50.563636 104.3046 
z
" style="fill:#1f77b4;"/>
   </g>
   <g id="patch_10">
    <path clip-path="url(#p0fc5dc4968)" d="M 54.981818 133.2 
L 59.4 133.2 
L 59.4 92.746628 
L 54.981818 92.746628 
z
" style="fill:#1f77b4;"/>
   </g>
   <g id="patch_11">
    <path clip-path="url(#p0fc5dc4968)" d="M 59.4 133.2 
L 63.818182 133.2 
L 63.818182 77.096288 
L 59.4 77.096288 
z
" style="fill:#1f77b4;"/>
   </g>
   <g id="patch_12">
    <path clip-path="url(#p0fc5dc4968)" d="M 63.818182 133.2 
L 68.236364 133.2 
L 68.236364 60.843357 
L 63.818182 60.843357 
z
" style="fill:#1f77b4;"/>
   </g>
   <g id="patch_13">
    <path clip-path="url(#p0fc5dc4968)" d="M 68.236364 133.2 
L 72.654545 133.2 
L 72.654545 53.68207 
L 68.236364 53.68207 
z
" style="fill:#1f77b4;"/>
   </g>
   <g id="patch_14">
    <path clip-path="url(#p0fc5dc4968)" d="M 72.654545 133.2 
L 77.072727 133.2 
L 77.072727 32.186579 
L 72.654545 32.186579 
z
" style="fill:#1f77b4;"/>
   </g>
   <g id="patch_15">
    <path clip-path="url(#p0fc5dc4968)" d="M 77.072727 133.2 
L 81.490909 133.2 
L 81.490909 23.031541 
L 77.072727 23.031541 
z
" style="fill:#1f77b4;"/>
   </g>
   <g id="patch_16">
    <path clip-path="url(#p0fc5dc4968)" d="M 81.490909 133.2 
L 85.909091 133.2 
L 85.909091 19.763768 
L 81.490909 19.763768 
z
" style="fill:#1f77b4;"/>
   </g>
   <g id="patch_17">
    <path clip-path="url(#p0fc5dc4968)" d="M 85.909091 133.2 
L 90.327273 133.2 
L 90.327273 16.628571 
L 85.909091 16.628571 
z
" style="fill:#1f77b4;"/>
   </g>
   <g id="patch_18">
    <path clip-path="url(#p0fc5dc4968)" d="M 90.327273 133.2 
L 94.745455 133.2 
L 94.745455 24.588682 
L 90.327273 24.588682 
z
" style="fill:#1f77b4;"/>
   </g>
   <g id="patch_19">
    <path clip-path="url(#p0fc5dc4968)" d="M 94.745455 133.2 
L 99.163636 133.2 
L 99.163636 28.564926 
L 94.745455 28.564926 
z
" style="fill:#1f77b4;"/>
   </g>
   <g id="patch_20">
    <path clip-path="url(#p0fc5dc4968)" d="M 99.163636 133.2 
L 103.581818 133.2 
L 103.581818 39.007094 
L 99.163636 39.007094 
z
" style="fill:#1f77b4;"/>
   </g>
   <g id="patch_21">
    <path clip-path="url(#p0fc5dc4968)" d="M 103.581818 133.2 
L 108 133.2 
L 108 48.657166 
L 103.581818 48.657166 
z
" style="fill:#1f77b4;"/>
   </g>
   <g id="patch_22">
    <path clip-path="url(#p0fc5dc4968)" d="M 108 133.2 
L 112.418182 133.2 
L 112.418182 62.920859 
L 108 62.920859 
z
" style="fill:#1f77b4;"/>
   </g>
   <g id="patch_23">
    <path clip-path="url(#p0fc5dc4968)" d="M 112.418182 133.2 
L 116.836364 133.2 
L 116.836364 75.687431 
L 112.418182 75.687431 
z
" style="fill:#1f77b4;"/>
   </g>
   <g id="patch_24">
    <path clip-path="url(#p0fc5dc4968)" d="M 116.836364 133.2 
L 121.254545 133.2 
L 121.254545 89.829985 
L 116.836364 89.829985 
z
" style="fill:#1f77b4;"/>
   </g>
   <g id="patch_25">
    <path clip-path="url(#p0fc5dc4968)" d="M 121.254545 133.2 
L 125.672727 133.2 
L 125.672727 101.945981 
L 121.254545 101.945981 
z
" style="fill:#1f77b4;"/>
   </g>
   <g id="patch_26">
    <path clip-path="url(#p0fc5dc4968)" d="M 125.672727 133.2 
L 130.090909 133.2 
L 130.090909 106.309188 
L 125.672727 106.309188 
z
" style="fill:#1f77b4;"/>
   </g>
   <g id="patch_27">
    <path clip-path="url(#p0fc5dc4968)" d="M 130.090909 133.2 
L 134.509091 133.2 
L 134.509091 123.378582 
L 130.090909 123.378582 
z
" style="fill:#1f77b4;"/>
   </g>
   <g id="patch_28">
    <path clip-path="url(#p0fc5dc4968)" d="M 134.509091 133.2 
L 138.927273 133.2 
L 138.927273 121.637937 
L 134.509091 121.637937 
z
" style="fill:#1f77b4;"/>
   </g>
   <g id="patch_29">
    <path clip-path="url(#p0fc5dc4968)" d="M 138.927273 133.2 
L 143.345455 133.2 
L 143.345455 125.443571 
L 138.927273 125.443571 
z
" style="fill:#1f77b4;"/>
   </g>
   <g id="patch_30">
    <path clip-path="url(#p0fc5dc4968)" d="M 143.345455 133.2 
L 147.763636 133.2 
L 147.763636 127.888497 
L 143.345455 127.888497 
z
" style="fill:#1f77b4;"/>
   </g>
   <g id="patch_31">
    <path clip-path="url(#p0fc5dc4968)" d="M 147.763636 133.2 
L 152.181818 133.2 
L 152.181818 131.508614 
L 147.763636 131.508614 
z
" style="fill:#1f77b4;"/>
   </g>
   <g id="patch_32">
    <path clip-path="url(#p0fc5dc4968)" d="M 152.181818 133.2 
L 156.6 133.2 
L 156.6 131.848206 
L 152.181818 131.848206 
z
" style="fill:#1f77b4;"/>
   </g>
   <g id="patch_33">
    <path clip-path="url(#p0fc5dc4968)" d="M 156.6 133.2 
L 161.018182 133.2 
L 161.018182 132.275033 
L 156.6 132.275033 
z
" style="fill:#1f77b4;"/>
   </g>
   <g id="patch_34">
    <path clip-path="url(#p0fc5dc4968)" d="M 161.018182 133.2 
L 165.436364 133.2 
L 165.436364 133.2 
L 161.018182 133.2 
z
" style="fill:#1f77b4;"/>
   </g>
   <g id="patch_35">
    <path clip-path="url(#p0fc5dc4968)" d="M 165.436364 133.2 
L 169.854545 133.2 
L 169.854545 133.2 
L 165.436364 133.2 
z
" style="fill:#1f77b4;"/>
   </g>
   <g id="patch_36">
    <path clip-path="url(#p0fc5dc4968)" d="M 169.854545 133.2 
L 174.272727 133.2 
L 174.272727 133.2 
L 169.854545 133.2 
z
" style="fill:#1f77b4;"/>
   </g>
   <g id="patch_37">
    <path clip-path="url(#p0fc5dc4968)" d="M 174.272727 133.2 
L 178.690909 133.2 
L 178.690909 133.2 
L 174.272727 133.2 
z
" style="fill:#1f77b4;"/>
   </g>
   <g id="patch_38">
    <path clip-path="url(#p0fc5dc4968)" d="M 178.690909 133.2 
L 183.109091 133.2 
L 183.109091 133.2 
L 178.690909 133.2 
z
" style="fill:#1f77b4;"/>
   </g>
   <g id="patch_39">
    <path clip-path="url(#p0fc5dc4968)" d="M 183.109091 133.2 
L 187.527273 133.2 
L 187.527273 133.2 
L 183.109091 133.2 
z
" style="fill:#1f77b4;"/>
   </g>
   <g id="patch_40">
    <path clip-path="url(#p0fc5dc4968)" d="M 187.527273 133.2 
L 191.945455 133.2 
L 191.945455 133.2 
L 187.527273 133.2 
z
" style="fill:#1f77b4;"/>
   </g>
   <g id="patch_41">
    <path clip-path="url(#p0fc5dc4968)" d="M 191.945455 133.2 
L 196.363636 133.2 
L 196.363636 133.2 
L 191.945455 133.2 
z
" style="fill:#1f77b4;"/>
   </g>
   <g id="line2d_1">
    <path clip-path="url(#p0fc5dc4968)" d="M 19.636364 132.526292 
L 23.188671 132.048336 
L 25.852901 131.512932 
L 28.517131 130.771025 
L 31.181361 129.762474 
L 32.957515 128.907894 
L 34.733668 127.881215 
L 36.509822 126.658366 
L 38.285975 125.214422 
L 40.062129 123.524197 
L 41.838282 121.562964 
L 43.614436 119.307299 
L 45.390589 116.736052 
L 47.166743 113.831396 
L 48.942896 110.579943 
L 50.71905 106.973882 
L 53.38328 100.899512 
L 56.04751 94.0562 
L 58.711741 86.518804 
L 62.264048 75.610481 
L 72.920968 41.764429 
L 75.585199 34.464182 
L 77.361352 30.156587 
L 79.137506 26.386641 
L 80.913659 23.222538 
L 82.689813 20.722023 
L 83.577889 19.73536 
L 84.465966 18.930634 
L 85.354043 18.311403 
L 86.24212 17.880313 
L 87.130196 17.639078 
L 88.018273 17.588472 
L 88.90635 17.728324 
L 89.794427 18.057526 
L 90.682503 18.57404 
L 91.57058 19.274923 
L 92.458657 20.156353 
L 94.23481 22.441381 
L 96.010964 25.382415 
L 97.787117 28.921492 
L 99.563271 32.991273 
L 101.339424 37.517139 
L 104.003655 44.986019 
L 107.555962 55.780227 
L 115.548652 80.529215 
L 118.212883 88.146847 
L 120.877113 95.189349 
L 123.541343 101.566316 
L 126.205573 107.228443 
L 128.869804 112.162745 
L 130.645957 115.055359 
L 132.422111 117.642734 
L 134.198264 119.939645 
L 135.974418 121.963646 
L 137.750571 123.734243 
L 139.526725 125.272136 
L 141.302878 126.598551 
L 143.967108 128.237879 
L 146.631339 129.517922 
L 149.295569 130.502549 
L 151.959799 131.248871 
L 155.512106 131.957794 
L 159.064413 132.426562 
L 163.504797 132.785295 
L 169.721334 133.036347 
L 179.490178 133.166753 
L 196.363636 133.198538 
L 196.363636 133.198538 
" style="fill:none;stroke:#000000;stroke-linecap:square;stroke-width:1.5;"/>
   </g>
  </g>
 </g>
 <defs>
  <clipPath id="p0fc5dc4968">
   <rect height="122.4" width="194.4" x="10.8" y="10.8"/>
  </clipPath>
 </defs>
</svg>
