<?xml version="1.0" encoding="utf-8" standalone="no"?>
<!DOCTYPE svg PUBLIC "-//W3C//DTD SVG 1.1//EN"
  "http://www.w3.org/Graphics/SVG/1.1/DTD/svg11.dtd">
<!-- Created with matplotlib (https://matplotlib.org/) -->
<svg height="144pt" version="1.1" viewBox="0 0 216 144" width="216pt" xmlns="http://www.w3.org/2000/svg" xmlns:xlink="http://www.w3.org/1999/xlink">
 <defs>
  <style type="text/css">
*{stroke-linecap:butt;stroke-linejoin:round;}
  </style>
 </defs>
 <g id="figure_1">
  <g id="patch_1">
   <path d="M 0 144 
L 216 144 
L 216 0 
L 0 0 
z
" style="fill:#ffffff;"/>
  </g>
  <g id="axes_1">
   <g id="patch_2">
    <path clip-path="url(#p20dc3f5246)" d="M 19.636364 133.2 
L 24.054545 133.2 
L 24.054545 133.2 
L 19.636364 133.2 
z
" style="fill:#808080;"/>
   </g>
   <g id="patch_3">
    <path clip-path="url(#p20dc3f5246)" d="M 24.054545 133.2 
L 28.472727 133.2 
L 28.472727 133.2 
L 24.054545 133.2 
z
" style="fill:#808080;"/>
   </g>
   <g id="patch_4">
    <path clip-path="url(#p20dc3f5246)" d="M 28.472727 133.2 
L 32.890909 133.2 
L 32.890909 133.2 
L 28.472727 133.2 
z
" style="fill:#808080;"/>
   </g>
   <g id="patch_5">
    <path clip-path="url(#p20dc3f5246)" d="M 32.890909 133.2 
L 37.309091 133.2 
L 37.309091 133.2 
L 32.890909 133.2 
z
" style="fill:#808080;"/>
   </g>
   <g id="patch_6">
    <path clip-path="url(#p20dc3f5246)" d="M 37.309091 133.2 
L 41.727273 133.2 
L 41.727273 133.2 
L 37.309091 133.2 
z
" style="fill:#808080;"/>
   </g>
   <g id="patch_7">
    <path clip-path="url(#p20dc3f5246)" d="M 41.727273 133.2 
L 46.145455 133.2 
L 46.145455 133.2 
L 41.727273 133.2 
z
" style="fill:#808080;"/>
   </g>
   <g id="patch_8">
    <path clip-path="url(#p20dc3f5246)" d="M 46.145455 133.2 
L 50.563636 133.2 
L 50.563636 133.2 
L 46.145455 133.2 
z
" style="fill:#808080;"/>
   </g>
   <g id="patch_9">
    <path clip-path="url(#p20dc3f5246)" d="M 50.563636 133.2 
L 54.981818 133.2 
L 54.981818 129.270559 
L 50.563636 129.270559 
z
" style="fill:#808080;"/>
   </g>
   <g id="patch_10">
    <path clip-path="url(#p20dc3f5246)" d="M 54.981818 133.2 
L 59.4 133.2 
L 59.4 126.023815 
L 54.981818 126.023815 
z
" style="fill:#808080;"/>
   </g>
   <g id="patch_11">
    <path clip-path="url(#p20dc3f5246)" d="M 59.4 133.2 
L 63.818182 133.2 
L 63.818182 127.357276 
L 59.4 127.357276 
z
" style="fill:#808080;"/>
   </g>
   <g id="patch_12">
    <path clip-path="url(#p20dc3f5246)" d="M 63.818182 133.2 
L 68.236364 133.2 
L 68.236364 119.212086 
L 63.818182 119.212086 
z
" style="fill:#808080;"/>
   </g>
   <g id="patch_13">
    <path clip-path="url(#p20dc3f5246)" d="M 68.236364 133.2 
L 72.654545 133.2 
L 72.654545 112.625641 
L 68.236364 112.625641 
z
" style="fill:#808080;"/>
   </g>
   <g id="patch_14">
    <path clip-path="url(#p20dc3f5246)" d="M 72.654545 133.2 
L 77.072727 133.2 
L 77.072727 105.482786 
L 72.654545 105.482786 
z
" style="fill:#808080;"/>
   </g>
   <g id="patch_15">
    <path clip-path="url(#p20dc3f5246)" d="M 77.072727 133.2 
L 81.490909 133.2 
L 81.490909 96.657977 
L 77.072727 96.657977 
z
" style="fill:#808080;"/>
   </g>
   <g id="patch_16">
    <path clip-path="url(#p20dc3f5246)" d="M 81.490909 133.2 
L 85.909091 133.2 
L 85.909091 90.429329 
L 81.490909 90.429329 
z
" style="fill:#808080;"/>
   </g>
   <g id="patch_17">
    <path clip-path="url(#p20dc3f5246)" d="M 85.909091 133.2 
L 90.327273 133.2 
L 90.327273 74.80203 
L 85.909091 74.80203 
z
" style="fill:#808080;"/>
   </g>
   <g id="patch_18">
    <path clip-path="url(#p20dc3f5246)" d="M 90.327273 133.2 
L 94.745455 133.2 
L 94.745455 63.000389 
L 90.327273 63.000389 
z
" style="fill:#808080;"/>
   </g>
   <g id="patch_19">
    <path clip-path="url(#p20dc3f5246)" d="M 94.745455 133.2 
L 99.163636 133.2 
L 99.163636 46.770181 
L 94.745455 46.770181 
z
" style="fill:#808080;"/>
   </g>
   <g id="patch_20">
    <path clip-path="url(#p20dc3f5246)" d="M 99.163636 133.2 
L 103.581818 133.2 
L 103.581818 37.547062 
L 99.163636 37.547062 
z
" style="fill:#808080;"/>
   </g>
   <g id="patch_21">
    <path clip-path="url(#p20dc3f5246)" d="M 103.581818 133.2 
L 108 133.2 
L 108 21.798849 
L 103.581818 21.798849 
z
" style="fill:#808080;"/>
   </g>
   <g id="patch_22">
    <path clip-path="url(#p20dc3f5246)" d="M 108 133.2 
L 112.418182 133.2 
L 112.418182 21.632974 
L 108 21.632974 
z
" style="fill:#808080;"/>
   </g>
   <g id="patch_23">
    <path clip-path="url(#p20dc3f5246)" d="M 112.418182 133.2 
L 116.836364 133.2 
L 116.836364 19.462526 
L 112.418182 19.462526 
z
" style="fill:#808080;"/>
   </g>
   <g id="patch_24">
    <path clip-path="url(#p20dc3f5246)" d="M 116.836364 133.2 
L 121.254545 133.2 
L 121.254545 16.628571 
L 116.836364 16.628571 
z
" style="fill:#808080;"/>
   </g>
   <g id="patch_25">
    <path clip-path="url(#p20dc3f5246)" d="M 121.254545 133.2 
L 125.672727 133.2 
L 125.672727 27.596649 
L 121.254545 27.596649 
z
" style="fill:#808080;"/>
   </g>
   <g id="patch_26">
    <path clip-path="url(#p20dc3f5246)" d="M 125.672727 133.2 
L 130.090909 133.2 
L 130.090909 43.08304 
L 125.672727 43.08304 
z
" style="fill:#808080;"/>
   </g>
   <g id="patch_27">
    <path clip-path="url(#p20dc3f5246)" d="M 130.090909 133.2 
L 134.509091 133.2 
L 134.509091 56.915918 
L 130.090909 56.915918 
z
" style="fill:#808080;"/>
   </g>
   <g id="patch_28">
    <path clip-path="url(#p20dc3f5246)" d="M 134.509091 133.2 
L 138.927273 133.2 
L 138.927273 61.191383 
L 134.509091 61.191383 
z
" style="fill:#808080;"/>
   </g>
   <g id="patch_29">
    <path clip-path="url(#p20dc3f5246)" d="M 138.927273 133.2 
L 143.345455 133.2 
L 143.345455 78.700583 
L 138.927273 78.700583 
z
" style="fill:#808080;"/>
   </g>
   <g id="patch_30">
    <path clip-path="url(#p20dc3f5246)" d="M 143.345455 133.2 
L 147.763636 133.2 
L 147.763636 96.726181 
L 143.345455 96.726181 
z
" style="fill:#808080;"/>
   </g>
   <g id="patch_31">
    <path clip-path="url(#p20dc3f5246)" d="M 147.763636 133.2 
L 152.181818 133.2 
L 152.181818 102.105612 
L 147.763636 102.105612 
z
" style="fill:#808080;"/>
   </g>
   <g id="patch_32">
    <path clip-path="url(#p20dc3f5246)" d="M 152.181818 133.2 
L 156.6 133.2 
L 156.6 108.054918 
L 152.181818 108.054918 
z
" style="fill:#808080;"/>
   </g>
   <g id="patch_33">
    <path clip-path="url(#p20dc3f5246)" d="M 156.6 133.2 
L 161.018182 133.2 
L 161.018182 117.456592 
L 156.6 117.456592 
z
" style="fill:#808080;"/>
   </g>
   <g id="patch_34">
    <path clip-path="url(#p20dc3f5246)" d="M 161.018182 133.2 
L 165.436364 133.2 
L 165.436364 120.887269 
L 161.018182 120.887269 
z
" style="fill:#808080;"/>
   </g>
   <g id="patch_35">
    <path clip-path="url(#p20dc3f5246)" d="M 165.436364 133.2 
L 169.854545 133.2 
L 169.854545 125.037982 
L 165.436364 125.037982 
z
" style="fill:#808080;"/>
   </g>
   <g id="patch_36">
    <path clip-path="url(#p20dc3f5246)" d="M 169.854545 133.2 
L 174.272727 133.2 
L 174.272727 130.632035 
L 169.854545 130.632035 
z
" style="fill:#808080;"/>
   </g>
   <g id="patch_37">
    <path clip-path="url(#p20dc3f5246)" d="M 174.272727 133.2 
L 178.690909 133.2 
L 178.690909 129.393224 
L 174.272727 129.393224 
z
" style="fill:#808080;"/>
   </g>
   <g id="patch_38">
    <path clip-path="url(#p20dc3f5246)" d="M 178.690909 133.2 
L 183.109091 133.2 
L 183.109091 129.673963 
L 178.690909 129.673963 
z
" style="fill:#808080;"/>
   </g>
   <g id="patch_39">
    <path clip-path="url(#p20dc3f5246)" d="M 183.109091 133.2 
L 187.527273 133.2 
L 187.527273 133.2 
L 183.109091 133.2 
z
" style="fill:#808080;"/>
   </g>
   <g id="patch_40">
    <path clip-path="url(#p20dc3f5246)" d="M 187.527273 133.2 
L 191.945455 133.2 
L 191.945455 131.460194 
L 187.527273 131.460194 
z
" style="fill:#808080;"/>
   </g>
   <g id="patch_41">
    <path clip-path="url(#p20dc3f5246)" d="M 191.945455 133.2 
L 196.363636 133.2 
L 196.363636 133.2 
L 191.945455 133.2 
z
" style="fill:#808080;"/>
   </g>
   <g id="line2d_1">
    <path clip-path="url(#p20dc3f5246)" d="M 19.636364 133.191956 
L 33.845592 133.073574 
L 40.062129 132.838784 
L 44.502513 132.477585 
L 48.05482 131.983855 
L 50.71905 131.437286 
L 53.38328 130.68704 
L 56.04751 129.675939 
L 58.711741 128.338149 
L 60.487894 127.228925 
L 62.264048 125.919149 
L 64.040201 124.38537 
L 65.816354 122.604246 
L 67.592508 120.55325 
L 69.368661 118.211483 
L 71.144815 115.560579 
L 72.920968 112.585669 
L 74.697122 109.276397 
L 76.473275 105.627919 
L 79.137506 99.524768 
L 81.801736 92.70115 
L 84.465966 85.236648 
L 88.018273 74.508918 
L 97.787117 44.121066 
L 100.451348 36.783211 
L 102.227501 32.383567 
L 104.003655 28.464826 
L 105.779808 25.094292 
L 107.555962 22.330586 
L 109.332115 20.221941 
L 110.220192 19.425146 
L 111.108269 18.804797 
L 111.996345 18.363434 
L 112.884422 18.102753 
L 113.772499 18.02359 
L 114.660576 18.125925 
L 115.548652 18.408878 
L 116.436729 18.870724 
L 117.324806 19.50891 
L 118.212883 20.320071 
L 119.989036 22.444018 
L 121.76519 25.200771 
L 123.541343 28.538032 
L 125.317497 32.39464 
L 127.09365 36.702399 
L 129.75788 43.848814 
L 133.310187 54.252748 
L 143.079032 83.548601 
L 145.743262 90.782194 
L 148.407492 97.434032 
L 151.071722 103.433062 
L 153.735952 108.744425 
L 156.400183 113.364737 
L 158.176336 116.071179 
L 159.95249 118.4917 
L 161.728643 120.641038 
L 163.504797 122.536201 
L 165.28095 124.195744 
L 167.057104 125.639127 
L 169.721334 127.442165 
L 172.385564 128.869087 
L 175.049794 129.982135 
L 177.714025 130.838111 
L 180.378255 131.487268 
L 183.930562 132.104858 
L 188.370946 132.592211 
L 193.699406 132.912845 
L 196.363636 133.006048 
L 196.363636 133.006048 
" style="fill:none;stroke:#000000;stroke-linecap:square;stroke-width:1.5;"/>
   </g>
  </g>
 </g>
 <defs>
  <clipPath id="p20dc3f5246">
   <rect height="122.4" width="194.4" x="10.8" y="10.8"/>
  </clipPath>
 </defs>
</svg>
