<?xml version="1.0" encoding="utf-8" standalone="no"?>
<!DOCTYPE svg PUBLIC "-//W3C//DTD SVG 1.1//EN"
  "http://www.w3.org/Graphics/SVG/1.1/DTD/svg11.dtd">
<!-- Created with matplotlib (https://matplotlib.org/) -->
<svg height="144pt" version="1.1" viewBox="0 0 216 144" width="216pt" xmlns="http://www.w3.org/2000/svg" xmlns:xlink="http://www.w3.org/1999/xlink">
 <defs>
  <style type="text/css">
*{stroke-linecap:butt;stroke-linejoin:round;}
  </style>
 </defs>
 <g id="figure_1">
  <g id="patch_1">
   <path d="M 0 144 
L 216 144 
L 216 0 
L 0 0 
z
" style="fill:#ffffff;"/>
  </g>
  <g id="axes_1">
   <g id="patch_2">
    <path clip-path="url(#pcaa3a6e212)" d="M 19.636364 133.2 
L 24.054545 133.2 
L 24.054545 133.2 
L 19.636364 133.2 
z
" style="fill:#2ca02c;"/>
   </g>
   <g id="patch_3">
    <path clip-path="url(#pcaa3a6e212)" d="M 24.054545 133.2 
L 28.472727 133.2 
L 28.472727 133.2 
L 24.054545 133.2 
z
" style="fill:#2ca02c;"/>
   </g>
   <g id="patch_4">
    <path clip-path="url(#pcaa3a6e212)" d="M 28.472727 133.2 
L 32.890909 133.2 
L 32.890909 133.2 
L 28.472727 133.2 
z
" style="fill:#2ca02c;"/>
   </g>
   <g id="patch_5">
    <path clip-path="url(#pcaa3a6e212)" d="M 32.890909 133.2 
L 37.309091 133.2 
L 37.309091 133.2 
L 32.890909 133.2 
z
" style="fill:#2ca02c;"/>
   </g>
   <g id="patch_6">
    <path clip-path="url(#pcaa3a6e212)" d="M 37.309091 133.2 
L 41.727273 133.2 
L 41.727273 133.2 
L 37.309091 133.2 
z
" style="fill:#2ca02c;"/>
   </g>
   <g id="patch_7">
    <path clip-path="url(#pcaa3a6e212)" d="M 41.727273 133.2 
L 46.145455 133.2 
L 46.145455 133.2 
L 41.727273 133.2 
z
" style="fill:#2ca02c;"/>
   </g>
   <g id="patch_8">
    <path clip-path="url(#pcaa3a6e212)" d="M 46.145455 133.2 
L 50.563636 133.2 
L 50.563636 133.2 
L 46.145455 133.2 
z
" style="fill:#2ca02c;"/>
   </g>
   <g id="patch_9">
    <path clip-path="url(#pcaa3a6e212)" d="M 50.563636 133.2 
L 54.981818 133.2 
L 54.981818 133.2 
L 50.563636 133.2 
z
" style="fill:#2ca02c;"/>
   </g>
   <g id="patch_10">
    <path clip-path="url(#pcaa3a6e212)" d="M 54.981818 133.2 
L 59.4 133.2 
L 59.4 133.2 
L 54.981818 133.2 
z
" style="fill:#2ca02c;"/>
   </g>
   <g id="patch_11">
    <path clip-path="url(#pcaa3a6e212)" d="M 59.4 133.2 
L 63.818182 133.2 
L 63.818182 133.2 
L 59.4 133.2 
z
" style="fill:#2ca02c;"/>
   </g>
   <g id="patch_12">
    <path clip-path="url(#pcaa3a6e212)" d="M 63.818182 133.2 
L 68.236364 133.2 
L 68.236364 133.2 
L 63.818182 133.2 
z
" style="fill:#2ca02c;"/>
   </g>
   <g id="patch_13">
    <path clip-path="url(#pcaa3a6e212)" d="M 68.236364 133.2 
L 72.654545 133.2 
L 72.654545 133.2 
L 68.236364 133.2 
z
" style="fill:#2ca02c;"/>
   </g>
   <g id="patch_14">
    <path clip-path="url(#pcaa3a6e212)" d="M 72.654545 133.2 
L 77.072727 133.2 
L 77.072727 133.2 
L 72.654545 133.2 
z
" style="fill:#2ca02c;"/>
   </g>
   <g id="patch_15">
    <path clip-path="url(#pcaa3a6e212)" d="M 77.072727 133.2 
L 81.490909 133.2 
L 81.490909 133.2 
L 77.072727 133.2 
z
" style="fill:#2ca02c;"/>
   </g>
   <g id="patch_16">
    <path clip-path="url(#pcaa3a6e212)" d="M 81.490909 133.2 
L 85.909091 133.2 
L 85.909091 133.2 
L 81.490909 133.2 
z
" style="fill:#2ca02c;"/>
   </g>
   <g id="patch_17">
    <path clip-path="url(#pcaa3a6e212)" d="M 85.909091 133.2 
L 90.327273 133.2 
L 90.327273 34.723318 
L 85.909091 34.723318 
z
" style="fill:#2ca02c;"/>
   </g>
   <g id="patch_18">
    <path clip-path="url(#pcaa3a6e212)" d="M 90.327273 133.2 
L 94.745455 133.2 
L 94.745455 24.845427 
L 90.327273 24.845427 
z
" style="fill:#2ca02c;"/>
   </g>
   <g id="patch_19">
    <path clip-path="url(#pcaa3a6e212)" d="M 94.745455 133.2 
L 99.163636 133.2 
L 99.163636 29.497356 
L 94.745455 29.497356 
z
" style="fill:#2ca02c;"/>
   </g>
   <g id="patch_20">
    <path clip-path="url(#pcaa3a6e212)" d="M 99.163636 133.2 
L 103.581818 133.2 
L 103.581818 20.553705 
L 99.163636 20.553705 
z
" style="fill:#2ca02c;"/>
   </g>
   <g id="patch_21">
    <path clip-path="url(#pcaa3a6e212)" d="M 103.581818 133.2 
L 108 133.2 
L 108 33.837025 
L 103.581818 33.837025 
z
" style="fill:#2ca02c;"/>
   </g>
   <g id="patch_22">
    <path clip-path="url(#pcaa3a6e212)" d="M 108 133.2 
L 112.418182 133.2 
L 112.418182 22.320043 
L 108 22.320043 
z
" style="fill:#2ca02c;"/>
   </g>
   <g id="patch_23">
    <path clip-path="url(#pcaa3a6e212)" d="M 112.418182 133.2 
L 116.836364 133.2 
L 116.836364 25.154704 
L 112.418182 25.154704 
z
" style="fill:#2ca02c;"/>
   </g>
   <g id="patch_24">
    <path clip-path="url(#pcaa3a6e212)" d="M 116.836364 133.2 
L 121.254545 133.2 
L 121.254545 27.363802 
L 116.836364 27.363802 
z
" style="fill:#2ca02c;"/>
   </g>
   <g id="patch_25">
    <path clip-path="url(#pcaa3a6e212)" d="M 121.254545 133.2 
L 125.672727 133.2 
L 125.672727 29.111962 
L 121.254545 29.111962 
z
" style="fill:#2ca02c;"/>
   </g>
   <g id="patch_26">
    <path clip-path="url(#pcaa3a6e212)" d="M 125.672727 133.2 
L 130.090909 133.2 
L 130.090909 16.628571 
L 125.672727 16.628571 
z
" style="fill:#2ca02c;"/>
   </g>
   <g id="patch_27">
    <path clip-path="url(#pcaa3a6e212)" d="M 130.090909 133.2 
L 134.509091 133.2 
L 134.509091 24.042447 
L 130.090909 24.042447 
z
" style="fill:#2ca02c;"/>
   </g>
   <g id="patch_28">
    <path clip-path="url(#pcaa3a6e212)" d="M 134.509091 133.2 
L 138.927273 133.2 
L 138.927273 19.721312 
L 134.509091 19.721312 
z
" style="fill:#2ca02c;"/>
   </g>
   <g id="patch_29">
    <path clip-path="url(#pcaa3a6e212)" d="M 138.927273 133.2 
L 143.345455 133.2 
L 143.345455 69.845115 
L 138.927273 69.845115 
z
" style="fill:#2ca02c;"/>
   </g>
   <g id="patch_30">
    <path clip-path="url(#pcaa3a6e212)" d="M 143.345455 133.2 
L 147.763636 133.2 
L 147.763636 133.2 
L 143.345455 133.2 
z
" style="fill:#2ca02c;"/>
   </g>
   <g id="patch_31">
    <path clip-path="url(#pcaa3a6e212)" d="M 147.763636 133.2 
L 152.181818 133.2 
L 152.181818 133.2 
L 147.763636 133.2 
z
" style="fill:#2ca02c;"/>
   </g>
   <g id="patch_32">
    <path clip-path="url(#pcaa3a6e212)" d="M 152.181818 133.2 
L 156.6 133.2 
L 156.6 133.2 
L 152.181818 133.2 
z
" style="fill:#2ca02c;"/>
   </g>
   <g id="patch_33">
    <path clip-path="url(#pcaa3a6e212)" d="M 156.6 133.2 
L 161.018182 133.2 
L 161.018182 133.2 
L 156.6 133.2 
z
" style="fill:#2ca02c;"/>
   </g>
   <g id="patch_34">
    <path clip-path="url(#pcaa3a6e212)" d="M 161.018182 133.2 
L 165.436364 133.2 
L 165.436364 133.2 
L 161.018182 133.2 
z
" style="fill:#2ca02c;"/>
   </g>
   <g id="patch_35">
    <path clip-path="url(#pcaa3a6e212)" d="M 165.436364 133.2 
L 169.854545 133.2 
L 169.854545 133.2 
L 165.436364 133.2 
z
" style="fill:#2ca02c;"/>
   </g>
   <g id="patch_36">
    <path clip-path="url(#pcaa3a6e212)" d="M 169.854545 133.2 
L 174.272727 133.2 
L 174.272727 133.2 
L 169.854545 133.2 
z
" style="fill:#2ca02c;"/>
   </g>
   <g id="patch_37">
    <path clip-path="url(#pcaa3a6e212)" d="M 174.272727 133.2 
L 178.690909 133.2 
L 178.690909 133.2 
L 174.272727 133.2 
z
" style="fill:#2ca02c;"/>
   </g>
   <g id="patch_38">
    <path clip-path="url(#pcaa3a6e212)" d="M 178.690909 133.2 
L 183.109091 133.2 
L 183.109091 133.2 
L 178.690909 133.2 
z
" style="fill:#2ca02c;"/>
   </g>
   <g id="patch_39">
    <path clip-path="url(#pcaa3a6e212)" d="M 183.109091 133.2 
L 187.527273 133.2 
L 187.527273 133.2 
L 183.109091 133.2 
z
" style="fill:#2ca02c;"/>
   </g>
   <g id="patch_40">
    <path clip-path="url(#pcaa3a6e212)" d="M 187.527273 133.2 
L 191.945455 133.2 
L 191.945455 133.2 
L 187.527273 133.2 
z
" style="fill:#2ca02c;"/>
   </g>
   <g id="patch_41">
    <path clip-path="url(#pcaa3a6e212)" d="M 191.945455 133.2 
L 196.363636 133.2 
L 196.363636 133.2 
L 191.945455 133.2 
z
" style="fill:#2ca02c;"/>
   </g>
   <g id="line2d_1">
    <path clip-path="url(#pcaa3a6e212)" d="M 19.636364 133.192549 
L 34.733668 133.063153 
L 40.950206 132.814179 
L 45.390589 132.435584 
L 48.942896 131.922678 
L 51.607127 131.358828 
L 54.271357 130.589577 
L 56.935587 129.559198 
L 59.599817 128.204269 
L 61.375971 127.086533 
L 63.152124 125.772174 
L 64.928278 124.239445 
L 66.704431 122.467012 
L 68.480585 120.43466 
L 70.256738 118.124094 
L 72.032892 115.519805 
L 73.809045 112.609991 
L 75.585199 109.387497 
L 78.249429 103.965735 
L 80.913659 97.86088 
L 83.577889 91.1332 
L 87.130196 81.375455 
L 92.458657 65.819802 
L 96.899041 53.092222 
L 99.563271 46.066745 
L 102.227501 39.807431 
L 104.003655 36.177257 
L 105.779808 33.05492 
L 107.555962 30.494726 
L 109.332115 28.541356 
L 110.220192 27.803235 
L 111.108269 27.228567 
L 111.996345 26.819705 
L 112.884422 26.57822 
L 113.772499 26.504887 
L 114.660576 26.599685 
L 115.548652 26.861803 
L 116.436729 27.28964 
L 117.324806 27.880831 
L 118.212883 28.63226 
L 119.989036 30.599806 
L 121.76519 33.153558 
L 123.541343 36.245072 
L 125.317497 39.817689 
L 127.09365 43.808235 
L 129.75788 50.428407 
L 133.310187 60.066222 
L 143.079032 87.204803 
L 145.743262 93.905732 
L 148.407492 100.067747 
L 151.071722 105.625023 
L 153.735952 110.545271 
L 156.400183 114.825355 
L 158.176336 117.332501 
L 159.95249 119.574782 
L 161.728643 121.565848 
L 163.504797 123.321456 
L 165.28095 124.858795 
L 167.057104 126.195891 
L 169.721334 127.866157 
L 172.385564 129.188005 
L 175.049794 130.21909 
L 177.714025 131.012034 
L 181.266332 131.77838 
L 184.818639 132.295821 
L 189.259022 132.701486 
L 195.47556 132.994958 
L 196.363636 133.02033 
L 196.363636 133.02033 
" style="fill:none;stroke:#000000;stroke-linecap:square;stroke-width:1.5;"/>
   </g>
  </g>
 </g>
 <defs>
  <clipPath id="pcaa3a6e212">
   <rect height="122.4" width="194.4" x="10.8" y="10.8"/>
  </clipPath>
 </defs>
</svg>
