<?xml version="1.0" encoding="utf-8" standalone="no"?>
<!DOCTYPE svg PUBLIC "-//W3C//DTD SVG 1.1//EN"
  "http://www.w3.org/Graphics/SVG/1.1/DTD/svg11.dtd">
<!-- Created with matplotlib (https://matplotlib.org/) -->
<svg height="216pt" version="1.1" viewBox="0 0 432 216" width="432pt" xmlns="http://www.w3.org/2000/svg" xmlns:xlink="http://www.w3.org/1999/xlink">
 <defs>
  <style type="text/css">
*{stroke-linecap:butt;stroke-linejoin:round;}
  </style>
 </defs>
 <g id="figure_1">
  <g id="patch_1">
   <path d="M 0 216 
L 432 216 
L 432 0 
L 0 0 
z
" style="fill:#ffffff;"/>
  </g>
  <g id="axes_1">
   <g id="patch_2">
    <path d="M 50.8 170.4 
L 186.663232 170.4 
L 186.663232 12.479656 
L 50.8 12.479656 
z
" style="fill:#ffffff;"/>
   </g>
   <g id="matplotlib.axis_1">
    <g id="xtick_1">
     <g id="line2d_1">
      <defs>
       <path d="M 0 0 
L 0 3.5 
" id="m56f2d51c23" style="stroke:#000000;stroke-width:0.8;"/>
      </defs>
      <g>
       <use style="stroke:#000000;stroke-width:0.8;" x="71.702036" xlink:href="#m56f2d51c23" y="170.4"/>
      </g>
     </g>
     <g id="text_1">
      <!-- 0.055 -->
      <defs>
       <path d="M 31.78125 66.40625 
Q 24.171875 66.40625 20.328125 58.90625 
Q 16.5 51.421875 16.5 36.375 
Q 16.5 21.390625 20.328125 13.890625 
Q 24.171875 6.390625 31.78125 6.390625 
Q 39.453125 6.390625 43.28125 13.890625 
Q 47.125 21.390625 47.125 36.375 
Q 47.125 51.421875 43.28125 58.90625 
Q 39.453125 66.40625 31.78125 66.40625 
z
M 31.78125 74.21875 
Q 44.046875 74.21875 50.515625 64.515625 
Q 56.984375 54.828125 56.984375 36.375 
Q 56.984375 17.96875 50.515625 8.265625 
Q 44.046875 -1.421875 31.78125 -1.421875 
Q 19.53125 -1.421875 13.0625 8.265625 
Q 6.59375 17.96875 6.59375 36.375 
Q 6.59375 54.828125 13.0625 64.515625 
Q 19.53125 74.21875 31.78125 74.21875 
z
" id="DejaVuSans-48"/>
       <path d="M 10.6875 12.40625 
L 21 12.40625 
L 21 0 
L 10.6875 0 
z
" id="DejaVuSans-46"/>
       <path d="M 10.796875 72.90625 
L 49.515625 72.90625 
L 49.515625 64.59375 
L 19.828125 64.59375 
L 19.828125 46.734375 
Q 21.96875 47.46875 24.109375 47.828125 
Q 26.265625 48.1875 28.421875 48.1875 
Q 40.625 48.1875 47.75 41.5 
Q 54.890625 34.8125 54.890625 23.390625 
Q 54.890625 11.625 47.5625 5.09375 
Q 40.234375 -1.421875 26.90625 -1.421875 
Q 22.3125 -1.421875 17.546875 -0.640625 
Q 12.796875 0.140625 7.71875 1.703125 
L 7.71875 11.625 
Q 12.109375 9.234375 16.796875 8.0625 
Q 21.484375 6.890625 26.703125 6.890625 
Q 35.15625 6.890625 40.078125 11.328125 
Q 45.015625 15.765625 45.015625 23.390625 
Q 45.015625 31 40.078125 35.4375 
Q 35.15625 39.890625 26.703125 39.890625 
Q 22.75 39.890625 18.8125 39.015625 
Q 14.890625 38.140625 10.796875 36.28125 
z
" id="DejaVuSans-53"/>
      </defs>
      <g transform="translate(57.387973 184.998437)scale(0.1 -0.1)">
       <use xlink:href="#DejaVuSans-48"/>
       <use x="63.623047" xlink:href="#DejaVuSans-46"/>
       <use x="95.410156" xlink:href="#DejaVuSans-48"/>
       <use x="159.033203" xlink:href="#DejaVuSans-53"/>
       <use x="222.65625" xlink:href="#DejaVuSans-53"/>
      </g>
     </g>
    </g>
    <g id="xtick_2">
     <g id="line2d_2">
      <g>
       <use style="stroke:#000000;stroke-width:0.8;" x="123.957125" xlink:href="#m56f2d51c23" y="170.4"/>
      </g>
     </g>
     <g id="text_2">
      <!-- 0.060 -->
      <defs>
       <path d="M 33.015625 40.375 
Q 26.375 40.375 22.484375 35.828125 
Q 18.609375 31.296875 18.609375 23.390625 
Q 18.609375 15.53125 22.484375 10.953125 
Q 26.375 6.390625 33.015625 6.390625 
Q 39.65625 6.390625 43.53125 10.953125 
Q 47.40625 15.53125 47.40625 23.390625 
Q 47.40625 31.296875 43.53125 35.828125 
Q 39.65625 40.375 33.015625 40.375 
z
M 52.59375 71.296875 
L 52.59375 62.3125 
Q 48.875 64.0625 45.09375 64.984375 
Q 41.3125 65.921875 37.59375 65.921875 
Q 27.828125 65.921875 22.671875 59.328125 
Q 17.53125 52.734375 16.796875 39.40625 
Q 19.671875 43.65625 24.015625 45.921875 
Q 28.375 48.1875 33.59375 48.1875 
Q 44.578125 48.1875 50.953125 41.515625 
Q 57.328125 34.859375 57.328125 23.390625 
Q 57.328125 12.15625 50.6875 5.359375 
Q 44.046875 -1.421875 33.015625 -1.421875 
Q 20.359375 -1.421875 13.671875 8.265625 
Q 6.984375 17.96875 6.984375 36.375 
Q 6.984375 53.65625 15.1875 63.9375 
Q 23.390625 74.21875 37.203125 74.21875 
Q 40.921875 74.21875 44.703125 73.484375 
Q 48.484375 72.75 52.59375 71.296875 
z
" id="DejaVuSans-54"/>
      </defs>
      <g transform="translate(109.643062 184.998437)scale(0.1 -0.1)">
       <use xlink:href="#DejaVuSans-48"/>
       <use x="63.623047" xlink:href="#DejaVuSans-46"/>
       <use x="95.410156" xlink:href="#DejaVuSans-48"/>
       <use x="159.033203" xlink:href="#DejaVuSans-54"/>
       <use x="222.65625" xlink:href="#DejaVuSans-48"/>
      </g>
     </g>
    </g>
    <g id="xtick_3">
     <g id="line2d_3">
      <g>
       <use style="stroke:#000000;stroke-width:0.8;" x="176.212214" xlink:href="#m56f2d51c23" y="170.4"/>
      </g>
     </g>
     <g id="text_3">
      <!-- 0.065 -->
      <g transform="translate(161.898152 184.998437)scale(0.1 -0.1)">
       <use xlink:href="#DejaVuSans-48"/>
       <use x="63.623047" xlink:href="#DejaVuSans-46"/>
       <use x="95.410156" xlink:href="#DejaVuSans-48"/>
       <use x="159.033203" xlink:href="#DejaVuSans-54"/>
       <use x="222.65625" xlink:href="#DejaVuSans-53"/>
      </g>
     </g>
    </g>
    <g id="text_4">
     <!-- Parameter $\theta_1$ -->
     <defs>
      <path d="M 19.671875 64.796875 
L 19.671875 37.40625 
L 32.078125 37.40625 
Q 38.96875 37.40625 42.71875 40.96875 
Q 46.484375 44.53125 46.484375 51.125 
Q 46.484375 57.671875 42.71875 61.234375 
Q 38.96875 64.796875 32.078125 64.796875 
z
M 9.8125 72.90625 
L 32.078125 72.90625 
Q 44.34375 72.90625 50.609375 67.359375 
Q 56.890625 61.8125 56.890625 51.125 
Q 56.890625 40.328125 50.609375 34.8125 
Q 44.34375 29.296875 32.078125 29.296875 
L 19.671875 29.296875 
L 19.671875 0 
L 9.8125 0 
z
" id="DejaVuSans-80"/>
      <path d="M 34.28125 27.484375 
Q 23.390625 27.484375 19.1875 25 
Q 14.984375 22.515625 14.984375 16.5 
Q 14.984375 11.71875 18.140625 8.90625 
Q 21.296875 6.109375 26.703125 6.109375 
Q 34.1875 6.109375 38.703125 11.40625 
Q 43.21875 16.703125 43.21875 25.484375 
L 43.21875 27.484375 
z
M 52.203125 31.203125 
L 52.203125 0 
L 43.21875 0 
L 43.21875 8.296875 
Q 40.140625 3.328125 35.546875 0.953125 
Q 30.953125 -1.421875 24.3125 -1.421875 
Q 15.921875 -1.421875 10.953125 3.296875 
Q 6 8.015625 6 15.921875 
Q 6 25.140625 12.171875 29.828125 
Q 18.359375 34.515625 30.609375 34.515625 
L 43.21875 34.515625 
L 43.21875 35.40625 
Q 43.21875 41.609375 39.140625 45 
Q 35.0625 48.390625 27.6875 48.390625 
Q 23 48.390625 18.546875 47.265625 
Q 14.109375 46.140625 10.015625 43.890625 
L 10.015625 52.203125 
Q 14.9375 54.109375 19.578125 55.046875 
Q 24.21875 56 28.609375 56 
Q 40.484375 56 46.34375 49.84375 
Q 52.203125 43.703125 52.203125 31.203125 
z
" id="DejaVuSans-97"/>
      <path d="M 41.109375 46.296875 
Q 39.59375 47.171875 37.8125 47.578125 
Q 36.03125 48 33.890625 48 
Q 26.265625 48 22.1875 43.046875 
Q 18.109375 38.09375 18.109375 28.8125 
L 18.109375 0 
L 9.078125 0 
L 9.078125 54.6875 
L 18.109375 54.6875 
L 18.109375 46.1875 
Q 20.953125 51.171875 25.484375 53.578125 
Q 30.03125 56 36.53125 56 
Q 37.453125 56 38.578125 55.875 
Q 39.703125 55.765625 41.0625 55.515625 
z
" id="DejaVuSans-114"/>
      <path d="M 52 44.1875 
Q 55.375 50.25 60.0625 53.125 
Q 64.75 56 71.09375 56 
Q 79.640625 56 84.28125 50.015625 
Q 88.921875 44.046875 88.921875 33.015625 
L 88.921875 0 
L 79.890625 0 
L 79.890625 32.71875 
Q 79.890625 40.578125 77.09375 44.375 
Q 74.3125 48.1875 68.609375 48.1875 
Q 61.625 48.1875 57.5625 43.546875 
Q 53.515625 38.921875 53.515625 30.90625 
L 53.515625 0 
L 44.484375 0 
L 44.484375 32.71875 
Q 44.484375 40.625 41.703125 44.40625 
Q 38.921875 48.1875 33.109375 48.1875 
Q 26.21875 48.1875 22.15625 43.53125 
Q 18.109375 38.875 18.109375 30.90625 
L 18.109375 0 
L 9.078125 0 
L 9.078125 54.6875 
L 18.109375 54.6875 
L 18.109375 46.1875 
Q 21.1875 51.21875 25.484375 53.609375 
Q 29.78125 56 35.6875 56 
Q 41.65625 56 45.828125 52.96875 
Q 50 49.953125 52 44.1875 
z
" id="DejaVuSans-109"/>
      <path d="M 56.203125 29.59375 
L 56.203125 25.203125 
L 14.890625 25.203125 
Q 15.484375 15.921875 20.484375 11.0625 
Q 25.484375 6.203125 34.421875 6.203125 
Q 39.59375 6.203125 44.453125 7.46875 
Q 49.3125 8.734375 54.109375 11.28125 
L 54.109375 2.78125 
Q 49.265625 0.734375 44.1875 -0.34375 
Q 39.109375 -1.421875 33.890625 -1.421875 
Q 20.796875 -1.421875 13.15625 6.1875 
Q 5.515625 13.8125 5.515625 26.8125 
Q 5.515625 40.234375 12.765625 48.109375 
Q 20.015625 56 32.328125 56 
Q 43.359375 56 49.78125 48.890625 
Q 56.203125 41.796875 56.203125 29.59375 
z
M 47.21875 32.234375 
Q 47.125 39.59375 43.09375 43.984375 
Q 39.0625 48.390625 32.421875 48.390625 
Q 24.90625 48.390625 20.390625 44.140625 
Q 15.875 39.890625 15.1875 32.171875 
z
" id="DejaVuSans-101"/>
      <path d="M 18.3125 70.21875 
L 18.3125 54.6875 
L 36.8125 54.6875 
L 36.8125 47.703125 
L 18.3125 47.703125 
L 18.3125 18.015625 
Q 18.3125 11.328125 20.140625 9.421875 
Q 21.96875 7.515625 27.59375 7.515625 
L 36.8125 7.515625 
L 36.8125 0 
L 27.59375 0 
Q 17.1875 0 13.234375 3.875 
Q 9.28125 7.765625 9.28125 18.015625 
L 9.28125 47.703125 
L 2.6875 47.703125 
L 2.6875 54.6875 
L 9.28125 54.6875 
L 9.28125 70.21875 
z
" id="DejaVuSans-116"/>
      <path id="DejaVuSans-32"/>
      <path d="M 45.515625 34.671875 
L 14.453125 34.671875 
Q 12.359375 20.0625 14.5 13.875 
Q 17.1875 6.25 24.46875 6.25 
Q 31.78125 6.25 37.359375 13.921875 
Q 42.234375 20.65625 45.515625 34.671875 
z
M 47.015625 42.96875 
Q 48.34375 56.84375 46.625 61.71875 
Q 43.953125 69.4375 36.765625 69.4375 
Q 29.296875 69.4375 23.828125 61.8125 
Q 19.53125 55.671875 16.15625 42.96875 
z
M 38.1875 76.765625 
Q 49.90625 76.765625 54.59375 66.40625 
Q 59.28125 56.109375 55.71875 37.84375 
Q 52.203125 19.625 43.453125 9.28125 
Q 34.765625 -1.125 23.046875 -1.125 
Q 11.28125 -1.125 6.640625 9.28125 
Q 2 19.625 5.515625 37.84375 
Q 9.078125 56.109375 17.71875 66.40625 
Q 26.421875 76.765625 38.1875 76.765625 
z
" id="DejaVuSans-Oblique-952"/>
      <path d="M 12.40625 8.296875 
L 28.515625 8.296875 
L 28.515625 63.921875 
L 10.984375 60.40625 
L 10.984375 69.390625 
L 28.421875 72.90625 
L 38.28125 72.90625 
L 38.28125 8.296875 
L 54.390625 8.296875 
L 54.390625 0 
L 12.40625 0 
z
" id="DejaVuSans-49"/>
     </defs>
     <g transform="translate(85.481616 198.676562)scale(0.1 -0.1)">
      <use transform="translate(0 0.234375)" xlink:href="#DejaVuSans-80"/>
      <use transform="translate(60.302734 0.234375)" xlink:href="#DejaVuSans-97"/>
      <use transform="translate(121.582031 0.234375)" xlink:href="#DejaVuSans-114"/>
      <use transform="translate(162.695312 0.234375)" xlink:href="#DejaVuSans-97"/>
      <use transform="translate(223.974609 0.234375)" xlink:href="#DejaVuSans-109"/>
      <use transform="translate(321.386719 0.234375)" xlink:href="#DejaVuSans-101"/>
      <use transform="translate(382.910156 0.234375)" xlink:href="#DejaVuSans-116"/>
      <use transform="translate(422.119141 0.234375)" xlink:href="#DejaVuSans-101"/>
      <use transform="translate(483.642578 0.234375)" xlink:href="#DejaVuSans-114"/>
      <use transform="translate(524.755859 0.234375)" xlink:href="#DejaVuSans-32"/>
      <use transform="translate(556.542969 0.234375)" xlink:href="#DejaVuSans-Oblique-952"/>
      <use transform="translate(617.724609 -16.171875)scale(0.7)" xlink:href="#DejaVuSans-49"/>
     </g>
    </g>
   </g>
   <g id="matplotlib.axis_2">
    <g id="ytick_1">
     <g id="line2d_4">
      <defs>
       <path d="M 0 0 
L -3.5 0 
" id="m6a2bb0e21b" style="stroke:#000000;stroke-width:0.8;"/>
      </defs>
      <g>
       <use style="stroke:#000000;stroke-width:0.8;" x="50.8" xlink:href="#m6a2bb0e21b" y="163.937801"/>
      </g>
     </g>
     <g id="text_5">
      <!-- 0 -->
      <g transform="translate(37.4375 167.737019)scale(0.1 -0.1)">
       <use xlink:href="#DejaVuSans-48"/>
      </g>
     </g>
    </g>
    <g id="ytick_2">
     <g id="line2d_5">
      <g>
       <use style="stroke:#000000;stroke-width:0.8;" x="50.8" xlink:href="#m6a2bb0e21b" y="131.911798"/>
      </g>
     </g>
     <g id="text_6">
      <!-- 50 -->
      <g transform="translate(31.075 135.711016)scale(0.1 -0.1)">
       <use xlink:href="#DejaVuSans-53"/>
       <use x="63.623047" xlink:href="#DejaVuSans-48"/>
      </g>
     </g>
    </g>
    <g id="ytick_3">
     <g id="line2d_6">
      <g>
       <use style="stroke:#000000;stroke-width:0.8;" x="50.8" xlink:href="#m6a2bb0e21b" y="99.885795"/>
      </g>
     </g>
     <g id="text_7">
      <!-- 100 -->
      <g transform="translate(24.7125 103.685014)scale(0.1 -0.1)">
       <use xlink:href="#DejaVuSans-49"/>
       <use x="63.623047" xlink:href="#DejaVuSans-48"/>
       <use x="127.246094" xlink:href="#DejaVuSans-48"/>
      </g>
     </g>
    </g>
    <g id="ytick_4">
     <g id="line2d_7">
      <g>
       <use style="stroke:#000000;stroke-width:0.8;" x="50.8" xlink:href="#m6a2bb0e21b" y="67.859792"/>
      </g>
     </g>
     <g id="text_8">
      <!-- 150 -->
      <g transform="translate(24.7125 71.659011)scale(0.1 -0.1)">
       <use xlink:href="#DejaVuSans-49"/>
       <use x="63.623047" xlink:href="#DejaVuSans-53"/>
       <use x="127.246094" xlink:href="#DejaVuSans-48"/>
      </g>
     </g>
    </g>
    <g id="ytick_5">
     <g id="line2d_8">
      <g>
       <use style="stroke:#000000;stroke-width:0.8;" x="50.8" xlink:href="#m6a2bb0e21b" y="35.833789"/>
      </g>
     </g>
     <g id="text_9">
      <!-- 200 -->
      <defs>
       <path d="M 19.1875 8.296875 
L 53.609375 8.296875 
L 53.609375 0 
L 7.328125 0 
L 7.328125 8.296875 
Q 12.9375 14.109375 22.625 23.890625 
Q 32.328125 33.6875 34.8125 36.53125 
Q 39.546875 41.84375 41.421875 45.53125 
Q 43.3125 49.21875 43.3125 52.78125 
Q 43.3125 58.59375 39.234375 62.25 
Q 35.15625 65.921875 28.609375 65.921875 
Q 23.96875 65.921875 18.8125 64.3125 
Q 13.671875 62.703125 7.8125 59.421875 
L 7.8125 69.390625 
Q 13.765625 71.78125 18.9375 73 
Q 24.125 74.21875 28.421875 74.21875 
Q 39.75 74.21875 46.484375 68.546875 
Q 53.21875 62.890625 53.21875 53.421875 
Q 53.21875 48.921875 51.53125 44.890625 
Q 49.859375 40.875 45.40625 35.40625 
Q 44.1875 33.984375 37.640625 27.21875 
Q 31.109375 20.453125 19.1875 8.296875 
z
" id="DejaVuSans-50"/>
      </defs>
      <g transform="translate(24.7125 39.633008)scale(0.1 -0.1)">
       <use xlink:href="#DejaVuSans-50"/>
       <use x="63.623047" xlink:href="#DejaVuSans-48"/>
       <use x="127.246094" xlink:href="#DejaVuSans-48"/>
      </g>
     </g>
    </g>
    <g id="text_10">
     <!-- Posterior -->
     <defs>
      <path d="M 30.609375 48.390625 
Q 23.390625 48.390625 19.1875 42.75 
Q 14.984375 37.109375 14.984375 27.296875 
Q 14.984375 17.484375 19.15625 11.84375 
Q 23.34375 6.203125 30.609375 6.203125 
Q 37.796875 6.203125 41.984375 11.859375 
Q 46.1875 17.53125 46.1875 27.296875 
Q 46.1875 37.015625 41.984375 42.703125 
Q 37.796875 48.390625 30.609375 48.390625 
z
M 30.609375 56 
Q 42.328125 56 49.015625 48.375 
Q 55.71875 40.765625 55.71875 27.296875 
Q 55.71875 13.875 49.015625 6.21875 
Q 42.328125 -1.421875 30.609375 -1.421875 
Q 18.84375 -1.421875 12.171875 6.21875 
Q 5.515625 13.875 5.515625 27.296875 
Q 5.515625 40.765625 12.171875 48.375 
Q 18.84375 56 30.609375 56 
z
" id="DejaVuSans-111"/>
      <path d="M 44.28125 53.078125 
L 44.28125 44.578125 
Q 40.484375 46.53125 36.375 47.5 
Q 32.28125 48.484375 27.875 48.484375 
Q 21.1875 48.484375 17.84375 46.4375 
Q 14.5 44.390625 14.5 40.28125 
Q 14.5 37.15625 16.890625 35.375 
Q 19.28125 33.59375 26.515625 31.984375 
L 29.59375 31.296875 
Q 39.15625 29.25 43.1875 25.515625 
Q 47.21875 21.78125 47.21875 15.09375 
Q 47.21875 7.46875 41.1875 3.015625 
Q 35.15625 -1.421875 24.609375 -1.421875 
Q 20.21875 -1.421875 15.453125 -0.5625 
Q 10.6875 0.296875 5.421875 2 
L 5.421875 11.28125 
Q 10.40625 8.6875 15.234375 7.390625 
Q 20.0625 6.109375 24.8125 6.109375 
Q 31.15625 6.109375 34.5625 8.28125 
Q 37.984375 10.453125 37.984375 14.40625 
Q 37.984375 18.0625 35.515625 20.015625 
Q 33.0625 21.96875 24.703125 23.78125 
L 21.578125 24.515625 
Q 13.234375 26.265625 9.515625 29.90625 
Q 5.8125 33.546875 5.8125 39.890625 
Q 5.8125 47.609375 11.28125 51.796875 
Q 16.75 56 26.8125 56 
Q 31.78125 56 36.171875 55.265625 
Q 40.578125 54.546875 44.28125 53.078125 
z
" id="DejaVuSans-115"/>
      <path d="M 9.421875 54.6875 
L 18.40625 54.6875 
L 18.40625 0 
L 9.421875 0 
z
M 9.421875 75.984375 
L 18.40625 75.984375 
L 18.40625 64.59375 
L 9.421875 64.59375 
z
" id="DejaVuSans-105"/>
     </defs>
     <g transform="translate(18.632812 113.712484)rotate(-90)scale(0.1 -0.1)">
      <use xlink:href="#DejaVuSans-80"/>
      <use x="60.255859" xlink:href="#DejaVuSans-111"/>
      <use x="121.4375" xlink:href="#DejaVuSans-115"/>
      <use x="173.537109" xlink:href="#DejaVuSans-116"/>
      <use x="212.746094" xlink:href="#DejaVuSans-101"/>
      <use x="274.269531" xlink:href="#DejaVuSans-114"/>
      <use x="315.382812" xlink:href="#DejaVuSans-105"/>
      <use x="343.166016" xlink:href="#DejaVuSans-111"/>
      <use x="404.347656" xlink:href="#DejaVuSans-114"/>
     </g>
    </g>
   </g>
   <g id="line2d_9">
    <path clip-path="url(#p1285b6b3ee)" d="M 50.8 163.221803 
L 52.172356 163.120774 
L 53.544712 163.005486 
L 54.917068 162.873919 
L 56.289424 162.723771 
L 57.661779 162.552419 
L 59.034135 162.356877 
L 60.406491 162.133745 
L 61.778847 161.879166 
L 63.151203 161.588759 
L 64.523559 161.257564 
L 65.895915 160.879974 
L 67.268271 160.44966 
L 68.640626 159.959501 
L 70.012982 159.401507 
L 71.385338 158.766737 
L 72.757694 158.045225 
L 74.13005 157.22591 
L 75.502406 156.296572 
L 76.874762 155.243784 
L 78.247118 154.052885 
L 79.619473 152.707979 
L 80.991829 151.191975 
L 82.364185 149.486672 
L 83.736541 147.57291 
L 85.108897 145.430784 
L 86.481253 143.039957 
L 87.853609 140.38007 
L 89.225965 137.43126 
L 90.598321 134.174815 
L 91.970676 130.593948 
L 93.343032 126.674717 
L 94.715388 122.407057 
L 96.087744 117.785934 
L 97.4601 112.812573 
L 98.832456 107.495722 
L 100.204812 101.852902 
L 101.577168 95.911554 
L 102.949523 89.710012 
L 104.321879 83.298193 
L 105.694235 76.737918 
L 107.066591 70.102746 
L 108.438947 63.477259 
L 109.811303 56.955724 
L 111.183659 50.640116 
L 112.556015 44.637504 
L 113.92837 39.056898 
L 115.300726 34.005637 
L 116.673082 29.585535 
L 118.045438 25.88895 
L 119.417794 22.995044 
L 120.79015 20.966453 
L 122.162506 19.846604 
L 123.534862 19.657853 
L 124.907217 20.400583 
L 126.279573 22.053317 
L 127.651929 24.573831 
L 129.024285 27.901179 
L 130.396641 31.958479 
L 131.768997 36.656258 
L 133.141353 41.896135 
L 134.513709 47.574612 
L 135.886065 53.586741 
L 137.25842 59.829503 
L 138.630776 66.204729 
L 140.003132 72.621495 
L 141.375488 78.997904 
L 142.747844 85.262297 
L 144.1202 91.353879 
L 145.492556 97.222863 
L 146.864912 102.83018 
L 148.237267 108.146862 
L 149.609623 113.153181 
L 150.981979 117.837627 
L 152.354335 122.195809 
L 153.726691 126.229326 
L 155.099047 129.944679 
L 156.471403 133.352236 
L 157.843759 136.465302 
L 159.216114 139.299284 
L 160.58847 141.870977 
L 161.960826 144.197958 
L 163.333182 146.29809 
L 164.705538 148.18912 
L 166.077894 149.888373 
L 167.45025 151.412521 
L 168.822606 152.777415 
L 170.194962 153.997975 
L 171.567317 155.088129 
L 172.939673 156.060782 
L 174.312029 156.927817 
L 175.684385 157.700115 
L 177.056741 158.387593 
L 178.429097 158.999255 
L 179.801453 159.54324 
L 181.173809 160.026889 
L 182.546164 160.4568 
L 183.91852 160.838892 
L 185.290876 161.17846 
L 186.663232 161.480239 
" style="fill:none;stroke:#808080;stroke-dasharray:5.55,2.4;stroke-dashoffset:0;stroke-width:1.5;"/>
   </g>
   <g id="line2d_10">
    <path clip-path="url(#p1285b6b3ee)" d="M 50.8 152.179273 
L 53.572719 151.103922 
L 56.345438 150.026383 
L 59.118157 148.9574 
L 61.890876 147.907263 
L 64.663595 146.885509 
L 67.436314 145.900683 
L 70.209033 144.960155 
L 72.981752 144.070007 
L 75.754471 143.234979 
L 78.52719 142.458483 
L 81.299909 141.742669 
L 84.072628 141.088527 
L 86.845347 140.496025 
L 89.618066 139.964259 
L 92.390785 139.491615 
L 95.163504 139.075919 
L 97.936223 138.714581 
L 100.708942 138.404731 
L 103.481661 138.143324 
L 106.25438 137.927244 
L 109.027099 137.75338 
L 111.799818 137.618699 
L 114.572538 137.520302 
L 117.345257 137.455468 
L 120.117976 137.421696 
L 122.890695 137.41673 
L 125.663414 137.438577 
L 128.436133 137.485512 
L 131.208852 137.55607 
L 133.981571 137.649021 
L 136.75429 137.763333 
L 139.527009 137.898122 
L 142.299728 138.052585 
L 145.072447 138.225935 
L 147.845166 138.417322 
L 150.617885 138.625768 
L 153.390604 138.850107 
L 156.163323 139.088936 
L 158.936042 139.340597 
L 161.708761 139.603171 
L 164.48148 139.874509 
L 167.254199 140.152285 
L 170.026918 140.434069 
L 172.799637 140.717426 
L 175.572356 141.000021 
L 178.345075 141.27974 
L 181.117794 141.554795 
L 183.890513 141.823829 
L 186.663232 142.085993 
" style="fill:none;stroke:#8c564b;stroke-linecap:square;stroke-width:1.5;"/>
   </g>
   <g id="line2d_11">
    <path clip-path="url(#p1285b6b3ee)" d="M 123.957125 170.4 
L 123.957125 12.479656 
" style="fill:none;stroke:#808080;stroke-dasharray:1.5,2.475;stroke-dashoffset:0;stroke-width:1.5;"/>
   </g>
   <g id="line2d_12">
    <path clip-path="url(#p1285b6b3ee)" d="M 50.8 150.847369 
L 53.572719 148.499291 
L 56.345438 146.200172 
L 59.118157 144.021206 
L 61.890876 142.005236 
L 64.663595 140.162384 
L 67.436314 138.472686 
L 70.209033 136.894491 
L 72.981752 135.376018 
L 75.754471 133.867017 
L 78.52719 132.328014 
L 81.299909 130.735725 
L 84.072628 129.084528 
L 86.845347 127.384841 
L 89.618066 125.659729 
L 92.390785 123.940972 
L 95.163504 122.265419 
L 97.936223 120.671879 
L 100.708942 119.198423 
L 103.481661 117.879804 
L 106.25438 116.744878 
L 109.027099 115.814278 
L 111.799818 115.098801 
L 114.572538 114.599069 
L 117.345257 114.306666 
L 120.117976 114.206519 
L 122.890695 114.279821 
L 125.663414 114.506693 
L 128.436133 114.868015 
L 131.208852 115.346292 
L 133.981571 115.925935 
L 136.75429 116.593438 
L 139.527009 117.337859 
L 142.299728 118.151579 
L 145.072447 119.030986 
L 147.845166 119.976608 
L 150.617885 120.992358 
L 153.390604 122.083945 
L 156.163323 123.256813 
L 158.936042 124.514142 
L 161.708761 125.855332 
L 164.48148 127.275122 
L 167.254199 128.763216 
L 170.026918 130.304223 
L 172.799637 131.877774 
L 175.572356 133.458924 
L 178.345075 135.019136 
L 181.117794 136.528114 
L 183.890513 137.956547 
L 186.663232 139.279442 
" style="fill:none;stroke:#9467bd;stroke-linecap:square;stroke-width:1.5;"/>
   </g>
   <g id="line2d_13">
    <path clip-path="url(#p1285b6b3ee)" d="M 123.957125 170.4 
L 123.957125 12.479656 
" style="fill:none;stroke:#808080;stroke-dasharray:1.5,2.475;stroke-dashoffset:0;stroke-width:1.5;"/>
   </g>
   <g id="line2d_14">
    <path clip-path="url(#p1285b6b3ee)" d="M 50.8 157.28201 
L 53.572719 155.177156 
L 56.345438 152.948497 
L 59.118157 150.670125 
L 61.890876 148.36728 
L 64.663595 146.014183 
L 67.436314 143.552343 
L 70.209033 140.920277 
L 72.981752 138.080683 
L 75.754471 135.032489 
L 78.52719 131.804605 
L 81.299909 128.440726 
L 84.072628 124.989726 
L 86.845347 121.508042 
L 89.618066 118.065835 
L 92.390785 114.742596 
L 95.163504 111.607859 
L 97.936223 108.699434 
L 100.708942 106.017605 
L 103.481661 103.541706 
L 106.25438 101.257079 
L 109.027099 99.174049 
L 111.799818 97.331318 
L 114.572538 95.790615 
L 117.345257 94.63169 
L 120.117976 93.946126 
L 122.890695 93.820087 
L 125.663414 94.302391 
L 128.436133 95.371019 
L 131.208852 96.921785 
L 133.981571 98.794529 
L 136.75429 100.828783 
L 139.527009 102.919971 
L 142.299728 105.045715 
L 145.072447 107.251093 
L 147.845166 109.606734 
L 150.617885 112.16581 
L 153.390604 114.939141 
L 156.163323 117.89114 
L 158.936042 120.948083 
L 161.708761 124.011057 
L 164.48148 126.973148 
L 167.254199 129.743059 
L 170.026918 132.270778 
L 172.799637 134.561928 
L 175.572356 136.667506 
L 178.345075 138.64888 
L 181.117794 140.535683 
L 183.890513 142.302483 
L 186.663232 143.881169 
" style="fill:none;stroke:#d62728;stroke-linecap:square;stroke-width:1.5;"/>
   </g>
   <g id="line2d_15">
    <path clip-path="url(#p1285b6b3ee)" d="M 123.957125 170.4 
L 123.957125 12.479656 
" style="fill:none;stroke:#808080;stroke-dasharray:1.5,2.475;stroke-dashoffset:0;stroke-width:1.5;"/>
   </g>
   <g id="line2d_16">
    <path clip-path="url(#p1285b6b3ee)" d="M 50.8 159.390854 
L 53.572719 157.887784 
L 56.345438 156.332241 
L 59.118157 154.663583 
L 61.890876 152.774074 
L 64.663595 150.594178 
L 67.436314 148.13095 
L 70.209033 145.440527 
L 72.981752 142.566665 
L 75.754471 139.489627 
L 78.52719 136.122632 
L 81.299909 132.369624 
L 84.072628 128.212684 
L 86.845347 123.762434 
L 89.618066 119.223183 
L 92.390785 114.787499 
L 95.163504 110.529118 
L 97.936223 106.367073 
L 100.708942 102.126659 
L 103.481661 97.656537 
L 106.25438 92.924318 
L 109.027099 88.039553 
L 111.799818 83.221166 
L 114.572538 78.760694 
L 117.345257 74.9969 
L 120.117976 72.27497 
L 122.890695 70.88109 
L 125.663414 70.981402 
L 128.436133 72.58908 
L 131.208852 75.55954 
L 133.981571 79.617147 
L 136.75429 84.418796 
L 139.527009 89.631651 
L 142.299728 94.988756 
L 145.072447 100.315155 
L 147.845166 105.536471 
L 150.617885 110.662064 
L 153.390604 115.72769 
L 156.163323 120.716685 
L 158.936042 125.506274 
L 161.708761 129.875518 
L 164.48148 133.585833 
L 167.254199 136.508674 
L 170.026918 138.721717 
L 172.799637 140.481713 
L 175.572356 142.074824 
L 178.345075 143.67171 
L 181.117794 145.3099 
L 183.890513 146.975214 
L 186.663232 148.654198 
" style="fill:none;stroke:#2ca02c;stroke-linecap:square;stroke-width:1.5;"/>
   </g>
   <g id="line2d_17">
    <path clip-path="url(#p1285b6b3ee)" d="M 123.957125 170.4 
L 123.957125 12.479656 
" style="fill:none;stroke:#808080;stroke-dasharray:1.5,2.475;stroke-dashoffset:0;stroke-width:1.5;"/>
   </g>
   <g id="line2d_18">
    <path clip-path="url(#p1285b6b3ee)" d="M 50.8 163.542885 
L 53.572719 162.904583 
L 56.345438 161.719667 
L 59.118157 159.975669 
L 61.890876 157.949332 
L 64.663595 156.116358 
L 67.436314 154.841543 
L 70.209033 154.056684 
L 72.981752 153.211727 
L 75.754471 151.606975 
L 78.52719 148.823366 
L 81.299909 144.823494 
L 84.072628 139.731604 
L 86.845347 133.693851 
L 89.618066 126.921033 
L 92.390785 119.627275 
L 95.163504 111.846978 
L 97.936223 103.456317 
L 100.708942 94.426502 
L 103.481661 85.011095 
L 106.25438 75.775528 
L 109.027099 67.512784 
L 111.799818 60.961554 
L 114.572538 56.39434 
L 117.345257 53.460735 
L 120.117976 51.55095 
L 122.890695 50.389796 
L 125.663414 50.293889 
L 128.436133 51.903636 
L 131.208852 55.69018 
L 133.981571 61.647611 
L 136.75429 69.38054 
L 139.527009 78.406455 
L 142.299728 88.282121 
L 145.072447 98.449712 
L 147.845166 108.070838 
L 150.617885 116.1765 
L 153.390604 122.169807 
L 156.163323 126.236992 
L 158.936042 129.226277 
L 161.708761 132.153545 
L 164.48148 135.743579 
L 167.254199 140.150579 
L 170.026918 144.910883 
L 172.799637 149.217698 
L 175.572356 152.380819 
L 178.345075 154.145735 
L 181.117794 154.750097 
L 183.890513 154.821416 
L 186.663232 155.12075 
" style="fill:none;stroke:#ff7f0e;stroke-linecap:square;stroke-width:1.5;"/>
   </g>
   <g id="line2d_19">
    <path clip-path="url(#p1285b6b3ee)" d="M 123.957125 170.4 
L 123.957125 12.479656 
" style="fill:none;stroke:#808080;stroke-dasharray:1.5,2.475;stroke-dashoffset:0;stroke-width:1.5;"/>
   </g>
   <g id="line2d_20">
    <path clip-path="url(#p1285b6b3ee)" d="M 50.8 163.937419 
L 53.572719 163.933294 
L 56.345438 163.901952 
L 59.118157 163.745118 
L 61.890876 163.232756 
L 64.663595 162.151561 
L 67.436314 160.679184 
L 70.209033 159.28971 
L 72.981752 158.033285 
L 75.754471 156.465776 
L 78.52719 154.315346 
L 81.299909 151.560447 
L 84.072628 147.97977 
L 86.845347 143.108083 
L 89.618066 136.69668 
L 92.390785 129.01522 
L 95.163504 120.492949 
L 97.936223 110.988152 
L 100.708942 99.860783 
L 103.481661 87.061396 
L 106.25438 73.371399 
L 109.027099 59.59 
L 111.799818 46.693125 
L 114.572538 36.18388 
L 117.345257 28.892692 
L 120.117976 24.713601 
L 122.890695 24.066019 
L 125.663414 27.129384 
L 128.436133 32.469415 
L 131.208852 38.945513 
L 133.981571 47.19118 
L 136.75429 57.873244 
L 139.527009 70.220766 
L 142.299728 83.019673 
L 145.072447 95.601048 
L 147.845166 107.053011 
L 150.617885 116.154797 
L 153.390604 123.016394 
L 156.163323 128.885183 
L 158.936042 133.962286 
L 161.708761 137.894353 
L 164.48148 141.905566 
L 167.254199 147.344343 
L 170.026918 153.073452 
L 172.799637 156.869251 
L 175.572356 158.224864 
L 178.345075 158.455436 
L 181.117794 158.927038 
L 183.890513 159.934726 
L 186.663232 161.158769 
" style="fill:none;stroke:#1f77b4;stroke-linecap:square;stroke-width:1.5;"/>
   </g>
   <g id="line2d_21">
    <path clip-path="url(#p1285b6b3ee)" d="M 123.957125 170.4 
L 123.957125 12.479656 
" style="fill:none;stroke:#808080;stroke-dasharray:1.5,2.475;stroke-dashoffset:0;stroke-width:1.5;"/>
   </g>
   <g id="patch_3">
    <path d="M 50.8 170.4 
L 50.8 12.479656 
" style="fill:none;stroke:#000000;stroke-linecap:square;stroke-linejoin:miter;stroke-width:0.8;"/>
   </g>
   <g id="patch_4">
    <path d="M 50.8 170.4 
L 186.663232 170.4 
" style="fill:none;stroke:#000000;stroke-linecap:square;stroke-linejoin:miter;stroke-width:0.8;"/>
   </g>
  </g>
  <g id="axes_2">
   <g id="patch_5">
    <path d="M 219.631938 170.4 
L 355.49517 170.4 
L 355.49517 12.479656 
L 219.631938 12.479656 
z
" style="fill:#ffffff;"/>
   </g>
   <g id="matplotlib.axis_3">
    <g id="xtick_4">
     <g id="line2d_22">
      <g>
       <use style="stroke:#000000;stroke-width:0.8;" x="219.631938" xlink:href="#m56f2d51c23" y="170.4"/>
      </g>
     </g>
     <g id="text_11">
      <!-- 0.01 -->
      <g transform="translate(208.499126 184.998437)scale(0.1 -0.1)">
       <use xlink:href="#DejaVuSans-48"/>
       <use x="63.623047" xlink:href="#DejaVuSans-46"/>
       <use x="95.410156" xlink:href="#DejaVuSans-48"/>
       <use x="159.033203" xlink:href="#DejaVuSans-49"/>
      </g>
     </g>
    </g>
    <g id="xtick_5">
     <g id="line2d_23">
      <g>
       <use style="stroke:#000000;stroke-width:0.8;" x="253.597746" xlink:href="#m56f2d51c23" y="170.4"/>
      </g>
     </g>
     <g id="text_12">
      <!-- 0.02 -->
      <g transform="translate(242.464934 184.998437)scale(0.1 -0.1)">
       <use xlink:href="#DejaVuSans-48"/>
       <use x="63.623047" xlink:href="#DejaVuSans-46"/>
       <use x="95.410156" xlink:href="#DejaVuSans-48"/>
       <use x="159.033203" xlink:href="#DejaVuSans-50"/>
      </g>
     </g>
    </g>
    <g id="xtick_6">
     <g id="line2d_24">
      <g>
       <use style="stroke:#000000;stroke-width:0.8;" x="287.563554" xlink:href="#m56f2d51c23" y="170.4"/>
      </g>
     </g>
     <g id="text_13">
      <!-- 0.03 -->
      <defs>
       <path d="M 40.578125 39.3125 
Q 47.65625 37.796875 51.625 33 
Q 55.609375 28.21875 55.609375 21.1875 
Q 55.609375 10.40625 48.1875 4.484375 
Q 40.765625 -1.421875 27.09375 -1.421875 
Q 22.515625 -1.421875 17.65625 -0.515625 
Q 12.796875 0.390625 7.625 2.203125 
L 7.625 11.71875 
Q 11.71875 9.328125 16.59375 8.109375 
Q 21.484375 6.890625 26.8125 6.890625 
Q 36.078125 6.890625 40.9375 10.546875 
Q 45.796875 14.203125 45.796875 21.1875 
Q 45.796875 27.640625 41.28125 31.265625 
Q 36.765625 34.90625 28.71875 34.90625 
L 20.21875 34.90625 
L 20.21875 43.015625 
L 29.109375 43.015625 
Q 36.375 43.015625 40.234375 45.921875 
Q 44.09375 48.828125 44.09375 54.296875 
Q 44.09375 59.90625 40.109375 62.90625 
Q 36.140625 65.921875 28.71875 65.921875 
Q 24.65625 65.921875 20.015625 65.03125 
Q 15.375 64.15625 9.8125 62.3125 
L 9.8125 71.09375 
Q 15.4375 72.65625 20.34375 73.4375 
Q 25.25 74.21875 29.59375 74.21875 
Q 40.828125 74.21875 47.359375 69.109375 
Q 53.90625 64.015625 53.90625 55.328125 
Q 53.90625 49.265625 50.4375 45.09375 
Q 46.96875 40.921875 40.578125 39.3125 
z
" id="DejaVuSans-51"/>
      </defs>
      <g transform="translate(276.430742 184.998437)scale(0.1 -0.1)">
       <use xlink:href="#DejaVuSans-48"/>
       <use x="63.623047" xlink:href="#DejaVuSans-46"/>
       <use x="95.410156" xlink:href="#DejaVuSans-48"/>
       <use x="159.033203" xlink:href="#DejaVuSans-51"/>
      </g>
     </g>
    </g>
    <g id="xtick_7">
     <g id="line2d_25">
      <g>
       <use style="stroke:#000000;stroke-width:0.8;" x="321.529362" xlink:href="#m56f2d51c23" y="170.4"/>
      </g>
     </g>
     <g id="text_14">
      <!-- 0.04 -->
      <defs>
       <path d="M 37.796875 64.3125 
L 12.890625 25.390625 
L 37.796875 25.390625 
z
M 35.203125 72.90625 
L 47.609375 72.90625 
L 47.609375 25.390625 
L 58.015625 25.390625 
L 58.015625 17.1875 
L 47.609375 17.1875 
L 47.609375 0 
L 37.796875 0 
L 37.796875 17.1875 
L 4.890625 17.1875 
L 4.890625 26.703125 
z
" id="DejaVuSans-52"/>
      </defs>
      <g transform="translate(310.39655 184.998437)scale(0.1 -0.1)">
       <use xlink:href="#DejaVuSans-48"/>
       <use x="63.623047" xlink:href="#DejaVuSans-46"/>
       <use x="95.410156" xlink:href="#DejaVuSans-48"/>
       <use x="159.033203" xlink:href="#DejaVuSans-52"/>
      </g>
     </g>
    </g>
    <g id="xtick_8">
     <g id="line2d_26">
      <g>
       <use style="stroke:#000000;stroke-width:0.8;" x="355.49517" xlink:href="#m56f2d51c23" y="170.4"/>
      </g>
     </g>
     <g id="text_15">
      <!-- 0.05 -->
      <g transform="translate(344.362358 184.998437)scale(0.1 -0.1)">
       <use xlink:href="#DejaVuSans-48"/>
       <use x="63.623047" xlink:href="#DejaVuSans-46"/>
       <use x="95.410156" xlink:href="#DejaVuSans-48"/>
       <use x="159.033203" xlink:href="#DejaVuSans-53"/>
      </g>
     </g>
    </g>
    <g id="text_16">
     <!-- Parameter $\sigma$ -->
     <defs>
      <path d="M 34.671875 47.5625 
Q 27.25 47.5625 22.21875 42.1875 
Q 16.890625 36.578125 15.140625 27.296875 
Q 13.1875 17.484375 16.3125 11.8125 
Q 19.390625 6.203125 26.65625 6.203125 
Q 33.84375 6.203125 39.109375 11.859375 
Q 44.4375 17.53125 46.34375 27.296875 
Q 48.046875 36.234375 45.015625 42.1875 
Q 42.1875 47.5625 34.671875 47.5625 
z
M 36.078125 54.734375 
L 65.921875 54.6875 
L 64.15625 45.703125 
L 54.109375 45.703125 
Q 57.90625 38.09375 55.859375 27.296875 
Q 53.21875 13.875 45.0625 6.25 
Q 36.859375 -1.421875 25.140625 -1.421875 
Q 13.375 -1.421875 8.203125 6.25 
Q 3.03125 13.875 5.671875 27.296875 
Q 8.25 40.765625 16.40625 48.390625 
Q 23.1875 54.734375 36.078125 54.734375 
z
" id="DejaVuSans-Oblique-963"/>
     </defs>
     <g transform="translate(256.563554 198.676562)scale(0.1 -0.1)">
      <use transform="translate(0 0.09375)" xlink:href="#DejaVuSans-80"/>
      <use transform="translate(60.302734 0.09375)" xlink:href="#DejaVuSans-97"/>
      <use transform="translate(121.582031 0.09375)" xlink:href="#DejaVuSans-114"/>
      <use transform="translate(162.695312 0.09375)" xlink:href="#DejaVuSans-97"/>
      <use transform="translate(223.974609 0.09375)" xlink:href="#DejaVuSans-109"/>
      <use transform="translate(321.386719 0.09375)" xlink:href="#DejaVuSans-101"/>
      <use transform="translate(382.910156 0.09375)" xlink:href="#DejaVuSans-116"/>
      <use transform="translate(422.119141 0.09375)" xlink:href="#DejaVuSans-101"/>
      <use transform="translate(483.642578 0.09375)" xlink:href="#DejaVuSans-114"/>
      <use transform="translate(524.755859 0.09375)" xlink:href="#DejaVuSans-32"/>
      <use transform="translate(556.542969 0.09375)" xlink:href="#DejaVuSans-Oblique-963"/>
     </g>
    </g>
   </g>
   <g id="matplotlib.axis_4">
    <g id="ytick_6">
     <g id="line2d_27">
      <g>
       <use style="stroke:#000000;stroke-width:0.8;" x="219.631938" xlink:href="#m6a2bb0e21b" y="163.345987"/>
      </g>
     </g>
     <g id="text_17">
      <!-- 0 -->
      <g transform="translate(206.269438 167.145206)scale(0.1 -0.1)">
       <use xlink:href="#DejaVuSans-48"/>
      </g>
     </g>
    </g>
    <g id="ytick_7">
     <g id="line2d_28">
      <g>
       <use style="stroke:#000000;stroke-width:0.8;" x="219.631938" xlink:href="#m6a2bb0e21b" y="126.191137"/>
      </g>
     </g>
     <g id="text_18">
      <!-- 20 -->
      <g transform="translate(199.906938 129.990356)scale(0.1 -0.1)">
       <use xlink:href="#DejaVuSans-50"/>
       <use x="63.623047" xlink:href="#DejaVuSans-48"/>
      </g>
     </g>
    </g>
    <g id="ytick_8">
     <g id="line2d_29">
      <g>
       <use style="stroke:#000000;stroke-width:0.8;" x="219.631938" xlink:href="#m6a2bb0e21b" y="89.036287"/>
      </g>
     </g>
     <g id="text_19">
      <!-- 40 -->
      <g transform="translate(199.906938 92.835506)scale(0.1 -0.1)">
       <use xlink:href="#DejaVuSans-52"/>
       <use x="63.623047" xlink:href="#DejaVuSans-48"/>
      </g>
     </g>
    </g>
    <g id="ytick_9">
     <g id="line2d_30">
      <g>
       <use style="stroke:#000000;stroke-width:0.8;" x="219.631938" xlink:href="#m6a2bb0e21b" y="51.881437"/>
      </g>
     </g>
     <g id="text_20">
      <!-- 60 -->
      <g transform="translate(199.906938 55.680656)scale(0.1 -0.1)">
       <use xlink:href="#DejaVuSans-54"/>
       <use x="63.623047" xlink:href="#DejaVuSans-48"/>
      </g>
     </g>
    </g>
    <g id="ytick_10">
     <g id="line2d_31">
      <g>
       <use style="stroke:#000000;stroke-width:0.8;" x="219.631938" xlink:href="#m6a2bb0e21b" y="14.726587"/>
      </g>
     </g>
     <g id="text_21">
      <!-- 80 -->
      <defs>
       <path d="M 31.78125 34.625 
Q 24.75 34.625 20.71875 30.859375 
Q 16.703125 27.09375 16.703125 20.515625 
Q 16.703125 13.921875 20.71875 10.15625 
Q 24.75 6.390625 31.78125 6.390625 
Q 38.8125 6.390625 42.859375 10.171875 
Q 46.921875 13.96875 46.921875 20.515625 
Q 46.921875 27.09375 42.890625 30.859375 
Q 38.875 34.625 31.78125 34.625 
z
M 21.921875 38.8125 
Q 15.578125 40.375 12.03125 44.71875 
Q 8.5 49.078125 8.5 55.328125 
Q 8.5 64.0625 14.71875 69.140625 
Q 20.953125 74.21875 31.78125 74.21875 
Q 42.671875 74.21875 48.875 69.140625 
Q 55.078125 64.0625 55.078125 55.328125 
Q 55.078125 49.078125 51.53125 44.71875 
Q 48 40.375 41.703125 38.8125 
Q 48.828125 37.15625 52.796875 32.3125 
Q 56.78125 27.484375 56.78125 20.515625 
Q 56.78125 9.90625 50.3125 4.234375 
Q 43.84375 -1.421875 31.78125 -1.421875 
Q 19.734375 -1.421875 13.25 4.234375 
Q 6.78125 9.90625 6.78125 20.515625 
Q 6.78125 27.484375 10.78125 32.3125 
Q 14.796875 37.15625 21.921875 38.8125 
z
M 18.3125 54.390625 
Q 18.3125 48.734375 21.84375 45.5625 
Q 25.390625 42.390625 31.78125 42.390625 
Q 38.140625 42.390625 41.71875 45.5625 
Q 45.3125 48.734375 45.3125 54.390625 
Q 45.3125 60.0625 41.71875 63.234375 
Q 38.140625 66.40625 31.78125 66.40625 
Q 25.390625 66.40625 21.84375 63.234375 
Q 18.3125 60.0625 18.3125 54.390625 
z
" id="DejaVuSans-56"/>
      </defs>
      <g transform="translate(199.906938 18.525806)scale(0.1 -0.1)">
       <use xlink:href="#DejaVuSans-56"/>
       <use x="63.623047" xlink:href="#DejaVuSans-48"/>
      </g>
     </g>
    </g>
   </g>
   <g id="line2d_32">
    <path clip-path="url(#p2e78c9cbbc)" d="M 219.631938 163.221803 
L 221.004294 163.010672 
L 222.37665 162.554885 
L 223.749006 161.682186 
L 225.121362 160.174658 
L 226.493718 157.791759 
L 227.866074 154.304418 
L 229.23843 149.532464 
L 230.610785 143.376795 
L 231.983141 135.839582 
L 233.355497 127.029378 
L 234.727853 117.151669 
L 236.100209 106.488152 
L 237.472565 95.369438 
L 238.844921 84.145934 
L 240.217277 73.160836 
L 241.589632 62.727933 
L 242.961988 53.115553 
L 244.334344 44.536901 
L 245.7067 37.146224 
L 247.079056 31.039755 
L 248.451412 26.260198 
L 249.823768 22.803534 
L 251.196124 20.627071 
L 252.568479 19.657853 
L 253.940835 19.800801 
L 255.313191 20.946134 
L 256.685547 22.975822 
L 258.057903 25.768968 
L 259.430259 29.206097 
L 260.802615 33.172428 
L 262.174971 37.560227 
L 263.547327 42.270376 
L 264.919682 47.213293 
L 266.292038 52.30932 
L 267.664394 57.488715 
L 269.03675 62.691343 
L 270.409106 67.866153 
L 271.781462 72.970517 
L 273.153818 77.969487 
L 274.526174 82.835021 
L 275.898529 87.545198 
L 277.270885 92.083464 
L 278.643241 96.437916 
L 280.015597 100.600634 
L 281.387953 104.567067 
L 282.760309 108.33549 
L 284.132665 111.906507 
L 285.505021 115.282623 
L 286.877376 118.467859 
L 288.249732 121.467429 
L 289.622088 124.287456 
L 290.994444 126.934735 
L 292.3668 129.416526 
L 293.739156 131.740388 
L 295.111512 133.91404 
L 296.483868 135.945243 
L 297.856224 137.841711 
L 299.228579 139.611032 
L 300.600935 141.260616 
L 301.973291 142.797644 
L 303.345647 144.229043 
L 304.718003 145.561454 
L 306.090359 146.801224 
L 307.462715 147.954392 
L 308.835071 149.026687 
L 310.207426 150.023529 
L 311.579782 150.950033 
L 312.952138 151.811015 
L 314.324494 152.611 
L 315.69685 153.354234 
L 317.069206 154.044694 
L 318.441562 154.686098 
L 319.813918 155.281922 
L 321.186273 155.835409 
L 322.558629 156.349581 
L 323.930985 156.827256 
L 325.303341 157.271053 
L 326.675697 157.683412 
L 328.048053 158.066599 
L 329.420409 158.422719 
L 330.792765 158.753728 
L 332.165121 159.06144 
L 333.537476 159.347541 
L 334.909832 159.613592 
L 336.282188 159.861042 
L 337.654544 160.091235 
L 339.0269 160.305416 
L 340.399256 160.50474 
L 341.771612 160.690276 
L 343.143968 160.863015 
L 344.516323 161.023877 
L 345.888679 161.173712 
L 347.261035 161.313309 
L 348.633391 161.443398 
L 350.005747 161.564658 
L 351.378103 161.677714 
L 352.750459 161.783149 
L 354.122815 161.881502 
L 355.49517 161.973271 
" style="fill:none;stroke:#808080;stroke-dasharray:5.55,2.4;stroke-dashoffset:0;stroke-width:1.5;"/>
   </g>
   <g id="line2d_33">
    <path clip-path="url(#p2e78c9cbbc)" d="M 219.631938 155.229631 
L 222.404657 152.778979 
L 225.177376 150.273138 
L 227.950095 147.863807 
L 230.722814 145.656097 
L 233.495533 143.694852 
L 236.268253 141.974356 
L 239.040972 140.461783 
L 241.813691 139.120002 
L 244.58641 137.919305 
L 247.359129 136.836924 
L 250.131848 135.851436 
L 252.904567 134.94085 
L 255.677286 134.08764 
L 258.450005 133.285887 
L 261.222724 132.542205 
L 263.995443 131.866902 
L 266.768162 131.261118 
L 269.540881 130.711128 
L 272.3136 130.196381 
L 275.086319 129.706033 
L 277.859038 129.24964 
L 280.631757 128.850252 
L 283.404476 128.521751 
L 286.177195 128.245955 
L 288.949914 127.967238 
L 291.722633 127.610704 
L 294.495352 127.113673 
L 297.268071 126.451793 
L 300.04079 125.646152 
L 302.813509 124.750942 
L 305.586228 123.83232 
L 308.358947 122.950839 
L 311.131666 122.153085 
L 313.904385 121.469882 
L 316.677104 120.915578 
L 319.449823 120.486536 
L 322.222542 120.161817 
L 324.995261 119.90966 
L 327.76798 119.699039 
L 330.540699 119.510974 
L 333.313418 119.343649 
L 336.086137 119.20891 
L 338.858856 119.122035 
L 341.631575 119.089221 
L 344.404294 119.097666 
L 347.177013 119.112465 
L 349.949732 119.082876 
L 352.722451 118.95732 
L 355.49517 118.702167 
" style="fill:none;stroke:#8c564b;stroke-linecap:square;stroke-width:1.5;"/>
   </g>
   <g id="line2d_34">
    <path clip-path="url(#p2e78c9cbbc)" d="M 253.597746 170.4 
L 253.597746 12.479656 
" style="fill:none;stroke:#808080;stroke-dasharray:1.5,2.475;stroke-dashoffset:0;stroke-width:1.5;"/>
   </g>
   <g id="line2d_35">
    <path clip-path="url(#p2e78c9cbbc)" d="M 219.631938 155.891529 
L 222.404657 152.98199 
L 225.177376 149.629191 
L 227.950095 145.969594 
L 230.722814 142.167154 
L 233.495533 138.388342 
L 236.268253 134.778269 
L 239.040972 131.442305 
L 241.813691 128.437635 
L 244.58641 125.777496 
L 247.359129 123.446765 
L 250.131848 121.42286 
L 252.904567 119.693596 
L 255.677286 118.265176 
L 258.450005 117.157947 
L 261.222724 116.392426 
L 263.995443 115.971312 
L 266.768162 115.864506 
L 269.540881 116.003961 
L 272.3136 116.293186 
L 275.086319 116.631105 
L 277.859038 116.942097 
L 280.631757 117.198133 
L 283.404476 117.420627 
L 286.177195 117.660191 
L 288.949914 117.965367 
L 291.722633 118.357493 
L 294.495352 118.823926 
L 297.268071 119.329856 
L 300.04079 119.838549 
L 302.813509 120.327661 
L 305.586228 120.795041 
L 308.358947 121.255224 
L 311.131666 121.73137 
L 313.904385 122.245843 
L 316.677104 122.810451 
L 319.449823 123.418433 
L 322.222542 124.043052 
L 324.995261 124.64645 
L 327.76798 125.195591 
L 330.540699 125.675306 
L 333.313418 126.089684 
L 336.086137 126.452993 
L 338.858856 126.780938 
L 341.631575 127.092469 
L 344.404294 127.420946 
L 347.177013 127.821589 
L 349.949732 128.361364 
L 352.722451 129.089738 
L 355.49517 130.004781 
" style="fill:none;stroke:#9467bd;stroke-linecap:square;stroke-width:1.5;"/>
   </g>
   <g id="line2d_36">
    <path clip-path="url(#p2e78c9cbbc)" d="M 253.597746 170.4 
L 253.597746 12.479656 
" style="fill:none;stroke:#808080;stroke-dasharray:1.5,2.475;stroke-dashoffset:0;stroke-width:1.5;"/>
   </g>
   <g id="line2d_37">
    <path clip-path="url(#p2e78c9cbbc)" d="M 219.631938 155.343781 
L 222.404657 151.717833 
L 225.177376 147.312962 
L 227.950095 142.238004 
L 230.722814 136.668916 
L 233.495533 130.836111 
L 236.268253 124.999981 
L 239.040972 119.411237 
L 241.813691 114.266367 
L 244.58641 109.68011 
L 247.359129 105.692439 
L 250.131848 102.306848 
L 252.904567 99.534666 
L 255.677286 97.41462 
L 258.450005 95.994613 
L 261.222724 95.29225 
L 263.995443 95.268419 
L 266.768162 95.837138 
L 269.540881 96.902685 
L 272.3136 98.390771 
L 275.086319 100.247255 
L 277.859038 102.40855 
L 280.631757 104.772672 
L 283.404476 107.197902 
L 286.177195 109.53306 
L 288.949914 111.661369 
L 291.722633 113.533748 
L 294.495352 115.176759 
L 297.268071 116.675175 
L 300.04079 118.139144 
L 302.813509 119.667739 
L 305.586228 121.318691 
L 308.358947 123.093155 
L 311.131666 124.942352 
L 313.904385 126.794929 
L 316.677104 128.591629 
L 319.449823 130.307803 
L 322.222542 131.951543 
L 324.995261 133.540935 
L 327.76798 135.075979 
L 330.540699 136.522017 
L 333.313418 137.814866 
L 336.086137 138.888205 
L 338.858856 139.7123 
L 341.631575 140.322192 
L 344.404294 140.812774 
L 347.177013 141.296974 
L 349.949732 141.85219 
L 352.722451 142.492926 
L 355.49517 143.187368 
" style="fill:none;stroke:#d62728;stroke-linecap:square;stroke-width:1.5;"/>
   </g>
   <g id="line2d_38">
    <path clip-path="url(#p2e78c9cbbc)" d="M 253.597746 170.4 
L 253.597746 12.479656 
" style="fill:none;stroke:#808080;stroke-dasharray:1.5,2.475;stroke-dashoffset:0;stroke-width:1.5;"/>
   </g>
   <g id="line2d_39">
    <path clip-path="url(#p2e78c9cbbc)" d="M 219.631938 155.768025 
L 222.404657 151.630606 
L 225.177376 146.34075 
L 227.950095 140.002474 
L 230.722814 132.839148 
L 233.495533 125.157539 
L 236.268253 117.297462 
L 239.040972 109.585546 
L 241.813691 102.311175 
L 244.58641 95.729759 
L 247.359129 90.078384 
L 250.131848 85.575481 
L 252.904567 82.384132 
L 255.677286 80.550616 
L 258.450005 79.964182 
L 261.222724 80.384754 
L 263.995443 81.539369 
L 266.768162 83.230393 
L 269.540881 85.383065 
L 272.3136 88.004349 
L 275.086319 91.091863 
L 277.859038 94.564584 
L 280.631757 98.262519 
L 283.404476 102.005876 
L 286.177195 105.662554 
L 288.949914 109.174903 
L 291.722633 112.535023 
L 294.495352 115.739725 
L 297.268071 118.769016 
L 300.04079 121.606033 
L 302.813509 124.273962 
L 305.586228 126.845501 
L 308.358947 129.403164 
L 311.131666 131.974835 
L 313.904385 134.495871 
L 316.677104 136.831487 
L 319.449823 138.847081 
L 322.222542 140.48081 
L 324.995261 141.777061 
L 327.76798 142.868376 
L 330.540699 143.917338 
L 333.313418 145.038915 
L 336.086137 146.230613 
L 338.858856 147.348906 
L 341.631575 148.167204 
L 344.404294 148.510632 
L 347.177013 148.398943 
L 349.949732 148.095099 
L 352.722451 148.001601 
L 355.49517 148.452966 
" style="fill:none;stroke:#2ca02c;stroke-linecap:square;stroke-width:1.5;"/>
   </g>
   <g id="line2d_40">
    <path clip-path="url(#p2e78c9cbbc)" d="M 253.597746 170.4 
L 253.597746 12.479656 
" style="fill:none;stroke:#808080;stroke-dasharray:1.5,2.475;stroke-dashoffset:0;stroke-width:1.5;"/>
   </g>
   <g id="line2d_41">
    <path clip-path="url(#p2e78c9cbbc)" d="M 219.631938 160.259552 
L 222.404657 156.971665 
L 225.177376 151.564757 
L 227.950095 143.638759 
L 230.722814 133.244888 
L 233.495533 120.973772 
L 236.268253 107.732515 
L 239.040972 94.376193 
L 241.813691 81.544434 
L 244.58641 69.789159 
L 247.359129 59.735935 
L 250.131848 52.058563 
L 252.904567 47.293497 
L 255.677286 45.637427 
L 258.450005 46.866043 
L 261.222724 50.441849 
L 263.995443 55.719798 
L 266.768162 62.078121 
L 269.540881 68.954654 
L 272.3136 75.916323 
L 275.086319 82.757015 
L 277.859038 89.460152 
L 280.631757 96.036192 
L 283.404476 102.457294 
L 286.177195 108.710123 
L 288.949914 114.740504 
L 291.722633 120.311405 
L 294.495352 125.092309 
L 297.268071 129.009746 
L 300.04079 132.445146 
L 302.813509 135.977122 
L 305.586228 139.863966 
L 308.358947 143.753568 
L 311.131666 146.93288 
L 313.904385 148.925783 
L 316.677104 149.878235 
L 319.449823 150.376632 
L 322.222542 150.94001 
L 324.995261 151.716876 
L 327.76798 152.603153 
L 330.540699 153.521358 
L 333.313418 154.504828 
L 336.086137 155.547641 
L 338.858856 156.502559 
L 341.631575 157.215581 
L 344.404294 157.696183 
L 347.177013 158.057139 
L 349.949732 158.339791 
L 352.722451 158.517824 
L 355.49517 158.654209 
" style="fill:none;stroke:#ff7f0e;stroke-linecap:square;stroke-width:1.5;"/>
   </g>
   <g id="line2d_42">
    <path clip-path="url(#p2e78c9cbbc)" d="M 253.597746 170.4 
L 253.597746 12.479656 
" style="fill:none;stroke:#808080;stroke-dasharray:1.5,2.475;stroke-dashoffset:0;stroke-width:1.5;"/>
   </g>
   <g id="line2d_43">
    <path clip-path="url(#p2e78c9cbbc)" d="M 219.631938 162.787348 
L 222.404657 161.292285 
L 225.177376 157.510584 
L 227.950095 150.104278 
L 230.722814 138.414556 
L 233.495533 122.810608 
L 236.268253 104.348374 
L 239.040972 84.384591 
L 241.813691 64.50348 
L 244.58641 46.413947 
L 247.359129 31.817035 
L 250.131848 22.311799 
L 252.904567 18.787421 
L 255.677286 20.777719 
L 258.450005 26.815749 
L 261.222724 35.240921 
L 263.995443 44.92654 
L 266.768162 55.66754 
L 269.540881 67.322152 
L 272.3136 78.804873 
L 275.086319 88.803498 
L 277.859038 97.080527 
L 280.631757 104.405014 
L 283.404476 111.237735 
L 286.177195 117.061114 
L 288.949914 121.541144 
L 291.722633 125.451965 
L 294.495352 129.591851 
L 297.268071 133.688714 
L 300.04079 137.077444 
L 302.813509 139.975808 
L 305.586228 143.398096 
L 308.358947 147.684005 
L 311.131666 151.87309 
L 313.904385 154.892662 
L 316.677104 156.532783 
L 319.449823 157.218756 
L 322.222542 157.633514 
L 324.995261 158.27463 
L 327.76798 159.083423 
L 330.540699 159.783109 
L 333.313418 160.322136 
L 336.086137 160.730806 
L 338.858856 160.88033 
L 341.631575 160.767124 
L 344.404294 160.758424 
L 347.177013 161.047322 
L 349.949732 161.256529 
L 352.722451 161.119117 
L 355.49517 161.040861 
" style="fill:none;stroke:#1f77b4;stroke-linecap:square;stroke-width:1.5;"/>
   </g>
   <g id="line2d_44">
    <path clip-path="url(#p2e78c9cbbc)" d="M 253.597746 170.4 
L 253.597746 12.479656 
" style="fill:none;stroke:#808080;stroke-dasharray:1.5,2.475;stroke-dashoffset:0;stroke-width:1.5;"/>
   </g>
   <g id="patch_6">
    <path d="M 219.631938 170.4 
L 219.631938 12.479656 
" style="fill:none;stroke:#000000;stroke-linecap:square;stroke-linejoin:miter;stroke-width:0.8;"/>
   </g>
   <g id="patch_7">
    <path d="M 219.631938 170.4 
L 355.49517 170.4 
" style="fill:none;stroke:#000000;stroke-linecap:square;stroke-linejoin:miter;stroke-width:0.8;"/>
   </g>
   <g id="legend_1">
    <g id="patch_8">
     <path d="M 321.736201 123.226531 
L 424.470576 123.226531 
Q 426.470576 123.226531 426.470576 121.226531 
L 426.470576 19.479656 
Q 426.470576 17.479656 424.470576 17.479656 
L 321.736201 17.479656 
Q 319.736201 17.479656 319.736201 19.479656 
L 319.736201 121.226531 
Q 319.736201 123.226531 321.736201 123.226531 
z
" style="fill:#ffffff;opacity:0.8;stroke:#cccccc;stroke-linejoin:miter;"/>
    </g>
    <g id="line2d_45">
     <path d="M 323.736201 25.578093 
L 343.736201 25.578093 
" style="fill:none;stroke:#1f77b4;stroke-linecap:square;stroke-width:1.5;"/>
    </g>
    <g id="line2d_46"/>
    <g id="text_22">
     <!-- Iteration 5 -->
     <defs>
      <path d="M 9.8125 72.90625 
L 19.671875 72.90625 
L 19.671875 0 
L 9.8125 0 
z
" id="DejaVuSans-73"/>
      <path d="M 54.890625 33.015625 
L 54.890625 0 
L 45.90625 0 
L 45.90625 32.71875 
Q 45.90625 40.484375 42.875 44.328125 
Q 39.84375 48.1875 33.796875 48.1875 
Q 26.515625 48.1875 22.3125 43.546875 
Q 18.109375 38.921875 18.109375 30.90625 
L 18.109375 0 
L 9.078125 0 
L 9.078125 54.6875 
L 18.109375 54.6875 
L 18.109375 46.1875 
Q 21.34375 51.125 25.703125 53.5625 
Q 30.078125 56 35.796875 56 
Q 45.21875 56 50.046875 50.171875 
Q 54.890625 44.34375 54.890625 33.015625 
z
" id="DejaVuSans-110"/>
     </defs>
     <g transform="translate(351.736201 29.078093)scale(0.1 -0.1)">
      <use xlink:href="#DejaVuSans-73"/>
      <use x="29.492188" xlink:href="#DejaVuSans-116"/>
      <use x="68.701172" xlink:href="#DejaVuSans-101"/>
      <use x="130.224609" xlink:href="#DejaVuSans-114"/>
      <use x="171.337891" xlink:href="#DejaVuSans-97"/>
      <use x="232.617188" xlink:href="#DejaVuSans-116"/>
      <use x="271.826172" xlink:href="#DejaVuSans-105"/>
      <use x="299.609375" xlink:href="#DejaVuSans-111"/>
      <use x="360.791016" xlink:href="#DejaVuSans-110"/>
      <use x="424.169922" xlink:href="#DejaVuSans-32"/>
      <use x="455.957031" xlink:href="#DejaVuSans-53"/>
     </g>
    </g>
    <g id="line2d_47">
     <path d="M 323.736201 40.256218 
L 343.736201 40.256218 
" style="fill:none;stroke:#ff7f0e;stroke-linecap:square;stroke-width:1.5;"/>
    </g>
    <g id="line2d_48"/>
    <g id="text_23">
     <!-- Iteration 4 -->
     <g transform="translate(351.736201 43.756218)scale(0.1 -0.1)">
      <use xlink:href="#DejaVuSans-73"/>
      <use x="29.492188" xlink:href="#DejaVuSans-116"/>
      <use x="68.701172" xlink:href="#DejaVuSans-101"/>
      <use x="130.224609" xlink:href="#DejaVuSans-114"/>
      <use x="171.337891" xlink:href="#DejaVuSans-97"/>
      <use x="232.617188" xlink:href="#DejaVuSans-116"/>
      <use x="271.826172" xlink:href="#DejaVuSans-105"/>
      <use x="299.609375" xlink:href="#DejaVuSans-111"/>
      <use x="360.791016" xlink:href="#DejaVuSans-110"/>
      <use x="424.169922" xlink:href="#DejaVuSans-32"/>
      <use x="455.957031" xlink:href="#DejaVuSans-52"/>
     </g>
    </g>
    <g id="line2d_49">
     <path d="M 323.736201 54.934343 
L 343.736201 54.934343 
" style="fill:none;stroke:#2ca02c;stroke-linecap:square;stroke-width:1.5;"/>
    </g>
    <g id="line2d_50"/>
    <g id="text_24">
     <!-- Iteration 3 -->
     <g transform="translate(351.736201 58.434343)scale(0.1 -0.1)">
      <use xlink:href="#DejaVuSans-73"/>
      <use x="29.492188" xlink:href="#DejaVuSans-116"/>
      <use x="68.701172" xlink:href="#DejaVuSans-101"/>
      <use x="130.224609" xlink:href="#DejaVuSans-114"/>
      <use x="171.337891" xlink:href="#DejaVuSans-97"/>
      <use x="232.617188" xlink:href="#DejaVuSans-116"/>
      <use x="271.826172" xlink:href="#DejaVuSans-105"/>
      <use x="299.609375" xlink:href="#DejaVuSans-111"/>
      <use x="360.791016" xlink:href="#DejaVuSans-110"/>
      <use x="424.169922" xlink:href="#DejaVuSans-32"/>
      <use x="455.957031" xlink:href="#DejaVuSans-51"/>
     </g>
    </g>
    <g id="line2d_51">
     <path d="M 323.736201 69.612468 
L 343.736201 69.612468 
" style="fill:none;stroke:#d62728;stroke-linecap:square;stroke-width:1.5;"/>
    </g>
    <g id="line2d_52"/>
    <g id="text_25">
     <!-- Iteration 2 -->
     <g transform="translate(351.736201 73.112468)scale(0.1 -0.1)">
      <use xlink:href="#DejaVuSans-73"/>
      <use x="29.492188" xlink:href="#DejaVuSans-116"/>
      <use x="68.701172" xlink:href="#DejaVuSans-101"/>
      <use x="130.224609" xlink:href="#DejaVuSans-114"/>
      <use x="171.337891" xlink:href="#DejaVuSans-97"/>
      <use x="232.617188" xlink:href="#DejaVuSans-116"/>
      <use x="271.826172" xlink:href="#DejaVuSans-105"/>
      <use x="299.609375" xlink:href="#DejaVuSans-111"/>
      <use x="360.791016" xlink:href="#DejaVuSans-110"/>
      <use x="424.169922" xlink:href="#DejaVuSans-32"/>
      <use x="455.957031" xlink:href="#DejaVuSans-50"/>
     </g>
    </g>
    <g id="line2d_53">
     <path d="M 323.736201 84.290593 
L 343.736201 84.290593 
" style="fill:none;stroke:#9467bd;stroke-linecap:square;stroke-width:1.5;"/>
    </g>
    <g id="line2d_54"/>
    <g id="text_26">
     <!-- Iteration 1 -->
     <g transform="translate(351.736201 87.790593)scale(0.1 -0.1)">
      <use xlink:href="#DejaVuSans-73"/>
      <use x="29.492188" xlink:href="#DejaVuSans-116"/>
      <use x="68.701172" xlink:href="#DejaVuSans-101"/>
      <use x="130.224609" xlink:href="#DejaVuSans-114"/>
      <use x="171.337891" xlink:href="#DejaVuSans-97"/>
      <use x="232.617188" xlink:href="#DejaVuSans-116"/>
      <use x="271.826172" xlink:href="#DejaVuSans-105"/>
      <use x="299.609375" xlink:href="#DejaVuSans-111"/>
      <use x="360.791016" xlink:href="#DejaVuSans-110"/>
      <use x="424.169922" xlink:href="#DejaVuSans-32"/>
      <use x="455.957031" xlink:href="#DejaVuSans-49"/>
     </g>
    </g>
    <g id="line2d_55">
     <path d="M 323.736201 98.968718 
L 343.736201 98.968718 
" style="fill:none;stroke:#8c564b;stroke-linecap:square;stroke-width:1.5;"/>
    </g>
    <g id="line2d_56"/>
    <g id="text_27">
     <!-- Iteration 0 -->
     <g transform="translate(351.736201 102.468718)scale(0.1 -0.1)">
      <use xlink:href="#DejaVuSans-73"/>
      <use x="29.492188" xlink:href="#DejaVuSans-116"/>
      <use x="68.701172" xlink:href="#DejaVuSans-101"/>
      <use x="130.224609" xlink:href="#DejaVuSans-114"/>
      <use x="171.337891" xlink:href="#DejaVuSans-97"/>
      <use x="232.617188" xlink:href="#DejaVuSans-116"/>
      <use x="271.826172" xlink:href="#DejaVuSans-105"/>
      <use x="299.609375" xlink:href="#DejaVuSans-111"/>
      <use x="360.791016" xlink:href="#DejaVuSans-110"/>
      <use x="424.169922" xlink:href="#DejaVuSans-32"/>
      <use x="455.957031" xlink:href="#DejaVuSans-48"/>
     </g>
    </g>
    <g id="line2d_57">
     <path d="M 323.736201 113.646843 
L 343.736201 113.646843 
" style="fill:none;stroke:#808080;stroke-dasharray:5.55,2.4;stroke-dashoffset:0;stroke-width:1.5;"/>
    </g>
    <g id="line2d_58"/>
    <g id="text_28">
     <!-- True posterior -->
     <defs>
      <path d="M -0.296875 72.90625 
L 61.375 72.90625 
L 61.375 64.59375 
L 35.5 64.59375 
L 35.5 0 
L 25.59375 0 
L 25.59375 64.59375 
L -0.296875 64.59375 
z
" id="DejaVuSans-84"/>
      <path d="M 8.5 21.578125 
L 8.5 54.6875 
L 17.484375 54.6875 
L 17.484375 21.921875 
Q 17.484375 14.15625 20.5 10.265625 
Q 23.53125 6.390625 29.59375 6.390625 
Q 36.859375 6.390625 41.078125 11.03125 
Q 45.3125 15.671875 45.3125 23.6875 
L 45.3125 54.6875 
L 54.296875 54.6875 
L 54.296875 0 
L 45.3125 0 
L 45.3125 8.40625 
Q 42.046875 3.421875 37.71875 1 
Q 33.40625 -1.421875 27.6875 -1.421875 
Q 18.265625 -1.421875 13.375 4.4375 
Q 8.5 10.296875 8.5 21.578125 
z
M 31.109375 56 
z
" id="DejaVuSans-117"/>
      <path d="M 18.109375 8.203125 
L 18.109375 -20.796875 
L 9.078125 -20.796875 
L 9.078125 54.6875 
L 18.109375 54.6875 
L 18.109375 46.390625 
Q 20.953125 51.265625 25.265625 53.625 
Q 29.59375 56 35.59375 56 
Q 45.5625 56 51.78125 48.09375 
Q 58.015625 40.1875 58.015625 27.296875 
Q 58.015625 14.40625 51.78125 6.484375 
Q 45.5625 -1.421875 35.59375 -1.421875 
Q 29.59375 -1.421875 25.265625 0.953125 
Q 20.953125 3.328125 18.109375 8.203125 
z
M 48.6875 27.296875 
Q 48.6875 37.203125 44.609375 42.84375 
Q 40.53125 48.484375 33.40625 48.484375 
Q 26.265625 48.484375 22.1875 42.84375 
Q 18.109375 37.203125 18.109375 27.296875 
Q 18.109375 17.390625 22.1875 11.75 
Q 26.265625 6.109375 33.40625 6.109375 
Q 40.53125 6.109375 44.609375 11.75 
Q 48.6875 17.390625 48.6875 27.296875 
z
" id="DejaVuSans-112"/>
     </defs>
     <g transform="translate(351.736201 117.146843)scale(0.1 -0.1)">
      <use xlink:href="#DejaVuSans-84"/>
      <use x="60.865234" xlink:href="#DejaVuSans-114"/>
      <use x="101.978516" xlink:href="#DejaVuSans-117"/>
      <use x="165.357422" xlink:href="#DejaVuSans-101"/>
      <use x="226.880859" xlink:href="#DejaVuSans-32"/>
      <use x="258.667969" xlink:href="#DejaVuSans-112"/>
      <use x="322.144531" xlink:href="#DejaVuSans-111"/>
      <use x="383.326172" xlink:href="#DejaVuSans-115"/>
      <use x="435.425781" xlink:href="#DejaVuSans-116"/>
      <use x="474.634766" xlink:href="#DejaVuSans-101"/>
      <use x="536.158203" xlink:href="#DejaVuSans-114"/>
      <use x="577.271484" xlink:href="#DejaVuSans-105"/>
      <use x="605.054688" xlink:href="#DejaVuSans-111"/>
      <use x="666.236328" xlink:href="#DejaVuSans-114"/>
     </g>
    </g>
   </g>
  </g>
 </g>
 <defs>
  <clipPath id="p1285b6b3ee">
   <rect height="157.920344" width="135.863232" x="50.8" y="12.479656"/>
  </clipPath>
  <clipPath id="p2e78c9cbbc">
   <rect height="157.920344" width="135.863232" x="219.631938" y="12.479656"/>
  </clipPath>
 </defs>
</svg>
