<?xml version="1.0" encoding="utf-8" standalone="no"?>
<!DOCTYPE svg PUBLIC "-//W3C//DTD SVG 1.1//EN"
  "http://www.w3.org/Graphics/SVG/1.1/DTD/svg11.dtd">
<!-- Created with matplotlib (https://matplotlib.org/) -->
<svg height="288pt" version="1.1" viewBox="0 0 576 288" width="576pt" xmlns="http://www.w3.org/2000/svg" xmlns:xlink="http://www.w3.org/1999/xlink">
 <defs>
  <style type="text/css">
*{stroke-linecap:butt;stroke-linejoin:round;}
  </style>
 </defs>
 <g id="figure_1">
  <g id="patch_1">
   <path d="M 0 288 
L 576 288 
L 576 0 
L 0 0 
z
" style="fill:#ffffff;"/>
  </g>
  <g id="axes_1">
   <g id="patch_2">
    <path d="M 72 252 
L 274.909091 252 
L 274.909091 34.56 
L 72 34.56 
z
" style="fill:#ffffff;"/>
   </g>
   <g id="matplotlib.axis_1">
    <g id="xtick_1">
     <g id="line2d_1">
      <defs>
       <path d="M 0 0 
L 0 3.5 
" id="m34efd633d5" style="stroke:#000000;stroke-width:0.8;"/>
      </defs>
      <g>
       <use style="stroke:#000000;stroke-width:0.8;" x="72" xlink:href="#m34efd633d5" y="252"/>
      </g>
     </g>
     <g id="text_1">
      <!-- 0.0 -->
      <defs>
       <path d="M 31.78125 66.40625 
Q 24.171875 66.40625 20.328125 58.90625 
Q 16.5 51.421875 16.5 36.375 
Q 16.5 21.390625 20.328125 13.890625 
Q 24.171875 6.390625 31.78125 6.390625 
Q 39.453125 6.390625 43.28125 13.890625 
Q 47.125 21.390625 47.125 36.375 
Q 47.125 51.421875 43.28125 58.90625 
Q 39.453125 66.40625 31.78125 66.40625 
z
M 31.78125 74.21875 
Q 44.046875 74.21875 50.515625 64.515625 
Q 56.984375 54.828125 56.984375 36.375 
Q 56.984375 17.96875 50.515625 8.265625 
Q 44.046875 -1.421875 31.78125 -1.421875 
Q 19.53125 -1.421875 13.0625 8.265625 
Q 6.59375 17.96875 6.59375 36.375 
Q 6.59375 54.828125 13.0625 64.515625 
Q 19.53125 74.21875 31.78125 74.21875 
z
" id="DejaVuSans-48"/>
       <path d="M 10.6875 12.40625 
L 21 12.40625 
L 21 0 
L 10.6875 0 
z
" id="DejaVuSans-46"/>
      </defs>
      <g transform="translate(64.048438 266.598437)scale(0.1 -0.1)">
       <use xlink:href="#DejaVuSans-48"/>
       <use x="63.623047" xlink:href="#DejaVuSans-46"/>
       <use x="95.410156" xlink:href="#DejaVuSans-48"/>
      </g>
     </g>
    </g>
    <g id="xtick_2">
     <g id="line2d_2">
      <g>
       <use style="stroke:#000000;stroke-width:0.8;" x="122.727273" xlink:href="#m34efd633d5" y="252"/>
      </g>
     </g>
     <g id="text_2">
      <!-- 0.1 -->
      <defs>
       <path d="M 12.40625 8.296875 
L 28.515625 8.296875 
L 28.515625 63.921875 
L 10.984375 60.40625 
L 10.984375 69.390625 
L 28.421875 72.90625 
L 38.28125 72.90625 
L 38.28125 8.296875 
L 54.390625 8.296875 
L 54.390625 0 
L 12.40625 0 
z
" id="DejaVuSans-49"/>
      </defs>
      <g transform="translate(114.77571 266.598437)scale(0.1 -0.1)">
       <use xlink:href="#DejaVuSans-48"/>
       <use x="63.623047" xlink:href="#DejaVuSans-46"/>
       <use x="95.410156" xlink:href="#DejaVuSans-49"/>
      </g>
     </g>
    </g>
    <g id="xtick_3">
     <g id="line2d_3">
      <g>
       <use style="stroke:#000000;stroke-width:0.8;" x="173.454545" xlink:href="#m34efd633d5" y="252"/>
      </g>
     </g>
     <g id="text_3">
      <!-- 0.2 -->
      <defs>
       <path d="M 19.1875 8.296875 
L 53.609375 8.296875 
L 53.609375 0 
L 7.328125 0 
L 7.328125 8.296875 
Q 12.9375 14.109375 22.625 23.890625 
Q 32.328125 33.6875 34.8125 36.53125 
Q 39.546875 41.84375 41.421875 45.53125 
Q 43.3125 49.21875 43.3125 52.78125 
Q 43.3125 58.59375 39.234375 62.25 
Q 35.15625 65.921875 28.609375 65.921875 
Q 23.96875 65.921875 18.8125 64.3125 
Q 13.671875 62.703125 7.8125 59.421875 
L 7.8125 69.390625 
Q 13.765625 71.78125 18.9375 73 
Q 24.125 74.21875 28.421875 74.21875 
Q 39.75 74.21875 46.484375 68.546875 
Q 53.21875 62.890625 53.21875 53.421875 
Q 53.21875 48.921875 51.53125 44.890625 
Q 49.859375 40.875 45.40625 35.40625 
Q 44.1875 33.984375 37.640625 27.21875 
Q 31.109375 20.453125 19.1875 8.296875 
z
" id="DejaVuSans-50"/>
      </defs>
      <g transform="translate(165.502983 266.598437)scale(0.1 -0.1)">
       <use xlink:href="#DejaVuSans-48"/>
       <use x="63.623047" xlink:href="#DejaVuSans-46"/>
       <use x="95.410156" xlink:href="#DejaVuSans-50"/>
      </g>
     </g>
    </g>
    <g id="xtick_4">
     <g id="line2d_4">
      <g>
       <use style="stroke:#000000;stroke-width:0.8;" x="224.181818" xlink:href="#m34efd633d5" y="252"/>
      </g>
     </g>
     <g id="text_4">
      <!-- 0.3 -->
      <defs>
       <path d="M 40.578125 39.3125 
Q 47.65625 37.796875 51.625 33 
Q 55.609375 28.21875 55.609375 21.1875 
Q 55.609375 10.40625 48.1875 4.484375 
Q 40.765625 -1.421875 27.09375 -1.421875 
Q 22.515625 -1.421875 17.65625 -0.515625 
Q 12.796875 0.390625 7.625 2.203125 
L 7.625 11.71875 
Q 11.71875 9.328125 16.59375 8.109375 
Q 21.484375 6.890625 26.8125 6.890625 
Q 36.078125 6.890625 40.9375 10.546875 
Q 45.796875 14.203125 45.796875 21.1875 
Q 45.796875 27.640625 41.28125 31.265625 
Q 36.765625 34.90625 28.71875 34.90625 
L 20.21875 34.90625 
L 20.21875 43.015625 
L 29.109375 43.015625 
Q 36.375 43.015625 40.234375 45.921875 
Q 44.09375 48.828125 44.09375 54.296875 
Q 44.09375 59.90625 40.109375 62.90625 
Q 36.140625 65.921875 28.71875 65.921875 
Q 24.65625 65.921875 20.015625 65.03125 
Q 15.375 64.15625 9.8125 62.3125 
L 9.8125 71.09375 
Q 15.4375 72.65625 20.34375 73.4375 
Q 25.25 74.21875 29.59375 74.21875 
Q 40.828125 74.21875 47.359375 69.109375 
Q 53.90625 64.015625 53.90625 55.328125 
Q 53.90625 49.265625 50.4375 45.09375 
Q 46.96875 40.921875 40.578125 39.3125 
z
" id="DejaVuSans-51"/>
      </defs>
      <g transform="translate(216.230256 266.598437)scale(0.1 -0.1)">
       <use xlink:href="#DejaVuSans-48"/>
       <use x="63.623047" xlink:href="#DejaVuSans-46"/>
       <use x="95.410156" xlink:href="#DejaVuSans-51"/>
      </g>
     </g>
    </g>
    <g id="xtick_5">
     <g id="line2d_5">
      <g>
       <use style="stroke:#000000;stroke-width:0.8;" x="274.909091" xlink:href="#m34efd633d5" y="252"/>
      </g>
     </g>
     <g id="text_5">
      <!-- 0.4 -->
      <defs>
       <path d="M 37.796875 64.3125 
L 12.890625 25.390625 
L 37.796875 25.390625 
z
M 35.203125 72.90625 
L 47.609375 72.90625 
L 47.609375 25.390625 
L 58.015625 25.390625 
L 58.015625 17.1875 
L 47.609375 17.1875 
L 47.609375 0 
L 37.796875 0 
L 37.796875 17.1875 
L 4.890625 17.1875 
L 4.890625 26.703125 
z
" id="DejaVuSans-52"/>
      </defs>
      <g transform="translate(266.957528 266.598437)scale(0.1 -0.1)">
       <use xlink:href="#DejaVuSans-48"/>
       <use x="63.623047" xlink:href="#DejaVuSans-46"/>
       <use x="95.410156" xlink:href="#DejaVuSans-52"/>
      </g>
     </g>
    </g>
    <g id="text_6">
     <!-- p0 -->
     <defs>
      <path d="M 18.109375 8.203125 
L 18.109375 -20.796875 
L 9.078125 -20.796875 
L 9.078125 54.6875 
L 18.109375 54.6875 
L 18.109375 46.390625 
Q 20.953125 51.265625 25.265625 53.625 
Q 29.59375 56 35.59375 56 
Q 45.5625 56 51.78125 48.09375 
Q 58.015625 40.1875 58.015625 27.296875 
Q 58.015625 14.40625 51.78125 6.484375 
Q 45.5625 -1.421875 35.59375 -1.421875 
Q 29.59375 -1.421875 25.265625 0.953125 
Q 20.953125 3.328125 18.109375 8.203125 
z
M 48.6875 27.296875 
Q 48.6875 37.203125 44.609375 42.84375 
Q 40.53125 48.484375 33.40625 48.484375 
Q 26.265625 48.484375 22.1875 42.84375 
Q 18.109375 37.203125 18.109375 27.296875 
Q 18.109375 17.390625 22.1875 11.75 
Q 26.265625 6.109375 33.40625 6.109375 
Q 40.53125 6.109375 44.609375 11.75 
Q 48.6875 17.390625 48.6875 27.296875 
z
" id="DejaVuSans-112"/>
     </defs>
     <g transform="translate(167.099077 280.276563)scale(0.1 -0.1)">
      <use xlink:href="#DejaVuSans-112"/>
      <use x="63.476562" xlink:href="#DejaVuSans-48"/>
     </g>
    </g>
   </g>
   <g id="matplotlib.axis_2">
    <g id="ytick_1">
     <g id="line2d_6">
      <defs>
       <path d="M 0 0 
L -3.5 0 
" id="m8d5d6bb697" style="stroke:#000000;stroke-width:0.8;"/>
      </defs>
      <g>
       <use style="stroke:#000000;stroke-width:0.8;" x="72" xlink:href="#m8d5d6bb697" y="242.116364"/>
      </g>
     </g>
     <g id="text_7">
      <!-- 0 -->
      <g transform="translate(58.6375 245.915582)scale(0.1 -0.1)">
       <use xlink:href="#DejaVuSans-48"/>
      </g>
     </g>
    </g>
    <g id="ytick_2">
     <g id="line2d_7">
      <g>
       <use style="stroke:#000000;stroke-width:0.8;" x="72" xlink:href="#m8d5d6bb697" y="206.81564"/>
      </g>
     </g>
     <g id="text_8">
      <!-- 1 -->
      <g transform="translate(58.6375 210.614858)scale(0.1 -0.1)">
       <use xlink:href="#DejaVuSans-49"/>
      </g>
     </g>
    </g>
    <g id="ytick_3">
     <g id="line2d_8">
      <g>
       <use style="stroke:#000000;stroke-width:0.8;" x="72" xlink:href="#m8d5d6bb697" y="171.514916"/>
      </g>
     </g>
     <g id="text_9">
      <!-- 2 -->
      <g transform="translate(58.6375 175.314134)scale(0.1 -0.1)">
       <use xlink:href="#DejaVuSans-50"/>
      </g>
     </g>
    </g>
    <g id="ytick_4">
     <g id="line2d_9">
      <g>
       <use style="stroke:#000000;stroke-width:0.8;" x="72" xlink:href="#m8d5d6bb697" y="136.214191"/>
      </g>
     </g>
     <g id="text_10">
      <!-- 3 -->
      <g transform="translate(58.6375 140.01341)scale(0.1 -0.1)">
       <use xlink:href="#DejaVuSans-51"/>
      </g>
     </g>
    </g>
    <g id="ytick_5">
     <g id="line2d_10">
      <g>
       <use style="stroke:#000000;stroke-width:0.8;" x="72" xlink:href="#m8d5d6bb697" y="100.913467"/>
      </g>
     </g>
     <g id="text_11">
      <!-- 4 -->
      <g transform="translate(58.6375 104.712686)scale(0.1 -0.1)">
       <use xlink:href="#DejaVuSans-52"/>
      </g>
     </g>
    </g>
    <g id="ytick_6">
     <g id="line2d_11">
      <g>
       <use style="stroke:#000000;stroke-width:0.8;" x="72" xlink:href="#m8d5d6bb697" y="65.612743"/>
      </g>
     </g>
     <g id="text_12">
      <!-- 5 -->
      <defs>
       <path d="M 10.796875 72.90625 
L 49.515625 72.90625 
L 49.515625 64.59375 
L 19.828125 64.59375 
L 19.828125 46.734375 
Q 21.96875 47.46875 24.109375 47.828125 
Q 26.265625 48.1875 28.421875 48.1875 
Q 40.625 48.1875 47.75 41.5 
Q 54.890625 34.8125 54.890625 23.390625 
Q 54.890625 11.625 47.5625 5.09375 
Q 40.234375 -1.421875 26.90625 -1.421875 
Q 22.3125 -1.421875 17.546875 -0.640625 
Q 12.796875 0.140625 7.71875 1.703125 
L 7.71875 11.625 
Q 12.109375 9.234375 16.796875 8.0625 
Q 21.484375 6.890625 26.703125 6.890625 
Q 35.15625 6.890625 40.078125 11.328125 
Q 45.015625 15.765625 45.015625 23.390625 
Q 45.015625 31 40.078125 35.4375 
Q 35.15625 39.890625 26.703125 39.890625 
Q 22.75 39.890625 18.8125 39.015625 
Q 14.890625 38.140625 10.796875 36.28125 
z
" id="DejaVuSans-53"/>
      </defs>
      <g transform="translate(58.6375 69.411962)scale(0.1 -0.1)">
       <use xlink:href="#DejaVuSans-53"/>
      </g>
     </g>
    </g>
    <g id="text_13">
     <!-- Posterior -->
     <defs>
      <path d="M 19.671875 64.796875 
L 19.671875 37.40625 
L 32.078125 37.40625 
Q 38.96875 37.40625 42.71875 40.96875 
Q 46.484375 44.53125 46.484375 51.125 
Q 46.484375 57.671875 42.71875 61.234375 
Q 38.96875 64.796875 32.078125 64.796875 
z
M 9.8125 72.90625 
L 32.078125 72.90625 
Q 44.34375 72.90625 50.609375 67.359375 
Q 56.890625 61.8125 56.890625 51.125 
Q 56.890625 40.328125 50.609375 34.8125 
Q 44.34375 29.296875 32.078125 29.296875 
L 19.671875 29.296875 
L 19.671875 0 
L 9.8125 0 
z
" id="DejaVuSans-80"/>
      <path d="M 30.609375 48.390625 
Q 23.390625 48.390625 19.1875 42.75 
Q 14.984375 37.109375 14.984375 27.296875 
Q 14.984375 17.484375 19.15625 11.84375 
Q 23.34375 6.203125 30.609375 6.203125 
Q 37.796875 6.203125 41.984375 11.859375 
Q 46.1875 17.53125 46.1875 27.296875 
Q 46.1875 37.015625 41.984375 42.703125 
Q 37.796875 48.390625 30.609375 48.390625 
z
M 30.609375 56 
Q 42.328125 56 49.015625 48.375 
Q 55.71875 40.765625 55.71875 27.296875 
Q 55.71875 13.875 49.015625 6.21875 
Q 42.328125 -1.421875 30.609375 -1.421875 
Q 18.84375 -1.421875 12.171875 6.21875 
Q 5.515625 13.875 5.515625 27.296875 
Q 5.515625 40.765625 12.171875 48.375 
Q 18.84375 56 30.609375 56 
z
" id="DejaVuSans-111"/>
      <path d="M 44.28125 53.078125 
L 44.28125 44.578125 
Q 40.484375 46.53125 36.375 47.5 
Q 32.28125 48.484375 27.875 48.484375 
Q 21.1875 48.484375 17.84375 46.4375 
Q 14.5 44.390625 14.5 40.28125 
Q 14.5 37.15625 16.890625 35.375 
Q 19.28125 33.59375 26.515625 31.984375 
L 29.59375 31.296875 
Q 39.15625 29.25 43.1875 25.515625 
Q 47.21875 21.78125 47.21875 15.09375 
Q 47.21875 7.46875 41.1875 3.015625 
Q 35.15625 -1.421875 24.609375 -1.421875 
Q 20.21875 -1.421875 15.453125 -0.5625 
Q 10.6875 0.296875 5.421875 2 
L 5.421875 11.28125 
Q 10.40625 8.6875 15.234375 7.390625 
Q 20.0625 6.109375 24.8125 6.109375 
Q 31.15625 6.109375 34.5625 8.28125 
Q 37.984375 10.453125 37.984375 14.40625 
Q 37.984375 18.0625 35.515625 20.015625 
Q 33.0625 21.96875 24.703125 23.78125 
L 21.578125 24.515625 
Q 13.234375 26.265625 9.515625 29.90625 
Q 5.8125 33.546875 5.8125 39.890625 
Q 5.8125 47.609375 11.28125 51.796875 
Q 16.75 56 26.8125 56 
Q 31.78125 56 36.171875 55.265625 
Q 40.578125 54.546875 44.28125 53.078125 
z
" id="DejaVuSans-115"/>
      <path d="M 18.3125 70.21875 
L 18.3125 54.6875 
L 36.8125 54.6875 
L 36.8125 47.703125 
L 18.3125 47.703125 
L 18.3125 18.015625 
Q 18.3125 11.328125 20.140625 9.421875 
Q 21.96875 7.515625 27.59375 7.515625 
L 36.8125 7.515625 
L 36.8125 0 
L 27.59375 0 
Q 17.1875 0 13.234375 3.875 
Q 9.28125 7.765625 9.28125 18.015625 
L 9.28125 47.703125 
L 2.6875 47.703125 
L 2.6875 54.6875 
L 9.28125 54.6875 
L 9.28125 70.21875 
z
" id="DejaVuSans-116"/>
      <path d="M 56.203125 29.59375 
L 56.203125 25.203125 
L 14.890625 25.203125 
Q 15.484375 15.921875 20.484375 11.0625 
Q 25.484375 6.203125 34.421875 6.203125 
Q 39.59375 6.203125 44.453125 7.46875 
Q 49.3125 8.734375 54.109375 11.28125 
L 54.109375 2.78125 
Q 49.265625 0.734375 44.1875 -0.34375 
Q 39.109375 -1.421875 33.890625 -1.421875 
Q 20.796875 -1.421875 13.15625 6.1875 
Q 5.515625 13.8125 5.515625 26.8125 
Q 5.515625 40.234375 12.765625 48.109375 
Q 20.015625 56 32.328125 56 
Q 43.359375 56 49.78125 48.890625 
Q 56.203125 41.796875 56.203125 29.59375 
z
M 47.21875 32.234375 
Q 47.125 39.59375 43.09375 43.984375 
Q 39.0625 48.390625 32.421875 48.390625 
Q 24.90625 48.390625 20.390625 44.140625 
Q 15.875 39.890625 15.1875 32.171875 
z
" id="DejaVuSans-101"/>
      <path d="M 41.109375 46.296875 
Q 39.59375 47.171875 37.8125 47.578125 
Q 36.03125 48 33.890625 48 
Q 26.265625 48 22.1875 43.046875 
Q 18.109375 38.09375 18.109375 28.8125 
L 18.109375 0 
L 9.078125 0 
L 9.078125 54.6875 
L 18.109375 54.6875 
L 18.109375 46.1875 
Q 20.953125 51.171875 25.484375 53.578125 
Q 30.03125 56 36.53125 56 
Q 37.453125 56 38.578125 55.875 
Q 39.703125 55.765625 41.0625 55.515625 
z
" id="DejaVuSans-114"/>
      <path d="M 9.421875 54.6875 
L 18.40625 54.6875 
L 18.40625 0 
L 9.421875 0 
z
M 9.421875 75.984375 
L 18.40625 75.984375 
L 18.40625 64.59375 
L 9.421875 64.59375 
z
" id="DejaVuSans-105"/>
     </defs>
     <g transform="translate(52.557812 165.552656)rotate(-90)scale(0.1 -0.1)">
      <use xlink:href="#DejaVuSans-80"/>
      <use x="60.255859" xlink:href="#DejaVuSans-111"/>
      <use x="121.4375" xlink:href="#DejaVuSans-115"/>
      <use x="173.537109" xlink:href="#DejaVuSans-116"/>
      <use x="212.746094" xlink:href="#DejaVuSans-101"/>
      <use x="274.269531" xlink:href="#DejaVuSans-114"/>
      <use x="315.382812" xlink:href="#DejaVuSans-105"/>
      <use x="343.166016" xlink:href="#DejaVuSans-111"/>
      <use x="404.347656" xlink:href="#DejaVuSans-114"/>
     </g>
    </g>
   </g>
   <g id="line2d_12">
    <path clip-path="url(#p034f7ff14d)" d="M 72 242.116364 
L 74.049587 242.116364 
L 76.099174 242.116364 
L 78.14876 242.116364 
L 80.198347 242.116364 
L 82.247934 242.116316 
L 84.297521 242.109375 
L 86.347107 242.010515 
L 88.396694 241.375228 
L 90.446281 239.080039 
L 92.495868 233.704874 
L 94.545455 224.610318 
L 96.595041 212.544245 
L 98.644628 199.188345 
L 100.694215 186.26153 
L 102.743802 174.923923 
L 104.793388 165.661239 
L 106.842975 158.45384 
L 108.892562 153.008049 
L 110.942149 148.936078 
L 112.991736 145.861249 
L 115.041322 143.464869 
L 117.090909 141.49811 
L 119.140496 139.776824 
L 121.190083 138.17011 
L 123.239669 136.588097 
L 125.289256 134.971243 
L 127.338843 133.281789 
L 129.38843 131.497292 
L 131.438017 129.605876 
L 133.487603 127.602833 
L 135.53719 125.488206 
L 137.586777 123.26511 
L 139.636364 120.938555 
L 141.68595 118.514647 
L 143.735537 116.000037 
L 145.785124 113.401553 
L 147.834711 110.725957 
L 149.884298 107.97979 
L 151.933884 105.169272 
L 153.983471 102.300252 
L 156.033058 99.378177 
L 158.082645 96.408088 
L 160.132231 93.394624 
L 162.181818 90.342038 
L 164.231405 87.254221 
L 166.280992 84.134736 
L 168.330579 80.986876 
L 170.380165 77.813778 
L 172.429752 74.618654 
L 174.479339 71.405263 
L 176.528926 68.178815 
L 178.578512 64.947619 
L 180.628099 61.725835 
L 182.677686 58.53772 
L 184.727273 55.423602 
L 186.77686 52.447442 
L 188.826446 49.705228 
L 190.876033 47.332674 
L 192.92562 45.509956 
L 194.975207 44.460815 
L 197.024793 44.443636 
L 199.07438 45.733182 
L 201.123967 48.593539 
L 203.173554 53.245062 
L 205.22314 59.830146 
L 207.272727 68.383834 
L 209.322314 78.815125 
L 211.371901 90.903273 
L 213.421488 104.310691 
L 215.471074 118.610933 
L 217.520661 133.327454 
L 219.570248 147.977045 
L 221.619835 162.111406 
L 223.669421 175.351227 
L 225.719008 187.409002 
L 227.768595 198.099132 
L 229.818182 207.336065 
L 231.867769 215.122857 
L 233.917355 221.533471 
L 235.966942 226.692268 
L 238.016529 230.753711 
L 240.066116 233.884478 
L 242.115702 236.249303 
L 244.165289 238.000956 
L 246.214876 239.274192 
L 248.264463 240.183013 
L 250.31405 240.820456 
L 252.363636 241.260074 
L 254.413223 241.558367 
L 256.46281 241.757618 
L 258.512397 241.888715 
L 260.561983 241.973724 
L 262.61157 242.028078 
L 264.661157 242.062364 
L 266.710744 242.083713 
L 268.760331 242.096839 
L 270.809917 242.104813 
L 272.859504 242.109601 
L 274.909091 242.112443 
" style="fill:none;stroke:#808080;stroke-dasharray:5.55,2.4;stroke-dashoffset:0;stroke-width:1.5;"/>
   </g>
   <g id="line2d_13">
    <path clip-path="url(#p034f7ff14d)" d="M 72 241.698445 
L 74.049587 241.399391 
L 76.099174 240.927891 
L 78.14876 240.210141 
L 80.198347 239.153764 
L 82.247934 237.648746 
L 84.297521 235.571162 
L 86.347107 232.790514 
L 88.396694 229.181197 
L 90.446281 224.638031 
L 92.495868 219.094735 
L 94.545455 212.542984 
L 96.595041 205.048452 
L 98.644628 196.759679 
L 100.694215 187.906034 
L 102.743802 178.782701 
L 104.793388 169.723268 
L 106.842975 161.06342 
L 108.892562 153.10169 
L 110.942149 146.064417 
L 112.991736 140.081569 
L 115.041322 135.177952 
L 117.090909 131.281099 
L 119.140496 128.243556 
L 121.190083 125.874385 
L 123.239669 123.973175 
L 125.289256 122.360055 
L 127.338843 120.896829 
L 129.38843 119.496796 
L 131.438017 118.12326 
L 133.487603 116.778644 
L 135.53719 115.487298 
L 137.586777 114.275662 
L 139.636364 113.153746 
L 141.68595 112.101874 
L 143.735537 111.066205 
L 145.785124 109.965249 
L 147.834711 108.707243 
L 149.884298 107.214952 
L 151.933884 105.451269 
L 153.983471 103.436996 
L 156.033058 101.253033 
L 158.082645 99.023141 
L 160.132231 96.879862 
L 162.181818 94.922794 
L 164.231405 93.182374 
L 166.280992 91.601683 
L 168.330579 90.043152 
L 170.380165 88.318721 
L 172.429752 86.234268 
L 174.479339 83.635259 
L 176.528926 80.44184 
L 178.578512 76.666786 
L 180.628099 72.416105 
L 182.677686 67.876738 
L 184.727273 63.297266 
L 186.77686 58.966248 
L 188.826446 55.190393 
L 190.876033 52.272973 
L 192.92562 50.492453 
L 194.975207 50.082148 
L 197.024793 51.212842 
L 199.07438 53.980955 
L 201.123967 58.404478 
L 203.173554 64.427581 
L 205.22314 71.932859 
L 207.272727 80.758282 
L 209.322314 90.714638 
L 211.371901 101.599338 
L 213.421488 113.203907 
L 215.471074 125.315037 
L 217.520661 137.711643 
L 219.570248 150.16195 
L 221.619835 162.424477 
L 223.669421 174.255103 
L 225.719008 185.419866 
L 227.768595 195.711022 
L 229.818182 204.962827 
L 231.867769 213.063728 
L 233.917355 219.962785 
L 235.966942 225.669547 
L 238.016529 230.247839 
L 240.066116 233.80477 
L 242.115702 236.476747 
L 244.165289 238.414516 
L 246.214876 239.769166 
L 248.264463 240.680734 
L 250.31405 241.270413 
L 252.363636 241.636678 
L 254.413223 241.85489 
L 256.46281 241.979476 
L 258.512397 242.047591 
L 260.561983 242.083229 
L 262.61157 242.101064 
L 264.661157 242.109596 
L 266.710744 242.113498 
L 268.760331 242.115202 
L 270.809917 242.115913 
L 272.859504 242.116197 
L 274.909091 242.116304 
" style="fill:none;stroke:#1f77b4;stroke-linecap:square;stroke-width:1.5;"/>
   </g>
   <g id="line2d_14">
    <path clip-path="url(#p034f7ff14d)" d="M 102.436364 252 
L 102.436364 34.56 
" style="fill:none;stroke:#ff7f0e;stroke-dasharray:1.5,2.475;stroke-dashoffset:0;stroke-width:1.5;"/>
   </g>
   <g id="line2d_15">
    <path clip-path="url(#p034f7ff14d)" d="M 72 241.760463 
L 74.049587 241.464241 
L 76.099174 240.968528 
L 78.14876 240.174316 
L 80.198347 238.955774 
L 82.247934 237.165013 
L 84.297521 234.643752 
L 86.347107 231.242318 
L 88.396694 226.844489 
L 90.446281 221.394482 
L 92.495868 214.920711 
L 94.545455 207.550378 
L 96.595041 199.510076 
L 98.644628 191.110213 
L 100.694215 182.714461 
L 102.743802 174.698702 
L 104.793388 167.40604 
L 106.842975 161.105106 
L 108.892562 155.958153 
L 110.942149 152.003694 
L 112.991736 149.156193 
L 115.041322 147.222657 
L 117.090909 145.933358 
L 119.140496 144.981497 
L 121.190083 144.065119 
L 123.239669 142.924426 
L 125.289256 141.368877 
L 127.338843 139.29088 
L 129.38843 136.665626 
L 131.438017 133.53916 
L 133.487603 130.008594 
L 135.53719 126.199183 
L 137.586777 122.242812 
L 139.636364 118.261178 
L 141.68595 114.355078 
L 143.735537 110.599164 
L 145.785124 107.040257 
L 147.834711 103.69718 
L 149.884298 100.561136 
L 151.933884 97.597127 
L 153.983471 94.747968 
L 156.033058 91.942324 
L 158.082645 89.107032 
L 160.132231 86.182156 
L 162.181818 83.135683 
L 164.231405 79.974083 
L 166.280992 76.745421 
L 168.330579 73.533395 
L 170.380165 70.442932 
L 172.429752 67.580365 
L 174.479339 65.0328 
L 176.528926 62.851588 
L 178.578512 61.04389 
L 180.628099 59.574545 
L 182.677686 58.378521 
L 184.727273 57.38257 
L 186.77686 56.533114 
L 188.826446 55.825669 
L 190.876033 55.329309 
L 192.92562 55.198806 
L 194.975207 55.66822 
L 197.024793 57.023667 
L 199.07438 59.558986 
L 201.123967 63.523895 
L 203.173554 69.077383 
L 205.22314 76.257994 
L 207.272727 84.977478 
L 209.322314 95.037267 
L 211.371901 106.161002 
L 213.421488 118.033083 
L 215.471074 130.333538 
L 217.520661 142.762617 
L 219.570248 155.052868 
L 221.619835 166.970516 
L 223.669421 178.310662 
L 225.719008 188.891738 
L 227.768595 198.55375 
L 229.818182 207.162634 
L 231.867769 214.620146 
L 233.917355 220.876213 
L 235.966942 225.939188 
L 238.016529 229.879651 
L 240.066116 232.825045 
L 242.115702 234.945003 
L 244.165289 236.429928 
L 246.214876 237.467219 
L 248.264463 238.220177 
L 250.31405 238.813725 
L 252.363636 239.329119 
L 254.413223 239.807351 
L 256.46281 240.258884 
L 258.512397 240.676138 
L 260.561983 241.045246 
L 262.61157 241.35461 
L 264.661157 241.599305 
L 266.710744 241.781779 
L 268.760331 241.910109 
L 270.809917 241.995293 
L 272.859504 242.048709 
L 274.909091 242.08038 
" style="fill:none;stroke:#ff7f0e;stroke-linecap:square;stroke-width:1.5;"/>
   </g>
   <g id="line2d_16">
    <path clip-path="url(#p034f7ff14d)" d="M 102.436364 252 
L 102.436364 34.56 
" style="fill:none;stroke:#ff7f0e;stroke-dasharray:1.5,2.475;stroke-dashoffset:0;stroke-width:1.5;"/>
   </g>
   <g id="line2d_17">
    <path clip-path="url(#p034f7ff14d)" d="M 72 240.649367 
L 74.049587 239.852355 
L 76.099174 238.735579 
L 78.14876 237.22813 
L 80.198347 235.267158 
L 82.247934 232.807336 
L 84.297521 229.829621 
L 86.347107 226.347273 
L 88.396694 222.40745 
L 90.446281 218.087573 
L 92.495868 213.486886 
L 94.545455 208.71483 
L 96.595041 203.878581 
L 98.644628 199.072081 
L 100.694215 194.368205 
L 102.743802 189.814667 
L 104.793388 185.433283 
L 106.842975 181.221706 
L 108.892562 177.156802 
L 110.942149 173.199244 
L 112.991736 169.299292 
L 115.041322 165.403765 
L 117.090909 161.463858 
L 119.140496 157.442818 
L 121.190083 153.322141 
L 123.239669 149.105081 
L 125.289256 144.816965 
L 127.338843 140.502749 
L 129.38843 136.222912 
L 131.438017 132.048779 
L 133.487603 128.057747 
L 135.53719 124.32811 
L 137.586777 120.932805 
L 139.636364 117.931824 
L 141.68595 115.364002 
L 143.735537 113.23984 
L 145.785124 111.537239 
L 147.834711 110.201275 
L 149.884298 109.147801 
L 151.933884 108.269533 
L 153.983471 107.44299 
L 156.033058 106.535508 
L 158.082645 105.41274 
L 160.132231 103.947959 
L 162.181818 102.034163 
L 164.231405 99.598543 
L 166.280992 96.616997 
L 168.330579 93.124985 
L 170.380165 89.221087 
L 172.429752 85.061064 
L 174.479339 80.842644 
L 176.528926 76.783634 
L 178.578512 73.097479 
L 180.628099 69.970754 
L 182.677686 67.546284 
L 184.727273 65.914235 
L 186.77686 65.111888 
L 188.826446 65.131341 
L 190.876033 65.933099 
L 192.92562 67.462585 
L 194.975207 69.666031 
L 197.024793 72.502287 
L 199.07438 75.947947 
L 201.123967 79.994762 
L 203.173554 84.64042 
L 205.22314 89.875633 
L 207.272727 95.67167 
L 209.322314 101.972221 
L 211.371901 108.692075 
L 213.421488 115.722801 
L 215.471074 122.943477 
L 217.520661 130.233258 
L 219.570248 137.482624 
L 221.619835 144.601325 
L 223.669421 151.522572 
L 225.719008 158.204141 
L 227.768595 164.627333 
L 229.818182 170.794227 
L 231.867769 176.723013 
L 233.917355 182.440955 
L 235.966942 187.975132 
L 238.016529 193.342236 
L 240.066116 198.539789 
L 242.115702 203.541546 
L 244.165289 208.299053 
L 246.214876 212.749682 
L 248.264463 216.82938 
L 250.31405 220.486801 
L 252.363636 223.694951 
L 254.413223 226.457218 
L 256.46281 228.80638 
L 258.512397 230.797271 
L 260.561983 232.495499 
L 262.61157 233.965461 
L 264.661157 235.260655 
L 266.710744 236.418269 
L 268.760331 237.458526 
L 270.809917 238.387949 
L 272.859504 239.204852 
L 274.909091 239.905185 
" style="fill:none;stroke:#2ca02c;stroke-linecap:square;stroke-width:1.5;"/>
   </g>
   <g id="line2d_18">
    <path clip-path="url(#p034f7ff14d)" d="M 102.436364 252 
L 102.436364 34.56 
" style="fill:none;stroke:#ff7f0e;stroke-dasharray:1.5,2.475;stroke-dashoffset:0;stroke-width:1.5;"/>
   </g>
   <g id="line2d_19">
    <path clip-path="url(#p034f7ff14d)" d="M 72 236.829044 
L 74.049587 235.018092 
L 76.099174 232.778397 
L 78.14876 230.072254 
L 80.198347 226.876912 
L 82.247934 223.188743 
L 84.297521 219.026301 
L 86.347107 214.431754 
L 88.396694 209.470366 
L 90.446281 204.227886 
L 92.495868 198.805953 
L 94.545455 193.315846 
L 96.595041 187.8711 
L 98.644628 182.579615 
L 100.694215 177.535945 
L 102.743802 172.814424 
L 104.793388 168.463756 
L 106.842975 164.503593 
L 108.892562 160.923559 
L 110.942149 157.684996 
L 112.991736 154.725542 
L 115.041322 151.966353 
L 117.090909 149.321419 
L 119.140496 146.708062 
L 121.190083 144.057322 
L 123.239669 141.322815 
L 125.289256 138.48666 
L 127.338843 135.561434 
L 129.38843 132.587721 
L 131.438017 129.627515 
L 133.487603 126.754521 
L 135.53719 124.0429 
L 137.586777 121.556281 
L 139.636364 119.338733 
L 141.68595 117.408956 
L 143.735537 115.758349 
L 145.785124 114.352902 
L 147.834711 113.138339 
L 149.884298 112.047584 
L 151.933884 111.009532 
L 153.983471 109.958183 
L 156.033058 108.841311 
L 158.082645 107.627984 
L 160.132231 106.314239 
L 162.181818 104.926185 
L 164.231405 103.519816 
L 166.280992 102.176991 
L 168.330579 100.997485 
L 170.380165 100.087662 
L 172.429752 99.547143 
L 174.479339 99.45546 
L 176.528926 99.860988 
L 178.578512 100.774219 
L 180.628099 102.166658 
L 182.677686 103.975503 
L 184.727273 106.113093 
L 186.77686 108.479155 
L 188.826446 110.973496 
L 190.876033 113.506935 
L 192.92562 116.008944 
L 194.975207 118.43142 
L 197.024793 120.748879 
L 199.07438 122.956046 
L 201.123967 125.064047 
L 203.173554 127.096303 
L 205.22314 129.084864 
L 207.272727 131.067434 
L 209.322314 133.085012 
L 211.371901 135.179813 
L 213.421488 137.393164 
L 215.471074 139.763177 
L 217.520661 142.322208 
L 219.570248 145.094271 
L 221.619835 148.092711 
L 223.669421 151.318403 
L 225.719008 154.758747 
L 227.768595 158.387589 
L 229.818182 162.166134 
L 231.867769 166.044811 
L 233.917355 169.966047 
L 235.966942 173.867822 
L 238.016529 177.687888 
L 240.066116 181.368432 
L 242.115702 184.860878 
L 244.165289 188.130397 
L 246.214876 191.159575 
L 248.264463 193.950629 
L 250.31405 196.525637 
L 252.363636 198.924452 
L 254.413223 201.200298 
L 256.46281 203.413461 
L 258.512397 205.62388 
L 260.561983 207.883671 
L 262.61157 210.23069 
L 264.661157 212.684049 
L 266.710744 215.242175 
L 268.760331 217.883537 
L 270.809917 220.569756 
L 272.859504 223.250482 
L 274.909091 225.869261 
" style="fill:none;stroke:#d62728;stroke-linecap:square;stroke-width:1.5;"/>
   </g>
   <g id="line2d_20">
    <path clip-path="url(#p034f7ff14d)" d="M 102.436364 252 
L 102.436364 34.56 
" style="fill:none;stroke:#ff7f0e;stroke-dasharray:1.5,2.475;stroke-dashoffset:0;stroke-width:1.5;"/>
   </g>
   <g id="patch_3">
    <path d="M 72 252 
L 72 34.56 
" style="fill:none;stroke:#000000;stroke-linecap:square;stroke-linejoin:miter;stroke-width:0.8;"/>
   </g>
   <g id="patch_4">
    <path d="M 274.909091 252 
L 274.909091 34.56 
" style="fill:none;stroke:#000000;stroke-linecap:square;stroke-linejoin:miter;stroke-width:0.8;"/>
   </g>
   <g id="patch_5">
    <path d="M 72 252 
L 274.909091 252 
" style="fill:none;stroke:#000000;stroke-linecap:square;stroke-linejoin:miter;stroke-width:0.8;"/>
   </g>
   <g id="patch_6">
    <path d="M 72 34.56 
L 274.909091 34.56 
" style="fill:none;stroke:#000000;stroke-linecap:square;stroke-linejoin:miter;stroke-width:0.8;"/>
   </g>
  </g>
  <g id="axes_2">
   <g id="patch_7">
    <path d="M 315.490909 252 
L 518.4 252 
L 518.4 34.56 
L 315.490909 34.56 
z
" style="fill:#ffffff;"/>
   </g>
   <g id="matplotlib.axis_3">
    <g id="xtick_6">
     <g id="line2d_21">
      <g>
       <use style="stroke:#000000;stroke-width:0.8;" x="315.490909" xlink:href="#m34efd633d5" y="252"/>
      </g>
     </g>
     <g id="text_14">
      <!-- 0.0 -->
      <g transform="translate(307.539347 266.598437)scale(0.1 -0.1)">
       <use xlink:href="#DejaVuSans-48"/>
       <use x="63.623047" xlink:href="#DejaVuSans-46"/>
       <use x="95.410156" xlink:href="#DejaVuSans-48"/>
      </g>
     </g>
    </g>
    <g id="xtick_7">
     <g id="line2d_22">
      <g>
       <use style="stroke:#000000;stroke-width:0.8;" x="366.218182" xlink:href="#m34efd633d5" y="252"/>
      </g>
     </g>
     <g id="text_15">
      <!-- 0.1 -->
      <g transform="translate(358.266619 266.598437)scale(0.1 -0.1)">
       <use xlink:href="#DejaVuSans-48"/>
       <use x="63.623047" xlink:href="#DejaVuSans-46"/>
       <use x="95.410156" xlink:href="#DejaVuSans-49"/>
      </g>
     </g>
    </g>
    <g id="xtick_8">
     <g id="line2d_23">
      <g>
       <use style="stroke:#000000;stroke-width:0.8;" x="416.945455" xlink:href="#m34efd633d5" y="252"/>
      </g>
     </g>
     <g id="text_16">
      <!-- 0.2 -->
      <g transform="translate(408.993892 266.598437)scale(0.1 -0.1)">
       <use xlink:href="#DejaVuSans-48"/>
       <use x="63.623047" xlink:href="#DejaVuSans-46"/>
       <use x="95.410156" xlink:href="#DejaVuSans-50"/>
      </g>
     </g>
    </g>
    <g id="xtick_9">
     <g id="line2d_24">
      <g>
       <use style="stroke:#000000;stroke-width:0.8;" x="467.672727" xlink:href="#m34efd633d5" y="252"/>
      </g>
     </g>
     <g id="text_17">
      <!-- 0.3 -->
      <g transform="translate(459.721165 266.598437)scale(0.1 -0.1)">
       <use xlink:href="#DejaVuSans-48"/>
       <use x="63.623047" xlink:href="#DejaVuSans-46"/>
       <use x="95.410156" xlink:href="#DejaVuSans-51"/>
      </g>
     </g>
    </g>
    <g id="xtick_10">
     <g id="line2d_25">
      <g>
       <use style="stroke:#000000;stroke-width:0.8;" x="518.4" xlink:href="#m34efd633d5" y="252"/>
      </g>
     </g>
     <g id="text_18">
      <!-- 0.4 -->
      <g transform="translate(510.448437 266.598437)scale(0.1 -0.1)">
       <use xlink:href="#DejaVuSans-48"/>
       <use x="63.623047" xlink:href="#DejaVuSans-46"/>
       <use x="95.410156" xlink:href="#DejaVuSans-52"/>
      </g>
     </g>
    </g>
    <g id="text_19">
     <!-- p1 -->
     <g transform="translate(410.589986 280.276563)scale(0.1 -0.1)">
      <use xlink:href="#DejaVuSans-112"/>
      <use x="63.476562" xlink:href="#DejaVuSans-49"/>
     </g>
    </g>
   </g>
   <g id="matplotlib.axis_4">
    <g id="ytick_7">
     <g id="line2d_26">
      <g>
       <use style="stroke:#000000;stroke-width:0.8;" x="315.490909" xlink:href="#m8d5d6bb697" y="242.117058"/>
      </g>
     </g>
     <g id="text_20">
      <!-- 0 -->
      <g transform="translate(302.128409 245.916277)scale(0.1 -0.1)">
       <use xlink:href="#DejaVuSans-48"/>
      </g>
     </g>
    </g>
    <g id="ytick_8">
     <g id="line2d_27">
      <g>
       <use style="stroke:#000000;stroke-width:0.8;" x="315.490909" xlink:href="#m8d5d6bb697" y="201.36231"/>
      </g>
     </g>
     <g id="text_21">
      <!-- 1 -->
      <g transform="translate(302.128409 205.161529)scale(0.1 -0.1)">
       <use xlink:href="#DejaVuSans-49"/>
      </g>
     </g>
    </g>
    <g id="ytick_9">
     <g id="line2d_28">
      <g>
       <use style="stroke:#000000;stroke-width:0.8;" x="315.490909" xlink:href="#m8d5d6bb697" y="160.607562"/>
      </g>
     </g>
     <g id="text_22">
      <!-- 2 -->
      <g transform="translate(302.128409 164.40678)scale(0.1 -0.1)">
       <use xlink:href="#DejaVuSans-50"/>
      </g>
     </g>
    </g>
    <g id="ytick_10">
     <g id="line2d_29">
      <g>
       <use style="stroke:#000000;stroke-width:0.8;" x="315.490909" xlink:href="#m8d5d6bb697" y="119.852814"/>
      </g>
     </g>
     <g id="text_23">
      <!-- 3 -->
      <g transform="translate(302.128409 123.652032)scale(0.1 -0.1)">
       <use xlink:href="#DejaVuSans-51"/>
      </g>
     </g>
    </g>
    <g id="ytick_11">
     <g id="line2d_30">
      <g>
       <use style="stroke:#000000;stroke-width:0.8;" x="315.490909" xlink:href="#m8d5d6bb697" y="79.098065"/>
      </g>
     </g>
     <g id="text_24">
      <!-- 4 -->
      <g transform="translate(302.128409 82.897284)scale(0.1 -0.1)">
       <use xlink:href="#DejaVuSans-52"/>
      </g>
     </g>
    </g>
    <g id="ytick_12">
     <g id="line2d_31">
      <g>
       <use style="stroke:#000000;stroke-width:0.8;" x="315.490909" xlink:href="#m8d5d6bb697" y="38.343317"/>
      </g>
     </g>
     <g id="text_25">
      <!-- 5 -->
      <g transform="translate(302.128409 42.142536)scale(0.1 -0.1)">
       <use xlink:href="#DejaVuSans-53"/>
      </g>
     </g>
    </g>
    <g id="text_26">
     <!-- Posterior -->
     <g transform="translate(296.048722 165.552656)rotate(-90)scale(0.1 -0.1)">
      <use xlink:href="#DejaVuSans-80"/>
      <use x="60.255859" xlink:href="#DejaVuSans-111"/>
      <use x="121.4375" xlink:href="#DejaVuSans-115"/>
      <use x="173.537109" xlink:href="#DejaVuSans-116"/>
      <use x="212.746094" xlink:href="#DejaVuSans-101"/>
      <use x="274.269531" xlink:href="#DejaVuSans-114"/>
      <use x="315.382812" xlink:href="#DejaVuSans-105"/>
      <use x="343.166016" xlink:href="#DejaVuSans-111"/>
      <use x="404.347656" xlink:href="#DejaVuSans-114"/>
     </g>
    </g>
   </g>
   <g id="line2d_32">
    <path clip-path="url(#p85f6d64e69)" d="M 315.490909 242.116364 
L 317.540496 242.114183 
L 319.590083 242.106549 
L 321.639669 242.08308 
L 323.689256 242.019548 
L 325.738843 241.867427 
L 327.78843 241.543385 
L 329.838017 240.925048 
L 331.887603 239.859977 
L 333.93719 238.190489 
L 335.986777 235.789126 
L 338.036364 232.593087 
L 340.08595 228.625072 
L 342.135537 223.993566 
L 344.185124 218.873757 
L 346.234711 213.47677 
L 348.284298 208.016944 
L 350.333884 202.685002 
L 352.383471 197.631148 
L 354.433058 192.958409 
L 356.482645 188.724155 
L 358.532231 184.946805 
L 360.581818 181.614869 
L 362.631405 178.696228 
L 364.680992 176.14635 
L 366.730579 173.914849 
L 368.780165 171.950299 
L 370.829752 170.203465 
L 372.879339 168.629247 
L 374.928926 167.187679 
L 376.978512 165.844245 
L 379.028099 164.569761 
L 381.077686 163.340002 
L 383.127273 162.135193 
L 385.17686 160.939443 
L 387.226446 159.7402 
L 389.276033 158.527722 
L 391.32562 157.294615 
L 393.375207 156.035416 
L 395.424793 154.746242 
L 397.47438 153.424482 
L 399.523967 152.068554 
L 401.573554 150.677681 
L 403.62314 149.251729 
L 405.672727 147.791054 
L 407.722314 146.296391 
L 409.771901 144.768752 
L 411.821488 143.209358 
L 413.871074 141.619568 
L 415.920661 140.000835 
L 417.970248 138.354662 
L 420.019835 136.682576 
L 422.069421 134.986098 
L 424.119008 133.266727 
L 426.168595 131.525927 
L 428.218182 129.765113 
L 430.267769 127.985646 
L 432.317355 126.188827 
L 434.366942 124.375893 
L 436.416529 122.548017 
L 438.466116 120.706303 
L 440.515702 118.851793 
L 442.565289 116.985463 
L 444.614876 115.108228 
L 446.664463 113.22094 
L 448.71405 111.324395 
L 450.763636 109.419333 
L 452.813223 107.50644 
L 454.86281 105.586354 
L 456.912397 103.659664 
L 458.961983 101.726918 
L 461.01157 99.788617 
L 463.061157 97.845229 
L 465.110744 95.89718 
L 467.160331 93.944867 
L 469.209917 91.988653 
L 471.259504 90.028871 
L 473.309091 88.06583 
L 475.358678 86.09981 
L 477.408264 84.13107 
L 479.457851 82.159847 
L 481.507438 80.186359 
L 483.557025 78.210805 
L 485.606612 76.233366 
L 487.656198 74.25421 
L 489.705785 72.273489 
L 491.755372 70.291342 
L 493.804959 68.307897 
L 495.854545 66.32327 
L 497.904132 64.337569 
L 499.953719 62.350892 
L 502.003306 60.363332 
L 504.052893 58.374977 
L 506.102479 56.385913 
L 508.152066 54.396232 
L 510.201653 52.406039 
L 512.25124 50.415465 
L 514.300826 48.424685 
L 516.350413 46.433951 
L 518.4 44.443636 
" style="fill:none;stroke:#808080;stroke-dasharray:5.55,2.4;stroke-dashoffset:0;stroke-width:1.5;"/>
   </g>
   <g id="line2d_33">
    <path clip-path="url(#p85f6d64e69)" d="M 315.490909 240.963196 
L 317.540496 240.552429 
L 319.590083 240.024823 
L 321.639669 239.355939 
L 323.689256 238.518449 
L 325.738843 237.482443 
L 327.78843 236.216093 
L 329.838017 234.686755 
L 331.887603 232.86259 
L 333.93719 230.71472 
L 335.986777 228.219812 
L 338.036364 225.362946 
L 340.08595 222.140443 
L 342.135537 218.562344 
L 344.185124 214.654132 
L 346.234711 210.457395 
L 348.284298 206.029188 
L 350.333884 201.439997 
L 352.383471 196.770419 
L 354.433058 192.106765 
L 356.482645 187.535994 
L 358.532231 183.140409 
L 360.581818 178.992602 
L 362.631405 175.151087 
L 364.680992 171.657015 
L 366.730579 168.532212 
L 368.780165 165.778718 
L 370.829752 163.379833 
L 372.879339 161.302569 
L 374.928926 159.50127 
L 376.978512 157.922088 
L 379.028099 156.507873 
L 381.077686 155.203054 
L 383.127273 153.95806 
L 385.17686 152.732883 
L 387.226446 151.499506 
L 389.276033 150.243016 
L 391.32562 148.961391 
L 393.375207 147.664065 
L 395.424793 146.36951 
L 397.47438 145.102142 
L 399.523967 143.888917 
L 401.573554 142.755964 
L 403.62314 141.725575 
L 405.672727 140.813798 
L 407.722314 140.028782 
L 409.771901 139.369922 
L 411.821488 138.827759 
L 413.871074 138.384522 
L 415.920661 138.015132 
L 417.970248 137.688515 
L 420.019835 137.369062 
L 422.069421 137.01815 
L 424.119008 136.595703 
L 426.168595 136.061798 
L 428.218182 135.378363 
L 430.267769 134.510978 
L 432.317355 133.430732 
L 434.366942 132.116016 
L 436.416529 130.554045 
L 438.466116 128.741877 
L 440.515702 126.686737 
L 442.565289 124.405496 
L 444.614876 121.923352 
L 446.664463 119.271853 
L 448.71405 116.486565 
L 450.763636 113.604727 
L 452.813223 110.663217 
L 454.86281 107.697062 
L 456.912397 104.738583 
L 458.961983 101.817098 
L 461.01157 98.959018 
L 463.061157 96.188087 
L 465.110744 93.52559 
L 467.160331 90.990413 
L 469.209917 88.599001 
L 471.259504 86.365381 
L 473.309091 84.301517 
L 475.358678 82.418243 
L 477.408264 80.726984 
L 479.457851 79.242256 
L 481.507438 77.984786 
L 483.557025 76.984835 
L 485.606612 76.285188 
L 487.656198 75.943175 
L 489.705785 76.031169 
L 491.755372 76.635133 
L 493.804959 77.851059 
L 495.854545 79.779387 
L 497.904132 82.517755 
L 499.953719 86.152655 
L 502.003306 90.750678 
L 504.052893 96.350115 
L 506.102479 102.953687 
L 508.152066 110.523143 
L 510.201653 118.976393 
L 512.25124 128.187724 
L 514.300826 137.991428 
L 516.350413 148.18891 
L 518.4 158.558958 
" style="fill:none;stroke:#1f77b4;stroke-linecap:square;stroke-width:1.5;"/>
   </g>
   <g id="line2d_34">
    <path clip-path="url(#p85f6d64e69)" d="M 356.072727 252 
L 356.072727 34.56 
" style="fill:none;stroke:#ff7f0e;stroke-dasharray:1.5,2.475;stroke-dashoffset:0;stroke-width:1.5;"/>
   </g>
   <g id="line2d_35">
    <path clip-path="url(#p85f6d64e69)" d="M 315.490909 241.165834 
L 317.540496 240.746675 
L 319.590083 240.180794 
L 321.639669 239.432991 
L 323.689256 238.465492 
L 325.738843 237.239742 
L 327.78843 235.718731 
L 329.838017 233.869742 
L 331.887603 231.667311 
L 333.93719 229.09617 
L 335.986777 226.153869 
L 338.036364 222.852835 
L 340.08595 219.221617 
L 342.135537 215.305184 
L 344.185124 211.164181 
L 346.234711 206.873136 
L 348.284298 202.517651 
L 350.333884 198.190642 
L 352.383471 193.987741 
L 354.433058 190.001973 
L 356.482645 186.317972 
L 358.532231 183.006039 
L 360.581818 180.116564 
L 362.631405 177.675395 
L 364.680992 175.680844 
L 366.730579 174.102946 
L 368.780165 172.885381 
L 370.829752 171.950146 
L 372.879339 171.204649 
L 374.928926 170.550454 
L 376.978512 169.892611 
L 379.028099 169.148332 
L 381.077686 168.253856 
L 383.127273 167.168631 
L 385.17686 165.876398 
L 387.226446 164.383262 
L 389.276033 162.713314 
L 391.32562 160.902684 
L 393.375207 158.993069 
L 395.424793 157.025701 
L 397.47438 155.036509 
L 399.523967 153.05292 
L 401.573554 151.092392 
L 403.62314 149.162518 
L 405.672727 147.262343 
L 407.722314 145.384458 
L 409.771901 143.517428 
L 411.821488 141.648202 
L 413.871074 139.764178 
L 415.920661 137.854745 
L 417.970248 135.912137 
L 420.019835 133.931571 
L 422.069421 131.9107 
L 424.119008 129.848584 
L 426.168595 127.744427 
L 428.218182 125.596501 
L 430.267769 123.401619 
L 432.317355 121.155508 
L 434.366942 118.854204 
L 436.416529 116.49637 
L 438.466116 114.086166 
L 440.515702 111.636075 
L 442.565289 109.169 
L 444.614876 106.719007 
L 446.664463 104.330284 
L 448.71405 102.054235 
L 450.763636 99.944933 
L 452.813223 98.053522 
L 454.86281 96.422314 
L 456.912397 95.079377 
L 458.961983 94.034336 
L 461.01157 93.275878 
L 463.061157 92.771222 
L 465.110744 92.467579 
L 467.160331 92.295453 
L 469.209917 92.173557 
L 471.259504 92.015038 
L 473.309091 91.734727 
L 475.358678 91.257074 
L 477.408264 90.524341 
L 479.457851 89.504544 
L 481.507438 88.198487 
L 483.557025 86.645169 
L 485.606612 84.924822 
L 487.656198 83.158964 
L 489.705785 81.507051 
L 491.755372 80.159609 
L 493.804959 79.32805 
L 495.854545 79.231707 
L 497.904132 80.082894 
L 499.953719 82.071015 
L 502.003306 85.346897 
L 504.052893 90.008636 
L 506.102479 96.090244 
L 508.152066 103.55435 
L 510.201653 112.289981 
L 512.25124 122.116107 
L 514.300826 132.791115 
L 516.350413 144.027712 
L 518.4 155.512062 
" style="fill:none;stroke:#ff7f0e;stroke-linecap:square;stroke-width:1.5;"/>
   </g>
   <g id="line2d_36">
    <path clip-path="url(#p85f6d64e69)" d="M 356.072727 252 
L 356.072727 34.56 
" style="fill:none;stroke:#ff7f0e;stroke-dasharray:1.5,2.475;stroke-dashoffset:0;stroke-width:1.5;"/>
   </g>
   <g id="line2d_37">
    <path clip-path="url(#p85f6d64e69)" d="M 315.490909 239.61281 
L 317.540496 238.799214 
L 319.590083 237.804682 
L 321.639669 236.615018 
L 323.689256 235.221591 
L 325.738843 233.622439 
L 327.78843 231.822869 
L 329.838017 229.835458 
L 331.887603 227.67945 
L 333.93719 225.379605 
L 335.986777 222.964647 
L 338.036364 220.465485 
L 340.08595 217.913402 
L 342.135537 215.338378 
L 344.185124 212.767677 
L 346.234711 210.224792 
L 348.284298 207.728775 
L 350.333884 205.293977 
L 352.383471 202.930186 
L 354.433058 200.643129 
L 356.482645 198.435291 
L 358.532231 196.306942 
L 360.581818 194.257251 
L 362.631405 192.28528 
L 364.680992 190.390664 
L 366.730579 188.57378 
L 368.780165 186.835285 
L 370.829752 185.175027 
L 372.879339 183.590437 
L 374.928926 182.074706 
L 376.978512 180.615095 
L 379.028099 179.191795 
L 381.077686 177.777676 
L 383.127273 176.339151 
L 385.17686 174.838191 
L 387.226446 173.235325 
L 389.276033 171.49331 
L 391.32562 169.581 
L 393.375207 167.476943 
L 395.424793 165.172215 
L 397.47438 162.672122 
L 399.523967 159.996488 
L 401.573554 157.178422 
L 403.62314 154.261599 
L 405.672727 151.296269 
L 407.722314 148.334379 
L 409.771901 145.424363 
L 411.821488 142.606258 
L 413.871074 139.907888 
L 415.920661 137.342772 
L 417.970248 134.910209 
L 420.019835 132.597682 
L 422.069421 130.385257 
L 424.119008 128.251245 
L 426.168595 126.178023 
L 428.218182 124.156774 
L 430.267769 122.190028 
L 432.317355 120.291284 
L 434.366942 118.481633 
L 436.416529 116.783997 
L 438.466116 115.216241 
L 440.515702 113.784736 
L 442.565289 112.479998 
L 444.614876 111.275564 
L 446.664463 110.130591 
L 448.71405 108.995764 
L 450.763636 107.821345 
L 452.813223 106.565646 
L 454.86281 105.202108 
L 456.912397 103.723477 
L 458.961983 102.142217 
L 461.01157 100.487139 
L 463.061157 98.796991 
L 465.110744 97.112381 
L 467.160331 95.467631 
L 469.209917 93.884104 
L 471.259504 92.366146 
L 473.309091 90.900269 
L 475.358678 89.457636 
L 477.408264 87.999394 
L 479.457851 86.484121 
L 481.507438 84.876468 
L 483.557025 83.156088 
L 485.606612 81.326011 
L 487.656198 79.419749 
L 489.705785 77.506477 
L 491.755372 75.693729 
L 493.804959 74.127038 
L 495.854545 72.986048 
L 497.904132 72.476704 
L 499.953719 72.819401 
L 502.003306 74.233372 
L 504.052893 76.91811 
L 506.102479 81.033279 
L 508.152066 86.679128 
L 510.201653 93.879871 
L 512.25124 102.572536 
L 514.300826 112.603465 
L 516.350413 123.733795 
L 518.4 135.65406 
" style="fill:none;stroke:#2ca02c;stroke-linecap:square;stroke-width:1.5;"/>
   </g>
   <g id="line2d_38">
    <path clip-path="url(#p85f6d64e69)" d="M 356.072727 252 
L 356.072727 34.56 
" style="fill:none;stroke:#ff7f0e;stroke-dasharray:1.5,2.475;stroke-dashoffset:0;stroke-width:1.5;"/>
   </g>
   <g id="line2d_39">
    <path clip-path="url(#p85f6d64e69)" d="M 315.490909 235.08968 
L 317.540496 233.740298 
L 319.590083 232.250635 
L 321.639669 230.624829 
L 323.689256 228.869243 
L 325.738843 226.992506 
L 327.78843 225.005614 
L 329.838017 222.922001 
L 331.887603 220.757466 
L 333.93719 218.529859 
L 335.986777 216.25842 
L 338.036364 213.96278 
L 340.08595 211.661688 
L 342.135537 209.371611 
L 344.185124 207.105412 
L 346.234711 204.8713 
L 348.284298 202.67222 
L 350.333884 200.505776 
L 352.383471 198.364687 
L 354.433058 196.237709 
L 356.482645 194.110895 
L 358.532231 191.969058 
L 360.581818 189.797316 
L 362.631405 187.582627 
L 364.680992 185.315249 
L 366.730579 182.990064 
L 368.780165 180.607713 
L 370.829752 178.175425 
L 372.879339 175.707428 
L 374.928926 173.224773 
L 376.978512 170.754428 
L 379.028099 168.32755 
L 381.077686 165.976927 
L 383.127273 163.733713 
L 385.17686 161.623721 
L 387.226446 159.663685 
L 389.276033 157.857997 
L 391.32562 156.196472 
L 393.375207 154.653623 
L 395.424793 153.189813 
L 397.47438 151.75438 
L 399.523967 150.290542 
L 401.573554 148.741588 
L 403.62314 147.057579 
L 405.672727 145.201664 
L 407.722314 143.155085 
L 409.771901 140.92013 
L 411.821488 138.520594 
L 413.871074 135.999671 
L 415.920661 133.415613 
L 417.970248 130.835809 
L 420.019835 128.330106 
L 422.069421 125.964264 
L 424.119008 123.794305 
L 426.168595 121.862324 
L 428.218182 120.194016 
L 430.267769 118.797954 
L 432.317355 117.666365 
L 434.366942 116.777063 
L 436.416529 116.096079 
L 438.466116 115.580581 
L 440.515702 115.18174 
L 442.565289 114.847338 
L 444.614876 114.524015 
L 446.664463 114.159194 
L 448.71405 113.702789 
L 450.763636 113.108816 
L 452.813223 112.337009 
L 454.86281 111.354457 
L 456.912397 110.137195 
L 458.961983 108.67161 
L 461.01157 106.955468 
L 463.061157 104.998403 
L 465.110744 102.821749 
L 467.160331 100.457709 
L 469.209917 97.947971 
L 471.259504 95.34195 
L 473.309091 92.69491 
L 475.358678 90.066233 
L 477.408264 87.518039 
L 479.457851 85.11434 
L 481.507438 82.920792 
L 483.557025 81.005049 
L 485.606612 79.437615 
L 487.656198 78.29299 
L 489.705785 77.650806 
L 491.755372 77.596528 
L 493.804959 78.221209 
L 495.854545 79.61975 
L 497.904132 81.88719 
L 499.953719 85.112756 
L 502.003306 89.371758 
L 504.052893 94.715868 
L 506.102479 101.162827 
L 508.152066 108.687014 
L 510.201653 117.212517 
L 512.25124 126.610241 
L 514.300826 136.700178 
L 516.350413 147.259252 
L 518.4 158.03428 
" style="fill:none;stroke:#d62728;stroke-linecap:square;stroke-width:1.5;"/>
   </g>
   <g id="line2d_40">
    <path clip-path="url(#p85f6d64e69)" d="M 356.072727 252 
L 356.072727 34.56 
" style="fill:none;stroke:#ff7f0e;stroke-dasharray:1.5,2.475;stroke-dashoffset:0;stroke-width:1.5;"/>
   </g>
   <g id="patch_8">
    <path d="M 315.490909 252 
L 315.490909 34.56 
" style="fill:none;stroke:#000000;stroke-linecap:square;stroke-linejoin:miter;stroke-width:0.8;"/>
   </g>
   <g id="patch_9">
    <path d="M 518.4 252 
L 518.4 34.56 
" style="fill:none;stroke:#000000;stroke-linecap:square;stroke-linejoin:miter;stroke-width:0.8;"/>
   </g>
   <g id="patch_10">
    <path d="M 315.490909 252 
L 518.4 252 
" style="fill:none;stroke:#000000;stroke-linecap:square;stroke-linejoin:miter;stroke-width:0.8;"/>
   </g>
   <g id="patch_11">
    <path d="M 315.490909 34.56 
L 518.4 34.56 
" style="fill:none;stroke:#000000;stroke-linecap:square;stroke-linejoin:miter;stroke-width:0.8;"/>
   </g>
   <g id="legend_1">
    <g id="patch_12">
     <path d="M 525.4 115.950625 
L 628.134375 115.950625 
Q 630.134375 115.950625 630.134375 113.950625 
L 630.134375 41.56 
Q 630.134375 39.56 628.134375 39.56 
L 525.4 39.56 
Q 523.4 39.56 523.4 41.56 
L 523.4 113.950625 
Q 523.4 115.950625 525.4 115.950625 
z
" style="fill:#ffffff;opacity:0.8;stroke:#cccccc;stroke-linejoin:miter;"/>
    </g>
    <g id="line2d_41">
     <path d="M 527.4 47.658437 
L 547.4 47.658437 
" style="fill:none;stroke:#808080;stroke-dasharray:5.55,2.4;stroke-dashoffset:0;stroke-width:1.5;"/>
    </g>
    <g id="line2d_42"/>
    <g id="text_27">
     <!-- True posterior -->
     <defs>
      <path d="M -0.296875 72.90625 
L 61.375 72.90625 
L 61.375 64.59375 
L 35.5 64.59375 
L 35.5 0 
L 25.59375 0 
L 25.59375 64.59375 
L -0.296875 64.59375 
z
" id="DejaVuSans-84"/>
      <path d="M 8.5 21.578125 
L 8.5 54.6875 
L 17.484375 54.6875 
L 17.484375 21.921875 
Q 17.484375 14.15625 20.5 10.265625 
Q 23.53125 6.390625 29.59375 6.390625 
Q 36.859375 6.390625 41.078125 11.03125 
Q 45.3125 15.671875 45.3125 23.6875 
L 45.3125 54.6875 
L 54.296875 54.6875 
L 54.296875 0 
L 45.3125 0 
L 45.3125 8.40625 
Q 42.046875 3.421875 37.71875 1 
Q 33.40625 -1.421875 27.6875 -1.421875 
Q 18.265625 -1.421875 13.375 4.4375 
Q 8.5 10.296875 8.5 21.578125 
z
M 31.109375 56 
z
" id="DejaVuSans-117"/>
      <path id="DejaVuSans-32"/>
     </defs>
     <g transform="translate(555.4 51.158437)scale(0.1 -0.1)">
      <use xlink:href="#DejaVuSans-84"/>
      <use x="60.865234" xlink:href="#DejaVuSans-114"/>
      <use x="101.978516" xlink:href="#DejaVuSans-117"/>
      <use x="165.357422" xlink:href="#DejaVuSans-101"/>
      <use x="226.880859" xlink:href="#DejaVuSans-32"/>
      <use x="258.667969" xlink:href="#DejaVuSans-112"/>
      <use x="322.144531" xlink:href="#DejaVuSans-111"/>
      <use x="383.326172" xlink:href="#DejaVuSans-115"/>
      <use x="435.425781" xlink:href="#DejaVuSans-116"/>
      <use x="474.634766" xlink:href="#DejaVuSans-101"/>
      <use x="536.158203" xlink:href="#DejaVuSans-114"/>
      <use x="577.271484" xlink:href="#DejaVuSans-105"/>
      <use x="605.054688" xlink:href="#DejaVuSans-111"/>
      <use x="666.236328" xlink:href="#DejaVuSans-114"/>
     </g>
    </g>
    <g id="line2d_43">
     <path d="M 527.4 62.336562 
L 547.4 62.336562 
" style="fill:none;stroke:#1f77b4;stroke-linecap:square;stroke-width:1.5;"/>
    </g>
    <g id="line2d_44"/>
    <g id="text_28">
     <!-- Iteration 3 -->
     <defs>
      <path d="M 9.8125 72.90625 
L 19.671875 72.90625 
L 19.671875 0 
L 9.8125 0 
z
" id="DejaVuSans-73"/>
      <path d="M 34.28125 27.484375 
Q 23.390625 27.484375 19.1875 25 
Q 14.984375 22.515625 14.984375 16.5 
Q 14.984375 11.71875 18.140625 8.90625 
Q 21.296875 6.109375 26.703125 6.109375 
Q 34.1875 6.109375 38.703125 11.40625 
Q 43.21875 16.703125 43.21875 25.484375 
L 43.21875 27.484375 
z
M 52.203125 31.203125 
L 52.203125 0 
L 43.21875 0 
L 43.21875 8.296875 
Q 40.140625 3.328125 35.546875 0.953125 
Q 30.953125 -1.421875 24.3125 -1.421875 
Q 15.921875 -1.421875 10.953125 3.296875 
Q 6 8.015625 6 15.921875 
Q 6 25.140625 12.171875 29.828125 
Q 18.359375 34.515625 30.609375 34.515625 
L 43.21875 34.515625 
L 43.21875 35.40625 
Q 43.21875 41.609375 39.140625 45 
Q 35.0625 48.390625 27.6875 48.390625 
Q 23 48.390625 18.546875 47.265625 
Q 14.109375 46.140625 10.015625 43.890625 
L 10.015625 52.203125 
Q 14.9375 54.109375 19.578125 55.046875 
Q 24.21875 56 28.609375 56 
Q 40.484375 56 46.34375 49.84375 
Q 52.203125 43.703125 52.203125 31.203125 
z
" id="DejaVuSans-97"/>
      <path d="M 54.890625 33.015625 
L 54.890625 0 
L 45.90625 0 
L 45.90625 32.71875 
Q 45.90625 40.484375 42.875 44.328125 
Q 39.84375 48.1875 33.796875 48.1875 
Q 26.515625 48.1875 22.3125 43.546875 
Q 18.109375 38.921875 18.109375 30.90625 
L 18.109375 0 
L 9.078125 0 
L 9.078125 54.6875 
L 18.109375 54.6875 
L 18.109375 46.1875 
Q 21.34375 51.125 25.703125 53.5625 
Q 30.078125 56 35.796875 56 
Q 45.21875 56 50.046875 50.171875 
Q 54.890625 44.34375 54.890625 33.015625 
z
" id="DejaVuSans-110"/>
     </defs>
     <g transform="translate(555.4 65.836562)scale(0.1 -0.1)">
      <use xlink:href="#DejaVuSans-73"/>
      <use x="29.492188" xlink:href="#DejaVuSans-116"/>
      <use x="68.701172" xlink:href="#DejaVuSans-101"/>
      <use x="130.224609" xlink:href="#DejaVuSans-114"/>
      <use x="171.337891" xlink:href="#DejaVuSans-97"/>
      <use x="232.617188" xlink:href="#DejaVuSans-116"/>
      <use x="271.826172" xlink:href="#DejaVuSans-105"/>
      <use x="299.609375" xlink:href="#DejaVuSans-111"/>
      <use x="360.791016" xlink:href="#DejaVuSans-110"/>
      <use x="424.169922" xlink:href="#DejaVuSans-32"/>
      <use x="455.957031" xlink:href="#DejaVuSans-51"/>
     </g>
    </g>
    <g id="line2d_45">
     <path d="M 527.4 77.014687 
L 547.4 77.014687 
" style="fill:none;stroke:#ff7f0e;stroke-linecap:square;stroke-width:1.5;"/>
    </g>
    <g id="line2d_46"/>
    <g id="text_29">
     <!-- Iteration 2 -->
     <g transform="translate(555.4 80.514687)scale(0.1 -0.1)">
      <use xlink:href="#DejaVuSans-73"/>
      <use x="29.492188" xlink:href="#DejaVuSans-116"/>
      <use x="68.701172" xlink:href="#DejaVuSans-101"/>
      <use x="130.224609" xlink:href="#DejaVuSans-114"/>
      <use x="171.337891" xlink:href="#DejaVuSans-97"/>
      <use x="232.617188" xlink:href="#DejaVuSans-116"/>
      <use x="271.826172" xlink:href="#DejaVuSans-105"/>
      <use x="299.609375" xlink:href="#DejaVuSans-111"/>
      <use x="360.791016" xlink:href="#DejaVuSans-110"/>
      <use x="424.169922" xlink:href="#DejaVuSans-32"/>
      <use x="455.957031" xlink:href="#DejaVuSans-50"/>
     </g>
    </g>
    <g id="line2d_47">
     <path d="M 527.4 91.692813 
L 547.4 91.692813 
" style="fill:none;stroke:#2ca02c;stroke-linecap:square;stroke-width:1.5;"/>
    </g>
    <g id="line2d_48"/>
    <g id="text_30">
     <!-- Iteration 1 -->
     <g transform="translate(555.4 95.192813)scale(0.1 -0.1)">
      <use xlink:href="#DejaVuSans-73"/>
      <use x="29.492188" xlink:href="#DejaVuSans-116"/>
      <use x="68.701172" xlink:href="#DejaVuSans-101"/>
      <use x="130.224609" xlink:href="#DejaVuSans-114"/>
      <use x="171.337891" xlink:href="#DejaVuSans-97"/>
      <use x="232.617188" xlink:href="#DejaVuSans-116"/>
      <use x="271.826172" xlink:href="#DejaVuSans-105"/>
      <use x="299.609375" xlink:href="#DejaVuSans-111"/>
      <use x="360.791016" xlink:href="#DejaVuSans-110"/>
      <use x="424.169922" xlink:href="#DejaVuSans-32"/>
      <use x="455.957031" xlink:href="#DejaVuSans-49"/>
     </g>
    </g>
    <g id="line2d_49">
     <path d="M 527.4 106.370937 
L 547.4 106.370937 
" style="fill:none;stroke:#d62728;stroke-linecap:square;stroke-width:1.5;"/>
    </g>
    <g id="line2d_50"/>
    <g id="text_31">
     <!-- Iteration 0 -->
     <g transform="translate(555.4 109.870937)scale(0.1 -0.1)">
      <use xlink:href="#DejaVuSans-73"/>
      <use x="29.492188" xlink:href="#DejaVuSans-116"/>
      <use x="68.701172" xlink:href="#DejaVuSans-101"/>
      <use x="130.224609" xlink:href="#DejaVuSans-114"/>
      <use x="171.337891" xlink:href="#DejaVuSans-97"/>
      <use x="232.617188" xlink:href="#DejaVuSans-116"/>
      <use x="271.826172" xlink:href="#DejaVuSans-105"/>
      <use x="299.609375" xlink:href="#DejaVuSans-111"/>
      <use x="360.791016" xlink:href="#DejaVuSans-110"/>
      <use x="424.169922" xlink:href="#DejaVuSans-32"/>
      <use x="455.957031" xlink:href="#DejaVuSans-48"/>
     </g>
    </g>
   </g>
  </g>
 </g>
 <defs>
  <clipPath id="p034f7ff14d">
   <rect height="217.44" width="202.909091" x="72" y="34.56"/>
  </clipPath>
  <clipPath id="p85f6d64e69">
   <rect height="217.44" width="202.909091" x="315.490909" y="34.56"/>
  </clipPath>
 </defs>
</svg>
