<?xml version="1.0" encoding="utf-8" standalone="no"?>
<!DOCTYPE svg PUBLIC "-//W3C//DTD SVG 1.1//EN"
  "http://www.w3.org/Graphics/SVG/1.1/DTD/svg11.dtd">
<!-- Created with matplotlib (https://matplotlib.org/) -->
<svg height="288pt" version="1.1" viewBox="0 0 720 288" width="720pt" xmlns="http://www.w3.org/2000/svg" xmlns:xlink="http://www.w3.org/1999/xlink">
 <defs>
  <style type="text/css">
*{stroke-linecap:butt;stroke-linejoin:round;}
  </style>
 </defs>
 <g id="figure_1">
  <g id="patch_1">
   <path d="M 0 288 
L 720 288 
L 720 0 
L 0 0 
z
" style="fill:#ffffff;"/>
  </g>
  <g id="axes_1">
   <g id="patch_2">
    <path d="M 44.425 242.4 
L 298.857812 242.4 
L 298.857812 14.695404 
L 44.425 14.695404 
z
" style="fill:#ffffff;"/>
   </g>
   <g id="matplotlib.axis_1">
    <g id="xtick_1">
     <g id="line2d_1">
      <defs>
       <path d="M 0 0 
L 0 3.5 
" id="m1486736208" style="stroke:#000000;stroke-width:0.8;"/>
      </defs>
      <g>
       <use style="stroke:#000000;stroke-width:0.8;" x="44.425" xlink:href="#m1486736208" y="242.4"/>
      </g>
     </g>
     <g id="text_1">
      <!-- 0.00 -->
      <defs>
       <path d="M 31.78125 66.40625 
Q 24.171875 66.40625 20.328125 58.90625 
Q 16.5 51.421875 16.5 36.375 
Q 16.5 21.390625 20.328125 13.890625 
Q 24.171875 6.390625 31.78125 6.390625 
Q 39.453125 6.390625 43.28125 13.890625 
Q 47.125 21.390625 47.125 36.375 
Q 47.125 51.421875 43.28125 58.90625 
Q 39.453125 66.40625 31.78125 66.40625 
z
M 31.78125 74.21875 
Q 44.046875 74.21875 50.515625 64.515625 
Q 56.984375 54.828125 56.984375 36.375 
Q 56.984375 17.96875 50.515625 8.265625 
Q 44.046875 -1.421875 31.78125 -1.421875 
Q 19.53125 -1.421875 13.0625 8.265625 
Q 6.59375 17.96875 6.59375 36.375 
Q 6.59375 54.828125 13.0625 64.515625 
Q 19.53125 74.21875 31.78125 74.21875 
z
" id="DejaVuSans-48"/>
       <path d="M 10.6875 12.40625 
L 21 12.40625 
L 21 0 
L 10.6875 0 
z
" id="DejaVuSans-46"/>
      </defs>
      <g transform="translate(33.292187 256.998438)scale(0.1 -0.1)">
       <use xlink:href="#DejaVuSans-48"/>
       <use x="63.623047" xlink:href="#DejaVuSans-46"/>
       <use x="95.410156" xlink:href="#DejaVuSans-48"/>
       <use x="159.033203" xlink:href="#DejaVuSans-48"/>
      </g>
     </g>
    </g>
    <g id="xtick_2">
     <g id="line2d_2">
      <g>
       <use style="stroke:#000000;stroke-width:0.8;" x="78.349375" xlink:href="#m1486736208" y="242.4"/>
      </g>
     </g>
     <g id="text_2">
      <!-- 0.02 -->
      <defs>
       <path d="M 19.1875 8.296875 
L 53.609375 8.296875 
L 53.609375 0 
L 7.328125 0 
L 7.328125 8.296875 
Q 12.9375 14.109375 22.625 23.890625 
Q 32.328125 33.6875 34.8125 36.53125 
Q 39.546875 41.84375 41.421875 45.53125 
Q 43.3125 49.21875 43.3125 52.78125 
Q 43.3125 58.59375 39.234375 62.25 
Q 35.15625 65.921875 28.609375 65.921875 
Q 23.96875 65.921875 18.8125 64.3125 
Q 13.671875 62.703125 7.8125 59.421875 
L 7.8125 69.390625 
Q 13.765625 71.78125 18.9375 73 
Q 24.125 74.21875 28.421875 74.21875 
Q 39.75 74.21875 46.484375 68.546875 
Q 53.21875 62.890625 53.21875 53.421875 
Q 53.21875 48.921875 51.53125 44.890625 
Q 49.859375 40.875 45.40625 35.40625 
Q 44.1875 33.984375 37.640625 27.21875 
Q 31.109375 20.453125 19.1875 8.296875 
z
" id="DejaVuSans-50"/>
      </defs>
      <g transform="translate(67.216562 256.998438)scale(0.1 -0.1)">
       <use xlink:href="#DejaVuSans-48"/>
       <use x="63.623047" xlink:href="#DejaVuSans-46"/>
       <use x="95.410156" xlink:href="#DejaVuSans-48"/>
       <use x="159.033203" xlink:href="#DejaVuSans-50"/>
      </g>
     </g>
    </g>
    <g id="xtick_3">
     <g id="line2d_3">
      <g>
       <use style="stroke:#000000;stroke-width:0.8;" x="112.27375" xlink:href="#m1486736208" y="242.4"/>
      </g>
     </g>
     <g id="text_3">
      <!-- 0.04 -->
      <defs>
       <path d="M 37.796875 64.3125 
L 12.890625 25.390625 
L 37.796875 25.390625 
z
M 35.203125 72.90625 
L 47.609375 72.90625 
L 47.609375 25.390625 
L 58.015625 25.390625 
L 58.015625 17.1875 
L 47.609375 17.1875 
L 47.609375 0 
L 37.796875 0 
L 37.796875 17.1875 
L 4.890625 17.1875 
L 4.890625 26.703125 
z
" id="DejaVuSans-52"/>
      </defs>
      <g transform="translate(101.140937 256.998438)scale(0.1 -0.1)">
       <use xlink:href="#DejaVuSans-48"/>
       <use x="63.623047" xlink:href="#DejaVuSans-46"/>
       <use x="95.410156" xlink:href="#DejaVuSans-48"/>
       <use x="159.033203" xlink:href="#DejaVuSans-52"/>
      </g>
     </g>
    </g>
    <g id="xtick_4">
     <g id="line2d_4">
      <g>
       <use style="stroke:#000000;stroke-width:0.8;" x="146.198125" xlink:href="#m1486736208" y="242.4"/>
      </g>
     </g>
     <g id="text_4">
      <!-- 0.06 -->
      <defs>
       <path d="M 33.015625 40.375 
Q 26.375 40.375 22.484375 35.828125 
Q 18.609375 31.296875 18.609375 23.390625 
Q 18.609375 15.53125 22.484375 10.953125 
Q 26.375 6.390625 33.015625 6.390625 
Q 39.65625 6.390625 43.53125 10.953125 
Q 47.40625 15.53125 47.40625 23.390625 
Q 47.40625 31.296875 43.53125 35.828125 
Q 39.65625 40.375 33.015625 40.375 
z
M 52.59375 71.296875 
L 52.59375 62.3125 
Q 48.875 64.0625 45.09375 64.984375 
Q 41.3125 65.921875 37.59375 65.921875 
Q 27.828125 65.921875 22.671875 59.328125 
Q 17.53125 52.734375 16.796875 39.40625 
Q 19.671875 43.65625 24.015625 45.921875 
Q 28.375 48.1875 33.59375 48.1875 
Q 44.578125 48.1875 50.953125 41.515625 
Q 57.328125 34.859375 57.328125 23.390625 
Q 57.328125 12.15625 50.6875 5.359375 
Q 44.046875 -1.421875 33.015625 -1.421875 
Q 20.359375 -1.421875 13.671875 8.265625 
Q 6.984375 17.96875 6.984375 36.375 
Q 6.984375 53.65625 15.1875 63.9375 
Q 23.390625 74.21875 37.203125 74.21875 
Q 40.921875 74.21875 44.703125 73.484375 
Q 48.484375 72.75 52.59375 71.296875 
z
" id="DejaVuSans-54"/>
      </defs>
      <g transform="translate(135.065312 256.998438)scale(0.1 -0.1)">
       <use xlink:href="#DejaVuSans-48"/>
       <use x="63.623047" xlink:href="#DejaVuSans-46"/>
       <use x="95.410156" xlink:href="#DejaVuSans-48"/>
       <use x="159.033203" xlink:href="#DejaVuSans-54"/>
      </g>
     </g>
    </g>
    <g id="xtick_5">
     <g id="line2d_5">
      <g>
       <use style="stroke:#000000;stroke-width:0.8;" x="180.1225" xlink:href="#m1486736208" y="242.4"/>
      </g>
     </g>
     <g id="text_5">
      <!-- 0.08 -->
      <defs>
       <path d="M 31.78125 34.625 
Q 24.75 34.625 20.71875 30.859375 
Q 16.703125 27.09375 16.703125 20.515625 
Q 16.703125 13.921875 20.71875 10.15625 
Q 24.75 6.390625 31.78125 6.390625 
Q 38.8125 6.390625 42.859375 10.171875 
Q 46.921875 13.96875 46.921875 20.515625 
Q 46.921875 27.09375 42.890625 30.859375 
Q 38.875 34.625 31.78125 34.625 
z
M 21.921875 38.8125 
Q 15.578125 40.375 12.03125 44.71875 
Q 8.5 49.078125 8.5 55.328125 
Q 8.5 64.0625 14.71875 69.140625 
Q 20.953125 74.21875 31.78125 74.21875 
Q 42.671875 74.21875 48.875 69.140625 
Q 55.078125 64.0625 55.078125 55.328125 
Q 55.078125 49.078125 51.53125 44.71875 
Q 48 40.375 41.703125 38.8125 
Q 48.828125 37.15625 52.796875 32.3125 
Q 56.78125 27.484375 56.78125 20.515625 
Q 56.78125 9.90625 50.3125 4.234375 
Q 43.84375 -1.421875 31.78125 -1.421875 
Q 19.734375 -1.421875 13.25 4.234375 
Q 6.78125 9.90625 6.78125 20.515625 
Q 6.78125 27.484375 10.78125 32.3125 
Q 14.796875 37.15625 21.921875 38.8125 
z
M 18.3125 54.390625 
Q 18.3125 48.734375 21.84375 45.5625 
Q 25.390625 42.390625 31.78125 42.390625 
Q 38.140625 42.390625 41.71875 45.5625 
Q 45.3125 48.734375 45.3125 54.390625 
Q 45.3125 60.0625 41.71875 63.234375 
Q 38.140625 66.40625 31.78125 66.40625 
Q 25.390625 66.40625 21.84375 63.234375 
Q 18.3125 60.0625 18.3125 54.390625 
z
" id="DejaVuSans-56"/>
      </defs>
      <g transform="translate(168.989688 256.998438)scale(0.1 -0.1)">
       <use xlink:href="#DejaVuSans-48"/>
       <use x="63.623047" xlink:href="#DejaVuSans-46"/>
       <use x="95.410156" xlink:href="#DejaVuSans-48"/>
       <use x="159.033203" xlink:href="#DejaVuSans-56"/>
      </g>
     </g>
    </g>
    <g id="xtick_6">
     <g id="line2d_6">
      <g>
       <use style="stroke:#000000;stroke-width:0.8;" x="214.046875" xlink:href="#m1486736208" y="242.4"/>
      </g>
     </g>
     <g id="text_6">
      <!-- 0.10 -->
      <defs>
       <path d="M 12.40625 8.296875 
L 28.515625 8.296875 
L 28.515625 63.921875 
L 10.984375 60.40625 
L 10.984375 69.390625 
L 28.421875 72.90625 
L 38.28125 72.90625 
L 38.28125 8.296875 
L 54.390625 8.296875 
L 54.390625 0 
L 12.40625 0 
z
" id="DejaVuSans-49"/>
      </defs>
      <g transform="translate(202.914062 256.998438)scale(0.1 -0.1)">
       <use xlink:href="#DejaVuSans-48"/>
       <use x="63.623047" xlink:href="#DejaVuSans-46"/>
       <use x="95.410156" xlink:href="#DejaVuSans-49"/>
       <use x="159.033203" xlink:href="#DejaVuSans-48"/>
      </g>
     </g>
    </g>
    <g id="xtick_7">
     <g id="line2d_7">
      <g>
       <use style="stroke:#000000;stroke-width:0.8;" x="247.97125" xlink:href="#m1486736208" y="242.4"/>
      </g>
     </g>
     <g id="text_7">
      <!-- 0.12 -->
      <g transform="translate(236.838437 256.998438)scale(0.1 -0.1)">
       <use xlink:href="#DejaVuSans-48"/>
       <use x="63.623047" xlink:href="#DejaVuSans-46"/>
       <use x="95.410156" xlink:href="#DejaVuSans-49"/>
       <use x="159.033203" xlink:href="#DejaVuSans-50"/>
      </g>
     </g>
    </g>
    <g id="xtick_8">
     <g id="line2d_8">
      <g>
       <use style="stroke:#000000;stroke-width:0.8;" x="281.895625" xlink:href="#m1486736208" y="242.4"/>
      </g>
     </g>
     <g id="text_8">
      <!-- 0.14 -->
      <g transform="translate(270.762812 256.998438)scale(0.1 -0.1)">
       <use xlink:href="#DejaVuSans-48"/>
       <use x="63.623047" xlink:href="#DejaVuSans-46"/>
       <use x="95.410156" xlink:href="#DejaVuSans-49"/>
       <use x="159.033203" xlink:href="#DejaVuSans-52"/>
      </g>
     </g>
    </g>
    <g id="text_9">
     <!-- $\theta_1$ -->
     <defs>
      <path d="M 45.515625 34.671875 
L 14.453125 34.671875 
Q 12.359375 20.0625 14.5 13.875 
Q 17.1875 6.25 24.46875 6.25 
Q 31.78125 6.25 37.359375 13.921875 
Q 42.234375 20.65625 45.515625 34.671875 
z
M 47.015625 42.96875 
Q 48.34375 56.84375 46.625 61.71875 
Q 43.953125 69.4375 36.765625 69.4375 
Q 29.296875 69.4375 23.828125 61.8125 
Q 19.53125 55.671875 16.15625 42.96875 
z
M 38.1875 76.765625 
Q 49.90625 76.765625 54.59375 66.40625 
Q 59.28125 56.109375 55.71875 37.84375 
Q 52.203125 19.625 43.453125 9.28125 
Q 34.765625 -1.125 23.046875 -1.125 
Q 11.28125 -1.125 6.640625 9.28125 
Q 2 19.625 5.515625 37.84375 
Q 9.078125 56.109375 17.71875 66.40625 
Q 26.421875 76.765625 38.1875 76.765625 
z
" id="DejaVuSans-Oblique-952"/>
     </defs>
     <g transform="translate(166.191406 270.676562)scale(0.1 -0.1)">
      <use transform="translate(0 0.234375)" xlink:href="#DejaVuSans-Oblique-952"/>
      <use transform="translate(61.181641 -16.171875)scale(0.7)" xlink:href="#DejaVuSans-49"/>
     </g>
    </g>
   </g>
   <g id="matplotlib.axis_2">
    <g id="ytick_1">
     <g id="line2d_9">
      <defs>
       <path d="M 0 0 
L -3.5 0 
" id="meed114b7e3" style="stroke:#000000;stroke-width:0.8;"/>
      </defs>
      <g>
       <use style="stroke:#000000;stroke-width:0.8;" x="44.425" xlink:href="#meed114b7e3" y="232.049791"/>
      </g>
     </g>
     <g id="text_10">
      <!-- 0 -->
      <g transform="translate(31.0625 235.84901)scale(0.1 -0.1)">
       <use xlink:href="#DejaVuSans-48"/>
      </g>
     </g>
    </g>
    <g id="ytick_2">
     <g id="line2d_10">
      <g>
       <use style="stroke:#000000;stroke-width:0.8;" x="44.425" xlink:href="#meed114b7e3" y="197.488368"/>
      </g>
     </g>
     <g id="text_11">
      <!-- 10 -->
      <g transform="translate(24.7 201.287587)scale(0.1 -0.1)">
       <use xlink:href="#DejaVuSans-49"/>
       <use x="63.623047" xlink:href="#DejaVuSans-48"/>
      </g>
     </g>
    </g>
    <g id="ytick_3">
     <g id="line2d_11">
      <g>
       <use style="stroke:#000000;stroke-width:0.8;" x="44.425" xlink:href="#meed114b7e3" y="162.926945"/>
      </g>
     </g>
     <g id="text_12">
      <!-- 20 -->
      <g transform="translate(24.7 166.726164)scale(0.1 -0.1)">
       <use xlink:href="#DejaVuSans-50"/>
       <use x="63.623047" xlink:href="#DejaVuSans-48"/>
      </g>
     </g>
    </g>
    <g id="ytick_4">
     <g id="line2d_12">
      <g>
       <use style="stroke:#000000;stroke-width:0.8;" x="44.425" xlink:href="#meed114b7e3" y="128.365522"/>
      </g>
     </g>
     <g id="text_13">
      <!-- 30 -->
      <defs>
       <path d="M 40.578125 39.3125 
Q 47.65625 37.796875 51.625 33 
Q 55.609375 28.21875 55.609375 21.1875 
Q 55.609375 10.40625 48.1875 4.484375 
Q 40.765625 -1.421875 27.09375 -1.421875 
Q 22.515625 -1.421875 17.65625 -0.515625 
Q 12.796875 0.390625 7.625 2.203125 
L 7.625 11.71875 
Q 11.71875 9.328125 16.59375 8.109375 
Q 21.484375 6.890625 26.8125 6.890625 
Q 36.078125 6.890625 40.9375 10.546875 
Q 45.796875 14.203125 45.796875 21.1875 
Q 45.796875 27.640625 41.28125 31.265625 
Q 36.765625 34.90625 28.71875 34.90625 
L 20.21875 34.90625 
L 20.21875 43.015625 
L 29.109375 43.015625 
Q 36.375 43.015625 40.234375 45.921875 
Q 44.09375 48.828125 44.09375 54.296875 
Q 44.09375 59.90625 40.109375 62.90625 
Q 36.140625 65.921875 28.71875 65.921875 
Q 24.65625 65.921875 20.015625 65.03125 
Q 15.375 64.15625 9.8125 62.3125 
L 9.8125 71.09375 
Q 15.4375 72.65625 20.34375 73.4375 
Q 25.25 74.21875 29.59375 74.21875 
Q 40.828125 74.21875 47.359375 69.109375 
Q 53.90625 64.015625 53.90625 55.328125 
Q 53.90625 49.265625 50.4375 45.09375 
Q 46.96875 40.921875 40.578125 39.3125 
z
" id="DejaVuSans-51"/>
      </defs>
      <g transform="translate(24.7 132.164741)scale(0.1 -0.1)">
       <use xlink:href="#DejaVuSans-51"/>
       <use x="63.623047" xlink:href="#DejaVuSans-48"/>
      </g>
     </g>
    </g>
    <g id="ytick_5">
     <g id="line2d_13">
      <g>
       <use style="stroke:#000000;stroke-width:0.8;" x="44.425" xlink:href="#meed114b7e3" y="93.804099"/>
      </g>
     </g>
     <g id="text_14">
      <!-- 40 -->
      <g transform="translate(24.7 97.603318)scale(0.1 -0.1)">
       <use xlink:href="#DejaVuSans-52"/>
       <use x="63.623047" xlink:href="#DejaVuSans-48"/>
      </g>
     </g>
    </g>
    <g id="ytick_6">
     <g id="line2d_14">
      <g>
       <use style="stroke:#000000;stroke-width:0.8;" x="44.425" xlink:href="#meed114b7e3" y="59.242676"/>
      </g>
     </g>
     <g id="text_15">
      <!-- 50 -->
      <defs>
       <path d="M 10.796875 72.90625 
L 49.515625 72.90625 
L 49.515625 64.59375 
L 19.828125 64.59375 
L 19.828125 46.734375 
Q 21.96875 47.46875 24.109375 47.828125 
Q 26.265625 48.1875 28.421875 48.1875 
Q 40.625 48.1875 47.75 41.5 
Q 54.890625 34.8125 54.890625 23.390625 
Q 54.890625 11.625 47.5625 5.09375 
Q 40.234375 -1.421875 26.90625 -1.421875 
Q 22.3125 -1.421875 17.546875 -0.640625 
Q 12.796875 0.140625 7.71875 1.703125 
L 7.71875 11.625 
Q 12.109375 9.234375 16.796875 8.0625 
Q 21.484375 6.890625 26.703125 6.890625 
Q 35.15625 6.890625 40.078125 11.328125 
Q 45.015625 15.765625 45.015625 23.390625 
Q 45.015625 31 40.078125 35.4375 
Q 35.15625 39.890625 26.703125 39.890625 
Q 22.75 39.890625 18.8125 39.015625 
Q 14.890625 38.140625 10.796875 36.28125 
z
" id="DejaVuSans-53"/>
      </defs>
      <g transform="translate(24.7 63.041895)scale(0.1 -0.1)">
       <use xlink:href="#DejaVuSans-53"/>
       <use x="63.623047" xlink:href="#DejaVuSans-48"/>
      </g>
     </g>
    </g>
    <g id="ytick_7">
     <g id="line2d_15">
      <g>
       <use style="stroke:#000000;stroke-width:0.8;" x="44.425" xlink:href="#meed114b7e3" y="24.681253"/>
      </g>
     </g>
     <g id="text_16">
      <!-- 60 -->
      <g transform="translate(24.7 28.480472)scale(0.1 -0.1)">
       <use xlink:href="#DejaVuSans-54"/>
       <use x="63.623047" xlink:href="#DejaVuSans-48"/>
      </g>
     </g>
    </g>
    <g id="text_17">
     <!-- Posterior -->
     <defs>
      <path d="M 19.671875 64.796875 
L 19.671875 37.40625 
L 32.078125 37.40625 
Q 38.96875 37.40625 42.71875 40.96875 
Q 46.484375 44.53125 46.484375 51.125 
Q 46.484375 57.671875 42.71875 61.234375 
Q 38.96875 64.796875 32.078125 64.796875 
z
M 9.8125 72.90625 
L 32.078125 72.90625 
Q 44.34375 72.90625 50.609375 67.359375 
Q 56.890625 61.8125 56.890625 51.125 
Q 56.890625 40.328125 50.609375 34.8125 
Q 44.34375 29.296875 32.078125 29.296875 
L 19.671875 29.296875 
L 19.671875 0 
L 9.8125 0 
z
" id="DejaVuSans-80"/>
      <path d="M 30.609375 48.390625 
Q 23.390625 48.390625 19.1875 42.75 
Q 14.984375 37.109375 14.984375 27.296875 
Q 14.984375 17.484375 19.15625 11.84375 
Q 23.34375 6.203125 30.609375 6.203125 
Q 37.796875 6.203125 41.984375 11.859375 
Q 46.1875 17.53125 46.1875 27.296875 
Q 46.1875 37.015625 41.984375 42.703125 
Q 37.796875 48.390625 30.609375 48.390625 
z
M 30.609375 56 
Q 42.328125 56 49.015625 48.375 
Q 55.71875 40.765625 55.71875 27.296875 
Q 55.71875 13.875 49.015625 6.21875 
Q 42.328125 -1.421875 30.609375 -1.421875 
Q 18.84375 -1.421875 12.171875 6.21875 
Q 5.515625 13.875 5.515625 27.296875 
Q 5.515625 40.765625 12.171875 48.375 
Q 18.84375 56 30.609375 56 
z
" id="DejaVuSans-111"/>
      <path d="M 44.28125 53.078125 
L 44.28125 44.578125 
Q 40.484375 46.53125 36.375 47.5 
Q 32.28125 48.484375 27.875 48.484375 
Q 21.1875 48.484375 17.84375 46.4375 
Q 14.5 44.390625 14.5 40.28125 
Q 14.5 37.15625 16.890625 35.375 
Q 19.28125 33.59375 26.515625 31.984375 
L 29.59375 31.296875 
Q 39.15625 29.25 43.1875 25.515625 
Q 47.21875 21.78125 47.21875 15.09375 
Q 47.21875 7.46875 41.1875 3.015625 
Q 35.15625 -1.421875 24.609375 -1.421875 
Q 20.21875 -1.421875 15.453125 -0.5625 
Q 10.6875 0.296875 5.421875 2 
L 5.421875 11.28125 
Q 10.40625 8.6875 15.234375 7.390625 
Q 20.0625 6.109375 24.8125 6.109375 
Q 31.15625 6.109375 34.5625 8.28125 
Q 37.984375 10.453125 37.984375 14.40625 
Q 37.984375 18.0625 35.515625 20.015625 
Q 33.0625 21.96875 24.703125 23.78125 
L 21.578125 24.515625 
Q 13.234375 26.265625 9.515625 29.90625 
Q 5.8125 33.546875 5.8125 39.890625 
Q 5.8125 47.609375 11.28125 51.796875 
Q 16.75 56 26.8125 56 
Q 31.78125 56 36.171875 55.265625 
Q 40.578125 54.546875 44.28125 53.078125 
z
" id="DejaVuSans-115"/>
      <path d="M 18.3125 70.21875 
L 18.3125 54.6875 
L 36.8125 54.6875 
L 36.8125 47.703125 
L 18.3125 47.703125 
L 18.3125 18.015625 
Q 18.3125 11.328125 20.140625 9.421875 
Q 21.96875 7.515625 27.59375 7.515625 
L 36.8125 7.515625 
L 36.8125 0 
L 27.59375 0 
Q 17.1875 0 13.234375 3.875 
Q 9.28125 7.765625 9.28125 18.015625 
L 9.28125 47.703125 
L 2.6875 47.703125 
L 2.6875 54.6875 
L 9.28125 54.6875 
L 9.28125 70.21875 
z
" id="DejaVuSans-116"/>
      <path d="M 56.203125 29.59375 
L 56.203125 25.203125 
L 14.890625 25.203125 
Q 15.484375 15.921875 20.484375 11.0625 
Q 25.484375 6.203125 34.421875 6.203125 
Q 39.59375 6.203125 44.453125 7.46875 
Q 49.3125 8.734375 54.109375 11.28125 
L 54.109375 2.78125 
Q 49.265625 0.734375 44.1875 -0.34375 
Q 39.109375 -1.421875 33.890625 -1.421875 
Q 20.796875 -1.421875 13.15625 6.1875 
Q 5.515625 13.8125 5.515625 26.8125 
Q 5.515625 40.234375 12.765625 48.109375 
Q 20.015625 56 32.328125 56 
Q 43.359375 56 49.78125 48.890625 
Q 56.203125 41.796875 56.203125 29.59375 
z
M 47.21875 32.234375 
Q 47.125 39.59375 43.09375 43.984375 
Q 39.0625 48.390625 32.421875 48.390625 
Q 24.90625 48.390625 20.390625 44.140625 
Q 15.875 39.890625 15.1875 32.171875 
z
" id="DejaVuSans-101"/>
      <path d="M 41.109375 46.296875 
Q 39.59375 47.171875 37.8125 47.578125 
Q 36.03125 48 33.890625 48 
Q 26.265625 48 22.1875 43.046875 
Q 18.109375 38.09375 18.109375 28.8125 
L 18.109375 0 
L 9.078125 0 
L 9.078125 54.6875 
L 18.109375 54.6875 
L 18.109375 46.1875 
Q 20.953125 51.171875 25.484375 53.578125 
Q 30.03125 56 36.53125 56 
Q 37.453125 56 38.578125 55.875 
Q 39.703125 55.765625 41.0625 55.515625 
z
" id="DejaVuSans-114"/>
      <path d="M 9.421875 54.6875 
L 18.40625 54.6875 
L 18.40625 0 
L 9.421875 0 
z
M 9.421875 75.984375 
L 18.40625 75.984375 
L 18.40625 64.59375 
L 9.421875 64.59375 
z
" id="DejaVuSans-105"/>
     </defs>
     <g transform="translate(18.620312 150.820358)rotate(-90)scale(0.1 -0.1)">
      <use xlink:href="#DejaVuSans-80"/>
      <use x="60.255859" xlink:href="#DejaVuSans-111"/>
      <use x="121.4375" xlink:href="#DejaVuSans-115"/>
      <use x="173.537109" xlink:href="#DejaVuSans-116"/>
      <use x="212.746094" xlink:href="#DejaVuSans-101"/>
      <use x="274.269531" xlink:href="#DejaVuSans-114"/>
      <use x="315.382812" xlink:href="#DejaVuSans-105"/>
      <use x="343.166016" xlink:href="#DejaVuSans-111"/>
      <use x="404.347656" xlink:href="#DejaVuSans-114"/>
     </g>
    </g>
   </g>
   <g id="line2d_16">
    <path clip-path="url(#p12531cfbac)" d="M 44.425 232.049791 
L 46.995028 232.049791 
L 49.565057 232.049791 
L 52.135085 232.049791 
L 54.705114 232.049791 
L 57.275142 232.049791 
L 59.84517 232.049791 
L 62.415199 232.049791 
L 64.985227 232.049791 
L 67.555256 232.049791 
L 70.125284 232.049791 
L 72.695312 232.049791 
L 75.265341 232.049791 
L 77.835369 232.049791 
L 80.405398 232.049789 
L 82.975426 232.049753 
L 85.545455 232.049489 
L 88.115483 232.048527 
L 90.685511 232.045078 
L 93.25554 232.033676 
L 95.825568 231.998737 
L 98.395597 231.898924 
L 100.965625 231.631976 
L 103.535653 230.961545 
L 106.105682 229.377094 
L 108.67571 225.848642 
L 111.245739 218.440618 
L 113.815767 203.801703 
L 116.385795 176.863839 
L 118.955824 132.750689 
L 121.525852 79.054907 
L 124.095881 45.240394 
L 126.665909 30.020431 
L 129.235937 25.512908 
L 131.805966 28.070784 
L 134.375994 35.505497 
L 136.946023 46.144709 
L 139.516051 58.104634 
L 142.08608 70.392446 
L 144.656108 98.707957 
L 147.226136 141.026363 
L 149.796165 170.260311 
L 152.366193 190.320124 
L 154.936222 204.165304 
L 157.50625 213.713852 
L 160.076278 220.202222 
L 162.646307 224.505042 
L 165.216335 227.268988 
L 167.786364 229.015958 
L 170.356392 230.114617 
L 172.92642 230.806292 
L 175.496449 231.243766 
L 178.066477 231.522347 
L 180.636506 231.701192 
L 183.206534 231.817037 
L 185.776562 231.892783 
L 188.346591 231.942789 
L 190.916619 231.976125 
L 193.486648 231.998566 
L 196.056676 232.01382 
L 198.626705 232.024287 
L 201.196733 232.031538 
L 203.766761 232.036607 
L 206.33679 232.040183 
L 208.906818 232.042728 
L 211.476847 232.044554 
L 214.046875 232.045877 
L 216.616903 232.046842 
L 219.186932 232.047551 
L 221.75696 232.048077 
L 224.326989 232.04847 
L 226.897017 232.048766 
L 229.467045 232.04899 
L 232.037074 232.049161 
L 234.607102 232.049292 
L 237.177131 232.049393 
L 239.747159 232.049472 
L 242.317187 232.049534 
L 244.887216 232.049583 
L 247.457244 232.049621 
L 250.027273 232.049652 
L 252.597301 232.049676 
L 255.16733 232.049696 
L 257.737358 232.049712 
L 260.307386 232.049725 
L 262.877415 232.049735 
L 265.447443 232.049744 
L 268.017472 232.049751 
L 270.5875 232.049757 
L 273.157528 232.049762 
L 275.727557 232.049766 
L 278.297585 232.04977 
L 280.867614 232.049773 
L 283.437642 232.049775 
L 286.00767 232.049777 
L 288.577699 232.049779 
L 291.147727 232.04978 
L 293.717756 232.049782 
L 296.287784 232.049783 
L 298.857812 232.049784 
" style="fill:none;stroke:#808080;stroke-dasharray:5.55,2.4;stroke-dashoffset:0;stroke-width:1.5;"/>
   </g>
   <g id="line2d_17">
    <path clip-path="url(#p12531cfbac)" d="M 44.425 232.049791 
L 46.995028 232.049791 
L 49.565057 232.049791 
L 52.135085 232.049791 
L 54.705114 232.049791 
L 57.275142 232.049791 
L 59.84517 232.049791 
L 62.415199 232.049791 
L 64.985227 232.049791 
L 67.555256 232.049791 
L 70.125284 232.049791 
L 72.695312 232.049791 
L 75.265341 232.049791 
L 77.835369 232.049791 
L 80.405398 232.049791 
L 82.975426 232.049791 
L 85.545455 232.049791 
L 88.115483 232.049791 
L 90.685511 232.049791 
L 93.25554 232.04979 
L 95.825568 232.049728 
L 98.395597 232.047789 
L 100.965625 232.015424 
L 103.535653 231.719643 
L 106.105682 230.179128 
L 108.67571 225.354092 
L 111.245739 215.602581 
L 113.815767 200.767142 
L 116.385795 178.817823 
L 118.955824 147.291451 
L 121.525852 109.977946 
L 124.095881 71.988358 
L 126.665909 40.137343 
L 129.235937 25.197177 
L 131.805966 25.045613 
L 134.375994 28.703722 
L 136.946023 35.311756 
L 139.516051 49.437167 
L 142.08608 73.060008 
L 144.656108 103.389167 
L 147.226136 136.604253 
L 149.796165 168.063811 
L 152.366193 188.691794 
L 154.936222 198.53666 
L 157.50625 206.184472 
L 160.076278 213.441576 
L 162.646307 219.48131 
L 165.216335 224.55108 
L 167.786364 226.843843 
L 170.356392 225.307211 
L 172.92642 224.134631 
L 175.496449 226.799067 
L 178.066477 230.22097 
L 180.636506 231.718118 
L 183.206534 232.018499 
L 185.776562 232.048255 
L 188.346591 232.049752 
L 190.916619 232.049791 
L 193.486648 232.049791 
L 196.056676 232.049791 
L 198.626705 232.049791 
L 201.196733 232.049791 
L 203.766761 232.049791 
L 206.33679 232.049791 
L 208.906818 232.049791 
L 211.476847 232.049791 
L 214.046875 232.049791 
L 216.616903 232.049791 
L 219.186932 232.049791 
L 221.75696 232.049791 
L 224.326989 232.049791 
L 226.897017 232.049791 
L 229.467045 232.049791 
L 232.037074 232.049791 
L 234.607102 232.049791 
L 237.177131 232.049791 
L 239.747159 232.049791 
L 242.317187 232.049791 
L 244.887216 232.049791 
L 247.457244 232.049791 
L 250.027273 232.049791 
L 252.597301 232.049791 
L 255.16733 232.049791 
L 257.737358 232.049791 
L 260.307386 232.049791 
L 262.877415 232.049791 
L 265.447443 232.049791 
L 268.017472 232.049791 
L 270.5875 232.049791 
L 273.157528 232.049791 
L 275.727557 232.049791 
L 278.297585 232.049791 
L 280.867614 232.049791 
L 283.437642 232.049791 
L 286.00767 232.049791 
L 288.577699 232.049791 
L 291.147727 232.049791 
L 293.717756 232.049791 
L 296.287784 232.049791 
L 298.857812 232.049791 
" style="fill:none;stroke:#1f77b4;stroke-linecap:square;stroke-width:1.5;"/>
   </g>
   <g id="line2d_18">
    <path clip-path="url(#p12531cfbac)" d="M 146.198125 242.4 
L 146.198125 14.695404 
" style="fill:none;stroke:#808080;stroke-dasharray:1.5,2.475;stroke-dashoffset:0;stroke-width:1.5;"/>
   </g>
   <g id="line2d_19">
    <path clip-path="url(#p12531cfbac)" d="M 44.425 232.049791 
L 46.995028 232.049791 
L 49.565057 232.049791 
L 52.135085 232.049791 
L 54.705114 232.049791 
L 57.275142 232.049791 
L 59.84517 232.049791 
L 62.415199 232.049791 
L 64.985227 232.049791 
L 67.555256 232.049791 
L 70.125284 232.049791 
L 72.695312 232.049791 
L 75.265341 232.049791 
L 77.835369 232.049791 
L 80.405398 232.04979 
L 82.975426 232.049758 
L 85.545455 232.049237 
L 88.115483 232.043754 
L 90.685511 232.005851 
L 93.25554 231.832095 
L 95.825568 231.292949 
L 98.395597 230.114288 
L 100.965625 228.142182 
L 103.535653 225.184302 
L 106.105682 220.444334 
L 108.67571 212.278187 
L 111.245739 198.811888 
L 113.815767 179.173143 
L 116.385795 154.874473 
L 118.955824 129.763662 
L 121.525852 107.821478 
L 124.095881 91.567762 
L 126.665909 81.559976 
L 129.235937 75.935406 
L 131.805966 72.535924 
L 134.375994 71.84102 
L 136.946023 75.260908 
L 139.516051 82.291192 
L 142.08608 92.747004 
L 144.656108 108.171411 
L 147.226136 127.486628 
L 149.796165 146.348544 
L 152.366193 162.394465 
L 154.936222 176.245996 
L 157.50625 188.436541 
L 160.076278 198.598271 
L 162.646307 206.641252 
L 165.216335 213.101167 
L 167.786364 218.335132 
L 170.356392 222.040342 
L 172.92642 223.784471 
L 175.496449 223.903675 
L 178.066477 223.680846 
L 180.636506 224.369787 
L 183.206534 225.9407 
L 185.776562 227.556337 
L 188.346591 228.989271 
L 190.916619 230.347068 
L 193.486648 231.3668 
L 196.056676 231.864524 
L 198.626705 232.016657 
L 201.196733 232.045921 
L 203.766761 232.049497 
L 206.33679 232.049777 
L 208.906818 232.049791 
L 211.476847 232.049791 
L 214.046875 232.049791 
L 216.616903 232.049791 
L 219.186932 232.049791 
L 221.75696 232.049791 
L 224.326989 232.049791 
L 226.897017 232.049791 
L 229.467045 232.049791 
L 232.037074 232.049791 
L 234.607102 232.049791 
L 237.177131 232.049791 
L 239.747159 232.049791 
L 242.317187 232.049791 
L 244.887216 232.049791 
L 247.457244 232.049791 
L 250.027273 232.049791 
L 252.597301 232.049791 
L 255.16733 232.049791 
L 257.737358 232.049791 
L 260.307386 232.049791 
L 262.877415 232.049791 
L 265.447443 232.049791 
L 268.017472 232.049791 
L 270.5875 232.049791 
L 273.157528 232.049791 
L 275.727557 232.049791 
L 278.297585 232.049791 
L 280.867614 232.049791 
L 283.437642 232.049791 
L 286.00767 232.049791 
L 288.577699 232.049791 
L 291.147727 232.049791 
L 293.717756 232.049791 
L 296.287784 232.049791 
L 298.857812 232.049791 
" style="fill:none;stroke:#ff7f0e;stroke-linecap:square;stroke-width:1.5;"/>
   </g>
   <g id="line2d_20">
    <path clip-path="url(#p12531cfbac)" d="M 146.198125 242.4 
L 146.198125 14.695404 
" style="fill:none;stroke:#808080;stroke-dasharray:1.5,2.475;stroke-dashoffset:0;stroke-width:1.5;"/>
   </g>
   <g id="line2d_21">
    <path clip-path="url(#p12531cfbac)" d="M 44.425 232.039473 
L 46.995028 232.030738 
L 49.565057 232.015601 
L 52.135085 231.990144 
L 54.705114 231.948569 
L 57.275142 231.8826 
L 59.84517 231.780831 
L 62.415199 231.628075 
L 64.985227 231.404795 
L 67.555256 231.086677 
L 70.125284 230.644427 
L 72.695312 230.043849 
L 75.265341 229.246238 
L 77.835369 228.209116 
L 80.405398 226.887344 
L 82.975426 225.234667 
L 85.545455 223.20574 
L 88.115483 220.758741 
L 90.685511 217.858597 
L 93.25554 214.480803 
L 95.825568 210.61565 
L 98.395597 206.272518 
L 100.965625 201.483741 
L 103.535653 196.307438 
L 106.105682 190.828738 
L 108.67571 185.158909 
L 111.245739 179.432154 
L 113.815767 173.800069 
L 116.385795 168.424043 
L 118.955824 163.466124 
L 121.525852 159.079087 
L 124.095881 155.396574 
L 126.665909 152.524288 
L 129.235937 150.533226 
L 131.805966 149.455796 
L 134.375994 149.285385 
L 136.946023 149.979473 
L 139.516051 151.465853 
L 142.08608 153.650946 
L 144.656108 156.428871 
L 147.226136 159.689827 
L 149.796165 163.32662 
L 152.366193 167.238728 
L 154.936222 171.333956 
L 157.50625 175.528331 
L 160.076278 179.745233 
L 162.646307 183.914755 
L 165.216335 187.973936 
L 167.786364 191.868052 
L 170.356392 195.552577 
L 172.92642 198.995136 
L 175.496449 202.1767 
L 178.066477 205.091439 
L 180.636506 207.745097 
L 183.206534 210.152108 
L 185.776562 212.33205 
L 188.346591 214.30612 
L 190.916619 216.094253 
L 193.486648 217.713271 
L 196.056676 219.176146 
L 198.626705 220.492209 
L 201.196733 221.667997 
L 203.766761 222.70837 
L 206.33679 223.61764 
L 208.906818 224.400536 
L 211.476847 225.062935 
L 214.046875 225.612358 
L 216.616903 226.058246 
L 219.186932 226.41202 
L 221.75696 226.686928 
L 224.326989 226.897684 
L 226.897017 227.059953 
L 229.467045 227.189731 
L 232.037074 227.302722 
L 234.607102 227.413744 
L 237.177131 227.536196 
L 239.747159 227.681561 
L 242.317187 227.858882 
L 244.887216 228.074219 
L 247.457244 228.330122 
L 250.027273 228.625228 
L 252.597301 228.954169 
L 255.16733 229.307909 
L 257.737358 229.674583 
L 260.307386 230.040777 
L 262.877415 230.393053 
L 265.447443 230.719466 
L 268.017472 231.010789 
L 270.5875 231.26125 
L 273.157528 231.468706 
L 275.727557 231.634286 
L 278.297585 231.761654 
L 280.867614 231.856099 
L 283.437642 231.923621 
L 286.00767 231.970175 
L 288.577699 232.001135 
L 291.147727 232.020999 
L 293.717756 232.033296 
L 296.287784 232.040644 
L 298.857812 232.044881 
" style="fill:none;stroke:#2ca02c;stroke-linecap:square;stroke-width:1.5;"/>
   </g>
   <g id="line2d_22">
    <path clip-path="url(#p12531cfbac)" d="M 146.198125 242.4 
L 146.198125 14.695404 
" style="fill:none;stroke:#808080;stroke-dasharray:1.5,2.475;stroke-dashoffset:0;stroke-width:1.5;"/>
   </g>
   <g id="line2d_23">
    <path clip-path="url(#p12531cfbac)" d="M 44.425 231.144347 
L 46.995028 230.932577 
L 49.565057 230.681183 
L 52.135085 230.385165 
L 54.705114 230.039419 
L 57.275142 229.638849 
L 59.84517 229.178505 
L 62.415199 228.653731 
L 64.985227 228.060336 
L 67.555256 227.39476 
L 70.125284 226.654256 
L 72.695312 225.837061 
L 75.265341 224.942558 
L 77.835369 223.971419 
L 80.405398 222.92572 
L 82.975426 221.809026 
L 85.545455 220.626434 
L 88.115483 219.384576 
L 90.685511 218.091565 
L 93.25554 216.756907 
L 95.825568 215.391358 
L 98.395597 214.006733 
L 100.965625 212.615684 
L 103.535653 211.231443 
L 106.105682 209.867545 
L 108.67571 208.537524 
L 111.245739 207.254626 
L 113.815767 206.031513 
L 116.385795 204.879985 
L 118.955824 203.810738 
L 121.525852 202.833144 
L 124.095881 201.955077 
L 126.665909 201.182782 
L 129.235937 200.520792 
L 131.805966 199.971895 
L 134.375994 199.537145 
L 136.946023 199.215923 
L 139.516051 199.006037 
L 142.08608 198.903857 
L 144.656108 198.904486 
L 147.226136 199.001951 
L 149.796165 199.189407 
L 152.366193 199.45936 
L 154.936222 199.80388 
L 157.50625 200.214813 
L 160.076278 200.683987 
L 162.646307 201.203385 
L 165.216335 201.765305 
L 167.786364 202.362489 
L 170.356392 202.988222 
L 172.92642 203.63639 
L 175.496449 204.301523 
L 178.066477 204.978788 
L 180.636506 205.663968 
L 183.206534 206.353406 
L 185.776562 207.043937 
L 188.346591 207.732802 
L 190.916619 208.41756 
L 193.486648 209.095987 
L 196.056676 209.765996 
L 198.626705 210.425554 
L 201.196733 211.072625 
L 203.766761 211.705127 
L 206.33679 212.320909 
L 208.906818 212.917762 
L 211.476847 213.493439 
L 214.046875 214.045707 
L 216.616903 214.572408 
L 219.186932 215.071536 
L 221.75696 215.541326 
L 224.326989 215.980332 
L 226.897017 216.387513 
L 229.467045 216.762298 
L 232.037074 217.104641 
L 234.607102 217.415051 
L 237.177131 217.694601 
L 239.747159 217.94491 
L 242.317187 218.168108 
L 244.887216 218.366766 
L 247.457244 218.543818 
L 250.027273 218.702463 
L 252.597301 218.846058 
L 255.16733 218.978005 
L 257.737358 219.101649 
L 260.307386 219.220168 
L 262.877415 219.336486 
L 265.447443 219.453198 
L 268.017472 219.57251 
L 270.5875 219.6962 
L 273.157528 219.825598 
L 275.727557 219.961581 
L 278.297585 220.10459 
L 280.867614 220.25465 
L 283.437642 220.411416 
L 286.00767 220.574209 
L 288.577699 220.742074 
L 291.147727 220.913829 
L 293.717756 221.088118 
L 296.287784 221.263463 
L 298.857812 221.438316 
" style="fill:none;stroke:#d62728;stroke-linecap:square;stroke-width:1.5;"/>
   </g>
   <g id="line2d_24">
    <path clip-path="url(#p12531cfbac)" d="M 146.198125 242.4 
L 146.198125 14.695404 
" style="fill:none;stroke:#808080;stroke-dasharray:1.5,2.475;stroke-dashoffset:0;stroke-width:1.5;"/>
   </g>
   <g id="line2d_25">
    <path clip-path="url(#p12531cfbac)" d="M 44.425 230.343898 
L 46.995028 230.123661 
L 49.565057 229.883776 
L 52.135085 229.623737 
L 54.705114 229.343193 
L 57.275142 229.041961 
L 59.84517 228.720041 
L 62.415199 228.377625 
L 64.985227 228.015111 
L 67.555256 227.633101 
L 70.125284 227.232411 
L 72.695312 226.814064 
L 75.265341 226.379285 
L 77.835369 225.929496 
L 80.405398 225.4663 
L 82.975426 224.991466 
L 85.545455 224.506913 
L 88.115483 224.014689 
L 90.685511 223.516944 
L 93.25554 223.015911 
L 95.825568 222.51388 
L 98.395597 222.013166 
L 100.965625 221.516094 
L 103.535653 221.024961 
L 106.105682 220.542024 
L 108.67571 220.069465 
L 111.245739 219.609379 
L 113.815767 219.163745 
L 116.385795 218.734416 
L 118.955824 218.323097 
L 121.525852 217.931333 
L 124.095881 217.560496 
L 126.665909 217.21178 
L 129.235937 216.886185 
L 131.805966 216.58452 
L 134.375994 216.307393 
L 136.946023 216.055214 
L 139.516051 215.828193 
L 142.08608 215.626344 
L 144.656108 215.449486 
L 147.226136 215.297254 
L 149.796165 215.169099 
L 152.366193 215.064305 
L 154.936222 214.981994 
L 157.50625 214.921139 
L 160.076278 214.880581 
L 162.646307 214.859038 
L 165.216335 214.855125 
L 167.786364 214.867368 
L 170.356392 214.894225 
L 172.92642 214.934098 
L 175.496449 214.985358 
L 178.066477 215.046362 
L 180.636506 215.115468 
L 183.206534 215.19106 
L 185.776562 215.271561 
L 188.346591 215.355455 
L 190.916619 215.441301 
L 193.486648 215.527748 
L 196.056676 215.613553 
L 198.626705 215.697593 
L 201.196733 215.778874 
L 203.766761 215.85654 
L 206.33679 215.929884 
L 208.906818 215.998348 
L 211.476847 216.061528 
L 214.046875 216.11917 
L 216.616903 216.171169 
L 219.186932 216.217563 
L 221.75696 216.258521 
L 224.326989 216.294337 
L 226.897017 216.325407 
L 229.467045 216.352224 
L 232.037074 216.375353 
L 234.607102 216.395414 
L 237.177131 216.413064 
L 239.747159 216.428978 
L 242.317187 216.443828 
L 244.887216 216.458268 
L 247.457244 216.472916 
L 250.027273 216.48834 
L 252.597301 216.505052 
L 255.16733 216.523491 
L 257.737358 216.544027 
L 260.307386 216.566955 
L 262.877415 216.592497 
L 265.447443 216.620808 
L 268.017472 216.651983 
L 270.5875 216.686067 
L 273.157528 216.723064 
L 275.727557 216.762954 
L 278.297585 216.805701 
L 280.867614 216.851268 
L 283.437642 216.899628 
L 286.00767 216.95077 
L 288.577699 217.00471 
L 291.147727 217.061495 
L 293.717756 217.1212 
L 296.287784 217.183933 
L 298.857812 217.249824 
" style="fill:none;stroke:#9467bd;stroke-linecap:square;stroke-width:1.5;"/>
   </g>
   <g id="line2d_26">
    <path clip-path="url(#p12531cfbac)" d="M 146.198125 242.4 
L 146.198125 14.695404 
" style="fill:none;stroke:#808080;stroke-dasharray:1.5,2.475;stroke-dashoffset:0;stroke-width:1.5;"/>
   </g>
   <g id="line2d_27">
    <path clip-path="url(#p12531cfbac)" d="M 44.425 230.418073 
L 46.995028 230.235677 
L 49.565057 230.039817 
L 52.135085 229.830369 
L 54.705114 229.607316 
L 57.275142 229.370751 
L 59.84517 229.12088 
L 62.415199 228.858028 
L 64.985227 228.582638 
L 67.555256 228.295271 
L 70.125284 227.996601 
L 72.695312 227.687414 
L 75.265341 227.368597 
L 77.835369 227.04113 
L 80.405398 226.70608 
L 82.975426 226.364581 
L 85.545455 226.017829 
L 88.115483 225.667064 
L 90.685511 225.313555 
L 93.25554 224.958586 
L 95.825568 224.603442 
L 98.395597 224.249392 
L 100.965625 223.897677 
L 103.535653 223.549493 
L 106.105682 223.205985 
L 108.67571 222.868228 
L 111.245739 222.537223 
L 113.815767 222.213888 
L 116.385795 221.89905 
L 118.955824 221.593438 
L 121.525852 221.297687 
L 124.095881 221.012326 
L 126.665909 220.737787 
L 129.235937 220.4744 
L 131.805966 220.222399 
L 134.375994 219.981922 
L 136.946023 219.75302 
L 139.516051 219.535656 
L 142.08608 219.329717 
L 144.656108 219.135018 
L 147.226136 218.951307 
L 149.796165 218.778276 
L 152.366193 218.615565 
L 154.936222 218.462771 
L 157.50625 218.319455 
L 160.076278 218.185151 
L 162.646307 218.059372 
L 165.216335 217.941618 
L 167.786364 217.831382 
L 170.356392 217.72816 
L 172.92642 217.631456 
L 175.496449 217.54079 
L 178.066477 217.455702 
L 180.636506 217.375763 
L 183.206534 217.300575 
L 185.776562 217.229782 
L 188.346591 217.163071 
L 190.916619 217.100175 
L 193.486648 217.040881 
L 196.056676 216.985025 
L 198.626705 216.9325 
L 201.196733 216.88325 
L 203.766761 216.83727 
L 206.33679 216.794605 
L 208.906818 216.755343 
L 211.476847 216.71961 
L 214.046875 216.687564 
L 216.616903 216.659386 
L 219.186932 216.635272 
L 221.75696 216.615425 
L 224.326989 216.60004 
L 226.897017 216.589302 
L 229.467045 216.583369 
L 232.037074 216.582369 
L 234.607102 216.586388 
L 237.177131 216.595467 
L 239.747159 216.609593 
L 242.317187 216.628696 
L 244.887216 216.652652 
L 247.457244 216.681277 
L 250.027273 216.714332 
L 252.597301 216.751529 
L 255.16733 216.792534 
L 257.737358 216.836973 
L 260.307386 216.884448 
L 262.877415 216.934537 
L 265.447443 216.986813 
L 268.017472 217.040848 
L 270.5875 217.096227 
L 273.157528 217.152559 
L 275.727557 217.209481 
L 278.297585 217.266671 
L 280.867614 217.323852 
L 283.437642 217.380797 
L 286.00767 217.437333 
L 288.577699 217.493342 
L 291.147727 217.548758 
L 293.717756 217.603569 
L 296.287784 217.657811 
L 298.857812 217.711563 
" style="fill:none;stroke:#8c564b;stroke-linecap:square;stroke-width:1.5;"/>
   </g>
   <g id="line2d_28">
    <path clip-path="url(#p12531cfbac)" d="M 146.198125 242.4 
L 146.198125 14.695404 
" style="fill:none;stroke:#808080;stroke-dasharray:1.5,2.475;stroke-dashoffset:0;stroke-width:1.5;"/>
   </g>
   <g id="line2d_29">
    <path clip-path="url(#p12531cfbac)" d="M 44.425 229.309184 
L 46.995028 229.11879 
L 49.565057 228.921502 
L 52.135085 228.717583 
L 54.705114 228.507337 
L 57.275142 228.29111 
L 59.84517 228.069283 
L 62.415199 227.842277 
L 64.985227 227.610543 
L 67.555256 227.374568 
L 70.125284 227.134863 
L 72.695312 226.891968 
L 75.265341 226.646442 
L 77.835369 226.398863 
L 80.405398 226.149819 
L 82.975426 225.89991 
L 85.545455 225.649737 
L 88.115483 225.399903 
L 90.685511 225.151001 
L 93.25554 224.903618 
L 95.825568 224.658321 
L 98.395597 224.41566 
L 100.965625 224.176157 
L 103.535653 223.940309 
L 106.105682 223.708577 
L 108.67571 223.481387 
L 111.245739 223.259123 
L 113.815767 223.04213 
L 116.385795 222.830708 
L 118.955824 222.625108 
L 121.525852 222.425537 
L 124.095881 222.232155 
L 126.665909 222.045071 
L 129.235937 221.864351 
L 131.805966 221.690014 
L 134.375994 221.522035 
L 136.946023 221.360349 
L 139.516051 221.204852 
L 142.08608 221.055403 
L 144.656108 220.911832 
L 147.226136 220.773939 
L 149.796165 220.641501 
L 152.366193 220.514277 
L 154.936222 220.392008 
L 157.50625 220.274428 
L 160.076278 220.161263 
L 162.646307 220.052239 
L 165.216335 219.947085 
L 167.786364 219.845539 
L 170.356392 219.747348 
L 172.92642 219.652276 
L 175.496449 219.560106 
L 178.066477 219.470643 
L 180.636506 219.383716 
L 183.206534 219.299182 
L 185.776562 219.216925 
L 188.346591 219.13686 
L 190.916619 219.058933 
L 193.486648 218.98312 
L 196.056676 218.909429 
L 198.626705 218.837897 
L 201.196733 218.768589 
L 203.766761 218.701597 
L 206.33679 218.637037 
L 208.906818 218.575048 
L 211.476847 218.515787 
L 214.046875 218.459425 
L 216.616903 218.406146 
L 219.186932 218.356141 
L 221.75696 218.309605 
L 224.326989 218.266733 
L 226.897017 218.227713 
L 229.467045 218.192728 
L 232.037074 218.161947 
L 234.607102 218.135521 
L 237.177131 218.113585 
L 239.747159 218.096249 
L 242.317187 218.083597 
L 244.887216 218.075689 
L 247.457244 218.07255 
L 250.027273 218.074179 
L 252.597301 218.080539 
L 255.16733 218.091564 
L 257.737358 218.107153 
L 260.307386 218.127176 
L 262.877415 218.151471 
L 265.447443 218.179849 
L 268.017472 218.212091 
L 270.5875 218.247959 
L 273.157528 218.287192 
L 275.727557 218.32951 
L 278.297585 218.374623 
L 280.867614 218.42223 
L 283.437642 218.472025 
L 286.00767 218.523702 
L 288.577699 218.576958 
L 291.147727 218.631499 
L 293.717756 218.687047 
L 296.287784 218.743337 
L 298.857812 218.800131 
" style="fill:none;stroke:#e377c2;stroke-linecap:square;stroke-width:1.5;"/>
   </g>
   <g id="line2d_30">
    <path clip-path="url(#p12531cfbac)" d="M 146.198125 242.4 
L 146.198125 14.695404 
" style="fill:none;stroke:#808080;stroke-dasharray:1.5,2.475;stroke-dashoffset:0;stroke-width:1.5;"/>
   </g>
   <g id="patch_3">
    <path d="M 44.425 242.4 
L 44.425 14.695404 
" style="fill:none;stroke:#000000;stroke-linecap:square;stroke-linejoin:miter;stroke-width:0.8;"/>
   </g>
   <g id="patch_4">
    <path d="M 44.425 242.4 
L 298.857812 242.4 
" style="fill:none;stroke:#000000;stroke-linecap:square;stroke-linejoin:miter;stroke-width:0.8;"/>
   </g>
  </g>
  <g id="axes_2">
   <g id="patch_5">
    <path d="M 343.407813 242.4 
L 597.840625 242.4 
L 597.840625 14.695404 
L 343.407813 14.695404 
z
" style="fill:#ffffff;"/>
   </g>
   <g id="matplotlib.axis_3">
    <g id="xtick_9">
     <g id="line2d_31">
      <g>
       <use style="stroke:#000000;stroke-width:0.8;" x="343.407813" xlink:href="#m1486736208" y="242.4"/>
      </g>
     </g>
     <g id="text_18">
      <!-- 0.00 -->
      <g transform="translate(332.275 256.998438)scale(0.1 -0.1)">
       <use xlink:href="#DejaVuSans-48"/>
       <use x="63.623047" xlink:href="#DejaVuSans-46"/>
       <use x="95.410156" xlink:href="#DejaVuSans-48"/>
       <use x="159.033203" xlink:href="#DejaVuSans-48"/>
      </g>
     </g>
    </g>
    <g id="xtick_10">
     <g id="line2d_32">
      <g>
       <use style="stroke:#000000;stroke-width:0.8;" x="377.332188" xlink:href="#m1486736208" y="242.4"/>
      </g>
     </g>
     <g id="text_19">
      <!-- 0.02 -->
      <g transform="translate(366.199375 256.998438)scale(0.1 -0.1)">
       <use xlink:href="#DejaVuSans-48"/>
       <use x="63.623047" xlink:href="#DejaVuSans-46"/>
       <use x="95.410156" xlink:href="#DejaVuSans-48"/>
       <use x="159.033203" xlink:href="#DejaVuSans-50"/>
      </g>
     </g>
    </g>
    <g id="xtick_11">
     <g id="line2d_33">
      <g>
       <use style="stroke:#000000;stroke-width:0.8;" x="411.256562" xlink:href="#m1486736208" y="242.4"/>
      </g>
     </g>
     <g id="text_20">
      <!-- 0.04 -->
      <g transform="translate(400.12375 256.998438)scale(0.1 -0.1)">
       <use xlink:href="#DejaVuSans-48"/>
       <use x="63.623047" xlink:href="#DejaVuSans-46"/>
       <use x="95.410156" xlink:href="#DejaVuSans-48"/>
       <use x="159.033203" xlink:href="#DejaVuSans-52"/>
      </g>
     </g>
    </g>
    <g id="xtick_12">
     <g id="line2d_34">
      <g>
       <use style="stroke:#000000;stroke-width:0.8;" x="445.180937" xlink:href="#m1486736208" y="242.4"/>
      </g>
     </g>
     <g id="text_21">
      <!-- 0.06 -->
      <g transform="translate(434.048125 256.998438)scale(0.1 -0.1)">
       <use xlink:href="#DejaVuSans-48"/>
       <use x="63.623047" xlink:href="#DejaVuSans-46"/>
       <use x="95.410156" xlink:href="#DejaVuSans-48"/>
       <use x="159.033203" xlink:href="#DejaVuSans-54"/>
      </g>
     </g>
    </g>
    <g id="xtick_13">
     <g id="line2d_35">
      <g>
       <use style="stroke:#000000;stroke-width:0.8;" x="479.105312" xlink:href="#m1486736208" y="242.4"/>
      </g>
     </g>
     <g id="text_22">
      <!-- 0.08 -->
      <g transform="translate(467.9725 256.998438)scale(0.1 -0.1)">
       <use xlink:href="#DejaVuSans-48"/>
       <use x="63.623047" xlink:href="#DejaVuSans-46"/>
       <use x="95.410156" xlink:href="#DejaVuSans-48"/>
       <use x="159.033203" xlink:href="#DejaVuSans-56"/>
      </g>
     </g>
    </g>
    <g id="xtick_14">
     <g id="line2d_36">
      <g>
       <use style="stroke:#000000;stroke-width:0.8;" x="513.029687" xlink:href="#m1486736208" y="242.4"/>
      </g>
     </g>
     <g id="text_23">
      <!-- 0.10 -->
      <g transform="translate(501.896875 256.998438)scale(0.1 -0.1)">
       <use xlink:href="#DejaVuSans-48"/>
       <use x="63.623047" xlink:href="#DejaVuSans-46"/>
       <use x="95.410156" xlink:href="#DejaVuSans-49"/>
       <use x="159.033203" xlink:href="#DejaVuSans-48"/>
      </g>
     </g>
    </g>
    <g id="xtick_15">
     <g id="line2d_37">
      <g>
       <use style="stroke:#000000;stroke-width:0.8;" x="546.954062" xlink:href="#m1486736208" y="242.4"/>
      </g>
     </g>
     <g id="text_24">
      <!-- 0.12 -->
      <g transform="translate(535.82125 256.998438)scale(0.1 -0.1)">
       <use xlink:href="#DejaVuSans-48"/>
       <use x="63.623047" xlink:href="#DejaVuSans-46"/>
       <use x="95.410156" xlink:href="#DejaVuSans-49"/>
       <use x="159.033203" xlink:href="#DejaVuSans-50"/>
      </g>
     </g>
    </g>
    <g id="xtick_16">
     <g id="line2d_38">
      <g>
       <use style="stroke:#000000;stroke-width:0.8;" x="580.878438" xlink:href="#m1486736208" y="242.4"/>
      </g>
     </g>
     <g id="text_25">
      <!-- 0.14 -->
      <g transform="translate(569.745625 256.998438)scale(0.1 -0.1)">
       <use xlink:href="#DejaVuSans-48"/>
       <use x="63.623047" xlink:href="#DejaVuSans-46"/>
       <use x="95.410156" xlink:href="#DejaVuSans-49"/>
       <use x="159.033203" xlink:href="#DejaVuSans-52"/>
      </g>
     </g>
    </g>
    <g id="text_26">
     <!-- $\theta_2$ -->
     <g transform="translate(465.174219 270.676562)scale(0.1 -0.1)">
      <use transform="translate(0 0.234375)" xlink:href="#DejaVuSans-Oblique-952"/>
      <use transform="translate(61.181641 -16.171875)scale(0.7)" xlink:href="#DejaVuSans-50"/>
     </g>
    </g>
   </g>
   <g id="matplotlib.axis_4">
    <g id="ytick_8">
     <g id="line2d_39">
      <g>
       <use style="stroke:#000000;stroke-width:0.8;" x="343.407813" xlink:href="#meed114b7e3" y="232.049791"/>
      </g>
     </g>
     <g id="text_27">
      <!-- 0 -->
      <g transform="translate(330.045313 235.84901)scale(0.1 -0.1)">
       <use xlink:href="#DejaVuSans-48"/>
      </g>
     </g>
    </g>
    <g id="ytick_9">
     <g id="line2d_40">
      <g>
       <use style="stroke:#000000;stroke-width:0.8;" x="343.407813" xlink:href="#meed114b7e3" y="201.014812"/>
      </g>
     </g>
     <g id="text_28">
      <!-- 5 -->
      <g transform="translate(330.045313 204.814031)scale(0.1 -0.1)">
       <use xlink:href="#DejaVuSans-53"/>
      </g>
     </g>
    </g>
    <g id="ytick_10">
     <g id="line2d_41">
      <g>
       <use style="stroke:#000000;stroke-width:0.8;" x="343.407813" xlink:href="#meed114b7e3" y="169.979833"/>
      </g>
     </g>
     <g id="text_29">
      <!-- 10 -->
      <g transform="translate(323.682813 173.779052)scale(0.1 -0.1)">
       <use xlink:href="#DejaVuSans-49"/>
       <use x="63.623047" xlink:href="#DejaVuSans-48"/>
      </g>
     </g>
    </g>
    <g id="ytick_11">
     <g id="line2d_42">
      <g>
       <use style="stroke:#000000;stroke-width:0.8;" x="343.407813" xlink:href="#meed114b7e3" y="138.944854"/>
      </g>
     </g>
     <g id="text_30">
      <!-- 15 -->
      <g transform="translate(323.682813 142.744073)scale(0.1 -0.1)">
       <use xlink:href="#DejaVuSans-49"/>
       <use x="63.623047" xlink:href="#DejaVuSans-53"/>
      </g>
     </g>
    </g>
    <g id="ytick_12">
     <g id="line2d_43">
      <g>
       <use style="stroke:#000000;stroke-width:0.8;" x="343.407813" xlink:href="#meed114b7e3" y="107.909875"/>
      </g>
     </g>
     <g id="text_31">
      <!-- 20 -->
      <g transform="translate(323.682813 111.709094)scale(0.1 -0.1)">
       <use xlink:href="#DejaVuSans-50"/>
       <use x="63.623047" xlink:href="#DejaVuSans-48"/>
      </g>
     </g>
    </g>
    <g id="ytick_13">
     <g id="line2d_44">
      <g>
       <use style="stroke:#000000;stroke-width:0.8;" x="343.407813" xlink:href="#meed114b7e3" y="76.874896"/>
      </g>
     </g>
     <g id="text_32">
      <!-- 25 -->
      <g transform="translate(323.682813 80.674115)scale(0.1 -0.1)">
       <use xlink:href="#DejaVuSans-50"/>
       <use x="63.623047" xlink:href="#DejaVuSans-53"/>
      </g>
     </g>
    </g>
    <g id="ytick_14">
     <g id="line2d_45">
      <g>
       <use style="stroke:#000000;stroke-width:0.8;" x="343.407813" xlink:href="#meed114b7e3" y="45.839917"/>
      </g>
     </g>
     <g id="text_33">
      <!-- 30 -->
      <g transform="translate(323.682813 49.639135)scale(0.1 -0.1)">
       <use xlink:href="#DejaVuSans-51"/>
       <use x="63.623047" xlink:href="#DejaVuSans-48"/>
      </g>
     </g>
    </g>
    <g id="ytick_15">
     <g id="line2d_46">
      <g>
       <use style="stroke:#000000;stroke-width:0.8;" x="343.407813" xlink:href="#meed114b7e3" y="14.804938"/>
      </g>
     </g>
     <g id="text_34">
      <!-- 35 -->
      <g transform="translate(323.682813 18.604156)scale(0.1 -0.1)">
       <use xlink:href="#DejaVuSans-51"/>
       <use x="63.623047" xlink:href="#DejaVuSans-53"/>
      </g>
     </g>
    </g>
    <g id="text_35">
     <!-- Posterior -->
     <g transform="translate(317.603125 150.820358)rotate(-90)scale(0.1 -0.1)">
      <use xlink:href="#DejaVuSans-80"/>
      <use x="60.255859" xlink:href="#DejaVuSans-111"/>
      <use x="121.4375" xlink:href="#DejaVuSans-115"/>
      <use x="173.537109" xlink:href="#DejaVuSans-116"/>
      <use x="212.746094" xlink:href="#DejaVuSans-101"/>
      <use x="274.269531" xlink:href="#DejaVuSans-114"/>
      <use x="315.382812" xlink:href="#DejaVuSans-105"/>
      <use x="343.166016" xlink:href="#DejaVuSans-111"/>
      <use x="404.347656" xlink:href="#DejaVuSans-114"/>
     </g>
    </g>
   </g>
   <g id="line2d_47">
    <path clip-path="url(#p3317f5ed24)" d="M 343.407813 232.049746 
L 345.977841 232.049709 
L 348.547869 232.049643 
L 351.117898 232.049529 
L 353.687926 232.049334 
L 356.257955 232.049003 
L 358.827983 232.048448 
L 361.398011 232.047522 
L 363.96804 232.045994 
L 366.538068 232.043492 
L 369.108097 232.039431 
L 371.678125 232.032896 
L 374.248153 232.022477 
L 376.818182 232.006021 
L 379.38821 231.980276 
L 381.958239 231.9404 
L 384.528267 231.879239 
L 387.098295 231.786358 
L 389.668324 231.646711 
L 392.238352 231.438879 
L 394.808381 231.132758 
L 397.378409 230.686614 
L 399.948438 230.043415 
L 402.518466 229.126433 
L 405.088494 227.83418 
L 407.658523 226.034902 
L 410.228551 223.561246 
L 412.79858 220.20589 
L 415.368608 215.719805 
L 417.938636 209.815619 
L 420.508665 202.179706 
L 423.078693 192.498516 
L 425.648722 180.506558 
L 428.21875 166.067312 
L 430.788778 149.295527 
L 433.358807 130.665393 
L 435.928835 111.185113 
L 438.498864 92.520591 
L 441.068892 76.132718 
L 443.63892 62.395883 
L 446.208949 51.39329 
L 448.778977 43.278958 
L 451.349006 38.021538 
L 453.919034 35.162252 
L 456.489062 34.246866 
L 459.059091 34.988668 
L 461.629119 37.22479 
L 464.199148 40.905803 
L 466.769176 46.089892 
L 469.339205 52.887411 
L 471.909233 61.536846 
L 474.479261 72.648808 
L 477.04929 87.090948 
L 479.619318 104.451404 
L 482.189347 123.166142 
L 484.759375 141.407798 
L 487.329403 157.841615 
L 489.899432 172.020869 
L 492.46946 183.935232 
L 495.039489 193.751853 
L 497.609517 201.729574 
L 500.179545 208.156171 
L 502.749574 213.302705 
L 505.319602 217.401845 
L 507.889631 220.644487 
L 510.459659 223.188132 
L 513.029687 225.171264 
L 515.599716 226.711189 
L 518.169744 227.904028 
L 520.739773 228.826815 
L 523.309801 229.5404 
L 525.87983 230.092368 
L 528.449858 230.519685 
L 531.019886 230.850921 
L 533.589915 231.108096 
L 536.159943 231.308149 
L 538.729972 231.464096 
L 541.3 231.585941 
L 543.870028 231.681374 
L 546.440057 231.75631 
L 549.010085 231.815307 
L 551.580114 231.861882 
L 554.150142 231.898752 
L 556.72017 231.928021 
L 559.290199 231.951322 
L 561.860227 231.969924 
L 564.430256 231.984818 
L 567.000284 231.996777 
L 569.570312 232.006407 
L 572.140341 232.014184 
L 574.710369 232.020481 
L 577.280398 232.025595 
L 579.850426 232.02976 
L 582.420455 232.033162 
L 584.990483 232.035947 
L 587.560511 232.038234 
L 590.13054 232.040117 
L 592.700568 232.041672 
L 595.270597 232.042959 
L 597.840625 232.044027 
" style="fill:none;stroke:#808080;stroke-dasharray:5.55,2.4;stroke-dashoffset:0;stroke-width:1.5;"/>
   </g>
   <g id="line2d_48">
    <path clip-path="url(#p3317f5ed24)" d="M 343.407813 232.049791 
L 345.977841 232.049791 
L 348.547869 232.049791 
L 351.117898 232.049791 
L 353.687926 232.049791 
L 356.257955 232.049791 
L 358.827983 232.049791 
L 361.398011 232.049791 
L 363.96804 232.049791 
L 366.538068 232.049791 
L 369.108097 232.049791 
L 371.678125 232.049791 
L 374.248153 232.049791 
L 376.818182 232.04979 
L 379.38821 232.04978 
L 381.958239 232.049695 
L 384.528267 232.049123 
L 387.098295 232.045946 
L 389.668324 232.031356 
L 392.238352 231.976127 
L 394.808381 231.804033 
L 397.378409 231.363634 
L 399.948438 230.441171 
L 402.518466 228.867438 
L 405.088494 226.694594 
L 407.658523 224.27507 
L 410.228551 222.047135 
L 412.79858 220.074935 
L 415.368608 217.729113 
L 417.938636 213.910308 
L 420.508665 207.747363 
L 423.078693 199.147245 
L 425.648722 188.6034 
L 428.21875 176.435647 
L 430.788778 162.342843 
L 433.358807 145.857051 
L 435.928835 127.200032 
L 438.498864 107.482208 
L 441.068892 87.985227 
L 443.63892 69.497856 
L 446.208949 52.613419 
L 448.778977 38.5044 
L 451.349006 28.913132 
L 453.919034 25.045613 
L 456.489062 26.423401 
L 459.059091 30.896868 
L 461.629119 35.977736 
L 464.199148 40.486984 
L 466.769176 45.189321 
L 469.339205 51.919112 
L 471.909233 62.011312 
L 474.479261 75.369543 
L 477.04929 90.775118 
L 479.619318 106.919553 
L 482.189347 123.176589 
L 484.759375 139.519339 
L 487.329403 155.774938 
L 489.899432 171.015929 
L 492.46946 183.805064 
L 495.039489 193.172811 
L 497.609517 199.396213 
L 500.179545 203.79066 
L 502.749574 207.704872 
L 505.319602 211.668862 
L 507.889631 215.404296 
L 510.459659 218.46966 
L 513.029687 220.737926 
L 515.599716 222.3036 
L 518.169744 223.197105 
L 520.739773 223.434518 
L 523.309801 223.330866 
L 525.87983 223.533636 
L 528.449858 224.571726 
L 531.019886 226.39746 
L 533.589915 228.450264 
L 536.159943 230.137038 
L 538.729972 231.205185 
L 541.3 231.740439 
L 543.870028 231.955879 
L 546.440057 232.026169 
L 549.010085 232.044869 
L 551.580114 232.048941 
L 554.150142 232.04967 
L 556.72017 232.049777 
L 559.290199 232.04979 
L 561.860227 232.049791 
L 564.430256 232.049791 
L 567.000284 232.049791 
L 569.570312 232.049791 
L 572.140341 232.049791 
L 574.710369 232.049791 
L 577.280398 232.049791 
L 579.850426 232.049791 
L 582.420455 232.049791 
L 584.990483 232.049791 
L 587.560511 232.049791 
L 590.13054 232.049791 
L 592.700568 232.049791 
L 595.270597 232.049791 
L 597.840625 232.049791 
" style="fill:none;stroke:#1f77b4;stroke-linecap:square;stroke-width:1.5;"/>
   </g>
   <g id="line2d_49">
    <path clip-path="url(#p3317f5ed24)" d="M 479.105312 242.4 
L 479.105312 14.695404 
" style="fill:none;stroke:#808080;stroke-dasharray:1.5,2.475;stroke-dashoffset:0;stroke-width:1.5;"/>
   </g>
   <g id="line2d_50">
    <path clip-path="url(#p3317f5ed24)" d="M 343.407813 232.049791 
L 345.977841 232.049791 
L 348.547869 232.049791 
L 351.117898 232.049791 
L 353.687926 232.049791 
L 356.257955 232.049791 
L 358.827983 232.04979 
L 361.398011 232.049783 
L 363.96804 232.049748 
L 366.538068 232.049591 
L 369.108097 232.048962 
L 371.678125 232.046707 
L 374.248153 232.039509 
L 376.818182 232.01899 
L 379.38821 231.966716 
L 381.958239 231.847474 
L 384.528267 231.603144 
L 387.098295 231.151216 
L 389.668324 230.391097 
L 392.238352 229.216712 
L 394.808381 227.528915 
L 397.378409 225.242363 
L 399.948438 222.290218 
L 402.518466 218.636525 
L 405.088494 214.297542 
L 407.658523 209.353158 
L 410.228551 203.921774 
L 412.79858 198.096279 
L 415.368608 191.880989 
L 417.938636 185.187466 
L 420.508665 177.91295 
L 423.078693 170.057184 
L 425.648722 161.787079 
L 428.21875 153.381295 
L 430.788778 145.075306 
L 433.358807 136.918959 
L 435.928835 128.770305 
L 438.498864 120.453917 
L 441.068892 111.978557 
L 443.63892 103.65527 
L 446.208949 96.034505 
L 448.778977 89.717086 
L 451.349006 85.164351 
L 453.919034 82.591858 
L 456.489062 81.948113 
L 459.059091 82.944368 
L 461.629119 85.122024 
L 464.199148 87.964047 
L 466.769176 91.04205 
L 469.339205 94.161583 
L 471.909233 97.453318 
L 474.479261 101.360776 
L 477.04929 106.496103 
L 479.619318 113.386062 
L 482.189347 122.20279 
L 484.759375 132.615075 
L 487.329403 143.849666 
L 489.899432 154.932578 
L 492.46946 164.978881 
L 495.039489 173.397433 
L 497.609517 179.96097 
L 500.179545 184.773434 
L 502.749574 188.184028 
L 505.319602 190.673163 
L 507.889631 192.725901 
L 510.459659 194.72596 
L 513.029687 196.910522 
L 515.599716 199.394959 
L 518.169744 202.229059 
L 520.739773 205.428734 
L 523.309801 208.958878 
L 525.87983 212.695535 
L 528.449858 216.419911 
L 531.019886 219.870556 
L 533.589915 222.828049 
L 536.159943 225.177431 
L 538.729972 226.913097 
L 541.3 228.098581 
L 543.870028 228.824455 
L 546.440057 229.195508 
L 549.010085 229.339676 
L 551.580114 229.406357 
L 554.150142 229.534403 
L 556.72017 229.805043 
L 559.290199 230.215498 
L 561.860227 230.694931 
L 564.430256 231.151191 
L 567.000284 231.51641 
L 569.570312 231.766922 
L 572.140341 231.915869 
L 574.710369 231.993212 
L 577.280398 232.028465 
L 579.850426 232.04262 
L 582.420455 232.04764 
L 584.990483 232.049216 
L 587.560511 232.049654 
L 590.13054 232.049762 
L 592.700568 232.049786 
L 595.270597 232.04979 
L 597.840625 232.049791 
" style="fill:none;stroke:#ff7f0e;stroke-linecap:square;stroke-width:1.5;"/>
   </g>
   <g id="line2d_51">
    <path clip-path="url(#p3317f5ed24)" d="M 479.105312 242.4 
L 479.105312 14.695404 
" style="fill:none;stroke:#808080;stroke-dasharray:1.5,2.475;stroke-dashoffset:0;stroke-width:1.5;"/>
   </g>
   <g id="line2d_52">
    <path clip-path="url(#p3317f5ed24)" d="M 343.407813 229.133094 
L 345.977841 228.65272 
L 348.547869 228.111995 
L 351.117898 227.50621 
L 353.687926 226.830643 
L 356.257955 226.080611 
L 358.827983 225.251513 
L 361.398011 224.338894 
L 363.96804 223.3385 
L 366.538068 222.24635 
L 369.108097 221.058812 
L 371.678125 219.772688 
L 374.248153 218.385306 
L 376.818182 216.894617 
L 379.38821 215.299306 
L 381.958239 213.598894 
L 384.528267 211.793854 
L 387.098295 209.885716 
L 389.668324 207.877176 
L 392.238352 205.772184 
L 394.808381 203.576027 
L 397.378409 201.29539 
L 399.948438 198.938398 
L 402.518466 196.514628 
L 405.088494 194.035097 
L 407.658523 191.512218 
L 410.228551 188.959724 
L 412.79858 186.392556 
L 415.368608 183.826726 
L 417.938636 181.279147 
L 420.508665 178.767423 
L 423.078693 176.309632 
L 425.648722 173.924069 
L 428.21875 171.628979 
L 430.788778 169.442275 
L 433.358807 167.381249 
L 435.928835 165.462285 
L 438.498864 163.70058 
L 441.068892 162.109878 
L 443.63892 160.702234 
L 446.208949 159.487812 
L 448.778977 158.474717 
L 451.349006 157.668885 
L 453.919034 157.07402 
L 456.489062 156.691586 
L 459.059091 156.520858 
L 461.629119 156.559022 
L 464.199148 156.801324 
L 466.769176 157.241262 
L 469.339205 157.870801 
L 471.909233 158.680612 
L 474.479261 159.660312 
L 477.04929 160.798707 
L 479.619318 162.084007 
L 482.189347 163.504022 
L 484.759375 165.046326 
L 487.329403 166.698384 
L 489.899432 168.447639 
L 492.46946 170.281571 
L 495.039489 172.187721 
L 497.609517 174.153707 
L 500.179545 176.167211 
L 502.749574 178.21598 
L 505.319602 180.287828 
L 507.889631 182.370658 
L 510.459659 184.452506 
L 513.029687 186.521614 
L 515.599716 188.566531 
L 518.169744 190.576244 
L 520.739773 192.540329 
L 523.309801 194.449118 
L 525.87983 196.29387 
L 528.449858 198.066943 
L 531.019886 199.761943 
L 533.589915 201.373851 
L 536.159943 202.899115 
L 538.729972 204.335698 
L 541.3 205.683081 
L 543.870028 206.942211 
L 546.440057 208.11541 
L 549.010085 209.206233 
L 551.580114 210.21929 
L 554.150142 211.160046 
L 556.72017 212.034591 
L 559.290199 212.849409 
L 561.860227 213.611152 
L 564.430256 214.326422 
L 567.000284 215.001573 
L 569.570312 215.642552 
L 572.140341 216.254765 
L 574.710369 216.842982 
L 577.280398 217.411285 
L 579.850426 217.963048 
L 582.420455 218.500952 
L 584.990483 219.027032 
L 587.560511 219.542739 
L 590.13054 220.04903 
L 592.700568 220.546455 
L 595.270597 221.035257 
L 597.840625 221.51546 
" style="fill:none;stroke:#2ca02c;stroke-linecap:square;stroke-width:1.5;"/>
   </g>
   <g id="line2d_53">
    <path clip-path="url(#p3317f5ed24)" d="M 479.105312 242.4 
L 479.105312 14.695404 
" style="fill:none;stroke:#808080;stroke-dasharray:1.5,2.475;stroke-dashoffset:0;stroke-width:1.5;"/>
   </g>
   <g id="line2d_54">
    <path clip-path="url(#p3317f5ed24)" d="M 343.407813 225.948133 
L 345.977841 225.52361 
L 348.547869 225.081619 
L 351.117898 224.622383 
L 353.687926 224.146199 
L 356.257955 223.653442 
L 358.827983 223.144561 
L 361.398011 222.620084 
L 363.96804 222.080616 
L 366.538068 221.526838 
L 369.108097 220.959507 
L 371.678125 220.379454 
L 374.248153 219.787583 
L 376.818182 219.18487 
L 379.38821 218.572358 
L 381.958239 217.951156 
L 384.528267 217.322435 
L 387.098295 216.687425 
L 389.668324 216.047412 
L 392.238352 215.40373 
L 394.808381 214.75776 
L 397.378409 214.110923 
L 399.948438 213.464674 
L 402.518466 212.820498 
L 405.088494 212.179902 
L 407.658523 211.544409 
L 410.228551 210.91555 
L 412.79858 210.29486 
L 415.368608 209.683867 
L 417.938636 209.084084 
L 420.508665 208.497007 
L 423.078693 207.924099 
L 425.648722 207.366789 
L 428.21875 206.826459 
L 430.788778 206.30444 
L 433.358807 205.802003 
L 435.928835 205.320351 
L 438.498864 204.860612 
L 441.068892 204.423834 
L 443.63892 204.010977 
L 446.208949 203.622909 
L 448.778977 203.260401 
L 451.349006 202.924119 
L 453.919034 202.614629 
L 456.489062 202.332383 
L 459.059091 202.077728 
L 461.629119 201.850898 
L 464.199148 201.652017 
L 466.769176 201.481098 
L 469.339205 201.338046 
L 471.909233 201.222662 
L 474.479261 201.134643 
L 477.04929 201.073586 
L 479.619318 201.038998 
L 482.189347 201.030297 
L 484.759375 201.046817 
L 487.329403 201.08782 
L 489.899432 201.152498 
L 492.46946 201.239983 
L 495.039489 201.349353 
L 497.609517 201.479643 
L 500.179545 201.629847 
L 502.749574 201.798931 
L 505.319602 201.985839 
L 507.889631 202.1895 
L 510.459659 202.408836 
L 513.029687 202.642768 
L 515.599716 202.890222 
L 518.169744 203.150138 
L 520.739773 203.421472 
L 523.309801 203.703204 
L 525.87983 203.994341 
L 528.449858 204.293921 
L 531.019886 204.601017 
L 533.589915 204.914743 
L 536.159943 205.234249 
L 538.729972 205.558732 
L 541.3 205.887431 
L 543.870028 206.219631 
L 546.440057 206.554661 
L 549.010085 206.891898 
L 551.580114 207.230762 
L 554.150142 207.57072 
L 556.72017 207.911281 
L 559.290199 208.251994 
L 561.860227 208.59245 
L 564.430256 208.932277 
L 567.000284 209.271135 
L 569.570312 209.60872 
L 572.140341 209.944754 
L 574.710369 210.278985 
L 577.280398 210.611184 
L 579.850426 210.941139 
L 582.420455 211.268656 
L 584.990483 211.593549 
L 587.560511 211.915644 
L 590.13054 212.234769 
L 592.700568 212.550756 
L 595.270597 212.863434 
L 597.840625 213.17263 
" style="fill:none;stroke:#d62728;stroke-linecap:square;stroke-width:1.5;"/>
   </g>
   <g id="line2d_55">
    <path clip-path="url(#p3317f5ed24)" d="M 479.105312 242.4 
L 479.105312 14.695404 
" style="fill:none;stroke:#808080;stroke-dasharray:1.5,2.475;stroke-dashoffset:0;stroke-width:1.5;"/>
   </g>
   <g id="line2d_56">
    <path clip-path="url(#p3317f5ed24)" d="M 343.407813 227.228317 
L 345.977841 227.009482 
L 348.547869 226.788229 
L 351.117898 226.564921 
L 353.687926 226.339923 
L 356.257955 226.113591 
L 358.827983 225.886277 
L 361.398011 225.658322 
L 363.96804 225.430054 
L 366.538068 225.201786 
L 369.108097 224.973816 
L 371.678125 224.746422 
L 374.248153 224.519861 
L 376.818182 224.29437 
L 379.38821 224.070165 
L 381.958239 223.847438 
L 384.528267 223.62636 
L 387.098295 223.407078 
L 389.668324 223.189719 
L 392.238352 222.974389 
L 394.808381 222.761176 
L 397.378409 222.550149 
L 399.948438 222.341361 
L 402.518466 222.134851 
L 405.088494 221.930647 
L 407.658523 221.728769 
L 410.228551 221.529227 
L 412.79858 221.332028 
L 415.368608 221.137179 
L 417.938636 220.944685 
L 420.508665 220.754556 
L 423.078693 220.566805 
L 425.648722 220.381455 
L 428.21875 220.198537 
L 430.788778 220.018096 
L 433.358807 219.840186 
L 435.928835 219.664879 
L 438.498864 219.49226 
L 441.068892 219.322432 
L 443.63892 219.155514 
L 446.208949 218.991641 
L 448.778977 218.830967 
L 451.349006 218.67366 
L 453.919034 218.519905 
L 456.489062 218.369901 
L 459.059091 218.223863 
L 461.629119 218.082014 
L 464.199148 217.944591 
L 466.769176 217.811838 
L 469.339205 217.684003 
L 471.909233 217.561343 
L 474.479261 217.444111 
L 477.04929 217.332562 
L 479.619318 217.226949 
L 482.189347 217.127514 
L 484.759375 217.034493 
L 487.329403 216.94811 
L 489.899432 216.868574 
L 492.46946 216.796077 
L 495.039489 216.730792 
L 497.609517 216.672867 
L 500.179545 216.62243 
L 502.749574 216.579578 
L 505.319602 216.544382 
L 507.889631 216.516881 
L 510.459659 216.497084 
L 513.029687 216.484964 
L 515.599716 216.480462 
L 518.169744 216.483482 
L 520.739773 216.493892 
L 523.309801 216.511525 
L 525.87983 216.536178 
L 528.449858 216.567611 
L 531.019886 216.605551 
L 533.589915 216.649689 
L 536.159943 216.699685 
L 538.729972 216.755165 
L 541.3 216.815728 
L 543.870028 216.880944 
L 546.440057 216.950359 
L 549.010085 217.023496 
L 551.580114 217.099857 
L 554.150142 217.178929 
L 556.72017 217.260183 
L 559.290199 217.343081 
L 561.860227 217.427077 
L 564.430256 217.511619 
L 567.000284 217.596158 
L 569.570312 217.680145 
L 572.140341 217.763038 
L 574.710369 217.844304 
L 577.280398 217.923422 
L 579.850426 217.999889 
L 582.420455 218.073218 
L 584.990483 218.142945 
L 587.560511 218.20863 
L 590.13054 218.269861 
L 592.700568 218.326252 
L 595.270597 218.37745 
L 597.840625 218.423134 
" style="fill:none;stroke:#9467bd;stroke-linecap:square;stroke-width:1.5;"/>
   </g>
   <g id="line2d_57">
    <path clip-path="url(#p3317f5ed24)" d="M 479.105312 242.4 
L 479.105312 14.695404 
" style="fill:none;stroke:#808080;stroke-dasharray:1.5,2.475;stroke-dashoffset:0;stroke-width:1.5;"/>
   </g>
   <g id="line2d_58">
    <path clip-path="url(#p3317f5ed24)" d="M 343.407813 229.160036 
L 345.977841 228.992864 
L 348.547869 228.821981 
L 351.117898 228.647751 
L 353.687926 228.470561 
L 356.257955 228.290819 
L 358.827983 228.108953 
L 361.398011 227.925403 
L 363.96804 227.740623 
L 366.538068 227.555074 
L 369.108097 227.369221 
L 371.678125 227.183529 
L 374.248153 226.998459 
L 376.818182 226.814464 
L 379.38821 226.631987 
L 381.958239 226.451452 
L 384.528267 226.273268 
L 387.098295 226.097817 
L 389.668324 225.925458 
L 392.238352 225.75652 
L 394.808381 225.5913 
L 397.378409 225.430062 
L 399.948438 225.273034 
L 402.518466 225.120406 
L 405.088494 224.972329 
L 407.658523 224.828917 
L 410.228551 224.690242 
L 412.79858 224.55634 
L 415.368608 224.427207 
L 417.938636 224.302799 
L 420.508665 224.183041 
L 423.078693 224.06782 
L 425.648722 223.956993 
L 428.21875 223.850387 
L 430.788778 223.747804 
L 433.358807 223.649019 
L 435.928835 223.553792 
L 438.498864 223.461861 
L 441.068892 223.372955 
L 443.63892 223.286792 
L 446.208949 223.203083 
L 448.778977 223.12154 
L 451.349006 223.041873 
L 453.919034 222.963798 
L 456.489062 222.887041 
L 459.059091 222.811336 
L 461.629119 222.736433 
L 464.199148 222.662098 
L 466.769176 222.588115 
L 469.339205 222.514289 
L 471.909233 222.440447 
L 474.479261 222.36644 
L 477.04929 222.292141 
L 479.619318 222.217449 
L 482.189347 222.142286 
L 484.759375 222.0666 
L 487.329403 221.990359 
L 489.899432 221.913556 
L 492.46946 221.836203 
L 495.039489 221.758331 
L 497.609517 221.679991 
L 500.179545 221.601244 
L 502.749574 221.52217 
L 505.319602 221.442854 
L 507.889631 221.363394 
L 510.459659 221.28389 
L 513.029687 221.204448 
L 515.599716 221.125174 
L 518.169744 221.046174 
L 520.739773 220.967548 
L 523.309801 220.889397 
L 525.87983 220.811809 
L 528.449858 220.734868 
L 531.019886 220.65865 
L 533.589915 220.583218 
L 536.159943 220.508626 
L 538.729972 220.434919 
L 541.3 220.362129 
L 543.870028 220.29028 
L 546.440057 220.219383 
L 549.010085 220.149443 
L 551.580114 220.080453 
L 554.150142 220.012402 
L 556.72017 219.945271 
L 559.290199 219.879034 
L 561.860227 219.813664 
L 564.430256 219.749129 
L 567.000284 219.685396 
L 569.570312 219.622432 
L 572.140341 219.560202 
L 574.710369 219.498676 
L 577.280398 219.437822 
L 579.850426 219.377614 
L 582.420455 219.318025 
L 584.990483 219.259036 
L 587.560511 219.200627 
L 590.13054 219.142784 
L 592.700568 219.085493 
L 595.270597 219.028744 
L 597.840625 218.972529 
" style="fill:none;stroke:#8c564b;stroke-linecap:square;stroke-width:1.5;"/>
   </g>
   <g id="line2d_59">
    <path clip-path="url(#p3317f5ed24)" d="M 479.105312 242.4 
L 479.105312 14.695404 
" style="fill:none;stroke:#808080;stroke-dasharray:1.5,2.475;stroke-dashoffset:0;stroke-width:1.5;"/>
   </g>
   <g id="line2d_60">
    <path clip-path="url(#p3317f5ed24)" d="M 343.407813 229.092287 
L 345.977841 228.940302 
L 348.547869 228.785844 
L 351.117898 228.629169 
L 353.687926 228.470537 
L 356.257955 228.310208 
L 358.827983 228.148439 
L 361.398011 227.985482 
L 363.96804 227.821584 
L 366.538068 227.656983 
L 369.108097 227.491907 
L 371.678125 227.326573 
L 374.248153 227.161189 
L 376.818182 226.995947 
L 379.38821 226.831028 
L 381.958239 226.666599 
L 384.528267 226.502816 
L 387.098295 226.339821 
L 389.668324 226.177743 
L 392.238352 226.016701 
L 394.808381 225.856805 
L 397.378409 225.698153 
L 399.948438 225.540837 
L 402.518466 225.384944 
L 405.088494 225.230553 
L 407.658523 225.07774 
L 410.228551 224.926581 
L 412.79858 224.777148 
L 415.368608 224.629514 
L 417.938636 224.483754 
L 420.508665 224.339945 
L 423.078693 224.198164 
L 425.648722 224.058494 
L 428.21875 223.921021 
L 430.788778 223.785833 
L 433.358807 223.653021 
L 435.928835 223.52268 
L 438.498864 223.394907 
L 441.068892 223.269798 
L 443.63892 223.14745 
L 446.208949 223.027958 
L 448.778977 222.911417 
L 451.349006 222.797913 
L 453.919034 222.687529 
L 456.489062 222.580339 
L 459.059091 222.476408 
L 461.629119 222.375789 
L 464.199148 222.278522 
L 466.769176 222.184634 
L 469.339205 222.094135 
L 471.909233 222.007018 
L 474.479261 221.923256 
L 477.04929 221.842805 
L 479.619318 221.7656 
L 482.189347 221.691557 
L 484.759375 221.62057 
L 487.329403 221.552514 
L 489.899432 221.487243 
L 492.46946 221.424593 
L 495.039489 221.364383 
L 497.609517 221.306413 
L 500.179545 221.250471 
L 502.749574 221.196327 
L 505.319602 221.143745 
L 507.889631 221.092477 
L 510.459659 221.042267 
L 513.029687 220.992857 
L 515.599716 220.943985 
L 518.169744 220.895389 
L 520.739773 220.846812 
L 523.309801 220.797999 
L 525.87983 220.748704 
L 528.449858 220.69869 
L 531.019886 220.647731 
L 533.589915 220.595612 
L 536.159943 220.542135 
L 538.729972 220.487117 
L 541.3 220.430388 
L 543.870028 220.3718 
L 546.440057 220.311217 
L 549.010085 220.248524 
L 551.580114 220.183623 
L 554.150142 220.11643 
L 556.72017 220.04688 
L 559.290199 219.974922 
L 561.860227 219.900519 
L 564.430256 219.823648 
L 567.000284 219.744298 
L 569.570312 219.662469 
L 572.140341 219.57817 
L 574.710369 219.491419 
L 577.280398 219.402241 
L 579.850426 219.310669 
L 582.420455 219.216739 
L 584.990483 219.120494 
L 587.560511 219.02198 
L 590.13054 218.921246 
L 592.700568 218.818347 
L 595.270597 218.71334 
L 597.840625 218.606285 
" style="fill:none;stroke:#e377c2;stroke-linecap:square;stroke-width:1.5;"/>
   </g>
   <g id="line2d_61">
    <path clip-path="url(#p3317f5ed24)" d="M 479.105312 242.4 
L 479.105312 14.695404 
" style="fill:none;stroke:#808080;stroke-dasharray:1.5,2.475;stroke-dashoffset:0;stroke-width:1.5;"/>
   </g>
   <g id="patch_6">
    <path d="M 343.407813 242.4 
L 343.407813 14.695404 
" style="fill:none;stroke:#000000;stroke-linecap:square;stroke-linejoin:miter;stroke-width:0.8;"/>
   </g>
   <g id="patch_7">
    <path d="M 343.407813 242.4 
L 597.840625 242.4 
" style="fill:none;stroke:#000000;stroke-linecap:square;stroke-linejoin:miter;stroke-width:0.8;"/>
   </g>
   <g id="legend_1">
    <g id="patch_8">
     <path d="M 604.840625 140.120404 
L 707.575 140.120404 
Q 709.575 140.120404 709.575 138.120404 
L 709.575 21.695404 
Q 709.575 19.695404 707.575 19.695404 
L 604.840625 19.695404 
Q 602.840625 19.695404 602.840625 21.695404 
L 602.840625 138.120404 
Q 602.840625 140.120404 604.840625 140.120404 
z
" style="fill:#ffffff;opacity:0.8;stroke:#cccccc;stroke-linejoin:miter;"/>
    </g>
    <g id="line2d_62">
     <path d="M 606.840625 27.793842 
L 626.840625 27.793842 
" style="fill:none;stroke:#808080;stroke-dasharray:5.55,2.4;stroke-dashoffset:0;stroke-width:1.5;"/>
    </g>
    <g id="line2d_63"/>
    <g id="text_36">
     <!-- True posterior -->
     <defs>
      <path d="M -0.296875 72.90625 
L 61.375 72.90625 
L 61.375 64.59375 
L 35.5 64.59375 
L 35.5 0 
L 25.59375 0 
L 25.59375 64.59375 
L -0.296875 64.59375 
z
" id="DejaVuSans-84"/>
      <path d="M 8.5 21.578125 
L 8.5 54.6875 
L 17.484375 54.6875 
L 17.484375 21.921875 
Q 17.484375 14.15625 20.5 10.265625 
Q 23.53125 6.390625 29.59375 6.390625 
Q 36.859375 6.390625 41.078125 11.03125 
Q 45.3125 15.671875 45.3125 23.6875 
L 45.3125 54.6875 
L 54.296875 54.6875 
L 54.296875 0 
L 45.3125 0 
L 45.3125 8.40625 
Q 42.046875 3.421875 37.71875 1 
Q 33.40625 -1.421875 27.6875 -1.421875 
Q 18.265625 -1.421875 13.375 4.4375 
Q 8.5 10.296875 8.5 21.578125 
z
M 31.109375 56 
z
" id="DejaVuSans-117"/>
      <path id="DejaVuSans-32"/>
      <path d="M 18.109375 8.203125 
L 18.109375 -20.796875 
L 9.078125 -20.796875 
L 9.078125 54.6875 
L 18.109375 54.6875 
L 18.109375 46.390625 
Q 20.953125 51.265625 25.265625 53.625 
Q 29.59375 56 35.59375 56 
Q 45.5625 56 51.78125 48.09375 
Q 58.015625 40.1875 58.015625 27.296875 
Q 58.015625 14.40625 51.78125 6.484375 
Q 45.5625 -1.421875 35.59375 -1.421875 
Q 29.59375 -1.421875 25.265625 0.953125 
Q 20.953125 3.328125 18.109375 8.203125 
z
M 48.6875 27.296875 
Q 48.6875 37.203125 44.609375 42.84375 
Q 40.53125 48.484375 33.40625 48.484375 
Q 26.265625 48.484375 22.1875 42.84375 
Q 18.109375 37.203125 18.109375 27.296875 
Q 18.109375 17.390625 22.1875 11.75 
Q 26.265625 6.109375 33.40625 6.109375 
Q 40.53125 6.109375 44.609375 11.75 
Q 48.6875 17.390625 48.6875 27.296875 
z
" id="DejaVuSans-112"/>
     </defs>
     <g transform="translate(634.840625 31.293842)scale(0.1 -0.1)">
      <use xlink:href="#DejaVuSans-84"/>
      <use x="60.865234" xlink:href="#DejaVuSans-114"/>
      <use x="101.978516" xlink:href="#DejaVuSans-117"/>
      <use x="165.357422" xlink:href="#DejaVuSans-101"/>
      <use x="226.880859" xlink:href="#DejaVuSans-32"/>
      <use x="258.667969" xlink:href="#DejaVuSans-112"/>
      <use x="322.144531" xlink:href="#DejaVuSans-111"/>
      <use x="383.326172" xlink:href="#DejaVuSans-115"/>
      <use x="435.425781" xlink:href="#DejaVuSans-116"/>
      <use x="474.634766" xlink:href="#DejaVuSans-101"/>
      <use x="536.158203" xlink:href="#DejaVuSans-114"/>
      <use x="577.271484" xlink:href="#DejaVuSans-105"/>
      <use x="605.054688" xlink:href="#DejaVuSans-111"/>
      <use x="666.236328" xlink:href="#DejaVuSans-114"/>
     </g>
    </g>
    <g id="line2d_64">
     <path d="M 606.840625 42.471967 
L 626.840625 42.471967 
" style="fill:none;stroke:#1f77b4;stroke-linecap:square;stroke-width:1.5;"/>
    </g>
    <g id="line2d_65"/>
    <g id="text_37">
     <!-- Iteration 6 -->
     <defs>
      <path d="M 9.8125 72.90625 
L 19.671875 72.90625 
L 19.671875 0 
L 9.8125 0 
z
" id="DejaVuSans-73"/>
      <path d="M 34.28125 27.484375 
Q 23.390625 27.484375 19.1875 25 
Q 14.984375 22.515625 14.984375 16.5 
Q 14.984375 11.71875 18.140625 8.90625 
Q 21.296875 6.109375 26.703125 6.109375 
Q 34.1875 6.109375 38.703125 11.40625 
Q 43.21875 16.703125 43.21875 25.484375 
L 43.21875 27.484375 
z
M 52.203125 31.203125 
L 52.203125 0 
L 43.21875 0 
L 43.21875 8.296875 
Q 40.140625 3.328125 35.546875 0.953125 
Q 30.953125 -1.421875 24.3125 -1.421875 
Q 15.921875 -1.421875 10.953125 3.296875 
Q 6 8.015625 6 15.921875 
Q 6 25.140625 12.171875 29.828125 
Q 18.359375 34.515625 30.609375 34.515625 
L 43.21875 34.515625 
L 43.21875 35.40625 
Q 43.21875 41.609375 39.140625 45 
Q 35.0625 48.390625 27.6875 48.390625 
Q 23 48.390625 18.546875 47.265625 
Q 14.109375 46.140625 10.015625 43.890625 
L 10.015625 52.203125 
Q 14.9375 54.109375 19.578125 55.046875 
Q 24.21875 56 28.609375 56 
Q 40.484375 56 46.34375 49.84375 
Q 52.203125 43.703125 52.203125 31.203125 
z
" id="DejaVuSans-97"/>
      <path d="M 54.890625 33.015625 
L 54.890625 0 
L 45.90625 0 
L 45.90625 32.71875 
Q 45.90625 40.484375 42.875 44.328125 
Q 39.84375 48.1875 33.796875 48.1875 
Q 26.515625 48.1875 22.3125 43.546875 
Q 18.109375 38.921875 18.109375 30.90625 
L 18.109375 0 
L 9.078125 0 
L 9.078125 54.6875 
L 18.109375 54.6875 
L 18.109375 46.1875 
Q 21.34375 51.125 25.703125 53.5625 
Q 30.078125 56 35.796875 56 
Q 45.21875 56 50.046875 50.171875 
Q 54.890625 44.34375 54.890625 33.015625 
z
" id="DejaVuSans-110"/>
     </defs>
     <g transform="translate(634.840625 45.971967)scale(0.1 -0.1)">
      <use xlink:href="#DejaVuSans-73"/>
      <use x="29.492188" xlink:href="#DejaVuSans-116"/>
      <use x="68.701172" xlink:href="#DejaVuSans-101"/>
      <use x="130.224609" xlink:href="#DejaVuSans-114"/>
      <use x="171.337891" xlink:href="#DejaVuSans-97"/>
      <use x="232.617188" xlink:href="#DejaVuSans-116"/>
      <use x="271.826172" xlink:href="#DejaVuSans-105"/>
      <use x="299.609375" xlink:href="#DejaVuSans-111"/>
      <use x="360.791016" xlink:href="#DejaVuSans-110"/>
      <use x="424.169922" xlink:href="#DejaVuSans-32"/>
      <use x="455.957031" xlink:href="#DejaVuSans-54"/>
     </g>
    </g>
    <g id="line2d_66">
     <path d="M 606.840625 57.150092 
L 626.840625 57.150092 
" style="fill:none;stroke:#ff7f0e;stroke-linecap:square;stroke-width:1.5;"/>
    </g>
    <g id="line2d_67"/>
    <g id="text_38">
     <!-- Iteration 5 -->
     <g transform="translate(634.840625 60.650092)scale(0.1 -0.1)">
      <use xlink:href="#DejaVuSans-73"/>
      <use x="29.492188" xlink:href="#DejaVuSans-116"/>
      <use x="68.701172" xlink:href="#DejaVuSans-101"/>
      <use x="130.224609" xlink:href="#DejaVuSans-114"/>
      <use x="171.337891" xlink:href="#DejaVuSans-97"/>
      <use x="232.617188" xlink:href="#DejaVuSans-116"/>
      <use x="271.826172" xlink:href="#DejaVuSans-105"/>
      <use x="299.609375" xlink:href="#DejaVuSans-111"/>
      <use x="360.791016" xlink:href="#DejaVuSans-110"/>
      <use x="424.169922" xlink:href="#DejaVuSans-32"/>
      <use x="455.957031" xlink:href="#DejaVuSans-53"/>
     </g>
    </g>
    <g id="line2d_68">
     <path d="M 606.840625 71.828217 
L 626.840625 71.828217 
" style="fill:none;stroke:#2ca02c;stroke-linecap:square;stroke-width:1.5;"/>
    </g>
    <g id="line2d_69"/>
    <g id="text_39">
     <!-- Iteration 4 -->
     <g transform="translate(634.840625 75.328217)scale(0.1 -0.1)">
      <use xlink:href="#DejaVuSans-73"/>
      <use x="29.492188" xlink:href="#DejaVuSans-116"/>
      <use x="68.701172" xlink:href="#DejaVuSans-101"/>
      <use x="130.224609" xlink:href="#DejaVuSans-114"/>
      <use x="171.337891" xlink:href="#DejaVuSans-97"/>
      <use x="232.617188" xlink:href="#DejaVuSans-116"/>
      <use x="271.826172" xlink:href="#DejaVuSans-105"/>
      <use x="299.609375" xlink:href="#DejaVuSans-111"/>
      <use x="360.791016" xlink:href="#DejaVuSans-110"/>
      <use x="424.169922" xlink:href="#DejaVuSans-32"/>
      <use x="455.957031" xlink:href="#DejaVuSans-52"/>
     </g>
    </g>
    <g id="line2d_70">
     <path d="M 606.840625 86.506342 
L 626.840625 86.506342 
" style="fill:none;stroke:#d62728;stroke-linecap:square;stroke-width:1.5;"/>
    </g>
    <g id="line2d_71"/>
    <g id="text_40">
     <!-- Iteration 3 -->
     <g transform="translate(634.840625 90.006342)scale(0.1 -0.1)">
      <use xlink:href="#DejaVuSans-73"/>
      <use x="29.492188" xlink:href="#DejaVuSans-116"/>
      <use x="68.701172" xlink:href="#DejaVuSans-101"/>
      <use x="130.224609" xlink:href="#DejaVuSans-114"/>
      <use x="171.337891" xlink:href="#DejaVuSans-97"/>
      <use x="232.617188" xlink:href="#DejaVuSans-116"/>
      <use x="271.826172" xlink:href="#DejaVuSans-105"/>
      <use x="299.609375" xlink:href="#DejaVuSans-111"/>
      <use x="360.791016" xlink:href="#DejaVuSans-110"/>
      <use x="424.169922" xlink:href="#DejaVuSans-32"/>
      <use x="455.957031" xlink:href="#DejaVuSans-51"/>
     </g>
    </g>
    <g id="line2d_72">
     <path d="M 606.840625 101.184467 
L 626.840625 101.184467 
" style="fill:none;stroke:#9467bd;stroke-linecap:square;stroke-width:1.5;"/>
    </g>
    <g id="line2d_73"/>
    <g id="text_41">
     <!-- Iteration 2 -->
     <g transform="translate(634.840625 104.684467)scale(0.1 -0.1)">
      <use xlink:href="#DejaVuSans-73"/>
      <use x="29.492188" xlink:href="#DejaVuSans-116"/>
      <use x="68.701172" xlink:href="#DejaVuSans-101"/>
      <use x="130.224609" xlink:href="#DejaVuSans-114"/>
      <use x="171.337891" xlink:href="#DejaVuSans-97"/>
      <use x="232.617188" xlink:href="#DejaVuSans-116"/>
      <use x="271.826172" xlink:href="#DejaVuSans-105"/>
      <use x="299.609375" xlink:href="#DejaVuSans-111"/>
      <use x="360.791016" xlink:href="#DejaVuSans-110"/>
      <use x="424.169922" xlink:href="#DejaVuSans-32"/>
      <use x="455.957031" xlink:href="#DejaVuSans-50"/>
     </g>
    </g>
    <g id="line2d_74">
     <path d="M 606.840625 115.862592 
L 626.840625 115.862592 
" style="fill:none;stroke:#8c564b;stroke-linecap:square;stroke-width:1.5;"/>
    </g>
    <g id="line2d_75"/>
    <g id="text_42">
     <!-- Iteration 1 -->
     <g transform="translate(634.840625 119.362592)scale(0.1 -0.1)">
      <use xlink:href="#DejaVuSans-73"/>
      <use x="29.492188" xlink:href="#DejaVuSans-116"/>
      <use x="68.701172" xlink:href="#DejaVuSans-101"/>
      <use x="130.224609" xlink:href="#DejaVuSans-114"/>
      <use x="171.337891" xlink:href="#DejaVuSans-97"/>
      <use x="232.617188" xlink:href="#DejaVuSans-116"/>
      <use x="271.826172" xlink:href="#DejaVuSans-105"/>
      <use x="299.609375" xlink:href="#DejaVuSans-111"/>
      <use x="360.791016" xlink:href="#DejaVuSans-110"/>
      <use x="424.169922" xlink:href="#DejaVuSans-32"/>
      <use x="455.957031" xlink:href="#DejaVuSans-49"/>
     </g>
    </g>
    <g id="line2d_76">
     <path d="M 606.840625 130.540717 
L 626.840625 130.540717 
" style="fill:none;stroke:#e377c2;stroke-linecap:square;stroke-width:1.5;"/>
    </g>
    <g id="line2d_77"/>
    <g id="text_43">
     <!-- Iteration 0 -->
     <g transform="translate(634.840625 134.040717)scale(0.1 -0.1)">
      <use xlink:href="#DejaVuSans-73"/>
      <use x="29.492188" xlink:href="#DejaVuSans-116"/>
      <use x="68.701172" xlink:href="#DejaVuSans-101"/>
      <use x="130.224609" xlink:href="#DejaVuSans-114"/>
      <use x="171.337891" xlink:href="#DejaVuSans-97"/>
      <use x="232.617188" xlink:href="#DejaVuSans-116"/>
      <use x="271.826172" xlink:href="#DejaVuSans-105"/>
      <use x="299.609375" xlink:href="#DejaVuSans-111"/>
      <use x="360.791016" xlink:href="#DejaVuSans-110"/>
      <use x="424.169922" xlink:href="#DejaVuSans-32"/>
      <use x="455.957031" xlink:href="#DejaVuSans-48"/>
     </g>
    </g>
   </g>
  </g>
 </g>
 <defs>
  <clipPath id="p12531cfbac">
   <rect height="227.704596" width="254.432812" x="44.425" y="14.695404"/>
  </clipPath>
  <clipPath id="p3317f5ed24">
   <rect height="227.704596" width="254.432812" x="343.407813" y="14.695404"/>
  </clipPath>
 </defs>
</svg>
