<?xml version="1.0" encoding="utf-8" standalone="no"?>
<!DOCTYPE svg PUBLIC "-//W3C//DTD SVG 1.1//EN"
  "http://www.w3.org/Graphics/SVG/1.1/DTD/svg11.dtd">
<!-- Created with matplotlib (https://matplotlib.org/) -->
<svg height="288pt" version="1.1" viewBox="0 0 720 288" width="720pt" xmlns="http://www.w3.org/2000/svg" xmlns:xlink="http://www.w3.org/1999/xlink">
 <defs>
  <style type="text/css">
*{stroke-linecap:butt;stroke-linejoin:round;}
  </style>
 </defs>
 <g id="figure_1">
  <g id="patch_1">
   <path d="M 0 288 
L 720 288 
L 720 0 
L 0 0 
z
" style="fill:#ffffff;"/>
  </g>
  <g id="axes_1">
   <g id="patch_2">
    <path d="M 44.425 237.56 
L 298.857812 237.56 
L 298.857812 29.095404 
L 44.425 29.095404 
z
" style="fill:#ffffff;"/>
   </g>
   <g id="matplotlib.axis_1">
    <g id="xtick_1">
     <g id="line2d_1">
      <defs>
       <path d="M 0 0 
L 0 3.5 
" id="m1793d110e1" style="stroke:#000000;stroke-width:0.8;"/>
      </defs>
      <g>
       <use style="stroke:#000000;stroke-width:0.8;" x="44.425" xlink:href="#m1793d110e1" y="237.56"/>
      </g>
     </g>
     <g id="text_1">
      <!-- 0.00 -->
      <defs>
       <path d="M 31.78125 66.40625 
Q 24.171875 66.40625 20.328125 58.90625 
Q 16.5 51.421875 16.5 36.375 
Q 16.5 21.390625 20.328125 13.890625 
Q 24.171875 6.390625 31.78125 6.390625 
Q 39.453125 6.390625 43.28125 13.890625 
Q 47.125 21.390625 47.125 36.375 
Q 47.125 51.421875 43.28125 58.90625 
Q 39.453125 66.40625 31.78125 66.40625 
z
M 31.78125 74.21875 
Q 44.046875 74.21875 50.515625 64.515625 
Q 56.984375 54.828125 56.984375 36.375 
Q 56.984375 17.96875 50.515625 8.265625 
Q 44.046875 -1.421875 31.78125 -1.421875 
Q 19.53125 -1.421875 13.0625 8.265625 
Q 6.59375 17.96875 6.59375 36.375 
Q 6.59375 54.828125 13.0625 64.515625 
Q 19.53125 74.21875 31.78125 74.21875 
z
" id="DejaVuSans-48"/>
       <path d="M 10.6875 12.40625 
L 21 12.40625 
L 21 0 
L 10.6875 0 
z
" id="DejaVuSans-46"/>
      </defs>
      <g transform="translate(33.292187 252.158438)scale(0.1 -0.1)">
       <use xlink:href="#DejaVuSans-48"/>
       <use x="63.623047" xlink:href="#DejaVuSans-46"/>
       <use x="95.410156" xlink:href="#DejaVuSans-48"/>
       <use x="159.033203" xlink:href="#DejaVuSans-48"/>
      </g>
     </g>
    </g>
    <g id="xtick_2">
     <g id="line2d_2">
      <g>
       <use style="stroke:#000000;stroke-width:0.8;" x="78.349375" xlink:href="#m1793d110e1" y="237.56"/>
      </g>
     </g>
     <g id="text_2">
      <!-- 0.02 -->
      <defs>
       <path d="M 19.1875 8.296875 
L 53.609375 8.296875 
L 53.609375 0 
L 7.328125 0 
L 7.328125 8.296875 
Q 12.9375 14.109375 22.625 23.890625 
Q 32.328125 33.6875 34.8125 36.53125 
Q 39.546875 41.84375 41.421875 45.53125 
Q 43.3125 49.21875 43.3125 52.78125 
Q 43.3125 58.59375 39.234375 62.25 
Q 35.15625 65.921875 28.609375 65.921875 
Q 23.96875 65.921875 18.8125 64.3125 
Q 13.671875 62.703125 7.8125 59.421875 
L 7.8125 69.390625 
Q 13.765625 71.78125 18.9375 73 
Q 24.125 74.21875 28.421875 74.21875 
Q 39.75 74.21875 46.484375 68.546875 
Q 53.21875 62.890625 53.21875 53.421875 
Q 53.21875 48.921875 51.53125 44.890625 
Q 49.859375 40.875 45.40625 35.40625 
Q 44.1875 33.984375 37.640625 27.21875 
Q 31.109375 20.453125 19.1875 8.296875 
z
" id="DejaVuSans-50"/>
      </defs>
      <g transform="translate(67.216562 252.158438)scale(0.1 -0.1)">
       <use xlink:href="#DejaVuSans-48"/>
       <use x="63.623047" xlink:href="#DejaVuSans-46"/>
       <use x="95.410156" xlink:href="#DejaVuSans-48"/>
       <use x="159.033203" xlink:href="#DejaVuSans-50"/>
      </g>
     </g>
    </g>
    <g id="xtick_3">
     <g id="line2d_3">
      <g>
       <use style="stroke:#000000;stroke-width:0.8;" x="112.27375" xlink:href="#m1793d110e1" y="237.56"/>
      </g>
     </g>
     <g id="text_3">
      <!-- 0.04 -->
      <defs>
       <path d="M 37.796875 64.3125 
L 12.890625 25.390625 
L 37.796875 25.390625 
z
M 35.203125 72.90625 
L 47.609375 72.90625 
L 47.609375 25.390625 
L 58.015625 25.390625 
L 58.015625 17.1875 
L 47.609375 17.1875 
L 47.609375 0 
L 37.796875 0 
L 37.796875 17.1875 
L 4.890625 17.1875 
L 4.890625 26.703125 
z
" id="DejaVuSans-52"/>
      </defs>
      <g transform="translate(101.140937 252.158438)scale(0.1 -0.1)">
       <use xlink:href="#DejaVuSans-48"/>
       <use x="63.623047" xlink:href="#DejaVuSans-46"/>
       <use x="95.410156" xlink:href="#DejaVuSans-48"/>
       <use x="159.033203" xlink:href="#DejaVuSans-52"/>
      </g>
     </g>
    </g>
    <g id="xtick_4">
     <g id="line2d_4">
      <g>
       <use style="stroke:#000000;stroke-width:0.8;" x="146.198125" xlink:href="#m1793d110e1" y="237.56"/>
      </g>
     </g>
     <g id="text_4">
      <!-- 0.06 -->
      <defs>
       <path d="M 33.015625 40.375 
Q 26.375 40.375 22.484375 35.828125 
Q 18.609375 31.296875 18.609375 23.390625 
Q 18.609375 15.53125 22.484375 10.953125 
Q 26.375 6.390625 33.015625 6.390625 
Q 39.65625 6.390625 43.53125 10.953125 
Q 47.40625 15.53125 47.40625 23.390625 
Q 47.40625 31.296875 43.53125 35.828125 
Q 39.65625 40.375 33.015625 40.375 
z
M 52.59375 71.296875 
L 52.59375 62.3125 
Q 48.875 64.0625 45.09375 64.984375 
Q 41.3125 65.921875 37.59375 65.921875 
Q 27.828125 65.921875 22.671875 59.328125 
Q 17.53125 52.734375 16.796875 39.40625 
Q 19.671875 43.65625 24.015625 45.921875 
Q 28.375 48.1875 33.59375 48.1875 
Q 44.578125 48.1875 50.953125 41.515625 
Q 57.328125 34.859375 57.328125 23.390625 
Q 57.328125 12.15625 50.6875 5.359375 
Q 44.046875 -1.421875 33.015625 -1.421875 
Q 20.359375 -1.421875 13.671875 8.265625 
Q 6.984375 17.96875 6.984375 36.375 
Q 6.984375 53.65625 15.1875 63.9375 
Q 23.390625 74.21875 37.203125 74.21875 
Q 40.921875 74.21875 44.703125 73.484375 
Q 48.484375 72.75 52.59375 71.296875 
z
" id="DejaVuSans-54"/>
      </defs>
      <g transform="translate(135.065312 252.158438)scale(0.1 -0.1)">
       <use xlink:href="#DejaVuSans-48"/>
       <use x="63.623047" xlink:href="#DejaVuSans-46"/>
       <use x="95.410156" xlink:href="#DejaVuSans-48"/>
       <use x="159.033203" xlink:href="#DejaVuSans-54"/>
      </g>
     </g>
    </g>
    <g id="xtick_5">
     <g id="line2d_5">
      <g>
       <use style="stroke:#000000;stroke-width:0.8;" x="180.1225" xlink:href="#m1793d110e1" y="237.56"/>
      </g>
     </g>
     <g id="text_5">
      <!-- 0.08 -->
      <defs>
       <path d="M 31.78125 34.625 
Q 24.75 34.625 20.71875 30.859375 
Q 16.703125 27.09375 16.703125 20.515625 
Q 16.703125 13.921875 20.71875 10.15625 
Q 24.75 6.390625 31.78125 6.390625 
Q 38.8125 6.390625 42.859375 10.171875 
Q 46.921875 13.96875 46.921875 20.515625 
Q 46.921875 27.09375 42.890625 30.859375 
Q 38.875 34.625 31.78125 34.625 
z
M 21.921875 38.8125 
Q 15.578125 40.375 12.03125 44.71875 
Q 8.5 49.078125 8.5 55.328125 
Q 8.5 64.0625 14.71875 69.140625 
Q 20.953125 74.21875 31.78125 74.21875 
Q 42.671875 74.21875 48.875 69.140625 
Q 55.078125 64.0625 55.078125 55.328125 
Q 55.078125 49.078125 51.53125 44.71875 
Q 48 40.375 41.703125 38.8125 
Q 48.828125 37.15625 52.796875 32.3125 
Q 56.78125 27.484375 56.78125 20.515625 
Q 56.78125 9.90625 50.3125 4.234375 
Q 43.84375 -1.421875 31.78125 -1.421875 
Q 19.734375 -1.421875 13.25 4.234375 
Q 6.78125 9.90625 6.78125 20.515625 
Q 6.78125 27.484375 10.78125 32.3125 
Q 14.796875 37.15625 21.921875 38.8125 
z
M 18.3125 54.390625 
Q 18.3125 48.734375 21.84375 45.5625 
Q 25.390625 42.390625 31.78125 42.390625 
Q 38.140625 42.390625 41.71875 45.5625 
Q 45.3125 48.734375 45.3125 54.390625 
Q 45.3125 60.0625 41.71875 63.234375 
Q 38.140625 66.40625 31.78125 66.40625 
Q 25.390625 66.40625 21.84375 63.234375 
Q 18.3125 60.0625 18.3125 54.390625 
z
" id="DejaVuSans-56"/>
      </defs>
      <g transform="translate(168.989688 252.158438)scale(0.1 -0.1)">
       <use xlink:href="#DejaVuSans-48"/>
       <use x="63.623047" xlink:href="#DejaVuSans-46"/>
       <use x="95.410156" xlink:href="#DejaVuSans-48"/>
       <use x="159.033203" xlink:href="#DejaVuSans-56"/>
      </g>
     </g>
    </g>
    <g id="xtick_6">
     <g id="line2d_6">
      <g>
       <use style="stroke:#000000;stroke-width:0.8;" x="214.046875" xlink:href="#m1793d110e1" y="237.56"/>
      </g>
     </g>
     <g id="text_6">
      <!-- 0.10 -->
      <defs>
       <path d="M 12.40625 8.296875 
L 28.515625 8.296875 
L 28.515625 63.921875 
L 10.984375 60.40625 
L 10.984375 69.390625 
L 28.421875 72.90625 
L 38.28125 72.90625 
L 38.28125 8.296875 
L 54.390625 8.296875 
L 54.390625 0 
L 12.40625 0 
z
" id="DejaVuSans-49"/>
      </defs>
      <g transform="translate(202.914062 252.158438)scale(0.1 -0.1)">
       <use xlink:href="#DejaVuSans-48"/>
       <use x="63.623047" xlink:href="#DejaVuSans-46"/>
       <use x="95.410156" xlink:href="#DejaVuSans-49"/>
       <use x="159.033203" xlink:href="#DejaVuSans-48"/>
      </g>
     </g>
    </g>
    <g id="xtick_7">
     <g id="line2d_7">
      <g>
       <use style="stroke:#000000;stroke-width:0.8;" x="247.97125" xlink:href="#m1793d110e1" y="237.56"/>
      </g>
     </g>
     <g id="text_7">
      <!-- 0.12 -->
      <g transform="translate(236.838437 252.158438)scale(0.1 -0.1)">
       <use xlink:href="#DejaVuSans-48"/>
       <use x="63.623047" xlink:href="#DejaVuSans-46"/>
       <use x="95.410156" xlink:href="#DejaVuSans-49"/>
       <use x="159.033203" xlink:href="#DejaVuSans-50"/>
      </g>
     </g>
    </g>
    <g id="xtick_8">
     <g id="line2d_8">
      <g>
       <use style="stroke:#000000;stroke-width:0.8;" x="281.895625" xlink:href="#m1793d110e1" y="237.56"/>
      </g>
     </g>
     <g id="text_8">
      <!-- 0.14 -->
      <g transform="translate(270.762812 252.158438)scale(0.1 -0.1)">
       <use xlink:href="#DejaVuSans-48"/>
       <use x="63.623047" xlink:href="#DejaVuSans-46"/>
       <use x="95.410156" xlink:href="#DejaVuSans-49"/>
       <use x="159.033203" xlink:href="#DejaVuSans-52"/>
      </g>
     </g>
    </g>
    <g id="text_9">
     <!-- p0 -->
     <defs>
      <path d="M 18.109375 8.203125 
L 18.109375 -20.796875 
L 9.078125 -20.796875 
L 9.078125 54.6875 
L 18.109375 54.6875 
L 18.109375 46.390625 
Q 20.953125 51.265625 25.265625 53.625 
Q 29.59375 56 35.59375 56 
Q 45.5625 56 51.78125 48.09375 
Q 58.015625 40.1875 58.015625 27.296875 
Q 58.015625 14.40625 51.78125 6.484375 
Q 45.5625 -1.421875 35.59375 -1.421875 
Q 29.59375 -1.421875 25.265625 0.953125 
Q 20.953125 3.328125 18.109375 8.203125 
z
M 48.6875 27.296875 
Q 48.6875 37.203125 44.609375 42.84375 
Q 40.53125 48.484375 33.40625 48.484375 
Q 26.265625 48.484375 22.1875 42.84375 
Q 18.109375 37.203125 18.109375 27.296875 
Q 18.109375 17.390625 22.1875 11.75 
Q 26.265625 6.109375 33.40625 6.109375 
Q 40.53125 6.109375 44.609375 11.75 
Q 48.6875 17.390625 48.6875 27.296875 
z
" id="DejaVuSans-112"/>
     </defs>
     <g transform="translate(165.285937 265.836563)scale(0.1 -0.1)">
      <use xlink:href="#DejaVuSans-112"/>
      <use x="63.476562" xlink:href="#DejaVuSans-48"/>
     </g>
    </g>
   </g>
   <g id="matplotlib.axis_2">
    <g id="ytick_1">
     <g id="line2d_9">
      <defs>
       <path d="M 0 0 
L -3.5 0 
" id="m975175f0eb" style="stroke:#000000;stroke-width:0.8;"/>
      </defs>
      <g>
       <use style="stroke:#000000;stroke-width:0.8;" x="44.425" xlink:href="#m975175f0eb" y="228.084337"/>
      </g>
     </g>
     <g id="text_10">
      <!-- 0 -->
      <g transform="translate(31.0625 231.883555)scale(0.1 -0.1)">
       <use xlink:href="#DejaVuSans-48"/>
      </g>
     </g>
    </g>
    <g id="ytick_2">
     <g id="line2d_10">
      <g>
       <use style="stroke:#000000;stroke-width:0.8;" x="44.425" xlink:href="#m975175f0eb" y="196.443196"/>
      </g>
     </g>
     <g id="text_11">
      <!-- 10 -->
      <g transform="translate(24.7 200.242415)scale(0.1 -0.1)">
       <use xlink:href="#DejaVuSans-49"/>
       <use x="63.623047" xlink:href="#DejaVuSans-48"/>
      </g>
     </g>
    </g>
    <g id="ytick_3">
     <g id="line2d_11">
      <g>
       <use style="stroke:#000000;stroke-width:0.8;" x="44.425" xlink:href="#m975175f0eb" y="164.802056"/>
      </g>
     </g>
     <g id="text_12">
      <!-- 20 -->
      <g transform="translate(24.7 168.601275)scale(0.1 -0.1)">
       <use xlink:href="#DejaVuSans-50"/>
       <use x="63.623047" xlink:href="#DejaVuSans-48"/>
      </g>
     </g>
    </g>
    <g id="ytick_4">
     <g id="line2d_12">
      <g>
       <use style="stroke:#000000;stroke-width:0.8;" x="44.425" xlink:href="#m975175f0eb" y="133.160916"/>
      </g>
     </g>
     <g id="text_13">
      <!-- 30 -->
      <defs>
       <path d="M 40.578125 39.3125 
Q 47.65625 37.796875 51.625 33 
Q 55.609375 28.21875 55.609375 21.1875 
Q 55.609375 10.40625 48.1875 4.484375 
Q 40.765625 -1.421875 27.09375 -1.421875 
Q 22.515625 -1.421875 17.65625 -0.515625 
Q 12.796875 0.390625 7.625 2.203125 
L 7.625 11.71875 
Q 11.71875 9.328125 16.59375 8.109375 
Q 21.484375 6.890625 26.8125 6.890625 
Q 36.078125 6.890625 40.9375 10.546875 
Q 45.796875 14.203125 45.796875 21.1875 
Q 45.796875 27.640625 41.28125 31.265625 
Q 36.765625 34.90625 28.71875 34.90625 
L 20.21875 34.90625 
L 20.21875 43.015625 
L 29.109375 43.015625 
Q 36.375 43.015625 40.234375 45.921875 
Q 44.09375 48.828125 44.09375 54.296875 
Q 44.09375 59.90625 40.109375 62.90625 
Q 36.140625 65.921875 28.71875 65.921875 
Q 24.65625 65.921875 20.015625 65.03125 
Q 15.375 64.15625 9.8125 62.3125 
L 9.8125 71.09375 
Q 15.4375 72.65625 20.34375 73.4375 
Q 25.25 74.21875 29.59375 74.21875 
Q 40.828125 74.21875 47.359375 69.109375 
Q 53.90625 64.015625 53.90625 55.328125 
Q 53.90625 49.265625 50.4375 45.09375 
Q 46.96875 40.921875 40.578125 39.3125 
z
" id="DejaVuSans-51"/>
      </defs>
      <g transform="translate(24.7 136.960134)scale(0.1 -0.1)">
       <use xlink:href="#DejaVuSans-51"/>
       <use x="63.623047" xlink:href="#DejaVuSans-48"/>
      </g>
     </g>
    </g>
    <g id="ytick_5">
     <g id="line2d_13">
      <g>
       <use style="stroke:#000000;stroke-width:0.8;" x="44.425" xlink:href="#m975175f0eb" y="101.519775"/>
      </g>
     </g>
     <g id="text_14">
      <!-- 40 -->
      <g transform="translate(24.7 105.318994)scale(0.1 -0.1)">
       <use xlink:href="#DejaVuSans-52"/>
       <use x="63.623047" xlink:href="#DejaVuSans-48"/>
      </g>
     </g>
    </g>
    <g id="ytick_6">
     <g id="line2d_14">
      <g>
       <use style="stroke:#000000;stroke-width:0.8;" x="44.425" xlink:href="#m975175f0eb" y="69.878635"/>
      </g>
     </g>
     <g id="text_15">
      <!-- 50 -->
      <defs>
       <path d="M 10.796875 72.90625 
L 49.515625 72.90625 
L 49.515625 64.59375 
L 19.828125 64.59375 
L 19.828125 46.734375 
Q 21.96875 47.46875 24.109375 47.828125 
Q 26.265625 48.1875 28.421875 48.1875 
Q 40.625 48.1875 47.75 41.5 
Q 54.890625 34.8125 54.890625 23.390625 
Q 54.890625 11.625 47.5625 5.09375 
Q 40.234375 -1.421875 26.90625 -1.421875 
Q 22.3125 -1.421875 17.546875 -0.640625 
Q 12.796875 0.140625 7.71875 1.703125 
L 7.71875 11.625 
Q 12.109375 9.234375 16.796875 8.0625 
Q 21.484375 6.890625 26.703125 6.890625 
Q 35.15625 6.890625 40.078125 11.328125 
Q 45.015625 15.765625 45.015625 23.390625 
Q 45.015625 31 40.078125 35.4375 
Q 35.15625 39.890625 26.703125 39.890625 
Q 22.75 39.890625 18.8125 39.015625 
Q 14.890625 38.140625 10.796875 36.28125 
z
" id="DejaVuSans-53"/>
      </defs>
      <g transform="translate(24.7 73.677854)scale(0.1 -0.1)">
       <use xlink:href="#DejaVuSans-53"/>
       <use x="63.623047" xlink:href="#DejaVuSans-48"/>
      </g>
     </g>
    </g>
    <g id="ytick_7">
     <g id="line2d_15">
      <g>
       <use style="stroke:#000000;stroke-width:0.8;" x="44.425" xlink:href="#m975175f0eb" y="38.237495"/>
      </g>
     </g>
     <g id="text_16">
      <!-- 60 -->
      <g transform="translate(24.7 42.036713)scale(0.1 -0.1)">
       <use xlink:href="#DejaVuSans-54"/>
       <use x="63.623047" xlink:href="#DejaVuSans-48"/>
      </g>
     </g>
    </g>
    <g id="text_17">
     <!-- Posterior -->
     <defs>
      <path d="M 19.671875 64.796875 
L 19.671875 37.40625 
L 32.078125 37.40625 
Q 38.96875 37.40625 42.71875 40.96875 
Q 46.484375 44.53125 46.484375 51.125 
Q 46.484375 57.671875 42.71875 61.234375 
Q 38.96875 64.796875 32.078125 64.796875 
z
M 9.8125 72.90625 
L 32.078125 72.90625 
Q 44.34375 72.90625 50.609375 67.359375 
Q 56.890625 61.8125 56.890625 51.125 
Q 56.890625 40.328125 50.609375 34.8125 
Q 44.34375 29.296875 32.078125 29.296875 
L 19.671875 29.296875 
L 19.671875 0 
L 9.8125 0 
z
" id="DejaVuSans-80"/>
      <path d="M 30.609375 48.390625 
Q 23.390625 48.390625 19.1875 42.75 
Q 14.984375 37.109375 14.984375 27.296875 
Q 14.984375 17.484375 19.15625 11.84375 
Q 23.34375 6.203125 30.609375 6.203125 
Q 37.796875 6.203125 41.984375 11.859375 
Q 46.1875 17.53125 46.1875 27.296875 
Q 46.1875 37.015625 41.984375 42.703125 
Q 37.796875 48.390625 30.609375 48.390625 
z
M 30.609375 56 
Q 42.328125 56 49.015625 48.375 
Q 55.71875 40.765625 55.71875 27.296875 
Q 55.71875 13.875 49.015625 6.21875 
Q 42.328125 -1.421875 30.609375 -1.421875 
Q 18.84375 -1.421875 12.171875 6.21875 
Q 5.515625 13.875 5.515625 27.296875 
Q 5.515625 40.765625 12.171875 48.375 
Q 18.84375 56 30.609375 56 
z
" id="DejaVuSans-111"/>
      <path d="M 44.28125 53.078125 
L 44.28125 44.578125 
Q 40.484375 46.53125 36.375 47.5 
Q 32.28125 48.484375 27.875 48.484375 
Q 21.1875 48.484375 17.84375 46.4375 
Q 14.5 44.390625 14.5 40.28125 
Q 14.5 37.15625 16.890625 35.375 
Q 19.28125 33.59375 26.515625 31.984375 
L 29.59375 31.296875 
Q 39.15625 29.25 43.1875 25.515625 
Q 47.21875 21.78125 47.21875 15.09375 
Q 47.21875 7.46875 41.1875 3.015625 
Q 35.15625 -1.421875 24.609375 -1.421875 
Q 20.21875 -1.421875 15.453125 -0.5625 
Q 10.6875 0.296875 5.421875 2 
L 5.421875 11.28125 
Q 10.40625 8.6875 15.234375 7.390625 
Q 20.0625 6.109375 24.8125 6.109375 
Q 31.15625 6.109375 34.5625 8.28125 
Q 37.984375 10.453125 37.984375 14.40625 
Q 37.984375 18.0625 35.515625 20.015625 
Q 33.0625 21.96875 24.703125 23.78125 
L 21.578125 24.515625 
Q 13.234375 26.265625 9.515625 29.90625 
Q 5.8125 33.546875 5.8125 39.890625 
Q 5.8125 47.609375 11.28125 51.796875 
Q 16.75 56 26.8125 56 
Q 31.78125 56 36.171875 55.265625 
Q 40.578125 54.546875 44.28125 53.078125 
z
" id="DejaVuSans-115"/>
      <path d="M 18.3125 70.21875 
L 18.3125 54.6875 
L 36.8125 54.6875 
L 36.8125 47.703125 
L 18.3125 47.703125 
L 18.3125 18.015625 
Q 18.3125 11.328125 20.140625 9.421875 
Q 21.96875 7.515625 27.59375 7.515625 
L 36.8125 7.515625 
L 36.8125 0 
L 27.59375 0 
Q 17.1875 0 13.234375 3.875 
Q 9.28125 7.765625 9.28125 18.015625 
L 9.28125 47.703125 
L 2.6875 47.703125 
L 2.6875 54.6875 
L 9.28125 54.6875 
L 9.28125 70.21875 
z
" id="DejaVuSans-116"/>
      <path d="M 56.203125 29.59375 
L 56.203125 25.203125 
L 14.890625 25.203125 
Q 15.484375 15.921875 20.484375 11.0625 
Q 25.484375 6.203125 34.421875 6.203125 
Q 39.59375 6.203125 44.453125 7.46875 
Q 49.3125 8.734375 54.109375 11.28125 
L 54.109375 2.78125 
Q 49.265625 0.734375 44.1875 -0.34375 
Q 39.109375 -1.421875 33.890625 -1.421875 
Q 20.796875 -1.421875 13.15625 6.1875 
Q 5.515625 13.8125 5.515625 26.8125 
Q 5.515625 40.234375 12.765625 48.109375 
Q 20.015625 56 32.328125 56 
Q 43.359375 56 49.78125 48.890625 
Q 56.203125 41.796875 56.203125 29.59375 
z
M 47.21875 32.234375 
Q 47.125 39.59375 43.09375 43.984375 
Q 39.0625 48.390625 32.421875 48.390625 
Q 24.90625 48.390625 20.390625 44.140625 
Q 15.875 39.890625 15.1875 32.171875 
z
" id="DejaVuSans-101"/>
      <path d="M 41.109375 46.296875 
Q 39.59375 47.171875 37.8125 47.578125 
Q 36.03125 48 33.890625 48 
Q 26.265625 48 22.1875 43.046875 
Q 18.109375 38.09375 18.109375 28.8125 
L 18.109375 0 
L 9.078125 0 
L 9.078125 54.6875 
L 18.109375 54.6875 
L 18.109375 46.1875 
Q 20.953125 51.171875 25.484375 53.578125 
Q 30.03125 56 36.53125 56 
Q 37.453125 56 38.578125 55.875 
Q 39.703125 55.765625 41.0625 55.515625 
z
" id="DejaVuSans-114"/>
      <path d="M 9.421875 54.6875 
L 18.40625 54.6875 
L 18.40625 0 
L 9.421875 0 
z
M 9.421875 75.984375 
L 18.40625 75.984375 
L 18.40625 64.59375 
L 9.421875 64.59375 
z
" id="DejaVuSans-105"/>
     </defs>
     <g transform="translate(18.620312 155.600358)rotate(-90)scale(0.1 -0.1)">
      <use xlink:href="#DejaVuSans-80"/>
      <use x="60.255859" xlink:href="#DejaVuSans-111"/>
      <use x="121.4375" xlink:href="#DejaVuSans-115"/>
      <use x="173.537109" xlink:href="#DejaVuSans-116"/>
      <use x="212.746094" xlink:href="#DejaVuSans-101"/>
      <use x="274.269531" xlink:href="#DejaVuSans-114"/>
      <use x="315.382812" xlink:href="#DejaVuSans-105"/>
      <use x="343.166016" xlink:href="#DejaVuSans-111"/>
      <use x="404.347656" xlink:href="#DejaVuSans-114"/>
     </g>
    </g>
   </g>
   <g id="line2d_16">
    <path clip-path="url(#p73f6e7d61d)" d="M 44.425 228.084337 
L 46.995028 228.084337 
L 49.565057 228.084337 
L 52.135085 228.084337 
L 54.705114 228.084337 
L 57.275142 228.084337 
L 59.84517 228.084337 
L 62.415199 228.084337 
L 64.985227 228.084337 
L 67.555256 228.084337 
L 70.125284 228.084337 
L 72.695312 228.084337 
L 75.265341 228.084337 
L 77.835369 228.084337 
L 80.405398 228.084335 
L 82.975426 228.084302 
L 85.545455 228.08406 
L 88.115483 228.083179 
L 90.685511 228.080022 
L 93.25554 228.069583 
L 95.825568 228.037597 
L 98.395597 227.946217 
L 100.965625 227.701825 
L 103.535653 227.088042 
L 106.105682 225.63747 
L 108.67571 222.407156 
L 111.245739 215.625077 
L 113.815767 202.223083 
L 116.385795 177.561346 
L 118.955824 137.175556 
L 121.525852 88.016822 
L 124.095881 57.059481 
L 126.665909 43.125536 
L 129.235937 38.998879 
L 131.805966 41.340626 
L 134.375994 48.147139 
L 136.946023 57.887386 
L 139.516051 68.836752 
L 142.08608 80.0863 
L 144.656108 106.009279 
L 147.226136 144.751973 
L 149.796165 171.515786 
L 152.366193 189.880636 
L 154.936222 202.555961 
L 157.50625 211.297701 
L 160.076278 217.237833 
L 162.646307 221.177084 
L 165.216335 223.70749 
L 167.786364 225.306849 
L 170.356392 226.312676 
L 172.92642 226.945908 
L 175.496449 227.346417 
L 178.066477 227.601459 
L 180.636506 227.765193 
L 183.206534 227.87125 
L 185.776562 227.940595 
L 188.346591 227.986376 
L 190.916619 228.016895 
L 193.486648 228.03744 
L 196.056676 228.051404 
L 198.626705 228.060987 
L 201.196733 228.067625 
L 203.766761 228.072266 
L 206.33679 228.07554 
L 208.906818 228.07787 
L 211.476847 228.079542 
L 214.046875 228.080753 
L 216.616903 228.081636 
L 219.186932 228.082286 
L 221.75696 228.082768 
L 224.326989 228.083127 
L 226.897017 228.083398 
L 229.467045 228.083603 
L 232.037074 228.08376 
L 234.607102 228.08388 
L 237.177131 228.083972 
L 239.747159 228.084045 
L 242.317187 228.084101 
L 244.887216 228.084146 
L 247.457244 228.084181 
L 250.027273 228.084209 
L 252.597301 228.084231 
L 255.16733 228.084249 
L 257.737358 228.084264 
L 260.307386 228.084276 
L 262.877415 228.084286 
L 265.447443 228.084294 
L 268.017472 228.0843 
L 270.5875 228.084306 
L 273.157528 228.08431 
L 275.727557 228.084314 
L 278.297585 228.084317 
L 280.867614 228.08432 
L 283.437642 228.084322 
L 286.00767 228.084324 
L 288.577699 228.084325 
L 291.147727 228.084327 
L 293.717756 228.084328 
L 296.287784 228.084329 
L 298.857812 228.08433 
" style="fill:none;stroke:#808080;stroke-dasharray:5.55,2.4;stroke-dashoffset:0;stroke-width:1.5;"/>
   </g>
   <g id="line2d_17">
    <path clip-path="url(#p73f6e7d61d)" d="M 44.425 228.084337 
L 46.995028 228.084337 
L 49.565057 228.084337 
L 52.135085 228.084337 
L 54.705114 228.084337 
L 57.275142 228.084337 
L 59.84517 228.084337 
L 62.415199 228.084337 
L 64.985227 228.084337 
L 67.555256 228.084337 
L 70.125284 228.084337 
L 72.695312 228.084337 
L 75.265341 228.084337 
L 77.835369 228.084337 
L 80.405398 228.084337 
L 82.975426 228.084337 
L 85.545455 228.084337 
L 88.115483 228.084337 
L 90.685511 228.084337 
L 93.25554 228.084336 
L 95.825568 228.084279 
L 98.395597 228.082504 
L 100.965625 228.052873 
L 103.535653 227.782085 
L 106.105682 226.371736 
L 108.67571 221.954393 
L 111.245739 213.026841 
L 113.815767 199.444928 
L 116.385795 179.350227 
L 118.955824 150.48769 
L 121.525852 116.327005 
L 124.095881 81.547364 
L 126.665909 52.387615 
L 129.235937 38.709825 
L 131.805966 38.571068 
L 134.375994 41.920083 
L 136.946023 47.969768 
L 139.516051 60.901646 
L 142.08608 82.528465 
L 144.656108 110.294948 
L 147.226136 140.703511 
L 149.796165 169.50488 
L 152.366193 188.389893 
L 154.936222 197.402912 
L 157.50625 204.404519 
L 160.076278 211.048431 
L 162.646307 216.577835 
L 165.216335 221.219233 
L 167.786364 223.318267 
L 170.356392 221.911474 
L 172.92642 220.837971 
L 175.496449 223.277275 
L 178.066477 226.410042 
L 180.636506 227.780688 
L 183.206534 228.055689 
L 185.776562 228.082931 
L 188.346591 228.084301 
L 190.916619 228.084336 
L 193.486648 228.084337 
L 196.056676 228.084337 
L 198.626705 228.084337 
L 201.196733 228.084337 
L 203.766761 228.084337 
L 206.33679 228.084337 
L 208.906818 228.084337 
L 211.476847 228.084337 
L 214.046875 228.084337 
L 216.616903 228.084337 
L 219.186932 228.084337 
L 221.75696 228.084337 
L 224.326989 228.084337 
L 226.897017 228.084337 
L 229.467045 228.084337 
L 232.037074 228.084337 
L 234.607102 228.084337 
L 237.177131 228.084337 
L 239.747159 228.084337 
L 242.317187 228.084337 
L 244.887216 228.084337 
L 247.457244 228.084337 
L 250.027273 228.084337 
L 252.597301 228.084337 
L 255.16733 228.084337 
L 257.737358 228.084337 
L 260.307386 228.084337 
L 262.877415 228.084337 
L 265.447443 228.084337 
L 268.017472 228.084337 
L 270.5875 228.084337 
L 273.157528 228.084337 
L 275.727557 228.084337 
L 278.297585 228.084337 
L 280.867614 228.084337 
L 283.437642 228.084337 
L 286.00767 228.084337 
L 288.577699 228.084337 
L 291.147727 228.084337 
L 293.717756 228.084337 
L 296.287784 228.084337 
L 298.857812 228.084337 
" style="fill:none;stroke:#1f77b4;stroke-linecap:square;stroke-width:1.5;"/>
   </g>
   <g id="line2d_18">
    <path clip-path="url(#p73f6e7d61d)" d="M 146.198125 237.56 
L 146.198125 29.095404 
" style="fill:none;stroke:#808080;stroke-dasharray:1.5,2.475;stroke-dashoffset:0;stroke-width:1.5;"/>
   </g>
   <g id="line2d_19">
    <path clip-path="url(#p73f6e7d61d)" d="M 44.425 228.084337 
L 46.995028 228.084337 
L 49.565057 228.084337 
L 52.135085 228.084337 
L 54.705114 228.084337 
L 57.275142 228.084337 
L 59.84517 228.084337 
L 62.415199 228.084337 
L 64.985227 228.084337 
L 67.555256 228.084337 
L 70.125284 228.084337 
L 72.695312 228.084337 
L 75.265341 228.084337 
L 77.835369 228.084337 
L 80.405398 228.084335 
L 82.975426 228.084306 
L 85.545455 228.083829 
L 88.115483 228.078809 
L 90.685511 228.044109 
L 93.25554 227.885035 
L 95.825568 227.391445 
L 98.395597 226.312375 
L 100.965625 224.506903 
L 103.535653 221.79895 
L 106.105682 217.459487 
L 108.67571 209.983342 
L 111.245739 197.654885 
L 113.815767 179.675524 
L 116.385795 157.429981 
L 118.955824 134.440919 
L 121.525852 114.35275 
L 124.095881 99.472398 
L 126.665909 90.310225 
L 129.235937 85.160905 
L 131.805966 82.048664 
L 134.375994 81.412476 
L 136.946023 84.543399 
L 139.516051 90.979656 
L 142.08608 100.551999 
L 144.656108 114.673115 
L 147.226136 132.356284 
L 149.796165 149.624454 
L 152.366193 164.314568 
L 154.936222 176.995708 
L 157.50625 188.156207 
L 160.076278 197.459318 
L 162.646307 204.822703 
L 165.216335 210.736785 
L 167.786364 215.528503 
L 170.356392 218.92064 
L 172.92642 220.517398 
L 175.496449 220.62653 
L 178.066477 220.422529 
L 180.636506 221.053258 
L 183.206534 222.491436 
L 185.776562 223.970559 
L 188.346591 225.282416 
L 190.916619 226.525485 
L 193.486648 227.459055 
L 196.056676 227.914724 
L 198.626705 228.054002 
L 201.196733 228.080793 
L 203.766761 228.084067 
L 206.33679 228.084323 
L 208.906818 228.084336 
L 211.476847 228.084337 
L 214.046875 228.084337 
L 216.616903 228.084337 
L 219.186932 228.084337 
L 221.75696 228.084337 
L 224.326989 228.084337 
L 226.897017 228.084337 
L 229.467045 228.084337 
L 232.037074 228.084337 
L 234.607102 228.084337 
L 237.177131 228.084337 
L 239.747159 228.084337 
L 242.317187 228.084337 
L 244.887216 228.084337 
L 247.457244 228.084337 
L 250.027273 228.084337 
L 252.597301 228.084337 
L 255.16733 228.084337 
L 257.737358 228.084337 
L 260.307386 228.084337 
L 262.877415 228.084337 
L 265.447443 228.084337 
L 268.017472 228.084337 
L 270.5875 228.084337 
L 273.157528 228.084337 
L 275.727557 228.084337 
L 278.297585 228.084337 
L 280.867614 228.084337 
L 283.437642 228.084337 
L 286.00767 228.084337 
L 288.577699 228.084337 
L 291.147727 228.084337 
L 293.717756 228.084337 
L 296.287784 228.084337 
L 298.857812 228.084337 
" style="fill:none;stroke:#ff7f0e;stroke-linecap:square;stroke-width:1.5;"/>
   </g>
   <g id="line2d_20">
    <path clip-path="url(#p73f6e7d61d)" d="M 146.198125 237.56 
L 146.198125 29.095404 
" style="fill:none;stroke:#808080;stroke-dasharray:1.5,2.475;stroke-dashoffset:0;stroke-width:1.5;"/>
   </g>
   <g id="line2d_21">
    <path clip-path="url(#p73f6e7d61d)" d="M 44.425 228.07489 
L 46.995028 228.066893 
L 49.565057 228.053036 
L 52.135085 228.029729 
L 54.705114 227.991667 
L 57.275142 227.931273 
L 59.84517 227.838102 
L 62.415199 227.698254 
L 64.985227 227.49384 
L 67.555256 227.202601 
L 70.125284 226.797719 
L 72.695312 226.247888 
L 75.265341 225.517671 
L 77.835369 224.568181 
L 80.405398 223.358093 
L 82.975426 221.845059 
L 85.545455 219.987567 
L 88.115483 217.747329 
L 90.685511 215.092234 
L 93.25554 211.999848 
L 95.825568 208.461283 
L 98.395597 204.485126 
L 100.965625 200.100978 
L 103.535653 195.36205 
L 106.105682 190.346275 
L 108.67571 185.15552 
L 111.245739 179.91265 
L 113.815767 174.756451 
L 116.385795 169.834674 
L 118.955824 165.295677 
L 121.525852 161.279325 
L 124.095881 157.907967 
L 126.665909 155.278376 
L 129.235937 153.455549 
L 131.805966 152.469158 
L 134.375994 152.313145 
L 136.946023 152.948586 
L 139.516051 154.309373 
L 142.08608 156.309836 
L 144.656108 158.853039 
L 147.226136 161.838459 
L 149.796165 165.16796 
L 152.366193 168.749513 
L 154.936222 172.498713 
L 157.50625 176.338682 
L 160.076278 180.199275 
L 162.646307 184.016491 
L 165.216335 187.73269 
L 167.786364 191.297772 
L 170.356392 194.67097 
L 172.92642 197.822649 
L 175.496449 200.735385 
L 178.066477 203.403843 
L 180.636506 205.833278 
L 183.206534 208.036908 
L 185.776562 210.032655 
L 188.346591 211.839925 
L 190.916619 213.476969 
L 193.486648 214.959187 
L 196.056676 216.298456 
L 198.626705 217.503318 
L 201.196733 218.579757 
L 203.766761 219.532222 
L 206.33679 220.364663 
L 208.906818 221.081409 
L 211.476847 221.687838 
L 214.046875 222.190837 
L 216.616903 222.59905 
L 219.186932 222.922932 
L 221.75696 223.174611 
L 224.326989 223.367559 
L 226.897017 223.516117 
L 229.467045 223.63493 
L 232.037074 223.738373 
L 234.607102 223.840014 
L 237.177131 223.95212 
L 239.747159 224.085202 
L 242.317187 224.24754 
L 244.887216 224.444682 
L 247.457244 224.678962 
L 250.027273 224.949133 
L 252.597301 225.250281 
L 255.16733 225.574131 
L 257.737358 225.909823 
L 260.307386 226.245075 
L 262.877415 226.567585 
L 265.447443 226.866418 
L 268.017472 227.133125 
L 270.5875 227.362423 
L 273.157528 227.552351 
L 275.727557 227.70394 
L 278.297585 227.820546 
L 280.867614 227.90701 
L 283.437642 227.968827 
L 286.00767 228.011448 
L 288.577699 228.039792 
L 291.147727 228.057977 
L 293.717756 228.069235 
L 296.287784 228.075962 
L 298.857812 228.079841 
" style="fill:none;stroke:#2ca02c;stroke-linecap:square;stroke-width:1.5;"/>
   </g>
   <g id="line2d_22">
    <path clip-path="url(#p73f6e7d61d)" d="M 146.198125 237.56 
L 146.198125 29.095404 
" style="fill:none;stroke:#808080;stroke-dasharray:1.5,2.475;stroke-dashoffset:0;stroke-width:1.5;"/>
   </g>
   <g id="line2d_23">
    <path clip-path="url(#p73f6e7d61d)" d="M 44.425 227.255398 
L 46.995028 227.061522 
L 49.565057 226.831369 
L 52.135085 226.560364 
L 54.705114 226.243832 
L 57.275142 225.877108 
L 59.84517 225.455661 
L 62.415199 224.975228 
L 64.985227 224.431972 
L 67.555256 223.822634 
L 70.125284 223.144699 
L 72.695312 222.396554 
L 75.265341 221.577632 
L 77.835369 220.68855 
L 80.405398 219.731208 
L 82.975426 218.708869 
L 85.545455 217.626201 
L 88.115483 216.489274 
L 90.685511 215.305517 
L 93.25554 214.083632 
L 95.825568 212.833465 
L 98.395597 211.565834 
L 100.965625 210.292322 
L 103.535653 209.025044 
L 106.105682 207.776389 
L 108.67571 206.558749 
L 111.245739 205.38425 
L 113.815767 204.264484 
L 116.385795 203.210255 
L 118.955824 202.231355 
L 121.525852 201.336363 
L 124.095881 200.532489 
L 126.665909 199.825449 
L 129.235937 199.219394 
L 131.805966 198.716877 
L 134.375994 198.318861 
L 136.946023 198.024781 
L 139.516051 197.832629 
L 142.08608 197.739082 
L 144.656108 197.739659 
L 147.226136 197.828888 
L 149.796165 198.000506 
L 152.366193 198.247649 
L 154.936222 198.563058 
L 157.50625 198.939269 
L 160.076278 199.3688 
L 162.646307 199.844311 
L 165.216335 200.358751 
L 167.786364 200.905477 
L 170.356392 201.478337 
L 172.92642 202.071738 
L 175.496449 202.680671 
L 178.066477 203.30071 
L 180.636506 203.927995 
L 183.206534 204.559179 
L 185.776562 205.191363 
L 188.346591 205.822023 
L 190.916619 206.448921 
L 193.486648 207.070024 
L 196.056676 207.68342 
L 198.626705 208.287249 
L 201.196733 208.879646 
L 203.766761 209.458703 
L 206.33679 210.022455 
L 208.906818 210.568877 
L 211.476847 211.095912 
L 214.046875 211.601516 
L 216.616903 212.083712 
L 219.186932 212.540667 
L 221.75696 212.970761 
L 224.326989 213.372673 
L 226.897017 213.745449 
L 229.467045 214.088567 
L 232.037074 214.401984 
L 234.607102 214.686166 
L 237.177131 214.942094 
L 239.747159 215.171254 
L 242.317187 215.375593 
L 244.887216 215.557465 
L 247.457244 215.719557 
L 250.027273 215.864797 
L 252.597301 215.996258 
L 255.16733 216.117057 
L 257.737358 216.230254 
L 260.307386 216.338758 
L 262.877415 216.445248 
L 265.447443 216.552098 
L 268.017472 216.661329 
L 270.5875 216.774568 
L 273.157528 216.893032 
L 275.727557 217.017525 
L 278.297585 217.14845 
L 280.867614 217.285831 
L 283.437642 217.429351 
L 286.00767 217.578389 
L 288.577699 217.73207 
L 291.147727 217.889313 
L 293.717756 218.048875 
L 296.287784 218.209404 
L 298.857812 218.369483 
" style="fill:none;stroke:#d62728;stroke-linecap:square;stroke-width:1.5;"/>
   </g>
   <g id="line2d_24">
    <path clip-path="url(#p73f6e7d61d)" d="M 146.198125 237.56 
L 146.198125 29.095404 
" style="fill:none;stroke:#808080;stroke-dasharray:1.5,2.475;stroke-dashoffset:0;stroke-width:1.5;"/>
   </g>
   <g id="line2d_25">
    <path clip-path="url(#p73f6e7d61d)" d="M 44.425 226.522583 
L 46.995028 226.320956 
L 49.565057 226.10134 
L 52.135085 225.863273 
L 54.705114 225.606434 
L 57.275142 225.330654 
L 59.84517 225.035935 
L 62.415199 224.722452 
L 64.985227 224.390568 
L 67.555256 224.040837 
L 70.125284 223.674004 
L 72.695312 223.291005 
L 75.265341 222.892963 
L 77.835369 222.481179 
L 80.405398 222.05712 
L 82.975426 221.622407 
L 85.545455 221.178797 
L 88.115483 220.728164 
L 90.685511 220.272476 
L 93.25554 219.813778 
L 95.825568 219.354166 
L 98.395597 218.895761 
L 100.965625 218.440688 
L 103.535653 217.991055 
L 106.105682 217.548923 
L 108.67571 217.116294 
L 111.245739 216.695082 
L 113.815767 216.287103 
L 116.385795 215.89405 
L 118.955824 215.517485 
L 121.525852 215.158823 
L 124.095881 214.819321 
L 126.665909 214.50007 
L 129.235937 214.201986 
L 131.805966 213.92581 
L 134.375994 213.672099 
L 136.946023 213.441228 
L 139.516051 213.23339 
L 142.08608 213.048596 
L 144.656108 212.886682 
L 147.226136 212.747312 
L 149.796165 212.629986 
L 152.366193 212.534047 
L 154.936222 212.45869 
L 157.50625 212.402978 
L 160.076278 212.365846 
L 162.646307 212.346124 
L 165.216335 212.342541 
L 167.786364 212.35375 
L 170.356392 212.378337 
L 172.92642 212.414841 
L 175.496449 212.46177 
L 178.066477 212.517619 
L 180.636506 212.580886 
L 183.206534 212.650091 
L 185.776562 212.723791 
L 188.346591 212.800596 
L 190.916619 212.879188 
L 193.486648 212.95833 
L 196.056676 213.036886 
L 198.626705 213.113825 
L 201.196733 213.188237 
L 203.766761 213.259341 
L 206.33679 213.326488 
L 208.906818 213.389167 
L 211.476847 213.447009 
L 214.046875 213.49978 
L 216.616903 213.547385 
L 219.186932 213.589859 
L 221.75696 213.627357 
L 224.326989 213.660146 
L 226.897017 213.688591 
L 229.467045 213.713143 
L 232.037074 213.734317 
L 234.607102 213.752683 
L 237.177131 213.768842 
L 239.747159 213.783411 
L 242.317187 213.797006 
L 244.887216 213.810226 
L 247.457244 213.823636 
L 250.027273 213.837757 
L 252.597301 213.853057 
L 255.16733 213.869938 
L 257.737358 213.888739 
L 260.307386 213.909729 
L 262.877415 213.933113 
L 265.447443 213.959032 
L 268.017472 213.987573 
L 270.5875 214.018777 
L 273.157528 214.052648 
L 275.727557 214.089167 
L 278.297585 214.128302 
L 280.867614 214.170019 
L 283.437642 214.214293 
L 286.00767 214.261114 
L 288.577699 214.310497 
L 291.147727 214.362483 
L 293.717756 214.417144 
L 296.287784 214.474576 
L 298.857812 214.534899 
" style="fill:none;stroke:#9467bd;stroke-linecap:square;stroke-width:1.5;"/>
   </g>
   <g id="line2d_26">
    <path clip-path="url(#p73f6e7d61d)" d="M 146.198125 237.56 
L 146.198125 29.095404 
" style="fill:none;stroke:#808080;stroke-dasharray:1.5,2.475;stroke-dashoffset:0;stroke-width:1.5;"/>
   </g>
   <g id="line2d_27">
    <path clip-path="url(#p73f6e7d61d)" d="M 44.425 226.590491 
L 46.995028 226.423507 
L 49.565057 226.244196 
L 52.135085 226.052445 
L 54.705114 225.848239 
L 57.275142 225.631663 
L 59.84517 225.402905 
L 62.415199 225.162263 
L 64.985227 224.910142 
L 67.555256 224.647056 
L 70.125284 224.373623 
L 72.695312 224.09056 
L 75.265341 223.798682 
L 77.835369 223.498885 
L 80.405398 223.192144 
L 82.975426 222.879501 
L 85.545455 222.562048 
L 88.115483 222.240921 
L 90.685511 221.917282 
L 93.25554 221.592306 
L 95.825568 221.26717 
L 98.395597 220.943036 
L 100.965625 220.621039 
L 103.535653 220.302275 
L 106.105682 219.987792 
L 108.67571 219.678573 
L 111.245739 219.375537 
L 113.815767 219.079523 
L 116.385795 218.791287 
L 118.955824 218.511498 
L 121.525852 218.240736 
L 124.095881 217.979487 
L 126.665909 217.728145 
L 129.235937 217.487013 
L 131.805966 217.256305 
L 134.375994 217.036148 
L 136.946023 216.826586 
L 139.516051 216.627589 
L 142.08608 216.439051 
L 144.656108 216.260803 
L 147.226136 216.092615 
L 149.796165 215.934204 
L 152.366193 215.785241 
L 154.936222 215.645357 
L 157.50625 215.514151 
L 160.076278 215.391196 
L 162.646307 215.276044 
L 165.216335 215.16824 
L 167.786364 215.067318 
L 170.356392 214.972818 
L 172.92642 214.884285 
L 175.496449 214.80128 
L 178.066477 214.723382 
L 180.636506 214.650197 
L 183.206534 214.581362 
L 185.776562 214.516551 
L 188.346591 214.455476 
L 190.916619 214.397895 
L 193.486648 214.343611 
L 196.056676 214.292475 
L 198.626705 214.244388 
L 201.196733 214.199299 
L 203.766761 214.157204 
L 206.33679 214.118144 
L 208.906818 214.082199 
L 211.476847 214.049486 
L 214.046875 214.020147 
L 216.616903 213.99435 
L 219.186932 213.972274 
L 221.75696 213.954104 
L 224.326989 213.940019 
L 226.897017 213.930188 
L 229.467045 213.924756 
L 232.037074 213.923841 
L 234.607102 213.927521 
L 237.177131 213.935833 
L 239.747159 213.948765 
L 242.317187 213.966254 
L 244.887216 213.988186 
L 247.457244 214.014392 
L 250.027273 214.044654 
L 252.597301 214.078708 
L 255.16733 214.116248 
L 257.737358 214.156932 
L 260.307386 214.200395 
L 262.877415 214.246252 
L 265.447443 214.294111 
L 268.017472 214.34358 
L 270.5875 214.394281 
L 273.157528 214.445852 
L 275.727557 214.497965 
L 278.297585 214.550323 
L 280.867614 214.602672 
L 283.437642 214.654806 
L 286.00767 214.706565 
L 288.577699 214.757841 
L 291.147727 214.808574 
L 293.717756 214.858755 
L 296.287784 214.908413 
L 298.857812 214.957624 
" style="fill:none;stroke:#8c564b;stroke-linecap:square;stroke-width:1.5;"/>
   </g>
   <g id="line2d_28">
    <path clip-path="url(#p73f6e7d61d)" d="M 146.198125 237.56 
L 146.198125 29.095404 
" style="fill:none;stroke:#808080;stroke-dasharray:1.5,2.475;stroke-dashoffset:0;stroke-width:1.5;"/>
   </g>
   <g id="line2d_29">
    <path clip-path="url(#p73f6e7d61d)" d="M 44.425 225.575298 
L 46.995028 225.400992 
L 49.565057 225.220374 
L 52.135085 225.033685 
L 54.705114 224.841204 
L 57.275142 224.643247 
L 59.84517 224.440164 
L 62.415199 224.232338 
L 64.985227 224.020185 
L 67.555256 223.804148 
L 70.125284 223.584698 
L 72.695312 223.362326 
L 75.265341 223.137546 
L 77.835369 222.910886 
L 80.405398 222.682885 
L 82.975426 222.454092 
L 85.545455 222.225058 
L 88.115483 221.996333 
L 90.685511 221.768463 
L 93.25554 221.541982 
L 95.825568 221.317412 
L 98.395597 221.095254 
L 100.965625 220.875989 
L 103.535653 220.660069 
L 106.105682 220.447917 
L 108.67571 220.239923 
L 111.245739 220.03644 
L 113.815767 219.837782 
L 116.385795 219.644224 
L 118.955824 219.455996 
L 121.525852 219.273288 
L 124.095881 219.096246 
L 126.665909 218.92497 
L 129.235937 218.75952 
L 131.805966 218.599913 
L 134.375994 218.446128 
L 136.946023 218.298104 
L 139.516051 218.155745 
L 142.08608 218.018924 
L 144.656108 217.887484 
L 147.226136 217.761243 
L 149.796165 217.639995 
L 152.366193 217.523521 
L 154.936222 217.411583 
L 157.50625 217.303937 
L 160.076278 217.200334 
L 162.646307 217.100523 
L 165.216335 217.004254 
L 167.786364 216.911288 
L 170.356392 216.821394 
L 172.92642 216.734355 
L 175.496449 216.649973 
L 178.066477 216.56807 
L 180.636506 216.488487 
L 183.206534 216.411096 
L 185.776562 216.335789 
L 188.346591 216.262489 
L 190.916619 216.191147 
L 193.486648 216.12174 
L 196.056676 216.054275 
L 198.626705 215.988787 
L 201.196733 215.925335 
L 203.766761 215.864004 
L 206.33679 215.804899 
L 208.906818 215.748148 
L 211.476847 215.693894 
L 214.046875 215.642295 
L 216.616903 215.593517 
L 219.186932 215.547738 
L 221.75696 215.505134 
L 224.326989 215.465884 
L 226.897017 215.430161 
L 229.467045 215.398132 
L 232.037074 215.369952 
L 234.607102 215.345759 
L 237.177131 215.325676 
L 239.747159 215.309805 
L 242.317187 215.298223 
L 244.887216 215.290982 
L 247.457244 215.288109 
L 250.027273 215.2896 
L 252.597301 215.295423 
L 255.16733 215.305516 
L 257.737358 215.319788 
L 260.307386 215.338119 
L 262.877415 215.360362 
L 265.447443 215.386341 
L 268.017472 215.415859 
L 270.5875 215.448697 
L 273.157528 215.484614 
L 275.727557 215.523357 
L 278.297585 215.564658 
L 280.867614 215.608243 
L 283.437642 215.65383 
L 286.00767 215.70114 
L 288.577699 215.749896 
L 291.147727 215.799829 
L 293.717756 215.850683 
L 296.287784 215.902218 
L 298.857812 215.954212 
" style="fill:none;stroke:#e377c2;stroke-linecap:square;stroke-width:1.5;"/>
   </g>
   <g id="line2d_30">
    <path clip-path="url(#p73f6e7d61d)" d="M 146.198125 237.56 
L 146.198125 29.095404 
" style="fill:none;stroke:#808080;stroke-dasharray:1.5,2.475;stroke-dashoffset:0;stroke-width:1.5;"/>
   </g>
   <g id="patch_3">
    <path d="M 44.425 237.56 
L 44.425 29.095404 
" style="fill:none;stroke:#000000;stroke-linecap:square;stroke-linejoin:miter;stroke-width:0.8;"/>
   </g>
   <g id="patch_4">
    <path d="M 44.425 237.56 
L 298.857812 237.56 
" style="fill:none;stroke:#000000;stroke-linecap:square;stroke-linejoin:miter;stroke-width:0.8;"/>
   </g>
  </g>
  <g id="axes_2">
   <g id="patch_5">
    <path d="M 343.407813 237.56 
L 597.840625 237.56 
L 597.840625 29.095404 
L 343.407813 29.095404 
z
" style="fill:#ffffff;"/>
   </g>
   <g id="matplotlib.axis_3">
    <g id="xtick_9">
     <g id="line2d_31">
      <g>
       <use style="stroke:#000000;stroke-width:0.8;" x="343.407813" xlink:href="#m1793d110e1" y="237.56"/>
      </g>
     </g>
     <g id="text_18">
      <!-- 0.00 -->
      <g transform="translate(332.275 252.158438)scale(0.1 -0.1)">
       <use xlink:href="#DejaVuSans-48"/>
       <use x="63.623047" xlink:href="#DejaVuSans-46"/>
       <use x="95.410156" xlink:href="#DejaVuSans-48"/>
       <use x="159.033203" xlink:href="#DejaVuSans-48"/>
      </g>
     </g>
    </g>
    <g id="xtick_10">
     <g id="line2d_32">
      <g>
       <use style="stroke:#000000;stroke-width:0.8;" x="377.332188" xlink:href="#m1793d110e1" y="237.56"/>
      </g>
     </g>
     <g id="text_19">
      <!-- 0.02 -->
      <g transform="translate(366.199375 252.158438)scale(0.1 -0.1)">
       <use xlink:href="#DejaVuSans-48"/>
       <use x="63.623047" xlink:href="#DejaVuSans-46"/>
       <use x="95.410156" xlink:href="#DejaVuSans-48"/>
       <use x="159.033203" xlink:href="#DejaVuSans-50"/>
      </g>
     </g>
    </g>
    <g id="xtick_11">
     <g id="line2d_33">
      <g>
       <use style="stroke:#000000;stroke-width:0.8;" x="411.256562" xlink:href="#m1793d110e1" y="237.56"/>
      </g>
     </g>
     <g id="text_20">
      <!-- 0.04 -->
      <g transform="translate(400.12375 252.158438)scale(0.1 -0.1)">
       <use xlink:href="#DejaVuSans-48"/>
       <use x="63.623047" xlink:href="#DejaVuSans-46"/>
       <use x="95.410156" xlink:href="#DejaVuSans-48"/>
       <use x="159.033203" xlink:href="#DejaVuSans-52"/>
      </g>
     </g>
    </g>
    <g id="xtick_12">
     <g id="line2d_34">
      <g>
       <use style="stroke:#000000;stroke-width:0.8;" x="445.180937" xlink:href="#m1793d110e1" y="237.56"/>
      </g>
     </g>
     <g id="text_21">
      <!-- 0.06 -->
      <g transform="translate(434.048125 252.158438)scale(0.1 -0.1)">
       <use xlink:href="#DejaVuSans-48"/>
       <use x="63.623047" xlink:href="#DejaVuSans-46"/>
       <use x="95.410156" xlink:href="#DejaVuSans-48"/>
       <use x="159.033203" xlink:href="#DejaVuSans-54"/>
      </g>
     </g>
    </g>
    <g id="xtick_13">
     <g id="line2d_35">
      <g>
       <use style="stroke:#000000;stroke-width:0.8;" x="479.105312" xlink:href="#m1793d110e1" y="237.56"/>
      </g>
     </g>
     <g id="text_22">
      <!-- 0.08 -->
      <g transform="translate(467.9725 252.158438)scale(0.1 -0.1)">
       <use xlink:href="#DejaVuSans-48"/>
       <use x="63.623047" xlink:href="#DejaVuSans-46"/>
       <use x="95.410156" xlink:href="#DejaVuSans-48"/>
       <use x="159.033203" xlink:href="#DejaVuSans-56"/>
      </g>
     </g>
    </g>
    <g id="xtick_14">
     <g id="line2d_36">
      <g>
       <use style="stroke:#000000;stroke-width:0.8;" x="513.029687" xlink:href="#m1793d110e1" y="237.56"/>
      </g>
     </g>
     <g id="text_23">
      <!-- 0.10 -->
      <g transform="translate(501.896875 252.158438)scale(0.1 -0.1)">
       <use xlink:href="#DejaVuSans-48"/>
       <use x="63.623047" xlink:href="#DejaVuSans-46"/>
       <use x="95.410156" xlink:href="#DejaVuSans-49"/>
       <use x="159.033203" xlink:href="#DejaVuSans-48"/>
      </g>
     </g>
    </g>
    <g id="xtick_15">
     <g id="line2d_37">
      <g>
       <use style="stroke:#000000;stroke-width:0.8;" x="546.954062" xlink:href="#m1793d110e1" y="237.56"/>
      </g>
     </g>
     <g id="text_24">
      <!-- 0.12 -->
      <g transform="translate(535.82125 252.158438)scale(0.1 -0.1)">
       <use xlink:href="#DejaVuSans-48"/>
       <use x="63.623047" xlink:href="#DejaVuSans-46"/>
       <use x="95.410156" xlink:href="#DejaVuSans-49"/>
       <use x="159.033203" xlink:href="#DejaVuSans-50"/>
      </g>
     </g>
    </g>
    <g id="xtick_16">
     <g id="line2d_38">
      <g>
       <use style="stroke:#000000;stroke-width:0.8;" x="580.878438" xlink:href="#m1793d110e1" y="237.56"/>
      </g>
     </g>
     <g id="text_25">
      <!-- 0.14 -->
      <g transform="translate(569.745625 252.158438)scale(0.1 -0.1)">
       <use xlink:href="#DejaVuSans-48"/>
       <use x="63.623047" xlink:href="#DejaVuSans-46"/>
       <use x="95.410156" xlink:href="#DejaVuSans-49"/>
       <use x="159.033203" xlink:href="#DejaVuSans-52"/>
      </g>
     </g>
    </g>
    <g id="text_26">
     <!-- p1 -->
     <g transform="translate(464.26875 265.836563)scale(0.1 -0.1)">
      <use xlink:href="#DejaVuSans-112"/>
      <use x="63.476562" xlink:href="#DejaVuSans-49"/>
     </g>
    </g>
   </g>
   <g id="matplotlib.axis_4">
    <g id="ytick_8">
     <g id="line2d_39">
      <g>
       <use style="stroke:#000000;stroke-width:0.8;" x="343.407813" xlink:href="#m975175f0eb" y="228.084337"/>
      </g>
     </g>
     <g id="text_27">
      <!-- 0 -->
      <g transform="translate(330.045313 231.883555)scale(0.1 -0.1)">
       <use xlink:href="#DejaVuSans-48"/>
      </g>
     </g>
    </g>
    <g id="ytick_9">
     <g id="line2d_40">
      <g>
       <use style="stroke:#000000;stroke-width:0.8;" x="343.407813" xlink:href="#m975175f0eb" y="199.671672"/>
      </g>
     </g>
     <g id="text_28">
      <!-- 5 -->
      <g transform="translate(330.045313 203.47089)scale(0.1 -0.1)">
       <use xlink:href="#DejaVuSans-53"/>
      </g>
     </g>
    </g>
    <g id="ytick_10">
     <g id="line2d_41">
      <g>
       <use style="stroke:#000000;stroke-width:0.8;" x="343.407813" xlink:href="#m975175f0eb" y="171.259007"/>
      </g>
     </g>
     <g id="text_29">
      <!-- 10 -->
      <g transform="translate(323.682813 175.058226)scale(0.1 -0.1)">
       <use xlink:href="#DejaVuSans-49"/>
       <use x="63.623047" xlink:href="#DejaVuSans-48"/>
      </g>
     </g>
    </g>
    <g id="ytick_11">
     <g id="line2d_42">
      <g>
       <use style="stroke:#000000;stroke-width:0.8;" x="343.407813" xlink:href="#m975175f0eb" y="142.846342"/>
      </g>
     </g>
     <g id="text_30">
      <!-- 15 -->
      <g transform="translate(323.682813 146.645561)scale(0.1 -0.1)">
       <use xlink:href="#DejaVuSans-49"/>
       <use x="63.623047" xlink:href="#DejaVuSans-53"/>
      </g>
     </g>
    </g>
    <g id="ytick_12">
     <g id="line2d_43">
      <g>
       <use style="stroke:#000000;stroke-width:0.8;" x="343.407813" xlink:href="#m975175f0eb" y="114.433677"/>
      </g>
     </g>
     <g id="text_31">
      <!-- 20 -->
      <g transform="translate(323.682813 118.232896)scale(0.1 -0.1)">
       <use xlink:href="#DejaVuSans-50"/>
       <use x="63.623047" xlink:href="#DejaVuSans-48"/>
      </g>
     </g>
    </g>
    <g id="ytick_13">
     <g id="line2d_44">
      <g>
       <use style="stroke:#000000;stroke-width:0.8;" x="343.407813" xlink:href="#m975175f0eb" y="86.021012"/>
      </g>
     </g>
     <g id="text_32">
      <!-- 25 -->
      <g transform="translate(323.682813 89.820231)scale(0.1 -0.1)">
       <use xlink:href="#DejaVuSans-50"/>
       <use x="63.623047" xlink:href="#DejaVuSans-53"/>
      </g>
     </g>
    </g>
    <g id="ytick_14">
     <g id="line2d_45">
      <g>
       <use style="stroke:#000000;stroke-width:0.8;" x="343.407813" xlink:href="#m975175f0eb" y="57.608347"/>
      </g>
     </g>
     <g id="text_33">
      <!-- 30 -->
      <g transform="translate(323.682813 61.407566)scale(0.1 -0.1)">
       <use xlink:href="#DejaVuSans-51"/>
       <use x="63.623047" xlink:href="#DejaVuSans-48"/>
      </g>
     </g>
    </g>
    <g id="ytick_15">
     <g id="line2d_46">
      <g>
       <use style="stroke:#000000;stroke-width:0.8;" x="343.407813" xlink:href="#m975175f0eb" y="29.195683"/>
      </g>
     </g>
     <g id="text_34">
      <!-- 35 -->
      <g transform="translate(323.682813 32.994901)scale(0.1 -0.1)">
       <use xlink:href="#DejaVuSans-51"/>
       <use x="63.623047" xlink:href="#DejaVuSans-53"/>
      </g>
     </g>
    </g>
    <g id="text_35">
     <!-- Posterior -->
     <g transform="translate(317.603125 155.600358)rotate(-90)scale(0.1 -0.1)">
      <use xlink:href="#DejaVuSans-80"/>
      <use x="60.255859" xlink:href="#DejaVuSans-111"/>
      <use x="121.4375" xlink:href="#DejaVuSans-115"/>
      <use x="173.537109" xlink:href="#DejaVuSans-116"/>
      <use x="212.746094" xlink:href="#DejaVuSans-101"/>
      <use x="274.269531" xlink:href="#DejaVuSans-114"/>
      <use x="315.382812" xlink:href="#DejaVuSans-105"/>
      <use x="343.166016" xlink:href="#DejaVuSans-111"/>
      <use x="404.347656" xlink:href="#DejaVuSans-114"/>
     </g>
    </g>
   </g>
   <g id="line2d_47">
    <path clip-path="url(#p1d6027c5ad)" d="M 343.407813 228.084296 
L 345.977841 228.084261 
L 348.547869 228.084201 
L 351.117898 228.084097 
L 353.687926 228.083918 
L 356.257955 228.083615 
L 358.827983 228.083107 
L 361.398011 228.082259 
L 363.96804 228.08086 
L 366.538068 228.07857 
L 369.108097 228.074851 
L 371.678125 228.068869 
L 374.248153 228.059331 
L 376.818182 228.044265 
L 379.38821 228.020695 
L 381.958239 227.984188 
L 384.528267 227.928195 
L 387.098295 227.843162 
L 389.668324 227.715315 
L 392.238352 227.525044 
L 394.808381 227.244789 
L 397.378409 226.836341 
L 399.948438 226.24749 
L 402.518466 225.407989 
L 405.088494 224.224926 
L 407.658523 222.577678 
L 410.228551 220.313035 
L 412.79858 217.241191 
L 415.368608 213.13416 
L 417.938636 207.728851 
L 420.508665 200.738138 
L 423.078693 191.874964 
L 425.648722 180.896272 
L 428.21875 167.677076 
L 430.788778 152.322431 
L 433.358807 135.266458 
L 435.928835 117.432172 
L 438.498864 100.344718 
L 441.068892 85.341545 
L 443.63892 72.76541 
L 446.208949 62.692486 
L 448.778977 55.263778 
L 451.349006 50.450586 
L 453.919034 47.832897 
L 456.489062 46.994857 
L 459.059091 47.67398 
L 461.629119 49.72116 
L 464.199148 53.091144 
L 466.769176 57.837201 
L 469.339205 64.060361 
L 471.909233 71.978957 
L 474.479261 82.152009 
L 477.04929 95.373855 
L 479.619318 111.267431 
L 482.189347 128.400859 
L 484.759375 145.101178 
L 487.329403 160.146413 
L 489.899432 173.127584 
L 492.46946 184.035239 
L 495.039489 193.0224 
L 497.609517 200.32604 
L 500.179545 206.209618 
L 502.749574 210.921294 
L 505.319602 214.674075 
L 507.889631 217.642729 
L 510.459659 219.971447 
L 513.029687 221.787014 
L 515.599716 223.196822 
L 518.169744 224.288871 
L 520.739773 225.133687 
L 523.309801 225.786978 
L 525.87983 226.292307 
L 528.449858 226.683517 
L 531.019886 226.986766 
L 533.589915 227.222211 
L 536.159943 227.40536 
L 538.729972 227.54813 
L 541.3 227.65968 
L 543.870028 227.747049 
L 546.440057 227.815653 
L 549.010085 227.869666 
L 551.580114 227.912305 
L 554.150142 227.94606 
L 556.72017 227.972856 
L 559.290199 227.994188 
L 561.860227 228.011218 
L 564.430256 228.024854 
L 567.000284 228.035802 
L 569.570312 228.044618 
L 572.140341 228.051738 
L 574.710369 228.057503 
L 577.280398 228.062185 
L 579.850426 228.065998 
L 582.420455 228.069112 
L 584.990483 228.071662 
L 587.560511 228.073756 
L 590.13054 228.07548 
L 592.700568 228.076904 
L 595.270597 228.078082 
L 597.840625 228.079059 
" style="fill:none;stroke:#808080;stroke-dasharray:5.55,2.4;stroke-dashoffset:0;stroke-width:1.5;"/>
   </g>
   <g id="line2d_48">
    <path clip-path="url(#p1d6027c5ad)" d="M 343.407813 228.084337 
L 345.977841 228.084337 
L 348.547869 228.084337 
L 351.117898 228.084337 
L 353.687926 228.084337 
L 356.257955 228.084337 
L 358.827983 228.084337 
L 361.398011 228.084337 
L 363.96804 228.084337 
L 366.538068 228.084337 
L 369.108097 228.084337 
L 371.678125 228.084337 
L 374.248153 228.084336 
L 376.818182 228.084335 
L 379.38821 228.084326 
L 381.958239 228.084248 
L 384.528267 228.083725 
L 387.098295 228.080816 
L 389.668324 228.067459 
L 392.238352 228.016896 
L 394.808381 227.859344 
L 397.378409 227.456156 
L 399.948438 226.611638 
L 402.518466 225.170878 
L 405.088494 223.181629 
L 407.658523 220.966544 
L 410.228551 218.92686 
L 412.79858 217.121301 
L 415.368608 214.973691 
L 417.938636 211.477557 
L 420.508665 205.835353 
L 423.078693 197.961906 
L 425.648722 188.308967 
L 428.21875 177.169334 
L 430.788778 164.267308 
L 433.358807 149.17449 
L 435.928835 132.093904 
L 438.498864 114.042146 
L 441.068892 96.192571 
L 443.63892 79.267299 
L 446.208949 63.80952 
L 448.778977 50.892648 
L 451.349006 42.111798 
L 453.919034 38.571068 
L 456.489062 39.832439 
L 459.059091 43.927918 
L 461.629119 48.579476 
L 464.199148 52.707713 
L 466.769176 57.012724 
L 469.339205 63.173879 
L 471.909233 72.413333 
L 474.479261 84.642855 
L 477.04929 98.746729 
L 479.619318 113.527033 
L 482.189347 128.410423 
L 484.759375 143.372286 
L 487.329403 158.254361 
L 489.899432 172.207557 
L 492.46946 183.916069 
L 495.039489 192.492284 
L 497.609517 198.189837 
L 500.179545 202.212973 
L 502.749574 205.796452 
L 505.319602 209.425503 
L 507.889631 212.84531 
L 510.459659 215.651664 
L 513.029687 217.728273 
L 515.599716 219.161654 
L 518.169744 219.979662 
L 520.739773 220.197015 
L 523.309801 220.102121 
L 525.87983 220.287757 
L 528.449858 221.238134 
L 531.019886 222.909602 
L 533.589915 224.788953 
L 536.159943 226.333202 
L 538.729972 227.311096 
L 541.3 227.801124 
L 543.870028 227.99836 
L 546.440057 228.062711 
L 549.010085 228.07983 
L 551.580114 228.083559 
L 554.150142 228.084225 
L 556.72017 228.084323 
L 559.290199 228.084335 
L 561.860227 228.084336 
L 564.430256 228.084337 
L 567.000284 228.084337 
L 569.570312 228.084337 
L 572.140341 228.084337 
L 574.710369 228.084337 
L 577.280398 228.084337 
L 579.850426 228.084337 
L 582.420455 228.084337 
L 584.990483 228.084337 
L 587.560511 228.084337 
L 590.13054 228.084337 
L 592.700568 228.084337 
L 595.270597 228.084337 
L 597.840625 228.084337 
" style="fill:none;stroke:#1f77b4;stroke-linecap:square;stroke-width:1.5;"/>
   </g>
   <g id="line2d_49">
    <path clip-path="url(#p1d6027c5ad)" d="M 479.105312 237.56 
L 479.105312 29.095404 
" style="fill:none;stroke:#808080;stroke-dasharray:1.5,2.475;stroke-dashoffset:0;stroke-width:1.5;"/>
   </g>
   <g id="line2d_50">
    <path clip-path="url(#p1d6027c5ad)" d="M 343.407813 228.084337 
L 345.977841 228.084337 
L 348.547869 228.084337 
L 351.117898 228.084337 
L 353.687926 228.084337 
L 356.257955 228.084336 
L 358.827983 228.084335 
L 361.398011 228.084329 
L 363.96804 228.084297 
L 366.538068 228.084153 
L 369.108097 228.083577 
L 371.678125 228.081513 
L 374.248153 228.074923 
L 376.818182 228.056138 
L 379.38821 228.008281 
L 381.958239 227.899114 
L 384.528267 227.675429 
L 387.098295 227.261687 
L 389.668324 226.565795 
L 392.238352 225.49064 
L 394.808381 223.945454 
L 397.378409 221.852105 
L 399.948438 219.149403 
L 402.518466 215.80443 
L 405.088494 211.832071 
L 407.658523 207.305466 
L 410.228551 202.333008 
L 412.79858 196.999741 
L 415.368608 191.309615 
L 417.938636 185.181664 
L 420.508665 178.521812 
L 423.078693 171.329822 
L 425.648722 163.758504 
L 428.21875 156.06297 
L 430.788778 148.458799 
L 433.358807 140.991626 
L 435.928835 133.531497 
L 438.498864 125.917805 
L 441.068892 118.158575 
L 443.63892 110.538567 
L 446.208949 103.561722 
L 448.778977 97.778096 
L 451.349006 93.610047 
L 453.919034 91.254917 
L 456.489062 90.665566 
L 459.059091 91.577642 
L 461.629119 93.571296 
L 464.199148 96.173181 
L 466.769176 98.991107 
L 469.339205 101.847053 
L 471.909233 104.860652 
L 474.479261 108.437947 
L 477.04929 113.139362 
L 479.619318 119.447152 
L 482.189347 127.518906 
L 484.759375 137.051401 
L 487.329403 147.33672 
L 489.899432 157.483176 
L 492.46946 166.680612 
L 495.039489 174.387835 
L 497.609517 180.396783 
L 500.179545 184.802616 
L 502.749574 187.92503 
L 505.319602 190.203845 
L 507.889631 192.083136 
L 510.459659 193.914199 
L 513.029687 195.914175 
L 515.599716 198.188689 
L 518.169744 200.783321 
L 520.739773 203.712637 
L 523.309801 206.944501 
L 525.87983 210.365427 
L 528.449858 213.77511 
L 531.019886 216.934191 
L 533.589915 219.64179 
L 536.159943 221.792659 
L 538.729972 223.38167 
L 541.3 224.466985 
L 543.870028 225.131527 
L 546.440057 225.471228 
L 549.010085 225.603214 
L 551.580114 225.664261 
L 554.150142 225.781487 
L 556.72017 226.029259 
L 559.290199 226.405033 
L 561.860227 226.843956 
L 564.430256 227.261665 
L 567.000284 227.596024 
L 569.570312 227.825368 
L 572.140341 227.96173 
L 574.710369 228.032538 
L 577.280398 228.064813 
L 579.850426 228.077772 
L 582.420455 228.082368 
L 584.990483 228.08381 
L 587.560511 228.084211 
L 590.13054 228.08431 
L 592.700568 228.084331 
L 595.270597 228.084336 
L 597.840625 228.084336 
" style="fill:none;stroke:#ff7f0e;stroke-linecap:square;stroke-width:1.5;"/>
   </g>
   <g id="line2d_51">
    <path clip-path="url(#p1d6027c5ad)" d="M 479.105312 237.56 
L 479.105312 29.095404 
" style="fill:none;stroke:#808080;stroke-dasharray:1.5,2.475;stroke-dashoffset:0;stroke-width:1.5;"/>
   </g>
   <g id="line2d_52">
    <path clip-path="url(#p1d6027c5ad)" d="M 343.407813 225.414087 
L 345.977841 224.974302 
L 348.547869 224.479267 
L 351.117898 223.924667 
L 353.687926 223.306183 
L 356.257955 222.619525 
L 358.827983 221.860482 
L 361.398011 221.024975 
L 363.96804 220.10911 
L 366.538068 219.109241 
L 369.108097 218.022045 
L 371.678125 216.844593 
L 374.248153 215.574438 
L 376.818182 214.209706 
L 379.38821 212.749191 
L 381.958239 211.192456 
L 384.528267 209.539933 
L 387.098295 207.793025 
L 389.668324 205.954197 
L 392.238352 204.027067 
L 394.808381 202.016475 
L 397.378409 199.928542 
L 399.948438 197.770705 
L 402.518466 195.551732 
L 405.088494 193.281711 
L 407.658523 190.972004 
L 410.228551 188.635183 
L 412.79858 186.284929 
L 415.368608 183.935901 
L 417.938636 181.60358 
L 420.508665 179.304086 
L 423.078693 177.053967 
L 425.648722 174.869973 
L 428.21875 172.768808 
L 430.788778 170.76687 
L 433.358807 168.879991 
L 435.928835 167.123171 
L 438.498864 165.510322 
L 441.068892 164.054027 
L 443.63892 162.765323 
L 446.208949 161.653514 
L 448.778977 160.72602 
L 451.349006 159.988278 
L 453.919034 159.443676 
L 456.489062 159.093556 
L 459.059091 158.937254 
L 461.629119 158.972193 
L 464.199148 159.194022 
L 466.769176 159.596787 
L 469.339205 160.173133 
L 471.909233 160.914518 
L 474.479261 161.811438 
L 477.04929 162.853644 
L 479.619318 164.030342 
L 482.189347 165.330372 
L 484.759375 166.742359 
L 487.329403 168.254826 
L 489.899432 169.856277 
L 492.46946 171.535249 
L 495.039489 173.280339 
L 497.609517 175.080208 
L 500.179545 176.92358 
L 502.749574 178.799237 
L 505.319602 180.696023 
L 507.889631 182.602864 
L 510.459659 184.508805 
L 513.029687 186.403083 
L 515.599716 188.275214 
L 518.169744 190.115115 
L 520.739773 191.913244 
L 523.309801 193.660749 
L 525.87983 195.349628 
L 528.449858 196.972885 
L 531.019886 198.524664 
L 533.589915 200.000373 
L 536.159943 201.396759 
L 538.729972 202.711958 
L 541.3 203.945493 
L 543.870028 205.098233 
L 546.440057 206.172302 
L 549.010085 207.170955 
L 551.580114 208.098413 
L 554.150142 208.95968 
L 556.72017 209.760329 
L 559.290199 210.506299 
L 561.860227 211.203679 
L 564.430256 211.858511 
L 567.000284 212.476615 
L 569.570312 213.063435 
L 572.140341 213.623918 
L 574.710369 214.162433 
L 577.280398 214.682717 
L 579.850426 215.187859 
L 582.420455 215.680313 
L 584.990483 216.161941 
L 587.560511 216.634074 
L 590.13054 217.097585 
L 592.700568 217.55298 
L 595.270597 218.00048 
L 597.840625 218.440108 
" style="fill:none;stroke:#2ca02c;stroke-linecap:square;stroke-width:1.5;"/>
   </g>
   <g id="line2d_53">
    <path clip-path="url(#p1d6027c5ad)" d="M 479.105312 237.56 
L 479.105312 29.095404 
" style="fill:none;stroke:#808080;stroke-dasharray:1.5,2.475;stroke-dashoffset:0;stroke-width:1.5;"/>
   </g>
   <g id="line2d_54">
    <path clip-path="url(#p1d6027c5ad)" d="M 343.407813 222.498241 
L 345.977841 222.109588 
L 348.547869 221.704943 
L 351.117898 221.28451 
L 353.687926 220.848562 
L 356.257955 220.39744 
L 358.827983 219.931558 
L 361.398011 219.451397 
L 363.96804 218.957512 
L 366.538068 218.450525 
L 369.108097 217.931131 
L 371.678125 217.40009 
L 374.248153 216.85823 
L 376.818182 216.306443 
L 379.38821 215.745685 
L 381.958239 215.176972 
L 384.528267 214.601375 
L 387.098295 214.020021 
L 389.668324 213.434086 
L 392.238352 212.844792 
L 394.808381 212.253403 
L 397.378409 211.661221 
L 399.948438 211.069577 
L 402.518466 210.479831 
L 405.088494 209.893362 
L 407.658523 209.311565 
L 410.228551 208.735843 
L 412.79858 208.167598 
L 415.368608 207.608231 
L 417.938636 207.059127 
L 420.508665 206.521655 
L 423.078693 205.997155 
L 425.648722 205.486935 
L 428.21875 204.992261 
L 430.788778 204.51435 
L 433.358807 204.054367 
L 435.928835 203.613412 
L 438.498864 203.192519 
L 441.068892 202.792647 
L 443.63892 202.414675 
L 446.208949 202.059397 
L 448.778977 201.727518 
L 451.349006 201.419651 
L 453.919034 201.136311 
L 456.489062 200.877914 
L 459.059091 200.644776 
L 461.629119 200.437112 
L 464.199148 200.255035 
L 466.769176 200.098558 
L 469.339205 199.967594 
L 471.909233 199.86196 
L 474.479261 199.781377 
L 477.04929 199.72548 
L 479.619318 199.693814 
L 482.189347 199.685848 
L 484.759375 199.700972 
L 487.329403 199.738511 
L 489.899432 199.797724 
L 492.46946 199.877817 
L 495.039489 199.977946 
L 497.609517 200.097226 
L 500.179545 200.234739 
L 502.749574 200.389536 
L 505.319602 200.560651 
L 507.889631 200.747104 
L 510.459659 200.947907 
L 513.029687 201.162073 
L 515.599716 201.388618 
L 518.169744 201.626573 
L 520.739773 201.87498 
L 523.309801 202.132907 
L 525.87983 202.399444 
L 528.449858 202.673711 
L 531.019886 202.954859 
L 533.589915 203.242076 
L 536.159943 203.534586 
L 538.729972 203.831652 
L 541.3 204.132577 
L 543.870028 204.436707 
L 546.440057 204.743429 
L 549.010085 205.05217 
L 551.580114 205.362402 
L 554.150142 205.673636 
L 556.72017 205.98542 
L 559.290199 206.297345 
L 561.860227 206.609034 
L 564.430256 206.920147 
L 567.000284 207.230373 
L 569.570312 207.539434 
L 572.140341 207.847074 
L 574.710369 208.153064 
L 577.280398 208.457194 
L 579.850426 208.759269 
L 582.420455 209.059112 
L 584.990483 209.356554 
L 587.560511 209.651433 
L 590.13054 209.943594 
L 592.700568 210.232881 
L 595.270597 210.519139 
L 597.840625 210.802209 
" style="fill:none;stroke:#d62728;stroke-linecap:square;stroke-width:1.5;"/>
   </g>
   <g id="line2d_55">
    <path clip-path="url(#p1d6027c5ad)" d="M 479.105312 237.56 
L 479.105312 29.095404 
" style="fill:none;stroke:#808080;stroke-dasharray:1.5,2.475;stroke-dashoffset:0;stroke-width:1.5;"/>
   </g>
   <g id="line2d_56">
    <path clip-path="url(#p1d6027c5ad)" d="M 343.407813 223.670255 
L 345.977841 223.469911 
L 348.547869 223.267352 
L 351.117898 223.062913 
L 353.687926 222.856926 
L 356.257955 222.649718 
L 358.827983 222.441612 
L 361.398011 222.232918 
L 363.96804 222.023937 
L 366.538068 221.814957 
L 369.108097 221.606249 
L 371.678125 221.398069 
L 374.248153 221.190651 
L 376.818182 220.984213 
L 379.38821 220.778953 
L 381.958239 220.575045 
L 384.528267 220.372647 
L 387.098295 220.171893 
L 389.668324 219.9729 
L 392.238352 219.775765 
L 394.808381 219.580567 
L 397.378409 219.387371 
L 399.948438 219.196224 
L 402.518466 219.007164 
L 405.088494 218.820214 
L 407.658523 218.635394 
L 410.228551 218.452712 
L 412.79858 218.272176 
L 415.368608 218.093791 
L 417.938636 217.917562 
L 420.508665 217.743497 
L 423.078693 217.57161 
L 425.648722 217.401921 
L 428.21875 217.23446 
L 430.788778 217.069265 
L 433.358807 216.906387 
L 435.928835 216.745893 
L 438.498864 216.58786 
L 441.068892 216.432382 
L 443.63892 216.279567 
L 446.208949 216.129541 
L 448.778977 215.982443 
L 451.349006 215.838427 
L 453.919034 215.697664 
L 456.489062 215.560335 
L 459.059091 215.426636 
L 461.629119 215.296773 
L 464.199148 215.170962 
L 466.769176 215.049425 
L 469.339205 214.932392 
L 471.909233 214.820096 
L 474.479261 214.71277 
L 477.04929 214.610647 
L 479.619318 214.513957 
L 482.189347 214.422923 
L 484.759375 214.337762 
L 487.329403 214.258679 
L 489.899432 214.185863 
L 492.46946 214.119492 
L 495.039489 214.059723 
L 497.609517 214.006693 
L 500.179545 213.960517 
L 502.749574 213.921286 
L 505.319602 213.889063 
L 507.889631 213.863887 
L 510.459659 213.845762 
L 513.029687 213.834667 
L 515.599716 213.830545 
L 518.169744 213.833309 
L 520.739773 213.84284 
L 523.309801 213.858983 
L 525.87983 213.881553 
L 528.449858 213.91033 
L 531.019886 213.945064 
L 533.589915 213.985473 
L 536.159943 214.031244 
L 538.729972 214.082036 
L 541.3 214.137482 
L 543.870028 214.197188 
L 546.440057 214.260738 
L 549.010085 214.327695 
L 551.580114 214.397604 
L 554.150142 214.469995 
L 556.72017 214.544383 
L 559.290199 214.620277 
L 561.860227 214.697175 
L 564.430256 214.774574 
L 567.000284 214.85197 
L 569.570312 214.92886 
L 572.140341 215.004749 
L 574.710369 215.079148 
L 577.280398 215.151581 
L 579.850426 215.221587 
L 582.420455 215.28872 
L 584.990483 215.352555 
L 587.560511 215.412691 
L 590.13054 215.468748 
L 592.700568 215.520374 
L 595.270597 215.567246 
L 597.840625 215.609069 
" style="fill:none;stroke:#9467bd;stroke-linecap:square;stroke-width:1.5;"/>
   </g>
   <g id="line2d_57">
    <path clip-path="url(#p1d6027c5ad)" d="M 479.105312 237.56 
L 479.105312 29.095404 
" style="fill:none;stroke:#808080;stroke-dasharray:1.5,2.475;stroke-dashoffset:0;stroke-width:1.5;"/>
   </g>
   <g id="line2d_58">
    <path clip-path="url(#p1d6027c5ad)" d="M 343.407813 225.438753 
L 345.977841 225.285706 
L 348.547869 225.129262 
L 351.117898 224.969753 
L 353.687926 224.807535 
L 356.257955 224.642981 
L 358.827983 224.476481 
L 361.398011 224.308441 
L 363.96804 224.139274 
L 366.538068 223.969403 
L 369.108097 223.799253 
L 371.678125 223.629251 
L 374.248153 223.459819 
L 376.818182 223.291371 
L 379.38821 223.124312 
L 381.958239 222.959032 
L 384.528267 222.795903 
L 387.098295 222.635277 
L 389.668324 222.477482 
L 392.238352 222.322818 
L 394.808381 222.171559 
L 397.378409 222.023945 
L 399.948438 221.880185 
L 402.518466 221.740453 
L 405.088494 221.604888 
L 407.658523 221.473593 
L 410.228551 221.346636 
L 412.79858 221.224048 
L 415.368608 221.105826 
L 417.938636 220.99193 
L 420.508665 220.882291 
L 423.078693 220.776806 
L 425.648722 220.675343 
L 428.21875 220.577745 
L 430.788778 220.483829 
L 433.358807 220.393392 
L 435.928835 220.30621 
L 438.498864 220.222047 
L 441.068892 220.140653 
L 443.63892 220.061771 
L 446.208949 219.985135 
L 448.778977 219.910482 
L 451.349006 219.837546 
L 453.919034 219.766069 
L 456.489062 219.695797 
L 459.059091 219.626489 
L 461.629119 219.557915 
L 464.199148 219.48986 
L 466.769176 219.422129 
L 469.339205 219.354541 
L 471.909233 219.286938 
L 474.479261 219.219184 
L 477.04929 219.151163 
L 479.619318 219.082782 
L 482.189347 219.013971 
L 484.759375 218.944679 
L 487.329403 218.874881 
L 489.899432 218.804567 
L 492.46946 218.73375 
L 495.039489 218.662458 
L 497.609517 218.590737 
L 500.179545 218.518644 
L 502.749574 218.446251 
L 505.319602 218.373638 
L 507.889631 218.300891 
L 510.459659 218.228105 
L 513.029687 218.155376 
L 515.599716 218.0828 
L 518.169744 218.010475 
L 520.739773 217.938493 
L 523.309801 217.866944 
L 525.87983 217.795912 
L 528.449858 217.725473 
L 531.019886 217.655695 
L 533.589915 217.586636 
L 536.159943 217.518347 
L 538.729972 217.450868 
L 541.3 217.384229 
L 543.870028 217.31845 
L 546.440057 217.253544 
L 549.010085 217.189513 
L 551.580114 217.126353 
L 554.150142 217.064052 
L 556.72017 217.002593 
L 559.290199 216.941953 
L 561.860227 216.882106 
L 564.430256 216.823024 
L 567.000284 216.764677 
L 569.570312 216.707032 
L 572.140341 216.650061 
L 574.710369 216.593733 
L 577.280398 216.538022 
L 579.850426 216.4829 
L 582.420455 216.428347 
L 584.990483 216.374342 
L 587.560511 216.320869 
L 590.13054 216.267913 
L 592.700568 216.215462 
L 595.270597 216.163509 
L 597.840625 216.112043 
" style="fill:none;stroke:#8c564b;stroke-linecap:square;stroke-width:1.5;"/>
   </g>
   <g id="line2d_59">
    <path clip-path="url(#p1d6027c5ad)" d="M 479.105312 237.56 
L 479.105312 29.095404 
" style="fill:none;stroke:#808080;stroke-dasharray:1.5,2.475;stroke-dashoffset:0;stroke-width:1.5;"/>
   </g>
   <g id="line2d_60">
    <path clip-path="url(#p1d6027c5ad)" d="M 343.407813 225.376728 
L 345.977841 225.237585 
L 348.547869 225.096178 
L 351.117898 224.952741 
L 353.687926 224.807513 
L 356.257955 224.660731 
L 358.827983 224.512631 
L 361.398011 224.363443 
L 363.96804 224.213394 
L 366.538068 224.062701 
L 369.108097 223.911573 
L 371.678125 223.760209 
L 374.248153 223.608799 
L 376.818182 223.457519 
L 379.38821 223.306535 
L 381.958239 223.156 
L 384.528267 223.006056 
L 387.098295 222.856833 
L 389.668324 222.70845 
L 392.238352 222.561015 
L 394.808381 222.414629 
L 397.378409 222.269383 
L 399.948438 222.12536 
L 402.518466 221.982638 
L 405.088494 221.841293 
L 407.658523 221.701392 
L 410.228551 221.563005 
L 412.79858 221.426198 
L 415.368608 221.291039 
L 417.938636 221.157595 
L 420.508665 221.025937 
L 423.078693 220.896136 
L 425.648722 220.768268 
L 428.21875 220.64241 
L 430.788778 220.518645 
L 433.358807 220.397055 
L 435.928835 220.277728 
L 438.498864 220.16075 
L 441.068892 220.046212 
L 443.63892 219.934202 
L 446.208949 219.824808 
L 448.778977 219.718113 
L 451.349006 219.6142 
L 453.919034 219.513143 
L 456.489062 219.41501 
L 459.059091 219.31986 
L 461.629119 219.227743 
L 464.199148 219.138695 
L 466.769176 219.052741 
L 469.339205 218.969888 
L 471.909233 218.890132 
L 474.479261 218.813447 
L 477.04929 218.739794 
L 479.619318 218.669113 
L 482.189347 218.601326 
L 484.759375 218.536337 
L 487.329403 218.474031 
L 489.899432 218.414275 
L 492.46946 218.356919 
L 495.039489 218.301797 
L 497.609517 218.248725 
L 500.179545 218.197509 
L 502.749574 218.147941 
L 505.319602 218.099802 
L 507.889631 218.052866 
L 510.459659 218.006898 
L 513.029687 217.961663 
L 515.599716 217.91692 
L 518.169744 217.872431 
L 520.739773 217.827958 
L 523.309801 217.78327 
L 525.87983 217.73814 
L 528.449858 217.692352 
L 531.019886 217.645698 
L 533.589915 217.597983 
L 536.159943 217.549025 
L 538.729972 217.498655 
L 541.3 217.44672 
L 543.870028 217.393082 
L 546.440057 217.337618 
L 549.010085 217.280223 
L 551.580114 217.220805 
L 554.150142 217.15929 
L 556.72017 217.095617 
L 559.290199 217.029739 
L 561.860227 216.961622 
L 564.430256 216.891247 
L 567.000284 216.818601 
L 569.570312 216.743686 
L 572.140341 216.66651 
L 574.710369 216.587089 
L 577.280398 216.505447 
L 579.850426 216.421612 
L 582.420455 216.335619 
L 584.990483 216.247506 
L 587.560511 216.157316 
L 590.13054 216.065094 
L 592.700568 215.970889 
L 595.270597 215.874755 
L 597.840625 215.776745 
" style="fill:none;stroke:#e377c2;stroke-linecap:square;stroke-width:1.5;"/>
   </g>
   <g id="line2d_61">
    <path clip-path="url(#p1d6027c5ad)" d="M 479.105312 237.56 
L 479.105312 29.095404 
" style="fill:none;stroke:#808080;stroke-dasharray:1.5,2.475;stroke-dashoffset:0;stroke-width:1.5;"/>
   </g>
   <g id="patch_6">
    <path d="M 343.407813 237.56 
L 343.407813 29.095404 
" style="fill:none;stroke:#000000;stroke-linecap:square;stroke-linejoin:miter;stroke-width:0.8;"/>
   </g>
   <g id="patch_7">
    <path d="M 343.407813 237.56 
L 597.840625 237.56 
" style="fill:none;stroke:#000000;stroke-linecap:square;stroke-linejoin:miter;stroke-width:0.8;"/>
   </g>
   <g id="legend_1">
    <g id="patch_8">
     <path d="M 604.840625 154.520404 
L 707.575 154.520404 
Q 709.575 154.520404 709.575 152.520404 
L 709.575 36.095404 
Q 709.575 34.095404 707.575 34.095404 
L 604.840625 34.095404 
Q 602.840625 34.095404 602.840625 36.095404 
L 602.840625 152.520404 
Q 602.840625 154.520404 604.840625 154.520404 
z
" style="fill:#ffffff;opacity:0.8;stroke:#cccccc;stroke-linejoin:miter;"/>
    </g>
    <g id="line2d_62">
     <path d="M 606.840625 42.193842 
L 626.840625 42.193842 
" style="fill:none;stroke:#808080;stroke-dasharray:5.55,2.4;stroke-dashoffset:0;stroke-width:1.5;"/>
    </g>
    <g id="line2d_63"/>
    <g id="text_36">
     <!-- True posterior -->
     <defs>
      <path d="M -0.296875 72.90625 
L 61.375 72.90625 
L 61.375 64.59375 
L 35.5 64.59375 
L 35.5 0 
L 25.59375 0 
L 25.59375 64.59375 
L -0.296875 64.59375 
z
" id="DejaVuSans-84"/>
      <path d="M 8.5 21.578125 
L 8.5 54.6875 
L 17.484375 54.6875 
L 17.484375 21.921875 
Q 17.484375 14.15625 20.5 10.265625 
Q 23.53125 6.390625 29.59375 6.390625 
Q 36.859375 6.390625 41.078125 11.03125 
Q 45.3125 15.671875 45.3125 23.6875 
L 45.3125 54.6875 
L 54.296875 54.6875 
L 54.296875 0 
L 45.3125 0 
L 45.3125 8.40625 
Q 42.046875 3.421875 37.71875 1 
Q 33.40625 -1.421875 27.6875 -1.421875 
Q 18.265625 -1.421875 13.375 4.4375 
Q 8.5 10.296875 8.5 21.578125 
z
M 31.109375 56 
z
" id="DejaVuSans-117"/>
      <path id="DejaVuSans-32"/>
     </defs>
     <g transform="translate(634.840625 45.693842)scale(0.1 -0.1)">
      <use xlink:href="#DejaVuSans-84"/>
      <use x="60.865234" xlink:href="#DejaVuSans-114"/>
      <use x="101.978516" xlink:href="#DejaVuSans-117"/>
      <use x="165.357422" xlink:href="#DejaVuSans-101"/>
      <use x="226.880859" xlink:href="#DejaVuSans-32"/>
      <use x="258.667969" xlink:href="#DejaVuSans-112"/>
      <use x="322.144531" xlink:href="#DejaVuSans-111"/>
      <use x="383.326172" xlink:href="#DejaVuSans-115"/>
      <use x="435.425781" xlink:href="#DejaVuSans-116"/>
      <use x="474.634766" xlink:href="#DejaVuSans-101"/>
      <use x="536.158203" xlink:href="#DejaVuSans-114"/>
      <use x="577.271484" xlink:href="#DejaVuSans-105"/>
      <use x="605.054688" xlink:href="#DejaVuSans-111"/>
      <use x="666.236328" xlink:href="#DejaVuSans-114"/>
     </g>
    </g>
    <g id="line2d_64">
     <path d="M 606.840625 56.871967 
L 626.840625 56.871967 
" style="fill:none;stroke:#1f77b4;stroke-linecap:square;stroke-width:1.5;"/>
    </g>
    <g id="line2d_65"/>
    <g id="text_37">
     <!-- Iteration 6 -->
     <defs>
      <path d="M 9.8125 72.90625 
L 19.671875 72.90625 
L 19.671875 0 
L 9.8125 0 
z
" id="DejaVuSans-73"/>
      <path d="M 34.28125 27.484375 
Q 23.390625 27.484375 19.1875 25 
Q 14.984375 22.515625 14.984375 16.5 
Q 14.984375 11.71875 18.140625 8.90625 
Q 21.296875 6.109375 26.703125 6.109375 
Q 34.1875 6.109375 38.703125 11.40625 
Q 43.21875 16.703125 43.21875 25.484375 
L 43.21875 27.484375 
z
M 52.203125 31.203125 
L 52.203125 0 
L 43.21875 0 
L 43.21875 8.296875 
Q 40.140625 3.328125 35.546875 0.953125 
Q 30.953125 -1.421875 24.3125 -1.421875 
Q 15.921875 -1.421875 10.953125 3.296875 
Q 6 8.015625 6 15.921875 
Q 6 25.140625 12.171875 29.828125 
Q 18.359375 34.515625 30.609375 34.515625 
L 43.21875 34.515625 
L 43.21875 35.40625 
Q 43.21875 41.609375 39.140625 45 
Q 35.0625 48.390625 27.6875 48.390625 
Q 23 48.390625 18.546875 47.265625 
Q 14.109375 46.140625 10.015625 43.890625 
L 10.015625 52.203125 
Q 14.9375 54.109375 19.578125 55.046875 
Q 24.21875 56 28.609375 56 
Q 40.484375 56 46.34375 49.84375 
Q 52.203125 43.703125 52.203125 31.203125 
z
" id="DejaVuSans-97"/>
      <path d="M 54.890625 33.015625 
L 54.890625 0 
L 45.90625 0 
L 45.90625 32.71875 
Q 45.90625 40.484375 42.875 44.328125 
Q 39.84375 48.1875 33.796875 48.1875 
Q 26.515625 48.1875 22.3125 43.546875 
Q 18.109375 38.921875 18.109375 30.90625 
L 18.109375 0 
L 9.078125 0 
L 9.078125 54.6875 
L 18.109375 54.6875 
L 18.109375 46.1875 
Q 21.34375 51.125 25.703125 53.5625 
Q 30.078125 56 35.796875 56 
Q 45.21875 56 50.046875 50.171875 
Q 54.890625 44.34375 54.890625 33.015625 
z
" id="DejaVuSans-110"/>
     </defs>
     <g transform="translate(634.840625 60.371967)scale(0.1 -0.1)">
      <use xlink:href="#DejaVuSans-73"/>
      <use x="29.492188" xlink:href="#DejaVuSans-116"/>
      <use x="68.701172" xlink:href="#DejaVuSans-101"/>
      <use x="130.224609" xlink:href="#DejaVuSans-114"/>
      <use x="171.337891" xlink:href="#DejaVuSans-97"/>
      <use x="232.617188" xlink:href="#DejaVuSans-116"/>
      <use x="271.826172" xlink:href="#DejaVuSans-105"/>
      <use x="299.609375" xlink:href="#DejaVuSans-111"/>
      <use x="360.791016" xlink:href="#DejaVuSans-110"/>
      <use x="424.169922" xlink:href="#DejaVuSans-32"/>
      <use x="455.957031" xlink:href="#DejaVuSans-54"/>
     </g>
    </g>
    <g id="line2d_66">
     <path d="M 606.840625 71.550092 
L 626.840625 71.550092 
" style="fill:none;stroke:#ff7f0e;stroke-linecap:square;stroke-width:1.5;"/>
    </g>
    <g id="line2d_67"/>
    <g id="text_38">
     <!-- Iteration 5 -->
     <g transform="translate(634.840625 75.050092)scale(0.1 -0.1)">
      <use xlink:href="#DejaVuSans-73"/>
      <use x="29.492188" xlink:href="#DejaVuSans-116"/>
      <use x="68.701172" xlink:href="#DejaVuSans-101"/>
      <use x="130.224609" xlink:href="#DejaVuSans-114"/>
      <use x="171.337891" xlink:href="#DejaVuSans-97"/>
      <use x="232.617188" xlink:href="#DejaVuSans-116"/>
      <use x="271.826172" xlink:href="#DejaVuSans-105"/>
      <use x="299.609375" xlink:href="#DejaVuSans-111"/>
      <use x="360.791016" xlink:href="#DejaVuSans-110"/>
      <use x="424.169922" xlink:href="#DejaVuSans-32"/>
      <use x="455.957031" xlink:href="#DejaVuSans-53"/>
     </g>
    </g>
    <g id="line2d_68">
     <path d="M 606.840625 86.228217 
L 626.840625 86.228217 
" style="fill:none;stroke:#2ca02c;stroke-linecap:square;stroke-width:1.5;"/>
    </g>
    <g id="line2d_69"/>
    <g id="text_39">
     <!-- Iteration 4 -->
     <g transform="translate(634.840625 89.728217)scale(0.1 -0.1)">
      <use xlink:href="#DejaVuSans-73"/>
      <use x="29.492188" xlink:href="#DejaVuSans-116"/>
      <use x="68.701172" xlink:href="#DejaVuSans-101"/>
      <use x="130.224609" xlink:href="#DejaVuSans-114"/>
      <use x="171.337891" xlink:href="#DejaVuSans-97"/>
      <use x="232.617188" xlink:href="#DejaVuSans-116"/>
      <use x="271.826172" xlink:href="#DejaVuSans-105"/>
      <use x="299.609375" xlink:href="#DejaVuSans-111"/>
      <use x="360.791016" xlink:href="#DejaVuSans-110"/>
      <use x="424.169922" xlink:href="#DejaVuSans-32"/>
      <use x="455.957031" xlink:href="#DejaVuSans-52"/>
     </g>
    </g>
    <g id="line2d_70">
     <path d="M 606.840625 100.906342 
L 626.840625 100.906342 
" style="fill:none;stroke:#d62728;stroke-linecap:square;stroke-width:1.5;"/>
    </g>
    <g id="line2d_71"/>
    <g id="text_40">
     <!-- Iteration 3 -->
     <g transform="translate(634.840625 104.406342)scale(0.1 -0.1)">
      <use xlink:href="#DejaVuSans-73"/>
      <use x="29.492188" xlink:href="#DejaVuSans-116"/>
      <use x="68.701172" xlink:href="#DejaVuSans-101"/>
      <use x="130.224609" xlink:href="#DejaVuSans-114"/>
      <use x="171.337891" xlink:href="#DejaVuSans-97"/>
      <use x="232.617188" xlink:href="#DejaVuSans-116"/>
      <use x="271.826172" xlink:href="#DejaVuSans-105"/>
      <use x="299.609375" xlink:href="#DejaVuSans-111"/>
      <use x="360.791016" xlink:href="#DejaVuSans-110"/>
      <use x="424.169922" xlink:href="#DejaVuSans-32"/>
      <use x="455.957031" xlink:href="#DejaVuSans-51"/>
     </g>
    </g>
    <g id="line2d_72">
     <path d="M 606.840625 115.584467 
L 626.840625 115.584467 
" style="fill:none;stroke:#9467bd;stroke-linecap:square;stroke-width:1.5;"/>
    </g>
    <g id="line2d_73"/>
    <g id="text_41">
     <!-- Iteration 2 -->
     <g transform="translate(634.840625 119.084467)scale(0.1 -0.1)">
      <use xlink:href="#DejaVuSans-73"/>
      <use x="29.492188" xlink:href="#DejaVuSans-116"/>
      <use x="68.701172" xlink:href="#DejaVuSans-101"/>
      <use x="130.224609" xlink:href="#DejaVuSans-114"/>
      <use x="171.337891" xlink:href="#DejaVuSans-97"/>
      <use x="232.617188" xlink:href="#DejaVuSans-116"/>
      <use x="271.826172" xlink:href="#DejaVuSans-105"/>
      <use x="299.609375" xlink:href="#DejaVuSans-111"/>
      <use x="360.791016" xlink:href="#DejaVuSans-110"/>
      <use x="424.169922" xlink:href="#DejaVuSans-32"/>
      <use x="455.957031" xlink:href="#DejaVuSans-50"/>
     </g>
    </g>
    <g id="line2d_74">
     <path d="M 606.840625 130.262592 
L 626.840625 130.262592 
" style="fill:none;stroke:#8c564b;stroke-linecap:square;stroke-width:1.5;"/>
    </g>
    <g id="line2d_75"/>
    <g id="text_42">
     <!-- Iteration 1 -->
     <g transform="translate(634.840625 133.762592)scale(0.1 -0.1)">
      <use xlink:href="#DejaVuSans-73"/>
      <use x="29.492188" xlink:href="#DejaVuSans-116"/>
      <use x="68.701172" xlink:href="#DejaVuSans-101"/>
      <use x="130.224609" xlink:href="#DejaVuSans-114"/>
      <use x="171.337891" xlink:href="#DejaVuSans-97"/>
      <use x="232.617188" xlink:href="#DejaVuSans-116"/>
      <use x="271.826172" xlink:href="#DejaVuSans-105"/>
      <use x="299.609375" xlink:href="#DejaVuSans-111"/>
      <use x="360.791016" xlink:href="#DejaVuSans-110"/>
      <use x="424.169922" xlink:href="#DejaVuSans-32"/>
      <use x="455.957031" xlink:href="#DejaVuSans-49"/>
     </g>
    </g>
    <g id="line2d_76">
     <path d="M 606.840625 144.940717 
L 626.840625 144.940717 
" style="fill:none;stroke:#e377c2;stroke-linecap:square;stroke-width:1.5;"/>
    </g>
    <g id="line2d_77"/>
    <g id="text_43">
     <!-- Iteration 0 -->
     <g transform="translate(634.840625 148.440717)scale(0.1 -0.1)">
      <use xlink:href="#DejaVuSans-73"/>
      <use x="29.492188" xlink:href="#DejaVuSans-116"/>
      <use x="68.701172" xlink:href="#DejaVuSans-101"/>
      <use x="130.224609" xlink:href="#DejaVuSans-114"/>
      <use x="171.337891" xlink:href="#DejaVuSans-97"/>
      <use x="232.617188" xlink:href="#DejaVuSans-116"/>
      <use x="271.826172" xlink:href="#DejaVuSans-105"/>
      <use x="299.609375" xlink:href="#DejaVuSans-111"/>
      <use x="360.791016" xlink:href="#DejaVuSans-110"/>
      <use x="424.169922" xlink:href="#DejaVuSans-32"/>
      <use x="455.957031" xlink:href="#DejaVuSans-48"/>
     </g>
    </g>
   </g>
  </g>
  <g id="text_44">
   <!-- Model M2 -->
   <defs>
    <path d="M 9.8125 72.90625 
L 24.515625 72.90625 
L 43.109375 23.296875 
L 61.8125 72.90625 
L 76.515625 72.90625 
L 76.515625 0 
L 66.890625 0 
L 66.890625 64.015625 
L 48.09375 14.015625 
L 38.1875 14.015625 
L 19.390625 64.015625 
L 19.390625 0 
L 9.8125 0 
z
" id="DejaVuSans-77"/>
    <path d="M 45.40625 46.390625 
L 45.40625 75.984375 
L 54.390625 75.984375 
L 54.390625 0 
L 45.40625 0 
L 45.40625 8.203125 
Q 42.578125 3.328125 38.25 0.953125 
Q 33.9375 -1.421875 27.875 -1.421875 
Q 17.96875 -1.421875 11.734375 6.484375 
Q 5.515625 14.40625 5.515625 27.296875 
Q 5.515625 40.1875 11.734375 48.09375 
Q 17.96875 56 27.875 56 
Q 33.9375 56 38.25 53.625 
Q 42.578125 51.265625 45.40625 46.390625 
z
M 14.796875 27.296875 
Q 14.796875 17.390625 18.875 11.75 
Q 22.953125 6.109375 30.078125 6.109375 
Q 37.203125 6.109375 41.296875 11.75 
Q 45.40625 17.390625 45.40625 27.296875 
Q 45.40625 37.203125 41.296875 42.84375 
Q 37.203125 48.484375 30.078125 48.484375 
Q 22.953125 48.484375 18.875 42.84375 
Q 14.796875 37.203125 14.796875 27.296875 
z
" id="DejaVuSans-100"/>
    <path d="M 9.421875 75.984375 
L 18.40625 75.984375 
L 18.40625 0 
L 9.421875 0 
z
" id="DejaVuSans-108"/>
   </defs>
   <g transform="translate(331.082812 14.878125)scale(0.12 -0.12)">
    <use xlink:href="#DejaVuSans-77"/>
    <use x="86.279297" xlink:href="#DejaVuSans-111"/>
    <use x="147.460938" xlink:href="#DejaVuSans-100"/>
    <use x="210.9375" xlink:href="#DejaVuSans-101"/>
    <use x="272.460938" xlink:href="#DejaVuSans-108"/>
    <use x="300.244141" xlink:href="#DejaVuSans-32"/>
    <use x="332.03125" xlink:href="#DejaVuSans-77"/>
    <use x="418.310547" xlink:href="#DejaVuSans-50"/>
   </g>
  </g>
 </g>
 <defs>
  <clipPath id="p73f6e7d61d">
   <rect height="208.464596" width="254.432812" x="44.425" y="29.095404"/>
  </clipPath>
  <clipPath id="p1d6027c5ad">
   <rect height="208.464596" width="254.432812" x="343.407813" y="29.095404"/>
  </clipPath>
 </defs>
</svg>
