<?xml version="1.0" encoding="utf-8" standalone="no"?>
<!DOCTYPE svg PUBLIC "-//W3C//DTD SVG 1.1//EN"
  "http://www.w3.org/Graphics/SVG/1.1/DTD/svg11.dtd">
<!-- Created with matplotlib (https://matplotlib.org/) -->
<svg height="144pt" version="1.1" viewBox="0 0 216 144" width="216pt" xmlns="http://www.w3.org/2000/svg" xmlns:xlink="http://www.w3.org/1999/xlink">
 <defs>
  <style type="text/css">
*{stroke-linecap:butt;stroke-linejoin:round;}
  </style>
 </defs>
 <g id="figure_1">
  <g id="patch_1">
   <path d="M 0 144 
L 216 144 
L 216 0 
L 0 0 
z
" style="fill:#ffffff;"/>
  </g>
  <g id="axes_1">
   <g id="patch_2">
    <path clip-path="url(#p149e35e8cc)" d="M 19.636364 133.2 
L 24.054545 133.2 
L 24.054545 133.2 
L 19.636364 133.2 
z
" style="fill:#ff7f0e;"/>
   </g>
   <g id="patch_3">
    <path clip-path="url(#p149e35e8cc)" d="M 24.054545 133.2 
L 28.472727 133.2 
L 28.472727 133.2 
L 24.054545 133.2 
z
" style="fill:#ff7f0e;"/>
   </g>
   <g id="patch_4">
    <path clip-path="url(#p149e35e8cc)" d="M 28.472727 133.2 
L 32.890909 133.2 
L 32.890909 125.466166 
L 28.472727 125.466166 
z
" style="fill:#ff7f0e;"/>
   </g>
   <g id="patch_5">
    <path clip-path="url(#p149e35e8cc)" d="M 32.890909 133.2 
L 37.309091 133.2 
L 37.309091 130.411629 
L 32.890909 130.411629 
z
" style="fill:#ff7f0e;"/>
   </g>
   <g id="patch_6">
    <path clip-path="url(#p149e35e8cc)" d="M 37.309091 133.2 
L 41.727273 133.2 
L 41.727273 131.376479 
L 37.309091 131.376479 
z
" style="fill:#ff7f0e;"/>
   </g>
   <g id="patch_7">
    <path clip-path="url(#p149e35e8cc)" d="M 41.727273 133.2 
L 46.145455 133.2 
L 46.145455 130.258227 
L 41.727273 130.258227 
z
" style="fill:#ff7f0e;"/>
   </g>
   <g id="patch_8">
    <path clip-path="url(#p149e35e8cc)" d="M 46.145455 133.2 
L 50.563636 133.2 
L 50.563636 127.009632 
L 46.145455 127.009632 
z
" style="fill:#ff7f0e;"/>
   </g>
   <g id="patch_9">
    <path clip-path="url(#p149e35e8cc)" d="M 50.563636 133.2 
L 54.981818 133.2 
L 54.981818 124.225519 
L 50.563636 124.225519 
z
" style="fill:#ff7f0e;"/>
   </g>
   <g id="patch_10">
    <path clip-path="url(#p149e35e8cc)" d="M 54.981818 133.2 
L 59.4 133.2 
L 59.4 123.060699 
L 54.981818 123.060699 
z
" style="fill:#ff7f0e;"/>
   </g>
   <g id="patch_11">
    <path clip-path="url(#p149e35e8cc)" d="M 59.4 133.2 
L 63.818182 133.2 
L 63.818182 117.724314 
L 59.4 117.724314 
z
" style="fill:#ff7f0e;"/>
   </g>
   <g id="patch_12">
    <path clip-path="url(#p149e35e8cc)" d="M 63.818182 133.2 
L 68.236364 133.2 
L 68.236364 108.998165 
L 63.818182 108.998165 
z
" style="fill:#ff7f0e;"/>
   </g>
   <g id="patch_13">
    <path clip-path="url(#p149e35e8cc)" d="M 68.236364 133.2 
L 72.654545 133.2 
L 72.654545 101.036021 
L 68.236364 101.036021 
z
" style="fill:#ff7f0e;"/>
   </g>
   <g id="patch_14">
    <path clip-path="url(#p149e35e8cc)" d="M 72.654545 133.2 
L 77.072727 133.2 
L 77.072727 103.717563 
L 72.654545 103.717563 
z
" style="fill:#ff7f0e;"/>
   </g>
   <g id="patch_15">
    <path clip-path="url(#p149e35e8cc)" d="M 77.072727 133.2 
L 81.490909 133.2 
L 81.490909 88.180444 
L 77.072727 88.180444 
z
" style="fill:#ff7f0e;"/>
   </g>
   <g id="patch_16">
    <path clip-path="url(#p149e35e8cc)" d="M 81.490909 133.2 
L 85.909091 133.2 
L 85.909091 76.583912 
L 81.490909 76.583912 
z
" style="fill:#ff7f0e;"/>
   </g>
   <g id="patch_17">
    <path clip-path="url(#p149e35e8cc)" d="M 85.909091 133.2 
L 90.327273 133.2 
L 90.327273 72.342005 
L 85.909091 72.342005 
z
" style="fill:#ff7f0e;"/>
   </g>
   <g id="patch_18">
    <path clip-path="url(#p149e35e8cc)" d="M 90.327273 133.2 
L 94.745455 133.2 
L 94.745455 71.713348 
L 90.327273 71.713348 
z
" style="fill:#ff7f0e;"/>
   </g>
   <g id="patch_19">
    <path clip-path="url(#p149e35e8cc)" d="M 94.745455 133.2 
L 99.163636 133.2 
L 99.163636 57.450838 
L 94.745455 57.450838 
z
" style="fill:#ff7f0e;"/>
   </g>
   <g id="patch_20">
    <path clip-path="url(#p149e35e8cc)" d="M 99.163636 133.2 
L 103.581818 133.2 
L 103.581818 50.348868 
L 99.163636 50.348868 
z
" style="fill:#ff7f0e;"/>
   </g>
   <g id="patch_21">
    <path clip-path="url(#p149e35e8cc)" d="M 103.581818 133.2 
L 108 133.2 
L 108 47.000543 
L 103.581818 47.000543 
z
" style="fill:#ff7f0e;"/>
   </g>
   <g id="patch_22">
    <path clip-path="url(#p149e35e8cc)" d="M 108 133.2 
L 112.418182 133.2 
L 112.418182 43.598767 
L 108 43.598767 
z
" style="fill:#ff7f0e;"/>
   </g>
   <g id="patch_23">
    <path clip-path="url(#p149e35e8cc)" d="M 112.418182 133.2 
L 116.836364 133.2 
L 116.836364 50.768191 
L 112.418182 50.768191 
z
" style="fill:#ff7f0e;"/>
   </g>
   <g id="patch_24">
    <path clip-path="url(#p149e35e8cc)" d="M 116.836364 133.2 
L 121.254545 133.2 
L 121.254545 45.506342 
L 116.836364 45.506342 
z
" style="fill:#ff7f0e;"/>
   </g>
   <g id="patch_25">
    <path clip-path="url(#p149e35e8cc)" d="M 121.254545 133.2 
L 125.672727 133.2 
L 125.672727 46.51344 
L 121.254545 46.51344 
z
" style="fill:#ff7f0e;"/>
   </g>
   <g id="patch_26">
    <path clip-path="url(#p149e35e8cc)" d="M 125.672727 133.2 
L 130.090909 133.2 
L 130.090909 52.618532 
L 125.672727 52.618532 
z
" style="fill:#ff7f0e;"/>
   </g>
   <g id="patch_27">
    <path clip-path="url(#p149e35e8cc)" d="M 130.090909 133.2 
L 134.509091 133.2 
L 134.509091 57.336948 
L 130.090909 57.336948 
z
" style="fill:#ff7f0e;"/>
   </g>
   <g id="patch_28">
    <path clip-path="url(#p149e35e8cc)" d="M 134.509091 133.2 
L 138.927273 133.2 
L 138.927273 66.716008 
L 134.509091 66.716008 
z
" style="fill:#ff7f0e;"/>
   </g>
   <g id="patch_29">
    <path clip-path="url(#p149e35e8cc)" d="M 138.927273 133.2 
L 143.345455 133.2 
L 143.345455 79.521564 
L 138.927273 79.521564 
z
" style="fill:#ff7f0e;"/>
   </g>
   <g id="patch_30">
    <path clip-path="url(#p149e35e8cc)" d="M 143.345455 133.2 
L 147.763636 133.2 
L 147.763636 85.880982 
L 143.345455 85.880982 
z
" style="fill:#ff7f0e;"/>
   </g>
   <g id="patch_31">
    <path clip-path="url(#p149e35e8cc)" d="M 147.763636 133.2 
L 152.181818 133.2 
L 152.181818 84.152722 
L 147.763636 84.152722 
z
" style="fill:#ff7f0e;"/>
   </g>
   <g id="patch_32">
    <path clip-path="url(#p149e35e8cc)" d="M 152.181818 133.2 
L 156.6 133.2 
L 156.6 101.219988 
L 152.181818 101.219988 
z
" style="fill:#ff7f0e;"/>
   </g>
   <g id="patch_33">
    <path clip-path="url(#p149e35e8cc)" d="M 156.6 133.2 
L 161.018182 133.2 
L 161.018182 103.450734 
L 156.6 103.450734 
z
" style="fill:#ff7f0e;"/>
   </g>
   <g id="patch_34">
    <path clip-path="url(#p149e35e8cc)" d="M 161.018182 133.2 
L 165.436364 133.2 
L 165.436364 109.564207 
L 161.018182 109.564207 
z
" style="fill:#ff7f0e;"/>
   </g>
   <g id="patch_35">
    <path clip-path="url(#p149e35e8cc)" d="M 165.436364 133.2 
L 169.854545 133.2 
L 169.854545 115.481969 
L 165.436364 115.481969 
z
" style="fill:#ff7f0e;"/>
   </g>
   <g id="patch_36">
    <path clip-path="url(#p149e35e8cc)" d="M 169.854545 133.2 
L 174.272727 133.2 
L 174.272727 121.136886 
L 169.854545 121.136886 
z
" style="fill:#ff7f0e;"/>
   </g>
   <g id="patch_37">
    <path clip-path="url(#p149e35e8cc)" d="M 174.272727 133.2 
L 178.690909 133.2 
L 178.690909 123.186074 
L 174.272727 123.186074 
z
" style="fill:#ff7f0e;"/>
   </g>
   <g id="patch_38">
    <path clip-path="url(#p149e35e8cc)" d="M 178.690909 133.2 
L 183.109091 133.2 
L 183.109091 122.679347 
L 178.690909 122.679347 
z
" style="fill:#ff7f0e;"/>
   </g>
   <g id="patch_39">
    <path clip-path="url(#p149e35e8cc)" d="M 183.109091 133.2 
L 187.527273 133.2 
L 187.527273 128.393725 
L 183.109091 128.393725 
z
" style="fill:#ff7f0e;"/>
   </g>
   <g id="patch_40">
    <path clip-path="url(#p149e35e8cc)" d="M 187.527273 133.2 
L 191.945455 133.2 
L 191.945455 124.484086 
L 187.527273 124.484086 
z
" style="fill:#ff7f0e;"/>
   </g>
   <g id="patch_41">
    <path clip-path="url(#p149e35e8cc)" d="M 191.945455 133.2 
L 196.363636 133.2 
L 196.363636 133.2 
L 191.945455 133.2 
z
" style="fill:#ff7f0e;"/>
   </g>
   <g id="line2d_1">
    <path clip-path="url(#p149e35e8cc)" d="M 19.636364 133.191859 
L 33.845592 133.072042 
L 40.062129 132.834409 
L 44.502513 132.468835 
L 48.05482 131.969125 
L 50.71905 131.415936 
L 53.38328 130.656603 
L 56.04751 129.633256 
L 58.711741 128.279262 
L 60.487894 127.156604 
L 62.264048 125.830964 
L 64.040201 124.278607 
L 65.816354 122.47591 
L 67.592508 120.400072 
L 69.368661 118.029942 
L 71.144815 115.34693 
L 72.920968 112.335988 
L 74.697122 108.986634 
L 76.473275 105.293966 
L 79.137506 99.116893 
L 81.801736 92.210627 
L 84.465966 84.655715 
L 88.018273 73.798051 
L 97.787117 43.04214 
L 100.451348 35.615409 
L 102.227501 31.162477 
L 104.003655 27.196272 
L 105.779808 23.784914 
L 107.555962 20.987734 
L 109.332115 18.853549 
L 110.220192 18.047103 
L 111.108269 17.41924 
L 111.996345 16.972532 
L 112.884422 16.708693 
L 113.772499 16.628571 
L 114.660576 16.732145 
L 115.548652 17.018526 
L 116.436729 17.485966 
L 117.324806 18.131881 
L 118.212883 18.952867 
L 119.989036 21.10254 
L 121.76519 23.892682 
L 123.541343 27.270365 
L 125.317497 31.173683 
L 127.09365 35.533618 
L 129.75788 42.766591 
L 133.310187 53.296538 
L 143.079032 82.947222 
L 145.743262 90.268428 
L 148.407492 97.000834 
L 151.071722 103.072524 
L 153.735952 108.448219 
L 156.400183 113.124492 
L 158.176336 115.863714 
L 159.95249 118.313553 
L 161.728643 120.488924 
L 163.504797 122.407041 
L 165.28095 124.086685 
L 167.057104 125.54755 
L 168.833257 126.809667 
L 171.497487 128.373539 
L 174.161718 129.59927 
L 176.825948 130.546348 
L 179.490178 131.267926 
L 183.042485 131.958003 
L 186.594792 132.418398 
L 191.035176 132.774687 
L 196.363636 133.003699 
L 196.363636 133.003699 
" style="fill:none;stroke:#000000;stroke-linecap:square;stroke-width:1.5;"/>
   </g>
  </g>
 </g>
 <defs>
  <clipPath id="p149e35e8cc">
   <rect height="122.4" width="194.4" x="10.8" y="10.8"/>
  </clipPath>
 </defs>
</svg>
