<?xml version="1.0" encoding="utf-8" standalone="no"?>
<!DOCTYPE svg PUBLIC "-//W3C//DTD SVG 1.1//EN"
  "http://www.w3.org/Graphics/SVG/1.1/DTD/svg11.dtd">
<!-- Created with matplotlib (https://matplotlib.org/) -->
<svg height="144pt" version="1.1" viewBox="0 0 216 144" width="216pt" xmlns="http://www.w3.org/2000/svg" xmlns:xlink="http://www.w3.org/1999/xlink">
 <defs>
  <style type="text/css">
*{stroke-linecap:butt;stroke-linejoin:round;}
  </style>
 </defs>
 <g id="figure_1">
  <g id="patch_1">
   <path d="M 0 144 
L 216 144 
L 216 0 
L 0 0 
z
" style="fill:#ffffff;"/>
  </g>
  <g id="axes_1">
   <g id="patch_2">
    <path clip-path="url(#p804464f7a6)" d="M 19.636364 133.2 
L 24.054545 133.2 
L 24.054545 133.2 
L 19.636364 133.2 
z
" style="fill:#9467bd;"/>
   </g>
   <g id="patch_3">
    <path clip-path="url(#p804464f7a6)" d="M 24.054545 133.2 
L 28.472727 133.2 
L 28.472727 133.2 
L 24.054545 133.2 
z
" style="fill:#9467bd;"/>
   </g>
   <g id="patch_4">
    <path clip-path="url(#p804464f7a6)" d="M 28.472727 133.2 
L 32.890909 133.2 
L 32.890909 133.2 
L 28.472727 133.2 
z
" style="fill:#9467bd;"/>
   </g>
   <g id="patch_5">
    <path clip-path="url(#p804464f7a6)" d="M 32.890909 133.2 
L 37.309091 133.2 
L 37.309091 133.2 
L 32.890909 133.2 
z
" style="fill:#9467bd;"/>
   </g>
   <g id="patch_6">
    <path clip-path="url(#p804464f7a6)" d="M 37.309091 133.2 
L 41.727273 133.2 
L 41.727273 133.2 
L 37.309091 133.2 
z
" style="fill:#9467bd;"/>
   </g>
   <g id="patch_7">
    <path clip-path="url(#p804464f7a6)" d="M 41.727273 133.2 
L 46.145455 133.2 
L 46.145455 133.2 
L 41.727273 133.2 
z
" style="fill:#9467bd;"/>
   </g>
   <g id="patch_8">
    <path clip-path="url(#p804464f7a6)" d="M 46.145455 133.2 
L 50.563636 133.2 
L 50.563636 133.2 
L 46.145455 133.2 
z
" style="fill:#9467bd;"/>
   </g>
   <g id="patch_9">
    <path clip-path="url(#p804464f7a6)" d="M 50.563636 133.2 
L 54.981818 133.2 
L 54.981818 133.2 
L 50.563636 133.2 
z
" style="fill:#9467bd;"/>
   </g>
   <g id="patch_10">
    <path clip-path="url(#p804464f7a6)" d="M 54.981818 133.2 
L 59.4 133.2 
L 59.4 133.2 
L 54.981818 133.2 
z
" style="fill:#9467bd;"/>
   </g>
   <g id="patch_11">
    <path clip-path="url(#p804464f7a6)" d="M 59.4 133.2 
L 63.818182 133.2 
L 63.818182 133.2 
L 59.4 133.2 
z
" style="fill:#9467bd;"/>
   </g>
   <g id="patch_12">
    <path clip-path="url(#p804464f7a6)" d="M 63.818182 133.2 
L 68.236364 133.2 
L 68.236364 133.2 
L 63.818182 133.2 
z
" style="fill:#9467bd;"/>
   </g>
   <g id="patch_13">
    <path clip-path="url(#p804464f7a6)" d="M 68.236364 133.2 
L 72.654545 133.2 
L 72.654545 133.2 
L 68.236364 133.2 
z
" style="fill:#9467bd;"/>
   </g>
   <g id="patch_14">
    <path clip-path="url(#p804464f7a6)" d="M 72.654545 133.2 
L 77.072727 133.2 
L 77.072727 133.2 
L 72.654545 133.2 
z
" style="fill:#9467bd;"/>
   </g>
   <g id="patch_15">
    <path clip-path="url(#p804464f7a6)" d="M 77.072727 133.2 
L 81.490909 133.2 
L 81.490909 133.2 
L 77.072727 133.2 
z
" style="fill:#9467bd;"/>
   </g>
   <g id="patch_16">
    <path clip-path="url(#p804464f7a6)" d="M 81.490909 133.2 
L 85.909091 133.2 
L 85.909091 133.2 
L 81.490909 133.2 
z
" style="fill:#9467bd;"/>
   </g>
   <g id="patch_17">
    <path clip-path="url(#p804464f7a6)" d="M 85.909091 133.2 
L 90.327273 133.2 
L 90.327273 133.2 
L 85.909091 133.2 
z
" style="fill:#9467bd;"/>
   </g>
   <g id="patch_18">
    <path clip-path="url(#p804464f7a6)" d="M 90.327273 133.2 
L 94.745455 133.2 
L 94.745455 131.658207 
L 90.327273 131.658207 
z
" style="fill:#9467bd;"/>
   </g>
   <g id="patch_19">
    <path clip-path="url(#p804464f7a6)" d="M 94.745455 133.2 
L 99.163636 133.2 
L 99.163636 16.628571 
L 94.745455 16.628571 
z
" style="fill:#9467bd;"/>
   </g>
   <g id="patch_20">
    <path clip-path="url(#p804464f7a6)" d="M 99.163636 133.2 
L 103.581818 133.2 
L 103.581818 23.12145 
L 99.163636 23.12145 
z
" style="fill:#9467bd;"/>
   </g>
   <g id="patch_21">
    <path clip-path="url(#p804464f7a6)" d="M 103.581818 133.2 
L 108 133.2 
L 108 29.051771 
L 103.581818 29.051771 
z
" style="fill:#9467bd;"/>
   </g>
   <g id="patch_22">
    <path clip-path="url(#p804464f7a6)" d="M 108 133.2 
L 112.418182 133.2 
L 112.418182 23.495113 
L 108 23.495113 
z
" style="fill:#9467bd;"/>
   </g>
   <g id="patch_23">
    <path clip-path="url(#p804464f7a6)" d="M 112.418182 133.2 
L 116.836364 133.2 
L 116.836364 28.416869 
L 112.418182 28.416869 
z
" style="fill:#9467bd;"/>
   </g>
   <g id="patch_24">
    <path clip-path="url(#p804464f7a6)" d="M 116.836364 133.2 
L 121.254545 133.2 
L 121.254545 24.42846 
L 116.836364 24.42846 
z
" style="fill:#9467bd;"/>
   </g>
   <g id="patch_25">
    <path clip-path="url(#p804464f7a6)" d="M 121.254545 133.2 
L 125.672727 133.2 
L 125.672727 21.934552 
L 121.254545 21.934552 
z
" style="fill:#9467bd;"/>
   </g>
   <g id="patch_26">
    <path clip-path="url(#p804464f7a6)" d="M 125.672727 133.2 
L 130.090909 133.2 
L 130.090909 30.476778 
L 125.672727 30.476778 
z
" style="fill:#9467bd;"/>
   </g>
   <g id="patch_27">
    <path clip-path="url(#p804464f7a6)" d="M 130.090909 133.2 
L 134.509091 133.2 
L 134.509091 23.824612 
L 130.090909 23.824612 
z
" style="fill:#9467bd;"/>
   </g>
   <g id="patch_28">
    <path clip-path="url(#p804464f7a6)" d="M 134.509091 133.2 
L 138.927273 133.2 
L 138.927273 26.855164 
L 134.509091 26.855164 
z
" style="fill:#9467bd;"/>
   </g>
   <g id="patch_29">
    <path clip-path="url(#p804464f7a6)" d="M 138.927273 133.2 
L 143.345455 133.2 
L 143.345455 23.518424 
L 138.927273 23.518424 
z
" style="fill:#9467bd;"/>
   </g>
   <g id="patch_30">
    <path clip-path="url(#p804464f7a6)" d="M 143.345455 133.2 
L 147.763636 133.2 
L 147.763636 21.254713 
L 143.345455 21.254713 
z
" style="fill:#9467bd;"/>
   </g>
   <g id="patch_31">
    <path clip-path="url(#p804464f7a6)" d="M 147.763636 133.2 
L 152.181818 133.2 
L 152.181818 23.251809 
L 147.763636 23.251809 
z
" style="fill:#9467bd;"/>
   </g>
   <g id="patch_32">
    <path clip-path="url(#p804464f7a6)" d="M 152.181818 133.2 
L 156.6 133.2 
L 156.6 133.064794 
L 152.181818 133.064794 
z
" style="fill:#9467bd;"/>
   </g>
   <g id="patch_33">
    <path clip-path="url(#p804464f7a6)" d="M 156.6 133.2 
L 161.018182 133.2 
L 161.018182 133.2 
L 156.6 133.2 
z
" style="fill:#9467bd;"/>
   </g>
   <g id="patch_34">
    <path clip-path="url(#p804464f7a6)" d="M 161.018182 133.2 
L 165.436364 133.2 
L 165.436364 133.2 
L 161.018182 133.2 
z
" style="fill:#9467bd;"/>
   </g>
   <g id="patch_35">
    <path clip-path="url(#p804464f7a6)" d="M 165.436364 133.2 
L 169.854545 133.2 
L 169.854545 133.2 
L 165.436364 133.2 
z
" style="fill:#9467bd;"/>
   </g>
   <g id="patch_36">
    <path clip-path="url(#p804464f7a6)" d="M 169.854545 133.2 
L 174.272727 133.2 
L 174.272727 133.2 
L 169.854545 133.2 
z
" style="fill:#9467bd;"/>
   </g>
   <g id="patch_37">
    <path clip-path="url(#p804464f7a6)" d="M 174.272727 133.2 
L 178.690909 133.2 
L 178.690909 133.2 
L 174.272727 133.2 
z
" style="fill:#9467bd;"/>
   </g>
   <g id="patch_38">
    <path clip-path="url(#p804464f7a6)" d="M 178.690909 133.2 
L 183.109091 133.2 
L 183.109091 133.2 
L 178.690909 133.2 
z
" style="fill:#9467bd;"/>
   </g>
   <g id="patch_39">
    <path clip-path="url(#p804464f7a6)" d="M 183.109091 133.2 
L 187.527273 133.2 
L 187.527273 133.2 
L 183.109091 133.2 
z
" style="fill:#9467bd;"/>
   </g>
   <g id="patch_40">
    <path clip-path="url(#p804464f7a6)" d="M 187.527273 133.2 
L 191.945455 133.2 
L 191.945455 133.2 
L 187.527273 133.2 
z
" style="fill:#9467bd;"/>
   </g>
   <g id="patch_41">
    <path clip-path="url(#p804464f7a6)" d="M 191.945455 133.2 
L 196.363636 133.2 
L 196.363636 133.2 
L 191.945455 133.2 
z
" style="fill:#9467bd;"/>
   </g>
   <g id="line2d_1">
    <path clip-path="url(#p804464f7a6)" d="M 19.636364 133.198824 
L 41.838282 133.09209 
L 48.942896 132.843961 
L 53.38328 132.493253 
L 56.935587 132.016651 
L 59.599817 131.491195 
L 62.264048 130.772253 
L 64.928278 129.806156 
L 67.592508 128.531224 
L 69.368661 127.476125 
L 71.144815 126.231973 
L 72.920968 124.776833 
L 74.697122 123.088859 
L 76.473275 121.14694 
L 78.249429 118.931447 
L 80.025582 116.425052 
L 81.801736 113.613625 
L 83.577889 110.487153 
L 85.354043 107.040671 
L 88.018273 101.274869 
L 90.682503 94.825265 
L 93.346734 87.763208 
L 96.899041 77.595729 
L 107.555962 46.145147 
L 110.220192 39.30359 
L 111.996345 35.232562 
L 113.772499 31.633233 
L 115.548652 28.566524 
L 117.324806 26.084872 
L 119.100959 24.230731 
L 119.989036 23.54921 
L 120.877113 23.035361 
L 121.76519 22.691201 
L 122.653266 22.517955 
L 123.541343 22.516054 
L 124.42942 22.685134 
L 125.317497 23.024038 
L 126.205573 23.530835 
L 127.09365 24.20283 
L 127.981727 25.036593 
L 129.75788 27.172185 
L 131.534034 29.896632 
L 133.310187 33.159487 
L 135.086341 36.902372 
L 136.862494 41.060688 
L 139.526725 47.925412 
L 143.079032 57.872119 
L 151.959799 83.345811 
L 155.512106 92.61223 
L 158.176336 98.931497 
L 160.840566 104.634158 
L 163.504797 109.688123 
L 166.169027 114.090378 
L 167.94518 116.672603 
L 169.721334 118.984902 
L 171.497487 121.040972 
L 173.273641 122.856633 
L 175.049794 124.449163 
L 176.825948 125.836705 
L 179.490178 127.574069 
L 182.154408 128.953281 
L 184.818639 130.032737 
L 187.482869 130.865894 
L 190.147099 131.500202 
L 193.699406 132.106552 
L 196.363636 132.42524 
L 196.363636 132.42524 
" style="fill:none;stroke:#1f77b4;stroke-linecap:square;stroke-width:1.5;"/>
   </g>
  </g>
 </g>
 <defs>
  <clipPath id="p804464f7a6">
   <rect height="122.4" width="194.4" x="10.8" y="10.8"/>
  </clipPath>
 </defs>
</svg>
