<?xml version="1.0" encoding="utf-8" standalone="no"?>
<!DOCTYPE svg PUBLIC "-//W3C//DTD SVG 1.1//EN"
  "http://www.w3.org/Graphics/SVG/1.1/DTD/svg11.dtd">
<!-- Created with matplotlib (https://matplotlib.org/) -->
<svg height="144pt" version="1.1" viewBox="0 0 216 144" width="216pt" xmlns="http://www.w3.org/2000/svg" xmlns:xlink="http://www.w3.org/1999/xlink">
 <defs>
  <style type="text/css">
*{stroke-linecap:butt;stroke-linejoin:round;}
  </style>
 </defs>
 <g id="figure_1">
  <g id="patch_1">
   <path d="M 0 144 
L 216 144 
L 216 0 
L 0 0 
z
" style="fill:#ffffff;"/>
  </g>
  <g id="axes_1">
   <g id="patch_2">
    <path clip-path="url(#p202530be9e)" d="M 19.636364 133.2 
L 24.054545 133.2 
L 24.054545 133.2 
L 19.636364 133.2 
z
" style="fill:#2ca02c;"/>
   </g>
   <g id="patch_3">
    <path clip-path="url(#p202530be9e)" d="M 24.054545 133.2 
L 28.472727 133.2 
L 28.472727 133.2 
L 24.054545 133.2 
z
" style="fill:#2ca02c;"/>
   </g>
   <g id="patch_4">
    <path clip-path="url(#p202530be9e)" d="M 28.472727 133.2 
L 32.890909 133.2 
L 32.890909 133.2 
L 28.472727 133.2 
z
" style="fill:#2ca02c;"/>
   </g>
   <g id="patch_5">
    <path clip-path="url(#p202530be9e)" d="M 32.890909 133.2 
L 37.309091 133.2 
L 37.309091 133.2 
L 32.890909 133.2 
z
" style="fill:#2ca02c;"/>
   </g>
   <g id="patch_6">
    <path clip-path="url(#p202530be9e)" d="M 37.309091 133.2 
L 41.727273 133.2 
L 41.727273 133.2 
L 37.309091 133.2 
z
" style="fill:#2ca02c;"/>
   </g>
   <g id="patch_7">
    <path clip-path="url(#p202530be9e)" d="M 41.727273 133.2 
L 46.145455 133.2 
L 46.145455 133.2 
L 41.727273 133.2 
z
" style="fill:#2ca02c;"/>
   </g>
   <g id="patch_8">
    <path clip-path="url(#p202530be9e)" d="M 46.145455 133.2 
L 50.563636 133.2 
L 50.563636 133.2 
L 46.145455 133.2 
z
" style="fill:#2ca02c;"/>
   </g>
   <g id="patch_9">
    <path clip-path="url(#p202530be9e)" d="M 50.563636 133.2 
L 54.981818 133.2 
L 54.981818 133.2 
L 50.563636 133.2 
z
" style="fill:#2ca02c;"/>
   </g>
   <g id="patch_10">
    <path clip-path="url(#p202530be9e)" d="M 54.981818 133.2 
L 59.4 133.2 
L 59.4 133.2 
L 54.981818 133.2 
z
" style="fill:#2ca02c;"/>
   </g>
   <g id="patch_11">
    <path clip-path="url(#p202530be9e)" d="M 59.4 133.2 
L 63.818182 133.2 
L 63.818182 133.2 
L 59.4 133.2 
z
" style="fill:#2ca02c;"/>
   </g>
   <g id="patch_12">
    <path clip-path="url(#p202530be9e)" d="M 63.818182 133.2 
L 68.236364 133.2 
L 68.236364 133.2 
L 63.818182 133.2 
z
" style="fill:#2ca02c;"/>
   </g>
   <g id="patch_13">
    <path clip-path="url(#p202530be9e)" d="M 68.236364 133.2 
L 72.654545 133.2 
L 72.654545 133.2 
L 68.236364 133.2 
z
" style="fill:#2ca02c;"/>
   </g>
   <g id="patch_14">
    <path clip-path="url(#p202530be9e)" d="M 72.654545 133.2 
L 77.072727 133.2 
L 77.072727 133.2 
L 72.654545 133.2 
z
" style="fill:#2ca02c;"/>
   </g>
   <g id="patch_15">
    <path clip-path="url(#p202530be9e)" d="M 77.072727 133.2 
L 81.490909 133.2 
L 81.490909 133.2 
L 77.072727 133.2 
z
" style="fill:#2ca02c;"/>
   </g>
   <g id="patch_16">
    <path clip-path="url(#p202530be9e)" d="M 81.490909 133.2 
L 85.909091 133.2 
L 85.909091 133.2 
L 81.490909 133.2 
z
" style="fill:#2ca02c;"/>
   </g>
   <g id="patch_17">
    <path clip-path="url(#p202530be9e)" d="M 85.909091 133.2 
L 90.327273 133.2 
L 90.327273 133.2 
L 85.909091 133.2 
z
" style="fill:#2ca02c;"/>
   </g>
   <g id="patch_18">
    <path clip-path="url(#p202530be9e)" d="M 90.327273 133.2 
L 94.745455 133.2 
L 94.745455 82.177977 
L 90.327273 82.177977 
z
" style="fill:#2ca02c;"/>
   </g>
   <g id="patch_19">
    <path clip-path="url(#p202530be9e)" d="M 94.745455 133.2 
L 99.163636 133.2 
L 99.163636 24.540653 
L 94.745455 24.540653 
z
" style="fill:#2ca02c;"/>
   </g>
   <g id="patch_20">
    <path clip-path="url(#p202530be9e)" d="M 99.163636 133.2 
L 103.581818 133.2 
L 103.581818 23.98081 
L 99.163636 23.98081 
z
" style="fill:#2ca02c;"/>
   </g>
   <g id="patch_21">
    <path clip-path="url(#p202530be9e)" d="M 103.581818 133.2 
L 108 133.2 
L 108 24.508695 
L 103.581818 24.508695 
z
" style="fill:#2ca02c;"/>
   </g>
   <g id="patch_22">
    <path clip-path="url(#p202530be9e)" d="M 108 133.2 
L 112.418182 133.2 
L 112.418182 29.474651 
L 108 29.474651 
z
" style="fill:#2ca02c;"/>
   </g>
   <g id="patch_23">
    <path clip-path="url(#p202530be9e)" d="M 112.418182 133.2 
L 116.836364 133.2 
L 116.836364 28.756478 
L 112.418182 28.756478 
z
" style="fill:#2ca02c;"/>
   </g>
   <g id="patch_24">
    <path clip-path="url(#p202530be9e)" d="M 116.836364 133.2 
L 121.254545 133.2 
L 121.254545 32.10026 
L 116.836364 32.10026 
z
" style="fill:#2ca02c;"/>
   </g>
   <g id="patch_25">
    <path clip-path="url(#p202530be9e)" d="M 121.254545 133.2 
L 125.672727 133.2 
L 125.672727 20.456981 
L 121.254545 20.456981 
z
" style="fill:#2ca02c;"/>
   </g>
   <g id="patch_26">
    <path clip-path="url(#p202530be9e)" d="M 125.672727 133.2 
L 130.090909 133.2 
L 130.090909 16.628571 
L 125.672727 16.628571 
z
" style="fill:#2ca02c;"/>
   </g>
   <g id="patch_27">
    <path clip-path="url(#p202530be9e)" d="M 130.090909 133.2 
L 134.509091 133.2 
L 134.509091 22.28129 
L 130.090909 22.28129 
z
" style="fill:#2ca02c;"/>
   </g>
   <g id="patch_28">
    <path clip-path="url(#p202530be9e)" d="M 134.509091 133.2 
L 138.927273 133.2 
L 138.927273 23.3772 
L 134.509091 23.3772 
z
" style="fill:#2ca02c;"/>
   </g>
   <g id="patch_29">
    <path clip-path="url(#p202530be9e)" d="M 138.927273 133.2 
L 143.345455 133.2 
L 143.345455 22.46151 
L 138.927273 22.46151 
z
" style="fill:#2ca02c;"/>
   </g>
   <g id="patch_30">
    <path clip-path="url(#p202530be9e)" d="M 143.345455 133.2 
L 147.763636 133.2 
L 147.763636 20.422865 
L 143.345455 20.422865 
z
" style="fill:#2ca02c;"/>
   </g>
   <g id="patch_31">
    <path clip-path="url(#p202530be9e)" d="M 147.763636 133.2 
L 152.181818 133.2 
L 152.181818 89.193284 
L 147.763636 89.193284 
z
" style="fill:#2ca02c;"/>
   </g>
   <g id="patch_32">
    <path clip-path="url(#p202530be9e)" d="M 152.181818 133.2 
L 156.6 133.2 
L 156.6 133.2 
L 152.181818 133.2 
z
" style="fill:#2ca02c;"/>
   </g>
   <g id="patch_33">
    <path clip-path="url(#p202530be9e)" d="M 156.6 133.2 
L 161.018182 133.2 
L 161.018182 133.2 
L 156.6 133.2 
z
" style="fill:#2ca02c;"/>
   </g>
   <g id="patch_34">
    <path clip-path="url(#p202530be9e)" d="M 161.018182 133.2 
L 165.436364 133.2 
L 165.436364 133.2 
L 161.018182 133.2 
z
" style="fill:#2ca02c;"/>
   </g>
   <g id="patch_35">
    <path clip-path="url(#p202530be9e)" d="M 165.436364 133.2 
L 169.854545 133.2 
L 169.854545 133.2 
L 165.436364 133.2 
z
" style="fill:#2ca02c;"/>
   </g>
   <g id="patch_36">
    <path clip-path="url(#p202530be9e)" d="M 169.854545 133.2 
L 174.272727 133.2 
L 174.272727 133.2 
L 169.854545 133.2 
z
" style="fill:#2ca02c;"/>
   </g>
   <g id="patch_37">
    <path clip-path="url(#p202530be9e)" d="M 174.272727 133.2 
L 178.690909 133.2 
L 178.690909 133.2 
L 174.272727 133.2 
z
" style="fill:#2ca02c;"/>
   </g>
   <g id="patch_38">
    <path clip-path="url(#p202530be9e)" d="M 178.690909 133.2 
L 183.109091 133.2 
L 183.109091 133.2 
L 178.690909 133.2 
z
" style="fill:#2ca02c;"/>
   </g>
   <g id="patch_39">
    <path clip-path="url(#p202530be9e)" d="M 183.109091 133.2 
L 187.527273 133.2 
L 187.527273 133.2 
L 183.109091 133.2 
z
" style="fill:#2ca02c;"/>
   </g>
   <g id="patch_40">
    <path clip-path="url(#p202530be9e)" d="M 187.527273 133.2 
L 191.945455 133.2 
L 191.945455 133.2 
L 187.527273 133.2 
z
" style="fill:#2ca02c;"/>
   </g>
   <g id="patch_41">
    <path clip-path="url(#p202530be9e)" d="M 191.945455 133.2 
L 196.363636 133.2 
L 196.363636 133.2 
L 191.945455 133.2 
z
" style="fill:#2ca02c;"/>
   </g>
   <g id="line2d_1">
    <path clip-path="url(#p202530be9e)" d="M 19.636364 133.198197 
L 40.062129 133.088491 
L 47.166743 132.831312 
L 51.607127 132.467583 
L 55.159434 131.973281 
L 57.823664 131.42845 
L 60.487894 130.683311 
L 63.152124 129.682619 
L 65.816354 128.363077 
L 67.592508 127.271925 
L 69.368661 125.986217 
L 71.144815 124.483731 
L 72.920968 122.742455 
L 74.697122 120.741272 
L 76.473275 118.460737 
L 78.249429 115.883939 
L 80.025582 112.99742 
L 81.801736 109.792123 
L 84.465966 104.380031 
L 87.130196 98.258443 
L 89.794427 91.47929 
L 92.458657 84.135773 
L 96.010964 73.707434 
L 104.003655 49.888036 
L 106.667885 42.697881 
L 108.444038 38.33465 
L 110.220192 34.400267 
L 111.996345 30.961282 
L 113.772499 28.076794 
L 115.548652 25.796742 
L 116.436729 24.896121 
L 117.324806 24.160467 
L 118.212883 23.592855 
L 119.100959 23.195577 
L 119.989036 22.970123 
L 120.877113 22.917178 
L 121.76519 23.036614 
L 122.653266 23.327497 
L 123.541343 23.788097 
L 124.42942 24.415903 
L 125.317497 25.207647 
L 127.09365 27.266257 
L 128.869804 29.92381 
L 130.645957 33.130363 
L 132.422111 36.827691 
L 134.198264 40.951019 
L 136.862494 47.781975 
L 140.414801 57.714265 
L 150.183646 85.655586 
L 152.847876 92.555961 
L 155.512106 98.903956 
L 158.176336 104.632124 
L 160.840566 109.707168 
L 163.504797 114.125515 
L 165.28095 116.715672 
L 167.057104 119.033769 
L 168.833257 121.093667 
L 170.609411 122.911388 
L 172.385564 124.504443 
L 174.161718 125.89122 
L 176.825948 127.625548 
L 179.490178 129.000151 
L 182.154408 130.074104 
L 184.818639 130.901421 
L 187.482869 131.529975 
L 191.035176 132.129275 
L 195.47556 132.603615 
L 196.363636 132.671559 
L 196.363636 132.671559 
" style="fill:none;stroke:#000000;stroke-linecap:square;stroke-width:1.5;"/>
   </g>
  </g>
 </g>
 <defs>
  <clipPath id="p202530be9e">
   <rect height="122.4" width="194.4" x="10.8" y="10.8"/>
  </clipPath>
 </defs>
</svg>
