<?xml version="1.0" encoding="utf-8" standalone="no"?>
<!DOCTYPE svg PUBLIC "-//W3C//DTD SVG 1.1//EN"
  "http://www.w3.org/Graphics/SVG/1.1/DTD/svg11.dtd">
<!-- Created with matplotlib (https://matplotlib.org/) -->
<svg height="144pt" version="1.1" viewBox="0 0 216 144" width="216pt" xmlns="http://www.w3.org/2000/svg" xmlns:xlink="http://www.w3.org/1999/xlink">
 <defs>
  <style type="text/css">
*{stroke-linecap:butt;stroke-linejoin:round;}
  </style>
 </defs>
 <g id="figure_1">
  <g id="patch_1">
   <path d="M 0 144 
L 216 144 
L 216 0 
L 0 0 
z
" style="fill:#ffffff;"/>
  </g>
  <g id="axes_1">
   <g id="patch_2">
    <path clip-path="url(#p0c5f9c995c)" d="M 19.636364 133.2 
L 24.054545 133.2 
L 24.054545 133.2 
L 19.636364 133.2 
z
" style="fill:#1f77b4;"/>
   </g>
   <g id="patch_3">
    <path clip-path="url(#p0c5f9c995c)" d="M 24.054545 133.2 
L 28.472727 133.2 
L 28.472727 133.2 
L 24.054545 133.2 
z
" style="fill:#1f77b4;"/>
   </g>
   <g id="patch_4">
    <path clip-path="url(#p0c5f9c995c)" d="M 28.472727 133.2 
L 32.890909 133.2 
L 32.890909 133.2 
L 28.472727 133.2 
z
" style="fill:#1f77b4;"/>
   </g>
   <g id="patch_5">
    <path clip-path="url(#p0c5f9c995c)" d="M 32.890909 133.2 
L 37.309091 133.2 
L 37.309091 133.2 
L 32.890909 133.2 
z
" style="fill:#1f77b4;"/>
   </g>
   <g id="patch_6">
    <path clip-path="url(#p0c5f9c995c)" d="M 37.309091 133.2 
L 41.727273 133.2 
L 41.727273 133.2 
L 37.309091 133.2 
z
" style="fill:#1f77b4;"/>
   </g>
   <g id="patch_7">
    <path clip-path="url(#p0c5f9c995c)" d="M 41.727273 133.2 
L 46.145455 133.2 
L 46.145455 133.2 
L 41.727273 133.2 
z
" style="fill:#1f77b4;"/>
   </g>
   <g id="patch_8">
    <path clip-path="url(#p0c5f9c995c)" d="M 46.145455 133.2 
L 50.563636 133.2 
L 50.563636 133.2 
L 46.145455 133.2 
z
" style="fill:#1f77b4;"/>
   </g>
   <g id="patch_9">
    <path clip-path="url(#p0c5f9c995c)" d="M 50.563636 133.2 
L 54.981818 133.2 
L 54.981818 133.2 
L 50.563636 133.2 
z
" style="fill:#1f77b4;"/>
   </g>
   <g id="patch_10">
    <path clip-path="url(#p0c5f9c995c)" d="M 54.981818 133.2 
L 59.4 133.2 
L 59.4 123.197368 
L 54.981818 123.197368 
z
" style="fill:#1f77b4;"/>
   </g>
   <g id="patch_11">
    <path clip-path="url(#p0c5f9c995c)" d="M 59.4 133.2 
L 63.818182 133.2 
L 63.818182 116.336635 
L 59.4 116.336635 
z
" style="fill:#1f77b4;"/>
   </g>
   <g id="patch_12">
    <path clip-path="url(#p0c5f9c995c)" d="M 63.818182 133.2 
L 68.236364 133.2 
L 68.236364 133.2 
L 63.818182 133.2 
z
" style="fill:#1f77b4;"/>
   </g>
   <g id="patch_13">
    <path clip-path="url(#p0c5f9c995c)" d="M 68.236364 133.2 
L 72.654545 133.2 
L 72.654545 127.968181 
L 68.236364 127.968181 
z
" style="fill:#1f77b4;"/>
   </g>
   <g id="patch_14">
    <path clip-path="url(#p0c5f9c995c)" d="M 72.654545 133.2 
L 77.072727 133.2 
L 77.072727 112.436572 
L 72.654545 112.436572 
z
" style="fill:#1f77b4;"/>
   </g>
   <g id="patch_15">
    <path clip-path="url(#p0c5f9c995c)" d="M 77.072727 133.2 
L 81.490909 133.2 
L 81.490909 107.054462 
L 77.072727 107.054462 
z
" style="fill:#1f77b4;"/>
   </g>
   <g id="patch_16">
    <path clip-path="url(#p0c5f9c995c)" d="M 81.490909 133.2 
L 85.909091 133.2 
L 85.909091 115.196095 
L 81.490909 115.196095 
z
" style="fill:#1f77b4;"/>
   </g>
   <g id="patch_17">
    <path clip-path="url(#p0c5f9c995c)" d="M 85.909091 133.2 
L 90.327273 133.2 
L 90.327273 88.306498 
L 85.909091 88.306498 
z
" style="fill:#1f77b4;"/>
   </g>
   <g id="patch_18">
    <path clip-path="url(#p0c5f9c995c)" d="M 90.327273 133.2 
L 94.745455 133.2 
L 94.745455 83.236773 
L 90.327273 83.236773 
z
" style="fill:#1f77b4;"/>
   </g>
   <g id="patch_19">
    <path clip-path="url(#p0c5f9c995c)" d="M 94.745455 133.2 
L 99.163636 133.2 
L 99.163636 67.858505 
L 94.745455 67.858505 
z
" style="fill:#1f77b4;"/>
   </g>
   <g id="patch_20">
    <path clip-path="url(#p0c5f9c995c)" d="M 99.163636 133.2 
L 103.581818 133.2 
L 103.581818 61.026522 
L 99.163636 61.026522 
z
" style="fill:#1f77b4;"/>
   </g>
   <g id="patch_21">
    <path clip-path="url(#p0c5f9c995c)" d="M 103.581818 133.2 
L 108 133.2 
L 108 64.620823 
L 103.581818 64.620823 
z
" style="fill:#1f77b4;"/>
   </g>
   <g id="patch_22">
    <path clip-path="url(#p0c5f9c995c)" d="M 108 133.2 
L 112.418182 133.2 
L 112.418182 51.006868 
L 108 51.006868 
z
" style="fill:#1f77b4;"/>
   </g>
   <g id="patch_23">
    <path clip-path="url(#p0c5f9c995c)" d="M 112.418182 133.2 
L 116.836364 133.2 
L 116.836364 37.981568 
L 112.418182 37.981568 
z
" style="fill:#1f77b4;"/>
   </g>
   <g id="patch_24">
    <path clip-path="url(#p0c5f9c995c)" d="M 116.836364 133.2 
L 121.254545 133.2 
L 121.254545 30.977932 
L 116.836364 30.977932 
z
" style="fill:#1f77b4;"/>
   </g>
   <g id="patch_25">
    <path clip-path="url(#p0c5f9c995c)" d="M 121.254545 133.2 
L 125.672727 133.2 
L 125.672727 32.192179 
L 121.254545 32.192179 
z
" style="fill:#1f77b4;"/>
   </g>
   <g id="patch_26">
    <path clip-path="url(#p0c5f9c995c)" d="M 125.672727 133.2 
L 130.090909 133.2 
L 130.090909 37.258138 
L 125.672727 37.258138 
z
" style="fill:#1f77b4;"/>
   </g>
   <g id="patch_27">
    <path clip-path="url(#p0c5f9c995c)" d="M 130.090909 133.2 
L 134.509091 133.2 
L 134.509091 54.182911 
L 130.090909 54.182911 
z
" style="fill:#1f77b4;"/>
   </g>
   <g id="patch_28">
    <path clip-path="url(#p0c5f9c995c)" d="M 134.509091 133.2 
L 138.927273 133.2 
L 138.927273 39.321634 
L 134.509091 39.321634 
z
" style="fill:#1f77b4;"/>
   </g>
   <g id="patch_29">
    <path clip-path="url(#p0c5f9c995c)" d="M 138.927273 133.2 
L 143.345455 133.2 
L 143.345455 64.248928 
L 138.927273 64.248928 
z
" style="fill:#1f77b4;"/>
   </g>
   <g id="patch_30">
    <path clip-path="url(#p0c5f9c995c)" d="M 143.345455 133.2 
L 147.763636 133.2 
L 147.763636 66.509435 
L 143.345455 66.509435 
z
" style="fill:#1f77b4;"/>
   </g>
   <g id="patch_31">
    <path clip-path="url(#p0c5f9c995c)" d="M 147.763636 133.2 
L 152.181818 133.2 
L 152.181818 68.257504 
L 147.763636 68.257504 
z
" style="fill:#1f77b4;"/>
   </g>
   <g id="patch_32">
    <path clip-path="url(#p0c5f9c995c)" d="M 152.181818 133.2 
L 156.6 133.2 
L 156.6 89.009126 
L 152.181818 89.009126 
z
" style="fill:#1f77b4;"/>
   </g>
   <g id="patch_33">
    <path clip-path="url(#p0c5f9c995c)" d="M 156.6 133.2 
L 161.018182 133.2 
L 161.018182 90.690011 
L 156.6 90.690011 
z
" style="fill:#1f77b4;"/>
   </g>
   <g id="patch_34">
    <path clip-path="url(#p0c5f9c995c)" d="M 161.018182 133.2 
L 165.436364 133.2 
L 165.436364 91.215505 
L 161.018182 91.215505 
z
" style="fill:#1f77b4;"/>
   </g>
   <g id="patch_35">
    <path clip-path="url(#p0c5f9c995c)" d="M 165.436364 133.2 
L 169.854545 133.2 
L 169.854545 104.494019 
L 165.436364 104.494019 
z
" style="fill:#1f77b4;"/>
   </g>
   <g id="patch_36">
    <path clip-path="url(#p0c5f9c995c)" d="M 169.854545 133.2 
L 174.272727 133.2 
L 174.272727 105.0562 
L 169.854545 105.0562 
z
" style="fill:#1f77b4;"/>
   </g>
   <g id="patch_37">
    <path clip-path="url(#p0c5f9c995c)" d="M 174.272727 133.2 
L 178.690909 133.2 
L 178.690909 97.845447 
L 174.272727 97.845447 
z
" style="fill:#1f77b4;"/>
   </g>
   <g id="patch_38">
    <path clip-path="url(#p0c5f9c995c)" d="M 178.690909 133.2 
L 183.109091 133.2 
L 183.109091 118.847601 
L 178.690909 118.847601 
z
" style="fill:#1f77b4;"/>
   </g>
   <g id="patch_39">
    <path clip-path="url(#p0c5f9c995c)" d="M 183.109091 133.2 
L 187.527273 133.2 
L 187.527273 133.2 
L 183.109091 133.2 
z
" style="fill:#1f77b4;"/>
   </g>
   <g id="patch_40">
    <path clip-path="url(#p0c5f9c995c)" d="M 187.527273 133.2 
L 191.945455 133.2 
L 191.945455 133.2 
L 187.527273 133.2 
z
" style="fill:#1f77b4;"/>
   </g>
   <g id="patch_41">
    <path clip-path="url(#p0c5f9c995c)" d="M 191.945455 133.2 
L 196.363636 133.2 
L 196.363636 124.07401 
L 191.945455 124.07401 
z
" style="fill:#1f77b4;"/>
   </g>
   <g id="line2d_1">
    <path clip-path="url(#p0c5f9c995c)" d="M 19.636364 133.198762 
L 41.838282 133.08635 
L 48.942896 132.825022 
L 53.38328 132.45566 
L 56.935587 131.953707 
L 59.599817 131.400301 
L 62.264048 130.643116 
L 64.928278 129.625631 
L 67.592508 128.282883 
L 69.368661 127.171661 
L 71.144815 125.861331 
L 72.920968 124.328789 
L 74.697122 122.551029 
L 76.473275 120.505816 
L 78.249429 118.172476 
L 80.025582 115.532761 
L 81.801736 112.571789 
L 83.577889 109.279015 
L 85.354043 105.649208 
L 88.018273 99.576712 
L 90.682503 92.784042 
L 93.346734 85.346342 
L 96.899041 74.638036 
L 107.555962 41.514539 
L 110.220192 34.309067 
L 111.996345 30.021494 
L 113.772499 26.23071 
L 115.548652 23.000877 
L 117.324806 20.387221 
L 119.100959 18.434455 
L 119.989036 17.716682 
L 120.877113 17.175501 
L 121.76519 16.813035 
L 122.653266 16.630573 
L 123.541343 16.628571 
L 124.42942 16.806644 
L 125.317497 17.163576 
L 126.205573 17.69733 
L 127.09365 18.40507 
L 127.981727 19.283182 
L 129.75788 21.53237 
L 131.534034 24.401735 
L 133.310187 27.838148 
L 135.086341 31.780124 
L 136.862494 36.159628 
L 139.526725 43.3895 
L 143.079032 53.86529 
L 151.959799 80.693975 
L 154.624029 88.101357 
L 157.288259 94.959736 
L 159.95249 101.187611 
L 162.61672 106.739897 
L 165.28095 111.603793 
L 167.057104 114.470021 
L 168.833257 117.045822 
L 170.609411 119.344228 
L 172.385564 121.380871 
L 174.161718 123.173265 
L 175.937871 124.740137 
L 177.714025 126.100834 
L 180.378255 127.797792 
L 183.042485 129.138526 
L 185.706715 130.182973 
L 188.370946 130.985417 
L 191.923253 131.760408 
L 195.47556 132.283539 
L 196.363636 132.38403 
L 196.363636 132.38403 
" style="fill:none;stroke:#9467bd;stroke-linecap:square;stroke-width:1.5;"/>
   </g>
  </g>
 </g>
 <defs>
  <clipPath id="p0c5f9c995c">
   <rect height="122.4" width="194.4" x="10.8" y="10.8"/>
  </clipPath>
 </defs>
</svg>
