<?xml version="1.0" encoding="utf-8" standalone="no"?>
<!DOCTYPE svg PUBLIC "-//W3C//DTD SVG 1.1//EN"
  "http://www.w3.org/Graphics/SVG/1.1/DTD/svg11.dtd">
<!-- Created with matplotlib (https://matplotlib.org/) -->
<svg height="144pt" version="1.1" viewBox="0 0 216 144" width="216pt" xmlns="http://www.w3.org/2000/svg" xmlns:xlink="http://www.w3.org/1999/xlink">
 <defs>
  <style type="text/css">
*{stroke-linecap:butt;stroke-linejoin:round;}
  </style>
 </defs>
 <g id="figure_1">
  <g id="patch_1">
   <path d="M 0 144 
L 216 144 
L 216 0 
L 0 0 
z
" style="fill:#ffffff;"/>
  </g>
  <g id="axes_1">
   <g id="patch_2">
    <path clip-path="url(#p7c51e850db)" d="M 19.636364 133.2 
L 24.054545 133.2 
L 24.054545 133.2 
L 19.636364 133.2 
z
" style="fill:#1f77b4;"/>
   </g>
   <g id="patch_3">
    <path clip-path="url(#p7c51e850db)" d="M 24.054545 133.2 
L 28.472727 133.2 
L 28.472727 133.2 
L 24.054545 133.2 
z
" style="fill:#1f77b4;"/>
   </g>
   <g id="patch_4">
    <path clip-path="url(#p7c51e850db)" d="M 28.472727 133.2 
L 32.890909 133.2 
L 32.890909 133.2 
L 28.472727 133.2 
z
" style="fill:#1f77b4;"/>
   </g>
   <g id="patch_5">
    <path clip-path="url(#p7c51e850db)" d="M 32.890909 133.2 
L 37.309091 133.2 
L 37.309091 133.2 
L 32.890909 133.2 
z
" style="fill:#1f77b4;"/>
   </g>
   <g id="patch_6">
    <path clip-path="url(#p7c51e850db)" d="M 37.309091 133.2 
L 41.727273 133.2 
L 41.727273 133.2 
L 37.309091 133.2 
z
" style="fill:#1f77b4;"/>
   </g>
   <g id="patch_7">
    <path clip-path="url(#p7c51e850db)" d="M 41.727273 133.2 
L 46.145455 133.2 
L 46.145455 133.2 
L 41.727273 133.2 
z
" style="fill:#1f77b4;"/>
   </g>
   <g id="patch_8">
    <path clip-path="url(#p7c51e850db)" d="M 46.145455 133.2 
L 50.563636 133.2 
L 50.563636 133.2 
L 46.145455 133.2 
z
" style="fill:#1f77b4;"/>
   </g>
   <g id="patch_9">
    <path clip-path="url(#p7c51e850db)" d="M 50.563636 133.2 
L 54.981818 133.2 
L 54.981818 132.115379 
L 50.563636 132.115379 
z
" style="fill:#1f77b4;"/>
   </g>
   <g id="patch_10">
    <path clip-path="url(#p7c51e850db)" d="M 54.981818 133.2 
L 59.4 133.2 
L 59.4 133.2 
L 54.981818 133.2 
z
" style="fill:#1f77b4;"/>
   </g>
   <g id="patch_11">
    <path clip-path="url(#p7c51e850db)" d="M 59.4 133.2 
L 63.818182 133.2 
L 63.818182 129.188638 
L 59.4 129.188638 
z
" style="fill:#1f77b4;"/>
   </g>
   <g id="patch_12">
    <path clip-path="url(#p7c51e850db)" d="M 63.818182 133.2 
L 68.236364 133.2 
L 68.236364 125.297421 
L 63.818182 125.297421 
z
" style="fill:#1f77b4;"/>
   </g>
   <g id="patch_13">
    <path clip-path="url(#p7c51e850db)" d="M 68.236364 133.2 
L 72.654545 133.2 
L 72.654545 122.826409 
L 68.236364 122.826409 
z
" style="fill:#1f77b4;"/>
   </g>
   <g id="patch_14">
    <path clip-path="url(#p7c51e850db)" d="M 72.654545 133.2 
L 77.072727 133.2 
L 77.072727 119.780251 
L 72.654545 119.780251 
z
" style="fill:#1f77b4;"/>
   </g>
   <g id="patch_15">
    <path clip-path="url(#p7c51e850db)" d="M 77.072727 133.2 
L 81.490909 133.2 
L 81.490909 112.931413 
L 77.072727 112.931413 
z
" style="fill:#1f77b4;"/>
   </g>
   <g id="patch_16">
    <path clip-path="url(#p7c51e850db)" d="M 81.490909 133.2 
L 85.909091 133.2 
L 85.909091 104.554978 
L 81.490909 104.554978 
z
" style="fill:#1f77b4;"/>
   </g>
   <g id="patch_17">
    <path clip-path="url(#p7c51e850db)" d="M 85.909091 133.2 
L 90.327273 133.2 
L 90.327273 91.728178 
L 85.909091 91.728178 
z
" style="fill:#1f77b4;"/>
   </g>
   <g id="patch_18">
    <path clip-path="url(#p7c51e850db)" d="M 90.327273 133.2 
L 94.745455 133.2 
L 94.745455 84.56476 
L 90.327273 84.56476 
z
" style="fill:#1f77b4;"/>
   </g>
   <g id="patch_19">
    <path clip-path="url(#p7c51e850db)" d="M 94.745455 133.2 
L 99.163636 133.2 
L 99.163636 66.986307 
L 94.745455 66.986307 
z
" style="fill:#1f77b4;"/>
   </g>
   <g id="patch_20">
    <path clip-path="url(#p7c51e850db)" d="M 99.163636 133.2 
L 103.581818 133.2 
L 103.581818 46.742158 
L 99.163636 46.742158 
z
" style="fill:#1f77b4;"/>
   </g>
   <g id="patch_21">
    <path clip-path="url(#p7c51e850db)" d="M 103.581818 133.2 
L 108 133.2 
L 108 44.325115 
L 103.581818 44.325115 
z
" style="fill:#1f77b4;"/>
   </g>
   <g id="patch_22">
    <path clip-path="url(#p7c51e850db)" d="M 108 133.2 
L 112.418182 133.2 
L 112.418182 34.020412 
L 108 34.020412 
z
" style="fill:#1f77b4;"/>
   </g>
   <g id="patch_23">
    <path clip-path="url(#p7c51e850db)" d="M 112.418182 133.2 
L 116.836364 133.2 
L 116.836364 24.630984 
L 112.418182 24.630984 
z
" style="fill:#1f77b4;"/>
   </g>
   <g id="patch_24">
    <path clip-path="url(#p7c51e850db)" d="M 116.836364 133.2 
L 121.254545 133.2 
L 121.254545 16.628571 
L 116.836364 16.628571 
z
" style="fill:#1f77b4;"/>
   </g>
   <g id="patch_25">
    <path clip-path="url(#p7c51e850db)" d="M 121.254545 133.2 
L 125.672727 133.2 
L 125.672727 18.360175 
L 121.254545 18.360175 
z
" style="fill:#1f77b4;"/>
   </g>
   <g id="patch_26">
    <path clip-path="url(#p7c51e850db)" d="M 125.672727 133.2 
L 130.090909 133.2 
L 130.090909 30.983554 
L 125.672727 30.983554 
z
" style="fill:#1f77b4;"/>
   </g>
   <g id="patch_27">
    <path clip-path="url(#p7c51e850db)" d="M 130.090909 133.2 
L 134.509091 133.2 
L 134.509091 35.102376 
L 130.090909 35.102376 
z
" style="fill:#1f77b4;"/>
   </g>
   <g id="patch_28">
    <path clip-path="url(#p7c51e850db)" d="M 134.509091 133.2 
L 138.927273 133.2 
L 138.927273 40.658665 
L 134.509091 40.658665 
z
" style="fill:#1f77b4;"/>
   </g>
   <g id="patch_29">
    <path clip-path="url(#p7c51e850db)" d="M 138.927273 133.2 
L 143.345455 133.2 
L 143.345455 54.624172 
L 138.927273 54.624172 
z
" style="fill:#1f77b4;"/>
   </g>
   <g id="patch_30">
    <path clip-path="url(#p7c51e850db)" d="M 143.345455 133.2 
L 147.763636 133.2 
L 147.763636 70.960375 
L 143.345455 70.960375 
z
" style="fill:#1f77b4;"/>
   </g>
   <g id="patch_31">
    <path clip-path="url(#p7c51e850db)" d="M 147.763636 133.2 
L 152.181818 133.2 
L 152.181818 82.491229 
L 147.763636 82.491229 
z
" style="fill:#1f77b4;"/>
   </g>
   <g id="patch_32">
    <path clip-path="url(#p7c51e850db)" d="M 152.181818 133.2 
L 156.6 133.2 
L 156.6 94.207799 
L 152.181818 94.207799 
z
" style="fill:#1f77b4;"/>
   </g>
   <g id="patch_33">
    <path clip-path="url(#p7c51e850db)" d="M 156.6 133.2 
L 161.018182 133.2 
L 161.018182 107.123176 
L 156.6 107.123176 
z
" style="fill:#1f77b4;"/>
   </g>
   <g id="patch_34">
    <path clip-path="url(#p7c51e850db)" d="M 161.018182 133.2 
L 165.436364 133.2 
L 165.436364 113.713271 
L 161.018182 113.713271 
z
" style="fill:#1f77b4;"/>
   </g>
   <g id="patch_35">
    <path clip-path="url(#p7c51e850db)" d="M 165.436364 133.2 
L 169.854545 133.2 
L 169.854545 118.878413 
L 165.436364 118.878413 
z
" style="fill:#1f77b4;"/>
   </g>
   <g id="patch_36">
    <path clip-path="url(#p7c51e850db)" d="M 169.854545 133.2 
L 174.272727 133.2 
L 174.272727 123.966554 
L 169.854545 123.966554 
z
" style="fill:#1f77b4;"/>
   </g>
   <g id="patch_37">
    <path clip-path="url(#p7c51e850db)" d="M 174.272727 133.2 
L 178.690909 133.2 
L 178.690909 127.457069 
L 174.272727 127.457069 
z
" style="fill:#1f77b4;"/>
   </g>
   <g id="patch_38">
    <path clip-path="url(#p7c51e850db)" d="M 178.690909 133.2 
L 183.109091 133.2 
L 183.109091 129.625529 
L 178.690909 129.625529 
z
" style="fill:#1f77b4;"/>
   </g>
   <g id="patch_39">
    <path clip-path="url(#p7c51e850db)" d="M 183.109091 133.2 
L 187.527273 133.2 
L 187.527273 130.952195 
L 183.109091 130.952195 
z
" style="fill:#1f77b4;"/>
   </g>
   <g id="patch_40">
    <path clip-path="url(#p7c51e850db)" d="M 187.527273 133.2 
L 191.945455 133.2 
L 191.945455 131.244441 
L 187.527273 131.244441 
z
" style="fill:#1f77b4;"/>
   </g>
   <g id="patch_41">
    <path clip-path="url(#p7c51e850db)" d="M 191.945455 133.2 
L 196.363636 133.2 
L 196.363636 132.068642 
L 191.945455 132.068642 
z
" style="fill:#1f77b4;"/>
   </g>
   <g id="line2d_1">
    <path clip-path="url(#p7c51e850db)" d="M 19.636364 133.198121 
L 40.062129 133.083788 
L 47.166743 132.815765 
L 51.607127 132.436698 
L 55.159434 131.921553 
L 57.823664 131.353747 
L 60.487894 130.577187 
L 63.152124 129.534297 
L 65.816354 128.159113 
L 67.592508 127.021948 
L 69.368661 125.682025 
L 71.144815 124.116182 
L 72.920968 122.301479 
L 74.697122 120.21591 
L 76.473275 117.839209 
L 78.249429 115.153752 
L 80.025582 112.145514 
L 81.801736 108.805056 
L 83.577889 105.128508 
L 86.24212 98.991267 
L 88.90635 92.146072 
L 91.57058 84.675403 
L 95.122887 73.967133 
L 104.891731 43.800569 
L 107.555962 36.556681 
L 109.332115 32.223846 
L 111.108269 28.373473 
L 112.884422 25.071271 
L 114.660576 22.374264 
L 116.436729 20.329144 
L 117.324806 19.562469 
L 118.212883 18.970922 
L 119.100959 18.556891 
L 119.989036 18.321931 
L 120.877113 18.266753 
L 121.76519 18.391225 
L 122.653266 18.694374 
L 123.541343 19.174397 
L 124.42942 19.828676 
L 125.317497 20.653806 
L 127.09365 22.799224 
L 128.869804 25.568842 
L 130.645957 28.910609 
L 132.422111 32.763847 
L 134.198264 37.061048 
L 136.862494 44.180053 
L 140.414801 54.531169 
L 150.183646 83.650725 
L 152.847876 90.842076 
L 155.512106 97.457755 
L 158.176336 103.427469 
L 160.840566 108.716518 
L 163.504797 113.321179 
L 165.28095 116.020558 
L 167.057104 118.436405 
L 168.833257 120.583165 
L 170.609411 122.477536 
L 172.385564 124.137768 
L 174.161718 125.583022 
L 176.825948 127.390484 
L 179.490178 128.823051 
L 182.154408 129.94229 
L 184.818639 130.804494 
L 187.482869 131.459553 
L 191.035176 132.084125 
L 195.47556 132.578467 
L 196.363636 132.649276 
L 196.363636 132.649276 
" style="fill:none;stroke:#000000;stroke-linecap:square;stroke-width:1.5;"/>
   </g>
  </g>
 </g>
 <defs>
  <clipPath id="p7c51e850db">
   <rect height="122.4" width="194.4" x="10.8" y="10.8"/>
  </clipPath>
 </defs>
</svg>
