<?xml version="1.0" encoding="utf-8" standalone="no"?>
<!DOCTYPE svg PUBLIC "-//W3C//DTD SVG 1.1//EN"
  "http://www.w3.org/Graphics/SVG/1.1/DTD/svg11.dtd">
<!-- Created with matplotlib (https://matplotlib.org/) -->
<svg height="144pt" version="1.1" viewBox="0 0 216 144" width="216pt" xmlns="http://www.w3.org/2000/svg" xmlns:xlink="http://www.w3.org/1999/xlink">
 <defs>
  <style type="text/css">
*{stroke-linecap:butt;stroke-linejoin:round;}
  </style>
 </defs>
 <g id="figure_1">
  <g id="patch_1">
   <path d="M 0 144 
L 216 144 
L 216 0 
L 0 0 
z
" style="fill:#ffffff;"/>
  </g>
  <g id="axes_1">
   <g id="patch_2">
    <path clip-path="url(#pf82f122fa5)" d="M 19.636364 133.2 
L 24.054545 133.2 
L 24.054545 133.2 
L 19.636364 133.2 
z
" style="fill:#ff7f0e;"/>
   </g>
   <g id="patch_3">
    <path clip-path="url(#pf82f122fa5)" d="M 24.054545 133.2 
L 28.472727 133.2 
L 28.472727 133.2 
L 24.054545 133.2 
z
" style="fill:#ff7f0e;"/>
   </g>
   <g id="patch_4">
    <path clip-path="url(#pf82f122fa5)" d="M 28.472727 133.2 
L 32.890909 133.2 
L 32.890909 133.2 
L 28.472727 133.2 
z
" style="fill:#ff7f0e;"/>
   </g>
   <g id="patch_5">
    <path clip-path="url(#pf82f122fa5)" d="M 32.890909 133.2 
L 37.309091 133.2 
L 37.309091 133.2 
L 32.890909 133.2 
z
" style="fill:#ff7f0e;"/>
   </g>
   <g id="patch_6">
    <path clip-path="url(#pf82f122fa5)" d="M 37.309091 133.2 
L 41.727273 133.2 
L 41.727273 133.2 
L 37.309091 133.2 
z
" style="fill:#ff7f0e;"/>
   </g>
   <g id="patch_7">
    <path clip-path="url(#pf82f122fa5)" d="M 41.727273 133.2 
L 46.145455 133.2 
L 46.145455 133.2 
L 41.727273 133.2 
z
" style="fill:#ff7f0e;"/>
   </g>
   <g id="patch_8">
    <path clip-path="url(#pf82f122fa5)" d="M 46.145455 133.2 
L 50.563636 133.2 
L 50.563636 133.2 
L 46.145455 133.2 
z
" style="fill:#ff7f0e;"/>
   </g>
   <g id="patch_9">
    <path clip-path="url(#pf82f122fa5)" d="M 50.563636 133.2 
L 54.981818 133.2 
L 54.981818 128.658606 
L 50.563636 128.658606 
z
" style="fill:#ff7f0e;"/>
   </g>
   <g id="patch_10">
    <path clip-path="url(#pf82f122fa5)" d="M 54.981818 133.2 
L 59.4 133.2 
L 59.4 125.615307 
L 54.981818 125.615307 
z
" style="fill:#ff7f0e;"/>
   </g>
   <g id="patch_11">
    <path clip-path="url(#pf82f122fa5)" d="M 59.4 133.2 
L 63.818182 133.2 
L 63.818182 124.146455 
L 59.4 124.146455 
z
" style="fill:#ff7f0e;"/>
   </g>
   <g id="patch_12">
    <path clip-path="url(#pf82f122fa5)" d="M 63.818182 133.2 
L 68.236364 133.2 
L 68.236364 118.059069 
L 63.818182 118.059069 
z
" style="fill:#ff7f0e;"/>
   </g>
   <g id="patch_13">
    <path clip-path="url(#pf82f122fa5)" d="M 68.236364 133.2 
L 72.654545 133.2 
L 72.654545 117.846419 
L 68.236364 117.846419 
z
" style="fill:#ff7f0e;"/>
   </g>
   <g id="patch_14">
    <path clip-path="url(#pf82f122fa5)" d="M 72.654545 133.2 
L 77.072727 133.2 
L 77.072727 113.472818 
L 72.654545 113.472818 
z
" style="fill:#ff7f0e;"/>
   </g>
   <g id="patch_15">
    <path clip-path="url(#pf82f122fa5)" d="M 77.072727 133.2 
L 81.490909 133.2 
L 81.490909 104.2525 
L 77.072727 104.2525 
z
" style="fill:#ff7f0e;"/>
   </g>
   <g id="patch_16">
    <path clip-path="url(#pf82f122fa5)" d="M 81.490909 133.2 
L 85.909091 133.2 
L 85.909091 92.725052 
L 81.490909 92.725052 
z
" style="fill:#ff7f0e;"/>
   </g>
   <g id="patch_17">
    <path clip-path="url(#pf82f122fa5)" d="M 85.909091 133.2 
L 90.327273 133.2 
L 90.327273 88.398607 
L 85.909091 88.398607 
z
" style="fill:#ff7f0e;"/>
   </g>
   <g id="patch_18">
    <path clip-path="url(#pf82f122fa5)" d="M 90.327273 133.2 
L 94.745455 133.2 
L 94.745455 80.529856 
L 90.327273 80.529856 
z
" style="fill:#ff7f0e;"/>
   </g>
   <g id="patch_19">
    <path clip-path="url(#pf82f122fa5)" d="M 94.745455 133.2 
L 99.163636 133.2 
L 99.163636 72.346745 
L 94.745455 72.346745 
z
" style="fill:#ff7f0e;"/>
   </g>
   <g id="patch_20">
    <path clip-path="url(#pf82f122fa5)" d="M 99.163636 133.2 
L 103.581818 133.2 
L 103.581818 56.727508 
L 99.163636 56.727508 
z
" style="fill:#ff7f0e;"/>
   </g>
   <g id="patch_21">
    <path clip-path="url(#pf82f122fa5)" d="M 103.581818 133.2 
L 108 133.2 
L 108 50.272426 
L 103.581818 50.272426 
z
" style="fill:#ff7f0e;"/>
   </g>
   <g id="patch_22">
    <path clip-path="url(#pf82f122fa5)" d="M 108 133.2 
L 112.418182 133.2 
L 112.418182 46.002138 
L 108 46.002138 
z
" style="fill:#ff7f0e;"/>
   </g>
   <g id="patch_23">
    <path clip-path="url(#pf82f122fa5)" d="M 112.418182 133.2 
L 116.836364 133.2 
L 116.836364 46.188899 
L 112.418182 46.188899 
z
" style="fill:#ff7f0e;"/>
   </g>
   <g id="patch_24">
    <path clip-path="url(#pf82f122fa5)" d="M 116.836364 133.2 
L 121.254545 133.2 
L 121.254545 35.207993 
L 116.836364 35.207993 
z
" style="fill:#ff7f0e;"/>
   </g>
   <g id="patch_25">
    <path clip-path="url(#pf82f122fa5)" d="M 121.254545 133.2 
L 125.672727 133.2 
L 125.672727 42.040241 
L 121.254545 42.040241 
z
" style="fill:#ff7f0e;"/>
   </g>
   <g id="patch_26">
    <path clip-path="url(#pf82f122fa5)" d="M 125.672727 133.2 
L 130.090909 133.2 
L 130.090909 41.860838 
L 125.672727 41.860838 
z
" style="fill:#ff7f0e;"/>
   </g>
   <g id="patch_27">
    <path clip-path="url(#pf82f122fa5)" d="M 130.090909 133.2 
L 134.509091 133.2 
L 134.509091 48.138195 
L 130.090909 48.138195 
z
" style="fill:#ff7f0e;"/>
   </g>
   <g id="patch_28">
    <path clip-path="url(#pf82f122fa5)" d="M 134.509091 133.2 
L 138.927273 133.2 
L 138.927273 51.745107 
L 134.509091 51.745107 
z
" style="fill:#ff7f0e;"/>
   </g>
   <g id="patch_29">
    <path clip-path="url(#pf82f122fa5)" d="M 138.927273 133.2 
L 143.345455 133.2 
L 143.345455 55.269655 
L 138.927273 55.269655 
z
" style="fill:#ff7f0e;"/>
   </g>
   <g id="patch_30">
    <path clip-path="url(#pf82f122fa5)" d="M 143.345455 133.2 
L 147.763636 133.2 
L 147.763636 69.046399 
L 143.345455 69.046399 
z
" style="fill:#ff7f0e;"/>
   </g>
   <g id="patch_31">
    <path clip-path="url(#pf82f122fa5)" d="M 147.763636 133.2 
L 152.181818 133.2 
L 152.181818 74.54513 
L 147.763636 74.54513 
z
" style="fill:#ff7f0e;"/>
   </g>
   <g id="patch_32">
    <path clip-path="url(#pf82f122fa5)" d="M 152.181818 133.2 
L 156.6 133.2 
L 156.6 87.284616 
L 152.181818 87.284616 
z
" style="fill:#ff7f0e;"/>
   </g>
   <g id="patch_33">
    <path clip-path="url(#pf82f122fa5)" d="M 156.6 133.2 
L 161.018182 133.2 
L 161.018182 93.9551 
L 156.6 93.9551 
z
" style="fill:#ff7f0e;"/>
   </g>
   <g id="patch_34">
    <path clip-path="url(#pf82f122fa5)" d="M 161.018182 133.2 
L 165.436364 133.2 
L 165.436364 102.333911 
L 161.018182 102.333911 
z
" style="fill:#ff7f0e;"/>
   </g>
   <g id="patch_35">
    <path clip-path="url(#pf82f122fa5)" d="M 165.436364 133.2 
L 169.854545 133.2 
L 169.854545 109.10787 
L 165.436364 109.10787 
z
" style="fill:#ff7f0e;"/>
   </g>
   <g id="patch_36">
    <path clip-path="url(#pf82f122fa5)" d="M 169.854545 133.2 
L 174.272727 133.2 
L 174.272727 114.905064 
L 169.854545 114.905064 
z
" style="fill:#ff7f0e;"/>
   </g>
   <g id="patch_37">
    <path clip-path="url(#pf82f122fa5)" d="M 174.272727 133.2 
L 178.690909 133.2 
L 178.690909 115.978061 
L 174.272727 115.978061 
z
" style="fill:#ff7f0e;"/>
   </g>
   <g id="patch_38">
    <path clip-path="url(#pf82f122fa5)" d="M 178.690909 133.2 
L 183.109091 133.2 
L 183.109091 121.792753 
L 178.690909 121.792753 
z
" style="fill:#ff7f0e;"/>
   </g>
   <g id="patch_39">
    <path clip-path="url(#pf82f122fa5)" d="M 183.109091 133.2 
L 187.527273 133.2 
L 187.527273 129.724024 
L 183.109091 129.724024 
z
" style="fill:#ff7f0e;"/>
   </g>
   <g id="patch_40">
    <path clip-path="url(#pf82f122fa5)" d="M 187.527273 133.2 
L 191.945455 133.2 
L 191.945455 127.513212 
L 187.527273 127.513212 
z
" style="fill:#ff7f0e;"/>
   </g>
   <g id="patch_41">
    <path clip-path="url(#pf82f122fa5)" d="M 191.945455 133.2 
L 196.363636 133.2 
L 196.363636 125.385986 
L 191.945455 125.385986 
z
" style="fill:#ff7f0e;"/>
   </g>
   <g id="line2d_1">
    <path clip-path="url(#pf82f122fa5)" d="M 19.636364 133.198095 
L 40.062129 133.082132 
L 46.278666 132.862176 
L 50.71905 132.52261 
L 54.271357 132.057033 
L 56.935587 131.5403 
L 59.599817 130.829292 
L 62.264048 129.868615 
L 64.928278 128.594081 
L 66.704431 127.534824 
L 68.480585 126.281552 
L 70.256738 124.810898 
L 72.032892 123.0994 
L 73.809045 121.124168 
L 75.585199 118.863656 
L 77.361352 116.298531 
L 79.137506 113.412617 
L 80.913659 110.193891 
L 82.689813 106.635479 
L 85.354043 100.661236 
L 88.018273 93.950703 
L 90.682503 86.572963 
L 94.23481 75.900868 
L 105.779808 39.989577 
L 108.444038 32.925187 
L 110.220192 28.766455 
L 111.996345 25.131371 
L 113.772499 22.082402 
L 115.548652 19.672336 
L 116.436729 18.720359 
L 117.324806 17.942756 
L 118.212883 17.342778 
L 119.100959 16.922845 
L 119.989036 16.684536 
L 120.877113 16.628571 
L 121.76519 16.754818 
L 122.653266 17.062288 
L 123.541343 17.549152 
L 124.42942 18.212757 
L 125.317497 19.049649 
L 127.09365 21.225646 
L 128.869804 24.034739 
L 130.645957 27.424138 
L 132.422111 31.332298 
L 134.198264 35.690748 
L 136.862494 42.911222 
L 140.414801 53.409876 
L 150.183646 82.944483 
L 152.847876 90.238335 
L 155.512106 96.948309 
L 158.176336 103.003112 
L 160.840566 108.367547 
L 163.504797 113.03784 
L 165.28095 115.775693 
L 167.057104 118.225975 
L 168.833257 120.403333 
L 170.609411 122.324705 
L 172.385564 124.008601 
L 174.161718 125.474454 
L 175.937871 126.742058 
L 178.602101 128.314635 
L 181.266332 129.54912 
L 183.930562 130.504554 
L 186.594792 131.233786 
L 190.147099 131.932688 
L 193.699406 132.400211 
L 196.363636 132.641426 
L 196.363636 132.641426 
" style="fill:none;stroke:#000000;stroke-linecap:square;stroke-width:1.5;"/>
   </g>
  </g>
 </g>
 <defs>
  <clipPath id="pf82f122fa5">
   <rect height="122.4" width="194.4" x="10.8" y="10.8"/>
  </clipPath>
 </defs>
</svg>
