<?xml version="1.0" encoding="utf-8" standalone="no"?>
<!DOCTYPE svg PUBLIC "-//W3C//DTD SVG 1.1//EN"
  "http://www.w3.org/Graphics/SVG/1.1/DTD/svg11.dtd">
<!-- Created with matplotlib (https://matplotlib.org/) -->
<svg height="144pt" version="1.1" viewBox="0 0 216 144" width="216pt" xmlns="http://www.w3.org/2000/svg" xmlns:xlink="http://www.w3.org/1999/xlink">
 <defs>
  <style type="text/css">
*{stroke-linecap:butt;stroke-linejoin:round;}
  </style>
 </defs>
 <g id="figure_1">
  <g id="patch_1">
   <path d="M 0 144 
L 216 144 
L 216 0 
L 0 0 
z
" style="fill:#ffffff;"/>
  </g>
  <g id="axes_1">
   <g id="patch_2">
    <path clip-path="url(#pa0236b4183)" d="M 19.636364 133.2 
L 24.054545 133.2 
L 24.054545 133.2 
L 19.636364 133.2 
z
" style="fill:#1f77b4;"/>
   </g>
   <g id="patch_3">
    <path clip-path="url(#pa0236b4183)" d="M 24.054545 133.2 
L 28.472727 133.2 
L 28.472727 133.2 
L 24.054545 133.2 
z
" style="fill:#1f77b4;"/>
   </g>
   <g id="patch_4">
    <path clip-path="url(#pa0236b4183)" d="M 28.472727 133.2 
L 32.890909 133.2 
L 32.890909 133.2 
L 28.472727 133.2 
z
" style="fill:#1f77b4;"/>
   </g>
   <g id="patch_5">
    <path clip-path="url(#pa0236b4183)" d="M 32.890909 133.2 
L 37.309091 133.2 
L 37.309091 133.2 
L 32.890909 133.2 
z
" style="fill:#1f77b4;"/>
   </g>
   <g id="patch_6">
    <path clip-path="url(#pa0236b4183)" d="M 37.309091 133.2 
L 41.727273 133.2 
L 41.727273 133.2 
L 37.309091 133.2 
z
" style="fill:#1f77b4;"/>
   </g>
   <g id="patch_7">
    <path clip-path="url(#pa0236b4183)" d="M 41.727273 133.2 
L 46.145455 133.2 
L 46.145455 133.2 
L 41.727273 133.2 
z
" style="fill:#1f77b4;"/>
   </g>
   <g id="patch_8">
    <path clip-path="url(#pa0236b4183)" d="M 46.145455 133.2 
L 50.563636 133.2 
L 50.563636 133.2 
L 46.145455 133.2 
z
" style="fill:#1f77b4;"/>
   </g>
   <g id="patch_9">
    <path clip-path="url(#pa0236b4183)" d="M 50.563636 133.2 
L 54.981818 133.2 
L 54.981818 133.2 
L 50.563636 133.2 
z
" style="fill:#1f77b4;"/>
   </g>
   <g id="patch_10">
    <path clip-path="url(#pa0236b4183)" d="M 54.981818 133.2 
L 59.4 133.2 
L 59.4 133.2 
L 54.981818 133.2 
z
" style="fill:#1f77b4;"/>
   </g>
   <g id="patch_11">
    <path clip-path="url(#pa0236b4183)" d="M 59.4 133.2 
L 63.818182 133.2 
L 63.818182 133.2 
L 59.4 133.2 
z
" style="fill:#1f77b4;"/>
   </g>
   <g id="patch_12">
    <path clip-path="url(#pa0236b4183)" d="M 63.818182 133.2 
L 68.236364 133.2 
L 68.236364 133.2 
L 63.818182 133.2 
z
" style="fill:#1f77b4;"/>
   </g>
   <g id="patch_13">
    <path clip-path="url(#pa0236b4183)" d="M 68.236364 133.2 
L 72.654545 133.2 
L 72.654545 125.99344 
L 68.236364 125.99344 
z
" style="fill:#1f77b4;"/>
   </g>
   <g id="patch_14">
    <path clip-path="url(#pa0236b4183)" d="M 72.654545 133.2 
L 77.072727 133.2 
L 77.072727 116.767736 
L 72.654545 116.767736 
z
" style="fill:#1f77b4;"/>
   </g>
   <g id="patch_15">
    <path clip-path="url(#pa0236b4183)" d="M 77.072727 133.2 
L 81.490909 133.2 
L 81.490909 114.427723 
L 77.072727 114.427723 
z
" style="fill:#1f77b4;"/>
   </g>
   <g id="patch_16">
    <path clip-path="url(#pa0236b4183)" d="M 81.490909 133.2 
L 85.909091 133.2 
L 85.909091 112.549703 
L 81.490909 112.549703 
z
" style="fill:#1f77b4;"/>
   </g>
   <g id="patch_17">
    <path clip-path="url(#pa0236b4183)" d="M 85.909091 133.2 
L 90.327273 133.2 
L 90.327273 119.997198 
L 85.909091 119.997198 
z
" style="fill:#1f77b4;"/>
   </g>
   <g id="patch_18">
    <path clip-path="url(#pa0236b4183)" d="M 90.327273 133.2 
L 94.745455 133.2 
L 94.745455 109.066763 
L 90.327273 109.066763 
z
" style="fill:#1f77b4;"/>
   </g>
   <g id="patch_19">
    <path clip-path="url(#pa0236b4183)" d="M 94.745455 133.2 
L 99.163636 133.2 
L 99.163636 75.264976 
L 94.745455 75.264976 
z
" style="fill:#1f77b4;"/>
   </g>
   <g id="patch_20">
    <path clip-path="url(#pa0236b4183)" d="M 99.163636 133.2 
L 103.581818 133.2 
L 103.581818 74.019943 
L 99.163636 74.019943 
z
" style="fill:#1f77b4;"/>
   </g>
   <g id="patch_21">
    <path clip-path="url(#pa0236b4183)" d="M 103.581818 133.2 
L 108 133.2 
L 108 70.016818 
L 103.581818 70.016818 
z
" style="fill:#1f77b4;"/>
   </g>
   <g id="patch_22">
    <path clip-path="url(#pa0236b4183)" d="M 108 133.2 
L 112.418182 133.2 
L 112.418182 22.985033 
L 108 22.985033 
z
" style="fill:#1f77b4;"/>
   </g>
   <g id="patch_23">
    <path clip-path="url(#pa0236b4183)" d="M 112.418182 133.2 
L 116.836364 133.2 
L 116.836364 16.628571 
L 112.418182 16.628571 
z
" style="fill:#1f77b4;"/>
   </g>
   <g id="patch_24">
    <path clip-path="url(#pa0236b4183)" d="M 116.836364 133.2 
L 121.254545 133.2 
L 121.254545 34.836368 
L 116.836364 34.836368 
z
" style="fill:#1f77b4;"/>
   </g>
   <g id="patch_25">
    <path clip-path="url(#pa0236b4183)" d="M 121.254545 133.2 
L 125.672727 133.2 
L 125.672727 43.730296 
L 121.254545 43.730296 
z
" style="fill:#1f77b4;"/>
   </g>
   <g id="patch_26">
    <path clip-path="url(#pa0236b4183)" d="M 125.672727 133.2 
L 130.090909 133.2 
L 130.090909 30.618053 
L 125.672727 30.618053 
z
" style="fill:#1f77b4;"/>
   </g>
   <g id="patch_27">
    <path clip-path="url(#pa0236b4183)" d="M 130.090909 133.2 
L 134.509091 133.2 
L 134.509091 66.286306 
L 130.090909 66.286306 
z
" style="fill:#1f77b4;"/>
   </g>
   <g id="patch_28">
    <path clip-path="url(#pa0236b4183)" d="M 134.509091 133.2 
L 138.927273 133.2 
L 138.927273 45.797152 
L 134.509091 45.797152 
z
" style="fill:#1f77b4;"/>
   </g>
   <g id="patch_29">
    <path clip-path="url(#pa0236b4183)" d="M 138.927273 133.2 
L 143.345455 133.2 
L 143.345455 55.668573 
L 138.927273 55.668573 
z
" style="fill:#1f77b4;"/>
   </g>
   <g id="patch_30">
    <path clip-path="url(#pa0236b4183)" d="M 143.345455 133.2 
L 147.763636 133.2 
L 147.763636 83.270768 
L 143.345455 83.270768 
z
" style="fill:#1f77b4;"/>
   </g>
   <g id="patch_31">
    <path clip-path="url(#pa0236b4183)" d="M 147.763636 133.2 
L 152.181818 133.2 
L 152.181818 81.064626 
L 147.763636 81.064626 
z
" style="fill:#1f77b4;"/>
   </g>
   <g id="patch_32">
    <path clip-path="url(#pa0236b4183)" d="M 152.181818 133.2 
L 156.6 133.2 
L 156.6 101.573393 
L 152.181818 101.573393 
z
" style="fill:#1f77b4;"/>
   </g>
   <g id="patch_33">
    <path clip-path="url(#pa0236b4183)" d="M 156.6 133.2 
L 161.018182 133.2 
L 161.018182 110.832125 
L 156.6 110.832125 
z
" style="fill:#1f77b4;"/>
   </g>
   <g id="patch_34">
    <path clip-path="url(#pa0236b4183)" d="M 161.018182 133.2 
L 165.436364 133.2 
L 165.436364 102.815782 
L 161.018182 102.815782 
z
" style="fill:#1f77b4;"/>
   </g>
   <g id="patch_35">
    <path clip-path="url(#pa0236b4183)" d="M 165.436364 133.2 
L 169.854545 133.2 
L 169.854545 123.220827 
L 165.436364 123.220827 
z
" style="fill:#1f77b4;"/>
   </g>
   <g id="patch_36">
    <path clip-path="url(#pa0236b4183)" d="M 169.854545 133.2 
L 174.272727 133.2 
L 174.272727 118.630198 
L 169.854545 118.630198 
z
" style="fill:#1f77b4;"/>
   </g>
   <g id="patch_37">
    <path clip-path="url(#pa0236b4183)" d="M 174.272727 133.2 
L 178.690909 133.2 
L 178.690909 118.480849 
L 174.272727 118.480849 
z
" style="fill:#1f77b4;"/>
   </g>
   <g id="patch_38">
    <path clip-path="url(#pa0236b4183)" d="M 178.690909 133.2 
L 183.109091 133.2 
L 183.109091 133.2 
L 178.690909 133.2 
z
" style="fill:#1f77b4;"/>
   </g>
   <g id="patch_39">
    <path clip-path="url(#pa0236b4183)" d="M 183.109091 133.2 
L 187.527273 133.2 
L 187.527273 133.2 
L 183.109091 133.2 
z
" style="fill:#1f77b4;"/>
   </g>
   <g id="patch_40">
    <path clip-path="url(#pa0236b4183)" d="M 187.527273 133.2 
L 191.945455 133.2 
L 191.945455 133.2 
L 187.527273 133.2 
z
" style="fill:#1f77b4;"/>
   </g>
   <g id="patch_41">
    <path clip-path="url(#pa0236b4183)" d="M 191.945455 133.2 
L 196.363636 133.2 
L 196.363636 133.2 
L 191.945455 133.2 
z
" style="fill:#1f77b4;"/>
   </g>
   <g id="line2d_1">
    <path clip-path="url(#pa0236b4183)" d="M 19.636364 133.198958 
L 42.726359 133.088277 
L 49.830973 132.836853 
L 54.271357 132.48576 
L 57.823664 132.01281 
L 61.375971 131.283207 
L 64.040201 130.505989 
L 66.704431 129.474099 
L 69.368661 128.128735 
L 71.144815 127.026435 
L 72.920968 125.737204 
L 74.697122 124.241685 
L 76.473275 122.521175 
L 78.249429 120.558281 
L 80.025582 118.337654 
L 81.801736 115.846773 
L 83.577889 113.076767 
L 86.24212 108.390192 
L 88.90635 103.07501 
L 91.57058 97.171069 
L 94.23481 90.753718 
L 97.787117 81.598359 
L 106.667885 58.232574 
L 109.332115 51.950831 
L 111.108269 48.157178 
L 112.884422 44.75211 
L 114.660576 41.792796 
L 116.436729 39.329631 
L 118.212883 37.404804 
L 119.100959 36.654904 
L 119.989036 36.051087 
L 120.877113 35.595825 
L 121.76519 35.290905 
L 122.653266 35.137411 
L 123.541343 35.135727 
L 124.42942 35.285529 
L 125.317497 35.585793 
L 126.205573 36.034807 
L 127.09365 36.630185 
L 128.869804 38.247241 
L 130.645957 40.405293 
L 132.422111 43.063682 
L 134.198264 46.174018 
L 135.974418 49.681625 
L 138.638648 55.557124 
L 141.302878 61.980457 
L 146.631339 75.618835 
L 151.071722 86.866733 
L 154.624029 95.261324 
L 157.288259 101.03085 
L 159.95249 106.269974 
L 162.61672 110.940766 
L 165.28095 115.032458 
L 167.94518 118.55698 
L 169.721334 120.605642 
L 171.497487 122.427288 
L 173.273641 124.035936 
L 175.937871 126.083245 
L 178.602101 127.740331 
L 181.266332 129.062139 
L 183.930562 130.101543 
L 186.594792 130.907499 
L 190.147099 131.694006 
L 193.699406 132.231222 
L 196.363636 132.513575 
L 196.363636 132.513575 
" style="fill:none;stroke:#9467bd;stroke-linecap:square;stroke-width:1.5;"/>
   </g>
  </g>
 </g>
 <defs>
  <clipPath id="pa0236b4183">
   <rect height="122.4" width="194.4" x="10.8" y="10.8"/>
  </clipPath>
 </defs>
</svg>
