<?xml version="1.0" encoding="utf-8" standalone="no"?>
<!DOCTYPE svg PUBLIC "-//W3C//DTD SVG 1.1//EN"
  "http://www.w3.org/Graphics/SVG/1.1/DTD/svg11.dtd">
<!-- Created with matplotlib (https://matplotlib.org/) -->
<svg height="144pt" version="1.1" viewBox="0 0 216 144" width="216pt" xmlns="http://www.w3.org/2000/svg" xmlns:xlink="http://www.w3.org/1999/xlink">
 <defs>
  <style type="text/css">
*{stroke-linecap:butt;stroke-linejoin:round;}
  </style>
 </defs>
 <g id="figure_1">
  <g id="patch_1">
   <path d="M 0 144 
L 216 144 
L 216 0 
L 0 0 
z
" style="fill:#ffffff;"/>
  </g>
  <g id="axes_1">
   <g id="patch_2">
    <path clip-path="url(#pa46ea6099a)" d="M 19.636364 133.2 
L 24.054545 133.2 
L 24.054545 133.2 
L 19.636364 133.2 
z
" style="fill:#1f77b4;"/>
   </g>
   <g id="patch_3">
    <path clip-path="url(#pa46ea6099a)" d="M 24.054545 133.2 
L 28.472727 133.2 
L 28.472727 133.2 
L 24.054545 133.2 
z
" style="fill:#1f77b4;"/>
   </g>
   <g id="patch_4">
    <path clip-path="url(#pa46ea6099a)" d="M 28.472727 133.2 
L 32.890909 133.2 
L 32.890909 133.2 
L 28.472727 133.2 
z
" style="fill:#1f77b4;"/>
   </g>
   <g id="patch_5">
    <path clip-path="url(#pa46ea6099a)" d="M 32.890909 133.2 
L 37.309091 133.2 
L 37.309091 133.2 
L 32.890909 133.2 
z
" style="fill:#1f77b4;"/>
   </g>
   <g id="patch_6">
    <path clip-path="url(#pa46ea6099a)" d="M 37.309091 133.2 
L 41.727273 133.2 
L 41.727273 133.2 
L 37.309091 133.2 
z
" style="fill:#1f77b4;"/>
   </g>
   <g id="patch_7">
    <path clip-path="url(#pa46ea6099a)" d="M 41.727273 133.2 
L 46.145455 133.2 
L 46.145455 133.2 
L 41.727273 133.2 
z
" style="fill:#1f77b4;"/>
   </g>
   <g id="patch_8">
    <path clip-path="url(#pa46ea6099a)" d="M 46.145455 133.2 
L 50.563636 133.2 
L 50.563636 133.2 
L 46.145455 133.2 
z
" style="fill:#1f77b4;"/>
   </g>
   <g id="patch_9">
    <path clip-path="url(#pa46ea6099a)" d="M 50.563636 133.2 
L 54.981818 133.2 
L 54.981818 133.2 
L 50.563636 133.2 
z
" style="fill:#1f77b4;"/>
   </g>
   <g id="patch_10">
    <path clip-path="url(#pa46ea6099a)" d="M 54.981818 133.2 
L 59.4 133.2 
L 59.4 133.2 
L 54.981818 133.2 
z
" style="fill:#1f77b4;"/>
   </g>
   <g id="patch_11">
    <path clip-path="url(#pa46ea6099a)" d="M 59.4 133.2 
L 63.818182 133.2 
L 63.818182 133.2 
L 59.4 133.2 
z
" style="fill:#1f77b4;"/>
   </g>
   <g id="patch_12">
    <path clip-path="url(#pa46ea6099a)" d="M 63.818182 133.2 
L 68.236364 133.2 
L 68.236364 133.2 
L 63.818182 133.2 
z
" style="fill:#1f77b4;"/>
   </g>
   <g id="patch_13">
    <path clip-path="url(#pa46ea6099a)" d="M 68.236364 133.2 
L 72.654545 133.2 
L 72.654545 133.2 
L 68.236364 133.2 
z
" style="fill:#1f77b4;"/>
   </g>
   <g id="patch_14">
    <path clip-path="url(#pa46ea6099a)" d="M 72.654545 133.2 
L 77.072727 133.2 
L 77.072727 133.2 
L 72.654545 133.2 
z
" style="fill:#1f77b4;"/>
   </g>
   <g id="patch_15">
    <path clip-path="url(#pa46ea6099a)" d="M 77.072727 133.2 
L 81.490909 133.2 
L 81.490909 133.2 
L 77.072727 133.2 
z
" style="fill:#1f77b4;"/>
   </g>
   <g id="patch_16">
    <path clip-path="url(#pa46ea6099a)" d="M 81.490909 133.2 
L 85.909091 133.2 
L 85.909091 133.2 
L 81.490909 133.2 
z
" style="fill:#1f77b4;"/>
   </g>
   <g id="patch_17">
    <path clip-path="url(#pa46ea6099a)" d="M 85.909091 133.2 
L 90.327273 133.2 
L 90.327273 133.2 
L 85.909091 133.2 
z
" style="fill:#1f77b4;"/>
   </g>
   <g id="patch_18">
    <path clip-path="url(#pa46ea6099a)" d="M 90.327273 133.2 
L 94.745455 133.2 
L 94.745455 133.2 
L 90.327273 133.2 
z
" style="fill:#1f77b4;"/>
   </g>
   <g id="patch_19">
    <path clip-path="url(#pa46ea6099a)" d="M 94.745455 133.2 
L 99.163636 133.2 
L 99.163636 43.169439 
L 94.745455 43.169439 
z
" style="fill:#1f77b4;"/>
   </g>
   <g id="patch_20">
    <path clip-path="url(#pa46ea6099a)" d="M 99.163636 133.2 
L 103.581818 133.2 
L 103.581818 28.882595 
L 99.163636 28.882595 
z
" style="fill:#1f77b4;"/>
   </g>
   <g id="patch_21">
    <path clip-path="url(#pa46ea6099a)" d="M 103.581818 133.2 
L 108 133.2 
L 108 36.24636 
L 103.581818 36.24636 
z
" style="fill:#1f77b4;"/>
   </g>
   <g id="patch_22">
    <path clip-path="url(#pa46ea6099a)" d="M 108 133.2 
L 112.418182 133.2 
L 112.418182 41.830223 
L 108 41.830223 
z
" style="fill:#1f77b4;"/>
   </g>
   <g id="patch_23">
    <path clip-path="url(#pa46ea6099a)" d="M 112.418182 133.2 
L 116.836364 133.2 
L 116.836364 49.363793 
L 112.418182 49.363793 
z
" style="fill:#1f77b4;"/>
   </g>
   <g id="patch_24">
    <path clip-path="url(#pa46ea6099a)" d="M 116.836364 133.2 
L 121.254545 133.2 
L 121.254545 45.602376 
L 116.836364 45.602376 
z
" style="fill:#1f77b4;"/>
   </g>
   <g id="patch_25">
    <path clip-path="url(#pa46ea6099a)" d="M 121.254545 133.2 
L 125.672727 133.2 
L 125.672727 34.045816 
L 121.254545 34.045816 
z
" style="fill:#1f77b4;"/>
   </g>
   <g id="patch_26">
    <path clip-path="url(#pa46ea6099a)" d="M 125.672727 133.2 
L 130.090909 133.2 
L 130.090909 16.628571 
L 125.672727 16.628571 
z
" style="fill:#1f77b4;"/>
   </g>
   <g id="patch_27">
    <path clip-path="url(#pa46ea6099a)" d="M 130.090909 133.2 
L 134.509091 133.2 
L 134.509091 44.404119 
L 130.090909 44.404119 
z
" style="fill:#1f77b4;"/>
   </g>
   <g id="patch_28">
    <path clip-path="url(#pa46ea6099a)" d="M 134.509091 133.2 
L 138.927273 133.2 
L 138.927273 17.95019 
L 134.509091 17.95019 
z
" style="fill:#1f77b4;"/>
   </g>
   <g id="patch_29">
    <path clip-path="url(#pa46ea6099a)" d="M 138.927273 133.2 
L 143.345455 133.2 
L 143.345455 56.725008 
L 138.927273 56.725008 
z
" style="fill:#1f77b4;"/>
   </g>
   <g id="patch_30">
    <path clip-path="url(#pa46ea6099a)" d="M 143.345455 133.2 
L 147.763636 133.2 
L 147.763636 41.760016 
L 143.345455 41.760016 
z
" style="fill:#1f77b4;"/>
   </g>
   <g id="patch_31">
    <path clip-path="url(#pa46ea6099a)" d="M 147.763636 133.2 
L 152.181818 133.2 
L 152.181818 39.581371 
L 147.763636 39.581371 
z
" style="fill:#1f77b4;"/>
   </g>
   <g id="patch_32">
    <path clip-path="url(#pa46ea6099a)" d="M 152.181818 133.2 
L 156.6 133.2 
L 156.6 133.2 
L 152.181818 133.2 
z
" style="fill:#1f77b4;"/>
   </g>
   <g id="patch_33">
    <path clip-path="url(#pa46ea6099a)" d="M 156.6 133.2 
L 161.018182 133.2 
L 161.018182 133.2 
L 156.6 133.2 
z
" style="fill:#1f77b4;"/>
   </g>
   <g id="patch_34">
    <path clip-path="url(#pa46ea6099a)" d="M 161.018182 133.2 
L 165.436364 133.2 
L 165.436364 133.2 
L 161.018182 133.2 
z
" style="fill:#1f77b4;"/>
   </g>
   <g id="patch_35">
    <path clip-path="url(#pa46ea6099a)" d="M 165.436364 133.2 
L 169.854545 133.2 
L 169.854545 133.2 
L 165.436364 133.2 
z
" style="fill:#1f77b4;"/>
   </g>
   <g id="patch_36">
    <path clip-path="url(#pa46ea6099a)" d="M 169.854545 133.2 
L 174.272727 133.2 
L 174.272727 133.2 
L 169.854545 133.2 
z
" style="fill:#1f77b4;"/>
   </g>
   <g id="patch_37">
    <path clip-path="url(#pa46ea6099a)" d="M 174.272727 133.2 
L 178.690909 133.2 
L 178.690909 133.2 
L 174.272727 133.2 
z
" style="fill:#1f77b4;"/>
   </g>
   <g id="patch_38">
    <path clip-path="url(#pa46ea6099a)" d="M 178.690909 133.2 
L 183.109091 133.2 
L 183.109091 133.2 
L 178.690909 133.2 
z
" style="fill:#1f77b4;"/>
   </g>
   <g id="patch_39">
    <path clip-path="url(#pa46ea6099a)" d="M 183.109091 133.2 
L 187.527273 133.2 
L 187.527273 133.2 
L 183.109091 133.2 
z
" style="fill:#1f77b4;"/>
   </g>
   <g id="patch_40">
    <path clip-path="url(#pa46ea6099a)" d="M 187.527273 133.2 
L 191.945455 133.2 
L 191.945455 133.2 
L 187.527273 133.2 
z
" style="fill:#1f77b4;"/>
   </g>
   <g id="patch_41">
    <path clip-path="url(#pa46ea6099a)" d="M 191.945455 133.2 
L 196.363636 133.2 
L 196.363636 133.2 
L 191.945455 133.2 
z
" style="fill:#1f77b4;"/>
   </g>
   <g id="line2d_1">
    <path clip-path="url(#pa46ea6099a)" d="M 19.636364 133.198975 
L 42.726359 133.090061 
L 49.830973 132.842651 
L 54.271357 132.497164 
L 57.823664 132.031766 
L 61.375971 131.313814 
L 64.040201 130.549006 
L 66.704431 129.533593 
L 69.368661 128.209711 
L 71.144815 127.125012 
L 72.920968 125.856367 
L 74.697122 124.384727 
L 76.473275 122.69169 
L 78.249429 120.760139 
L 80.025582 118.57497 
L 81.801736 116.123863 
L 83.577889 113.398088 
L 86.24212 108.786345 
L 88.90635 103.556035 
L 91.57058 97.746365 
L 94.23481 91.431484 
L 97.787117 82.422314 
L 106.667885 59.429626 
L 109.332115 53.248187 
L 111.108269 49.515109 
L 112.884422 46.164413 
L 114.660576 43.252351 
L 116.436729 40.828517 
L 118.212883 38.934426 
L 119.989036 37.602324 
L 120.877113 37.154332 
L 121.76519 36.85428 
L 122.653266 36.703237 
L 123.541343 36.70158 
L 124.42942 36.84899 
L 125.317497 37.14446 
L 126.205573 37.586304 
L 127.09365 38.172175 
L 128.869804 39.763411 
L 130.645957 41.887004 
L 132.422111 44.502945 
L 134.198264 47.563616 
L 135.974418 51.015215 
L 138.638648 56.796896 
L 141.302878 63.117664 
L 146.631339 76.538269 
L 151.071722 87.606565 
L 154.624029 95.867115 
L 157.288259 101.544515 
L 159.95249 106.699982 
L 162.61672 111.296193 
L 165.28095 115.32255 
L 167.94518 118.790794 
L 170.609411 121.730121 
L 173.273641 124.182264 
L 175.937871 126.196882 
L 178.602101 127.827509 
L 181.266332 129.12821 
L 183.930562 130.151018 
L 186.594792 130.944105 
L 190.147099 131.718053 
L 193.699406 132.246691 
L 196.363636 132.524535 
L 196.363636 132.524535 
" style="fill:none;stroke:#9467bd;stroke-linecap:square;stroke-width:1.5;"/>
   </g>
  </g>
 </g>
 <defs>
  <clipPath id="pa46ea6099a">
   <rect height="122.4" width="194.4" x="10.8" y="10.8"/>
  </clipPath>
 </defs>
</svg>
