<?xml version="1.0" encoding="utf-8" standalone="no"?>
<!DOCTYPE svg PUBLIC "-//W3C//DTD SVG 1.1//EN"
  "http://www.w3.org/Graphics/SVG/1.1/DTD/svg11.dtd">
<!-- Created with matplotlib (https://matplotlib.org/) -->
<svg height="432pt" version="1.1" viewBox="0 0 648 432" width="648pt" xmlns="http://www.w3.org/2000/svg" xmlns:xlink="http://www.w3.org/1999/xlink">
 <defs>
  <style type="text/css">
*{stroke-linecap:butt;stroke-linejoin:round;}
  </style>
 </defs>
 <g id="figure_1">
  <g id="patch_1">
   <path d="M 0 432 
L 648 432 
L 648 0 
L 0 0 
z
" style="fill:#ffffff;"/>
  </g>
  <g id="axes_1">
   <g id="patch_2">
    <path d="M 57.26 179.08 
L 634.68 179.08 
L 634.68 25.44 
L 57.26 25.44 
z
" style="fill:#ffffff;"/>
   </g>
   <g id="matplotlib.axis_1">
    <g id="xtick_1">
     <g id="line2d_1">
      <defs>
       <path d="M 0 0 
L 0 3.5 
" id="md3f8e2696f" style="stroke:#000000;stroke-width:0.8;"/>
      </defs>
      <g>
       <use style="stroke:#000000;stroke-width:0.8;" x="83.506364" xlink:href="#md3f8e2696f" y="179.08"/>
      </g>
     </g>
     <g id="text_1">
      <!-- 0 -->
      <defs>
       <path d="M 31.78125 66.40625 
Q 24.171875 66.40625 20.328125 58.90625 
Q 16.5 51.421875 16.5 36.375 
Q 16.5 21.390625 20.328125 13.890625 
Q 24.171875 6.390625 31.78125 6.390625 
Q 39.453125 6.390625 43.28125 13.890625 
Q 47.125 21.390625 47.125 36.375 
Q 47.125 51.421875 43.28125 58.90625 
Q 39.453125 66.40625 31.78125 66.40625 
z
M 31.78125 74.21875 
Q 44.046875 74.21875 50.515625 64.515625 
Q 56.984375 54.828125 56.984375 36.375 
Q 56.984375 17.96875 50.515625 8.265625 
Q 44.046875 -1.421875 31.78125 -1.421875 
Q 19.53125 -1.421875 13.0625 8.265625 
Q 6.59375 17.96875 6.59375 36.375 
Q 6.59375 54.828125 13.0625 64.515625 
Q 19.53125 74.21875 31.78125 74.21875 
z
" id="DejaVuSans-48"/>
      </defs>
      <g transform="translate(80.325114 193.678438)scale(0.1 -0.1)">
       <use xlink:href="#DejaVuSans-48"/>
      </g>
     </g>
    </g>
    <g id="xtick_2">
     <g id="line2d_2">
      <g>
       <use style="stroke:#000000;stroke-width:0.8;" x="158.495974" xlink:href="#md3f8e2696f" y="179.08"/>
      </g>
     </g>
     <g id="text_2">
      <!-- 2 -->
      <defs>
       <path d="M 19.1875 8.296875 
L 53.609375 8.296875 
L 53.609375 0 
L 7.328125 0 
L 7.328125 8.296875 
Q 12.9375 14.109375 22.625 23.890625 
Q 32.328125 33.6875 34.8125 36.53125 
Q 39.546875 41.84375 41.421875 45.53125 
Q 43.3125 49.21875 43.3125 52.78125 
Q 43.3125 58.59375 39.234375 62.25 
Q 35.15625 65.921875 28.609375 65.921875 
Q 23.96875 65.921875 18.8125 64.3125 
Q 13.671875 62.703125 7.8125 59.421875 
L 7.8125 69.390625 
Q 13.765625 71.78125 18.9375 73 
Q 24.125 74.21875 28.421875 74.21875 
Q 39.75 74.21875 46.484375 68.546875 
Q 53.21875 62.890625 53.21875 53.421875 
Q 53.21875 48.921875 51.53125 44.890625 
Q 49.859375 40.875 45.40625 35.40625 
Q 44.1875 33.984375 37.640625 27.21875 
Q 31.109375 20.453125 19.1875 8.296875 
z
" id="DejaVuSans-50"/>
      </defs>
      <g transform="translate(155.314724 193.678438)scale(0.1 -0.1)">
       <use xlink:href="#DejaVuSans-50"/>
      </g>
     </g>
    </g>
    <g id="xtick_3">
     <g id="line2d_3">
      <g>
       <use style="stroke:#000000;stroke-width:0.8;" x="233.485584" xlink:href="#md3f8e2696f" y="179.08"/>
      </g>
     </g>
     <g id="text_3">
      <!-- 4 -->
      <defs>
       <path d="M 37.796875 64.3125 
L 12.890625 25.390625 
L 37.796875 25.390625 
z
M 35.203125 72.90625 
L 47.609375 72.90625 
L 47.609375 25.390625 
L 58.015625 25.390625 
L 58.015625 17.1875 
L 47.609375 17.1875 
L 47.609375 0 
L 37.796875 0 
L 37.796875 17.1875 
L 4.890625 17.1875 
L 4.890625 26.703125 
z
" id="DejaVuSans-52"/>
      </defs>
      <g transform="translate(230.304334 193.678438)scale(0.1 -0.1)">
       <use xlink:href="#DejaVuSans-52"/>
      </g>
     </g>
    </g>
    <g id="xtick_4">
     <g id="line2d_4">
      <g>
       <use style="stroke:#000000;stroke-width:0.8;" x="308.475195" xlink:href="#md3f8e2696f" y="179.08"/>
      </g>
     </g>
     <g id="text_4">
      <!-- 6 -->
      <defs>
       <path d="M 33.015625 40.375 
Q 26.375 40.375 22.484375 35.828125 
Q 18.609375 31.296875 18.609375 23.390625 
Q 18.609375 15.53125 22.484375 10.953125 
Q 26.375 6.390625 33.015625 6.390625 
Q 39.65625 6.390625 43.53125 10.953125 
Q 47.40625 15.53125 47.40625 23.390625 
Q 47.40625 31.296875 43.53125 35.828125 
Q 39.65625 40.375 33.015625 40.375 
z
M 52.59375 71.296875 
L 52.59375 62.3125 
Q 48.875 64.0625 45.09375 64.984375 
Q 41.3125 65.921875 37.59375 65.921875 
Q 27.828125 65.921875 22.671875 59.328125 
Q 17.53125 52.734375 16.796875 39.40625 
Q 19.671875 43.65625 24.015625 45.921875 
Q 28.375 48.1875 33.59375 48.1875 
Q 44.578125 48.1875 50.953125 41.515625 
Q 57.328125 34.859375 57.328125 23.390625 
Q 57.328125 12.15625 50.6875 5.359375 
Q 44.046875 -1.421875 33.015625 -1.421875 
Q 20.359375 -1.421875 13.671875 8.265625 
Q 6.984375 17.96875 6.984375 36.375 
Q 6.984375 53.65625 15.1875 63.9375 
Q 23.390625 74.21875 37.203125 74.21875 
Q 40.921875 74.21875 44.703125 73.484375 
Q 48.484375 72.75 52.59375 71.296875 
z
" id="DejaVuSans-54"/>
      </defs>
      <g transform="translate(305.293945 193.678438)scale(0.1 -0.1)">
       <use xlink:href="#DejaVuSans-54"/>
      </g>
     </g>
    </g>
    <g id="xtick_5">
     <g id="line2d_5">
      <g>
       <use style="stroke:#000000;stroke-width:0.8;" x="383.464805" xlink:href="#md3f8e2696f" y="179.08"/>
      </g>
     </g>
     <g id="text_5">
      <!-- 8 -->
      <defs>
       <path d="M 31.78125 34.625 
Q 24.75 34.625 20.71875 30.859375 
Q 16.703125 27.09375 16.703125 20.515625 
Q 16.703125 13.921875 20.71875 10.15625 
Q 24.75 6.390625 31.78125 6.390625 
Q 38.8125 6.390625 42.859375 10.171875 
Q 46.921875 13.96875 46.921875 20.515625 
Q 46.921875 27.09375 42.890625 30.859375 
Q 38.875 34.625 31.78125 34.625 
z
M 21.921875 38.8125 
Q 15.578125 40.375 12.03125 44.71875 
Q 8.5 49.078125 8.5 55.328125 
Q 8.5 64.0625 14.71875 69.140625 
Q 20.953125 74.21875 31.78125 74.21875 
Q 42.671875 74.21875 48.875 69.140625 
Q 55.078125 64.0625 55.078125 55.328125 
Q 55.078125 49.078125 51.53125 44.71875 
Q 48 40.375 41.703125 38.8125 
Q 48.828125 37.15625 52.796875 32.3125 
Q 56.78125 27.484375 56.78125 20.515625 
Q 56.78125 9.90625 50.3125 4.234375 
Q 43.84375 -1.421875 31.78125 -1.421875 
Q 19.734375 -1.421875 13.25 4.234375 
Q 6.78125 9.90625 6.78125 20.515625 
Q 6.78125 27.484375 10.78125 32.3125 
Q 14.796875 37.15625 21.921875 38.8125 
z
M 18.3125 54.390625 
Q 18.3125 48.734375 21.84375 45.5625 
Q 25.390625 42.390625 31.78125 42.390625 
Q 38.140625 42.390625 41.71875 45.5625 
Q 45.3125 48.734375 45.3125 54.390625 
Q 45.3125 60.0625 41.71875 63.234375 
Q 38.140625 66.40625 31.78125 66.40625 
Q 25.390625 66.40625 21.84375 63.234375 
Q 18.3125 60.0625 18.3125 54.390625 
z
" id="DejaVuSans-56"/>
      </defs>
      <g transform="translate(380.283555 193.678438)scale(0.1 -0.1)">
       <use xlink:href="#DejaVuSans-56"/>
      </g>
     </g>
    </g>
    <g id="xtick_6">
     <g id="line2d_6">
      <g>
       <use style="stroke:#000000;stroke-width:0.8;" x="458.454416" xlink:href="#md3f8e2696f" y="179.08"/>
      </g>
     </g>
     <g id="text_6">
      <!-- 10 -->
      <defs>
       <path d="M 12.40625 8.296875 
L 28.515625 8.296875 
L 28.515625 63.921875 
L 10.984375 60.40625 
L 10.984375 69.390625 
L 28.421875 72.90625 
L 38.28125 72.90625 
L 38.28125 8.296875 
L 54.390625 8.296875 
L 54.390625 0 
L 12.40625 0 
z
" id="DejaVuSans-49"/>
      </defs>
      <g transform="translate(452.091916 193.678438)scale(0.1 -0.1)">
       <use xlink:href="#DejaVuSans-49"/>
       <use x="63.623047" xlink:href="#DejaVuSans-48"/>
      </g>
     </g>
    </g>
    <g id="xtick_7">
     <g id="line2d_7">
      <g>
       <use style="stroke:#000000;stroke-width:0.8;" x="533.444026" xlink:href="#md3f8e2696f" y="179.08"/>
      </g>
     </g>
     <g id="text_7">
      <!-- 12 -->
      <g transform="translate(527.081526 193.678438)scale(0.1 -0.1)">
       <use xlink:href="#DejaVuSans-49"/>
       <use x="63.623047" xlink:href="#DejaVuSans-50"/>
      </g>
     </g>
    </g>
    <g id="xtick_8">
     <g id="line2d_8">
      <g>
       <use style="stroke:#000000;stroke-width:0.8;" x="608.433636" xlink:href="#md3f8e2696f" y="179.08"/>
      </g>
     </g>
     <g id="text_8">
      <!-- 14 -->
      <g transform="translate(602.071136 193.678438)scale(0.1 -0.1)">
       <use xlink:href="#DejaVuSans-49"/>
       <use x="63.623047" xlink:href="#DejaVuSans-52"/>
      </g>
     </g>
    </g>
    <g id="text_9">
     <!-- Population index -->
     <defs>
      <path d="M 19.671875 64.796875 
L 19.671875 37.40625 
L 32.078125 37.40625 
Q 38.96875 37.40625 42.71875 40.96875 
Q 46.484375 44.53125 46.484375 51.125 
Q 46.484375 57.671875 42.71875 61.234375 
Q 38.96875 64.796875 32.078125 64.796875 
z
M 9.8125 72.90625 
L 32.078125 72.90625 
Q 44.34375 72.90625 50.609375 67.359375 
Q 56.890625 61.8125 56.890625 51.125 
Q 56.890625 40.328125 50.609375 34.8125 
Q 44.34375 29.296875 32.078125 29.296875 
L 19.671875 29.296875 
L 19.671875 0 
L 9.8125 0 
z
" id="DejaVuSans-80"/>
      <path d="M 30.609375 48.390625 
Q 23.390625 48.390625 19.1875 42.75 
Q 14.984375 37.109375 14.984375 27.296875 
Q 14.984375 17.484375 19.15625 11.84375 
Q 23.34375 6.203125 30.609375 6.203125 
Q 37.796875 6.203125 41.984375 11.859375 
Q 46.1875 17.53125 46.1875 27.296875 
Q 46.1875 37.015625 41.984375 42.703125 
Q 37.796875 48.390625 30.609375 48.390625 
z
M 30.609375 56 
Q 42.328125 56 49.015625 48.375 
Q 55.71875 40.765625 55.71875 27.296875 
Q 55.71875 13.875 49.015625 6.21875 
Q 42.328125 -1.421875 30.609375 -1.421875 
Q 18.84375 -1.421875 12.171875 6.21875 
Q 5.515625 13.875 5.515625 27.296875 
Q 5.515625 40.765625 12.171875 48.375 
Q 18.84375 56 30.609375 56 
z
" id="DejaVuSans-111"/>
      <path d="M 18.109375 8.203125 
L 18.109375 -20.796875 
L 9.078125 -20.796875 
L 9.078125 54.6875 
L 18.109375 54.6875 
L 18.109375 46.390625 
Q 20.953125 51.265625 25.265625 53.625 
Q 29.59375 56 35.59375 56 
Q 45.5625 56 51.78125 48.09375 
Q 58.015625 40.1875 58.015625 27.296875 
Q 58.015625 14.40625 51.78125 6.484375 
Q 45.5625 -1.421875 35.59375 -1.421875 
Q 29.59375 -1.421875 25.265625 0.953125 
Q 20.953125 3.328125 18.109375 8.203125 
z
M 48.6875 27.296875 
Q 48.6875 37.203125 44.609375 42.84375 
Q 40.53125 48.484375 33.40625 48.484375 
Q 26.265625 48.484375 22.1875 42.84375 
Q 18.109375 37.203125 18.109375 27.296875 
Q 18.109375 17.390625 22.1875 11.75 
Q 26.265625 6.109375 33.40625 6.109375 
Q 40.53125 6.109375 44.609375 11.75 
Q 48.6875 17.390625 48.6875 27.296875 
z
" id="DejaVuSans-112"/>
      <path d="M 8.5 21.578125 
L 8.5 54.6875 
L 17.484375 54.6875 
L 17.484375 21.921875 
Q 17.484375 14.15625 20.5 10.265625 
Q 23.53125 6.390625 29.59375 6.390625 
Q 36.859375 6.390625 41.078125 11.03125 
Q 45.3125 15.671875 45.3125 23.6875 
L 45.3125 54.6875 
L 54.296875 54.6875 
L 54.296875 0 
L 45.3125 0 
L 45.3125 8.40625 
Q 42.046875 3.421875 37.71875 1 
Q 33.40625 -1.421875 27.6875 -1.421875 
Q 18.265625 -1.421875 13.375 4.4375 
Q 8.5 10.296875 8.5 21.578125 
z
M 31.109375 56 
z
" id="DejaVuSans-117"/>
      <path d="M 9.421875 75.984375 
L 18.40625 75.984375 
L 18.40625 0 
L 9.421875 0 
z
" id="DejaVuSans-108"/>
      <path d="M 34.28125 27.484375 
Q 23.390625 27.484375 19.1875 25 
Q 14.984375 22.515625 14.984375 16.5 
Q 14.984375 11.71875 18.140625 8.90625 
Q 21.296875 6.109375 26.703125 6.109375 
Q 34.1875 6.109375 38.703125 11.40625 
Q 43.21875 16.703125 43.21875 25.484375 
L 43.21875 27.484375 
z
M 52.203125 31.203125 
L 52.203125 0 
L 43.21875 0 
L 43.21875 8.296875 
Q 40.140625 3.328125 35.546875 0.953125 
Q 30.953125 -1.421875 24.3125 -1.421875 
Q 15.921875 -1.421875 10.953125 3.296875 
Q 6 8.015625 6 15.921875 
Q 6 25.140625 12.171875 29.828125 
Q 18.359375 34.515625 30.609375 34.515625 
L 43.21875 34.515625 
L 43.21875 35.40625 
Q 43.21875 41.609375 39.140625 45 
Q 35.0625 48.390625 27.6875 48.390625 
Q 23 48.390625 18.546875 47.265625 
Q 14.109375 46.140625 10.015625 43.890625 
L 10.015625 52.203125 
Q 14.9375 54.109375 19.578125 55.046875 
Q 24.21875 56 28.609375 56 
Q 40.484375 56 46.34375 49.84375 
Q 52.203125 43.703125 52.203125 31.203125 
z
" id="DejaVuSans-97"/>
      <path d="M 18.3125 70.21875 
L 18.3125 54.6875 
L 36.8125 54.6875 
L 36.8125 47.703125 
L 18.3125 47.703125 
L 18.3125 18.015625 
Q 18.3125 11.328125 20.140625 9.421875 
Q 21.96875 7.515625 27.59375 7.515625 
L 36.8125 7.515625 
L 36.8125 0 
L 27.59375 0 
Q 17.1875 0 13.234375 3.875 
Q 9.28125 7.765625 9.28125 18.015625 
L 9.28125 47.703125 
L 2.6875 47.703125 
L 2.6875 54.6875 
L 9.28125 54.6875 
L 9.28125 70.21875 
z
" id="DejaVuSans-116"/>
      <path d="M 9.421875 54.6875 
L 18.40625 54.6875 
L 18.40625 0 
L 9.421875 0 
z
M 9.421875 75.984375 
L 18.40625 75.984375 
L 18.40625 64.59375 
L 9.421875 64.59375 
z
" id="DejaVuSans-105"/>
      <path d="M 54.890625 33.015625 
L 54.890625 0 
L 45.90625 0 
L 45.90625 32.71875 
Q 45.90625 40.484375 42.875 44.328125 
Q 39.84375 48.1875 33.796875 48.1875 
Q 26.515625 48.1875 22.3125 43.546875 
Q 18.109375 38.921875 18.109375 30.90625 
L 18.109375 0 
L 9.078125 0 
L 9.078125 54.6875 
L 18.109375 54.6875 
L 18.109375 46.1875 
Q 21.34375 51.125 25.703125 53.5625 
Q 30.078125 56 35.796875 56 
Q 45.21875 56 50.046875 50.171875 
Q 54.890625 44.34375 54.890625 33.015625 
z
" id="DejaVuSans-110"/>
      <path id="DejaVuSans-32"/>
      <path d="M 45.40625 46.390625 
L 45.40625 75.984375 
L 54.390625 75.984375 
L 54.390625 0 
L 45.40625 0 
L 45.40625 8.203125 
Q 42.578125 3.328125 38.25 0.953125 
Q 33.9375 -1.421875 27.875 -1.421875 
Q 17.96875 -1.421875 11.734375 6.484375 
Q 5.515625 14.40625 5.515625 27.296875 
Q 5.515625 40.1875 11.734375 48.09375 
Q 17.96875 56 27.875 56 
Q 33.9375 56 38.25 53.625 
Q 42.578125 51.265625 45.40625 46.390625 
z
M 14.796875 27.296875 
Q 14.796875 17.390625 18.875 11.75 
Q 22.953125 6.109375 30.078125 6.109375 
Q 37.203125 6.109375 41.296875 11.75 
Q 45.40625 17.390625 45.40625 27.296875 
Q 45.40625 37.203125 41.296875 42.84375 
Q 37.203125 48.484375 30.078125 48.484375 
Q 22.953125 48.484375 18.875 42.84375 
Q 14.796875 37.203125 14.796875 27.296875 
z
" id="DejaVuSans-100"/>
      <path d="M 56.203125 29.59375 
L 56.203125 25.203125 
L 14.890625 25.203125 
Q 15.484375 15.921875 20.484375 11.0625 
Q 25.484375 6.203125 34.421875 6.203125 
Q 39.59375 6.203125 44.453125 7.46875 
Q 49.3125 8.734375 54.109375 11.28125 
L 54.109375 2.78125 
Q 49.265625 0.734375 44.1875 -0.34375 
Q 39.109375 -1.421875 33.890625 -1.421875 
Q 20.796875 -1.421875 13.15625 6.1875 
Q 5.515625 13.8125 5.515625 26.8125 
Q 5.515625 40.234375 12.765625 48.109375 
Q 20.015625 56 32.328125 56 
Q 43.359375 56 49.78125 48.890625 
Q 56.203125 41.796875 56.203125 29.59375 
z
M 47.21875 32.234375 
Q 47.125 39.59375 43.09375 43.984375 
Q 39.0625 48.390625 32.421875 48.390625 
Q 24.90625 48.390625 20.390625 44.140625 
Q 15.875 39.890625 15.1875 32.171875 
z
" id="DejaVuSans-101"/>
      <path d="M 54.890625 54.6875 
L 35.109375 28.078125 
L 55.90625 0 
L 45.3125 0 
L 29.390625 21.484375 
L 13.484375 0 
L 2.875 0 
L 24.125 28.609375 
L 4.6875 54.6875 
L 15.28125 54.6875 
L 29.78125 35.203125 
L 44.28125 54.6875 
z
" id="DejaVuSans-120"/>
     </defs>
     <g transform="translate(304.168437 207.356563)scale(0.1 -0.1)">
      <use xlink:href="#DejaVuSans-80"/>
      <use x="60.255859" xlink:href="#DejaVuSans-111"/>
      <use x="121.4375" xlink:href="#DejaVuSans-112"/>
      <use x="184.914062" xlink:href="#DejaVuSans-117"/>
      <use x="248.292969" xlink:href="#DejaVuSans-108"/>
      <use x="276.076172" xlink:href="#DejaVuSans-97"/>
      <use x="337.355469" xlink:href="#DejaVuSans-116"/>
      <use x="376.564453" xlink:href="#DejaVuSans-105"/>
      <use x="404.347656" xlink:href="#DejaVuSans-111"/>
      <use x="465.529297" xlink:href="#DejaVuSans-110"/>
      <use x="528.908203" xlink:href="#DejaVuSans-32"/>
      <use x="560.695312" xlink:href="#DejaVuSans-105"/>
      <use x="588.478516" xlink:href="#DejaVuSans-110"/>
      <use x="651.857422" xlink:href="#DejaVuSans-100"/>
      <use x="715.333984" xlink:href="#DejaVuSans-101"/>
      <use x="776.841797" xlink:href="#DejaVuSans-120"/>
     </g>
    </g>
   </g>
   <g id="matplotlib.axis_2">
    <g id="ytick_1">
     <g id="line2d_9">
      <defs>
       <path d="M 0 0 
L -3.5 0 
" id="m4869182ae2" style="stroke:#000000;stroke-width:0.8;"/>
      </defs>
      <g>
       <use style="stroke:#000000;stroke-width:0.8;" x="57.26" xlink:href="#m4869182ae2" y="166.953131"/>
      </g>
     </g>
     <g id="text_10">
      <!-- 0.5 -->
      <defs>
       <path d="M 10.6875 12.40625 
L 21 12.40625 
L 21 0 
L 10.6875 0 
z
" id="DejaVuSans-46"/>
       <path d="M 10.796875 72.90625 
L 49.515625 72.90625 
L 49.515625 64.59375 
L 19.828125 64.59375 
L 19.828125 46.734375 
Q 21.96875 47.46875 24.109375 47.828125 
Q 26.265625 48.1875 28.421875 48.1875 
Q 40.625 48.1875 47.75 41.5 
Q 54.890625 34.8125 54.890625 23.390625 
Q 54.890625 11.625 47.5625 5.09375 
Q 40.234375 -1.421875 26.90625 -1.421875 
Q 22.3125 -1.421875 17.546875 -0.640625 
Q 12.796875 0.140625 7.71875 1.703125 
L 7.71875 11.625 
Q 12.109375 9.234375 16.796875 8.0625 
Q 21.484375 6.890625 26.703125 6.890625 
Q 35.15625 6.890625 40.078125 11.328125 
Q 45.015625 15.765625 45.015625 23.390625 
Q 45.015625 31 40.078125 35.4375 
Q 35.15625 39.890625 26.703125 39.890625 
Q 22.75 39.890625 18.8125 39.015625 
Q 14.890625 38.140625 10.796875 36.28125 
z
" id="DejaVuSans-53"/>
      </defs>
      <g transform="translate(34.356875 170.75235)scale(0.1 -0.1)">
       <use xlink:href="#DejaVuSans-48"/>
       <use x="63.623047" xlink:href="#DejaVuSans-46"/>
       <use x="95.410156" xlink:href="#DejaVuSans-53"/>
      </g>
     </g>
    </g>
    <g id="ytick_2">
     <g id="line2d_10">
      <g>
       <use style="stroke:#000000;stroke-width:0.8;" x="57.26" xlink:href="#m4869182ae2" y="129.783385"/>
      </g>
     </g>
     <g id="text_11">
      <!-- 1.0 -->
      <g transform="translate(34.356875 133.582604)scale(0.1 -0.1)">
       <use xlink:href="#DejaVuSans-49"/>
       <use x="63.623047" xlink:href="#DejaVuSans-46"/>
       <use x="95.410156" xlink:href="#DejaVuSans-48"/>
      </g>
     </g>
    </g>
    <g id="ytick_3">
     <g id="line2d_11">
      <g>
       <use style="stroke:#000000;stroke-width:0.8;" x="57.26" xlink:href="#m4869182ae2" y="92.61364"/>
      </g>
     </g>
     <g id="text_12">
      <!-- 1.5 -->
      <g transform="translate(34.356875 96.412858)scale(0.1 -0.1)">
       <use xlink:href="#DejaVuSans-49"/>
       <use x="63.623047" xlink:href="#DejaVuSans-46"/>
       <use x="95.410156" xlink:href="#DejaVuSans-53"/>
      </g>
     </g>
    </g>
    <g id="ytick_4">
     <g id="line2d_12">
      <g>
       <use style="stroke:#000000;stroke-width:0.8;" x="57.26" xlink:href="#m4869182ae2" y="55.443894"/>
      </g>
     </g>
     <g id="text_13">
      <!-- 2.0 -->
      <g transform="translate(34.356875 59.243113)scale(0.1 -0.1)">
       <use xlink:href="#DejaVuSans-50"/>
       <use x="63.623047" xlink:href="#DejaVuSans-46"/>
       <use x="95.410156" xlink:href="#DejaVuSans-48"/>
      </g>
     </g>
    </g>
    <g id="text_14">
     <!-- Log10(Epsilon) -->
     <defs>
      <path d="M 9.8125 72.90625 
L 19.671875 72.90625 
L 19.671875 8.296875 
L 55.171875 8.296875 
L 55.171875 0 
L 9.8125 0 
z
" id="DejaVuSans-76"/>
      <path d="M 45.40625 27.984375 
Q 45.40625 37.75 41.375 43.109375 
Q 37.359375 48.484375 30.078125 48.484375 
Q 22.859375 48.484375 18.828125 43.109375 
Q 14.796875 37.75 14.796875 27.984375 
Q 14.796875 18.265625 18.828125 12.890625 
Q 22.859375 7.515625 30.078125 7.515625 
Q 37.359375 7.515625 41.375 12.890625 
Q 45.40625 18.265625 45.40625 27.984375 
z
M 54.390625 6.78125 
Q 54.390625 -7.171875 48.1875 -13.984375 
Q 42 -20.796875 29.203125 -20.796875 
Q 24.46875 -20.796875 20.265625 -20.09375 
Q 16.0625 -19.390625 12.109375 -17.921875 
L 12.109375 -9.1875 
Q 16.0625 -11.328125 19.921875 -12.34375 
Q 23.78125 -13.375 27.78125 -13.375 
Q 36.625 -13.375 41.015625 -8.765625 
Q 45.40625 -4.15625 45.40625 5.171875 
L 45.40625 9.625 
Q 42.625 4.78125 38.28125 2.390625 
Q 33.9375 0 27.875 0 
Q 17.828125 0 11.671875 7.65625 
Q 5.515625 15.328125 5.515625 27.984375 
Q 5.515625 40.671875 11.671875 48.328125 
Q 17.828125 56 27.875 56 
Q 33.9375 56 38.28125 53.609375 
Q 42.625 51.21875 45.40625 46.390625 
L 45.40625 54.6875 
L 54.390625 54.6875 
z
" id="DejaVuSans-103"/>
      <path d="M 31 75.875 
Q 24.46875 64.65625 21.28125 53.65625 
Q 18.109375 42.671875 18.109375 31.390625 
Q 18.109375 20.125 21.3125 9.0625 
Q 24.515625 -2 31 -13.1875 
L 23.1875 -13.1875 
Q 15.875 -1.703125 12.234375 9.375 
Q 8.59375 20.453125 8.59375 31.390625 
Q 8.59375 42.28125 12.203125 53.3125 
Q 15.828125 64.359375 23.1875 75.875 
z
" id="DejaVuSans-40"/>
      <path d="M 9.8125 72.90625 
L 55.90625 72.90625 
L 55.90625 64.59375 
L 19.671875 64.59375 
L 19.671875 43.015625 
L 54.390625 43.015625 
L 54.390625 34.71875 
L 19.671875 34.71875 
L 19.671875 8.296875 
L 56.78125 8.296875 
L 56.78125 0 
L 9.8125 0 
z
" id="DejaVuSans-69"/>
      <path d="M 44.28125 53.078125 
L 44.28125 44.578125 
Q 40.484375 46.53125 36.375 47.5 
Q 32.28125 48.484375 27.875 48.484375 
Q 21.1875 48.484375 17.84375 46.4375 
Q 14.5 44.390625 14.5 40.28125 
Q 14.5 37.15625 16.890625 35.375 
Q 19.28125 33.59375 26.515625 31.984375 
L 29.59375 31.296875 
Q 39.15625 29.25 43.1875 25.515625 
Q 47.21875 21.78125 47.21875 15.09375 
Q 47.21875 7.46875 41.1875 3.015625 
Q 35.15625 -1.421875 24.609375 -1.421875 
Q 20.21875 -1.421875 15.453125 -0.5625 
Q 10.6875 0.296875 5.421875 2 
L 5.421875 11.28125 
Q 10.40625 8.6875 15.234375 7.390625 
Q 20.0625 6.109375 24.8125 6.109375 
Q 31.15625 6.109375 34.5625 8.28125 
Q 37.984375 10.453125 37.984375 14.40625 
Q 37.984375 18.0625 35.515625 20.015625 
Q 33.0625 21.96875 24.703125 23.78125 
L 21.578125 24.515625 
Q 13.234375 26.265625 9.515625 29.90625 
Q 5.8125 33.546875 5.8125 39.890625 
Q 5.8125 47.609375 11.28125 51.796875 
Q 16.75 56 26.8125 56 
Q 31.78125 56 36.171875 55.265625 
Q 40.578125 54.546875 44.28125 53.078125 
z
" id="DejaVuSans-115"/>
      <path d="M 8.015625 75.875 
L 15.828125 75.875 
Q 23.140625 64.359375 26.78125 53.3125 
Q 30.421875 42.28125 30.421875 31.390625 
Q 30.421875 20.453125 26.78125 9.375 
Q 23.140625 -1.703125 15.828125 -13.1875 
L 8.015625 -13.1875 
Q 14.5 -2 17.703125 9.0625 
Q 20.90625 20.125 20.90625 31.390625 
Q 20.90625 42.671875 17.703125 53.65625 
Q 14.5 64.65625 8.015625 75.875 
z
" id="DejaVuSans-41"/>
     </defs>
     <g transform="translate(28.277187 139.487344)rotate(-90)scale(0.1 -0.1)">
      <use xlink:href="#DejaVuSans-76"/>
      <use x="55.697266" xlink:href="#DejaVuSans-111"/>
      <use x="116.878906" xlink:href="#DejaVuSans-103"/>
      <use x="180.355469" xlink:href="#DejaVuSans-49"/>
      <use x="243.978516" xlink:href="#DejaVuSans-48"/>
      <use x="307.601562" xlink:href="#DejaVuSans-40"/>
      <use x="346.615234" xlink:href="#DejaVuSans-69"/>
      <use x="409.798828" xlink:href="#DejaVuSans-112"/>
      <use x="473.275391" xlink:href="#DejaVuSans-115"/>
      <use x="525.375" xlink:href="#DejaVuSans-105"/>
      <use x="553.158203" xlink:href="#DejaVuSans-108"/>
      <use x="580.941406" xlink:href="#DejaVuSans-111"/>
      <use x="642.123047" xlink:href="#DejaVuSans-110"/>
      <use x="705.501953" xlink:href="#DejaVuSans-41"/>
     </g>
    </g>
   </g>
   <g id="line2d_13">
    <path clip-path="url(#pcbab0f30bf)" d="M 83.506364 34.781476 
L 121.001169 88.973246 
L 158.495974 117.396578 
L 195.990779 130.095142 
L 233.485584 134.308349 
L 270.98039 135.489242 
L 308.475195 135.773209 
L 345.97 135.84459 
L 383.464805 135.862714 
L 420.95961 135.867518 
L 458.454416 135.8687 
L 495.949221 135.868996 
L 533.444026 135.86907 
L 570.938831 135.869089 
L 608.433636 135.869094 
" style="fill:none;stroke:#ff7f0e;stroke-linecap:square;stroke-width:1.5;"/>
    <defs>
     <path d="M -3 3 
L 3 -3 
M -3 -3 
L 3 3 
" id="m1df855e4a6" style="stroke:#ff7f0e;"/>
    </defs>
    <g clip-path="url(#pcbab0f30bf)">
     <use style="fill:#ff7f0e;stroke:#ff7f0e;" x="83.506364" xlink:href="#m1df855e4a6" y="34.781476"/>
     <use style="fill:#ff7f0e;stroke:#ff7f0e;" x="121.001169" xlink:href="#m1df855e4a6" y="88.973246"/>
     <use style="fill:#ff7f0e;stroke:#ff7f0e;" x="158.495974" xlink:href="#m1df855e4a6" y="117.396578"/>
     <use style="fill:#ff7f0e;stroke:#ff7f0e;" x="195.990779" xlink:href="#m1df855e4a6" y="130.095142"/>
     <use style="fill:#ff7f0e;stroke:#ff7f0e;" x="233.485584" xlink:href="#m1df855e4a6" y="134.308349"/>
     <use style="fill:#ff7f0e;stroke:#ff7f0e;" x="270.98039" xlink:href="#m1df855e4a6" y="135.489242"/>
     <use style="fill:#ff7f0e;stroke:#ff7f0e;" x="308.475195" xlink:href="#m1df855e4a6" y="135.773209"/>
     <use style="fill:#ff7f0e;stroke:#ff7f0e;" x="345.97" xlink:href="#m1df855e4a6" y="135.84459"/>
     <use style="fill:#ff7f0e;stroke:#ff7f0e;" x="383.464805" xlink:href="#m1df855e4a6" y="135.862714"/>
     <use style="fill:#ff7f0e;stroke:#ff7f0e;" x="420.95961" xlink:href="#m1df855e4a6" y="135.867518"/>
     <use style="fill:#ff7f0e;stroke:#ff7f0e;" x="458.454416" xlink:href="#m1df855e4a6" y="135.8687"/>
     <use style="fill:#ff7f0e;stroke:#ff7f0e;" x="495.949221" xlink:href="#m1df855e4a6" y="135.868996"/>
     <use style="fill:#ff7f0e;stroke:#ff7f0e;" x="533.444026" xlink:href="#m1df855e4a6" y="135.86907"/>
     <use style="fill:#ff7f0e;stroke:#ff7f0e;" x="570.938831" xlink:href="#m1df855e4a6" y="135.869089"/>
     <use style="fill:#ff7f0e;stroke:#ff7f0e;" x="608.433636" xlink:href="#m1df855e4a6" y="135.869094"/>
    </g>
   </g>
   <g id="line2d_14">
    <path clip-path="url(#pcbab0f30bf)" d="M 83.506364 84.573986 
L 121.001169 114.315914 
L 158.495974 128.773635 
L 195.990779 137.873261 
L 233.485584 141.47047 
L 270.98039 143.436434 
L 308.475195 144.249394 
L 345.97 144.637083 
L 383.464805 144.711398 
L 420.95961 144.736473 
L 458.454416 144.748436 
L 495.949221 144.754218 
L 533.444026 144.75707 
L 570.938831 144.75851 
L 608.433636 144.759211 
" style="fill:none;stroke:#2ca02c;stroke-linecap:square;stroke-width:1.5;"/>
    <defs>
     <path d="M -3 3 
L 3 -3 
M -3 -3 
L 3 3 
" id="m87e36fa979" style="stroke:#2ca02c;"/>
    </defs>
    <g clip-path="url(#pcbab0f30bf)">
     <use style="fill:#2ca02c;stroke:#2ca02c;" x="83.506364" xlink:href="#m87e36fa979" y="84.573986"/>
     <use style="fill:#2ca02c;stroke:#2ca02c;" x="121.001169" xlink:href="#m87e36fa979" y="114.315914"/>
     <use style="fill:#2ca02c;stroke:#2ca02c;" x="158.495974" xlink:href="#m87e36fa979" y="128.773635"/>
     <use style="fill:#2ca02c;stroke:#2ca02c;" x="195.990779" xlink:href="#m87e36fa979" y="137.873261"/>
     <use style="fill:#2ca02c;stroke:#2ca02c;" x="233.485584" xlink:href="#m87e36fa979" y="141.47047"/>
     <use style="fill:#2ca02c;stroke:#2ca02c;" x="270.98039" xlink:href="#m87e36fa979" y="143.436434"/>
     <use style="fill:#2ca02c;stroke:#2ca02c;" x="308.475195" xlink:href="#m87e36fa979" y="144.249394"/>
     <use style="fill:#2ca02c;stroke:#2ca02c;" x="345.97" xlink:href="#m87e36fa979" y="144.637083"/>
     <use style="fill:#2ca02c;stroke:#2ca02c;" x="383.464805" xlink:href="#m87e36fa979" y="144.711398"/>
     <use style="fill:#2ca02c;stroke:#2ca02c;" x="420.95961" xlink:href="#m87e36fa979" y="144.736473"/>
     <use style="fill:#2ca02c;stroke:#2ca02c;" x="458.454416" xlink:href="#m87e36fa979" y="144.748436"/>
     <use style="fill:#2ca02c;stroke:#2ca02c;" x="495.949221" xlink:href="#m87e36fa979" y="144.754218"/>
     <use style="fill:#2ca02c;stroke:#2ca02c;" x="533.444026" xlink:href="#m87e36fa979" y="144.75707"/>
     <use style="fill:#2ca02c;stroke:#2ca02c;" x="570.938831" xlink:href="#m87e36fa979" y="144.75851"/>
     <use style="fill:#2ca02c;stroke:#2ca02c;" x="608.433636" xlink:href="#m87e36fa979" y="144.759211"/>
    </g>
   </g>
   <g id="line2d_15">
    <path clip-path="url(#pcbab0f30bf)" d="M 83.506364 32.423636 
L 121.001169 78.174453 
L 158.495974 99.934054 
L 195.990779 110.805394 
L 233.485584 118.85887 
L 270.98039 125.44044 
L 308.475195 131.51978 
L 345.97 137.295611 
L 383.464805 142.734693 
L 420.95961 147.962811 
L 458.454416 152.954884 
L 495.949221 157.821465 
L 533.444026 162.567337 
L 570.938831 167.410386 
L 608.433636 172.096364 
" style="fill:none;stroke:#d62728;stroke-linecap:square;stroke-width:1.5;"/>
    <defs>
     <path d="M -3 3 
L 3 -3 
M -3 -3 
L 3 3 
" id="mfb27de32e0" style="stroke:#d62728;"/>
    </defs>
    <g clip-path="url(#pcbab0f30bf)">
     <use style="fill:#d62728;stroke:#d62728;" x="83.506364" xlink:href="#mfb27de32e0" y="32.423636"/>
     <use style="fill:#d62728;stroke:#d62728;" x="121.001169" xlink:href="#mfb27de32e0" y="78.174453"/>
     <use style="fill:#d62728;stroke:#d62728;" x="158.495974" xlink:href="#mfb27de32e0" y="99.934054"/>
     <use style="fill:#d62728;stroke:#d62728;" x="195.990779" xlink:href="#mfb27de32e0" y="110.805394"/>
     <use style="fill:#d62728;stroke:#d62728;" x="233.485584" xlink:href="#mfb27de32e0" y="118.85887"/>
     <use style="fill:#d62728;stroke:#d62728;" x="270.98039" xlink:href="#mfb27de32e0" y="125.44044"/>
     <use style="fill:#d62728;stroke:#d62728;" x="308.475195" xlink:href="#mfb27de32e0" y="131.51978"/>
     <use style="fill:#d62728;stroke:#d62728;" x="345.97" xlink:href="#mfb27de32e0" y="137.295611"/>
     <use style="fill:#d62728;stroke:#d62728;" x="383.464805" xlink:href="#mfb27de32e0" y="142.734693"/>
     <use style="fill:#d62728;stroke:#d62728;" x="420.95961" xlink:href="#mfb27de32e0" y="147.962811"/>
     <use style="fill:#d62728;stroke:#d62728;" x="458.454416" xlink:href="#mfb27de32e0" y="152.954884"/>
     <use style="fill:#d62728;stroke:#d62728;" x="495.949221" xlink:href="#mfb27de32e0" y="157.821465"/>
     <use style="fill:#d62728;stroke:#d62728;" x="533.444026" xlink:href="#mfb27de32e0" y="162.567337"/>
     <use style="fill:#d62728;stroke:#d62728;" x="570.938831" xlink:href="#mfb27de32e0" y="167.410386"/>
     <use style="fill:#d62728;stroke:#d62728;" x="608.433636" xlink:href="#mfb27de32e0" y="172.096364"/>
    </g>
   </g>
   <g id="patch_3">
    <path d="M 57.26 179.08 
L 57.26 25.44 
" style="fill:none;stroke:#000000;stroke-linecap:square;stroke-linejoin:miter;stroke-width:0.8;"/>
   </g>
   <g id="patch_4">
    <path d="M 634.68 179.08 
L 634.68 25.44 
" style="fill:none;stroke:#000000;stroke-linecap:square;stroke-linejoin:miter;stroke-width:0.8;"/>
   </g>
   <g id="patch_5">
    <path d="M 57.26 179.08 
L 634.68 179.08 
" style="fill:none;stroke:#000000;stroke-linecap:square;stroke-linejoin:miter;stroke-width:0.8;"/>
   </g>
   <g id="patch_6">
    <path d="M 57.26 25.44 
L 634.68 25.44 
" style="fill:none;stroke:#000000;stroke-linecap:square;stroke-linejoin:miter;stroke-width:0.8;"/>
   </g>
   <g id="text_15">
    <!-- Epsilon values -->
    <defs>
     <path d="M 2.984375 54.6875 
L 12.5 54.6875 
L 29.59375 8.796875 
L 46.6875 54.6875 
L 56.203125 54.6875 
L 35.6875 0 
L 23.484375 0 
z
" id="DejaVuSans-118"/>
    </defs>
    <g transform="translate(303.014687 19.44)scale(0.12 -0.12)">
     <use xlink:href="#DejaVuSans-69"/>
     <use x="63.183594" xlink:href="#DejaVuSans-112"/>
     <use x="126.660156" xlink:href="#DejaVuSans-115"/>
     <use x="178.759766" xlink:href="#DejaVuSans-105"/>
     <use x="206.542969" xlink:href="#DejaVuSans-108"/>
     <use x="234.326172" xlink:href="#DejaVuSans-111"/>
     <use x="295.507812" xlink:href="#DejaVuSans-110"/>
     <use x="358.886719" xlink:href="#DejaVuSans-32"/>
     <use x="390.673828" xlink:href="#DejaVuSans-118"/>
     <use x="449.853516" xlink:href="#DejaVuSans-97"/>
     <use x="511.132812" xlink:href="#DejaVuSans-108"/>
     <use x="538.916016" xlink:href="#DejaVuSans-117"/>
     <use x="602.294922" xlink:href="#DejaVuSans-101"/>
     <use x="663.818359" xlink:href="#DejaVuSans-115"/>
    </g>
   </g>
   <g id="legend_1">
    <g id="patch_7">
     <path d="M 491.256562 77.474375 
L 627.68 77.474375 
Q 629.68 77.474375 629.68 75.474375 
L 629.68 32.44 
Q 629.68 30.44 627.68 30.44 
L 491.256562 30.44 
Q 489.256562 30.44 489.256562 32.44 
L 489.256562 75.474375 
Q 489.256562 77.474375 491.256562 77.474375 
z
" style="fill:#ffffff;opacity:0.8;stroke:#cccccc;stroke-linejoin:miter;"/>
    </g>
    <g id="line2d_16">
     <path d="M 493.256562 38.538438 
L 513.256562 38.538438 
" style="fill:none;stroke:#ff7f0e;stroke-linecap:square;stroke-width:1.5;"/>
    </g>
    <g id="line2d_17">
     <g>
      <use style="fill:#ff7f0e;stroke:#ff7f0e;" x="503.256562" xlink:href="#m1df855e4a6" y="38.538438"/>
     </g>
    </g>
    <g id="text_16">
     <!-- No noise, l2 distance -->
     <defs>
      <path d="M 9.8125 72.90625 
L 23.09375 72.90625 
L 55.421875 11.921875 
L 55.421875 72.90625 
L 64.984375 72.90625 
L 64.984375 0 
L 51.703125 0 
L 19.390625 60.984375 
L 19.390625 0 
L 9.8125 0 
z
" id="DejaVuSans-78"/>
      <path d="M 11.71875 12.40625 
L 22.015625 12.40625 
L 22.015625 4 
L 14.015625 -11.625 
L 7.71875 -11.625 
L 11.71875 4 
z
" id="DejaVuSans-44"/>
      <path d="M 48.78125 52.59375 
L 48.78125 44.1875 
Q 44.96875 46.296875 41.140625 47.34375 
Q 37.3125 48.390625 33.40625 48.390625 
Q 24.65625 48.390625 19.8125 42.84375 
Q 14.984375 37.3125 14.984375 27.296875 
Q 14.984375 17.28125 19.8125 11.734375 
Q 24.65625 6.203125 33.40625 6.203125 
Q 37.3125 6.203125 41.140625 7.25 
Q 44.96875 8.296875 48.78125 10.40625 
L 48.78125 2.09375 
Q 45.015625 0.34375 40.984375 -0.53125 
Q 36.96875 -1.421875 32.421875 -1.421875 
Q 20.0625 -1.421875 12.78125 6.34375 
Q 5.515625 14.109375 5.515625 27.296875 
Q 5.515625 40.671875 12.859375 48.328125 
Q 20.21875 56 33.015625 56 
Q 37.15625 56 41.109375 55.140625 
Q 45.0625 54.296875 48.78125 52.59375 
z
" id="DejaVuSans-99"/>
     </defs>
     <g transform="translate(521.256562 42.038438)scale(0.1 -0.1)">
      <use xlink:href="#DejaVuSans-78"/>
      <use x="74.804688" xlink:href="#DejaVuSans-111"/>
      <use x="135.986328" xlink:href="#DejaVuSans-32"/>
      <use x="167.773438" xlink:href="#DejaVuSans-110"/>
      <use x="231.152344" xlink:href="#DejaVuSans-111"/>
      <use x="292.333984" xlink:href="#DejaVuSans-105"/>
      <use x="320.117188" xlink:href="#DejaVuSans-115"/>
      <use x="372.216797" xlink:href="#DejaVuSans-101"/>
      <use x="433.740234" xlink:href="#DejaVuSans-44"/>
      <use x="465.527344" xlink:href="#DejaVuSans-32"/>
      <use x="497.314453" xlink:href="#DejaVuSans-108"/>
      <use x="525.097656" xlink:href="#DejaVuSans-50"/>
      <use x="588.720703" xlink:href="#DejaVuSans-32"/>
      <use x="620.507812" xlink:href="#DejaVuSans-100"/>
      <use x="683.984375" xlink:href="#DejaVuSans-105"/>
      <use x="711.767578" xlink:href="#DejaVuSans-115"/>
      <use x="763.867188" xlink:href="#DejaVuSans-116"/>
      <use x="803.076172" xlink:href="#DejaVuSans-97"/>
      <use x="864.355469" xlink:href="#DejaVuSans-110"/>
      <use x="927.734375" xlink:href="#DejaVuSans-99"/>
      <use x="982.714844" xlink:href="#DejaVuSans-101"/>
     </g>
    </g>
    <g id="line2d_18">
     <path d="M 493.256562 53.216563 
L 513.256562 53.216563 
" style="fill:none;stroke:#2ca02c;stroke-linecap:square;stroke-width:1.5;"/>
    </g>
    <g id="line2d_19">
     <g>
      <use style="fill:#2ca02c;stroke:#2ca02c;" x="503.256562" xlink:href="#m87e36fa979" y="53.216563"/>
     </g>
    </g>
    <g id="text_17">
     <!-- No noise, l1 distance -->
     <g transform="translate(521.256562 56.716563)scale(0.1 -0.1)">
      <use xlink:href="#DejaVuSans-78"/>
      <use x="74.804688" xlink:href="#DejaVuSans-111"/>
      <use x="135.986328" xlink:href="#DejaVuSans-32"/>
      <use x="167.773438" xlink:href="#DejaVuSans-110"/>
      <use x="231.152344" xlink:href="#DejaVuSans-111"/>
      <use x="292.333984" xlink:href="#DejaVuSans-105"/>
      <use x="320.117188" xlink:href="#DejaVuSans-115"/>
      <use x="372.216797" xlink:href="#DejaVuSans-101"/>
      <use x="433.740234" xlink:href="#DejaVuSans-44"/>
      <use x="465.527344" xlink:href="#DejaVuSans-32"/>
      <use x="497.314453" xlink:href="#DejaVuSans-108"/>
      <use x="525.097656" xlink:href="#DejaVuSans-49"/>
      <use x="588.720703" xlink:href="#DejaVuSans-32"/>
      <use x="620.507812" xlink:href="#DejaVuSans-100"/>
      <use x="683.984375" xlink:href="#DejaVuSans-105"/>
      <use x="711.767578" xlink:href="#DejaVuSans-115"/>
      <use x="763.867188" xlink:href="#DejaVuSans-116"/>
      <use x="803.076172" xlink:href="#DejaVuSans-97"/>
      <use x="864.355469" xlink:href="#DejaVuSans-110"/>
      <use x="927.734375" xlink:href="#DejaVuSans-99"/>
      <use x="982.714844" xlink:href="#DejaVuSans-101"/>
     </g>
    </g>
    <g id="line2d_20">
     <path d="M 493.256562 67.894688 
L 513.256562 67.894688 
" style="fill:none;stroke:#d62728;stroke-linecap:square;stroke-width:1.5;"/>
    </g>
    <g id="line2d_21">
     <g>
      <use style="fill:#d62728;stroke:#d62728;" x="503.256562" xlink:href="#mfb27de32e0" y="67.894688"/>
     </g>
    </g>
    <g id="text_18">
     <!-- Noisy model -->
     <defs>
      <path d="M 32.171875 -5.078125 
Q 28.375 -14.84375 24.75 -17.8125 
Q 21.140625 -20.796875 15.09375 -20.796875 
L 7.90625 -20.796875 
L 7.90625 -13.28125 
L 13.1875 -13.28125 
Q 16.890625 -13.28125 18.9375 -11.515625 
Q 21 -9.765625 23.484375 -3.21875 
L 25.09375 0.875 
L 2.984375 54.6875 
L 12.5 54.6875 
L 29.59375 11.921875 
L 46.6875 54.6875 
L 56.203125 54.6875 
z
" id="DejaVuSans-121"/>
      <path d="M 52 44.1875 
Q 55.375 50.25 60.0625 53.125 
Q 64.75 56 71.09375 56 
Q 79.640625 56 84.28125 50.015625 
Q 88.921875 44.046875 88.921875 33.015625 
L 88.921875 0 
L 79.890625 0 
L 79.890625 32.71875 
Q 79.890625 40.578125 77.09375 44.375 
Q 74.3125 48.1875 68.609375 48.1875 
Q 61.625 48.1875 57.5625 43.546875 
Q 53.515625 38.921875 53.515625 30.90625 
L 53.515625 0 
L 44.484375 0 
L 44.484375 32.71875 
Q 44.484375 40.625 41.703125 44.40625 
Q 38.921875 48.1875 33.109375 48.1875 
Q 26.21875 48.1875 22.15625 43.53125 
Q 18.109375 38.875 18.109375 30.90625 
L 18.109375 0 
L 9.078125 0 
L 9.078125 54.6875 
L 18.109375 54.6875 
L 18.109375 46.1875 
Q 21.1875 51.21875 25.484375 53.609375 
Q 29.78125 56 35.6875 56 
Q 41.65625 56 45.828125 52.96875 
Q 50 49.953125 52 44.1875 
z
" id="DejaVuSans-109"/>
     </defs>
     <g transform="translate(521.256562 71.394688)scale(0.1 -0.1)">
      <use xlink:href="#DejaVuSans-78"/>
      <use x="74.804688" xlink:href="#DejaVuSans-111"/>
      <use x="135.986328" xlink:href="#DejaVuSans-105"/>
      <use x="163.769531" xlink:href="#DejaVuSans-115"/>
      <use x="215.869141" xlink:href="#DejaVuSans-121"/>
      <use x="275.048828" xlink:href="#DejaVuSans-32"/>
      <use x="306.835938" xlink:href="#DejaVuSans-109"/>
      <use x="404.248047" xlink:href="#DejaVuSans-111"/>
      <use x="465.429688" xlink:href="#DejaVuSans-100"/>
      <use x="528.90625" xlink:href="#DejaVuSans-101"/>
      <use x="590.429688" xlink:href="#DejaVuSans-108"/>
     </g>
    </g>
   </g>
  </g>
  <g id="axes_2">
   <g id="patch_8">
    <path d="M 57.26 389.32 
L 219.266667 389.32 
L 219.266667 235.68 
L 57.26 235.68 
z
" style="fill:#ffffff;"/>
   </g>
   <g id="patch_9">
    <path clip-path="url(#pa945217b80)" d="M 64.623939 389.32 
L 68.305909 389.32 
L 68.305909 389.32 
L 64.623939 389.32 
z
" style="fill:#ff7f0e;"/>
   </g>
   <g id="patch_10">
    <path clip-path="url(#pa945217b80)" d="M 68.305909 389.32 
L 71.987879 389.32 
L 71.987879 389.32 
L 68.305909 389.32 
z
" style="fill:#ff7f0e;"/>
   </g>
   <g id="patch_11">
    <path clip-path="url(#pa945217b80)" d="M 71.987879 389.32 
L 75.669848 389.32 
L 75.669848 389.32 
L 71.987879 389.32 
z
" style="fill:#ff7f0e;"/>
   </g>
   <g id="patch_12">
    <path clip-path="url(#pa945217b80)" d="M 75.669848 389.32 
L 79.351818 389.32 
L 79.351818 389.32 
L 75.669848 389.32 
z
" style="fill:#ff7f0e;"/>
   </g>
   <g id="patch_13">
    <path clip-path="url(#pa945217b80)" d="M 79.351818 389.32 
L 83.033788 389.32 
L 83.033788 389.32 
L 79.351818 389.32 
z
" style="fill:#ff7f0e;"/>
   </g>
   <g id="patch_14">
    <path clip-path="url(#pa945217b80)" d="M 83.033788 389.32 
L 86.715758 389.32 
L 86.715758 389.32 
L 83.033788 389.32 
z
" style="fill:#ff7f0e;"/>
   </g>
   <g id="patch_15">
    <path clip-path="url(#pa945217b80)" d="M 86.715758 389.32 
L 90.397727 389.32 
L 90.397727 389.32 
L 86.715758 389.32 
z
" style="fill:#ff7f0e;"/>
   </g>
   <g id="patch_16">
    <path clip-path="url(#pa945217b80)" d="M 90.397727 389.32 
L 94.079697 389.32 
L 94.079697 389.32 
L 90.397727 389.32 
z
" style="fill:#ff7f0e;"/>
   </g>
   <g id="patch_17">
    <path clip-path="url(#pa945217b80)" d="M 94.079697 389.32 
L 97.761667 389.32 
L 97.761667 389.32 
L 94.079697 389.32 
z
" style="fill:#ff7f0e;"/>
   </g>
   <g id="patch_18">
    <path clip-path="url(#pa945217b80)" d="M 97.761667 389.32 
L 101.443636 389.32 
L 101.443636 389.32 
L 97.761667 389.32 
z
" style="fill:#ff7f0e;"/>
   </g>
   <g id="patch_19">
    <path clip-path="url(#pa945217b80)" d="M 101.443636 389.32 
L 105.125606 389.32 
L 105.125606 389.32 
L 101.443636 389.32 
z
" style="fill:#ff7f0e;"/>
   </g>
   <g id="patch_20">
    <path clip-path="url(#pa945217b80)" d="M 105.125606 389.32 
L 108.807576 389.32 
L 108.807576 389.32 
L 105.125606 389.32 
z
" style="fill:#ff7f0e;"/>
   </g>
   <g id="patch_21">
    <path clip-path="url(#pa945217b80)" d="M 108.807576 389.32 
L 112.489545 389.32 
L 112.489545 389.32 
L 108.807576 389.32 
z
" style="fill:#ff7f0e;"/>
   </g>
   <g id="patch_22">
    <path clip-path="url(#pa945217b80)" d="M 112.489545 389.32 
L 116.171515 389.32 
L 116.171515 389.32 
L 112.489545 389.32 
z
" style="fill:#ff7f0e;"/>
   </g>
   <g id="patch_23">
    <path clip-path="url(#pa945217b80)" d="M 116.171515 389.32 
L 119.853485 389.32 
L 119.853485 389.32 
L 116.171515 389.32 
z
" style="fill:#ff7f0e;"/>
   </g>
   <g id="patch_24">
    <path clip-path="url(#pa945217b80)" d="M 119.853485 389.32 
L 123.535455 389.32 
L 123.535455 389.32 
L 119.853485 389.32 
z
" style="fill:#ff7f0e;"/>
   </g>
   <g id="patch_25">
    <path clip-path="url(#pa945217b80)" d="M 123.535455 389.32 
L 127.217424 389.32 
L 127.217424 389.32 
L 123.535455 389.32 
z
" style="fill:#ff7f0e;"/>
   </g>
   <g id="patch_26">
    <path clip-path="url(#pa945217b80)" d="M 127.217424 389.32 
L 130.899394 389.32 
L 130.899394 389.32 
L 127.217424 389.32 
z
" style="fill:#ff7f0e;"/>
   </g>
   <g id="patch_27">
    <path clip-path="url(#pa945217b80)" d="M 130.899394 389.32 
L 134.581364 389.32 
L 134.581364 389.32 
L 130.899394 389.32 
z
" style="fill:#ff7f0e;"/>
   </g>
   <g id="patch_28">
    <path clip-path="url(#pa945217b80)" d="M 134.581364 389.32 
L 138.263333 389.32 
L 138.263333 389.32 
L 134.581364 389.32 
z
" style="fill:#ff7f0e;"/>
   </g>
   <g id="patch_29">
    <path clip-path="url(#pa945217b80)" d="M 138.263333 389.32 
L 141.945303 389.32 
L 141.945303 389.32 
L 138.263333 389.32 
z
" style="fill:#ff7f0e;"/>
   </g>
   <g id="patch_30">
    <path clip-path="url(#pa945217b80)" d="M 141.945303 389.32 
L 145.627273 389.32 
L 145.627273 389.32 
L 141.945303 389.32 
z
" style="fill:#ff7f0e;"/>
   </g>
   <g id="patch_31">
    <path clip-path="url(#pa945217b80)" d="M 145.627273 389.32 
L 149.309242 389.32 
L 149.309242 389.32 
L 145.627273 389.32 
z
" style="fill:#ff7f0e;"/>
   </g>
   <g id="patch_32">
    <path clip-path="url(#pa945217b80)" d="M 149.309242 389.32 
L 152.991212 389.32 
L 152.991212 242.99619 
L 149.309242 242.99619 
z
" style="fill:#ff7f0e;"/>
   </g>
   <g id="patch_33">
    <path clip-path="url(#pa945217b80)" d="M 152.991212 389.32 
L 156.673182 389.32 
L 156.673182 389.32 
L 152.991212 389.32 
z
" style="fill:#ff7f0e;"/>
   </g>
   <g id="patch_34">
    <path clip-path="url(#pa945217b80)" d="M 156.673182 389.32 
L 160.355152 389.32 
L 160.355152 389.32 
L 156.673182 389.32 
z
" style="fill:#ff7f0e;"/>
   </g>
   <g id="patch_35">
    <path clip-path="url(#pa945217b80)" d="M 160.355152 389.32 
L 164.037121 389.32 
L 164.037121 389.32 
L 160.355152 389.32 
z
" style="fill:#ff7f0e;"/>
   </g>
   <g id="patch_36">
    <path clip-path="url(#pa945217b80)" d="M 164.037121 389.32 
L 167.719091 389.32 
L 167.719091 389.32 
L 164.037121 389.32 
z
" style="fill:#ff7f0e;"/>
   </g>
   <g id="patch_37">
    <path clip-path="url(#pa945217b80)" d="M 167.719091 389.32 
L 171.401061 389.32 
L 171.401061 389.32 
L 167.719091 389.32 
z
" style="fill:#ff7f0e;"/>
   </g>
   <g id="patch_38">
    <path clip-path="url(#pa945217b80)" d="M 171.401061 389.32 
L 175.08303 389.32 
L 175.08303 389.32 
L 171.401061 389.32 
z
" style="fill:#ff7f0e;"/>
   </g>
   <g id="patch_39">
    <path clip-path="url(#pa945217b80)" d="M 175.08303 389.32 
L 178.765 389.32 
L 178.765 389.32 
L 175.08303 389.32 
z
" style="fill:#ff7f0e;"/>
   </g>
   <g id="patch_40">
    <path clip-path="url(#pa945217b80)" d="M 178.765 389.32 
L 182.44697 389.32 
L 182.44697 389.32 
L 178.765 389.32 
z
" style="fill:#ff7f0e;"/>
   </g>
   <g id="patch_41">
    <path clip-path="url(#pa945217b80)" d="M 182.44697 389.32 
L 186.128939 389.32 
L 186.128939 389.32 
L 182.44697 389.32 
z
" style="fill:#ff7f0e;"/>
   </g>
   <g id="patch_42">
    <path clip-path="url(#pa945217b80)" d="M 186.128939 389.32 
L 189.810909 389.32 
L 189.810909 389.32 
L 186.128939 389.32 
z
" style="fill:#ff7f0e;"/>
   </g>
   <g id="patch_43">
    <path clip-path="url(#pa945217b80)" d="M 189.810909 389.32 
L 193.492879 389.32 
L 193.492879 389.32 
L 189.810909 389.32 
z
" style="fill:#ff7f0e;"/>
   </g>
   <g id="patch_44">
    <path clip-path="url(#pa945217b80)" d="M 193.492879 389.32 
L 197.174848 389.32 
L 197.174848 389.32 
L 193.492879 389.32 
z
" style="fill:#ff7f0e;"/>
   </g>
   <g id="patch_45">
    <path clip-path="url(#pa945217b80)" d="M 197.174848 389.32 
L 200.856818 389.32 
L 200.856818 389.32 
L 197.174848 389.32 
z
" style="fill:#ff7f0e;"/>
   </g>
   <g id="patch_46">
    <path clip-path="url(#pa945217b80)" d="M 200.856818 389.32 
L 204.538788 389.32 
L 204.538788 389.32 
L 200.856818 389.32 
z
" style="fill:#ff7f0e;"/>
   </g>
   <g id="patch_47">
    <path clip-path="url(#pa945217b80)" d="M 204.538788 389.32 
L 208.220758 389.32 
L 208.220758 389.32 
L 204.538788 389.32 
z
" style="fill:#ff7f0e;"/>
   </g>
   <g id="patch_48">
    <path clip-path="url(#pa945217b80)" d="M 208.220758 389.32 
L 211.902727 389.32 
L 211.902727 389.32 
L 208.220758 389.32 
z
" style="fill:#ff7f0e;"/>
   </g>
   <g id="matplotlib.axis_3">
    <g id="xtick_9">
     <g id="line2d_22">
      <g>
       <use style="stroke:#000000;stroke-width:0.8;" x="87.282214" xlink:href="#md3f8e2696f" y="389.32"/>
      </g>
     </g>
     <g id="text_19">
      <!-- 0.055 -->
      <g transform="translate(72.968152 403.918437)scale(0.1 -0.1)">
       <use xlink:href="#DejaVuSans-48"/>
       <use x="63.623047" xlink:href="#DejaVuSans-46"/>
       <use x="95.410156" xlink:href="#DejaVuSans-48"/>
       <use x="159.033203" xlink:href="#DejaVuSans-53"/>
       <use x="222.65625" xlink:href="#DejaVuSans-53"/>
      </g>
     </g>
    </g>
    <g id="xtick_10">
     <g id="line2d_23">
      <g>
       <use style="stroke:#000000;stroke-width:0.8;" x="143.927902" xlink:href="#md3f8e2696f" y="389.32"/>
      </g>
     </g>
     <g id="text_20">
      <!-- 0.060 -->
      <g transform="translate(129.61384 403.918437)scale(0.1 -0.1)">
       <use xlink:href="#DejaVuSans-48"/>
       <use x="63.623047" xlink:href="#DejaVuSans-46"/>
       <use x="95.410156" xlink:href="#DejaVuSans-48"/>
       <use x="159.033203" xlink:href="#DejaVuSans-54"/>
       <use x="222.65625" xlink:href="#DejaVuSans-48"/>
      </g>
     </g>
    </g>
    <g id="xtick_11">
     <g id="line2d_24">
      <g>
       <use style="stroke:#000000;stroke-width:0.8;" x="200.57359" xlink:href="#md3f8e2696f" y="389.32"/>
      </g>
     </g>
     <g id="text_21">
      <!-- 0.065 -->
      <g transform="translate(186.259527 403.918437)scale(0.1 -0.1)">
       <use xlink:href="#DejaVuSans-48"/>
       <use x="63.623047" xlink:href="#DejaVuSans-46"/>
       <use x="95.410156" xlink:href="#DejaVuSans-48"/>
       <use x="159.033203" xlink:href="#DejaVuSans-54"/>
       <use x="222.65625" xlink:href="#DejaVuSans-53"/>
      </g>
     </g>
    </g>
   </g>
   <g id="matplotlib.axis_4">
    <g id="ytick_5">
     <g id="line2d_25">
      <g>
       <use style="stroke:#000000;stroke-width:0.8;" x="57.26" xlink:href="#m4869182ae2" y="389.32"/>
      </g>
     </g>
     <g id="text_22">
      <!-- 0 -->
      <g transform="translate(43.8975 393.119219)scale(0.1 -0.1)">
       <use xlink:href="#DejaVuSans-48"/>
      </g>
     </g>
    </g>
    <g id="ytick_6">
     <g id="line2d_26">
      <g>
       <use style="stroke:#000000;stroke-width:0.8;" x="57.26" xlink:href="#m4869182ae2" y="365.542381"/>
      </g>
     </g>
     <g id="text_23">
      <!-- 500 -->
      <g transform="translate(31.1725 369.3416)scale(0.1 -0.1)">
       <use xlink:href="#DejaVuSans-53"/>
       <use x="63.623047" xlink:href="#DejaVuSans-48"/>
       <use x="127.246094" xlink:href="#DejaVuSans-48"/>
      </g>
     </g>
    </g>
    <g id="ytick_7">
     <g id="line2d_27">
      <g>
       <use style="stroke:#000000;stroke-width:0.8;" x="57.26" xlink:href="#m4869182ae2" y="341.764762"/>
      </g>
     </g>
     <g id="text_24">
      <!-- 1000 -->
      <g transform="translate(24.81 345.563981)scale(0.1 -0.1)">
       <use xlink:href="#DejaVuSans-49"/>
       <use x="63.623047" xlink:href="#DejaVuSans-48"/>
       <use x="127.246094" xlink:href="#DejaVuSans-48"/>
       <use x="190.869141" xlink:href="#DejaVuSans-48"/>
      </g>
     </g>
    </g>
    <g id="ytick_8">
     <g id="line2d_28">
      <g>
       <use style="stroke:#000000;stroke-width:0.8;" x="57.26" xlink:href="#m4869182ae2" y="317.987143"/>
      </g>
     </g>
     <g id="text_25">
      <!-- 1500 -->
      <g transform="translate(24.81 321.786362)scale(0.1 -0.1)">
       <use xlink:href="#DejaVuSans-49"/>
       <use x="63.623047" xlink:href="#DejaVuSans-53"/>
       <use x="127.246094" xlink:href="#DejaVuSans-48"/>
       <use x="190.869141" xlink:href="#DejaVuSans-48"/>
      </g>
     </g>
    </g>
    <g id="ytick_9">
     <g id="line2d_29">
      <g>
       <use style="stroke:#000000;stroke-width:0.8;" x="57.26" xlink:href="#m4869182ae2" y="294.209524"/>
      </g>
     </g>
     <g id="text_26">
      <!-- 2000 -->
      <g transform="translate(24.81 298.008743)scale(0.1 -0.1)">
       <use xlink:href="#DejaVuSans-50"/>
       <use x="63.623047" xlink:href="#DejaVuSans-48"/>
       <use x="127.246094" xlink:href="#DejaVuSans-48"/>
       <use x="190.869141" xlink:href="#DejaVuSans-48"/>
      </g>
     </g>
    </g>
    <g id="ytick_10">
     <g id="line2d_30">
      <g>
       <use style="stroke:#000000;stroke-width:0.8;" x="57.26" xlink:href="#m4869182ae2" y="270.431905"/>
      </g>
     </g>
     <g id="text_27">
      <!-- 2500 -->
      <g transform="translate(24.81 274.231124)scale(0.1 -0.1)">
       <use xlink:href="#DejaVuSans-50"/>
       <use x="63.623047" xlink:href="#DejaVuSans-53"/>
       <use x="127.246094" xlink:href="#DejaVuSans-48"/>
       <use x="190.869141" xlink:href="#DejaVuSans-48"/>
      </g>
     </g>
    </g>
    <g id="ytick_11">
     <g id="line2d_31">
      <g>
       <use style="stroke:#000000;stroke-width:0.8;" x="57.26" xlink:href="#m4869182ae2" y="246.654286"/>
      </g>
     </g>
     <g id="text_28">
      <!-- 3000 -->
      <defs>
       <path d="M 40.578125 39.3125 
Q 47.65625 37.796875 51.625 33 
Q 55.609375 28.21875 55.609375 21.1875 
Q 55.609375 10.40625 48.1875 4.484375 
Q 40.765625 -1.421875 27.09375 -1.421875 
Q 22.515625 -1.421875 17.65625 -0.515625 
Q 12.796875 0.390625 7.625 2.203125 
L 7.625 11.71875 
Q 11.71875 9.328125 16.59375 8.109375 
Q 21.484375 6.890625 26.8125 6.890625 
Q 36.078125 6.890625 40.9375 10.546875 
Q 45.796875 14.203125 45.796875 21.1875 
Q 45.796875 27.640625 41.28125 31.265625 
Q 36.765625 34.90625 28.71875 34.90625 
L 20.21875 34.90625 
L 20.21875 43.015625 
L 29.109375 43.015625 
Q 36.375 43.015625 40.234375 45.921875 
Q 44.09375 48.828125 44.09375 54.296875 
Q 44.09375 59.90625 40.109375 62.90625 
Q 36.140625 65.921875 28.71875 65.921875 
Q 24.65625 65.921875 20.015625 65.03125 
Q 15.375 64.15625 9.8125 62.3125 
L 9.8125 71.09375 
Q 15.4375 72.65625 20.34375 73.4375 
Q 25.25 74.21875 29.59375 74.21875 
Q 40.828125 74.21875 47.359375 69.109375 
Q 53.90625 64.015625 53.90625 55.328125 
Q 53.90625 49.265625 50.4375 45.09375 
Q 46.96875 40.921875 40.578125 39.3125 
z
" id="DejaVuSans-51"/>
      </defs>
      <g transform="translate(24.81 250.453504)scale(0.1 -0.1)">
       <use xlink:href="#DejaVuSans-51"/>
       <use x="63.623047" xlink:href="#DejaVuSans-48"/>
       <use x="127.246094" xlink:href="#DejaVuSans-48"/>
       <use x="190.869141" xlink:href="#DejaVuSans-48"/>
      </g>
     </g>
    </g>
    <g id="text_29">
     <!-- Density -->
     <defs>
      <path d="M 19.671875 64.796875 
L 19.671875 8.109375 
L 31.59375 8.109375 
Q 46.6875 8.109375 53.6875 14.9375 
Q 60.6875 21.78125 60.6875 36.53125 
Q 60.6875 51.171875 53.6875 57.984375 
Q 46.6875 64.796875 31.59375 64.796875 
z
M 9.8125 72.90625 
L 30.078125 72.90625 
Q 51.265625 72.90625 61.171875 64.09375 
Q 71.09375 55.28125 71.09375 36.53125 
Q 71.09375 17.671875 61.125 8.828125 
Q 51.171875 0 30.078125 0 
L 9.8125 0 
z
" id="DejaVuSans-68"/>
     </defs>
     <g transform="translate(18.730312 331.508594)rotate(-90)scale(0.1 -0.1)">
      <use xlink:href="#DejaVuSans-68"/>
      <use x="77.001953" xlink:href="#DejaVuSans-101"/>
      <use x="138.525391" xlink:href="#DejaVuSans-110"/>
      <use x="201.904297" xlink:href="#DejaVuSans-115"/>
      <use x="254.003906" xlink:href="#DejaVuSans-105"/>
      <use x="281.787109" xlink:href="#DejaVuSans-116"/>
      <use x="320.996094" xlink:href="#DejaVuSans-121"/>
     </g>
    </g>
   </g>
   <g id="line2d_32">
    <path clip-path="url(#pa945217b80)" d="M 64.623939 389.319879 
L 94.96781 389.212284 
L 102.368754 388.969546 
L 107.549415 388.600469 
L 111.989982 388.07538 
L 115.690454 387.446646 
L 119.390926 386.618742 
L 123.091398 385.586835 
L 127.531964 384.112405 
L 140.853664 379.408237 
L 143.814041 378.666467 
L 146.774419 378.155045 
L 149.734797 377.90867 
L 152.695174 377.943039 
L 155.655552 378.253232 
L 158.61593 378.814589 
L 161.576307 379.585912 
L 166.016874 381.019344 
L 179.338573 385.570677 
L 183.77914 386.725681 
L 188.219706 387.613352 
L 192.660273 388.251926 
L 197.840933 388.739057 
L 203.761689 389.052808 
L 211.902727 389.239997 
L 211.902727 389.239997 
" style="fill:none;stroke:#1f77b4;stroke-linecap:square;stroke-width:1.5;"/>
   </g>
   <g id="patch_49">
    <path d="M 57.26 389.32 
L 57.26 235.68 
" style="fill:none;stroke:#000000;stroke-linecap:square;stroke-linejoin:miter;stroke-width:0.8;"/>
   </g>
   <g id="patch_50">
    <path d="M 219.266667 389.32 
L 219.266667 235.68 
" style="fill:none;stroke:#000000;stroke-linecap:square;stroke-linejoin:miter;stroke-width:0.8;"/>
   </g>
   <g id="patch_51">
    <path d="M 57.26 389.32 
L 219.266667 389.32 
" style="fill:none;stroke:#000000;stroke-linecap:square;stroke-linejoin:miter;stroke-width:0.8;"/>
   </g>
   <g id="patch_52">
    <path d="M 57.26 235.68 
L 219.266667 235.68 
" style="fill:none;stroke:#000000;stroke-linecap:square;stroke-linejoin:miter;stroke-width:0.8;"/>
   </g>
   <g id="text_30">
    <!-- No noise, l2 distance -->
    <g transform="translate(75.609271 229.68)scale(0.12 -0.12)">
     <use xlink:href="#DejaVuSans-78"/>
     <use x="74.804688" xlink:href="#DejaVuSans-111"/>
     <use x="135.986328" xlink:href="#DejaVuSans-32"/>
     <use x="167.773438" xlink:href="#DejaVuSans-110"/>
     <use x="231.152344" xlink:href="#DejaVuSans-111"/>
     <use x="292.333984" xlink:href="#DejaVuSans-105"/>
     <use x="320.117188" xlink:href="#DejaVuSans-115"/>
     <use x="372.216797" xlink:href="#DejaVuSans-101"/>
     <use x="433.740234" xlink:href="#DejaVuSans-44"/>
     <use x="465.527344" xlink:href="#DejaVuSans-32"/>
     <use x="497.314453" xlink:href="#DejaVuSans-108"/>
     <use x="525.097656" xlink:href="#DejaVuSans-50"/>
     <use x="588.720703" xlink:href="#DejaVuSans-32"/>
     <use x="620.507812" xlink:href="#DejaVuSans-100"/>
     <use x="683.984375" xlink:href="#DejaVuSans-105"/>
     <use x="711.767578" xlink:href="#DejaVuSans-115"/>
     <use x="763.867188" xlink:href="#DejaVuSans-116"/>
     <use x="803.076172" xlink:href="#DejaVuSans-97"/>
     <use x="864.355469" xlink:href="#DejaVuSans-110"/>
     <use x="927.734375" xlink:href="#DejaVuSans-99"/>
     <use x="982.714844" xlink:href="#DejaVuSans-101"/>
    </g>
   </g>
   <g id="legend_2">
    <g id="patch_53">
     <path d="M 109.532292 258.358125 
L 212.266667 258.358125 
Q 214.266667 258.358125 214.266667 256.358125 
L 214.266667 242.68 
Q 214.266667 240.68 212.266667 240.68 
L 109.532292 240.68 
Q 107.532292 240.68 107.532292 242.68 
L 107.532292 256.358125 
Q 107.532292 258.358125 109.532292 258.358125 
z
" style="fill:#ffffff;opacity:0.8;stroke:#cccccc;stroke-linejoin:miter;"/>
    </g>
    <g id="line2d_33">
     <path d="M 111.532292 248.778438 
L 131.532292 248.778438 
" style="fill:none;stroke:#1f77b4;stroke-linecap:square;stroke-width:1.5;"/>
    </g>
    <g id="line2d_34"/>
    <g id="text_31">
     <!-- True posterior -->
     <defs>
      <path d="M -0.296875 72.90625 
L 61.375 72.90625 
L 61.375 64.59375 
L 35.5 64.59375 
L 35.5 0 
L 25.59375 0 
L 25.59375 64.59375 
L -0.296875 64.59375 
z
" id="DejaVuSans-84"/>
      <path d="M 41.109375 46.296875 
Q 39.59375 47.171875 37.8125 47.578125 
Q 36.03125 48 33.890625 48 
Q 26.265625 48 22.1875 43.046875 
Q 18.109375 38.09375 18.109375 28.8125 
L 18.109375 0 
L 9.078125 0 
L 9.078125 54.6875 
L 18.109375 54.6875 
L 18.109375 46.1875 
Q 20.953125 51.171875 25.484375 53.578125 
Q 30.03125 56 36.53125 56 
Q 37.453125 56 38.578125 55.875 
Q 39.703125 55.765625 41.0625 55.515625 
z
" id="DejaVuSans-114"/>
     </defs>
     <g transform="translate(139.532292 252.278438)scale(0.1 -0.1)">
      <use xlink:href="#DejaVuSans-84"/>
      <use x="60.865234" xlink:href="#DejaVuSans-114"/>
      <use x="101.978516" xlink:href="#DejaVuSans-117"/>
      <use x="165.357422" xlink:href="#DejaVuSans-101"/>
      <use x="226.880859" xlink:href="#DejaVuSans-32"/>
      <use x="258.667969" xlink:href="#DejaVuSans-112"/>
      <use x="322.144531" xlink:href="#DejaVuSans-111"/>
      <use x="383.326172" xlink:href="#DejaVuSans-115"/>
      <use x="435.425781" xlink:href="#DejaVuSans-116"/>
      <use x="474.634766" xlink:href="#DejaVuSans-101"/>
      <use x="536.158203" xlink:href="#DejaVuSans-114"/>
      <use x="577.271484" xlink:href="#DejaVuSans-105"/>
      <use x="605.054688" xlink:href="#DejaVuSans-111"/>
      <use x="666.236328" xlink:href="#DejaVuSans-114"/>
     </g>
    </g>
   </g>
  </g>
  <g id="axes_3">
   <g id="patch_54">
    <path d="M 264.966667 389.32 
L 426.973333 389.32 
L 426.973333 235.68 
L 264.966667 235.68 
z
" style="fill:#ffffff;"/>
   </g>
   <g id="patch_55">
    <path clip-path="url(#pc6de54912b)" d="M 272.330606 389.32 
L 276.012576 389.32 
L 276.012576 389.32 
L 272.330606 389.32 
z
" style="fill:#2ca02c;"/>
   </g>
   <g id="patch_56">
    <path clip-path="url(#pc6de54912b)" d="M 276.012576 389.32 
L 279.694545 389.32 
L 279.694545 389.32 
L 276.012576 389.32 
z
" style="fill:#2ca02c;"/>
   </g>
   <g id="patch_57">
    <path clip-path="url(#pc6de54912b)" d="M 279.694545 389.32 
L 283.376515 389.32 
L 283.376515 389.32 
L 279.694545 389.32 
z
" style="fill:#2ca02c;"/>
   </g>
   <g id="patch_58">
    <path clip-path="url(#pc6de54912b)" d="M 283.376515 389.32 
L 287.058485 389.32 
L 287.058485 389.32 
L 283.376515 389.32 
z
" style="fill:#2ca02c;"/>
   </g>
   <g id="patch_59">
    <path clip-path="url(#pc6de54912b)" d="M 287.058485 389.32 
L 290.740455 389.32 
L 290.740455 389.32 
L 287.058485 389.32 
z
" style="fill:#2ca02c;"/>
   </g>
   <g id="patch_60">
    <path clip-path="url(#pc6de54912b)" d="M 290.740455 389.32 
L 294.422424 389.32 
L 294.422424 389.32 
L 290.740455 389.32 
z
" style="fill:#2ca02c;"/>
   </g>
   <g id="patch_61">
    <path clip-path="url(#pc6de54912b)" d="M 294.422424 389.32 
L 298.104394 389.32 
L 298.104394 389.32 
L 294.422424 389.32 
z
" style="fill:#2ca02c;"/>
   </g>
   <g id="patch_62">
    <path clip-path="url(#pc6de54912b)" d="M 298.104394 389.32 
L 301.786364 389.32 
L 301.786364 389.32 
L 298.104394 389.32 
z
" style="fill:#2ca02c;"/>
   </g>
   <g id="patch_63">
    <path clip-path="url(#pc6de54912b)" d="M 301.786364 389.32 
L 305.468333 389.32 
L 305.468333 389.32 
L 301.786364 389.32 
z
" style="fill:#2ca02c;"/>
   </g>
   <g id="patch_64">
    <path clip-path="url(#pc6de54912b)" d="M 305.468333 389.32 
L 309.150303 389.32 
L 309.150303 389.32 
L 305.468333 389.32 
z
" style="fill:#2ca02c;"/>
   </g>
   <g id="patch_65">
    <path clip-path="url(#pc6de54912b)" d="M 309.150303 389.32 
L 312.832273 389.32 
L 312.832273 389.32 
L 309.150303 389.32 
z
" style="fill:#2ca02c;"/>
   </g>
   <g id="patch_66">
    <path clip-path="url(#pc6de54912b)" d="M 312.832273 389.32 
L 316.514242 389.32 
L 316.514242 389.32 
L 312.832273 389.32 
z
" style="fill:#2ca02c;"/>
   </g>
   <g id="patch_67">
    <path clip-path="url(#pc6de54912b)" d="M 316.514242 389.32 
L 320.196212 389.32 
L 320.196212 389.32 
L 316.514242 389.32 
z
" style="fill:#2ca02c;"/>
   </g>
   <g id="patch_68">
    <path clip-path="url(#pc6de54912b)" d="M 320.196212 389.32 
L 323.878182 389.32 
L 323.878182 389.32 
L 320.196212 389.32 
z
" style="fill:#2ca02c;"/>
   </g>
   <g id="patch_69">
    <path clip-path="url(#pc6de54912b)" d="M 323.878182 389.32 
L 327.560152 389.32 
L 327.560152 389.32 
L 323.878182 389.32 
z
" style="fill:#2ca02c;"/>
   </g>
   <g id="patch_70">
    <path clip-path="url(#pc6de54912b)" d="M 327.560152 389.32 
L 331.242121 389.32 
L 331.242121 389.32 
L 327.560152 389.32 
z
" style="fill:#2ca02c;"/>
   </g>
   <g id="patch_71">
    <path clip-path="url(#pc6de54912b)" d="M 331.242121 389.32 
L 334.924091 389.32 
L 334.924091 389.32 
L 331.242121 389.32 
z
" style="fill:#2ca02c;"/>
   </g>
   <g id="patch_72">
    <path clip-path="url(#pc6de54912b)" d="M 334.924091 389.32 
L 338.606061 389.32 
L 338.606061 389.32 
L 334.924091 389.32 
z
" style="fill:#2ca02c;"/>
   </g>
   <g id="patch_73">
    <path clip-path="url(#pc6de54912b)" d="M 338.606061 389.32 
L 342.28803 389.32 
L 342.28803 389.32 
L 338.606061 389.32 
z
" style="fill:#2ca02c;"/>
   </g>
   <g id="patch_74">
    <path clip-path="url(#pc6de54912b)" d="M 342.28803 389.32 
L 345.97 389.32 
L 345.97 389.32 
L 342.28803 389.32 
z
" style="fill:#2ca02c;"/>
   </g>
   <g id="patch_75">
    <path clip-path="url(#pc6de54912b)" d="M 345.97 389.32 
L 349.65197 389.32 
L 349.65197 389.32 
L 345.97 389.32 
z
" style="fill:#2ca02c;"/>
   </g>
   <g id="patch_76">
    <path clip-path="url(#pc6de54912b)" d="M 349.65197 389.32 
L 353.333939 389.32 
L 353.333939 389.32 
L 349.65197 389.32 
z
" style="fill:#2ca02c;"/>
   </g>
   <g id="patch_77">
    <path clip-path="url(#pc6de54912b)" d="M 353.333939 389.32 
L 357.015909 389.32 
L 357.015909 389.32 
L 353.333939 389.32 
z
" style="fill:#2ca02c;"/>
   </g>
   <g id="patch_78">
    <path clip-path="url(#pc6de54912b)" d="M 357.015909 389.32 
L 360.697879 389.32 
L 360.697879 389.32 
L 357.015909 389.32 
z
" style="fill:#2ca02c;"/>
   </g>
   <g id="patch_79">
    <path clip-path="url(#pc6de54912b)" d="M 360.697879 389.32 
L 364.379848 389.32 
L 364.379848 389.32 
L 360.697879 389.32 
z
" style="fill:#2ca02c;"/>
   </g>
   <g id="patch_80">
    <path clip-path="url(#pc6de54912b)" d="M 364.379848 389.32 
L 368.061818 389.32 
L 368.061818 242.99619 
L 364.379848 242.99619 
z
" style="fill:#2ca02c;"/>
   </g>
   <g id="patch_81">
    <path clip-path="url(#pc6de54912b)" d="M 368.061818 389.32 
L 371.743788 389.32 
L 371.743788 389.32 
L 368.061818 389.32 
z
" style="fill:#2ca02c;"/>
   </g>
   <g id="patch_82">
    <path clip-path="url(#pc6de54912b)" d="M 371.743788 389.32 
L 375.425758 389.32 
L 375.425758 389.32 
L 371.743788 389.32 
z
" style="fill:#2ca02c;"/>
   </g>
   <g id="patch_83">
    <path clip-path="url(#pc6de54912b)" d="M 375.425758 389.32 
L 379.107727 389.32 
L 379.107727 389.32 
L 375.425758 389.32 
z
" style="fill:#2ca02c;"/>
   </g>
   <g id="patch_84">
    <path clip-path="url(#pc6de54912b)" d="M 379.107727 389.32 
L 382.789697 389.32 
L 382.789697 389.32 
L 379.107727 389.32 
z
" style="fill:#2ca02c;"/>
   </g>
   <g id="patch_85">
    <path clip-path="url(#pc6de54912b)" d="M 382.789697 389.32 
L 386.471667 389.32 
L 386.471667 389.32 
L 382.789697 389.32 
z
" style="fill:#2ca02c;"/>
   </g>
   <g id="patch_86">
    <path clip-path="url(#pc6de54912b)" d="M 386.471667 389.32 
L 390.153636 389.32 
L 390.153636 389.32 
L 386.471667 389.32 
z
" style="fill:#2ca02c;"/>
   </g>
   <g id="patch_87">
    <path clip-path="url(#pc6de54912b)" d="M 390.153636 389.32 
L 393.835606 389.32 
L 393.835606 389.32 
L 390.153636 389.32 
z
" style="fill:#2ca02c;"/>
   </g>
   <g id="patch_88">
    <path clip-path="url(#pc6de54912b)" d="M 393.835606 389.32 
L 397.517576 389.32 
L 397.517576 389.32 
L 393.835606 389.32 
z
" style="fill:#2ca02c;"/>
   </g>
   <g id="patch_89">
    <path clip-path="url(#pc6de54912b)" d="M 397.517576 389.32 
L 401.199545 389.32 
L 401.199545 389.32 
L 397.517576 389.32 
z
" style="fill:#2ca02c;"/>
   </g>
   <g id="patch_90">
    <path clip-path="url(#pc6de54912b)" d="M 401.199545 389.32 
L 404.881515 389.32 
L 404.881515 389.32 
L 401.199545 389.32 
z
" style="fill:#2ca02c;"/>
   </g>
   <g id="patch_91">
    <path clip-path="url(#pc6de54912b)" d="M 404.881515 389.32 
L 408.563485 389.32 
L 408.563485 389.32 
L 404.881515 389.32 
z
" style="fill:#2ca02c;"/>
   </g>
   <g id="patch_92">
    <path clip-path="url(#pc6de54912b)" d="M 408.563485 389.32 
L 412.245455 389.32 
L 412.245455 389.32 
L 408.563485 389.32 
z
" style="fill:#2ca02c;"/>
   </g>
   <g id="patch_93">
    <path clip-path="url(#pc6de54912b)" d="M 412.245455 389.32 
L 415.927424 389.32 
L 415.927424 389.32 
L 412.245455 389.32 
z
" style="fill:#2ca02c;"/>
   </g>
   <g id="patch_94">
    <path clip-path="url(#pc6de54912b)" d="M 415.927424 389.32 
L 419.609394 389.32 
L 419.609394 389.32 
L 415.927424 389.32 
z
" style="fill:#2ca02c;"/>
   </g>
   <g id="matplotlib.axis_5">
    <g id="xtick_12">
     <g id="line2d_35">
      <g>
       <use style="stroke:#000000;stroke-width:0.8;" x="294.988881" xlink:href="#md3f8e2696f" y="389.32"/>
      </g>
     </g>
     <g id="text_32">
      <!-- 0.055 -->
      <g transform="translate(280.674819 403.918437)scale(0.1 -0.1)">
       <use xlink:href="#DejaVuSans-48"/>
       <use x="63.623047" xlink:href="#DejaVuSans-46"/>
       <use x="95.410156" xlink:href="#DejaVuSans-48"/>
       <use x="159.033203" xlink:href="#DejaVuSans-53"/>
       <use x="222.65625" xlink:href="#DejaVuSans-53"/>
      </g>
     </g>
    </g>
    <g id="xtick_13">
     <g id="line2d_36">
      <g>
       <use style="stroke:#000000;stroke-width:0.8;" x="351.634569" xlink:href="#md3f8e2696f" y="389.32"/>
      </g>
     </g>
     <g id="text_33">
      <!-- 0.060 -->
      <g transform="translate(337.320506 403.918437)scale(0.1 -0.1)">
       <use xlink:href="#DejaVuSans-48"/>
       <use x="63.623047" xlink:href="#DejaVuSans-46"/>
       <use x="95.410156" xlink:href="#DejaVuSans-48"/>
       <use x="159.033203" xlink:href="#DejaVuSans-54"/>
       <use x="222.65625" xlink:href="#DejaVuSans-48"/>
      </g>
     </g>
    </g>
    <g id="xtick_14">
     <g id="line2d_37">
      <g>
       <use style="stroke:#000000;stroke-width:0.8;" x="408.280256" xlink:href="#md3f8e2696f" y="389.32"/>
      </g>
     </g>
     <g id="text_34">
      <!-- 0.065 -->
      <g transform="translate(393.966194 403.918437)scale(0.1 -0.1)">
       <use xlink:href="#DejaVuSans-48"/>
       <use x="63.623047" xlink:href="#DejaVuSans-46"/>
       <use x="95.410156" xlink:href="#DejaVuSans-48"/>
       <use x="159.033203" xlink:href="#DejaVuSans-54"/>
       <use x="222.65625" xlink:href="#DejaVuSans-53"/>
      </g>
     </g>
    </g>
    <g id="text_35">
     <!-- Parameter $\theta$ -->
     <defs>
      <path d="M 45.515625 34.671875 
L 14.453125 34.671875 
Q 12.359375 20.0625 14.5 13.875 
Q 17.1875 6.25 24.46875 6.25 
Q 31.78125 6.25 37.359375 13.921875 
Q 42.234375 20.65625 45.515625 34.671875 
z
M 47.015625 42.96875 
Q 48.34375 56.84375 46.625 61.71875 
Q 43.953125 69.4375 36.765625 69.4375 
Q 29.296875 69.4375 23.828125 61.8125 
Q 19.53125 55.671875 16.15625 42.96875 
z
M 38.1875 76.765625 
Q 49.90625 76.765625 54.59375 66.40625 
Q 59.28125 56.109375 55.71875 37.84375 
Q 52.203125 19.625 43.453125 9.28125 
Q 34.765625 -1.125 23.046875 -1.125 
Q 11.28125 -1.125 6.640625 9.28125 
Q 2 19.625 5.515625 37.84375 
Q 9.078125 56.109375 17.71875 66.40625 
Q 26.421875 76.765625 38.1875 76.765625 
z
" id="DejaVuSans-Oblique-952"/>
     </defs>
     <g transform="translate(315.07 417.596563)scale(0.1 -0.1)">
      <use transform="translate(0 0.234375)" xlink:href="#DejaVuSans-80"/>
      <use transform="translate(60.302734 0.234375)" xlink:href="#DejaVuSans-97"/>
      <use transform="translate(121.582031 0.234375)" xlink:href="#DejaVuSans-114"/>
      <use transform="translate(162.695312 0.234375)" xlink:href="#DejaVuSans-97"/>
      <use transform="translate(223.974609 0.234375)" xlink:href="#DejaVuSans-109"/>
      <use transform="translate(321.386719 0.234375)" xlink:href="#DejaVuSans-101"/>
      <use transform="translate(382.910156 0.234375)" xlink:href="#DejaVuSans-116"/>
      <use transform="translate(422.119141 0.234375)" xlink:href="#DejaVuSans-101"/>
      <use transform="translate(483.642578 0.234375)" xlink:href="#DejaVuSans-114"/>
      <use transform="translate(524.755859 0.234375)" xlink:href="#DejaVuSans-32"/>
      <use transform="translate(556.542969 0.234375)" xlink:href="#DejaVuSans-Oblique-952"/>
     </g>
    </g>
   </g>
   <g id="matplotlib.axis_6">
    <g id="ytick_12">
     <g id="line2d_38">
      <g>
       <use style="stroke:#000000;stroke-width:0.8;" x="264.966667" xlink:href="#m4869182ae2" y="389.32"/>
      </g>
     </g>
     <g id="text_36">
      <!-- 0 -->
      <g transform="translate(251.604167 393.119219)scale(0.1 -0.1)">
       <use xlink:href="#DejaVuSans-48"/>
      </g>
     </g>
    </g>
    <g id="ytick_13">
     <g id="line2d_39">
      <g>
       <use style="stroke:#000000;stroke-width:0.8;" x="264.966667" xlink:href="#m4869182ae2" y="365.542381"/>
      </g>
     </g>
     <g id="text_37">
      <!-- 500 -->
      <g transform="translate(238.879167 369.3416)scale(0.1 -0.1)">
       <use xlink:href="#DejaVuSans-53"/>
       <use x="63.623047" xlink:href="#DejaVuSans-48"/>
       <use x="127.246094" xlink:href="#DejaVuSans-48"/>
      </g>
     </g>
    </g>
    <g id="ytick_14">
     <g id="line2d_40">
      <g>
       <use style="stroke:#000000;stroke-width:0.8;" x="264.966667" xlink:href="#m4869182ae2" y="341.764762"/>
      </g>
     </g>
     <g id="text_38">
      <!-- 1000 -->
      <g transform="translate(232.516667 345.563981)scale(0.1 -0.1)">
       <use xlink:href="#DejaVuSans-49"/>
       <use x="63.623047" xlink:href="#DejaVuSans-48"/>
       <use x="127.246094" xlink:href="#DejaVuSans-48"/>
       <use x="190.869141" xlink:href="#DejaVuSans-48"/>
      </g>
     </g>
    </g>
    <g id="ytick_15">
     <g id="line2d_41">
      <g>
       <use style="stroke:#000000;stroke-width:0.8;" x="264.966667" xlink:href="#m4869182ae2" y="317.987143"/>
      </g>
     </g>
     <g id="text_39">
      <!-- 1500 -->
      <g transform="translate(232.516667 321.786362)scale(0.1 -0.1)">
       <use xlink:href="#DejaVuSans-49"/>
       <use x="63.623047" xlink:href="#DejaVuSans-53"/>
       <use x="127.246094" xlink:href="#DejaVuSans-48"/>
       <use x="190.869141" xlink:href="#DejaVuSans-48"/>
      </g>
     </g>
    </g>
    <g id="ytick_16">
     <g id="line2d_42">
      <g>
       <use style="stroke:#000000;stroke-width:0.8;" x="264.966667" xlink:href="#m4869182ae2" y="294.209524"/>
      </g>
     </g>
     <g id="text_40">
      <!-- 2000 -->
      <g transform="translate(232.516667 298.008743)scale(0.1 -0.1)">
       <use xlink:href="#DejaVuSans-50"/>
       <use x="63.623047" xlink:href="#DejaVuSans-48"/>
       <use x="127.246094" xlink:href="#DejaVuSans-48"/>
       <use x="190.869141" xlink:href="#DejaVuSans-48"/>
      </g>
     </g>
    </g>
    <g id="ytick_17">
     <g id="line2d_43">
      <g>
       <use style="stroke:#000000;stroke-width:0.8;" x="264.966667" xlink:href="#m4869182ae2" y="270.431905"/>
      </g>
     </g>
     <g id="text_41">
      <!-- 2500 -->
      <g transform="translate(232.516667 274.231124)scale(0.1 -0.1)">
       <use xlink:href="#DejaVuSans-50"/>
       <use x="63.623047" xlink:href="#DejaVuSans-53"/>
       <use x="127.246094" xlink:href="#DejaVuSans-48"/>
       <use x="190.869141" xlink:href="#DejaVuSans-48"/>
      </g>
     </g>
    </g>
    <g id="ytick_18">
     <g id="line2d_44">
      <g>
       <use style="stroke:#000000;stroke-width:0.8;" x="264.966667" xlink:href="#m4869182ae2" y="246.654286"/>
      </g>
     </g>
     <g id="text_42">
      <!-- 3000 -->
      <g transform="translate(232.516667 250.453504)scale(0.1 -0.1)">
       <use xlink:href="#DejaVuSans-51"/>
       <use x="63.623047" xlink:href="#DejaVuSans-48"/>
       <use x="127.246094" xlink:href="#DejaVuSans-48"/>
       <use x="190.869141" xlink:href="#DejaVuSans-48"/>
      </g>
     </g>
    </g>
   </g>
   <g id="line2d_45">
    <path clip-path="url(#pc6de54912b)" d="M 272.330606 389.319879 
L 302.674477 389.212284 
L 310.075421 388.969546 
L 315.256082 388.600469 
L 319.696648 388.07538 
L 323.39712 387.446646 
L 327.097593 386.618742 
L 330.798065 385.586835 
L 335.238631 384.112405 
L 348.56033 379.408237 
L 351.520708 378.666467 
L 354.481086 378.155045 
L 357.441463 377.90867 
L 360.401841 377.943039 
L 363.362219 378.253232 
L 366.322596 378.814589 
L 369.282974 379.585912 
L 373.72354 381.019344 
L 387.04524 385.570677 
L 391.485806 386.725681 
L 395.926373 387.613352 
L 400.366939 388.251926 
L 405.5476 388.739057 
L 411.468355 389.052808 
L 419.609394 389.239997 
L 419.609394 389.239997 
" style="fill:none;stroke:#1f77b4;stroke-linecap:square;stroke-width:1.5;"/>
   </g>
   <g id="patch_95">
    <path d="M 264.966667 389.32 
L 264.966667 235.68 
" style="fill:none;stroke:#000000;stroke-linecap:square;stroke-linejoin:miter;stroke-width:0.8;"/>
   </g>
   <g id="patch_96">
    <path d="M 426.973333 389.32 
L 426.973333 235.68 
" style="fill:none;stroke:#000000;stroke-linecap:square;stroke-linejoin:miter;stroke-width:0.8;"/>
   </g>
   <g id="patch_97">
    <path d="M 264.966667 389.32 
L 426.973333 389.32 
" style="fill:none;stroke:#000000;stroke-linecap:square;stroke-linejoin:miter;stroke-width:0.8;"/>
   </g>
   <g id="patch_98">
    <path d="M 264.966667 235.68 
L 426.973333 235.68 
" style="fill:none;stroke:#000000;stroke-linecap:square;stroke-linejoin:miter;stroke-width:0.8;"/>
   </g>
   <g id="text_43">
    <!-- No noise, l1 distance -->
    <g transform="translate(283.315937 229.68)scale(0.12 -0.12)">
     <use xlink:href="#DejaVuSans-78"/>
     <use x="74.804688" xlink:href="#DejaVuSans-111"/>
     <use x="135.986328" xlink:href="#DejaVuSans-32"/>
     <use x="167.773438" xlink:href="#DejaVuSans-110"/>
     <use x="231.152344" xlink:href="#DejaVuSans-111"/>
     <use x="292.333984" xlink:href="#DejaVuSans-105"/>
     <use x="320.117188" xlink:href="#DejaVuSans-115"/>
     <use x="372.216797" xlink:href="#DejaVuSans-101"/>
     <use x="433.740234" xlink:href="#DejaVuSans-44"/>
     <use x="465.527344" xlink:href="#DejaVuSans-32"/>
     <use x="497.314453" xlink:href="#DejaVuSans-108"/>
     <use x="525.097656" xlink:href="#DejaVuSans-49"/>
     <use x="588.720703" xlink:href="#DejaVuSans-32"/>
     <use x="620.507812" xlink:href="#DejaVuSans-100"/>
     <use x="683.984375" xlink:href="#DejaVuSans-105"/>
     <use x="711.767578" xlink:href="#DejaVuSans-115"/>
     <use x="763.867188" xlink:href="#DejaVuSans-116"/>
     <use x="803.076172" xlink:href="#DejaVuSans-97"/>
     <use x="864.355469" xlink:href="#DejaVuSans-110"/>
     <use x="927.734375" xlink:href="#DejaVuSans-99"/>
     <use x="982.714844" xlink:href="#DejaVuSans-101"/>
    </g>
   </g>
  </g>
  <g id="axes_4">
   <g id="patch_99">
    <path d="M 472.673333 389.32 
L 634.68 389.32 
L 634.68 235.68 
L 472.673333 235.68 
z
" style="fill:#ffffff;"/>
   </g>
   <g id="patch_100">
    <path clip-path="url(#p1da6bb994b)" d="M 480.037273 389.32 
L 483.719242 389.32 
L 483.719242 389.32 
L 480.037273 389.32 
z
" style="fill:#d62728;"/>
   </g>
   <g id="patch_101">
    <path clip-path="url(#p1da6bb994b)" d="M 483.719242 389.32 
L 487.401212 389.32 
L 487.401212 389.32 
L 483.719242 389.32 
z
" style="fill:#d62728;"/>
   </g>
   <g id="patch_102">
    <path clip-path="url(#p1da6bb994b)" d="M 487.401212 389.32 
L 491.083182 389.32 
L 491.083182 389.32 
L 487.401212 389.32 
z
" style="fill:#d62728;"/>
   </g>
   <g id="patch_103">
    <path clip-path="url(#p1da6bb994b)" d="M 491.083182 389.32 
L 494.765152 389.32 
L 494.765152 389.32 
L 491.083182 389.32 
z
" style="fill:#d62728;"/>
   </g>
   <g id="patch_104">
    <path clip-path="url(#p1da6bb994b)" d="M 494.765152 389.32 
L 498.447121 389.32 
L 498.447121 389.32 
L 494.765152 389.32 
z
" style="fill:#d62728;"/>
   </g>
   <g id="patch_105">
    <path clip-path="url(#p1da6bb994b)" d="M 498.447121 389.32 
L 502.129091 389.32 
L 502.129091 389.32 
L 498.447121 389.32 
z
" style="fill:#d62728;"/>
   </g>
   <g id="patch_106">
    <path clip-path="url(#p1da6bb994b)" d="M 502.129091 389.32 
L 505.811061 389.32 
L 505.811061 389.32 
L 502.129091 389.32 
z
" style="fill:#d62728;"/>
   </g>
   <g id="patch_107">
    <path clip-path="url(#p1da6bb994b)" d="M 505.811061 389.32 
L 509.49303 389.32 
L 509.49303 389.32 
L 505.811061 389.32 
z
" style="fill:#d62728;"/>
   </g>
   <g id="patch_108">
    <path clip-path="url(#p1da6bb994b)" d="M 509.49303 389.32 
L 513.175 389.32 
L 513.175 389.32 
L 509.49303 389.32 
z
" style="fill:#d62728;"/>
   </g>
   <g id="patch_109">
    <path clip-path="url(#p1da6bb994b)" d="M 513.175 389.32 
L 516.85697 389.32 
L 516.85697 389.32 
L 513.175 389.32 
z
" style="fill:#d62728;"/>
   </g>
   <g id="patch_110">
    <path clip-path="url(#p1da6bb994b)" d="M 516.85697 389.32 
L 520.538939 389.32 
L 520.538939 374.742834 
L 516.85697 374.742834 
z
" style="fill:#d62728;"/>
   </g>
   <g id="patch_111">
    <path clip-path="url(#p1da6bb994b)" d="M 520.538939 389.32 
L 524.220909 389.32 
L 524.220909 372.997024 
L 520.538939 372.997024 
z
" style="fill:#d62728;"/>
   </g>
   <g id="patch_112">
    <path clip-path="url(#p1da6bb994b)" d="M 524.220909 389.32 
L 527.902879 389.32 
L 527.902879 367.200856 
L 524.220909 367.200856 
z
" style="fill:#d62728;"/>
   </g>
   <g id="patch_113">
    <path clip-path="url(#p1da6bb994b)" d="M 527.902879 389.32 
L 531.584848 389.32 
L 531.584848 364.866381 
L 527.902879 364.866381 
z
" style="fill:#d62728;"/>
   </g>
   <g id="patch_114">
    <path clip-path="url(#p1da6bb994b)" d="M 531.584848 389.32 
L 535.266818 389.32 
L 535.266818 358.185936 
L 531.584848 358.185936 
z
" style="fill:#d62728;"/>
   </g>
   <g id="patch_115">
    <path clip-path="url(#p1da6bb994b)" d="M 535.266818 389.32 
L 538.948788 389.32 
L 538.948788 337.590362 
L 535.266818 337.590362 
z
" style="fill:#d62728;"/>
   </g>
   <g id="patch_116">
    <path clip-path="url(#p1da6bb994b)" d="M 538.948788 389.32 
L 542.630758 389.32 
L 542.630758 322.448787 
L 538.948788 322.448787 
z
" style="fill:#d62728;"/>
   </g>
   <g id="patch_117">
    <path clip-path="url(#p1da6bb994b)" d="M 542.630758 389.32 
L 546.312727 389.32 
L 546.312727 310.601704 
L 542.630758 310.601704 
z
" style="fill:#d62728;"/>
   </g>
   <g id="patch_118">
    <path clip-path="url(#p1da6bb994b)" d="M 546.312727 389.32 
L 549.994697 389.32 
L 549.994697 299.197793 
L 546.312727 299.197793 
z
" style="fill:#d62728;"/>
   </g>
   <g id="patch_119">
    <path clip-path="url(#p1da6bb994b)" d="M 549.994697 389.32 
L 553.676667 389.32 
L 553.676667 282.69923 
L 549.994697 282.69923 
z
" style="fill:#d62728;"/>
   </g>
   <g id="patch_120">
    <path clip-path="url(#p1da6bb994b)" d="M 553.676667 389.32 
L 557.358636 389.32 
L 557.358636 276.377254 
L 553.676667 276.377254 
z
" style="fill:#d62728;"/>
   </g>
   <g id="patch_121">
    <path clip-path="url(#p1da6bb994b)" d="M 557.358636 389.32 
L 561.040606 389.32 
L 561.040606 265.615605 
L 557.358636 265.615605 
z
" style="fill:#d62728;"/>
   </g>
   <g id="patch_122">
    <path clip-path="url(#p1da6bb994b)" d="M 561.040606 389.32 
L 564.722576 389.32 
L 564.722576 254.263848 
L 561.040606 254.263848 
z
" style="fill:#d62728;"/>
   </g>
   <g id="patch_123">
    <path clip-path="url(#p1da6bb994b)" d="M 564.722576 389.32 
L 568.404545 389.32 
L 568.404545 256.151331 
L 564.722576 256.151331 
z
" style="fill:#d62728;"/>
   </g>
   <g id="patch_124">
    <path clip-path="url(#p1da6bb994b)" d="M 568.404545 389.32 
L 572.086515 389.32 
L 572.086515 255.945534 
L 568.404545 255.945534 
z
" style="fill:#d62728;"/>
   </g>
   <g id="patch_125">
    <path clip-path="url(#p1da6bb994b)" d="M 572.086515 389.32 
L 575.768485 389.32 
L 575.768485 265.907661 
L 572.086515 265.907661 
z
" style="fill:#d62728;"/>
   </g>
   <g id="patch_126">
    <path clip-path="url(#p1da6bb994b)" d="M 575.768485 389.32 
L 579.450455 389.32 
L 579.450455 277.796243 
L 575.768485 277.796243 
z
" style="fill:#d62728;"/>
   </g>
   <g id="patch_127">
    <path clip-path="url(#p1da6bb994b)" d="M 579.450455 389.32 
L 583.132424 389.32 
L 583.132424 290.484684 
L 579.450455 290.484684 
z
" style="fill:#d62728;"/>
   </g>
   <g id="patch_128">
    <path clip-path="url(#p1da6bb994b)" d="M 583.132424 389.32 
L 586.814394 389.32 
L 586.814394 298.090929 
L 583.132424 298.090929 
z
" style="fill:#d62728;"/>
   </g>
   <g id="patch_129">
    <path clip-path="url(#p1da6bb994b)" d="M 586.814394 389.32 
L 590.496364 389.32 
L 590.496364 319.203031 
L 586.814394 319.203031 
z
" style="fill:#d62728;"/>
   </g>
   <g id="patch_130">
    <path clip-path="url(#p1da6bb994b)" d="M 590.496364 389.32 
L 594.178333 389.32 
L 594.178333 319.455757 
L 590.496364 319.455757 
z
" style="fill:#d62728;"/>
   </g>
   <g id="patch_131">
    <path clip-path="url(#p1da6bb994b)" d="M 594.178333 389.32 
L 597.860303 389.32 
L 597.860303 336.595971 
L 594.178333 336.595971 
z
" style="fill:#d62728;"/>
   </g>
   <g id="patch_132">
    <path clip-path="url(#p1da6bb994b)" d="M 597.860303 389.32 
L 601.542273 389.32 
L 601.542273 352.919283 
L 597.860303 352.919283 
z
" style="fill:#d62728;"/>
   </g>
   <g id="patch_133">
    <path clip-path="url(#p1da6bb994b)" d="M 601.542273 389.32 
L 605.224242 389.32 
L 605.224242 362.723875 
L 601.542273 362.723875 
z
" style="fill:#d62728;"/>
   </g>
   <g id="patch_134">
    <path clip-path="url(#p1da6bb994b)" d="M 605.224242 389.32 
L 608.906212 389.32 
L 608.906212 373.258225 
L 605.224242 373.258225 
z
" style="fill:#d62728;"/>
   </g>
   <g id="patch_135">
    <path clip-path="url(#p1da6bb994b)" d="M 608.906212 389.32 
L 612.588182 389.32 
L 612.588182 374.281039 
L 608.906212 374.281039 
z
" style="fill:#d62728;"/>
   </g>
   <g id="patch_136">
    <path clip-path="url(#p1da6bb994b)" d="M 612.588182 389.32 
L 616.270152 389.32 
L 616.270152 380.92369 
L 612.588182 380.92369 
z
" style="fill:#d62728;"/>
   </g>
   <g id="patch_137">
    <path clip-path="url(#p1da6bb994b)" d="M 616.270152 389.32 
L 619.952121 389.32 
L 619.952121 380.278504 
L 616.270152 380.278504 
z
" style="fill:#d62728;"/>
   </g>
   <g id="patch_138">
    <path clip-path="url(#p1da6bb994b)" d="M 619.952121 389.32 
L 623.634091 389.32 
L 623.634091 386.182585 
L 619.952121 386.182585 
z
" style="fill:#d62728;"/>
   </g>
   <g id="patch_139">
    <path clip-path="url(#p1da6bb994b)" d="M 623.634091 389.32 
L 627.316061 389.32 
L 627.316061 389.32 
L 623.634091 389.32 
z
" style="fill:#d62728;"/>
   </g>
   <g id="matplotlib.axis_7">
    <g id="xtick_15">
     <g id="line2d_46">
      <g>
       <use style="stroke:#000000;stroke-width:0.8;" x="502.695548" xlink:href="#md3f8e2696f" y="389.32"/>
      </g>
     </g>
     <g id="text_44">
      <!-- 0.055 -->
      <g transform="translate(488.381485 403.918437)scale(0.1 -0.1)">
       <use xlink:href="#DejaVuSans-48"/>
       <use x="63.623047" xlink:href="#DejaVuSans-46"/>
       <use x="95.410156" xlink:href="#DejaVuSans-48"/>
       <use x="159.033203" xlink:href="#DejaVuSans-53"/>
       <use x="222.65625" xlink:href="#DejaVuSans-53"/>
      </g>
     </g>
    </g>
    <g id="xtick_16">
     <g id="line2d_47">
      <g>
       <use style="stroke:#000000;stroke-width:0.8;" x="559.341235" xlink:href="#md3f8e2696f" y="389.32"/>
      </g>
     </g>
     <g id="text_45">
      <!-- 0.060 -->
      <g transform="translate(545.027173 403.918437)scale(0.1 -0.1)">
       <use xlink:href="#DejaVuSans-48"/>
       <use x="63.623047" xlink:href="#DejaVuSans-46"/>
       <use x="95.410156" xlink:href="#DejaVuSans-48"/>
       <use x="159.033203" xlink:href="#DejaVuSans-54"/>
       <use x="222.65625" xlink:href="#DejaVuSans-48"/>
      </g>
     </g>
    </g>
    <g id="xtick_17">
     <g id="line2d_48">
      <g>
       <use style="stroke:#000000;stroke-width:0.8;" x="615.986923" xlink:href="#md3f8e2696f" y="389.32"/>
      </g>
     </g>
     <g id="text_46">
      <!-- 0.065 -->
      <g transform="translate(601.672861 403.918437)scale(0.1 -0.1)">
       <use xlink:href="#DejaVuSans-48"/>
       <use x="63.623047" xlink:href="#DejaVuSans-46"/>
       <use x="95.410156" xlink:href="#DejaVuSans-48"/>
       <use x="159.033203" xlink:href="#DejaVuSans-54"/>
       <use x="222.65625" xlink:href="#DejaVuSans-53"/>
      </g>
     </g>
    </g>
   </g>
   <g id="matplotlib.axis_8">
    <g id="ytick_19">
     <g id="line2d_49">
      <g>
       <use style="stroke:#000000;stroke-width:0.8;" x="472.673333" xlink:href="#m4869182ae2" y="389.32"/>
      </g>
     </g>
     <g id="text_47">
      <!-- 0 -->
      <g transform="translate(459.310833 393.119219)scale(0.1 -0.1)">
       <use xlink:href="#DejaVuSans-48"/>
      </g>
     </g>
    </g>
    <g id="ytick_20">
     <g id="line2d_50">
      <g>
       <use style="stroke:#000000;stroke-width:0.8;" x="472.673333" xlink:href="#m4869182ae2" y="358.878972"/>
      </g>
     </g>
     <g id="text_48">
      <!-- 50 -->
      <g transform="translate(452.948333 362.678191)scale(0.1 -0.1)">
       <use xlink:href="#DejaVuSans-53"/>
       <use x="63.623047" xlink:href="#DejaVuSans-48"/>
      </g>
     </g>
    </g>
    <g id="ytick_21">
     <g id="line2d_51">
      <g>
       <use style="stroke:#000000;stroke-width:0.8;" x="472.673333" xlink:href="#m4869182ae2" y="328.437944"/>
      </g>
     </g>
     <g id="text_49">
      <!-- 100 -->
      <g transform="translate(446.585833 332.237162)scale(0.1 -0.1)">
       <use xlink:href="#DejaVuSans-49"/>
       <use x="63.623047" xlink:href="#DejaVuSans-48"/>
       <use x="127.246094" xlink:href="#DejaVuSans-48"/>
      </g>
     </g>
    </g>
    <g id="ytick_22">
     <g id="line2d_52">
      <g>
       <use style="stroke:#000000;stroke-width:0.8;" x="472.673333" xlink:href="#m4869182ae2" y="297.996915"/>
      </g>
     </g>
     <g id="text_50">
      <!-- 150 -->
      <g transform="translate(446.585833 301.796134)scale(0.1 -0.1)">
       <use xlink:href="#DejaVuSans-49"/>
       <use x="63.623047" xlink:href="#DejaVuSans-53"/>
       <use x="127.246094" xlink:href="#DejaVuSans-48"/>
      </g>
     </g>
    </g>
    <g id="ytick_23">
     <g id="line2d_53">
      <g>
       <use style="stroke:#000000;stroke-width:0.8;" x="472.673333" xlink:href="#m4869182ae2" y="267.555887"/>
      </g>
     </g>
     <g id="text_51">
      <!-- 200 -->
      <g transform="translate(446.585833 271.355106)scale(0.1 -0.1)">
       <use xlink:href="#DejaVuSans-50"/>
       <use x="63.623047" xlink:href="#DejaVuSans-48"/>
       <use x="127.246094" xlink:href="#DejaVuSans-48"/>
      </g>
     </g>
    </g>
    <g id="ytick_24">
     <g id="line2d_54">
      <g>
       <use style="stroke:#000000;stroke-width:0.8;" x="472.673333" xlink:href="#m4869182ae2" y="237.114859"/>
      </g>
     </g>
     <g id="text_52">
      <!-- 250 -->
      <g transform="translate(446.585833 240.914078)scale(0.1 -0.1)">
       <use xlink:href="#DejaVuSans-50"/>
       <use x="63.623047" xlink:href="#DejaVuSans-53"/>
       <use x="127.246094" xlink:href="#DejaVuSans-48"/>
      </g>
     </g>
    </g>
   </g>
   <g id="line2d_55">
    <path clip-path="url(#p1da6bb994b)" d="M 480.037273 389.318446 
L 497.059444 389.216124 
L 502.980199 388.966824 
L 506.680672 388.605845 
L 509.641049 388.106592 
L 511.861332 387.548568 
L 514.081616 386.775848 
L 516.301899 385.724924 
L 517.782088 384.83335 
L 519.262277 383.760504 
L 520.742465 382.479919 
L 522.222654 380.963721 
L 523.702843 379.183129 
L 525.183032 377.109107 
L 526.663221 374.713144 
L 528.143409 371.968182 
L 529.623598 368.849649 
L 531.103787 365.336601 
L 532.583976 361.412926 
L 534.804259 354.737453 
L 537.024542 347.115082 
L 539.244826 338.588727 
L 541.465109 329.252712 
L 544.425487 315.811339 
L 553.306619 274.233773 
L 555.526903 265.189257 
L 557.007092 259.807372 
L 558.48728 255.049071 
L 559.967469 250.994891 
L 561.447658 247.714155 
L 562.927847 245.262987 
L 563.667941 244.362018 
L 564.408036 243.682713 
L 565.14813 243.227734 
L 565.888224 242.998703 
L 566.628319 242.99619 
L 567.368413 243.219713 
L 568.108508 243.667744 
L 568.848602 244.337728 
L 569.588697 245.226103 
L 570.328791 246.328334 
L 571.80898 249.15158 
L 573.289169 252.753289 
L 574.769357 257.066773 
L 576.249546 262.014854 
L 578.469829 270.438378 
L 580.690113 279.786059 
L 584.390585 296.549589 
L 589.571246 320.185137 
L 592.531623 332.710887 
L 594.751907 341.31972 
L 596.97219 349.137129 
L 599.192473 356.106518 
L 601.412756 362.21182 
L 603.633039 367.470836 
L 605.853323 371.927836 
L 607.333511 374.48429 
L 608.8137 376.734154 
L 610.293889 378.700936 
L 611.774078 380.408922 
L 613.254267 381.882538 
L 615.47455 383.705852 
L 617.694833 385.132889 
L 619.915116 386.23432 
L 622.1354 387.072873 
L 624.355683 387.702746 
L 627.316061 388.29577 
L 627.316061 388.29577 
" style="fill:none;stroke:#1f77b4;stroke-linecap:square;stroke-width:1.5;"/>
   </g>
   <g id="patch_140">
    <path d="M 472.673333 389.32 
L 472.673333 235.68 
" style="fill:none;stroke:#000000;stroke-linecap:square;stroke-linejoin:miter;stroke-width:0.8;"/>
   </g>
   <g id="patch_141">
    <path d="M 634.68 389.32 
L 634.68 235.68 
" style="fill:none;stroke:#000000;stroke-linecap:square;stroke-linejoin:miter;stroke-width:0.8;"/>
   </g>
   <g id="patch_142">
    <path d="M 472.673333 389.32 
L 634.68 389.32 
" style="fill:none;stroke:#000000;stroke-linecap:square;stroke-linejoin:miter;stroke-width:0.8;"/>
   </g>
   <g id="patch_143">
    <path d="M 472.673333 235.68 
L 634.68 235.68 
" style="fill:none;stroke:#000000;stroke-linecap:square;stroke-linejoin:miter;stroke-width:0.8;"/>
   </g>
   <g id="text_53">
    <!-- Noisy model -->
    <g transform="translate(516.582604 229.68)scale(0.12 -0.12)">
     <use xlink:href="#DejaVuSans-78"/>
     <use x="74.804688" xlink:href="#DejaVuSans-111"/>
     <use x="135.986328" xlink:href="#DejaVuSans-105"/>
     <use x="163.769531" xlink:href="#DejaVuSans-115"/>
     <use x="215.869141" xlink:href="#DejaVuSans-121"/>
     <use x="275.048828" xlink:href="#DejaVuSans-32"/>
     <use x="306.835938" xlink:href="#DejaVuSans-109"/>
     <use x="404.248047" xlink:href="#DejaVuSans-111"/>
     <use x="465.429688" xlink:href="#DejaVuSans-100"/>
     <use x="528.90625" xlink:href="#DejaVuSans-101"/>
     <use x="590.429688" xlink:href="#DejaVuSans-108"/>
    </g>
   </g>
  </g>
  <g id="text_54">
   <!-- A -->
   <defs>
    <path d="M 53.421875 13.28125 
L 24.03125 13.28125 
L 19.390625 0 
L 0.484375 0 
L 27.484375 72.90625 
L 49.90625 72.90625 
L 76.90625 0 
L 58.015625 0 
z
M 28.71875 26.8125 
L 48.6875 26.8125 
L 38.71875 55.8125 
z
" id="DejaVuSans-Bold-65"/>
   </defs>
   <g transform="translate(0 12.96)scale(0.16 -0.16)">
    <use xlink:href="#DejaVuSans-Bold-65"/>
   </g>
  </g>
  <g id="text_55">
   <!-- B -->
   <defs>
    <path d="M 38.375 44.671875 
Q 42.828125 44.671875 45.109375 46.625 
Q 47.40625 48.578125 47.40625 52.390625 
Q 47.40625 56.15625 45.109375 58.125 
Q 42.828125 60.109375 38.375 60.109375 
L 27.984375 60.109375 
L 27.984375 44.671875 
z
M 39.015625 12.796875 
Q 44.671875 12.796875 47.53125 15.1875 
Q 50.390625 17.578125 50.390625 22.40625 
Q 50.390625 27.15625 47.5625 29.515625 
Q 44.734375 31.890625 39.015625 31.890625 
L 27.984375 31.890625 
L 27.984375 12.796875 
z
M 56.5 39.015625 
Q 62.546875 37.25 65.859375 32.515625 
Q 69.1875 27.78125 69.1875 20.90625 
Q 69.1875 10.359375 62.0625 5.171875 
Q 54.9375 0 40.375 0 
L 9.1875 0 
L 9.1875 72.90625 
L 37.40625 72.90625 
Q 52.59375 72.90625 59.40625 68.3125 
Q 66.21875 63.71875 66.21875 53.609375 
Q 66.21875 48.296875 63.71875 44.5625 
Q 61.234375 40.828125 56.5 39.015625 
z
" id="DejaVuSans-Bold-66"/>
   </defs>
   <g transform="translate(0 224.64)scale(0.16 -0.16)">
    <use xlink:href="#DejaVuSans-Bold-66"/>
   </g>
  </g>
 </g>
 <defs>
  <clipPath id="pcbab0f30bf">
   <rect height="153.64" width="577.42" x="57.26" y="25.44"/>
  </clipPath>
  <clipPath id="pa945217b80">
   <rect height="153.64" width="162.006667" x="57.26" y="235.68"/>
  </clipPath>
  <clipPath id="pc6de54912b">
   <rect height="153.64" width="162.006667" x="264.966667" y="235.68"/>
  </clipPath>
  <clipPath id="p1da6bb994b">
   <rect height="153.64" width="162.006667" x="472.673333" y="235.68"/>
  </clipPath>
 </defs>
</svg>
