<?xml version="1.0" encoding="utf-8" standalone="no"?>
<!DOCTYPE svg PUBLIC "-//W3C//DTD SVG 1.1//EN"
  "http://www.w3.org/Graphics/SVG/1.1/DTD/svg11.dtd">
<!-- Created with matplotlib (https://matplotlib.org/) -->
<svg height="360pt" version="1.1" viewBox="0 0 576 360" width="576pt" xmlns="http://www.w3.org/2000/svg" xmlns:xlink="http://www.w3.org/1999/xlink">
 <defs>
  <style type="text/css">
*{stroke-linecap:butt;stroke-linejoin:round;}
  </style>
 </defs>
 <g id="figure_1">
  <g id="patch_1">
   <path d="M 0 360 
L 576 360 
L 576 0 
L 0 0 
z
" style="fill:#ffffff;"/>
  </g>
  <g id="axes_1">
   <g id="patch_2">
    <path d="M 56.925 133.7 
L 194.483333 133.7 
L 194.483333 10.8 
L 56.925 10.8 
z
" style="fill:#ffffff;"/>
   </g>
   <g id="matplotlib.axis_1">
    <g id="xtick_1">
     <g id="line2d_1">
      <defs>
       <path d="M 0 0 
L 0 3.5 
" id="m63ec64db61" style="stroke:#000000;stroke-width:0.8;"/>
      </defs>
      <g>
       <use style="stroke:#000000;stroke-width:0.8;" x="63.177652" xlink:href="#m63ec64db61" y="133.7"/>
      </g>
     </g>
     <g id="text_1">
      <!-- 0 -->
      <defs>
       <path d="M 31.78125 66.40625 
Q 24.171875 66.40625 20.328125 58.90625 
Q 16.5 51.421875 16.5 36.375 
Q 16.5 21.390625 20.328125 13.890625 
Q 24.171875 6.390625 31.78125 6.390625 
Q 39.453125 6.390625 43.28125 13.890625 
Q 47.125 21.390625 47.125 36.375 
Q 47.125 51.421875 43.28125 58.90625 
Q 39.453125 66.40625 31.78125 66.40625 
z
M 31.78125 74.21875 
Q 44.046875 74.21875 50.515625 64.515625 
Q 56.984375 54.828125 56.984375 36.375 
Q 56.984375 17.96875 50.515625 8.265625 
Q 44.046875 -1.421875 31.78125 -1.421875 
Q 19.53125 -1.421875 13.0625 8.265625 
Q 6.59375 17.96875 6.59375 36.375 
Q 6.59375 54.828125 13.0625 64.515625 
Q 19.53125 74.21875 31.78125 74.21875 
z
" id="DejaVuSans-48"/>
      </defs>
      <g transform="translate(59.996402 148.298437)scale(0.1 -0.1)">
       <use xlink:href="#DejaVuSans-48"/>
      </g>
     </g>
    </g>
    <g id="xtick_2">
     <g id="line2d_2">
      <g>
       <use style="stroke:#000000;stroke-width:0.8;" x="104.861995" xlink:href="#m63ec64db61" y="133.7"/>
      </g>
     </g>
     <g id="text_2">
      <!-- 10 -->
      <defs>
       <path d="M 12.40625 8.296875 
L 28.515625 8.296875 
L 28.515625 63.921875 
L 10.984375 60.40625 
L 10.984375 69.390625 
L 28.421875 72.90625 
L 38.28125 72.90625 
L 38.28125 8.296875 
L 54.390625 8.296875 
L 54.390625 0 
L 12.40625 0 
z
" id="DejaVuSans-49"/>
      </defs>
      <g transform="translate(98.499495 148.298437)scale(0.1 -0.1)">
       <use xlink:href="#DejaVuSans-49"/>
       <use x="63.623047" xlink:href="#DejaVuSans-48"/>
      </g>
     </g>
    </g>
    <g id="xtick_3">
     <g id="line2d_3">
      <g>
       <use style="stroke:#000000;stroke-width:0.8;" x="146.546338" xlink:href="#m63ec64db61" y="133.7"/>
      </g>
     </g>
     <g id="text_3">
      <!-- 20 -->
      <defs>
       <path d="M 19.1875 8.296875 
L 53.609375 8.296875 
L 53.609375 0 
L 7.328125 0 
L 7.328125 8.296875 
Q 12.9375 14.109375 22.625 23.890625 
Q 32.328125 33.6875 34.8125 36.53125 
Q 39.546875 41.84375 41.421875 45.53125 
Q 43.3125 49.21875 43.3125 52.78125 
Q 43.3125 58.59375 39.234375 62.25 
Q 35.15625 65.921875 28.609375 65.921875 
Q 23.96875 65.921875 18.8125 64.3125 
Q 13.671875 62.703125 7.8125 59.421875 
L 7.8125 69.390625 
Q 13.765625 71.78125 18.9375 73 
Q 24.125 74.21875 28.421875 74.21875 
Q 39.75 74.21875 46.484375 68.546875 
Q 53.21875 62.890625 53.21875 53.421875 
Q 53.21875 48.921875 51.53125 44.890625 
Q 49.859375 40.875 45.40625 35.40625 
Q 44.1875 33.984375 37.640625 27.21875 
Q 31.109375 20.453125 19.1875 8.296875 
z
" id="DejaVuSans-50"/>
      </defs>
      <g transform="translate(140.183838 148.298437)scale(0.1 -0.1)">
       <use xlink:href="#DejaVuSans-50"/>
       <use x="63.623047" xlink:href="#DejaVuSans-48"/>
      </g>
     </g>
    </g>
    <g id="xtick_4">
     <g id="line2d_4">
      <g>
       <use style="stroke:#000000;stroke-width:0.8;" x="188.230682" xlink:href="#m63ec64db61" y="133.7"/>
      </g>
     </g>
     <g id="text_4">
      <!-- 30 -->
      <defs>
       <path d="M 40.578125 39.3125 
Q 47.65625 37.796875 51.625 33 
Q 55.609375 28.21875 55.609375 21.1875 
Q 55.609375 10.40625 48.1875 4.484375 
Q 40.765625 -1.421875 27.09375 -1.421875 
Q 22.515625 -1.421875 17.65625 -0.515625 
Q 12.796875 0.390625 7.625 2.203125 
L 7.625 11.71875 
Q 11.71875 9.328125 16.59375 8.109375 
Q 21.484375 6.890625 26.8125 6.890625 
Q 36.078125 6.890625 40.9375 10.546875 
Q 45.796875 14.203125 45.796875 21.1875 
Q 45.796875 27.640625 41.28125 31.265625 
Q 36.765625 34.90625 28.71875 34.90625 
L 20.21875 34.90625 
L 20.21875 43.015625 
L 29.109375 43.015625 
Q 36.375 43.015625 40.234375 45.921875 
Q 44.09375 48.828125 44.09375 54.296875 
Q 44.09375 59.90625 40.109375 62.90625 
Q 36.140625 65.921875 28.71875 65.921875 
Q 24.65625 65.921875 20.015625 65.03125 
Q 15.375 64.15625 9.8125 62.3125 
L 9.8125 71.09375 
Q 15.4375 72.65625 20.34375 73.4375 
Q 25.25 74.21875 29.59375 74.21875 
Q 40.828125 74.21875 47.359375 69.109375 
Q 53.90625 64.015625 53.90625 55.328125 
Q 53.90625 49.265625 50.4375 45.09375 
Q 46.96875 40.921875 40.578125 39.3125 
z
" id="DejaVuSans-51"/>
      </defs>
      <g transform="translate(181.868182 148.298437)scale(0.1 -0.1)">
       <use xlink:href="#DejaVuSans-51"/>
       <use x="63.623047" xlink:href="#DejaVuSans-48"/>
      </g>
     </g>
    </g>
    <g id="text_5">
     <!-- Time -->
     <defs>
      <path d="M -0.296875 72.90625 
L 61.375 72.90625 
L 61.375 64.59375 
L 35.5 64.59375 
L 35.5 0 
L 25.59375 0 
L 25.59375 64.59375 
L -0.296875 64.59375 
z
" id="DejaVuSans-84"/>
      <path d="M 9.421875 54.6875 
L 18.40625 54.6875 
L 18.40625 0 
L 9.421875 0 
z
M 9.421875 75.984375 
L 18.40625 75.984375 
L 18.40625 64.59375 
L 9.421875 64.59375 
z
" id="DejaVuSans-105"/>
      <path d="M 52 44.1875 
Q 55.375 50.25 60.0625 53.125 
Q 64.75 56 71.09375 56 
Q 79.640625 56 84.28125 50.015625 
Q 88.921875 44.046875 88.921875 33.015625 
L 88.921875 0 
L 79.890625 0 
L 79.890625 32.71875 
Q 79.890625 40.578125 77.09375 44.375 
Q 74.3125 48.1875 68.609375 48.1875 
Q 61.625 48.1875 57.5625 43.546875 
Q 53.515625 38.921875 53.515625 30.90625 
L 53.515625 0 
L 44.484375 0 
L 44.484375 32.71875 
Q 44.484375 40.625 41.703125 44.40625 
Q 38.921875 48.1875 33.109375 48.1875 
Q 26.21875 48.1875 22.15625 43.53125 
Q 18.109375 38.875 18.109375 30.90625 
L 18.109375 0 
L 9.078125 0 
L 9.078125 54.6875 
L 18.109375 54.6875 
L 18.109375 46.1875 
Q 21.1875 51.21875 25.484375 53.609375 
Q 29.78125 56 35.6875 56 
Q 41.65625 56 45.828125 52.96875 
Q 50 49.953125 52 44.1875 
z
" id="DejaVuSans-109"/>
      <path d="M 56.203125 29.59375 
L 56.203125 25.203125 
L 14.890625 25.203125 
Q 15.484375 15.921875 20.484375 11.0625 
Q 25.484375 6.203125 34.421875 6.203125 
Q 39.59375 6.203125 44.453125 7.46875 
Q 49.3125 8.734375 54.109375 11.28125 
L 54.109375 2.78125 
Q 49.265625 0.734375 44.1875 -0.34375 
Q 39.109375 -1.421875 33.890625 -1.421875 
Q 20.796875 -1.421875 13.15625 6.1875 
Q 5.515625 13.8125 5.515625 26.8125 
Q 5.515625 40.234375 12.765625 48.109375 
Q 20.015625 56 32.328125 56 
Q 43.359375 56 49.78125 48.890625 
Q 56.203125 41.796875 56.203125 29.59375 
z
M 47.21875 32.234375 
Q 47.125 39.59375 43.09375 43.984375 
Q 39.0625 48.390625 32.421875 48.390625 
Q 24.90625 48.390625 20.390625 44.140625 
Q 15.875 39.890625 15.1875 32.171875 
z
" id="DejaVuSans-101"/>
     </defs>
     <g transform="translate(113.316667 161.976562)scale(0.1 -0.1)">
      <use xlink:href="#DejaVuSans-84"/>
      <use x="61.037109" xlink:href="#DejaVuSans-105"/>
      <use x="88.820312" xlink:href="#DejaVuSans-109"/>
      <use x="186.232422" xlink:href="#DejaVuSans-101"/>
     </g>
    </g>
   </g>
   <g id="matplotlib.axis_2">
    <g id="ytick_1">
     <g id="line2d_5">
      <defs>
       <path d="M 0 0 
L -3.5 0 
" id="m6ac5991fe2" style="stroke:#000000;stroke-width:0.8;"/>
      </defs>
      <g>
       <use style="stroke:#000000;stroke-width:0.8;" x="56.925" xlink:href="#m6ac5991fe2" y="124.870603"/>
      </g>
     </g>
     <g id="text_6">
      <!-- 0.0 -->
      <defs>
       <path d="M 10.6875 12.40625 
L 21 12.40625 
L 21 0 
L 10.6875 0 
z
" id="DejaVuSans-46"/>
      </defs>
      <g transform="translate(34.021875 128.669821)scale(0.1 -0.1)">
       <use xlink:href="#DejaVuSans-48"/>
       <use x="63.623047" xlink:href="#DejaVuSans-46"/>
       <use x="95.410156" xlink:href="#DejaVuSans-48"/>
      </g>
     </g>
    </g>
    <g id="ytick_2">
     <g id="line2d_6">
      <g>
       <use style="stroke:#000000;stroke-width:0.8;" x="56.925" xlink:href="#m6ac5991fe2" y="100.081035"/>
      </g>
     </g>
     <g id="text_7">
      <!-- 0.1 -->
      <g transform="translate(34.021875 103.880254)scale(0.1 -0.1)">
       <use xlink:href="#DejaVuSans-48"/>
       <use x="63.623047" xlink:href="#DejaVuSans-46"/>
       <use x="95.410156" xlink:href="#DejaVuSans-49"/>
      </g>
     </g>
    </g>
    <g id="ytick_3">
     <g id="line2d_7">
      <g>
       <use style="stroke:#000000;stroke-width:0.8;" x="56.925" xlink:href="#m6ac5991fe2" y="75.291467"/>
      </g>
     </g>
     <g id="text_8">
      <!-- 0.2 -->
      <g transform="translate(34.021875 79.090686)scale(0.1 -0.1)">
       <use xlink:href="#DejaVuSans-48"/>
       <use x="63.623047" xlink:href="#DejaVuSans-46"/>
       <use x="95.410156" xlink:href="#DejaVuSans-50"/>
      </g>
     </g>
    </g>
    <g id="ytick_4">
     <g id="line2d_8">
      <g>
       <use style="stroke:#000000;stroke-width:0.8;" x="56.925" xlink:href="#m6ac5991fe2" y="50.5019"/>
      </g>
     </g>
     <g id="text_9">
      <!-- 0.3 -->
      <g transform="translate(34.021875 54.301119)scale(0.1 -0.1)">
       <use xlink:href="#DejaVuSans-48"/>
       <use x="63.623047" xlink:href="#DejaVuSans-46"/>
       <use x="95.410156" xlink:href="#DejaVuSans-51"/>
      </g>
     </g>
    </g>
    <g id="ytick_5">
     <g id="line2d_9">
      <g>
       <use style="stroke:#000000;stroke-width:0.8;" x="56.925" xlink:href="#m6ac5991fe2" y="25.712332"/>
      </g>
     </g>
     <g id="text_10">
      <!-- 0.4 -->
      <defs>
       <path d="M 37.796875 64.3125 
L 12.890625 25.390625 
L 37.796875 25.390625 
z
M 35.203125 72.90625 
L 47.609375 72.90625 
L 47.609375 25.390625 
L 58.015625 25.390625 
L 58.015625 17.1875 
L 47.609375 17.1875 
L 47.609375 0 
L 37.796875 0 
L 37.796875 17.1875 
L 4.890625 17.1875 
L 4.890625 26.703125 
z
" id="DejaVuSans-52"/>
      </defs>
      <g transform="translate(34.021875 29.511551)scale(0.1 -0.1)">
       <use xlink:href="#DejaVuSans-48"/>
       <use x="63.623047" xlink:href="#DejaVuSans-46"/>
       <use x="95.410156" xlink:href="#DejaVuSans-52"/>
      </g>
     </g>
    </g>
    <g id="text_11">
     <!-- Data -->
     <defs>
      <path d="M 19.671875 64.796875 
L 19.671875 8.109375 
L 31.59375 8.109375 
Q 46.6875 8.109375 53.6875 14.9375 
Q 60.6875 21.78125 60.6875 36.53125 
Q 60.6875 51.171875 53.6875 57.984375 
Q 46.6875 64.796875 31.59375 64.796875 
z
M 9.8125 72.90625 
L 30.078125 72.90625 
Q 51.265625 72.90625 61.171875 64.09375 
Q 71.09375 55.28125 71.09375 36.53125 
Q 71.09375 17.671875 61.125 8.828125 
Q 51.171875 0 30.078125 0 
L 9.8125 0 
z
" id="DejaVuSans-68"/>
      <path d="M 34.28125 27.484375 
Q 23.390625 27.484375 19.1875 25 
Q 14.984375 22.515625 14.984375 16.5 
Q 14.984375 11.71875 18.140625 8.90625 
Q 21.296875 6.109375 26.703125 6.109375 
Q 34.1875 6.109375 38.703125 11.40625 
Q 43.21875 16.703125 43.21875 25.484375 
L 43.21875 27.484375 
z
M 52.203125 31.203125 
L 52.203125 0 
L 43.21875 0 
L 43.21875 8.296875 
Q 40.140625 3.328125 35.546875 0.953125 
Q 30.953125 -1.421875 24.3125 -1.421875 
Q 15.921875 -1.421875 10.953125 3.296875 
Q 6 8.015625 6 15.921875 
Q 6 25.140625 12.171875 29.828125 
Q 18.359375 34.515625 30.609375 34.515625 
L 43.21875 34.515625 
L 43.21875 35.40625 
Q 43.21875 41.609375 39.140625 45 
Q 35.0625 48.390625 27.6875 48.390625 
Q 23 48.390625 18.546875 47.265625 
Q 14.109375 46.140625 10.015625 43.890625 
L 10.015625 52.203125 
Q 14.9375 54.109375 19.578125 55.046875 
Q 24.21875 56 28.609375 56 
Q 40.484375 56 46.34375 49.84375 
Q 52.203125 43.703125 52.203125 31.203125 
z
" id="DejaVuSans-97"/>
      <path d="M 18.3125 70.21875 
L 18.3125 54.6875 
L 36.8125 54.6875 
L 36.8125 47.703125 
L 18.3125 47.703125 
L 18.3125 18.015625 
Q 18.3125 11.328125 20.140625 9.421875 
Q 21.96875 7.515625 27.59375 7.515625 
L 36.8125 7.515625 
L 36.8125 0 
L 27.59375 0 
Q 17.1875 0 13.234375 3.875 
Q 9.28125 7.765625 9.28125 18.015625 
L 9.28125 47.703125 
L 2.6875 47.703125 
L 2.6875 54.6875 
L 9.28125 54.6875 
L 9.28125 70.21875 
z
" id="DejaVuSans-116"/>
     </defs>
     <g transform="translate(27.942188 84.188281)rotate(-90)scale(0.1 -0.1)">
      <use xlink:href="#DejaVuSans-68"/>
      <use x="77.001953" xlink:href="#DejaVuSans-97"/>
      <use x="138.28125" xlink:href="#DejaVuSans-116"/>
      <use x="177.490234" xlink:href="#DejaVuSans-97"/>
     </g>
    </g>
   </g>
   <g id="line2d_10">
    <path clip-path="url(#p83add75e1d)" d="M 63.177652 124.870603 
L 77.072433 85.252173 
L 90.967214 60.407888 
L 104.861995 44.828308 
L 118.756776 35.058523 
L 132.651557 28.931998 
L 146.546338 25.090121 
L 160.44112 22.680922 
L 174.335901 21.170139 
L 188.230682 20.222744 
" style="fill:none;stroke:#000000;stroke-linecap:square;stroke-width:1.5;"/>
   </g>
   <g id="line2d_11">
    <defs>
     <path d="M 0 -3 
L -0.673542 -0.927051 
L -2.85317 -0.927051 
L -1.089814 0.354102 
L -1.763356 2.427051 
L -0 1.145898 
L 1.763356 2.427051 
L 1.089814 0.354102 
L 2.85317 -0.927051 
L 0.673542 -0.927051 
z
" id="mff32d91f2a" style="stroke:#000000;stroke-linejoin:bevel;"/>
    </defs>
    <g clip-path="url(#p83add75e1d)">
     <use style="stroke:#000000;stroke-linejoin:bevel;" x="63.177652" xlink:href="#mff32d91f2a" y="128.113636"/>
     <use style="stroke:#000000;stroke-linejoin:bevel;" x="77.072433" xlink:href="#mff32d91f2a" y="88.832848"/>
     <use style="stroke:#000000;stroke-linejoin:bevel;" x="90.967214" xlink:href="#mff32d91f2a" y="64.078336"/>
     <use style="stroke:#000000;stroke-linejoin:bevel;" x="104.861995" xlink:href="#mff32d91f2a" y="48.382945"/>
     <use style="stroke:#000000;stroke-linejoin:bevel;" x="118.756776" xlink:href="#mff32d91f2a" y="31.829381"/>
     <use style="stroke:#000000;stroke-linejoin:bevel;" x="132.651557" xlink:href="#mff32d91f2a" y="23.098438"/>
     <use style="stroke:#000000;stroke-linejoin:bevel;" x="146.546338" xlink:href="#mff32d91f2a" y="21.687058"/>
     <use style="stroke:#000000;stroke-linejoin:bevel;" x="160.44112" xlink:href="#mff32d91f2a" y="25.521472"/>
     <use style="stroke:#000000;stroke-linejoin:bevel;" x="174.335901" xlink:href="#mff32d91f2a" y="22.535394"/>
     <use style="stroke:#000000;stroke-linejoin:bevel;" x="188.230682" xlink:href="#mff32d91f2a" y="16.386364"/>
    </g>
   </g>
   <g id="patch_3">
    <path d="M 56.925 133.7 
L 56.925 10.8 
" style="fill:none;stroke:#000000;stroke-linecap:square;stroke-linejoin:miter;stroke-width:0.8;"/>
   </g>
   <g id="patch_4">
    <path d="M 56.925 133.7 
L 194.483333 133.7 
" style="fill:none;stroke:#000000;stroke-linecap:square;stroke-linejoin:miter;stroke-width:0.8;"/>
   </g>
   <g id="legend_1">
    <g id="patch_5">
     <path d="M 69.039583 128.7 
L 187.483333 128.7 
Q 189.483333 128.7 189.483333 126.7 
L 189.483333 98.34375 
Q 189.483333 96.34375 187.483333 96.34375 
L 69.039583 96.34375 
Q 67.039583 96.34375 67.039583 98.34375 
L 67.039583 126.7 
Q 67.039583 128.7 69.039583 128.7 
z
" style="fill:#ffffff;opacity:0.8;stroke:#cccccc;stroke-linejoin:miter;"/>
    </g>
    <g id="line2d_12">
     <path d="M 71.039583 104.442187 
L 91.039583 104.442187 
" style="fill:none;stroke:#000000;stroke-linecap:square;stroke-width:1.5;"/>
    </g>
    <g id="line2d_13"/>
    <g id="text_12">
     <!-- model simulation -->
     <defs>
      <path d="M 30.609375 48.390625 
Q 23.390625 48.390625 19.1875 42.75 
Q 14.984375 37.109375 14.984375 27.296875 
Q 14.984375 17.484375 19.15625 11.84375 
Q 23.34375 6.203125 30.609375 6.203125 
Q 37.796875 6.203125 41.984375 11.859375 
Q 46.1875 17.53125 46.1875 27.296875 
Q 46.1875 37.015625 41.984375 42.703125 
Q 37.796875 48.390625 30.609375 48.390625 
z
M 30.609375 56 
Q 42.328125 56 49.015625 48.375 
Q 55.71875 40.765625 55.71875 27.296875 
Q 55.71875 13.875 49.015625 6.21875 
Q 42.328125 -1.421875 30.609375 -1.421875 
Q 18.84375 -1.421875 12.171875 6.21875 
Q 5.515625 13.875 5.515625 27.296875 
Q 5.515625 40.765625 12.171875 48.375 
Q 18.84375 56 30.609375 56 
z
" id="DejaVuSans-111"/>
      <path d="M 45.40625 46.390625 
L 45.40625 75.984375 
L 54.390625 75.984375 
L 54.390625 0 
L 45.40625 0 
L 45.40625 8.203125 
Q 42.578125 3.328125 38.25 0.953125 
Q 33.9375 -1.421875 27.875 -1.421875 
Q 17.96875 -1.421875 11.734375 6.484375 
Q 5.515625 14.40625 5.515625 27.296875 
Q 5.515625 40.1875 11.734375 48.09375 
Q 17.96875 56 27.875 56 
Q 33.9375 56 38.25 53.625 
Q 42.578125 51.265625 45.40625 46.390625 
z
M 14.796875 27.296875 
Q 14.796875 17.390625 18.875 11.75 
Q 22.953125 6.109375 30.078125 6.109375 
Q 37.203125 6.109375 41.296875 11.75 
Q 45.40625 17.390625 45.40625 27.296875 
Q 45.40625 37.203125 41.296875 42.84375 
Q 37.203125 48.484375 30.078125 48.484375 
Q 22.953125 48.484375 18.875 42.84375 
Q 14.796875 37.203125 14.796875 27.296875 
z
" id="DejaVuSans-100"/>
      <path d="M 9.421875 75.984375 
L 18.40625 75.984375 
L 18.40625 0 
L 9.421875 0 
z
" id="DejaVuSans-108"/>
      <path id="DejaVuSans-32"/>
      <path d="M 44.28125 53.078125 
L 44.28125 44.578125 
Q 40.484375 46.53125 36.375 47.5 
Q 32.28125 48.484375 27.875 48.484375 
Q 21.1875 48.484375 17.84375 46.4375 
Q 14.5 44.390625 14.5 40.28125 
Q 14.5 37.15625 16.890625 35.375 
Q 19.28125 33.59375 26.515625 31.984375 
L 29.59375 31.296875 
Q 39.15625 29.25 43.1875 25.515625 
Q 47.21875 21.78125 47.21875 15.09375 
Q 47.21875 7.46875 41.1875 3.015625 
Q 35.15625 -1.421875 24.609375 -1.421875 
Q 20.21875 -1.421875 15.453125 -0.5625 
Q 10.6875 0.296875 5.421875 2 
L 5.421875 11.28125 
Q 10.40625 8.6875 15.234375 7.390625 
Q 20.0625 6.109375 24.8125 6.109375 
Q 31.15625 6.109375 34.5625 8.28125 
Q 37.984375 10.453125 37.984375 14.40625 
Q 37.984375 18.0625 35.515625 20.015625 
Q 33.0625 21.96875 24.703125 23.78125 
L 21.578125 24.515625 
Q 13.234375 26.265625 9.515625 29.90625 
Q 5.8125 33.546875 5.8125 39.890625 
Q 5.8125 47.609375 11.28125 51.796875 
Q 16.75 56 26.8125 56 
Q 31.78125 56 36.171875 55.265625 
Q 40.578125 54.546875 44.28125 53.078125 
z
" id="DejaVuSans-115"/>
      <path d="M 8.5 21.578125 
L 8.5 54.6875 
L 17.484375 54.6875 
L 17.484375 21.921875 
Q 17.484375 14.15625 20.5 10.265625 
Q 23.53125 6.390625 29.59375 6.390625 
Q 36.859375 6.390625 41.078125 11.03125 
Q 45.3125 15.671875 45.3125 23.6875 
L 45.3125 54.6875 
L 54.296875 54.6875 
L 54.296875 0 
L 45.3125 0 
L 45.3125 8.40625 
Q 42.046875 3.421875 37.71875 1 
Q 33.40625 -1.421875 27.6875 -1.421875 
Q 18.265625 -1.421875 13.375 4.4375 
Q 8.5 10.296875 8.5 21.578125 
z
M 31.109375 56 
z
" id="DejaVuSans-117"/>
      <path d="M 54.890625 33.015625 
L 54.890625 0 
L 45.90625 0 
L 45.90625 32.71875 
Q 45.90625 40.484375 42.875 44.328125 
Q 39.84375 48.1875 33.796875 48.1875 
Q 26.515625 48.1875 22.3125 43.546875 
Q 18.109375 38.921875 18.109375 30.90625 
L 18.109375 0 
L 9.078125 0 
L 9.078125 54.6875 
L 18.109375 54.6875 
L 18.109375 46.1875 
Q 21.34375 51.125 25.703125 53.5625 
Q 30.078125 56 35.796875 56 
Q 45.21875 56 50.046875 50.171875 
Q 54.890625 44.34375 54.890625 33.015625 
z
" id="DejaVuSans-110"/>
     </defs>
     <g transform="translate(99.039583 107.942187)scale(0.1 -0.1)">
      <use xlink:href="#DejaVuSans-109"/>
      <use x="97.412109" xlink:href="#DejaVuSans-111"/>
      <use x="158.59375" xlink:href="#DejaVuSans-100"/>
      <use x="222.070312" xlink:href="#DejaVuSans-101"/>
      <use x="283.59375" xlink:href="#DejaVuSans-108"/>
      <use x="311.376953" xlink:href="#DejaVuSans-32"/>
      <use x="343.164062" xlink:href="#DejaVuSans-115"/>
      <use x="395.263672" xlink:href="#DejaVuSans-105"/>
      <use x="423.046875" xlink:href="#DejaVuSans-109"/>
      <use x="520.458984" xlink:href="#DejaVuSans-117"/>
      <use x="583.837891" xlink:href="#DejaVuSans-108"/>
      <use x="611.621094" xlink:href="#DejaVuSans-97"/>
      <use x="672.900391" xlink:href="#DejaVuSans-116"/>
      <use x="712.109375" xlink:href="#DejaVuSans-105"/>
      <use x="739.892578" xlink:href="#DejaVuSans-111"/>
      <use x="801.074219" xlink:href="#DejaVuSans-110"/>
     </g>
    </g>
    <g id="line2d_14"/>
    <g id="line2d_15">
     <g>
      <use style="stroke:#000000;stroke-linejoin:bevel;" x="81.039583" xlink:href="#mff32d91f2a" y="119.120312"/>
     </g>
    </g>
    <g id="text_13">
     <!-- noisy data -->
     <defs>
      <path d="M 32.171875 -5.078125 
Q 28.375 -14.84375 24.75 -17.8125 
Q 21.140625 -20.796875 15.09375 -20.796875 
L 7.90625 -20.796875 
L 7.90625 -13.28125 
L 13.1875 -13.28125 
Q 16.890625 -13.28125 18.9375 -11.515625 
Q 21 -9.765625 23.484375 -3.21875 
L 25.09375 0.875 
L 2.984375 54.6875 
L 12.5 54.6875 
L 29.59375 11.921875 
L 46.6875 54.6875 
L 56.203125 54.6875 
z
" id="DejaVuSans-121"/>
     </defs>
     <g transform="translate(99.039583 122.620312)scale(0.1 -0.1)">
      <use xlink:href="#DejaVuSans-110"/>
      <use x="63.378906" xlink:href="#DejaVuSans-111"/>
      <use x="124.560547" xlink:href="#DejaVuSans-105"/>
      <use x="152.34375" xlink:href="#DejaVuSans-115"/>
      <use x="204.443359" xlink:href="#DejaVuSans-121"/>
      <use x="263.623047" xlink:href="#DejaVuSans-32"/>
      <use x="295.410156" xlink:href="#DejaVuSans-100"/>
      <use x="358.886719" xlink:href="#DejaVuSans-97"/>
      <use x="420.166016" xlink:href="#DejaVuSans-116"/>
      <use x="459.375" xlink:href="#DejaVuSans-97"/>
     </g>
    </g>
   </g>
  </g>
  <g id="axes_2">
   <g id="patch_6">
    <path d="M 242.283333 133.7 
L 565.2 133.7 
L 565.2 10.8 
L 242.283333 10.8 
z
" style="fill:#ffffff;"/>
   </g>
   <g id="matplotlib.axis_3">
    <g id="xtick_5">
     <g id="line2d_16">
      <g>
       <use style="stroke:#000000;stroke-width:0.8;" x="256.961364" xlink:href="#m63ec64db61" y="133.7"/>
      </g>
     </g>
     <g id="text_14">
      <!-- 0 -->
      <g transform="translate(253.780114 148.298437)scale(0.1 -0.1)">
       <use xlink:href="#DejaVuSans-48"/>
      </g>
     </g>
    </g>
    <g id="xtick_6">
     <g id="line2d_17">
      <g>
       <use style="stroke:#000000;stroke-width:0.8;" x="315.673485" xlink:href="#m63ec64db61" y="133.7"/>
      </g>
     </g>
     <g id="text_15">
      <!-- 2 -->
      <g transform="translate(312.492235 148.298437)scale(0.1 -0.1)">
       <use xlink:href="#DejaVuSans-50"/>
      </g>
     </g>
    </g>
    <g id="xtick_7">
     <g id="line2d_18">
      <g>
       <use style="stroke:#000000;stroke-width:0.8;" x="374.385606" xlink:href="#m63ec64db61" y="133.7"/>
      </g>
     </g>
     <g id="text_16">
      <!-- 4 -->
      <g transform="translate(371.204356 148.298437)scale(0.1 -0.1)">
       <use xlink:href="#DejaVuSans-52"/>
      </g>
     </g>
    </g>
    <g id="xtick_8">
     <g id="line2d_19">
      <g>
       <use style="stroke:#000000;stroke-width:0.8;" x="433.097727" xlink:href="#m63ec64db61" y="133.7"/>
      </g>
     </g>
     <g id="text_17">
      <!-- 6 -->
      <defs>
       <path d="M 33.015625 40.375 
Q 26.375 40.375 22.484375 35.828125 
Q 18.609375 31.296875 18.609375 23.390625 
Q 18.609375 15.53125 22.484375 10.953125 
Q 26.375 6.390625 33.015625 6.390625 
Q 39.65625 6.390625 43.53125 10.953125 
Q 47.40625 15.53125 47.40625 23.390625 
Q 47.40625 31.296875 43.53125 35.828125 
Q 39.65625 40.375 33.015625 40.375 
z
M 52.59375 71.296875 
L 52.59375 62.3125 
Q 48.875 64.0625 45.09375 64.984375 
Q 41.3125 65.921875 37.59375 65.921875 
Q 27.828125 65.921875 22.671875 59.328125 
Q 17.53125 52.734375 16.796875 39.40625 
Q 19.671875 43.65625 24.015625 45.921875 
Q 28.375 48.1875 33.59375 48.1875 
Q 44.578125 48.1875 50.953125 41.515625 
Q 57.328125 34.859375 57.328125 23.390625 
Q 57.328125 12.15625 50.6875 5.359375 
Q 44.046875 -1.421875 33.015625 -1.421875 
Q 20.359375 -1.421875 13.671875 8.265625 
Q 6.984375 17.96875 6.984375 36.375 
Q 6.984375 53.65625 15.1875 63.9375 
Q 23.390625 74.21875 37.203125 74.21875 
Q 40.921875 74.21875 44.703125 73.484375 
Q 48.484375 72.75 52.59375 71.296875 
z
" id="DejaVuSans-54"/>
      </defs>
      <g transform="translate(429.916477 148.298437)scale(0.1 -0.1)">
       <use xlink:href="#DejaVuSans-54"/>
      </g>
     </g>
    </g>
    <g id="xtick_9">
     <g id="line2d_20">
      <g>
       <use style="stroke:#000000;stroke-width:0.8;" x="491.809848" xlink:href="#m63ec64db61" y="133.7"/>
      </g>
     </g>
     <g id="text_18">
      <!-- 8 -->
      <defs>
       <path d="M 31.78125 34.625 
Q 24.75 34.625 20.71875 30.859375 
Q 16.703125 27.09375 16.703125 20.515625 
Q 16.703125 13.921875 20.71875 10.15625 
Q 24.75 6.390625 31.78125 6.390625 
Q 38.8125 6.390625 42.859375 10.171875 
Q 46.921875 13.96875 46.921875 20.515625 
Q 46.921875 27.09375 42.890625 30.859375 
Q 38.875 34.625 31.78125 34.625 
z
M 21.921875 38.8125 
Q 15.578125 40.375 12.03125 44.71875 
Q 8.5 49.078125 8.5 55.328125 
Q 8.5 64.0625 14.71875 69.140625 
Q 20.953125 74.21875 31.78125 74.21875 
Q 42.671875 74.21875 48.875 69.140625 
Q 55.078125 64.0625 55.078125 55.328125 
Q 55.078125 49.078125 51.53125 44.71875 
Q 48 40.375 41.703125 38.8125 
Q 48.828125 37.15625 52.796875 32.3125 
Q 56.78125 27.484375 56.78125 20.515625 
Q 56.78125 9.90625 50.3125 4.234375 
Q 43.84375 -1.421875 31.78125 -1.421875 
Q 19.734375 -1.421875 13.25 4.234375 
Q 6.78125 9.90625 6.78125 20.515625 
Q 6.78125 27.484375 10.78125 32.3125 
Q 14.796875 37.15625 21.921875 38.8125 
z
M 18.3125 54.390625 
Q 18.3125 48.734375 21.84375 45.5625 
Q 25.390625 42.390625 31.78125 42.390625 
Q 38.140625 42.390625 41.71875 45.5625 
Q 45.3125 48.734375 45.3125 54.390625 
Q 45.3125 60.0625 41.71875 63.234375 
Q 38.140625 66.40625 31.78125 66.40625 
Q 25.390625 66.40625 21.84375 63.234375 
Q 18.3125 60.0625 18.3125 54.390625 
z
" id="DejaVuSans-56"/>
      </defs>
      <g transform="translate(488.628598 148.298437)scale(0.1 -0.1)">
       <use xlink:href="#DejaVuSans-56"/>
      </g>
     </g>
    </g>
    <g id="xtick_10">
     <g id="line2d_21">
      <g>
       <use style="stroke:#000000;stroke-width:0.8;" x="550.52197" xlink:href="#m63ec64db61" y="133.7"/>
      </g>
     </g>
     <g id="text_19">
      <!-- 10 -->
      <g transform="translate(544.15947 148.298437)scale(0.1 -0.1)">
       <use xlink:href="#DejaVuSans-49"/>
       <use x="63.623047" xlink:href="#DejaVuSans-48"/>
      </g>
     </g>
    </g>
    <g id="text_20">
     <!-- Population index -->
     <defs>
      <path d="M 19.671875 64.796875 
L 19.671875 37.40625 
L 32.078125 37.40625 
Q 38.96875 37.40625 42.71875 40.96875 
Q 46.484375 44.53125 46.484375 51.125 
Q 46.484375 57.671875 42.71875 61.234375 
Q 38.96875 64.796875 32.078125 64.796875 
z
M 9.8125 72.90625 
L 32.078125 72.90625 
Q 44.34375 72.90625 50.609375 67.359375 
Q 56.890625 61.8125 56.890625 51.125 
Q 56.890625 40.328125 50.609375 34.8125 
Q 44.34375 29.296875 32.078125 29.296875 
L 19.671875 29.296875 
L 19.671875 0 
L 9.8125 0 
z
" id="DejaVuSans-80"/>
      <path d="M 18.109375 8.203125 
L 18.109375 -20.796875 
L 9.078125 -20.796875 
L 9.078125 54.6875 
L 18.109375 54.6875 
L 18.109375 46.390625 
Q 20.953125 51.265625 25.265625 53.625 
Q 29.59375 56 35.59375 56 
Q 45.5625 56 51.78125 48.09375 
Q 58.015625 40.1875 58.015625 27.296875 
Q 58.015625 14.40625 51.78125 6.484375 
Q 45.5625 -1.421875 35.59375 -1.421875 
Q 29.59375 -1.421875 25.265625 0.953125 
Q 20.953125 3.328125 18.109375 8.203125 
z
M 48.6875 27.296875 
Q 48.6875 37.203125 44.609375 42.84375 
Q 40.53125 48.484375 33.40625 48.484375 
Q 26.265625 48.484375 22.1875 42.84375 
Q 18.109375 37.203125 18.109375 27.296875 
Q 18.109375 17.390625 22.1875 11.75 
Q 26.265625 6.109375 33.40625 6.109375 
Q 40.53125 6.109375 44.609375 11.75 
Q 48.6875 17.390625 48.6875 27.296875 
z
" id="DejaVuSans-112"/>
      <path d="M 54.890625 54.6875 
L 35.109375 28.078125 
L 55.90625 0 
L 45.3125 0 
L 29.390625 21.484375 
L 13.484375 0 
L 2.875 0 
L 24.125 28.609375 
L 4.6875 54.6875 
L 15.28125 54.6875 
L 29.78125 35.203125 
L 44.28125 54.6875 
z
" id="DejaVuSans-120"/>
     </defs>
     <g transform="translate(361.940104 161.976562)scale(0.1 -0.1)">
      <use xlink:href="#DejaVuSans-80"/>
      <use x="60.255859" xlink:href="#DejaVuSans-111"/>
      <use x="121.4375" xlink:href="#DejaVuSans-112"/>
      <use x="184.914062" xlink:href="#DejaVuSans-117"/>
      <use x="248.292969" xlink:href="#DejaVuSans-108"/>
      <use x="276.076172" xlink:href="#DejaVuSans-97"/>
      <use x="337.355469" xlink:href="#DejaVuSans-116"/>
      <use x="376.564453" xlink:href="#DejaVuSans-105"/>
      <use x="404.347656" xlink:href="#DejaVuSans-111"/>
      <use x="465.529297" xlink:href="#DejaVuSans-110"/>
      <use x="528.908203" xlink:href="#DejaVuSans-32"/>
      <use x="560.695312" xlink:href="#DejaVuSans-105"/>
      <use x="588.478516" xlink:href="#DejaVuSans-110"/>
      <use x="651.857422" xlink:href="#DejaVuSans-100"/>
      <use x="715.333984" xlink:href="#DejaVuSans-101"/>
      <use x="776.841797" xlink:href="#DejaVuSans-120"/>
     </g>
    </g>
   </g>
   <g id="matplotlib.axis_4">
    <g id="ytick_6">
     <g id="line2d_22">
      <g>
       <use style="stroke:#000000;stroke-width:0.8;" x="242.283333" xlink:href="#m6ac5991fe2" y="133.131886"/>
      </g>
     </g>
     <g id="text_21">
      <!-- 0.5 -->
      <defs>
       <path d="M 10.796875 72.90625 
L 49.515625 72.90625 
L 49.515625 64.59375 
L 19.828125 64.59375 
L 19.828125 46.734375 
Q 21.96875 47.46875 24.109375 47.828125 
Q 26.265625 48.1875 28.421875 48.1875 
Q 40.625 48.1875 47.75 41.5 
Q 54.890625 34.8125 54.890625 23.390625 
Q 54.890625 11.625 47.5625 5.09375 
Q 40.234375 -1.421875 26.90625 -1.421875 
Q 22.3125 -1.421875 17.546875 -0.640625 
Q 12.796875 0.140625 7.71875 1.703125 
L 7.71875 11.625 
Q 12.109375 9.234375 16.796875 8.0625 
Q 21.484375 6.890625 26.703125 6.890625 
Q 35.15625 6.890625 40.078125 11.328125 
Q 45.015625 15.765625 45.015625 23.390625 
Q 45.015625 31 40.078125 35.4375 
Q 35.15625 39.890625 26.703125 39.890625 
Q 22.75 39.890625 18.8125 39.015625 
Q 14.890625 38.140625 10.796875 36.28125 
z
" id="DejaVuSans-53"/>
      </defs>
      <g transform="translate(219.380208 136.931104)scale(0.1 -0.1)">
       <use xlink:href="#DejaVuSans-48"/>
       <use x="63.623047" xlink:href="#DejaVuSans-46"/>
       <use x="95.410156" xlink:href="#DejaVuSans-53"/>
      </g>
     </g>
    </g>
    <g id="ytick_7">
     <g id="line2d_23">
      <g>
       <use style="stroke:#000000;stroke-width:0.8;" x="242.283333" xlink:href="#m6ac5991fe2" y="100.877465"/>
      </g>
     </g>
     <g id="text_22">
      <!-- 1.0 -->
      <g transform="translate(219.380208 104.676684)scale(0.1 -0.1)">
       <use xlink:href="#DejaVuSans-49"/>
       <use x="63.623047" xlink:href="#DejaVuSans-46"/>
       <use x="95.410156" xlink:href="#DejaVuSans-48"/>
      </g>
     </g>
    </g>
    <g id="ytick_8">
     <g id="line2d_24">
      <g>
       <use style="stroke:#000000;stroke-width:0.8;" x="242.283333" xlink:href="#m6ac5991fe2" y="68.623045"/>
      </g>
     </g>
     <g id="text_23">
      <!-- 1.5 -->
      <g transform="translate(219.380208 72.422264)scale(0.1 -0.1)">
       <use xlink:href="#DejaVuSans-49"/>
       <use x="63.623047" xlink:href="#DejaVuSans-46"/>
       <use x="95.410156" xlink:href="#DejaVuSans-53"/>
      </g>
     </g>
    </g>
    <g id="ytick_9">
     <g id="line2d_25">
      <g>
       <use style="stroke:#000000;stroke-width:0.8;" x="242.283333" xlink:href="#m6ac5991fe2" y="36.368625"/>
      </g>
     </g>
     <g id="text_24">
      <!-- 2.0 -->
      <g transform="translate(219.380208 40.167844)scale(0.1 -0.1)">
       <use xlink:href="#DejaVuSans-50"/>
       <use x="63.623047" xlink:href="#DejaVuSans-46"/>
       <use x="95.410156" xlink:href="#DejaVuSans-48"/>
      </g>
     </g>
    </g>
    <g id="text_25">
     <!-- Log10(Epsilon) -->
     <defs>
      <path d="M 9.8125 72.90625 
L 19.671875 72.90625 
L 19.671875 8.296875 
L 55.171875 8.296875 
L 55.171875 0 
L 9.8125 0 
z
" id="DejaVuSans-76"/>
      <path d="M 45.40625 27.984375 
Q 45.40625 37.75 41.375 43.109375 
Q 37.359375 48.484375 30.078125 48.484375 
Q 22.859375 48.484375 18.828125 43.109375 
Q 14.796875 37.75 14.796875 27.984375 
Q 14.796875 18.265625 18.828125 12.890625 
Q 22.859375 7.515625 30.078125 7.515625 
Q 37.359375 7.515625 41.375 12.890625 
Q 45.40625 18.265625 45.40625 27.984375 
z
M 54.390625 6.78125 
Q 54.390625 -7.171875 48.1875 -13.984375 
Q 42 -20.796875 29.203125 -20.796875 
Q 24.46875 -20.796875 20.265625 -20.09375 
Q 16.0625 -19.390625 12.109375 -17.921875 
L 12.109375 -9.1875 
Q 16.0625 -11.328125 19.921875 -12.34375 
Q 23.78125 -13.375 27.78125 -13.375 
Q 36.625 -13.375 41.015625 -8.765625 
Q 45.40625 -4.15625 45.40625 5.171875 
L 45.40625 9.625 
Q 42.625 4.78125 38.28125 2.390625 
Q 33.9375 0 27.875 0 
Q 17.828125 0 11.671875 7.65625 
Q 5.515625 15.328125 5.515625 27.984375 
Q 5.515625 40.671875 11.671875 48.328125 
Q 17.828125 56 27.875 56 
Q 33.9375 56 38.28125 53.609375 
Q 42.625 51.21875 45.40625 46.390625 
L 45.40625 54.6875 
L 54.390625 54.6875 
z
" id="DejaVuSans-103"/>
      <path d="M 31 75.875 
Q 24.46875 64.65625 21.28125 53.65625 
Q 18.109375 42.671875 18.109375 31.390625 
Q 18.109375 20.125 21.3125 9.0625 
Q 24.515625 -2 31 -13.1875 
L 23.1875 -13.1875 
Q 15.875 -1.703125 12.234375 9.375 
Q 8.59375 20.453125 8.59375 31.390625 
Q 8.59375 42.28125 12.203125 53.3125 
Q 15.828125 64.359375 23.1875 75.875 
z
" id="DejaVuSans-40"/>
      <path d="M 9.8125 72.90625 
L 55.90625 72.90625 
L 55.90625 64.59375 
L 19.671875 64.59375 
L 19.671875 43.015625 
L 54.390625 43.015625 
L 54.390625 34.71875 
L 19.671875 34.71875 
L 19.671875 8.296875 
L 56.78125 8.296875 
L 56.78125 0 
L 9.8125 0 
z
" id="DejaVuSans-69"/>
      <path d="M 8.015625 75.875 
L 15.828125 75.875 
Q 23.140625 64.359375 26.78125 53.3125 
Q 30.421875 42.28125 30.421875 31.390625 
Q 30.421875 20.453125 26.78125 9.375 
Q 23.140625 -1.703125 15.828125 -13.1875 
L 8.015625 -13.1875 
Q 14.5 -2 17.703125 9.0625 
Q 20.90625 20.125 20.90625 31.390625 
Q 20.90625 42.671875 17.703125 53.65625 
Q 14.5 64.65625 8.015625 75.875 
z
" id="DejaVuSans-41"/>
     </defs>
     <g transform="translate(213.300521 109.477344)rotate(-90)scale(0.1 -0.1)">
      <use xlink:href="#DejaVuSans-76"/>
      <use x="55.697266" xlink:href="#DejaVuSans-111"/>
      <use x="116.878906" xlink:href="#DejaVuSans-103"/>
      <use x="180.355469" xlink:href="#DejaVuSans-49"/>
      <use x="243.978516" xlink:href="#DejaVuSans-48"/>
      <use x="307.601562" xlink:href="#DejaVuSans-40"/>
      <use x="346.615234" xlink:href="#DejaVuSans-69"/>
      <use x="409.798828" xlink:href="#DejaVuSans-112"/>
      <use x="473.275391" xlink:href="#DejaVuSans-115"/>
      <use x="525.375" xlink:href="#DejaVuSans-105"/>
      <use x="553.158203" xlink:href="#DejaVuSans-108"/>
      <use x="580.941406" xlink:href="#DejaVuSans-111"/>
      <use x="642.123047" xlink:href="#DejaVuSans-110"/>
      <use x="705.501953" xlink:href="#DejaVuSans-41"/>
     </g>
    </g>
   </g>
   <g id="line2d_26">
    <path clip-path="url(#p1b81cc74ff)" d="M 242.283333 119.06565 
L 565.2 119.06565 
" style="fill:none;stroke:#2ca02c;stroke-dasharray:1.5,2.475;stroke-dashoffset:0;stroke-width:1.5;"/>
   </g>
   <g id="line2d_27">
    <path clip-path="url(#p1b81cc74ff)" d="M 242.283333 111.357234 
L 565.2 111.357234 
" style="fill:none;stroke:#9467bd;stroke-dasharray:1.5,2.475;stroke-dashoffset:0;stroke-width:1.5;"/>
   </g>
   <g id="line2d_28">
    <path clip-path="url(#p1b81cc74ff)" d="M 256.961364 18.500026 
L 286.317424 67.883189 
L 315.673485 97.098073 
L 345.029545 111.597804 
L 374.385606 116.97686 
L 403.741667 118.513809 
L 433.097727 118.92657 
L 462.453788 119.029744 
L 491.809848 119.056198 
L 521.165909 119.06331 
L 550.52197 119.065087 
" style="fill:none;stroke:#2ca02c;stroke-linecap:square;stroke-width:1.5;"/>
    <defs>
     <path d="M -3 3 
L 3 -3 
M -3 -3 
L 3 3 
" id="m63526b8d26" style="stroke:#2ca02c;"/>
    </defs>
    <g clip-path="url(#p1b81cc74ff)">
     <use style="fill:#2ca02c;stroke:#2ca02c;" x="256.961364" xlink:href="#m63526b8d26" y="18.500026"/>
     <use style="fill:#2ca02c;stroke:#2ca02c;" x="286.317424" xlink:href="#m63526b8d26" y="67.883189"/>
     <use style="fill:#2ca02c;stroke:#2ca02c;" x="315.673485" xlink:href="#m63526b8d26" y="97.098073"/>
     <use style="fill:#2ca02c;stroke:#2ca02c;" x="345.029545" xlink:href="#m63526b8d26" y="111.597804"/>
     <use style="fill:#2ca02c;stroke:#2ca02c;" x="374.385606" xlink:href="#m63526b8d26" y="116.97686"/>
     <use style="fill:#2ca02c;stroke:#2ca02c;" x="403.741667" xlink:href="#m63526b8d26" y="118.513809"/>
     <use style="fill:#2ca02c;stroke:#2ca02c;" x="433.097727" xlink:href="#m63526b8d26" y="118.92657"/>
     <use style="fill:#2ca02c;stroke:#2ca02c;" x="462.453788" xlink:href="#m63526b8d26" y="119.029744"/>
     <use style="fill:#2ca02c;stroke:#2ca02c;" x="491.809848" xlink:href="#m63526b8d26" y="119.056198"/>
     <use style="fill:#2ca02c;stroke:#2ca02c;" x="521.165909" xlink:href="#m63526b8d26" y="119.06331"/>
     <use style="fill:#2ca02c;stroke:#2ca02c;" x="550.52197" xlink:href="#m63526b8d26" y="119.065087"/>
    </g>
   </g>
   <g id="line2d_29">
    <path clip-path="url(#p1b81cc74ff)" d="M 256.961364 60.620417 
L 286.317424 86.647098 
L 315.673485 104.725753 
L 345.029545 110.332911 
L 374.385606 110.845245 
L 403.741667 111.105717 
L 433.097727 111.230337 
L 462.453788 111.294069 
L 491.809848 111.325576 
L 521.165909 111.341401 
L 550.52197 111.349407 
" style="fill:none;stroke:#9467bd;stroke-linecap:square;stroke-width:1.5;"/>
    <defs>
     <path d="M -3 3 
L 3 -3 
M -3 -3 
L 3 3 
" id="m52167cb7eb" style="stroke:#9467bd;"/>
    </defs>
    <g clip-path="url(#p1b81cc74ff)">
     <use style="fill:#9467bd;stroke:#9467bd;" x="256.961364" xlink:href="#m52167cb7eb" y="60.620417"/>
     <use style="fill:#9467bd;stroke:#9467bd;" x="286.317424" xlink:href="#m52167cb7eb" y="86.647098"/>
     <use style="fill:#9467bd;stroke:#9467bd;" x="315.673485" xlink:href="#m52167cb7eb" y="104.725753"/>
     <use style="fill:#9467bd;stroke:#9467bd;" x="345.029545" xlink:href="#m52167cb7eb" y="110.332911"/>
     <use style="fill:#9467bd;stroke:#9467bd;" x="374.385606" xlink:href="#m52167cb7eb" y="110.845245"/>
     <use style="fill:#9467bd;stroke:#9467bd;" x="403.741667" xlink:href="#m52167cb7eb" y="111.105717"/>
     <use style="fill:#9467bd;stroke:#9467bd;" x="433.097727" xlink:href="#m52167cb7eb" y="111.230337"/>
     <use style="fill:#9467bd;stroke:#9467bd;" x="462.453788" xlink:href="#m52167cb7eb" y="111.294069"/>
     <use style="fill:#9467bd;stroke:#9467bd;" x="491.809848" xlink:href="#m52167cb7eb" y="111.325576"/>
     <use style="fill:#9467bd;stroke:#9467bd;" x="521.165909" xlink:href="#m52167cb7eb" y="111.341401"/>
     <use style="fill:#9467bd;stroke:#9467bd;" x="550.52197" xlink:href="#m52167cb7eb" y="111.349407"/>
    </g>
   </g>
   <g id="line2d_30">
    <path clip-path="url(#p1b81cc74ff)" d="M 256.961364 16.386364 
L 286.317424 59.400658 
L 315.673485 79.26507 
L 345.029545 89.348661 
L 374.385606 96.753965 
L 403.741667 102.94747 
L 433.097727 108.549928 
L 462.453788 113.683181 
L 491.809848 118.764128 
L 521.165909 123.584126 
L 550.52197 128.113636 
" style="fill:none;stroke:#ff7f0e;stroke-linecap:square;stroke-width:1.5;"/>
    <defs>
     <path d="M -3 3 
L 3 -3 
M -3 -3 
L 3 3 
" id="m5220aeef18" style="stroke:#ff7f0e;"/>
    </defs>
    <g clip-path="url(#p1b81cc74ff)">
     <use style="fill:#ff7f0e;stroke:#ff7f0e;" x="256.961364" xlink:href="#m5220aeef18" y="16.386364"/>
     <use style="fill:#ff7f0e;stroke:#ff7f0e;" x="286.317424" xlink:href="#m5220aeef18" y="59.400658"/>
     <use style="fill:#ff7f0e;stroke:#ff7f0e;" x="315.673485" xlink:href="#m5220aeef18" y="79.26507"/>
     <use style="fill:#ff7f0e;stroke:#ff7f0e;" x="345.029545" xlink:href="#m5220aeef18" y="89.348661"/>
     <use style="fill:#ff7f0e;stroke:#ff7f0e;" x="374.385606" xlink:href="#m5220aeef18" y="96.753965"/>
     <use style="fill:#ff7f0e;stroke:#ff7f0e;" x="403.741667" xlink:href="#m5220aeef18" y="102.94747"/>
     <use style="fill:#ff7f0e;stroke:#ff7f0e;" x="433.097727" xlink:href="#m5220aeef18" y="108.549928"/>
     <use style="fill:#ff7f0e;stroke:#ff7f0e;" x="462.453788" xlink:href="#m5220aeef18" y="113.683181"/>
     <use style="fill:#ff7f0e;stroke:#ff7f0e;" x="491.809848" xlink:href="#m5220aeef18" y="118.764128"/>
     <use style="fill:#ff7f0e;stroke:#ff7f0e;" x="521.165909" xlink:href="#m5220aeef18" y="123.584126"/>
     <use style="fill:#ff7f0e;stroke:#ff7f0e;" x="550.52197" xlink:href="#m5220aeef18" y="128.113636"/>
    </g>
   </g>
   <g id="patch_7">
    <path d="M 242.283333 133.7 
L 242.283333 10.8 
" style="fill:none;stroke:#000000;stroke-linecap:square;stroke-linejoin:miter;stroke-width:0.8;"/>
   </g>
   <g id="patch_8">
    <path d="M 242.283333 133.7 
L 565.2 133.7 
" style="fill:none;stroke:#000000;stroke-linecap:square;stroke-linejoin:miter;stroke-width:0.8;"/>
   </g>
   <g id="legend_2">
    <g id="patch_9">
     <path d="M 403.360937 62.834375 
L 558.2 62.834375 
Q 560.2 62.834375 560.2 60.834375 
L 560.2 17.8 
Q 560.2 15.8 558.2 15.8 
L 403.360937 15.8 
Q 401.360937 15.8 401.360937 17.8 
L 401.360937 60.834375 
Q 401.360937 62.834375 403.360937 62.834375 
z
" style="fill:#ffffff;opacity:0.8;stroke:#cccccc;stroke-linejoin:miter;"/>
    </g>
    <g id="line2d_31">
     <path d="M 405.360937 23.898438 
L 425.360937 23.898438 
" style="fill:none;stroke:#2ca02c;stroke-linecap:square;stroke-width:1.5;"/>
    </g>
    <g id="line2d_32">
     <g>
      <use style="fill:#2ca02c;stroke:#2ca02c;" x="415.360937" xlink:href="#m63526b8d26" y="23.898438"/>
     </g>
    </g>
    <g id="text_26">
     <!-- Ignore noise, l2 distance -->
     <defs>
      <path d="M 9.8125 72.90625 
L 19.671875 72.90625 
L 19.671875 0 
L 9.8125 0 
z
" id="DejaVuSans-73"/>
      <path d="M 41.109375 46.296875 
Q 39.59375 47.171875 37.8125 47.578125 
Q 36.03125 48 33.890625 48 
Q 26.265625 48 22.1875 43.046875 
Q 18.109375 38.09375 18.109375 28.8125 
L 18.109375 0 
L 9.078125 0 
L 9.078125 54.6875 
L 18.109375 54.6875 
L 18.109375 46.1875 
Q 20.953125 51.171875 25.484375 53.578125 
Q 30.03125 56 36.53125 56 
Q 37.453125 56 38.578125 55.875 
Q 39.703125 55.765625 41.0625 55.515625 
z
" id="DejaVuSans-114"/>
      <path d="M 11.71875 12.40625 
L 22.015625 12.40625 
L 22.015625 4 
L 14.015625 -11.625 
L 7.71875 -11.625 
L 11.71875 4 
z
" id="DejaVuSans-44"/>
      <path d="M 48.78125 52.59375 
L 48.78125 44.1875 
Q 44.96875 46.296875 41.140625 47.34375 
Q 37.3125 48.390625 33.40625 48.390625 
Q 24.65625 48.390625 19.8125 42.84375 
Q 14.984375 37.3125 14.984375 27.296875 
Q 14.984375 17.28125 19.8125 11.734375 
Q 24.65625 6.203125 33.40625 6.203125 
Q 37.3125 6.203125 41.140625 7.25 
Q 44.96875 8.296875 48.78125 10.40625 
L 48.78125 2.09375 
Q 45.015625 0.34375 40.984375 -0.53125 
Q 36.96875 -1.421875 32.421875 -1.421875 
Q 20.0625 -1.421875 12.78125 6.34375 
Q 5.515625 14.109375 5.515625 27.296875 
Q 5.515625 40.671875 12.859375 48.328125 
Q 20.21875 56 33.015625 56 
Q 37.15625 56 41.109375 55.140625 
Q 45.0625 54.296875 48.78125 52.59375 
z
" id="DejaVuSans-99"/>
     </defs>
     <g transform="translate(433.360937 27.398438)scale(0.1 -0.1)">
      <use xlink:href="#DejaVuSans-73"/>
      <use x="29.492188" xlink:href="#DejaVuSans-103"/>
      <use x="92.96875" xlink:href="#DejaVuSans-110"/>
      <use x="156.347656" xlink:href="#DejaVuSans-111"/>
      <use x="217.529297" xlink:href="#DejaVuSans-114"/>
      <use x="258.611328" xlink:href="#DejaVuSans-101"/>
      <use x="320.134766" xlink:href="#DejaVuSans-32"/>
      <use x="351.921875" xlink:href="#DejaVuSans-110"/>
      <use x="415.300781" xlink:href="#DejaVuSans-111"/>
      <use x="476.482422" xlink:href="#DejaVuSans-105"/>
      <use x="504.265625" xlink:href="#DejaVuSans-115"/>
      <use x="556.365234" xlink:href="#DejaVuSans-101"/>
      <use x="617.888672" xlink:href="#DejaVuSans-44"/>
      <use x="649.675781" xlink:href="#DejaVuSans-32"/>
      <use x="681.462891" xlink:href="#DejaVuSans-108"/>
      <use x="709.246094" xlink:href="#DejaVuSans-50"/>
      <use x="772.869141" xlink:href="#DejaVuSans-32"/>
      <use x="804.65625" xlink:href="#DejaVuSans-100"/>
      <use x="868.132812" xlink:href="#DejaVuSans-105"/>
      <use x="895.916016" xlink:href="#DejaVuSans-115"/>
      <use x="948.015625" xlink:href="#DejaVuSans-116"/>
      <use x="987.224609" xlink:href="#DejaVuSans-97"/>
      <use x="1048.503906" xlink:href="#DejaVuSans-110"/>
      <use x="1111.882812" xlink:href="#DejaVuSans-99"/>
      <use x="1166.863281" xlink:href="#DejaVuSans-101"/>
     </g>
    </g>
    <g id="line2d_33">
     <path d="M 405.360937 38.576563 
L 425.360937 38.576563 
" style="fill:none;stroke:#9467bd;stroke-linecap:square;stroke-width:1.5;"/>
    </g>
    <g id="line2d_34">
     <g>
      <use style="fill:#9467bd;stroke:#9467bd;" x="415.360937" xlink:href="#m52167cb7eb" y="38.576563"/>
     </g>
    </g>
    <g id="text_27">
     <!-- Ignore noise, l1 distance -->
     <g transform="translate(433.360937 42.076563)scale(0.1 -0.1)">
      <use xlink:href="#DejaVuSans-73"/>
      <use x="29.492188" xlink:href="#DejaVuSans-103"/>
      <use x="92.96875" xlink:href="#DejaVuSans-110"/>
      <use x="156.347656" xlink:href="#DejaVuSans-111"/>
      <use x="217.529297" xlink:href="#DejaVuSans-114"/>
      <use x="258.611328" xlink:href="#DejaVuSans-101"/>
      <use x="320.134766" xlink:href="#DejaVuSans-32"/>
      <use x="351.921875" xlink:href="#DejaVuSans-110"/>
      <use x="415.300781" xlink:href="#DejaVuSans-111"/>
      <use x="476.482422" xlink:href="#DejaVuSans-105"/>
      <use x="504.265625" xlink:href="#DejaVuSans-115"/>
      <use x="556.365234" xlink:href="#DejaVuSans-101"/>
      <use x="617.888672" xlink:href="#DejaVuSans-44"/>
      <use x="649.675781" xlink:href="#DejaVuSans-32"/>
      <use x="681.462891" xlink:href="#DejaVuSans-108"/>
      <use x="709.246094" xlink:href="#DejaVuSans-49"/>
      <use x="772.869141" xlink:href="#DejaVuSans-32"/>
      <use x="804.65625" xlink:href="#DejaVuSans-100"/>
      <use x="868.132812" xlink:href="#DejaVuSans-105"/>
      <use x="895.916016" xlink:href="#DejaVuSans-115"/>
      <use x="948.015625" xlink:href="#DejaVuSans-116"/>
      <use x="987.224609" xlink:href="#DejaVuSans-97"/>
      <use x="1048.503906" xlink:href="#DejaVuSans-110"/>
      <use x="1111.882812" xlink:href="#DejaVuSans-99"/>
      <use x="1166.863281" xlink:href="#DejaVuSans-101"/>
     </g>
    </g>
    <g id="line2d_35">
     <path d="M 405.360937 53.254687 
L 425.360937 53.254687 
" style="fill:none;stroke:#ff7f0e;stroke-linecap:square;stroke-width:1.5;"/>
    </g>
    <g id="line2d_36">
     <g>
      <use style="fill:#ff7f0e;stroke:#ff7f0e;" x="415.360937" xlink:href="#m5220aeef18" y="53.254687"/>
     </g>
    </g>
    <g id="text_28">
     <!-- Noisy model -->
     <defs>
      <path d="M 9.8125 72.90625 
L 23.09375 72.90625 
L 55.421875 11.921875 
L 55.421875 72.90625 
L 64.984375 72.90625 
L 64.984375 0 
L 51.703125 0 
L 19.390625 60.984375 
L 19.390625 0 
L 9.8125 0 
z
" id="DejaVuSans-78"/>
     </defs>
     <g transform="translate(433.360937 56.754687)scale(0.1 -0.1)">
      <use xlink:href="#DejaVuSans-78"/>
      <use x="74.804688" xlink:href="#DejaVuSans-111"/>
      <use x="135.986328" xlink:href="#DejaVuSans-105"/>
      <use x="163.769531" xlink:href="#DejaVuSans-115"/>
      <use x="215.869141" xlink:href="#DejaVuSans-121"/>
      <use x="275.048828" xlink:href="#DejaVuSans-32"/>
      <use x="306.835938" xlink:href="#DejaVuSans-109"/>
      <use x="404.248047" xlink:href="#DejaVuSans-111"/>
      <use x="465.429688" xlink:href="#DejaVuSans-100"/>
      <use x="528.90625" xlink:href="#DejaVuSans-101"/>
      <use x="590.429688" xlink:href="#DejaVuSans-108"/>
     </g>
    </g>
   </g>
  </g>
  <g id="axes_3">
   <g id="patch_10">
    <path d="M 56.925 314.4 
L 194.483333 314.4 
L 194.483333 191.5 
L 56.925 191.5 
z
" style="fill:#ffffff;"/>
   </g>
   <g id="patch_11">
    <path clip-path="url(#pee25f7e2a1)" d="M 63.177652 314.4 
L 66.303977 314.4 
L 66.303977 314.4 
L 63.177652 314.4 
z
" style="fill:#2ca02c;"/>
   </g>
   <g id="patch_12">
    <path clip-path="url(#pee25f7e2a1)" d="M 66.303977 314.4 
L 69.430303 314.4 
L 69.430303 314.4 
L 66.303977 314.4 
z
" style="fill:#2ca02c;"/>
   </g>
   <g id="patch_13">
    <path clip-path="url(#pee25f7e2a1)" d="M 69.430303 314.4 
L 72.556629 314.4 
L 72.556629 314.4 
L 69.430303 314.4 
z
" style="fill:#2ca02c;"/>
   </g>
   <g id="patch_14">
    <path clip-path="url(#pee25f7e2a1)" d="M 72.556629 314.4 
L 75.682955 314.4 
L 75.682955 314.4 
L 72.556629 314.4 
z
" style="fill:#2ca02c;"/>
   </g>
   <g id="patch_15">
    <path clip-path="url(#pee25f7e2a1)" d="M 75.682955 314.4 
L 78.80928 314.4 
L 78.80928 314.4 
L 75.682955 314.4 
z
" style="fill:#2ca02c;"/>
   </g>
   <g id="patch_16">
    <path clip-path="url(#pee25f7e2a1)" d="M 78.80928 314.4 
L 81.935606 314.4 
L 81.935606 314.4 
L 78.80928 314.4 
z
" style="fill:#2ca02c;"/>
   </g>
   <g id="patch_17">
    <path clip-path="url(#pee25f7e2a1)" d="M 81.935606 314.4 
L 85.061932 314.4 
L 85.061932 314.4 
L 81.935606 314.4 
z
" style="fill:#2ca02c;"/>
   </g>
   <g id="patch_18">
    <path clip-path="url(#pee25f7e2a1)" d="M 85.061932 314.4 
L 88.188258 314.4 
L 88.188258 314.4 
L 85.061932 314.4 
z
" style="fill:#2ca02c;"/>
   </g>
   <g id="patch_19">
    <path clip-path="url(#pee25f7e2a1)" d="M 88.188258 314.4 
L 91.314583 314.4 
L 91.314583 314.4 
L 88.188258 314.4 
z
" style="fill:#2ca02c;"/>
   </g>
   <g id="patch_20">
    <path clip-path="url(#pee25f7e2a1)" d="M 91.314583 314.4 
L 94.440909 314.4 
L 94.440909 314.4 
L 91.314583 314.4 
z
" style="fill:#2ca02c;"/>
   </g>
   <g id="patch_21">
    <path clip-path="url(#pee25f7e2a1)" d="M 94.440909 314.4 
L 97.567235 314.4 
L 97.567235 314.4 
L 94.440909 314.4 
z
" style="fill:#2ca02c;"/>
   </g>
   <g id="patch_22">
    <path clip-path="url(#pee25f7e2a1)" d="M 97.567235 314.4 
L 100.693561 314.4 
L 100.693561 314.4 
L 97.567235 314.4 
z
" style="fill:#2ca02c;"/>
   </g>
   <g id="patch_23">
    <path clip-path="url(#pee25f7e2a1)" d="M 100.693561 314.4 
L 103.819886 314.4 
L 103.819886 314.4 
L 100.693561 314.4 
z
" style="fill:#2ca02c;"/>
   </g>
   <g id="patch_24">
    <path clip-path="url(#pee25f7e2a1)" d="M 103.819886 314.4 
L 106.946212 314.4 
L 106.946212 314.4 
L 103.819886 314.4 
z
" style="fill:#2ca02c;"/>
   </g>
   <g id="patch_25">
    <path clip-path="url(#pee25f7e2a1)" d="M 106.946212 314.4 
L 110.072538 314.4 
L 110.072538 314.4 
L 106.946212 314.4 
z
" style="fill:#2ca02c;"/>
   </g>
   <g id="patch_26">
    <path clip-path="url(#pee25f7e2a1)" d="M 110.072538 314.4 
L 113.198864 314.4 
L 113.198864 314.4 
L 110.072538 314.4 
z
" style="fill:#2ca02c;"/>
   </g>
   <g id="patch_27">
    <path clip-path="url(#pee25f7e2a1)" d="M 113.198864 314.4 
L 116.325189 314.4 
L 116.325189 314.4 
L 113.198864 314.4 
z
" style="fill:#2ca02c;"/>
   </g>
   <g id="patch_28">
    <path clip-path="url(#pee25f7e2a1)" d="M 116.325189 314.4 
L 119.451515 314.4 
L 119.451515 314.4 
L 116.325189 314.4 
z
" style="fill:#2ca02c;"/>
   </g>
   <g id="patch_29">
    <path clip-path="url(#pee25f7e2a1)" d="M 119.451515 314.4 
L 122.577841 314.4 
L 122.577841 314.4 
L 119.451515 314.4 
z
" style="fill:#2ca02c;"/>
   </g>
   <g id="patch_30">
    <path clip-path="url(#pee25f7e2a1)" d="M 122.577841 314.4 
L 125.704167 314.4 
L 125.704167 314.4 
L 122.577841 314.4 
z
" style="fill:#2ca02c;"/>
   </g>
   <g id="patch_31">
    <path clip-path="url(#pee25f7e2a1)" d="M 125.704167 314.4 
L 128.830492 314.4 
L 128.830492 314.4 
L 125.704167 314.4 
z
" style="fill:#2ca02c;"/>
   </g>
   <g id="patch_32">
    <path clip-path="url(#pee25f7e2a1)" d="M 128.830492 314.4 
L 131.956818 314.4 
L 131.956818 314.4 
L 128.830492 314.4 
z
" style="fill:#2ca02c;"/>
   </g>
   <g id="patch_33">
    <path clip-path="url(#pee25f7e2a1)" d="M 131.956818 314.4 
L 135.083144 314.4 
L 135.083144 197.352381 
L 131.956818 197.352381 
z
" style="fill:#2ca02c;"/>
   </g>
   <g id="patch_34">
    <path clip-path="url(#pee25f7e2a1)" d="M 135.083144 314.4 
L 138.20947 314.4 
L 138.20947 314.4 
L 135.083144 314.4 
z
" style="fill:#2ca02c;"/>
   </g>
   <g id="patch_35">
    <path clip-path="url(#pee25f7e2a1)" d="M 138.20947 314.4 
L 141.335795 314.4 
L 141.335795 314.4 
L 138.20947 314.4 
z
" style="fill:#2ca02c;"/>
   </g>
   <g id="patch_36">
    <path clip-path="url(#pee25f7e2a1)" d="M 141.335795 314.4 
L 144.462121 314.4 
L 144.462121 314.4 
L 141.335795 314.4 
z
" style="fill:#2ca02c;"/>
   </g>
   <g id="patch_37">
    <path clip-path="url(#pee25f7e2a1)" d="M 144.462121 314.4 
L 147.588447 314.4 
L 147.588447 314.4 
L 144.462121 314.4 
z
" style="fill:#2ca02c;"/>
   </g>
   <g id="patch_38">
    <path clip-path="url(#pee25f7e2a1)" d="M 147.588447 314.4 
L 150.714773 314.4 
L 150.714773 314.4 
L 147.588447 314.4 
z
" style="fill:#2ca02c;"/>
   </g>
   <g id="patch_39">
    <path clip-path="url(#pee25f7e2a1)" d="M 150.714773 314.4 
L 153.841098 314.4 
L 153.841098 314.4 
L 150.714773 314.4 
z
" style="fill:#2ca02c;"/>
   </g>
   <g id="patch_40">
    <path clip-path="url(#pee25f7e2a1)" d="M 153.841098 314.4 
L 156.967424 314.4 
L 156.967424 314.4 
L 153.841098 314.4 
z
" style="fill:#2ca02c;"/>
   </g>
   <g id="patch_41">
    <path clip-path="url(#pee25f7e2a1)" d="M 156.967424 314.4 
L 160.09375 314.4 
L 160.09375 314.4 
L 156.967424 314.4 
z
" style="fill:#2ca02c;"/>
   </g>
   <g id="patch_42">
    <path clip-path="url(#pee25f7e2a1)" d="M 160.09375 314.4 
L 163.220076 314.4 
L 163.220076 314.4 
L 160.09375 314.4 
z
" style="fill:#2ca02c;"/>
   </g>
   <g id="patch_43">
    <path clip-path="url(#pee25f7e2a1)" d="M 163.220076 314.4 
L 166.346402 314.4 
L 166.346402 314.4 
L 163.220076 314.4 
z
" style="fill:#2ca02c;"/>
   </g>
   <g id="patch_44">
    <path clip-path="url(#pee25f7e2a1)" d="M 166.346402 314.4 
L 169.472727 314.4 
L 169.472727 314.4 
L 166.346402 314.4 
z
" style="fill:#2ca02c;"/>
   </g>
   <g id="patch_45">
    <path clip-path="url(#pee25f7e2a1)" d="M 169.472727 314.4 
L 172.599053 314.4 
L 172.599053 314.4 
L 169.472727 314.4 
z
" style="fill:#2ca02c;"/>
   </g>
   <g id="patch_46">
    <path clip-path="url(#pee25f7e2a1)" d="M 172.599053 314.4 
L 175.725379 314.4 
L 175.725379 314.4 
L 172.599053 314.4 
z
" style="fill:#2ca02c;"/>
   </g>
   <g id="patch_47">
    <path clip-path="url(#pee25f7e2a1)" d="M 175.725379 314.4 
L 178.851705 314.4 
L 178.851705 314.4 
L 175.725379 314.4 
z
" style="fill:#2ca02c;"/>
   </g>
   <g id="patch_48">
    <path clip-path="url(#pee25f7e2a1)" d="M 178.851705 314.4 
L 181.97803 314.4 
L 181.97803 314.4 
L 178.851705 314.4 
z
" style="fill:#2ca02c;"/>
   </g>
   <g id="patch_49">
    <path clip-path="url(#pee25f7e2a1)" d="M 181.97803 314.4 
L 185.104356 314.4 
L 185.104356 314.4 
L 181.97803 314.4 
z
" style="fill:#2ca02c;"/>
   </g>
   <g id="patch_50">
    <path clip-path="url(#pee25f7e2a1)" d="M 185.104356 314.4 
L 188.230682 314.4 
L 188.230682 314.4 
L 185.104356 314.4 
z
" style="fill:#2ca02c;"/>
   </g>
   <g id="matplotlib.axis_5">
    <g id="xtick_11">
     <g id="line2d_37">
      <g>
       <use style="stroke:#000000;stroke-width:0.8;" x="82.416579" xlink:href="#m63ec64db61" y="314.4"/>
      </g>
     </g>
     <g id="text_29">
      <!-- 0.055 -->
      <g transform="translate(68.102517 328.998437)scale(0.1 -0.1)">
       <use xlink:href="#DejaVuSans-48"/>
       <use x="63.623047" xlink:href="#DejaVuSans-46"/>
       <use x="95.410156" xlink:href="#DejaVuSans-48"/>
       <use x="159.033203" xlink:href="#DejaVuSans-53"/>
       <use x="222.65625" xlink:href="#DejaVuSans-53"/>
      </g>
     </g>
    </g>
    <g id="xtick_12">
     <g id="line2d_38">
      <g>
       <use style="stroke:#000000;stroke-width:0.8;" x="130.513899" xlink:href="#m63ec64db61" y="314.4"/>
      </g>
     </g>
     <g id="text_30">
      <!-- 0.060 -->
      <g transform="translate(116.199836 328.998437)scale(0.1 -0.1)">
       <use xlink:href="#DejaVuSans-48"/>
       <use x="63.623047" xlink:href="#DejaVuSans-46"/>
       <use x="95.410156" xlink:href="#DejaVuSans-48"/>
       <use x="159.033203" xlink:href="#DejaVuSans-54"/>
       <use x="222.65625" xlink:href="#DejaVuSans-48"/>
      </g>
     </g>
    </g>
    <g id="xtick_13">
     <g id="line2d_39">
      <g>
       <use style="stroke:#000000;stroke-width:0.8;" x="178.611218" xlink:href="#m63ec64db61" y="314.4"/>
      </g>
     </g>
     <g id="text_31">
      <!-- 0.065 -->
      <g transform="translate(164.297155 328.998437)scale(0.1 -0.1)">
       <use xlink:href="#DejaVuSans-48"/>
       <use x="63.623047" xlink:href="#DejaVuSans-46"/>
       <use x="95.410156" xlink:href="#DejaVuSans-48"/>
       <use x="159.033203" xlink:href="#DejaVuSans-54"/>
       <use x="222.65625" xlink:href="#DejaVuSans-53"/>
      </g>
     </g>
    </g>
    <g id="text_32">
     <!-- Parameter $\theta_1$ -->
     <defs>
      <path d="M 45.515625 34.671875 
L 14.453125 34.671875 
Q 12.359375 20.0625 14.5 13.875 
Q 17.1875 6.25 24.46875 6.25 
Q 31.78125 6.25 37.359375 13.921875 
Q 42.234375 20.65625 45.515625 34.671875 
z
M 47.015625 42.96875 
Q 48.34375 56.84375 46.625 61.71875 
Q 43.953125 69.4375 36.765625 69.4375 
Q 29.296875 69.4375 23.828125 61.8125 
Q 19.53125 55.671875 16.15625 42.96875 
z
M 38.1875 76.765625 
Q 49.90625 76.765625 54.59375 66.40625 
Q 59.28125 56.109375 55.71875 37.84375 
Q 52.203125 19.625 43.453125 9.28125 
Q 34.765625 -1.125 23.046875 -1.125 
Q 11.28125 -1.125 6.640625 9.28125 
Q 2 19.625 5.515625 37.84375 
Q 9.078125 56.109375 17.71875 66.40625 
Q 26.421875 76.765625 38.1875 76.765625 
z
" id="DejaVuSans-Oblique-952"/>
     </defs>
     <g transform="translate(92.454167 342.676562)scale(0.1 -0.1)">
      <use transform="translate(0 0.234375)" xlink:href="#DejaVuSans-80"/>
      <use transform="translate(60.302734 0.234375)" xlink:href="#DejaVuSans-97"/>
      <use transform="translate(121.582031 0.234375)" xlink:href="#DejaVuSans-114"/>
      <use transform="translate(162.695312 0.234375)" xlink:href="#DejaVuSans-97"/>
      <use transform="translate(223.974609 0.234375)" xlink:href="#DejaVuSans-109"/>
      <use transform="translate(321.386719 0.234375)" xlink:href="#DejaVuSans-101"/>
      <use transform="translate(382.910156 0.234375)" xlink:href="#DejaVuSans-116"/>
      <use transform="translate(422.119141 0.234375)" xlink:href="#DejaVuSans-101"/>
      <use transform="translate(483.642578 0.234375)" xlink:href="#DejaVuSans-114"/>
      <use transform="translate(524.755859 0.234375)" xlink:href="#DejaVuSans-32"/>
      <use transform="translate(556.542969 0.234375)" xlink:href="#DejaVuSans-Oblique-952"/>
      <use transform="translate(617.724609 -16.171875)scale(0.7)" xlink:href="#DejaVuSans-49"/>
     </g>
    </g>
   </g>
   <g id="matplotlib.axis_6">
    <g id="ytick_10">
     <g id="line2d_40">
      <g>
       <use style="stroke:#000000;stroke-width:0.8;" x="56.925" xlink:href="#m6ac5991fe2" y="314.4"/>
      </g>
     </g>
     <g id="text_33">
      <!-- 0 -->
      <g transform="translate(43.5625 318.199219)scale(0.1 -0.1)">
       <use xlink:href="#DejaVuSans-48"/>
      </g>
     </g>
    </g>
    <g id="ytick_11">
     <g id="line2d_41">
      <g>
       <use style="stroke:#000000;stroke-width:0.8;" x="56.925" xlink:href="#m6ac5991fe2" y="276.359524"/>
      </g>
     </g>
     <g id="text_34">
      <!-- 1000 -->
      <g transform="translate(24.475 280.158743)scale(0.1 -0.1)">
       <use xlink:href="#DejaVuSans-49"/>
       <use x="63.623047" xlink:href="#DejaVuSans-48"/>
       <use x="127.246094" xlink:href="#DejaVuSans-48"/>
       <use x="190.869141" xlink:href="#DejaVuSans-48"/>
      </g>
     </g>
    </g>
    <g id="ytick_12">
     <g id="line2d_42">
      <g>
       <use style="stroke:#000000;stroke-width:0.8;" x="56.925" xlink:href="#m6ac5991fe2" y="238.319048"/>
      </g>
     </g>
     <g id="text_35">
      <!-- 2000 -->
      <g transform="translate(24.475 242.118266)scale(0.1 -0.1)">
       <use xlink:href="#DejaVuSans-50"/>
       <use x="63.623047" xlink:href="#DejaVuSans-48"/>
       <use x="127.246094" xlink:href="#DejaVuSans-48"/>
       <use x="190.869141" xlink:href="#DejaVuSans-48"/>
      </g>
     </g>
    </g>
    <g id="ytick_13">
     <g id="line2d_43">
      <g>
       <use style="stroke:#000000;stroke-width:0.8;" x="56.925" xlink:href="#m6ac5991fe2" y="200.278571"/>
      </g>
     </g>
     <g id="text_36">
      <!-- 3000 -->
      <g transform="translate(24.475 204.07779)scale(0.1 -0.1)">
       <use xlink:href="#DejaVuSans-51"/>
       <use x="63.623047" xlink:href="#DejaVuSans-48"/>
       <use x="127.246094" xlink:href="#DejaVuSans-48"/>
       <use x="190.869141" xlink:href="#DejaVuSans-48"/>
      </g>
     </g>
    </g>
    <g id="text_37">
     <!-- Density -->
     <g transform="translate(18.395312 271.958594)rotate(-90)scale(0.1 -0.1)">
      <use xlink:href="#DejaVuSans-68"/>
      <use x="77.001953" xlink:href="#DejaVuSans-101"/>
      <use x="138.525391" xlink:href="#DejaVuSans-110"/>
      <use x="201.904297" xlink:href="#DejaVuSans-115"/>
      <use x="254.003906" xlink:href="#DejaVuSans-105"/>
      <use x="281.787109" xlink:href="#DejaVuSans-116"/>
      <use x="320.996094" xlink:href="#DejaVuSans-121"/>
     </g>
    </g>
   </g>
   <g id="line2d_44">
    <path clip-path="url(#pee25f7e2a1)" d="M 130.513899 314.4 
L 130.513899 191.5 
" style="fill:none;stroke:#808080;stroke-dasharray:1.5,2.475;stroke-dashoffset:0;stroke-width:1.5;"/>
   </g>
   <g id="line2d_45">
    <path clip-path="url(#pee25f7e2a1)" d="M 63.177652 314.39985 
L 88.313939 314.297764 
L 94.598011 314.07343 
L 99.625268 313.673576 
L 103.395712 313.171612 
L 107.166155 312.449159 
L 110.936598 311.487929 
L 115.335448 310.098327 
L 126.646777 306.325032 
L 129.788813 305.638905 
L 132.302442 305.312514 
L 134.816071 305.208897 
L 137.3297 305.333802 
L 139.843328 305.676099 
L 142.985364 306.368216 
L 146.755807 307.482263 
L 159.952358 311.706789 
L 163.722802 312.570855 
L 167.493245 313.219369 
L 171.892095 313.735141 
L 176.919352 314.082366 
L 183.831832 314.300078 
L 188.230682 314.355959 
L 188.230682 314.355959 
" style="fill:none;stroke:#808080;stroke-dasharray:5.55,2.4;stroke-dashoffset:0;stroke-width:1.5;"/>
   </g>
   <g id="patch_51">
    <path d="M 56.925 314.4 
L 56.925 191.5 
" style="fill:none;stroke:#000000;stroke-linecap:square;stroke-linejoin:miter;stroke-width:0.8;"/>
   </g>
   <g id="patch_52">
    <path d="M 56.925 314.4 
L 194.483333 314.4 
" style="fill:none;stroke:#000000;stroke-linecap:square;stroke-linejoin:miter;stroke-width:0.8;"/>
   </g>
   <g id="text_38">
    <!-- Ignore noise, l2 distance -->
    <g transform="translate(52.000729 185.5)scale(0.12 -0.12)">
     <use xlink:href="#DejaVuSans-73"/>
     <use x="29.492188" xlink:href="#DejaVuSans-103"/>
     <use x="92.96875" xlink:href="#DejaVuSans-110"/>
     <use x="156.347656" xlink:href="#DejaVuSans-111"/>
     <use x="217.529297" xlink:href="#DejaVuSans-114"/>
     <use x="258.611328" xlink:href="#DejaVuSans-101"/>
     <use x="320.134766" xlink:href="#DejaVuSans-32"/>
     <use x="351.921875" xlink:href="#DejaVuSans-110"/>
     <use x="415.300781" xlink:href="#DejaVuSans-111"/>
     <use x="476.482422" xlink:href="#DejaVuSans-105"/>
     <use x="504.265625" xlink:href="#DejaVuSans-115"/>
     <use x="556.365234" xlink:href="#DejaVuSans-101"/>
     <use x="617.888672" xlink:href="#DejaVuSans-44"/>
     <use x="649.675781" xlink:href="#DejaVuSans-32"/>
     <use x="681.462891" xlink:href="#DejaVuSans-108"/>
     <use x="709.246094" xlink:href="#DejaVuSans-50"/>
     <use x="772.869141" xlink:href="#DejaVuSans-32"/>
     <use x="804.65625" xlink:href="#DejaVuSans-100"/>
     <use x="868.132812" xlink:href="#DejaVuSans-105"/>
     <use x="895.916016" xlink:href="#DejaVuSans-115"/>
     <use x="948.015625" xlink:href="#DejaVuSans-116"/>
     <use x="987.224609" xlink:href="#DejaVuSans-97"/>
     <use x="1048.503906" xlink:href="#DejaVuSans-110"/>
     <use x="1111.882812" xlink:href="#DejaVuSans-99"/>
     <use x="1166.863281" xlink:href="#DejaVuSans-101"/>
    </g>
   </g>
  </g>
  <g id="axes_4">
   <g id="patch_53">
    <path d="M 242.283333 314.4 
L 379.841667 314.4 
L 379.841667 191.5 
L 242.283333 191.5 
z
" style="fill:#ffffff;"/>
   </g>
   <g id="patch_54">
    <path clip-path="url(#p4889893c52)" d="M 248.535985 314.4 
L 251.662311 314.4 
L 251.662311 314.4 
L 248.535985 314.4 
z
" style="fill:#9467bd;"/>
   </g>
   <g id="patch_55">
    <path clip-path="url(#p4889893c52)" d="M 251.662311 314.4 
L 254.788636 314.4 
L 254.788636 314.4 
L 251.662311 314.4 
z
" style="fill:#9467bd;"/>
   </g>
   <g id="patch_56">
    <path clip-path="url(#p4889893c52)" d="M 254.788636 314.4 
L 257.914962 314.4 
L 257.914962 314.4 
L 254.788636 314.4 
z
" style="fill:#9467bd;"/>
   </g>
   <g id="patch_57">
    <path clip-path="url(#p4889893c52)" d="M 257.914962 314.4 
L 261.041288 314.4 
L 261.041288 314.4 
L 257.914962 314.4 
z
" style="fill:#9467bd;"/>
   </g>
   <g id="patch_58">
    <path clip-path="url(#p4889893c52)" d="M 261.041288 314.4 
L 264.167614 314.4 
L 264.167614 314.4 
L 261.041288 314.4 
z
" style="fill:#9467bd;"/>
   </g>
   <g id="patch_59">
    <path clip-path="url(#p4889893c52)" d="M 264.167614 314.4 
L 267.293939 314.4 
L 267.293939 314.4 
L 264.167614 314.4 
z
" style="fill:#9467bd;"/>
   </g>
   <g id="patch_60">
    <path clip-path="url(#p4889893c52)" d="M 267.293939 314.4 
L 270.420265 314.4 
L 270.420265 314.4 
L 267.293939 314.4 
z
" style="fill:#9467bd;"/>
   </g>
   <g id="patch_61">
    <path clip-path="url(#p4889893c52)" d="M 270.420265 314.4 
L 273.546591 314.4 
L 273.546591 314.4 
L 270.420265 314.4 
z
" style="fill:#9467bd;"/>
   </g>
   <g id="patch_62">
    <path clip-path="url(#p4889893c52)" d="M 273.546591 314.4 
L 276.672917 314.4 
L 276.672917 314.4 
L 273.546591 314.4 
z
" style="fill:#9467bd;"/>
   </g>
   <g id="patch_63">
    <path clip-path="url(#p4889893c52)" d="M 276.672917 314.4 
L 279.799242 314.4 
L 279.799242 314.4 
L 276.672917 314.4 
z
" style="fill:#9467bd;"/>
   </g>
   <g id="patch_64">
    <path clip-path="url(#p4889893c52)" d="M 279.799242 314.4 
L 282.925568 314.4 
L 282.925568 314.4 
L 279.799242 314.4 
z
" style="fill:#9467bd;"/>
   </g>
   <g id="patch_65">
    <path clip-path="url(#p4889893c52)" d="M 282.925568 314.4 
L 286.051894 314.4 
L 286.051894 314.4 
L 282.925568 314.4 
z
" style="fill:#9467bd;"/>
   </g>
   <g id="patch_66">
    <path clip-path="url(#p4889893c52)" d="M 286.051894 314.4 
L 289.17822 314.4 
L 289.17822 314.4 
L 286.051894 314.4 
z
" style="fill:#9467bd;"/>
   </g>
   <g id="patch_67">
    <path clip-path="url(#p4889893c52)" d="M 289.17822 314.4 
L 292.304545 314.4 
L 292.304545 314.4 
L 289.17822 314.4 
z
" style="fill:#9467bd;"/>
   </g>
   <g id="patch_68">
    <path clip-path="url(#p4889893c52)" d="M 292.304545 314.4 
L 295.430871 314.4 
L 295.430871 314.4 
L 292.304545 314.4 
z
" style="fill:#9467bd;"/>
   </g>
   <g id="patch_69">
    <path clip-path="url(#p4889893c52)" d="M 295.430871 314.4 
L 298.557197 314.4 
L 298.557197 314.4 
L 295.430871 314.4 
z
" style="fill:#9467bd;"/>
   </g>
   <g id="patch_70">
    <path clip-path="url(#p4889893c52)" d="M 298.557197 314.4 
L 301.683523 314.4 
L 301.683523 314.4 
L 298.557197 314.4 
z
" style="fill:#9467bd;"/>
   </g>
   <g id="patch_71">
    <path clip-path="url(#p4889893c52)" d="M 301.683523 314.4 
L 304.809848 314.4 
L 304.809848 197.352381 
L 301.683523 197.352381 
z
" style="fill:#9467bd;"/>
   </g>
   <g id="patch_72">
    <path clip-path="url(#p4889893c52)" d="M 304.809848 314.4 
L 307.936174 314.4 
L 307.936174 314.4 
L 304.809848 314.4 
z
" style="fill:#9467bd;"/>
   </g>
   <g id="patch_73">
    <path clip-path="url(#p4889893c52)" d="M 307.936174 314.4 
L 311.0625 314.4 
L 311.0625 314.4 
L 307.936174 314.4 
z
" style="fill:#9467bd;"/>
   </g>
   <g id="patch_74">
    <path clip-path="url(#p4889893c52)" d="M 311.0625 314.4 
L 314.188826 314.4 
L 314.188826 314.4 
L 311.0625 314.4 
z
" style="fill:#9467bd;"/>
   </g>
   <g id="patch_75">
    <path clip-path="url(#p4889893c52)" d="M 314.188826 314.4 
L 317.315152 314.4 
L 317.315152 314.4 
L 314.188826 314.4 
z
" style="fill:#9467bd;"/>
   </g>
   <g id="patch_76">
    <path clip-path="url(#p4889893c52)" d="M 317.315152 314.4 
L 320.441477 314.4 
L 320.441477 314.4 
L 317.315152 314.4 
z
" style="fill:#9467bd;"/>
   </g>
   <g id="patch_77">
    <path clip-path="url(#p4889893c52)" d="M 320.441477 314.4 
L 323.567803 314.4 
L 323.567803 314.4 
L 320.441477 314.4 
z
" style="fill:#9467bd;"/>
   </g>
   <g id="patch_78">
    <path clip-path="url(#p4889893c52)" d="M 323.567803 314.4 
L 326.694129 314.4 
L 326.694129 314.4 
L 323.567803 314.4 
z
" style="fill:#9467bd;"/>
   </g>
   <g id="patch_79">
    <path clip-path="url(#p4889893c52)" d="M 326.694129 314.4 
L 329.820455 314.4 
L 329.820455 314.4 
L 326.694129 314.4 
z
" style="fill:#9467bd;"/>
   </g>
   <g id="patch_80">
    <path clip-path="url(#p4889893c52)" d="M 329.820455 314.4 
L 332.94678 314.4 
L 332.94678 314.4 
L 329.820455 314.4 
z
" style="fill:#9467bd;"/>
   </g>
   <g id="patch_81">
    <path clip-path="url(#p4889893c52)" d="M 332.94678 314.4 
L 336.073106 314.4 
L 336.073106 314.4 
L 332.94678 314.4 
z
" style="fill:#9467bd;"/>
   </g>
   <g id="patch_82">
    <path clip-path="url(#p4889893c52)" d="M 336.073106 314.4 
L 339.199432 314.4 
L 339.199432 314.4 
L 336.073106 314.4 
z
" style="fill:#9467bd;"/>
   </g>
   <g id="patch_83">
    <path clip-path="url(#p4889893c52)" d="M 339.199432 314.4 
L 342.325758 314.4 
L 342.325758 314.4 
L 339.199432 314.4 
z
" style="fill:#9467bd;"/>
   </g>
   <g id="patch_84">
    <path clip-path="url(#p4889893c52)" d="M 342.325758 314.4 
L 345.452083 314.4 
L 345.452083 314.4 
L 342.325758 314.4 
z
" style="fill:#9467bd;"/>
   </g>
   <g id="patch_85">
    <path clip-path="url(#p4889893c52)" d="M 345.452083 314.4 
L 348.578409 314.4 
L 348.578409 314.4 
L 345.452083 314.4 
z
" style="fill:#9467bd;"/>
   </g>
   <g id="patch_86">
    <path clip-path="url(#p4889893c52)" d="M 348.578409 314.4 
L 351.704735 314.4 
L 351.704735 314.4 
L 348.578409 314.4 
z
" style="fill:#9467bd;"/>
   </g>
   <g id="patch_87">
    <path clip-path="url(#p4889893c52)" d="M 351.704735 314.4 
L 354.831061 314.4 
L 354.831061 314.4 
L 351.704735 314.4 
z
" style="fill:#9467bd;"/>
   </g>
   <g id="patch_88">
    <path clip-path="url(#p4889893c52)" d="M 354.831061 314.4 
L 357.957386 314.4 
L 357.957386 314.4 
L 354.831061 314.4 
z
" style="fill:#9467bd;"/>
   </g>
   <g id="patch_89">
    <path clip-path="url(#p4889893c52)" d="M 357.957386 314.4 
L 361.083712 314.4 
L 361.083712 314.4 
L 357.957386 314.4 
z
" style="fill:#9467bd;"/>
   </g>
   <g id="patch_90">
    <path clip-path="url(#p4889893c52)" d="M 361.083712 314.4 
L 364.210038 314.4 
L 364.210038 314.4 
L 361.083712 314.4 
z
" style="fill:#9467bd;"/>
   </g>
   <g id="patch_91">
    <path clip-path="url(#p4889893c52)" d="M 364.210038 314.4 
L 367.336364 314.4 
L 367.336364 314.4 
L 364.210038 314.4 
z
" style="fill:#9467bd;"/>
   </g>
   <g id="patch_92">
    <path clip-path="url(#p4889893c52)" d="M 367.336364 314.4 
L 370.462689 314.4 
L 370.462689 314.4 
L 367.336364 314.4 
z
" style="fill:#9467bd;"/>
   </g>
   <g id="patch_93">
    <path clip-path="url(#p4889893c52)" d="M 370.462689 314.4 
L 373.589015 314.4 
L 373.589015 314.4 
L 370.462689 314.4 
z
" style="fill:#9467bd;"/>
   </g>
   <g id="matplotlib.axis_7">
    <g id="xtick_14">
     <g id="line2d_46">
      <g>
       <use style="stroke:#000000;stroke-width:0.8;" x="267.774913" xlink:href="#m63ec64db61" y="314.4"/>
      </g>
     </g>
     <g id="text_39">
      <!-- 0.055 -->
      <g transform="translate(253.46085 328.998437)scale(0.1 -0.1)">
       <use xlink:href="#DejaVuSans-48"/>
       <use x="63.623047" xlink:href="#DejaVuSans-46"/>
       <use x="95.410156" xlink:href="#DejaVuSans-48"/>
       <use x="159.033203" xlink:href="#DejaVuSans-53"/>
       <use x="222.65625" xlink:href="#DejaVuSans-53"/>
      </g>
     </g>
    </g>
    <g id="xtick_15">
     <g id="line2d_47">
      <g>
       <use style="stroke:#000000;stroke-width:0.8;" x="315.872232" xlink:href="#m63ec64db61" y="314.4"/>
      </g>
     </g>
     <g id="text_40">
      <!-- 0.060 -->
      <g transform="translate(301.558169 328.998437)scale(0.1 -0.1)">
       <use xlink:href="#DejaVuSans-48"/>
       <use x="63.623047" xlink:href="#DejaVuSans-46"/>
       <use x="95.410156" xlink:href="#DejaVuSans-48"/>
       <use x="159.033203" xlink:href="#DejaVuSans-54"/>
       <use x="222.65625" xlink:href="#DejaVuSans-48"/>
      </g>
     </g>
    </g>
    <g id="xtick_16">
     <g id="line2d_48">
      <g>
       <use style="stroke:#000000;stroke-width:0.8;" x="363.969551" xlink:href="#m63ec64db61" y="314.4"/>
      </g>
     </g>
     <g id="text_41">
      <!-- 0.065 -->
      <g transform="translate(349.655489 328.998437)scale(0.1 -0.1)">
       <use xlink:href="#DejaVuSans-48"/>
       <use x="63.623047" xlink:href="#DejaVuSans-46"/>
       <use x="95.410156" xlink:href="#DejaVuSans-48"/>
       <use x="159.033203" xlink:href="#DejaVuSans-54"/>
       <use x="222.65625" xlink:href="#DejaVuSans-53"/>
      </g>
     </g>
    </g>
    <g id="text_42">
     <!-- Parameter $\theta_1$ -->
     <g transform="translate(277.8125 342.676562)scale(0.1 -0.1)">
      <use transform="translate(0 0.234375)" xlink:href="#DejaVuSans-80"/>
      <use transform="translate(60.302734 0.234375)" xlink:href="#DejaVuSans-97"/>
      <use transform="translate(121.582031 0.234375)" xlink:href="#DejaVuSans-114"/>
      <use transform="translate(162.695312 0.234375)" xlink:href="#DejaVuSans-97"/>
      <use transform="translate(223.974609 0.234375)" xlink:href="#DejaVuSans-109"/>
      <use transform="translate(321.386719 0.234375)" xlink:href="#DejaVuSans-101"/>
      <use transform="translate(382.910156 0.234375)" xlink:href="#DejaVuSans-116"/>
      <use transform="translate(422.119141 0.234375)" xlink:href="#DejaVuSans-101"/>
      <use transform="translate(483.642578 0.234375)" xlink:href="#DejaVuSans-114"/>
      <use transform="translate(524.755859 0.234375)" xlink:href="#DejaVuSans-32"/>
      <use transform="translate(556.542969 0.234375)" xlink:href="#DejaVuSans-Oblique-952"/>
      <use transform="translate(617.724609 -16.171875)scale(0.7)" xlink:href="#DejaVuSans-49"/>
     </g>
    </g>
   </g>
   <g id="matplotlib.axis_8">
    <g id="ytick_14">
     <g id="line2d_49">
      <g>
       <use style="stroke:#000000;stroke-width:0.8;" x="242.283333" xlink:href="#m6ac5991fe2" y="314.4"/>
      </g>
     </g>
     <g id="text_43">
      <!-- 0 -->
      <g transform="translate(228.920833 318.199219)scale(0.1 -0.1)">
       <use xlink:href="#DejaVuSans-48"/>
      </g>
     </g>
    </g>
    <g id="ytick_15">
     <g id="line2d_50">
      <g>
       <use style="stroke:#000000;stroke-width:0.8;" x="242.283333" xlink:href="#m6ac5991fe2" y="276.359524"/>
      </g>
     </g>
     <g id="text_44">
      <!-- 1000 -->
      <g transform="translate(209.833333 280.158743)scale(0.1 -0.1)">
       <use xlink:href="#DejaVuSans-49"/>
       <use x="63.623047" xlink:href="#DejaVuSans-48"/>
       <use x="127.246094" xlink:href="#DejaVuSans-48"/>
       <use x="190.869141" xlink:href="#DejaVuSans-48"/>
      </g>
     </g>
    </g>
    <g id="ytick_16">
     <g id="line2d_51">
      <g>
       <use style="stroke:#000000;stroke-width:0.8;" x="242.283333" xlink:href="#m6ac5991fe2" y="238.319048"/>
      </g>
     </g>
     <g id="text_45">
      <!-- 2000 -->
      <g transform="translate(209.833333 242.118266)scale(0.1 -0.1)">
       <use xlink:href="#DejaVuSans-50"/>
       <use x="63.623047" xlink:href="#DejaVuSans-48"/>
       <use x="127.246094" xlink:href="#DejaVuSans-48"/>
       <use x="190.869141" xlink:href="#DejaVuSans-48"/>
      </g>
     </g>
    </g>
    <g id="ytick_17">
     <g id="line2d_52">
      <g>
       <use style="stroke:#000000;stroke-width:0.8;" x="242.283333" xlink:href="#m6ac5991fe2" y="200.278571"/>
      </g>
     </g>
     <g id="text_46">
      <!-- 3000 -->
      <g transform="translate(209.833333 204.07779)scale(0.1 -0.1)">
       <use xlink:href="#DejaVuSans-51"/>
       <use x="63.623047" xlink:href="#DejaVuSans-48"/>
       <use x="127.246094" xlink:href="#DejaVuSans-48"/>
       <use x="190.869141" xlink:href="#DejaVuSans-48"/>
      </g>
     </g>
    </g>
   </g>
   <g id="line2d_53">
    <path clip-path="url(#p4889893c52)" d="M 315.872232 314.4 
L 315.872232 191.5 
" style="fill:none;stroke:#808080;stroke-dasharray:1.5,2.475;stroke-dashoffset:0;stroke-width:1.5;"/>
   </g>
   <g id="line2d_54">
    <path clip-path="url(#p4889893c52)" d="M 248.535985 314.39985 
L 273.672272 314.297764 
L 279.956344 314.07343 
L 284.983602 313.673576 
L 288.754045 313.171612 
L 292.524488 312.449159 
L 296.294931 311.487929 
L 300.693781 310.098327 
L 312.005111 306.325032 
L 315.147147 305.638905 
L 317.660775 305.312514 
L 320.174404 305.208897 
L 322.688033 305.333802 
L 325.201662 305.676099 
L 328.343698 306.368216 
L 332.114141 307.482263 
L 345.310692 311.706789 
L 349.081135 312.570855 
L 352.851578 313.219369 
L 357.250428 313.735141 
L 362.277686 314.082366 
L 369.190165 314.300078 
L 373.589015 314.355959 
L 373.589015 314.355959 
" style="fill:none;stroke:#808080;stroke-dasharray:5.55,2.4;stroke-dashoffset:0;stroke-width:1.5;"/>
   </g>
   <g id="patch_94">
    <path d="M 242.283333 314.4 
L 242.283333 191.5 
" style="fill:none;stroke:#000000;stroke-linecap:square;stroke-linejoin:miter;stroke-width:0.8;"/>
   </g>
   <g id="patch_95">
    <path d="M 242.283333 314.4 
L 379.841667 314.4 
" style="fill:none;stroke:#000000;stroke-linecap:square;stroke-linejoin:miter;stroke-width:0.8;"/>
   </g>
   <g id="text_47">
    <!-- Ignore noise, l1 distance -->
    <g transform="translate(237.359062 185.5)scale(0.12 -0.12)">
     <use xlink:href="#DejaVuSans-73"/>
     <use x="29.492188" xlink:href="#DejaVuSans-103"/>
     <use x="92.96875" xlink:href="#DejaVuSans-110"/>
     <use x="156.347656" xlink:href="#DejaVuSans-111"/>
     <use x="217.529297" xlink:href="#DejaVuSans-114"/>
     <use x="258.611328" xlink:href="#DejaVuSans-101"/>
     <use x="320.134766" xlink:href="#DejaVuSans-32"/>
     <use x="351.921875" xlink:href="#DejaVuSans-110"/>
     <use x="415.300781" xlink:href="#DejaVuSans-111"/>
     <use x="476.482422" xlink:href="#DejaVuSans-105"/>
     <use x="504.265625" xlink:href="#DejaVuSans-115"/>
     <use x="556.365234" xlink:href="#DejaVuSans-101"/>
     <use x="617.888672" xlink:href="#DejaVuSans-44"/>
     <use x="649.675781" xlink:href="#DejaVuSans-32"/>
     <use x="681.462891" xlink:href="#DejaVuSans-108"/>
     <use x="709.246094" xlink:href="#DejaVuSans-49"/>
     <use x="772.869141" xlink:href="#DejaVuSans-32"/>
     <use x="804.65625" xlink:href="#DejaVuSans-100"/>
     <use x="868.132812" xlink:href="#DejaVuSans-105"/>
     <use x="895.916016" xlink:href="#DejaVuSans-115"/>
     <use x="948.015625" xlink:href="#DejaVuSans-116"/>
     <use x="987.224609" xlink:href="#DejaVuSans-97"/>
     <use x="1048.503906" xlink:href="#DejaVuSans-110"/>
     <use x="1111.882812" xlink:href="#DejaVuSans-99"/>
     <use x="1166.863281" xlink:href="#DejaVuSans-101"/>
    </g>
   </g>
  </g>
  <g id="axes_5">
   <g id="patch_96">
    <path d="M 427.641667 314.4 
L 565.2 314.4 
L 565.2 191.5 
L 427.641667 191.5 
z
" style="fill:#ffffff;"/>
   </g>
   <g id="patch_97">
    <path clip-path="url(#pd19455c190)" d="M 433.894318 314.4 
L 437.020644 314.4 
L 437.020644 314.4 
L 433.894318 314.4 
z
" style="fill:#ff7f0e;"/>
   </g>
   <g id="patch_98">
    <path clip-path="url(#pd19455c190)" d="M 437.020644 314.4 
L 440.14697 314.4 
L 440.14697 314.4 
L 437.020644 314.4 
z
" style="fill:#ff7f0e;"/>
   </g>
   <g id="patch_99">
    <path clip-path="url(#pd19455c190)" d="M 440.14697 314.4 
L 443.273295 314.4 
L 443.273295 314.4 
L 440.14697 314.4 
z
" style="fill:#ff7f0e;"/>
   </g>
   <g id="patch_100">
    <path clip-path="url(#pd19455c190)" d="M 443.273295 314.4 
L 446.399621 314.4 
L 446.399621 314.4 
L 443.273295 314.4 
z
" style="fill:#ff7f0e;"/>
   </g>
   <g id="patch_101">
    <path clip-path="url(#pd19455c190)" d="M 446.399621 314.4 
L 449.525947 314.4 
L 449.525947 311.754989 
L 446.399621 311.754989 
z
" style="fill:#ff7f0e;"/>
   </g>
   <g id="patch_102">
    <path clip-path="url(#pd19455c190)" d="M 449.525947 314.4 
L 452.652273 314.4 
L 452.652273 314.4 
L 449.525947 314.4 
z
" style="fill:#ff7f0e;"/>
   </g>
   <g id="patch_103">
    <path clip-path="url(#pd19455c190)" d="M 452.652273 314.4 
L 455.778598 314.4 
L 455.778598 312.783704 
L 452.652273 312.783704 
z
" style="fill:#ff7f0e;"/>
   </g>
   <g id="patch_104">
    <path clip-path="url(#pd19455c190)" d="M 455.778598 314.4 
L 458.904924 314.4 
L 458.904924 311.179133 
L 455.778598 311.179133 
z
" style="fill:#ff7f0e;"/>
   </g>
   <g id="patch_105">
    <path clip-path="url(#pd19455c190)" d="M 458.904924 314.4 
L 462.03125 314.4 
L 462.03125 310.239188 
L 458.904924 310.239188 
z
" style="fill:#ff7f0e;"/>
   </g>
   <g id="patch_106">
    <path clip-path="url(#pd19455c190)" d="M 462.03125 314.4 
L 465.157576 314.4 
L 465.157576 308.712415 
L 462.03125 308.712415 
z
" style="fill:#ff7f0e;"/>
   </g>
   <g id="patch_107">
    <path clip-path="url(#pd19455c190)" d="M 465.157576 314.4 
L 468.283902 314.4 
L 468.283902 306.432457 
L 465.157576 306.432457 
z
" style="fill:#ff7f0e;"/>
   </g>
   <g id="patch_108">
    <path clip-path="url(#pd19455c190)" d="M 468.283902 314.4 
L 471.410227 314.4 
L 471.410227 302.71334 
L 468.283902 302.71334 
z
" style="fill:#ff7f0e;"/>
   </g>
   <g id="patch_109">
    <path clip-path="url(#pd19455c190)" d="M 471.410227 314.4 
L 474.536553 314.4 
L 474.536553 293.680297 
L 471.410227 293.680297 
z
" style="fill:#ff7f0e;"/>
   </g>
   <g id="patch_110">
    <path clip-path="url(#pd19455c190)" d="M 474.536553 314.4 
L 477.662879 314.4 
L 477.662879 282.407959 
L 474.536553 282.407959 
z
" style="fill:#ff7f0e;"/>
   </g>
   <g id="patch_111">
    <path clip-path="url(#pd19455c190)" d="M 477.662879 314.4 
L 480.789205 314.4 
L 480.789205 281.798844 
L 477.662879 281.798844 
z
" style="fill:#ff7f0e;"/>
   </g>
   <g id="patch_112">
    <path clip-path="url(#pd19455c190)" d="M 480.789205 314.4 
L 483.91553 314.4 
L 483.91553 266.215713 
L 480.789205 266.215713 
z
" style="fill:#ff7f0e;"/>
   </g>
   <g id="patch_113">
    <path clip-path="url(#pd19455c190)" d="M 483.91553 314.4 
L 487.041856 314.4 
L 487.041856 260.137958 
L 483.91553 260.137958 
z
" style="fill:#ff7f0e;"/>
   </g>
   <g id="patch_114">
    <path clip-path="url(#pd19455c190)" d="M 487.041856 314.4 
L 490.168182 314.4 
L 490.168182 247.719338 
L 487.041856 247.719338 
z
" style="fill:#ff7f0e;"/>
   </g>
   <g id="patch_115">
    <path clip-path="url(#pd19455c190)" d="M 490.168182 314.4 
L 493.294508 314.4 
L 493.294508 238.749232 
L 490.168182 238.749232 
z
" style="fill:#ff7f0e;"/>
   </g>
   <g id="patch_116">
    <path clip-path="url(#pd19455c190)" d="M 493.294508 314.4 
L 496.420833 314.4 
L 496.420833 231.408165 
L 493.294508 231.408165 
z
" style="fill:#ff7f0e;"/>
   </g>
   <g id="patch_117">
    <path clip-path="url(#pd19455c190)" d="M 496.420833 314.4 
L 499.547159 314.4 
L 499.547159 222.150698 
L 496.420833 222.150698 
z
" style="fill:#ff7f0e;"/>
   </g>
   <g id="patch_118">
    <path clip-path="url(#pd19455c190)" d="M 499.547159 314.4 
L 502.673485 314.4 
L 502.673485 214.596811 
L 499.547159 214.596811 
z
" style="fill:#ff7f0e;"/>
   </g>
   <g id="patch_119">
    <path clip-path="url(#pd19455c190)" d="M 502.673485 314.4 
L 505.799811 314.4 
L 505.799811 216.223571 
L 502.673485 216.223571 
z
" style="fill:#ff7f0e;"/>
   </g>
   <g id="patch_120">
    <path clip-path="url(#pd19455c190)" d="M 505.799811 314.4 
L 508.926136 314.4 
L 508.926136 212.366055 
L 505.799811 212.366055 
z
" style="fill:#ff7f0e;"/>
   </g>
   <g id="patch_121">
    <path clip-path="url(#pd19455c190)" d="M 508.926136 314.4 
L 512.052462 314.4 
L 512.052462 222.246006 
L 508.926136 222.246006 
z
" style="fill:#ff7f0e;"/>
   </g>
   <g id="patch_122">
    <path clip-path="url(#pd19455c190)" d="M 512.052462 314.4 
L 515.178788 314.4 
L 515.178788 215.716509 
L 512.052462 215.716509 
z
" style="fill:#ff7f0e;"/>
   </g>
   <g id="patch_123">
    <path clip-path="url(#pd19455c190)" d="M 515.178788 314.4 
L 518.305114 314.4 
L 518.305114 228.208037 
L 515.178788 228.208037 
z
" style="fill:#ff7f0e;"/>
   </g>
   <g id="patch_124">
    <path clip-path="url(#pd19455c190)" d="M 518.305114 314.4 
L 521.431439 314.4 
L 521.431439 241.123544 
L 518.305114 241.123544 
z
" style="fill:#ff7f0e;"/>
   </g>
   <g id="patch_125">
    <path clip-path="url(#pd19455c190)" d="M 521.431439 314.4 
L 524.557765 314.4 
L 524.557765 251.071406 
L 521.431439 251.071406 
z
" style="fill:#ff7f0e;"/>
   </g>
   <g id="patch_126">
    <path clip-path="url(#pd19455c190)" d="M 524.557765 314.4 
L 527.684091 314.4 
L 527.684091 259.725834 
L 524.557765 259.725834 
z
" style="fill:#ff7f0e;"/>
   </g>
   <g id="patch_127">
    <path clip-path="url(#pd19455c190)" d="M 527.684091 314.4 
L 530.810417 314.4 
L 530.810417 272.567721 
L 527.684091 272.567721 
z
" style="fill:#ff7f0e;"/>
   </g>
   <g id="patch_128">
    <path clip-path="url(#pd19455c190)" d="M 530.810417 314.4 
L 533.936742 314.4 
L 533.936742 279.019181 
L 530.810417 279.019181 
z
" style="fill:#ff7f0e;"/>
   </g>
   <g id="patch_129">
    <path clip-path="url(#pd19455c190)" d="M 533.936742 314.4 
L 537.063068 314.4 
L 537.063068 282.496951 
L 533.936742 282.496951 
z
" style="fill:#ff7f0e;"/>
   </g>
   <g id="patch_130">
    <path clip-path="url(#pd19455c190)" d="M 537.063068 314.4 
L 540.189394 314.4 
L 540.189394 290.444879 
L 537.063068 290.444879 
z
" style="fill:#ff7f0e;"/>
   </g>
   <g id="patch_131">
    <path clip-path="url(#pd19455c190)" d="M 540.189394 314.4 
L 543.31572 314.4 
L 543.31572 303.852198 
L 540.189394 303.852198 
z
" style="fill:#ff7f0e;"/>
   </g>
   <g id="patch_132">
    <path clip-path="url(#pd19455c190)" d="M 543.31572 314.4 
L 546.442045 314.4 
L 546.442045 300.01954 
L 543.31572 300.01954 
z
" style="fill:#ff7f0e;"/>
   </g>
   <g id="patch_133">
    <path clip-path="url(#pd19455c190)" d="M 546.442045 314.4 
L 549.568371 314.4 
L 549.568371 302.962145 
L 546.442045 302.962145 
z
" style="fill:#ff7f0e;"/>
   </g>
   <g id="patch_134">
    <path clip-path="url(#pd19455c190)" d="M 549.568371 314.4 
L 552.694697 314.4 
L 552.694697 307.72611 
L 549.568371 307.72611 
z
" style="fill:#ff7f0e;"/>
   </g>
   <g id="patch_135">
    <path clip-path="url(#pd19455c190)" d="M 552.694697 314.4 
L 555.821023 314.4 
L 555.821023 312.614876 
L 552.694697 312.614876 
z
" style="fill:#ff7f0e;"/>
   </g>
   <g id="patch_136">
    <path clip-path="url(#pd19455c190)" d="M 555.821023 314.4 
L 558.947348 314.4 
L 558.947348 312.347527 
L 555.821023 312.347527 
z
" style="fill:#ff7f0e;"/>
   </g>
   <g id="matplotlib.axis_9">
    <g id="xtick_17">
     <g id="line2d_55">
      <g>
       <use style="stroke:#000000;stroke-width:0.8;" x="453.133246" xlink:href="#m63ec64db61" y="314.4"/>
      </g>
     </g>
     <g id="text_48">
      <!-- 0.055 -->
      <g transform="translate(438.819183 328.998437)scale(0.1 -0.1)">
       <use xlink:href="#DejaVuSans-48"/>
       <use x="63.623047" xlink:href="#DejaVuSans-46"/>
       <use x="95.410156" xlink:href="#DejaVuSans-48"/>
       <use x="159.033203" xlink:href="#DejaVuSans-53"/>
       <use x="222.65625" xlink:href="#DejaVuSans-53"/>
      </g>
     </g>
    </g>
    <g id="xtick_18">
     <g id="line2d_56">
      <g>
       <use style="stroke:#000000;stroke-width:0.8;" x="501.230565" xlink:href="#m63ec64db61" y="314.4"/>
      </g>
     </g>
     <g id="text_49">
      <!-- 0.060 -->
      <g transform="translate(486.916503 328.998437)scale(0.1 -0.1)">
       <use xlink:href="#DejaVuSans-48"/>
       <use x="63.623047" xlink:href="#DejaVuSans-46"/>
       <use x="95.410156" xlink:href="#DejaVuSans-48"/>
       <use x="159.033203" xlink:href="#DejaVuSans-54"/>
       <use x="222.65625" xlink:href="#DejaVuSans-48"/>
      </g>
     </g>
    </g>
    <g id="xtick_19">
     <g id="line2d_57">
      <g>
       <use style="stroke:#000000;stroke-width:0.8;" x="549.327885" xlink:href="#m63ec64db61" y="314.4"/>
      </g>
     </g>
     <g id="text_50">
      <!-- 0.065 -->
      <g transform="translate(535.013822 328.998437)scale(0.1 -0.1)">
       <use xlink:href="#DejaVuSans-48"/>
       <use x="63.623047" xlink:href="#DejaVuSans-46"/>
       <use x="95.410156" xlink:href="#DejaVuSans-48"/>
       <use x="159.033203" xlink:href="#DejaVuSans-54"/>
       <use x="222.65625" xlink:href="#DejaVuSans-53"/>
      </g>
     </g>
    </g>
    <g id="text_51">
     <!-- Parameter $\theta_1$ -->
     <g transform="translate(463.170833 342.676562)scale(0.1 -0.1)">
      <use transform="translate(0 0.234375)" xlink:href="#DejaVuSans-80"/>
      <use transform="translate(60.302734 0.234375)" xlink:href="#DejaVuSans-97"/>
      <use transform="translate(121.582031 0.234375)" xlink:href="#DejaVuSans-114"/>
      <use transform="translate(162.695312 0.234375)" xlink:href="#DejaVuSans-97"/>
      <use transform="translate(223.974609 0.234375)" xlink:href="#DejaVuSans-109"/>
      <use transform="translate(321.386719 0.234375)" xlink:href="#DejaVuSans-101"/>
      <use transform="translate(382.910156 0.234375)" xlink:href="#DejaVuSans-116"/>
      <use transform="translate(422.119141 0.234375)" xlink:href="#DejaVuSans-101"/>
      <use transform="translate(483.642578 0.234375)" xlink:href="#DejaVuSans-114"/>
      <use transform="translate(524.755859 0.234375)" xlink:href="#DejaVuSans-32"/>
      <use transform="translate(556.542969 0.234375)" xlink:href="#DejaVuSans-Oblique-952"/>
      <use transform="translate(617.724609 -16.171875)scale(0.7)" xlink:href="#DejaVuSans-49"/>
     </g>
    </g>
   </g>
   <g id="matplotlib.axis_10">
    <g id="ytick_18">
     <g id="line2d_58">
      <g>
       <use style="stroke:#000000;stroke-width:0.8;" x="427.641667" xlink:href="#m6ac5991fe2" y="314.4"/>
      </g>
     </g>
     <g id="text_52">
      <!-- 0 -->
      <g transform="translate(414.279167 318.199219)scale(0.1 -0.1)">
       <use xlink:href="#DejaVuSans-48"/>
      </g>
     </g>
    </g>
    <g id="ytick_19">
     <g id="line2d_59">
      <g>
       <use style="stroke:#000000;stroke-width:0.8;" x="427.641667" xlink:href="#m6ac5991fe2" y="290.17795"/>
      </g>
     </g>
     <g id="text_53">
      <!-- 50 -->
      <g transform="translate(407.916667 293.977169)scale(0.1 -0.1)">
       <use xlink:href="#DejaVuSans-53"/>
       <use x="63.623047" xlink:href="#DejaVuSans-48"/>
      </g>
     </g>
    </g>
    <g id="ytick_20">
     <g id="line2d_60">
      <g>
       <use style="stroke:#000000;stroke-width:0.8;" x="427.641667" xlink:href="#m6ac5991fe2" y="265.955901"/>
      </g>
     </g>
     <g id="text_54">
      <!-- 100 -->
      <g transform="translate(401.554167 269.75512)scale(0.1 -0.1)">
       <use xlink:href="#DejaVuSans-49"/>
       <use x="63.623047" xlink:href="#DejaVuSans-48"/>
       <use x="127.246094" xlink:href="#DejaVuSans-48"/>
      </g>
     </g>
    </g>
    <g id="ytick_21">
     <g id="line2d_61">
      <g>
       <use style="stroke:#000000;stroke-width:0.8;" x="427.641667" xlink:href="#m6ac5991fe2" y="241.733851"/>
      </g>
     </g>
     <g id="text_55">
      <!-- 150 -->
      <g transform="translate(401.554167 245.53307)scale(0.1 -0.1)">
       <use xlink:href="#DejaVuSans-49"/>
       <use x="63.623047" xlink:href="#DejaVuSans-53"/>
       <use x="127.246094" xlink:href="#DejaVuSans-48"/>
      </g>
     </g>
    </g>
    <g id="ytick_22">
     <g id="line2d_62">
      <g>
       <use style="stroke:#000000;stroke-width:0.8;" x="427.641667" xlink:href="#m6ac5991fe2" y="217.511802"/>
      </g>
     </g>
     <g id="text_56">
      <!-- 200 -->
      <g transform="translate(401.554167 221.31102)scale(0.1 -0.1)">
       <use xlink:href="#DejaVuSans-50"/>
       <use x="63.623047" xlink:href="#DejaVuSans-48"/>
       <use x="127.246094" xlink:href="#DejaVuSans-48"/>
      </g>
     </g>
    </g>
    <g id="ytick_23">
     <g id="line2d_63">
      <g>
       <use style="stroke:#000000;stroke-width:0.8;" x="427.641667" xlink:href="#m6ac5991fe2" y="193.289752"/>
      </g>
     </g>
     <g id="text_57">
      <!-- 250 -->
      <g transform="translate(401.554167 197.088971)scale(0.1 -0.1)">
       <use xlink:href="#DejaVuSans-50"/>
       <use x="63.623047" xlink:href="#DejaVuSans-53"/>
       <use x="127.246094" xlink:href="#DejaVuSans-48"/>
      </g>
     </g>
    </g>
   </g>
   <g id="line2d_64">
    <path clip-path="url(#pd19455c190)" d="M 501.230565 314.4 
L 501.230565 191.5 
" style="fill:none;stroke:#808080;stroke-dasharray:1.5,2.475;stroke-dashoffset:0;stroke-width:1.5;"/>
   </g>
   <g id="line2d_65">
    <path clip-path="url(#pd19455c190)" d="M 433.894318 314.398087 
L 448.347683 314.281651 
L 452.746534 314.060796 
L 455.88857 313.719842 
L 458.402198 313.252364 
L 460.28742 312.73352 
L 462.172642 312.019608 
L 464.057863 311.055006 
L 465.943085 309.775266 
L 467.828306 308.108294 
L 469.085121 306.74372 
L 470.341935 305.149071 
L 471.598749 303.300984 
L 472.855564 301.177048 
L 474.740785 297.429489 
L 476.626007 292.958185 
L 478.511228 287.726964 
L 480.39645 281.728317 
L 482.281672 274.990371 
L 484.7953 264.98272 
L 487.937336 251.258134 
L 494.221408 223.35593 
L 496.10663 215.97878 
L 497.991851 209.539848 
L 499.248666 205.889914 
L 500.50548 202.82849 
L 501.762294 200.408579 
L 503.019109 198.671934 
L 503.647516 198.069505 
L 504.275923 197.647857 
L 504.90433 197.408574 
L 505.532738 197.352381 
L 506.161145 197.479143 
L 506.789552 197.787869 
L 507.417959 198.276722 
L 508.046366 198.943038 
L 509.303181 200.793408 
L 510.559995 203.302145 
L 511.816809 206.421268 
L 513.073624 210.093156 
L 514.958845 216.492426 
L 516.844067 223.742396 
L 519.986103 237.011464 
L 525.641768 261.385696 
L 528.155396 271.262838 
L 530.669025 280.10228 
L 532.554247 285.953013 
L 534.439468 291.106058 
L 536.32469 295.566899 
L 538.209911 299.364807 
L 540.095133 302.546666 
L 541.980354 305.171054 
L 543.865576 307.302927 
L 545.750798 309.009148 
L 547.636019 310.354972 
L 549.521241 311.401483 
L 551.406462 312.203925 
L 553.920091 312.977007 
L 556.43372 313.49723 
L 558.947348 313.839145 
L 558.947348 313.839145 
" style="fill:none;stroke:#808080;stroke-dasharray:5.55,2.4;stroke-dashoffset:0;stroke-width:1.5;"/>
   </g>
   <g id="patch_137">
    <path d="M 427.641667 314.4 
L 427.641667 191.5 
" style="fill:none;stroke:#000000;stroke-linecap:square;stroke-linejoin:miter;stroke-width:0.8;"/>
   </g>
   <g id="patch_138">
    <path d="M 427.641667 314.4 
L 565.2 314.4 
" style="fill:none;stroke:#000000;stroke-linecap:square;stroke-linejoin:miter;stroke-width:0.8;"/>
   </g>
   <g id="text_58">
    <!-- Noisy model -->
    <g transform="translate(459.326771 185.5)scale(0.12 -0.12)">
     <use xlink:href="#DejaVuSans-78"/>
     <use x="74.804688" xlink:href="#DejaVuSans-111"/>
     <use x="135.986328" xlink:href="#DejaVuSans-105"/>
     <use x="163.769531" xlink:href="#DejaVuSans-115"/>
     <use x="215.869141" xlink:href="#DejaVuSans-121"/>
     <use x="275.048828" xlink:href="#DejaVuSans-32"/>
     <use x="306.835938" xlink:href="#DejaVuSans-109"/>
     <use x="404.248047" xlink:href="#DejaVuSans-111"/>
     <use x="465.429688" xlink:href="#DejaVuSans-100"/>
     <use x="528.90625" xlink:href="#DejaVuSans-101"/>
     <use x="590.429688" xlink:href="#DejaVuSans-108"/>
    </g>
   </g>
  </g>
  <g id="text_59">
   <!-- A -->
   <defs>
    <path d="M 53.421875 13.28125 
L 24.03125 13.28125 
L 19.390625 0 
L 0.484375 0 
L 27.484375 72.90625 
L 49.90625 72.90625 
L 76.90625 0 
L 58.015625 0 
z
M 28.71875 26.8125 
L 48.6875 26.8125 
L 38.71875 55.8125 
z
" id="DejaVuSans-Bold-65"/>
   </defs>
   <g transform="translate(0 14.4)scale(0.16 -0.16)">
    <use xlink:href="#DejaVuSans-Bold-65"/>
   </g>
  </g>
  <g id="text_60">
   <!-- B -->
   <defs>
    <path d="M 38.375 44.671875 
Q 42.828125 44.671875 45.109375 46.625 
Q 47.40625 48.578125 47.40625 52.390625 
Q 47.40625 56.15625 45.109375 58.125 
Q 42.828125 60.109375 38.375 60.109375 
L 27.984375 60.109375 
L 27.984375 44.671875 
z
M 39.015625 12.796875 
Q 44.671875 12.796875 47.53125 15.1875 
Q 50.390625 17.578125 50.390625 22.40625 
Q 50.390625 27.15625 47.5625 29.515625 
Q 44.734375 31.890625 39.015625 31.890625 
L 27.984375 31.890625 
L 27.984375 12.796875 
z
M 56.5 39.015625 
Q 62.546875 37.25 65.859375 32.515625 
Q 69.1875 27.78125 69.1875 20.90625 
Q 69.1875 10.359375 62.0625 5.171875 
Q 54.9375 0 40.375 0 
L 9.1875 0 
L 9.1875 72.90625 
L 37.40625 72.90625 
Q 52.59375 72.90625 59.40625 68.3125 
Q 66.21875 63.71875 66.21875 53.609375 
Q 66.21875 48.296875 63.71875 44.5625 
Q 61.234375 40.828125 56.5 39.015625 
z
" id="DejaVuSans-Bold-66"/>
   </defs>
   <g transform="translate(201.6 14.4)scale(0.16 -0.16)">
    <use xlink:href="#DejaVuSans-Bold-66"/>
   </g>
  </g>
  <g id="text_61">
   <!-- C -->
   <defs>
    <path d="M 67 4 
Q 61.8125 1.3125 56.203125 -0.046875 
Q 50.59375 -1.421875 44.484375 -1.421875 
Q 26.265625 -1.421875 15.625 8.765625 
Q 4.984375 18.953125 4.984375 36.375 
Q 4.984375 53.859375 15.625 64.03125 
Q 26.265625 74.21875 44.484375 74.21875 
Q 50.59375 74.21875 56.203125 72.84375 
Q 61.8125 71.484375 67 68.796875 
L 67 53.71875 
Q 61.765625 57.28125 56.6875 58.9375 
Q 51.609375 60.59375 46 60.59375 
Q 35.9375 60.59375 30.171875 54.140625 
Q 24.421875 47.703125 24.421875 36.375 
Q 24.421875 25.09375 30.171875 18.640625 
Q 35.9375 12.203125 46 12.203125 
Q 51.609375 12.203125 56.6875 13.859375 
Q 61.765625 15.53125 67 19.09375 
z
" id="DejaVuSans-Bold-67"/>
   </defs>
   <g transform="translate(0 187.2)scale(0.16 -0.16)">
    <use xlink:href="#DejaVuSans-Bold-67"/>
   </g>
  </g>
 </g>
 <defs>
  <clipPath id="p83add75e1d">
   <rect height="122.9" width="137.558333" x="56.925" y="10.8"/>
  </clipPath>
  <clipPath id="p1b81cc74ff">
   <rect height="122.9" width="322.916667" x="242.283333" y="10.8"/>
  </clipPath>
  <clipPath id="pee25f7e2a1">
   <rect height="122.9" width="137.558333" x="56.925" y="191.5"/>
  </clipPath>
  <clipPath id="p4889893c52">
   <rect height="122.9" width="137.558333" x="242.283333" y="191.5"/>
  </clipPath>
  <clipPath id="pd19455c190">
   <rect height="122.9" width="137.558333" x="427.641667" y="191.5"/>
  </clipPath>
 </defs>
</svg>
