<?xml version="1.0" encoding="utf-8" standalone="no"?>
<!DOCTYPE svg PUBLIC "-//W3C//DTD SVG 1.1//EN"
  "http://www.w3.org/Graphics/SVG/1.1/DTD/svg11.dtd">
<!-- Created with matplotlib (https://matplotlib.org/) -->
<svg height="360pt" version="1.1" viewBox="0 0 576 360" width="576pt" xmlns="http://www.w3.org/2000/svg" xmlns:xlink="http://www.w3.org/1999/xlink">
 <defs>
  <style type="text/css">
*{stroke-linecap:butt;stroke-linejoin:round;}
  </style>
 </defs>
 <g id="figure_1">
  <g id="patch_1">
   <path d="M 0 360 
L 576 360 
L 576 0 
L 0 0 
z
" style="fill:#ffffff;"/>
  </g>
  <g id="axes_1">
   <g id="patch_2">
    <path d="M 47.675 85.642867 
L 139.769429 85.642867 
L 139.769429 12.523675 
L 47.675 12.523675 
z
" style="fill:#ffffff;"/>
   </g>
   <g id="matplotlib.axis_1">
    <g id="xtick_1">
     <g id="line2d_1">
      <defs>
       <path d="M 0 0 
L 0 3.5 
" id="m2528251a17" style="stroke:#000000;stroke-width:0.8;"/>
      </defs>
      <g>
       <use style="stroke:#000000;stroke-width:0.8;" x="47.675" xlink:href="#m2528251a17" y="85.642867"/>
      </g>
     </g>
     <g id="text_1">
      <!-- −5 -->
      <defs>
       <path d="M 10.59375 35.5 
L 73.1875 35.5 
L 73.1875 27.203125 
L 10.59375 27.203125 
z
" id="DejaVuSans-8722"/>
       <path d="M 10.796875 72.90625 
L 49.515625 72.90625 
L 49.515625 64.59375 
L 19.828125 64.59375 
L 19.828125 46.734375 
Q 21.96875 47.46875 24.109375 47.828125 
Q 26.265625 48.1875 28.421875 48.1875 
Q 40.625 48.1875 47.75 41.5 
Q 54.890625 34.8125 54.890625 23.390625 
Q 54.890625 11.625 47.5625 5.09375 
Q 40.234375 -1.421875 26.90625 -1.421875 
Q 22.3125 -1.421875 17.546875 -0.640625 
Q 12.796875 0.140625 7.71875 1.703125 
L 7.71875 11.625 
Q 12.109375 9.234375 16.796875 8.0625 
Q 21.484375 6.890625 26.703125 6.890625 
Q 35.15625 6.890625 40.078125 11.328125 
Q 45.015625 15.765625 45.015625 23.390625 
Q 45.015625 31 40.078125 35.4375 
Q 35.15625 39.890625 26.703125 39.890625 
Q 22.75 39.890625 18.8125 39.015625 
Q 14.890625 38.140625 10.796875 36.28125 
z
" id="DejaVuSans-53"/>
      </defs>
      <g transform="translate(40.303906 100.241304)scale(0.1 -0.1)">
       <use xlink:href="#DejaVuSans-8722"/>
       <use x="83.789062" xlink:href="#DejaVuSans-53"/>
      </g>
     </g>
    </g>
    <g id="xtick_2">
     <g id="line2d_2">
      <g>
       <use style="stroke:#000000;stroke-width:0.8;" x="93.722215" xlink:href="#m2528251a17" y="85.642867"/>
      </g>
     </g>
     <g id="text_2">
      <!-- 0 -->
      <defs>
       <path d="M 31.78125 66.40625 
Q 24.171875 66.40625 20.328125 58.90625 
Q 16.5 51.421875 16.5 36.375 
Q 16.5 21.390625 20.328125 13.890625 
Q 24.171875 6.390625 31.78125 6.390625 
Q 39.453125 6.390625 43.28125 13.890625 
Q 47.125 21.390625 47.125 36.375 
Q 47.125 51.421875 43.28125 58.90625 
Q 39.453125 66.40625 31.78125 66.40625 
z
M 31.78125 74.21875 
Q 44.046875 74.21875 50.515625 64.515625 
Q 56.984375 54.828125 56.984375 36.375 
Q 56.984375 17.96875 50.515625 8.265625 
Q 44.046875 -1.421875 31.78125 -1.421875 
Q 19.53125 -1.421875 13.0625 8.265625 
Q 6.59375 17.96875 6.59375 36.375 
Q 6.59375 54.828125 13.0625 64.515625 
Q 19.53125 74.21875 31.78125 74.21875 
z
" id="DejaVuSans-48"/>
      </defs>
      <g transform="translate(90.540965 100.241304)scale(0.1 -0.1)">
       <use xlink:href="#DejaVuSans-48"/>
      </g>
     </g>
    </g>
    <g id="xtick_3">
     <g id="line2d_3">
      <g>
       <use style="stroke:#000000;stroke-width:0.8;" x="139.769429" xlink:href="#m2528251a17" y="85.642867"/>
      </g>
     </g>
     <g id="text_3">
      <!-- 5 -->
      <g transform="translate(136.588179 100.241304)scale(0.1 -0.1)">
       <use xlink:href="#DejaVuSans-53"/>
      </g>
     </g>
    </g>
    <g id="text_4">
     <!-- Epo_degradation_BaF3 -->
     <defs>
      <path d="M 9.8125 72.90625 
L 55.90625 72.90625 
L 55.90625 64.59375 
L 19.671875 64.59375 
L 19.671875 43.015625 
L 54.390625 43.015625 
L 54.390625 34.71875 
L 19.671875 34.71875 
L 19.671875 8.296875 
L 56.78125 8.296875 
L 56.78125 0 
L 9.8125 0 
z
" id="DejaVuSans-69"/>
      <path d="M 18.109375 8.203125 
L 18.109375 -20.796875 
L 9.078125 -20.796875 
L 9.078125 54.6875 
L 18.109375 54.6875 
L 18.109375 46.390625 
Q 20.953125 51.265625 25.265625 53.625 
Q 29.59375 56 35.59375 56 
Q 45.5625 56 51.78125 48.09375 
Q 58.015625 40.1875 58.015625 27.296875 
Q 58.015625 14.40625 51.78125 6.484375 
Q 45.5625 -1.421875 35.59375 -1.421875 
Q 29.59375 -1.421875 25.265625 0.953125 
Q 20.953125 3.328125 18.109375 8.203125 
z
M 48.6875 27.296875 
Q 48.6875 37.203125 44.609375 42.84375 
Q 40.53125 48.484375 33.40625 48.484375 
Q 26.265625 48.484375 22.1875 42.84375 
Q 18.109375 37.203125 18.109375 27.296875 
Q 18.109375 17.390625 22.1875 11.75 
Q 26.265625 6.109375 33.40625 6.109375 
Q 40.53125 6.109375 44.609375 11.75 
Q 48.6875 17.390625 48.6875 27.296875 
z
" id="DejaVuSans-112"/>
      <path d="M 30.609375 48.390625 
Q 23.390625 48.390625 19.1875 42.75 
Q 14.984375 37.109375 14.984375 27.296875 
Q 14.984375 17.484375 19.15625 11.84375 
Q 23.34375 6.203125 30.609375 6.203125 
Q 37.796875 6.203125 41.984375 11.859375 
Q 46.1875 17.53125 46.1875 27.296875 
Q 46.1875 37.015625 41.984375 42.703125 
Q 37.796875 48.390625 30.609375 48.390625 
z
M 30.609375 56 
Q 42.328125 56 49.015625 48.375 
Q 55.71875 40.765625 55.71875 27.296875 
Q 55.71875 13.875 49.015625 6.21875 
Q 42.328125 -1.421875 30.609375 -1.421875 
Q 18.84375 -1.421875 12.171875 6.21875 
Q 5.515625 13.875 5.515625 27.296875 
Q 5.515625 40.765625 12.171875 48.375 
Q 18.84375 56 30.609375 56 
z
" id="DejaVuSans-111"/>
      <path d="M 50.984375 -16.609375 
L 50.984375 -23.578125 
L -0.984375 -23.578125 
L -0.984375 -16.609375 
z
" id="DejaVuSans-95"/>
      <path d="M 45.40625 46.390625 
L 45.40625 75.984375 
L 54.390625 75.984375 
L 54.390625 0 
L 45.40625 0 
L 45.40625 8.203125 
Q 42.578125 3.328125 38.25 0.953125 
Q 33.9375 -1.421875 27.875 -1.421875 
Q 17.96875 -1.421875 11.734375 6.484375 
Q 5.515625 14.40625 5.515625 27.296875 
Q 5.515625 40.1875 11.734375 48.09375 
Q 17.96875 56 27.875 56 
Q 33.9375 56 38.25 53.625 
Q 42.578125 51.265625 45.40625 46.390625 
z
M 14.796875 27.296875 
Q 14.796875 17.390625 18.875 11.75 
Q 22.953125 6.109375 30.078125 6.109375 
Q 37.203125 6.109375 41.296875 11.75 
Q 45.40625 17.390625 45.40625 27.296875 
Q 45.40625 37.203125 41.296875 42.84375 
Q 37.203125 48.484375 30.078125 48.484375 
Q 22.953125 48.484375 18.875 42.84375 
Q 14.796875 37.203125 14.796875 27.296875 
z
" id="DejaVuSans-100"/>
      <path d="M 56.203125 29.59375 
L 56.203125 25.203125 
L 14.890625 25.203125 
Q 15.484375 15.921875 20.484375 11.0625 
Q 25.484375 6.203125 34.421875 6.203125 
Q 39.59375 6.203125 44.453125 7.46875 
Q 49.3125 8.734375 54.109375 11.28125 
L 54.109375 2.78125 
Q 49.265625 0.734375 44.1875 -0.34375 
Q 39.109375 -1.421875 33.890625 -1.421875 
Q 20.796875 -1.421875 13.15625 6.1875 
Q 5.515625 13.8125 5.515625 26.8125 
Q 5.515625 40.234375 12.765625 48.109375 
Q 20.015625 56 32.328125 56 
Q 43.359375 56 49.78125 48.890625 
Q 56.203125 41.796875 56.203125 29.59375 
z
M 47.21875 32.234375 
Q 47.125 39.59375 43.09375 43.984375 
Q 39.0625 48.390625 32.421875 48.390625 
Q 24.90625 48.390625 20.390625 44.140625 
Q 15.875 39.890625 15.1875 32.171875 
z
" id="DejaVuSans-101"/>
      <path d="M 45.40625 27.984375 
Q 45.40625 37.75 41.375 43.109375 
Q 37.359375 48.484375 30.078125 48.484375 
Q 22.859375 48.484375 18.828125 43.109375 
Q 14.796875 37.75 14.796875 27.984375 
Q 14.796875 18.265625 18.828125 12.890625 
Q 22.859375 7.515625 30.078125 7.515625 
Q 37.359375 7.515625 41.375 12.890625 
Q 45.40625 18.265625 45.40625 27.984375 
z
M 54.390625 6.78125 
Q 54.390625 -7.171875 48.1875 -13.984375 
Q 42 -20.796875 29.203125 -20.796875 
Q 24.46875 -20.796875 20.265625 -20.09375 
Q 16.0625 -19.390625 12.109375 -17.921875 
L 12.109375 -9.1875 
Q 16.0625 -11.328125 19.921875 -12.34375 
Q 23.78125 -13.375 27.78125 -13.375 
Q 36.625 -13.375 41.015625 -8.765625 
Q 45.40625 -4.15625 45.40625 5.171875 
L 45.40625 9.625 
Q 42.625 4.78125 38.28125 2.390625 
Q 33.9375 0 27.875 0 
Q 17.828125 0 11.671875 7.65625 
Q 5.515625 15.328125 5.515625 27.984375 
Q 5.515625 40.671875 11.671875 48.328125 
Q 17.828125 56 27.875 56 
Q 33.9375 56 38.28125 53.609375 
Q 42.625 51.21875 45.40625 46.390625 
L 45.40625 54.6875 
L 54.390625 54.6875 
z
" id="DejaVuSans-103"/>
      <path d="M 41.109375 46.296875 
Q 39.59375 47.171875 37.8125 47.578125 
Q 36.03125 48 33.890625 48 
Q 26.265625 48 22.1875 43.046875 
Q 18.109375 38.09375 18.109375 28.8125 
L 18.109375 0 
L 9.078125 0 
L 9.078125 54.6875 
L 18.109375 54.6875 
L 18.109375 46.1875 
Q 20.953125 51.171875 25.484375 53.578125 
Q 30.03125 56 36.53125 56 
Q 37.453125 56 38.578125 55.875 
Q 39.703125 55.765625 41.0625 55.515625 
z
" id="DejaVuSans-114"/>
      <path d="M 34.28125 27.484375 
Q 23.390625 27.484375 19.1875 25 
Q 14.984375 22.515625 14.984375 16.5 
Q 14.984375 11.71875 18.140625 8.90625 
Q 21.296875 6.109375 26.703125 6.109375 
Q 34.1875 6.109375 38.703125 11.40625 
Q 43.21875 16.703125 43.21875 25.484375 
L 43.21875 27.484375 
z
M 52.203125 31.203125 
L 52.203125 0 
L 43.21875 0 
L 43.21875 8.296875 
Q 40.140625 3.328125 35.546875 0.953125 
Q 30.953125 -1.421875 24.3125 -1.421875 
Q 15.921875 -1.421875 10.953125 3.296875 
Q 6 8.015625 6 15.921875 
Q 6 25.140625 12.171875 29.828125 
Q 18.359375 34.515625 30.609375 34.515625 
L 43.21875 34.515625 
L 43.21875 35.40625 
Q 43.21875 41.609375 39.140625 45 
Q 35.0625 48.390625 27.6875 48.390625 
Q 23 48.390625 18.546875 47.265625 
Q 14.109375 46.140625 10.015625 43.890625 
L 10.015625 52.203125 
Q 14.9375 54.109375 19.578125 55.046875 
Q 24.21875 56 28.609375 56 
Q 40.484375 56 46.34375 49.84375 
Q 52.203125 43.703125 52.203125 31.203125 
z
" id="DejaVuSans-97"/>
      <path d="M 18.3125 70.21875 
L 18.3125 54.6875 
L 36.8125 54.6875 
L 36.8125 47.703125 
L 18.3125 47.703125 
L 18.3125 18.015625 
Q 18.3125 11.328125 20.140625 9.421875 
Q 21.96875 7.515625 27.59375 7.515625 
L 36.8125 7.515625 
L 36.8125 0 
L 27.59375 0 
Q 17.1875 0 13.234375 3.875 
Q 9.28125 7.765625 9.28125 18.015625 
L 9.28125 47.703125 
L 2.6875 47.703125 
L 2.6875 54.6875 
L 9.28125 54.6875 
L 9.28125 70.21875 
z
" id="DejaVuSans-116"/>
      <path d="M 9.421875 54.6875 
L 18.40625 54.6875 
L 18.40625 0 
L 9.421875 0 
z
M 9.421875 75.984375 
L 18.40625 75.984375 
L 18.40625 64.59375 
L 9.421875 64.59375 
z
" id="DejaVuSans-105"/>
      <path d="M 54.890625 33.015625 
L 54.890625 0 
L 45.90625 0 
L 45.90625 32.71875 
Q 45.90625 40.484375 42.875 44.328125 
Q 39.84375 48.1875 33.796875 48.1875 
Q 26.515625 48.1875 22.3125 43.546875 
Q 18.109375 38.921875 18.109375 30.90625 
L 18.109375 0 
L 9.078125 0 
L 9.078125 54.6875 
L 18.109375 54.6875 
L 18.109375 46.1875 
Q 21.34375 51.125 25.703125 53.5625 
Q 30.078125 56 35.796875 56 
Q 45.21875 56 50.046875 50.171875 
Q 54.890625 44.34375 54.890625 33.015625 
z
" id="DejaVuSans-110"/>
      <path d="M 19.671875 34.8125 
L 19.671875 8.109375 
L 35.5 8.109375 
Q 43.453125 8.109375 47.28125 11.40625 
Q 51.125 14.703125 51.125 21.484375 
Q 51.125 28.328125 47.28125 31.5625 
Q 43.453125 34.8125 35.5 34.8125 
z
M 19.671875 64.796875 
L 19.671875 42.828125 
L 34.28125 42.828125 
Q 41.5 42.828125 45.03125 45.53125 
Q 48.578125 48.25 48.578125 53.8125 
Q 48.578125 59.328125 45.03125 62.0625 
Q 41.5 64.796875 34.28125 64.796875 
z
M 9.8125 72.90625 
L 35.015625 72.90625 
Q 46.296875 72.90625 52.390625 68.21875 
Q 58.5 63.53125 58.5 54.890625 
Q 58.5 48.1875 55.375 44.234375 
Q 52.25 40.28125 46.1875 39.3125 
Q 53.46875 37.75 57.5 32.78125 
Q 61.53125 27.828125 61.53125 20.40625 
Q 61.53125 10.640625 54.890625 5.3125 
Q 48.25 0 35.984375 0 
L 9.8125 0 
z
" id="DejaVuSans-66"/>
      <path d="M 9.8125 72.90625 
L 51.703125 72.90625 
L 51.703125 64.59375 
L 19.671875 64.59375 
L 19.671875 43.109375 
L 48.578125 43.109375 
L 48.578125 34.8125 
L 19.671875 34.8125 
L 19.671875 0 
L 9.8125 0 
z
" id="DejaVuSans-70"/>
      <path d="M 40.578125 39.3125 
Q 47.65625 37.796875 51.625 33 
Q 55.609375 28.21875 55.609375 21.1875 
Q 55.609375 10.40625 48.1875 4.484375 
Q 40.765625 -1.421875 27.09375 -1.421875 
Q 22.515625 -1.421875 17.65625 -0.515625 
Q 12.796875 0.390625 7.625 2.203125 
L 7.625 11.71875 
Q 11.71875 9.328125 16.59375 8.109375 
Q 21.484375 6.890625 26.8125 6.890625 
Q 36.078125 6.890625 40.9375 10.546875 
Q 45.796875 14.203125 45.796875 21.1875 
Q 45.796875 27.640625 41.28125 31.265625 
Q 36.765625 34.90625 28.71875 34.90625 
L 20.21875 34.90625 
L 20.21875 43.015625 
L 29.109375 43.015625 
Q 36.375 43.015625 40.234375 45.921875 
Q 44.09375 48.828125 44.09375 54.296875 
Q 44.09375 59.90625 40.109375 62.90625 
Q 36.140625 65.921875 28.71875 65.921875 
Q 24.65625 65.921875 20.015625 65.03125 
Q 15.375 64.15625 9.8125 62.3125 
L 9.8125 71.09375 
Q 15.4375 72.65625 20.34375 73.4375 
Q 25.25 74.21875 29.59375 74.21875 
Q 40.828125 74.21875 47.359375 69.109375 
Q 53.90625 64.015625 53.90625 55.328125 
Q 53.90625 49.265625 50.4375 45.09375 
Q 46.96875 40.921875 40.578125 39.3125 
z
" id="DejaVuSans-51"/>
     </defs>
     <g transform="translate(36.417527 113.919429)scale(0.1 -0.1)">
      <use xlink:href="#DejaVuSans-69"/>
      <use x="63.183594" xlink:href="#DejaVuSans-112"/>
      <use x="126.660156" xlink:href="#DejaVuSans-111"/>
      <use x="187.841797" xlink:href="#DejaVuSans-95"/>
      <use x="237.841797" xlink:href="#DejaVuSans-100"/>
      <use x="301.318359" xlink:href="#DejaVuSans-101"/>
      <use x="362.841797" xlink:href="#DejaVuSans-103"/>
      <use x="426.318359" xlink:href="#DejaVuSans-114"/>
      <use x="467.431641" xlink:href="#DejaVuSans-97"/>
      <use x="528.710938" xlink:href="#DejaVuSans-100"/>
      <use x="592.1875" xlink:href="#DejaVuSans-97"/>
      <use x="653.466797" xlink:href="#DejaVuSans-116"/>
      <use x="692.675781" xlink:href="#DejaVuSans-105"/>
      <use x="720.458984" xlink:href="#DejaVuSans-111"/>
      <use x="781.640625" xlink:href="#DejaVuSans-110"/>
      <use x="845.019531" xlink:href="#DejaVuSans-95"/>
      <use x="895.019531" xlink:href="#DejaVuSans-66"/>
      <use x="963.623047" xlink:href="#DejaVuSans-97"/>
      <use x="1024.902344" xlink:href="#DejaVuSans-70"/>
      <use x="1082.421875" xlink:href="#DejaVuSans-51"/>
     </g>
    </g>
   </g>
   <g id="matplotlib.axis_2">
    <g id="ytick_1">
     <g id="line2d_4">
      <defs>
       <path d="M 0 0 
L -3.5 0 
" id="md878d188b1" style="stroke:#000000;stroke-width:0.8;"/>
      </defs>
      <g>
       <use style="stroke:#000000;stroke-width:0.8;" x="47.675" xlink:href="#md878d188b1" y="82.319267"/>
      </g>
     </g>
     <g id="text_5">
      <!-- 0 -->
      <g transform="translate(34.3125 86.118486)scale(0.1 -0.1)">
       <use xlink:href="#DejaVuSans-48"/>
      </g>
     </g>
    </g>
    <g id="ytick_2">
     <g id="line2d_5">
      <g>
       <use style="stroke:#000000;stroke-width:0.8;" x="47.675" xlink:href="#md878d188b1" y="40.900744"/>
      </g>
     </g>
     <g id="text_6">
      <!-- 2 -->
      <defs>
       <path d="M 19.1875 8.296875 
L 53.609375 8.296875 
L 53.609375 0 
L 7.328125 0 
L 7.328125 8.296875 
Q 12.9375 14.109375 22.625 23.890625 
Q 32.328125 33.6875 34.8125 36.53125 
Q 39.546875 41.84375 41.421875 45.53125 
Q 43.3125 49.21875 43.3125 52.78125 
Q 43.3125 58.59375 39.234375 62.25 
Q 35.15625 65.921875 28.609375 65.921875 
Q 23.96875 65.921875 18.8125 64.3125 
Q 13.671875 62.703125 7.8125 59.421875 
L 7.8125 69.390625 
Q 13.765625 71.78125 18.9375 73 
Q 24.125 74.21875 28.421875 74.21875 
Q 39.75 74.21875 46.484375 68.546875 
Q 53.21875 62.890625 53.21875 53.421875 
Q 53.21875 48.921875 51.53125 44.890625 
Q 49.859375 40.875 45.40625 35.40625 
Q 44.1875 33.984375 37.640625 27.21875 
Q 31.109375 20.453125 19.1875 8.296875 
z
" id="DejaVuSans-50"/>
      </defs>
      <g transform="translate(34.3125 44.699963)scale(0.1 -0.1)">
       <use xlink:href="#DejaVuSans-50"/>
      </g>
     </g>
    </g>
    <g id="text_7">
     <!-- Posterior -->
     <defs>
      <path d="M 19.671875 64.796875 
L 19.671875 37.40625 
L 32.078125 37.40625 
Q 38.96875 37.40625 42.71875 40.96875 
Q 46.484375 44.53125 46.484375 51.125 
Q 46.484375 57.671875 42.71875 61.234375 
Q 38.96875 64.796875 32.078125 64.796875 
z
M 9.8125 72.90625 
L 32.078125 72.90625 
Q 44.34375 72.90625 50.609375 67.359375 
Q 56.890625 61.8125 56.890625 51.125 
Q 56.890625 40.328125 50.609375 34.8125 
Q 44.34375 29.296875 32.078125 29.296875 
L 19.671875 29.296875 
L 19.671875 0 
L 9.8125 0 
z
" id="DejaVuSans-80"/>
      <path d="M 44.28125 53.078125 
L 44.28125 44.578125 
Q 40.484375 46.53125 36.375 47.5 
Q 32.28125 48.484375 27.875 48.484375 
Q 21.1875 48.484375 17.84375 46.4375 
Q 14.5 44.390625 14.5 40.28125 
Q 14.5 37.15625 16.890625 35.375 
Q 19.28125 33.59375 26.515625 31.984375 
L 29.59375 31.296875 
Q 39.15625 29.25 43.1875 25.515625 
Q 47.21875 21.78125 47.21875 15.09375 
Q 47.21875 7.46875 41.1875 3.015625 
Q 35.15625 -1.421875 24.609375 -1.421875 
Q 20.21875 -1.421875 15.453125 -0.5625 
Q 10.6875 0.296875 5.421875 2 
L 5.421875 11.28125 
Q 10.40625 8.6875 15.234375 7.390625 
Q 20.0625 6.109375 24.8125 6.109375 
Q 31.15625 6.109375 34.5625 8.28125 
Q 37.984375 10.453125 37.984375 14.40625 
Q 37.984375 18.0625 35.515625 20.015625 
Q 33.0625 21.96875 24.703125 23.78125 
L 21.578125 24.515625 
Q 13.234375 26.265625 9.515625 29.90625 
Q 5.8125 33.546875 5.8125 39.890625 
Q 5.8125 47.609375 11.28125 51.796875 
Q 16.75 56 26.8125 56 
Q 31.78125 56 36.171875 55.265625 
Q 40.578125 54.546875 44.28125 53.078125 
z
" id="DejaVuSans-115"/>
     </defs>
     <g transform="translate(28.232812 71.355927)rotate(-90)scale(0.1 -0.1)">
      <use xlink:href="#DejaVuSans-80"/>
      <use x="60.255859" xlink:href="#DejaVuSans-111"/>
      <use x="121.4375" xlink:href="#DejaVuSans-115"/>
      <use x="173.537109" xlink:href="#DejaVuSans-116"/>
      <use x="212.746094" xlink:href="#DejaVuSans-101"/>
      <use x="274.269531" xlink:href="#DejaVuSans-114"/>
      <use x="315.382812" xlink:href="#DejaVuSans-105"/>
      <use x="343.166016" xlink:href="#DejaVuSans-111"/>
      <use x="404.347656" xlink:href="#DejaVuSans-114"/>
     </g>
    </g>
   </g>
   <g id="line2d_6">
    <path clip-path="url(#p0123658520)" d="M 47.675 82.319267 
L 49.554478 82.319267 
L 51.433956 82.319267 
L 53.313434 82.319267 
L 55.192913 82.319267 
L 57.072391 82.319267 
L 58.951869 82.319267 
L 60.831347 82.319267 
L 62.710825 82.319267 
L 64.590303 82.319267 
L 66.469781 82.319267 
L 68.34926 82.319267 
L 70.228738 82.319267 
L 72.108216 82.319267 
L 73.987694 82.319267 
L 75.867172 82.224888 
L 77.74665 47.433065 
L 79.626129 15.847275 
L 81.505607 78.275944 
L 83.385085 82.319266 
L 85.264563 82.319267 
L 87.144041 82.319267 
L 89.023519 82.319267 
L 90.902997 82.319267 
L 92.782476 82.319267 
L 94.661954 82.319267 
L 96.541432 82.319267 
L 98.42091 82.319267 
L 100.300388 82.319267 
L 102.179866 82.319267 
L 104.059344 82.319267 
L 105.938823 82.319267 
L 107.818301 82.319267 
L 109.697779 82.319267 
L 111.577257 82.319267 
L 113.456735 82.319267 
L 115.336213 82.319267 
L 117.215692 82.319267 
L 119.09517 82.319267 
L 120.974648 82.319267 
L 122.854126 82.319267 
L 124.733604 82.319267 
L 126.613082 82.319267 
L 128.49256 82.319267 
L 130.372039 82.319267 
L 132.251517 82.319267 
L 134.130995 82.319267 
L 136.010473 82.319267 
L 137.889951 82.319267 
L 139.769429 82.319267 
" style="fill:none;stroke:#1f77b4;stroke-linecap:square;stroke-width:1.5;"/>
   </g>
   <g id="line2d_7">
    <path clip-path="url(#p0123658520)" d="M 79.273358 85.642867 
L 79.273358 12.523675 
" style="fill:none;stroke:#808080;stroke-dasharray:1.5,2.475;stroke-dashoffset:0;stroke-width:1.5;"/>
   </g>
   <g id="patch_3">
    <path d="M 47.675 85.642867 
L 47.675 12.523675 
" style="fill:none;stroke:#000000;stroke-linecap:square;stroke-linejoin:miter;stroke-width:0.8;"/>
   </g>
   <g id="patch_4">
    <path d="M 47.675 85.642867 
L 139.769429 85.642867 
" style="fill:none;stroke:#000000;stroke-linecap:square;stroke-linejoin:miter;stroke-width:0.8;"/>
   </g>
  </g>
  <g id="axes_2">
   <g id="patch_5">
    <path d="M 188.42269 85.642867 
L 280.51712 85.642867 
L 280.51712 12.523675 
L 188.42269 12.523675 
z
" style="fill:#ffffff;"/>
   </g>
   <g id="matplotlib.axis_3">
    <g id="xtick_4">
     <g id="line2d_8">
      <g>
       <use style="stroke:#000000;stroke-width:0.8;" x="188.42269" xlink:href="#m2528251a17" y="85.642867"/>
      </g>
     </g>
     <g id="text_8">
      <!-- −5 -->
      <g transform="translate(181.051596 100.241304)scale(0.1 -0.1)">
       <use xlink:href="#DejaVuSans-8722"/>
       <use x="83.789062" xlink:href="#DejaVuSans-53"/>
      </g>
     </g>
    </g>
    <g id="xtick_5">
     <g id="line2d_9">
      <g>
       <use style="stroke:#000000;stroke-width:0.8;" x="234.469905" xlink:href="#m2528251a17" y="85.642867"/>
      </g>
     </g>
     <g id="text_9">
      <!-- 0 -->
      <g transform="translate(231.288655 100.241304)scale(0.1 -0.1)">
       <use xlink:href="#DejaVuSans-48"/>
      </g>
     </g>
    </g>
    <g id="xtick_6">
     <g id="line2d_10">
      <g>
       <use style="stroke:#000000;stroke-width:0.8;" x="280.51712" xlink:href="#m2528251a17" y="85.642867"/>
      </g>
     </g>
     <g id="text_10">
      <!-- 5 -->
      <g transform="translate(277.33587 100.241304)scale(0.1 -0.1)">
       <use xlink:href="#DejaVuSans-53"/>
      </g>
     </g>
    </g>
    <g id="text_11">
     <!-- k_exp_hetero -->
     <defs>
      <path d="M 9.078125 75.984375 
L 18.109375 75.984375 
L 18.109375 31.109375 
L 44.921875 54.6875 
L 56.390625 54.6875 
L 27.390625 29.109375 
L 57.625 0 
L 45.90625 0 
L 18.109375 26.703125 
L 18.109375 0 
L 9.078125 0 
z
" id="DejaVuSans-107"/>
      <path d="M 54.890625 54.6875 
L 35.109375 28.078125 
L 55.90625 0 
L 45.3125 0 
L 29.390625 21.484375 
L 13.484375 0 
L 2.875 0 
L 24.125 28.609375 
L 4.6875 54.6875 
L 15.28125 54.6875 
L 29.78125 35.203125 
L 44.28125 54.6875 
z
" id="DejaVuSans-120"/>
      <path d="M 54.890625 33.015625 
L 54.890625 0 
L 45.90625 0 
L 45.90625 32.71875 
Q 45.90625 40.484375 42.875 44.328125 
Q 39.84375 48.1875 33.796875 48.1875 
Q 26.515625 48.1875 22.3125 43.546875 
Q 18.109375 38.921875 18.109375 30.90625 
L 18.109375 0 
L 9.078125 0 
L 9.078125 75.984375 
L 18.109375 75.984375 
L 18.109375 46.1875 
Q 21.34375 51.125 25.703125 53.5625 
Q 30.078125 56 35.796875 56 
Q 45.21875 56 50.046875 50.171875 
Q 54.890625 44.34375 54.890625 33.015625 
z
" id="DejaVuSans-104"/>
     </defs>
     <g transform="translate(200.969905 113.919429)scale(0.1 -0.1)">
      <use xlink:href="#DejaVuSans-107"/>
      <use x="57.910156" xlink:href="#DejaVuSans-95"/>
      <use x="107.910156" xlink:href="#DejaVuSans-101"/>
      <use x="169.417969" xlink:href="#DejaVuSans-120"/>
      <use x="228.597656" xlink:href="#DejaVuSans-112"/>
      <use x="292.074219" xlink:href="#DejaVuSans-95"/>
      <use x="342.074219" xlink:href="#DejaVuSans-104"/>
      <use x="405.453125" xlink:href="#DejaVuSans-101"/>
      <use x="466.976562" xlink:href="#DejaVuSans-116"/>
      <use x="506.185547" xlink:href="#DejaVuSans-101"/>
      <use x="567.708984" xlink:href="#DejaVuSans-114"/>
      <use x="608.791016" xlink:href="#DejaVuSans-111"/>
     </g>
    </g>
   </g>
   <g id="matplotlib.axis_4">
    <g id="ytick_3">
     <g id="line2d_11">
      <g>
       <use style="stroke:#000000;stroke-width:0.8;" x="188.42269" xlink:href="#md878d188b1" y="82.319267"/>
      </g>
     </g>
     <g id="text_12">
      <!-- 0.00 -->
      <defs>
       <path d="M 10.6875 12.40625 
L 21 12.40625 
L 21 0 
L 10.6875 0 
z
" id="DejaVuSans-46"/>
      </defs>
      <g transform="translate(159.157065 86.118486)scale(0.1 -0.1)">
       <use xlink:href="#DejaVuSans-48"/>
       <use x="63.623047" xlink:href="#DejaVuSans-46"/>
       <use x="95.410156" xlink:href="#DejaVuSans-48"/>
       <use x="159.033203" xlink:href="#DejaVuSans-48"/>
      </g>
     </g>
    </g>
    <g id="ytick_4">
     <g id="line2d_12">
      <g>
       <use style="stroke:#000000;stroke-width:0.8;" x="188.42269" xlink:href="#md878d188b1" y="53.639155"/>
      </g>
     </g>
     <g id="text_13">
      <!-- 0.25 -->
      <g transform="translate(159.157065 57.438373)scale(0.1 -0.1)">
       <use xlink:href="#DejaVuSans-48"/>
       <use x="63.623047" xlink:href="#DejaVuSans-46"/>
       <use x="95.410156" xlink:href="#DejaVuSans-50"/>
       <use x="159.033203" xlink:href="#DejaVuSans-53"/>
      </g>
     </g>
    </g>
    <g id="ytick_5">
     <g id="line2d_13">
      <g>
       <use style="stroke:#000000;stroke-width:0.8;" x="188.42269" xlink:href="#md878d188b1" y="24.959042"/>
      </g>
     </g>
     <g id="text_14">
      <!-- 0.50 -->
      <g transform="translate(159.157065 28.758261)scale(0.1 -0.1)">
       <use xlink:href="#DejaVuSans-48"/>
       <use x="63.623047" xlink:href="#DejaVuSans-46"/>
       <use x="95.410156" xlink:href="#DejaVuSans-53"/>
       <use x="159.033203" xlink:href="#DejaVuSans-48"/>
      </g>
     </g>
    </g>
   </g>
   <g id="line2d_14">
    <path clip-path="url(#p62905513f4)" d="M 188.42269 49.918419 
L 190.302168 29.486892 
L 192.181647 19.365015 
L 194.061125 18.793021 
L 195.940603 21.432355 
L 197.820081 20.158144 
L 199.699559 15.847275 
L 201.579037 22.299309 
L 203.458515 41.715901 
L 205.337994 59.621451 
L 207.217472 69.84558 
L 209.09695 75.911903 
L 210.976428 79.873339 
L 212.855906 81.712417 
L 214.735384 82.225713 
L 216.614862 82.310743 
L 218.494341 82.31884 
L 220.373819 82.319256 
L 222.253297 82.319267 
L 224.132775 82.319267 
L 226.012253 82.319267 
L 227.891731 82.319267 
L 229.77121 82.319267 
L 231.650688 82.319267 
L 233.530166 82.319267 
L 235.409644 82.319267 
L 237.289122 82.319267 
L 239.1686 82.319267 
L 241.048078 82.319267 
L 242.927557 82.319267 
L 244.807035 82.319267 
L 246.686513 82.319267 
L 248.565991 82.319267 
L 250.445469 82.319267 
L 252.324947 82.319267 
L 254.204425 82.319267 
L 256.083904 82.319267 
L 257.963382 82.319267 
L 259.84286 82.319267 
L 261.722338 82.319267 
L 263.601816 82.319267 
L 265.481294 82.319267 
L 267.360773 82.319267 
L 269.240251 82.319267 
L 271.119729 82.319267 
L 272.999207 82.319267 
L 274.878685 82.319267 
L 276.758163 82.319267 
L 278.637641 82.319267 
L 280.51712 82.319267 
" style="fill:none;stroke:#1f77b4;stroke-linecap:square;stroke-width:1.5;"/>
   </g>
   <g id="line2d_15">
    <path clip-path="url(#p62905513f4)" d="M 188.425408 85.642867 
L 188.425408 12.523675 
" style="fill:none;stroke:#808080;stroke-dasharray:1.5,2.475;stroke-dashoffset:0;stroke-width:1.5;"/>
   </g>
   <g id="patch_6">
    <path d="M 188.42269 85.642867 
L 188.42269 12.523675 
" style="fill:none;stroke:#000000;stroke-linecap:square;stroke-linejoin:miter;stroke-width:0.8;"/>
   </g>
   <g id="patch_7">
    <path d="M 188.42269 85.642867 
L 280.51712 85.642867 
" style="fill:none;stroke:#000000;stroke-linecap:square;stroke-linejoin:miter;stroke-width:0.8;"/>
   </g>
  </g>
  <g id="axes_3">
   <g id="patch_8">
    <path d="M 329.17038 85.642867 
L 421.26481 85.642867 
L 421.26481 12.523675 
L 329.17038 12.523675 
z
" style="fill:#ffffff;"/>
   </g>
   <g id="matplotlib.axis_5">
    <g id="xtick_7">
     <g id="line2d_16">
      <g>
       <use style="stroke:#000000;stroke-width:0.8;" x="329.17038" xlink:href="#m2528251a17" y="85.642867"/>
      </g>
     </g>
     <g id="text_15">
      <!-- −5 -->
      <g transform="translate(321.799287 100.241304)scale(0.1 -0.1)">
       <use xlink:href="#DejaVuSans-8722"/>
       <use x="83.789062" xlink:href="#DejaVuSans-53"/>
      </g>
     </g>
    </g>
    <g id="xtick_8">
     <g id="line2d_17">
      <g>
       <use style="stroke:#000000;stroke-width:0.8;" x="375.217595" xlink:href="#m2528251a17" y="85.642867"/>
      </g>
     </g>
     <g id="text_16">
      <!-- 0 -->
      <g transform="translate(372.036345 100.241304)scale(0.1 -0.1)">
       <use xlink:href="#DejaVuSans-48"/>
      </g>
     </g>
    </g>
    <g id="xtick_9">
     <g id="line2d_18">
      <g>
       <use style="stroke:#000000;stroke-width:0.8;" x="421.26481" xlink:href="#m2528251a17" y="85.642867"/>
      </g>
     </g>
     <g id="text_17">
      <!-- 5 -->
      <g transform="translate(418.08356 100.241304)scale(0.1 -0.1)">
       <use xlink:href="#DejaVuSans-53"/>
      </g>
     </g>
    </g>
    <g id="text_18">
     <!-- k_exp_homo -->
     <defs>
      <path d="M 52 44.1875 
Q 55.375 50.25 60.0625 53.125 
Q 64.75 56 71.09375 56 
Q 79.640625 56 84.28125 50.015625 
Q 88.921875 44.046875 88.921875 33.015625 
L 88.921875 0 
L 79.890625 0 
L 79.890625 32.71875 
Q 79.890625 40.578125 77.09375 44.375 
Q 74.3125 48.1875 68.609375 48.1875 
Q 61.625 48.1875 57.5625 43.546875 
Q 53.515625 38.921875 53.515625 30.90625 
L 53.515625 0 
L 44.484375 0 
L 44.484375 32.71875 
Q 44.484375 40.625 41.703125 44.40625 
Q 38.921875 48.1875 33.109375 48.1875 
Q 26.21875 48.1875 22.15625 43.53125 
Q 18.109375 38.875 18.109375 30.90625 
L 18.109375 0 
L 9.078125 0 
L 9.078125 54.6875 
L 18.109375 54.6875 
L 18.109375 46.1875 
Q 21.1875 51.21875 25.484375 53.609375 
Q 29.78125 56 35.6875 56 
Q 41.65625 56 45.828125 52.96875 
Q 50 49.953125 52 44.1875 
z
" id="DejaVuSans-109"/>
     </defs>
     <g transform="translate(343.955095 113.919429)scale(0.1 -0.1)">
      <use xlink:href="#DejaVuSans-107"/>
      <use x="57.910156" xlink:href="#DejaVuSans-95"/>
      <use x="107.910156" xlink:href="#DejaVuSans-101"/>
      <use x="169.417969" xlink:href="#DejaVuSans-120"/>
      <use x="228.597656" xlink:href="#DejaVuSans-112"/>
      <use x="292.074219" xlink:href="#DejaVuSans-95"/>
      <use x="342.074219" xlink:href="#DejaVuSans-104"/>
      <use x="405.453125" xlink:href="#DejaVuSans-111"/>
      <use x="466.634766" xlink:href="#DejaVuSans-109"/>
      <use x="564.046875" xlink:href="#DejaVuSans-111"/>
     </g>
    </g>
   </g>
   <g id="matplotlib.axis_6">
    <g id="ytick_6">
     <g id="line2d_19">
      <g>
       <use style="stroke:#000000;stroke-width:0.8;" x="329.17038" xlink:href="#md878d188b1" y="82.319267"/>
      </g>
     </g>
     <g id="text_19">
      <!-- 0 -->
      <g transform="translate(315.80788 86.118486)scale(0.1 -0.1)">
       <use xlink:href="#DejaVuSans-48"/>
      </g>
     </g>
    </g>
    <g id="ytick_7">
     <g id="line2d_20">
      <g>
       <use style="stroke:#000000;stroke-width:0.8;" x="329.17038" xlink:href="#md878d188b1" y="48.462506"/>
      </g>
     </g>
     <g id="text_20">
      <!-- 1 -->
      <defs>
       <path d="M 12.40625 8.296875 
L 28.515625 8.296875 
L 28.515625 63.921875 
L 10.984375 60.40625 
L 10.984375 69.390625 
L 28.421875 72.90625 
L 38.28125 72.90625 
L 38.28125 8.296875 
L 54.390625 8.296875 
L 54.390625 0 
L 12.40625 0 
z
" id="DejaVuSans-49"/>
      </defs>
      <g transform="translate(315.80788 52.261724)scale(0.1 -0.1)">
       <use xlink:href="#DejaVuSans-49"/>
      </g>
     </g>
    </g>
    <g id="ytick_8">
     <g id="line2d_21">
      <g>
       <use style="stroke:#000000;stroke-width:0.8;" x="329.17038" xlink:href="#md878d188b1" y="14.605744"/>
      </g>
     </g>
     <g id="text_21">
      <!-- 2 -->
      <g transform="translate(315.80788 18.404963)scale(0.1 -0.1)">
       <use xlink:href="#DejaVuSans-50"/>
      </g>
     </g>
    </g>
   </g>
   <g id="line2d_22">
    <path clip-path="url(#pc8d614081b)" d="M 329.17038 82.319267 
L 331.049859 82.319267 
L 332.929337 82.319267 
L 334.808815 82.319267 
L 336.688293 82.319267 
L 338.567771 82.319267 
L 340.447249 82.319267 
L 342.326727 82.319267 
L 344.206206 82.319267 
L 346.085684 82.319263 
L 347.965162 82.290477 
L 349.84464 80.126623 
L 351.724118 64.392471 
L 353.603596 32.58733 
L 355.483075 15.847275 
L 357.362553 55.405406 
L 359.242031 80.49197 
L 361.121509 82.30551 
L 363.000987 82.319267 
L 364.880465 82.319267 
L 366.759943 82.319267 
L 368.639422 82.319267 
L 370.5189 82.319267 
L 372.398378 82.319267 
L 374.277856 82.319267 
L 376.157334 82.319267 
L 378.036812 82.319267 
L 379.91629 82.319267 
L 381.795769 82.319267 
L 383.675247 82.319267 
L 385.554725 82.319267 
L 387.434203 82.319267 
L 389.313681 82.319267 
L 391.193159 82.319267 
L 393.072638 82.319267 
L 394.952116 82.319267 
L 396.831594 82.319267 
L 398.711072 82.319267 
L 400.59055 82.319267 
L 402.470028 82.319267 
L 404.349506 82.319267 
L 406.228985 82.319267 
L 408.108463 82.319267 
L 409.987941 82.319267 
L 411.867419 82.319267 
L 413.746897 82.319267 
L 415.626375 82.319267 
L 417.505853 82.319267 
L 419.385332 82.319267 
L 421.26481 82.319267 
" style="fill:none;stroke:#1f77b4;stroke-linecap:square;stroke-width:1.5;"/>
   </g>
   <g id="line2d_23">
    <path clip-path="url(#pc8d614081b)" d="M 354.8675 85.642867 
L 354.8675 12.523675 
" style="fill:none;stroke:#808080;stroke-dasharray:1.5,2.475;stroke-dashoffset:0;stroke-width:1.5;"/>
   </g>
   <g id="patch_9">
    <path d="M 329.17038 85.642867 
L 329.17038 12.523675 
" style="fill:none;stroke:#000000;stroke-linecap:square;stroke-linejoin:miter;stroke-width:0.8;"/>
   </g>
   <g id="patch_10">
    <path d="M 329.17038 85.642867 
L 421.26481 85.642867 
" style="fill:none;stroke:#000000;stroke-linecap:square;stroke-linejoin:miter;stroke-width:0.8;"/>
   </g>
  </g>
  <g id="axes_4">
   <g id="patch_11">
    <path d="M 469.918071 85.642867 
L 562.0125 85.642867 
L 562.0125 12.523675 
L 469.918071 12.523675 
z
" style="fill:#ffffff;"/>
   </g>
   <g id="matplotlib.axis_7">
    <g id="xtick_10">
     <g id="line2d_24">
      <g>
       <use style="stroke:#000000;stroke-width:0.8;" x="469.918071" xlink:href="#m2528251a17" y="85.642867"/>
      </g>
     </g>
     <g id="text_22">
      <!-- −5 -->
      <g transform="translate(462.546977 100.241304)scale(0.1 -0.1)">
       <use xlink:href="#DejaVuSans-8722"/>
       <use x="83.789062" xlink:href="#DejaVuSans-53"/>
      </g>
     </g>
    </g>
    <g id="xtick_11">
     <g id="line2d_25">
      <g>
       <use style="stroke:#000000;stroke-width:0.8;" x="515.965285" xlink:href="#m2528251a17" y="85.642867"/>
      </g>
     </g>
     <g id="text_23">
      <!-- 0 -->
      <g transform="translate(512.784035 100.241304)scale(0.1 -0.1)">
       <use xlink:href="#DejaVuSans-48"/>
      </g>
     </g>
    </g>
    <g id="xtick_12">
     <g id="line2d_26">
      <g>
       <use style="stroke:#000000;stroke-width:0.8;" x="562.0125" xlink:href="#m2528251a17" y="85.642867"/>
      </g>
     </g>
     <g id="text_24">
      <!-- 5 -->
      <g transform="translate(558.83125 100.241304)scale(0.1 -0.1)">
       <use xlink:href="#DejaVuSans-53"/>
      </g>
     </g>
    </g>
    <g id="text_25">
     <!-- k_imp_hetero -->
     <g transform="translate(482.241067 113.919429)scale(0.1 -0.1)">
      <use xlink:href="#DejaVuSans-107"/>
      <use x="57.910156" xlink:href="#DejaVuSans-95"/>
      <use x="107.910156" xlink:href="#DejaVuSans-105"/>
      <use x="135.693359" xlink:href="#DejaVuSans-109"/>
      <use x="233.105469" xlink:href="#DejaVuSans-112"/>
      <use x="296.582031" xlink:href="#DejaVuSans-95"/>
      <use x="346.582031" xlink:href="#DejaVuSans-104"/>
      <use x="409.960938" xlink:href="#DejaVuSans-101"/>
      <use x="471.484375" xlink:href="#DejaVuSans-116"/>
      <use x="510.693359" xlink:href="#DejaVuSans-101"/>
      <use x="572.216797" xlink:href="#DejaVuSans-114"/>
      <use x="613.298828" xlink:href="#DejaVuSans-111"/>
     </g>
    </g>
   </g>
   <g id="matplotlib.axis_8">
    <g id="ytick_9">
     <g id="line2d_27">
      <g>
       <use style="stroke:#000000;stroke-width:0.8;" x="469.918071" xlink:href="#md878d188b1" y="82.319267"/>
      </g>
     </g>
     <g id="text_26">
      <!-- 0 -->
      <g transform="translate(456.555571 86.118486)scale(0.1 -0.1)">
       <use xlink:href="#DejaVuSans-48"/>
      </g>
     </g>
    </g>
    <g id="ytick_10">
     <g id="line2d_28">
      <g>
       <use style="stroke:#000000;stroke-width:0.8;" x="469.918071" xlink:href="#md878d188b1" y="51.89565"/>
      </g>
     </g>
     <g id="text_27">
      <!-- 2 -->
      <g transform="translate(456.555571 55.694869)scale(0.1 -0.1)">
       <use xlink:href="#DejaVuSans-50"/>
      </g>
     </g>
    </g>
    <g id="ytick_11">
     <g id="line2d_29">
      <g>
       <use style="stroke:#000000;stroke-width:0.8;" x="469.918071" xlink:href="#md878d188b1" y="21.472034"/>
      </g>
     </g>
     <g id="text_28">
      <!-- 4 -->
      <defs>
       <path d="M 37.796875 64.3125 
L 12.890625 25.390625 
L 37.796875 25.390625 
z
M 35.203125 72.90625 
L 47.609375 72.90625 
L 47.609375 25.390625 
L 58.015625 25.390625 
L 58.015625 17.1875 
L 47.609375 17.1875 
L 47.609375 0 
L 37.796875 0 
L 37.796875 17.1875 
L 4.890625 17.1875 
L 4.890625 26.703125 
z
" id="DejaVuSans-52"/>
      </defs>
      <g transform="translate(456.555571 25.271252)scale(0.1 -0.1)">
       <use xlink:href="#DejaVuSans-52"/>
      </g>
     </g>
    </g>
   </g>
   <g id="line2d_30">
    <path clip-path="url(#p2bcc42ec01)" d="M 469.918071 82.319267 
L 471.797549 82.319267 
L 473.677027 82.319267 
L 475.556505 82.319267 
L 477.435983 82.319267 
L 479.315461 82.319267 
L 481.19494 82.319267 
L 483.074418 82.319267 
L 484.953896 82.319267 
L 486.833374 82.319267 
L 488.712852 82.319267 
L 490.59233 82.319267 
L 492.471808 82.319267 
L 494.351287 82.319267 
L 496.230765 82.319267 
L 498.110243 74.389048 
L 499.989721 15.847275 
L 501.869199 82.268064 
L 503.748677 82.319267 
L 505.628156 82.319267 
L 507.507634 82.319267 
L 509.387112 82.319267 
L 511.26659 82.319267 
L 513.146068 82.319267 
L 515.025546 82.319267 
L 516.905024 82.319267 
L 518.784503 82.319267 
L 520.663981 82.319267 
L 522.543459 82.319267 
L 524.422937 82.319267 
L 526.302415 82.319267 
L 528.181893 82.319267 
L 530.061371 82.319267 
L 531.94085 82.319267 
L 533.820328 82.319267 
L 535.699806 82.319267 
L 537.579284 82.319267 
L 539.458762 82.319267 
L 541.33824 82.319267 
L 543.217719 82.319267 
L 545.097197 82.319267 
L 546.976675 82.319267 
L 548.856153 82.319267 
L 550.735631 82.319267 
L 552.615109 82.319267 
L 554.494587 82.319267 
L 556.374066 82.319267 
L 558.253544 82.319267 
L 560.133022 82.319267 
L 562.0125 82.319267 
" style="fill:none;stroke:#1f77b4;stroke-linecap:square;stroke-width:1.5;"/>
   </g>
   <g id="line2d_31">
    <path clip-path="url(#p2bcc42ec01)" d="M 499.51716 85.642867 
L 499.51716 12.523675 
" style="fill:none;stroke:#808080;stroke-dasharray:1.5,2.475;stroke-dashoffset:0;stroke-width:1.5;"/>
   </g>
   <g id="patch_12">
    <path d="M 469.918071 85.642867 
L 469.918071 12.523675 
" style="fill:none;stroke:#000000;stroke-linecap:square;stroke-linejoin:miter;stroke-width:0.8;"/>
   </g>
   <g id="patch_13">
    <path d="M 469.918071 85.642867 
L 562.0125 85.642867 
" style="fill:none;stroke:#000000;stroke-linecap:square;stroke-linejoin:miter;stroke-width:0.8;"/>
   </g>
  </g>
  <g id="axes_5">
   <g id="patch_14">
    <path d="M 47.675 201.468308 
L 139.769429 201.468308 
L 139.769429 128.349117 
L 47.675 128.349117 
z
" style="fill:#ffffff;"/>
   </g>
   <g id="matplotlib.axis_9">
    <g id="xtick_13">
     <g id="line2d_32">
      <g>
       <use style="stroke:#000000;stroke-width:0.8;" x="47.675" xlink:href="#m2528251a17" y="201.468308"/>
      </g>
     </g>
     <g id="text_29">
      <!-- −5 -->
      <g transform="translate(40.303906 216.066746)scale(0.1 -0.1)">
       <use xlink:href="#DejaVuSans-8722"/>
       <use x="83.789062" xlink:href="#DejaVuSans-53"/>
      </g>
     </g>
    </g>
    <g id="xtick_14">
     <g id="line2d_33">
      <g>
       <use style="stroke:#000000;stroke-width:0.8;" x="93.722215" xlink:href="#m2528251a17" y="201.468308"/>
      </g>
     </g>
     <g id="text_30">
      <!-- 0 -->
      <g transform="translate(90.540965 216.066746)scale(0.1 -0.1)">
       <use xlink:href="#DejaVuSans-48"/>
      </g>
     </g>
    </g>
    <g id="xtick_15">
     <g id="line2d_34">
      <g>
       <use style="stroke:#000000;stroke-width:0.8;" x="139.769429" xlink:href="#m2528251a17" y="201.468308"/>
      </g>
     </g>
     <g id="text_31">
      <!-- 5 -->
      <g transform="translate(136.588179 216.066746)scale(0.1 -0.1)">
       <use xlink:href="#DejaVuSans-53"/>
      </g>
     </g>
    </g>
    <g id="text_32">
     <!-- k_imp_homo -->
     <g transform="translate(62.235496 229.744871)scale(0.1 -0.1)">
      <use xlink:href="#DejaVuSans-107"/>
      <use x="57.910156" xlink:href="#DejaVuSans-95"/>
      <use x="107.910156" xlink:href="#DejaVuSans-105"/>
      <use x="135.693359" xlink:href="#DejaVuSans-109"/>
      <use x="233.105469" xlink:href="#DejaVuSans-112"/>
      <use x="296.582031" xlink:href="#DejaVuSans-95"/>
      <use x="346.582031" xlink:href="#DejaVuSans-104"/>
      <use x="409.960938" xlink:href="#DejaVuSans-111"/>
      <use x="471.142578" xlink:href="#DejaVuSans-109"/>
      <use x="568.554688" xlink:href="#DejaVuSans-111"/>
     </g>
    </g>
   </g>
   <g id="matplotlib.axis_10">
    <g id="ytick_12">
     <g id="line2d_35">
      <g>
       <use style="stroke:#000000;stroke-width:0.8;" x="47.675" xlink:href="#md878d188b1" y="198.144709"/>
      </g>
     </g>
     <g id="text_33">
      <!-- 0.0 -->
      <g transform="translate(24.771875 201.943927)scale(0.1 -0.1)">
       <use xlink:href="#DejaVuSans-48"/>
       <use x="63.623047" xlink:href="#DejaVuSans-46"/>
       <use x="95.410156" xlink:href="#DejaVuSans-48"/>
      </g>
     </g>
    </g>
    <g id="ytick_13">
     <g id="line2d_36">
      <g>
       <use style="stroke:#000000;stroke-width:0.8;" x="47.675" xlink:href="#md878d188b1" y="166.431869"/>
      </g>
     </g>
     <g id="text_34">
      <!-- 0.1 -->
      <g transform="translate(24.771875 170.231088)scale(0.1 -0.1)">
       <use xlink:href="#DejaVuSans-48"/>
       <use x="63.623047" xlink:href="#DejaVuSans-46"/>
       <use x="95.410156" xlink:href="#DejaVuSans-49"/>
      </g>
     </g>
    </g>
    <g id="ytick_14">
     <g id="line2d_37">
      <g>
       <use style="stroke:#000000;stroke-width:0.8;" x="47.675" xlink:href="#md878d188b1" y="134.71903"/>
      </g>
     </g>
     <g id="text_35">
      <!-- 0.2 -->
      <g transform="translate(24.771875 138.518249)scale(0.1 -0.1)">
       <use xlink:href="#DejaVuSans-48"/>
       <use x="63.623047" xlink:href="#DejaVuSans-46"/>
       <use x="95.410156" xlink:href="#DejaVuSans-50"/>
      </g>
     </g>
    </g>
    <g id="text_36">
     <!-- Posterior -->
     <g transform="translate(18.692187 187.181369)rotate(-90)scale(0.1 -0.1)">
      <use xlink:href="#DejaVuSans-80"/>
      <use x="60.255859" xlink:href="#DejaVuSans-111"/>
      <use x="121.4375" xlink:href="#DejaVuSans-115"/>
      <use x="173.537109" xlink:href="#DejaVuSans-116"/>
      <use x="212.746094" xlink:href="#DejaVuSans-101"/>
      <use x="274.269531" xlink:href="#DejaVuSans-114"/>
      <use x="315.382812" xlink:href="#DejaVuSans-105"/>
      <use x="343.166016" xlink:href="#DejaVuSans-111"/>
      <use x="404.347656" xlink:href="#DejaVuSans-114"/>
     </g>
    </g>
   </g>
   <g id="line2d_38">
    <path clip-path="url(#pcdce173506)" d="M 47.675 198.144709 
L 49.554478 198.144709 
L 51.433956 198.144709 
L 53.313434 198.144709 
L 55.192913 198.144709 
L 57.072391 198.144709 
L 58.951869 198.144708 
L 60.831347 198.144707 
L 62.710825 198.144697 
L 64.590303 198.144647 
L 66.469781 198.144418 
L 68.34926 198.14347 
L 70.228738 198.139924 
L 72.108216 198.127943 
L 73.987694 198.091391 
L 75.867172 197.990813 
L 77.74665 197.741414 
L 79.626129 197.184705 
L 81.505607 196.067481 
L 83.385085 194.054874 
L 85.264563 190.80652 
L 87.144041 186.12003 
L 89.023519 180.093092 
L 90.902997 173.206452 
L 92.782476 166.237232 
L 94.661954 160.000205 
L 96.541432 155.036103 
L 98.42091 151.422627 
L 100.300388 148.815193 
L 102.179866 146.676612 
L 104.059344 144.545332 
L 105.938823 142.199646 
L 107.818301 139.672509 
L 109.697779 137.165503 
L 111.577257 134.937288 
L 113.456735 133.212517 
L 115.336213 132.121809 
L 117.215692 131.672716 
L 119.09517 131.757186 
L 120.974648 132.199678 
L 122.854126 132.835212 
L 124.733604 133.590828 
L 126.613082 134.541121 
L 128.49256 135.918322 
L 130.372039 138.070027 
L 132.251517 141.367498 
L 134.130995 146.078883 
L 136.010473 152.240008 
L 137.889951 159.573762 
L 139.769429 167.507691 
" style="fill:none;stroke:#1f77b4;stroke-linecap:square;stroke-width:1.5;"/>
   </g>
   <g id="line2d_39">
    <path clip-path="url(#pcdce173506)" d="M 139.678385 201.468308 
L 139.678385 128.349117 
" style="fill:none;stroke:#808080;stroke-dasharray:1.5,2.475;stroke-dashoffset:0;stroke-width:1.5;"/>
   </g>
   <g id="patch_15">
    <path d="M 47.675 201.468308 
L 47.675 128.349117 
" style="fill:none;stroke:#000000;stroke-linecap:square;stroke-linejoin:miter;stroke-width:0.8;"/>
   </g>
   <g id="patch_16">
    <path d="M 47.675 201.468308 
L 139.769429 201.468308 
" style="fill:none;stroke:#000000;stroke-linecap:square;stroke-linejoin:miter;stroke-width:0.8;"/>
   </g>
  </g>
  <g id="axes_6">
   <g id="patch_17">
    <path d="M 188.42269 201.468308 
L 280.51712 201.468308 
L 280.51712 128.349117 
L 188.42269 128.349117 
z
" style="fill:#ffffff;"/>
   </g>
   <g id="matplotlib.axis_11">
    <g id="xtick_16">
     <g id="line2d_40">
      <g>
       <use style="stroke:#000000;stroke-width:0.8;" x="188.42269" xlink:href="#m2528251a17" y="201.468308"/>
      </g>
     </g>
     <g id="text_37">
      <!-- −5 -->
      <g transform="translate(181.051596 216.066746)scale(0.1 -0.1)">
       <use xlink:href="#DejaVuSans-8722"/>
       <use x="83.789062" xlink:href="#DejaVuSans-53"/>
      </g>
     </g>
    </g>
    <g id="xtick_17">
     <g id="line2d_41">
      <g>
       <use style="stroke:#000000;stroke-width:0.8;" x="234.469905" xlink:href="#m2528251a17" y="201.468308"/>
      </g>
     </g>
     <g id="text_38">
      <!-- 0 -->
      <g transform="translate(231.288655 216.066746)scale(0.1 -0.1)">
       <use xlink:href="#DejaVuSans-48"/>
      </g>
     </g>
    </g>
    <g id="xtick_18">
     <g id="line2d_42">
      <g>
       <use style="stroke:#000000;stroke-width:0.8;" x="280.51712" xlink:href="#m2528251a17" y="201.468308"/>
      </g>
     </g>
     <g id="text_39">
      <!-- 5 -->
      <g transform="translate(277.33587 216.066746)scale(0.1 -0.1)">
       <use xlink:href="#DejaVuSans-53"/>
      </g>
     </g>
    </g>
    <g id="text_40">
     <!-- k_phos -->
     <g transform="translate(217.067561 229.744871)scale(0.1 -0.1)">
      <use xlink:href="#DejaVuSans-107"/>
      <use x="57.910156" xlink:href="#DejaVuSans-95"/>
      <use x="107.910156" xlink:href="#DejaVuSans-112"/>
      <use x="171.386719" xlink:href="#DejaVuSans-104"/>
      <use x="234.765625" xlink:href="#DejaVuSans-111"/>
      <use x="295.947266" xlink:href="#DejaVuSans-115"/>
     </g>
    </g>
   </g>
   <g id="matplotlib.axis_12">
    <g id="ytick_15">
     <g id="line2d_43">
      <g>
       <use style="stroke:#000000;stroke-width:0.8;" x="188.42269" xlink:href="#md878d188b1" y="198.144709"/>
      </g>
     </g>
     <g id="text_41">
      <!-- 0.0 -->
      <g transform="translate(165.519565 201.943927)scale(0.1 -0.1)">
       <use xlink:href="#DejaVuSans-48"/>
       <use x="63.623047" xlink:href="#DejaVuSans-46"/>
       <use x="95.410156" xlink:href="#DejaVuSans-48"/>
      </g>
     </g>
    </g>
    <g id="ytick_16">
     <g id="line2d_44">
      <g>
       <use style="stroke:#000000;stroke-width:0.8;" x="188.42269" xlink:href="#md878d188b1" y="170.909604"/>
      </g>
     </g>
     <g id="text_42">
      <!-- 2.5 -->
      <g transform="translate(165.519565 174.708822)scale(0.1 -0.1)">
       <use xlink:href="#DejaVuSans-50"/>
       <use x="63.623047" xlink:href="#DejaVuSans-46"/>
       <use x="95.410156" xlink:href="#DejaVuSans-53"/>
      </g>
     </g>
    </g>
    <g id="ytick_17">
     <g id="line2d_45">
      <g>
       <use style="stroke:#000000;stroke-width:0.8;" x="188.42269" xlink:href="#md878d188b1" y="143.674499"/>
      </g>
     </g>
     <g id="text_43">
      <!-- 5.0 -->
      <g transform="translate(165.519565 147.473717)scale(0.1 -0.1)">
       <use xlink:href="#DejaVuSans-53"/>
       <use x="63.623047" xlink:href="#DejaVuSans-46"/>
       <use x="95.410156" xlink:href="#DejaVuSans-48"/>
      </g>
     </g>
    </g>
   </g>
   <g id="line2d_46">
    <path clip-path="url(#pa793442f6d)" d="M 188.42269 198.144709 
L 190.302168 198.144709 
L 192.181647 198.144709 
L 194.061125 198.144709 
L 195.940603 198.144709 
L 197.820081 198.144709 
L 199.699559 198.144709 
L 201.579037 198.144709 
L 203.458515 198.144709 
L 205.337994 198.144709 
L 207.217472 198.144709 
L 209.09695 198.144709 
L 210.976428 198.144709 
L 212.855906 198.144709 
L 214.735384 198.144709 
L 216.614862 198.144709 
L 218.494341 198.144709 
L 220.373819 198.144709 
L 222.253297 198.144709 
L 224.132775 198.144709 
L 226.012253 198.144709 
L 227.891731 198.144709 
L 229.77121 198.144709 
L 231.650688 198.144709 
L 233.530166 198.144709 
L 235.409644 198.144709 
L 237.289122 198.144709 
L 239.1686 198.144709 
L 241.048078 198.144709 
L 242.927557 198.144709 
L 244.807035 198.144709 
L 246.686513 198.144709 
L 248.565991 198.144709 
L 250.445469 198.144709 
L 252.324947 198.144709 
L 254.204425 198.144709 
L 256.083904 198.144709 
L 257.963382 198.144709 
L 259.84286 198.144709 
L 261.722338 198.144709 
L 263.601816 198.144709 
L 265.481294 198.144709 
L 267.360773 198.144709 
L 269.240251 198.144709 
L 271.119729 198.144705 
L 272.999207 131.672716 
L 274.878685 198.078386 
L 276.758163 198.144709 
L 278.637641 198.144709 
L 280.51712 198.144709 
" style="fill:none;stroke:#1f77b4;stroke-linecap:square;stroke-width:1.5;"/>
   </g>
   <g id="line2d_47">
    <path clip-path="url(#pa793442f6d)" d="M 273.12871 201.468308 
L 273.12871 128.349117 
" style="fill:none;stroke:#808080;stroke-dasharray:1.5,2.475;stroke-dashoffset:0;stroke-width:1.5;"/>
   </g>
   <g id="patch_18">
    <path d="M 188.42269 201.468308 
L 188.42269 128.349117 
" style="fill:none;stroke:#000000;stroke-linecap:square;stroke-linejoin:miter;stroke-width:0.8;"/>
   </g>
   <g id="patch_19">
    <path d="M 188.42269 201.468308 
L 280.51712 201.468308 
" style="fill:none;stroke:#000000;stroke-linecap:square;stroke-linejoin:miter;stroke-width:0.8;"/>
   </g>
  </g>
  <g id="axes_7">
   <g id="patch_20">
    <path d="M 329.17038 201.468308 
L 421.26481 201.468308 
L 421.26481 128.349117 
L 329.17038 128.349117 
z
" style="fill:#ffffff;"/>
   </g>
   <g id="matplotlib.axis_13">
    <g id="xtick_19">
     <g id="line2d_48">
      <g>
       <use style="stroke:#000000;stroke-width:0.8;" x="329.17038" xlink:href="#m2528251a17" y="201.468308"/>
      </g>
     </g>
     <g id="text_44">
      <!-- −5 -->
      <g transform="translate(321.799287 216.066746)scale(0.1 -0.1)">
       <use xlink:href="#DejaVuSans-8722"/>
       <use x="83.789062" xlink:href="#DejaVuSans-53"/>
      </g>
     </g>
    </g>
    <g id="xtick_20">
     <g id="line2d_49">
      <g>
       <use style="stroke:#000000;stroke-width:0.8;" x="375.217595" xlink:href="#m2528251a17" y="201.468308"/>
      </g>
     </g>
     <g id="text_45">
      <!-- 0 -->
      <g transform="translate(372.036345 216.066746)scale(0.1 -0.1)">
       <use xlink:href="#DejaVuSans-48"/>
      </g>
     </g>
    </g>
    <g id="xtick_21">
     <g id="line2d_50">
      <g>
       <use style="stroke:#000000;stroke-width:0.8;" x="421.26481" xlink:href="#m2528251a17" y="201.468308"/>
      </g>
     </g>
     <g id="text_46">
      <!-- 5 -->
      <g transform="translate(418.08356 216.066746)scale(0.1 -0.1)">
       <use xlink:href="#DejaVuSans-53"/>
      </g>
     </g>
    </g>
    <g id="text_47">
     <!-- ratio -->
     <g transform="translate(363.68947 229.744871)scale(0.1 -0.1)">
      <use xlink:href="#DejaVuSans-114"/>
      <use x="41.113281" xlink:href="#DejaVuSans-97"/>
      <use x="102.392578" xlink:href="#DejaVuSans-116"/>
      <use x="141.601562" xlink:href="#DejaVuSans-105"/>
      <use x="169.384766" xlink:href="#DejaVuSans-111"/>
     </g>
    </g>
   </g>
   <g id="matplotlib.axis_14">
    <g id="ytick_18">
     <g id="line2d_51">
      <g>
       <use style="stroke:#000000;stroke-width:0.8;" x="329.17038" xlink:href="#md878d188b1" y="201.468308"/>
      </g>
     </g>
     <g id="text_48">
      <!-- 0.00 -->
      <g transform="translate(299.904755 205.267527)scale(0.1 -0.1)">
       <use xlink:href="#DejaVuSans-48"/>
       <use x="63.623047" xlink:href="#DejaVuSans-46"/>
       <use x="95.410156" xlink:href="#DejaVuSans-48"/>
       <use x="159.033203" xlink:href="#DejaVuSans-48"/>
      </g>
     </g>
    </g>
    <g id="ytick_19">
     <g id="line2d_52">
      <g>
       <use style="stroke:#000000;stroke-width:0.8;" x="329.17038" xlink:href="#md878d188b1" y="168.093773"/>
      </g>
     </g>
     <g id="text_49">
      <!-- 0.05 -->
      <g transform="translate(299.904755 171.892992)scale(0.1 -0.1)">
       <use xlink:href="#DejaVuSans-48"/>
       <use x="63.623047" xlink:href="#DejaVuSans-46"/>
       <use x="95.410156" xlink:href="#DejaVuSans-48"/>
       <use x="159.033203" xlink:href="#DejaVuSans-53"/>
      </g>
     </g>
    </g>
    <g id="ytick_20">
     <g id="line2d_53">
      <g>
       <use style="stroke:#000000;stroke-width:0.8;" x="329.17038" xlink:href="#md878d188b1" y="134.719237"/>
      </g>
     </g>
     <g id="text_50">
      <!-- 0.10 -->
      <g transform="translate(299.904755 138.518456)scale(0.1 -0.1)">
       <use xlink:href="#DejaVuSans-48"/>
       <use x="63.623047" xlink:href="#DejaVuSans-46"/>
       <use x="95.410156" xlink:href="#DejaVuSans-49"/>
       <use x="159.033203" xlink:href="#DejaVuSans-48"/>
      </g>
     </g>
    </g>
   </g>
   <g id="line2d_54">
    <path clip-path="url(#p63baac898a)" d="M 329.17038 152.641121 
L 331.049859 147.653527 
L 332.929337 143.137082 
L 334.808815 139.22676 
L 336.688293 136.016747 
L 338.567771 133.553772 
L 340.447249 131.835872 
L 342.326727 130.816528 
L 344.206206 130.413329 
L 346.085684 130.519651 
L 347.965162 131.017514 
L 349.84464 131.789792 
L 351.724118 132.730273 
L 353.603596 133.750584 
L 355.483075 134.783663 
L 357.362553 135.783982 
L 359.242031 136.725224 
L 361.121509 137.596326 
L 363.000987 138.396853 
L 364.880465 139.132535 
L 366.759943 139.81155 
L 368.639422 140.44186 
L 370.5189 141.029637 
L 372.398378 141.578634 
L 374.277856 142.090218 
L 376.157334 142.563824 
L 378.036812 142.997571 
L 379.91629 143.388942 
L 381.795769 143.735498 
L 383.675247 144.035668 
L 385.554725 144.289705 
L 387.434203 144.500859 
L 389.313681 144.676757 
L 391.193159 144.830867 
L 393.072638 144.983855 
L 394.952116 145.164535 
L 396.831594 145.410118 
L 398.711072 145.765501 
L 400.59055 146.281422 
L 402.470028 147.011465 
L 404.349506 148.008087 
L 406.228985 149.317973 
L 408.108463 150.977223 
L 409.987941 153.006895 
L 411.867419 155.409503 
L 413.746897 158.166938 
L 415.626375 161.240181 
L 417.505853 164.570928 
L 419.385332 168.085055 
L 421.26481 171.69757 
" style="fill:none;stroke:#1f77b4;stroke-linecap:square;stroke-width:1.5;"/>
   </g>
   <g id="line2d_55">
    <path clip-path="url(#p63baac898a)" d="M 381.599739 201.468308 
L 381.599739 128.349117 
" style="fill:none;stroke:#808080;stroke-dasharray:1.5,2.475;stroke-dashoffset:0;stroke-width:1.5;"/>
   </g>
   <g id="patch_21">
    <path d="M 329.17038 201.468308 
L 329.17038 128.349117 
" style="fill:none;stroke:#000000;stroke-linecap:square;stroke-linejoin:miter;stroke-width:0.8;"/>
   </g>
   <g id="patch_22">
    <path d="M 329.17038 201.468308 
L 421.26481 201.468308 
" style="fill:none;stroke:#000000;stroke-linecap:square;stroke-linejoin:miter;stroke-width:0.8;"/>
   </g>
  </g>
  <g id="axes_8">
   <g id="patch_23">
    <path d="M 469.918071 201.468308 
L 562.0125 201.468308 
L 562.0125 128.349117 
L 469.918071 128.349117 
z
" style="fill:#ffffff;"/>
   </g>
   <g id="matplotlib.axis_15">
    <g id="xtick_22">
     <g id="line2d_56">
      <g>
       <use style="stroke:#000000;stroke-width:0.8;" x="469.918071" xlink:href="#m2528251a17" y="201.468308"/>
      </g>
     </g>
     <g id="text_51">
      <!-- −5 -->
      <g transform="translate(462.546977 216.066746)scale(0.1 -0.1)">
       <use xlink:href="#DejaVuSans-8722"/>
       <use x="83.789062" xlink:href="#DejaVuSans-53"/>
      </g>
     </g>
    </g>
    <g id="xtick_23">
     <g id="line2d_57">
      <g>
       <use style="stroke:#000000;stroke-width:0.8;" x="515.965285" xlink:href="#m2528251a17" y="201.468308"/>
      </g>
     </g>
     <g id="text_52">
      <!-- 0 -->
      <g transform="translate(512.784035 216.066746)scale(0.1 -0.1)">
       <use xlink:href="#DejaVuSans-48"/>
      </g>
     </g>
    </g>
    <g id="xtick_24">
     <g id="line2d_58">
      <g>
       <use style="stroke:#000000;stroke-width:0.8;" x="562.0125" xlink:href="#m2528251a17" y="201.468308"/>
      </g>
     </g>
     <g id="text_53">
      <!-- 5 -->
      <g transform="translate(558.83125 216.066746)scale(0.1 -0.1)">
       <use xlink:href="#DejaVuSans-53"/>
      </g>
     </g>
    </g>
    <g id="text_54">
     <!-- sd_pSTAT5A_rel -->
     <defs>
      <path d="M 53.515625 70.515625 
L 53.515625 60.890625 
Q 47.90625 63.578125 42.921875 64.890625 
Q 37.9375 66.21875 33.296875 66.21875 
Q 25.25 66.21875 20.875 63.09375 
Q 16.5 59.96875 16.5 54.203125 
Q 16.5 49.359375 19.40625 46.890625 
Q 22.3125 44.4375 30.421875 42.921875 
L 36.375 41.703125 
Q 47.40625 39.59375 52.65625 34.296875 
Q 57.90625 29 57.90625 20.125 
Q 57.90625 9.515625 50.796875 4.046875 
Q 43.703125 -1.421875 29.984375 -1.421875 
Q 24.8125 -1.421875 18.96875 -0.25 
Q 13.140625 0.921875 6.890625 3.21875 
L 6.890625 13.375 
Q 12.890625 10.015625 18.65625 8.296875 
Q 24.421875 6.59375 29.984375 6.59375 
Q 38.421875 6.59375 43.015625 9.90625 
Q 47.609375 13.234375 47.609375 19.390625 
Q 47.609375 24.75 44.3125 27.78125 
Q 41.015625 30.8125 33.5 32.328125 
L 27.484375 33.5 
Q 16.453125 35.6875 11.515625 40.375 
Q 6.59375 45.0625 6.59375 53.421875 
Q 6.59375 63.09375 13.40625 68.65625 
Q 20.21875 74.21875 32.171875 74.21875 
Q 37.3125 74.21875 42.625 73.28125 
Q 47.953125 72.359375 53.515625 70.515625 
z
" id="DejaVuSans-83"/>
      <path d="M -0.296875 72.90625 
L 61.375 72.90625 
L 61.375 64.59375 
L 35.5 64.59375 
L 35.5 0 
L 25.59375 0 
L 25.59375 64.59375 
L -0.296875 64.59375 
z
" id="DejaVuSans-84"/>
      <path d="M 34.1875 63.1875 
L 20.796875 26.90625 
L 47.609375 26.90625 
z
M 28.609375 72.90625 
L 39.796875 72.90625 
L 67.578125 0 
L 57.328125 0 
L 50.6875 18.703125 
L 17.828125 18.703125 
L 11.1875 0 
L 0.78125 0 
z
" id="DejaVuSans-65"/>
      <path d="M 9.421875 75.984375 
L 18.40625 75.984375 
L 18.40625 0 
L 9.421875 0 
z
" id="DejaVuSans-108"/>
     </defs>
     <g transform="translate(476.19966 229.744871)scale(0.1 -0.1)">
      <use xlink:href="#DejaVuSans-115"/>
      <use x="52.099609" xlink:href="#DejaVuSans-100"/>
      <use x="115.576172" xlink:href="#DejaVuSans-95"/>
      <use x="165.576172" xlink:href="#DejaVuSans-112"/>
      <use x="229.052734" xlink:href="#DejaVuSans-83"/>
      <use x="292.529297" xlink:href="#DejaVuSans-84"/>
      <use x="353.503906" xlink:href="#DejaVuSans-65"/>
      <use x="421.802734" xlink:href="#DejaVuSans-84"/>
      <use x="482.886719" xlink:href="#DejaVuSans-53"/>
      <use x="546.509766" xlink:href="#DejaVuSans-65"/>
      <use x="614.917969" xlink:href="#DejaVuSans-95"/>
      <use x="664.917969" xlink:href="#DejaVuSans-114"/>
      <use x="706" xlink:href="#DejaVuSans-101"/>
      <use x="767.523438" xlink:href="#DejaVuSans-108"/>
     </g>
    </g>
   </g>
   <g id="matplotlib.axis_16">
    <g id="ytick_21">
     <g id="line2d_59">
      <g>
       <use style="stroke:#000000;stroke-width:0.8;" x="469.918071" xlink:href="#md878d188b1" y="198.144709"/>
      </g>
     </g>
     <g id="text_55">
      <!-- 0.0 -->
      <g transform="translate(447.014946 201.943927)scale(0.1 -0.1)">
       <use xlink:href="#DejaVuSans-48"/>
       <use x="63.623047" xlink:href="#DejaVuSans-46"/>
       <use x="95.410156" xlink:href="#DejaVuSans-48"/>
      </g>
     </g>
    </g>
    <g id="ytick_22">
     <g id="line2d_60">
      <g>
       <use style="stroke:#000000;stroke-width:0.8;" x="469.918071" xlink:href="#md878d188b1" y="167.703243"/>
      </g>
     </g>
     <g id="text_56">
      <!-- 0.1 -->
      <g transform="translate(447.014946 171.502462)scale(0.1 -0.1)">
       <use xlink:href="#DejaVuSans-48"/>
       <use x="63.623047" xlink:href="#DejaVuSans-46"/>
       <use x="95.410156" xlink:href="#DejaVuSans-49"/>
      </g>
     </g>
    </g>
    <g id="ytick_23">
     <g id="line2d_61">
      <g>
       <use style="stroke:#000000;stroke-width:0.8;" x="469.918071" xlink:href="#md878d188b1" y="137.261778"/>
      </g>
     </g>
     <g id="text_57">
      <!-- 0.2 -->
      <g transform="translate(447.014946 141.060997)scale(0.1 -0.1)">
       <use xlink:href="#DejaVuSans-48"/>
       <use x="63.623047" xlink:href="#DejaVuSans-46"/>
       <use x="95.410156" xlink:href="#DejaVuSans-50"/>
      </g>
     </g>
    </g>
   </g>
   <g id="line2d_62">
    <path clip-path="url(#p458e39bf8e)" d="M 469.918071 165.535083 
L 471.797549 156.608833 
L 473.677027 147.96223 
L 475.556505 140.51116 
L 477.435983 135.060171 
L 479.315461 132.100186 
L 481.19494 131.672716 
L 483.074418 133.35965 
L 484.953896 136.411996 
L 486.833374 139.971043 
L 488.712852 143.295705 
L 490.59233 145.914333 
L 492.471808 147.662728 
L 494.351287 148.623597 
L 496.230765 149.016772 
L 498.110243 149.092946 
L 499.989721 149.064873 
L 501.869199 149.084926 
L 503.748677 149.25885 
L 505.628156 149.676775 
L 507.507634 150.442747 
L 509.387112 151.689187 
L 511.26659 153.569117 
L 513.146068 156.225127 
L 515.025546 159.740906 
L 516.905024 164.089644 
L 518.784503 169.100794 
L 520.663981 174.465971 
L 522.543459 179.791719 
L 524.422937 184.685467 
L 526.302415 188.843517 
L 528.181893 192.107999 
L 530.061371 194.475178 
L 531.94085 196.060227 
L 533.820328 197.040188 
L 535.699806 197.599588 
L 537.579284 197.894432 
L 539.458762 198.037923 
L 541.33824 198.102404 
L 543.217719 198.129159 
L 545.097197 198.13941 
L 546.976675 198.143035 
L 548.856153 198.144219 
L 550.735631 198.144576 
L 552.615109 198.144676 
L 554.494587 198.144701 
L 556.374066 198.144707 
L 558.253544 198.144708 
L 560.133022 198.144709 
L 562.0125 198.144709 
" style="fill:none;stroke:#1f77b4;stroke-linecap:square;stroke-width:1.5;"/>
   </g>
   <g id="line2d_63">
    <path clip-path="url(#p458e39bf8e)" d="M 521.359765 201.468308 
L 521.359765 128.349117 
" style="fill:none;stroke:#808080;stroke-dasharray:1.5,2.475;stroke-dashoffset:0;stroke-width:1.5;"/>
   </g>
   <g id="patch_24">
    <path d="M 469.918071 201.468308 
L 469.918071 128.349117 
" style="fill:none;stroke:#000000;stroke-linecap:square;stroke-linejoin:miter;stroke-width:0.8;"/>
   </g>
   <g id="patch_25">
    <path d="M 469.918071 201.468308 
L 562.0125 201.468308 
" style="fill:none;stroke:#000000;stroke-linecap:square;stroke-linejoin:miter;stroke-width:0.8;"/>
   </g>
  </g>
  <g id="axes_9">
   <g id="patch_26">
    <path d="M 47.675 317.29375 
L 139.769429 317.29375 
L 139.769429 244.174558 
L 47.675 244.174558 
z
" style="fill:#ffffff;"/>
   </g>
   <g id="matplotlib.axis_17">
    <g id="xtick_25">
     <g id="line2d_64">
      <g>
       <use style="stroke:#000000;stroke-width:0.8;" x="47.675" xlink:href="#m2528251a17" y="317.29375"/>
      </g>
     </g>
     <g id="text_58">
      <!-- −5 -->
      <g transform="translate(40.303906 331.892188)scale(0.1 -0.1)">
       <use xlink:href="#DejaVuSans-8722"/>
       <use x="83.789062" xlink:href="#DejaVuSans-53"/>
      </g>
     </g>
    </g>
    <g id="xtick_26">
     <g id="line2d_65">
      <g>
       <use style="stroke:#000000;stroke-width:0.8;" x="93.722215" xlink:href="#m2528251a17" y="317.29375"/>
      </g>
     </g>
     <g id="text_59">
      <!-- 0 -->
      <g transform="translate(90.540965 331.892188)scale(0.1 -0.1)">
       <use xlink:href="#DejaVuSans-48"/>
      </g>
     </g>
    </g>
    <g id="xtick_27">
     <g id="line2d_66">
      <g>
       <use style="stroke:#000000;stroke-width:0.8;" x="139.769429" xlink:href="#m2528251a17" y="317.29375"/>
      </g>
     </g>
     <g id="text_60">
      <!-- 5 -->
      <g transform="translate(136.588179 331.892188)scale(0.1 -0.1)">
       <use xlink:href="#DejaVuSans-53"/>
      </g>
     </g>
    </g>
    <g id="text_61">
     <!-- sd_pSTAT5B_rel -->
     <g transform="translate(53.946433 345.570312)scale(0.1 -0.1)">
      <use xlink:href="#DejaVuSans-115"/>
      <use x="52.099609" xlink:href="#DejaVuSans-100"/>
      <use x="115.576172" xlink:href="#DejaVuSans-95"/>
      <use x="165.576172" xlink:href="#DejaVuSans-112"/>
      <use x="229.052734" xlink:href="#DejaVuSans-83"/>
      <use x="292.529297" xlink:href="#DejaVuSans-84"/>
      <use x="353.503906" xlink:href="#DejaVuSans-65"/>
      <use x="421.802734" xlink:href="#DejaVuSans-84"/>
      <use x="482.886719" xlink:href="#DejaVuSans-53"/>
      <use x="546.509766" xlink:href="#DejaVuSans-66"/>
      <use x="615.113281" xlink:href="#DejaVuSans-95"/>
      <use x="665.113281" xlink:href="#DejaVuSans-114"/>
      <use x="706.195312" xlink:href="#DejaVuSans-101"/>
      <use x="767.71875" xlink:href="#DejaVuSans-108"/>
     </g>
    </g>
   </g>
   <g id="matplotlib.axis_18">
    <g id="ytick_24">
     <g id="line2d_67">
      <g>
       <use style="stroke:#000000;stroke-width:0.8;" x="47.675" xlink:href="#md878d188b1" y="313.97015"/>
      </g>
     </g>
     <g id="text_62">
      <!-- 0 -->
      <g transform="translate(34.3125 317.769369)scale(0.1 -0.1)">
       <use xlink:href="#DejaVuSans-48"/>
      </g>
     </g>
    </g>
    <g id="ytick_25">
     <g id="line2d_68">
      <g>
       <use style="stroke:#000000;stroke-width:0.8;" x="47.675" xlink:href="#md878d188b1" y="280.938646"/>
      </g>
     </g>
     <g id="text_63">
      <!-- 1 -->
      <g transform="translate(34.3125 284.737865)scale(0.1 -0.1)">
       <use xlink:href="#DejaVuSans-49"/>
      </g>
     </g>
    </g>
    <g id="ytick_26">
     <g id="line2d_69">
      <g>
       <use style="stroke:#000000;stroke-width:0.8;" x="47.675" xlink:href="#md878d188b1" y="247.907141"/>
      </g>
     </g>
     <g id="text_64">
      <!-- 2 -->
      <g transform="translate(34.3125 251.70636)scale(0.1 -0.1)">
       <use xlink:href="#DejaVuSans-50"/>
      </g>
     </g>
    </g>
    <g id="text_65">
     <!-- Posterior -->
     <g transform="translate(28.232812 303.00681)rotate(-90)scale(0.1 -0.1)">
      <use xlink:href="#DejaVuSans-80"/>
      <use x="60.255859" xlink:href="#DejaVuSans-111"/>
      <use x="121.4375" xlink:href="#DejaVuSans-115"/>
      <use x="173.537109" xlink:href="#DejaVuSans-116"/>
      <use x="212.746094" xlink:href="#DejaVuSans-101"/>
      <use x="274.269531" xlink:href="#DejaVuSans-114"/>
      <use x="315.382812" xlink:href="#DejaVuSans-105"/>
      <use x="343.166016" xlink:href="#DejaVuSans-111"/>
      <use x="404.347656" xlink:href="#DejaVuSans-114"/>
     </g>
    </g>
   </g>
   <g id="line2d_70">
    <path clip-path="url(#p5eb776737b)" d="M 47.675 313.97015 
L 49.554478 313.97015 
L 51.433956 313.97015 
L 53.313434 313.969997 
L 55.192913 313.969996 
L 57.072391 313.97015 
L 58.951869 313.97015 
L 60.831347 313.97015 
L 62.710825 313.97015 
L 64.590303 313.97015 
L 66.469781 313.97015 
L 68.34926 313.97015 
L 70.228738 313.97015 
L 72.108216 313.97015 
L 73.987694 313.97015 
L 75.867172 313.97015 
L 77.74665 313.97015 
L 79.626129 313.97015 
L 81.505607 313.97015 
L 83.385085 313.969697 
L 85.264563 313.80946 
L 87.144041 313.728478 
L 89.023519 313.862748 
L 90.902997 313.963183 
L 92.782476 313.811683 
L 94.661954 312.131662 
L 96.541432 299.005288 
L 98.42091 262.885036 
L 100.300388 247.498158 
L 102.179866 289.108122 
L 104.059344 313.11242 
L 105.938823 313.96419 
L 107.818301 313.97015 
L 109.697779 313.97015 
L 111.577257 313.97015 
L 113.456735 313.97015 
L 115.336213 313.97015 
L 117.215692 313.97015 
L 119.09517 313.97015 
L 120.974648 313.97015 
L 122.854126 313.97015 
L 124.733604 313.97015 
L 126.613082 313.97015 
L 128.49256 313.97015 
L 130.372039 313.97015 
L 132.251517 313.97015 
L 134.130995 313.97015 
L 136.010473 313.97015 
L 137.889951 313.97015 
L 139.769429 313.97015 
" style="fill:none;stroke:#1f77b4;stroke-linecap:square;stroke-width:1.5;"/>
   </g>
   <g id="line2d_71">
    <path clip-path="url(#p5eb776737b)" d="M 101.26459 317.29375 
L 101.26459 244.174558 
" style="fill:none;stroke:#808080;stroke-dasharray:1.5,2.475;stroke-dashoffset:0;stroke-width:1.5;"/>
   </g>
   <g id="patch_27">
    <path d="M 47.675 317.29375 
L 47.675 244.174558 
" style="fill:none;stroke:#000000;stroke-linecap:square;stroke-linejoin:miter;stroke-width:0.8;"/>
   </g>
   <g id="patch_28">
    <path d="M 47.675 317.29375 
L 139.769429 317.29375 
" style="fill:none;stroke:#000000;stroke-linecap:square;stroke-linejoin:miter;stroke-width:0.8;"/>
   </g>
  </g>
  <g id="axes_10">
   <g id="patch_29">
    <path d="M 188.42269 317.29375 
L 280.51712 317.29375 
L 280.51712 244.174558 
L 188.42269 244.174558 
z
" style="fill:#ffffff;"/>
   </g>
   <g id="matplotlib.axis_19">
    <g id="xtick_28">
     <g id="line2d_72">
      <g>
       <use style="stroke:#000000;stroke-width:0.8;" x="188.42269" xlink:href="#m2528251a17" y="317.29375"/>
      </g>
     </g>
     <g id="text_66">
      <!-- −5 -->
      <g transform="translate(181.051596 331.892188)scale(0.1 -0.1)">
       <use xlink:href="#DejaVuSans-8722"/>
       <use x="83.789062" xlink:href="#DejaVuSans-53"/>
      </g>
     </g>
    </g>
    <g id="xtick_29">
     <g id="line2d_73">
      <g>
       <use style="stroke:#000000;stroke-width:0.8;" x="234.469905" xlink:href="#m2528251a17" y="317.29375"/>
      </g>
     </g>
     <g id="text_67">
      <!-- 0 -->
      <g transform="translate(231.288655 331.892188)scale(0.1 -0.1)">
       <use xlink:href="#DejaVuSans-48"/>
      </g>
     </g>
    </g>
    <g id="xtick_30">
     <g id="line2d_74">
      <g>
       <use style="stroke:#000000;stroke-width:0.8;" x="280.51712" xlink:href="#m2528251a17" y="317.29375"/>
      </g>
     </g>
     <g id="text_68">
      <!-- 5 -->
      <g transform="translate(277.33587 331.892188)scale(0.1 -0.1)">
       <use xlink:href="#DejaVuSans-53"/>
      </g>
     </g>
    </g>
    <g id="text_69">
     <!-- sd_rSTAT5A_rel -->
     <g transform="translate(195.82303 345.570312)scale(0.1 -0.1)">
      <use xlink:href="#DejaVuSans-115"/>
      <use x="52.099609" xlink:href="#DejaVuSans-100"/>
      <use x="115.576172" xlink:href="#DejaVuSans-95"/>
      <use x="165.576172" xlink:href="#DejaVuSans-114"/>
      <use x="206.689453" xlink:href="#DejaVuSans-83"/>
      <use x="270.166016" xlink:href="#DejaVuSans-84"/>
      <use x="331.140625" xlink:href="#DejaVuSans-65"/>
      <use x="399.439453" xlink:href="#DejaVuSans-84"/>
      <use x="460.523438" xlink:href="#DejaVuSans-53"/>
      <use x="524.146484" xlink:href="#DejaVuSans-65"/>
      <use x="592.554688" xlink:href="#DejaVuSans-95"/>
      <use x="642.554688" xlink:href="#DejaVuSans-114"/>
      <use x="683.636719" xlink:href="#DejaVuSans-101"/>
      <use x="745.160156" xlink:href="#DejaVuSans-108"/>
     </g>
    </g>
   </g>
   <g id="matplotlib.axis_20">
    <g id="ytick_27">
     <g id="line2d_75">
      <g>
       <use style="stroke:#000000;stroke-width:0.8;" x="188.42269" xlink:href="#md878d188b1" y="313.97015"/>
      </g>
     </g>
     <g id="text_70">
      <!-- 0.0 -->
      <g transform="translate(165.519565 317.769369)scale(0.1 -0.1)">
       <use xlink:href="#DejaVuSans-48"/>
       <use x="63.623047" xlink:href="#DejaVuSans-46"/>
       <use x="95.410156" xlink:href="#DejaVuSans-48"/>
      </g>
     </g>
    </g>
    <g id="ytick_28">
     <g id="line2d_76">
      <g>
       <use style="stroke:#000000;stroke-width:0.8;" x="188.42269" xlink:href="#md878d188b1" y="281.70132"/>
      </g>
     </g>
     <g id="text_71">
      <!-- 0.1 -->
      <g transform="translate(165.519565 285.500539)scale(0.1 -0.1)">
       <use xlink:href="#DejaVuSans-48"/>
       <use x="63.623047" xlink:href="#DejaVuSans-46"/>
       <use x="95.410156" xlink:href="#DejaVuSans-49"/>
      </g>
     </g>
    </g>
    <g id="ytick_29">
     <g id="line2d_77">
      <g>
       <use style="stroke:#000000;stroke-width:0.8;" x="188.42269" xlink:href="#md878d188b1" y="249.432489"/>
      </g>
     </g>
     <g id="text_72">
      <!-- 0.2 -->
      <g transform="translate(165.519565 253.231708)scale(0.1 -0.1)">
       <use xlink:href="#DejaVuSans-48"/>
       <use x="63.623047" xlink:href="#DejaVuSans-46"/>
       <use x="95.410156" xlink:href="#DejaVuSans-50"/>
      </g>
     </g>
    </g>
   </g>
   <g id="line2d_78">
    <path clip-path="url(#peff39468e0)" d="M 188.42269 287.930467 
L 190.302168 281.667057 
L 192.181647 275.812274 
L 194.061125 270.790194 
L 195.940603 266.858312 
L 197.820081 264.084748 
L 199.699559 262.376301 
L 201.579037 261.531609 
L 203.458515 261.292994 
L 205.337994 261.384153 
L 207.217472 261.536073 
L 209.09695 261.509862 
L 210.976428 261.121289 
L 212.855906 260.263652 
L 214.735384 258.920508 
L 216.614862 257.161239 
L 218.494341 255.119383 
L 220.373819 252.963374 
L 222.253297 250.877691 
L 224.132775 249.072057 
L 226.012253 247.820013 
L 227.891731 247.498158 
L 229.77121 248.574125 
L 231.650688 251.503033 
L 233.530166 256.546903 
L 235.409644 263.598358 
L 237.289122 272.114861 
L 239.1686 281.222594 
L 241.048078 289.955511 
L 242.927557 297.519979 
L 244.807035 303.469539 
L 246.686513 307.734454 
L 248.565991 310.529068 
L 250.445469 312.206853 
L 252.324947 313.131524 
L 254.204425 313.600079 
L 256.083904 313.818663 
L 257.963382 313.912639 
L 259.84286 313.949905 
L 261.722338 313.963544 
L 263.601816 313.968152 
L 265.481294 313.96959 
L 267.360773 313.970005 
L 269.240251 313.970115 
L 271.119729 313.970143 
L 272.999207 313.970149 
L 274.878685 313.97015 
L 276.758163 313.97015 
L 278.637641 313.97015 
L 280.51712 313.97015 
" style="fill:none;stroke:#1f77b4;stroke-linecap:square;stroke-width:1.5;"/>
   </g>
   <g id="line2d_79">
    <path clip-path="url(#peff39468e0)" d="M 239.06251 317.29375 
L 239.06251 244.174558 
" style="fill:none;stroke:#808080;stroke-dasharray:1.5,2.475;stroke-dashoffset:0;stroke-width:1.5;"/>
   </g>
   <g id="patch_30">
    <path d="M 188.42269 317.29375 
L 188.42269 244.174558 
" style="fill:none;stroke:#000000;stroke-linecap:square;stroke-linejoin:miter;stroke-width:0.8;"/>
   </g>
   <g id="patch_31">
    <path d="M 188.42269 317.29375 
L 280.51712 317.29375 
" style="fill:none;stroke:#000000;stroke-linecap:square;stroke-linejoin:miter;stroke-width:0.8;"/>
   </g>
  </g>
  <g id="axes_11">
   <g id="patch_32">
    <path d="M 329.17038 317.29375 
L 421.26481 317.29375 
L 421.26481 244.174558 
L 329.17038 244.174558 
z
" style="fill:#ffffff;"/>
   </g>
   <g id="matplotlib.axis_21">
    <g id="xtick_31">
     <g id="line2d_80">
      <g>
       <use style="stroke:#000000;stroke-width:0.8;" x="329.17038" xlink:href="#m2528251a17" y="317.29375"/>
      </g>
     </g>
     <g id="text_73">
      <!-- −5 -->
      <g transform="translate(321.799287 331.892188)scale(0.1 -0.1)">
       <use xlink:href="#DejaVuSans-8722"/>
       <use x="83.789062" xlink:href="#DejaVuSans-53"/>
      </g>
     </g>
    </g>
    <g id="xtick_32">
     <g id="line2d_81">
      <g>
       <use style="stroke:#000000;stroke-width:0.8;" x="375.217595" xlink:href="#m2528251a17" y="317.29375"/>
      </g>
     </g>
     <g id="text_74">
      <!-- 0 -->
      <g transform="translate(372.036345 331.892188)scale(0.1 -0.1)">
       <use xlink:href="#DejaVuSans-48"/>
      </g>
     </g>
    </g>
    <g id="xtick_33">
     <g id="line2d_82">
      <g>
       <use style="stroke:#000000;stroke-width:0.8;" x="421.26481" xlink:href="#m2528251a17" y="317.29375"/>
      </g>
     </g>
     <g id="text_75">
      <!-- 5 -->
      <g transform="translate(418.08356 331.892188)scale(0.1 -0.1)">
       <use xlink:href="#DejaVuSans-53"/>
      </g>
     </g>
    </g>
    <g id="text_76">
     <!-- specC17 -->
     <defs>
      <path d="M 48.78125 52.59375 
L 48.78125 44.1875 
Q 44.96875 46.296875 41.140625 47.34375 
Q 37.3125 48.390625 33.40625 48.390625 
Q 24.65625 48.390625 19.8125 42.84375 
Q 14.984375 37.3125 14.984375 27.296875 
Q 14.984375 17.28125 19.8125 11.734375 
Q 24.65625 6.203125 33.40625 6.203125 
Q 37.3125 6.203125 41.140625 7.25 
Q 44.96875 8.296875 48.78125 10.40625 
L 48.78125 2.09375 
Q 45.015625 0.34375 40.984375 -0.53125 
Q 36.96875 -1.421875 32.421875 -1.421875 
Q 20.0625 -1.421875 12.78125 6.34375 
Q 5.515625 14.109375 5.515625 27.296875 
Q 5.515625 40.671875 12.859375 48.328125 
Q 20.21875 56 33.015625 56 
Q 37.15625 56 41.109375 55.140625 
Q 45.0625 54.296875 48.78125 52.59375 
z
" id="DejaVuSans-99"/>
      <path d="M 64.40625 67.28125 
L 64.40625 56.890625 
Q 59.421875 61.53125 53.78125 63.8125 
Q 48.140625 66.109375 41.796875 66.109375 
Q 29.296875 66.109375 22.65625 58.46875 
Q 16.015625 50.828125 16.015625 36.375 
Q 16.015625 21.96875 22.65625 14.328125 
Q 29.296875 6.6875 41.796875 6.6875 
Q 48.140625 6.6875 53.78125 8.984375 
Q 59.421875 11.28125 64.40625 15.921875 
L 64.40625 5.609375 
Q 59.234375 2.09375 53.4375 0.328125 
Q 47.65625 -1.421875 41.21875 -1.421875 
Q 24.65625 -1.421875 15.125 8.703125 
Q 5.609375 18.84375 5.609375 36.375 
Q 5.609375 53.953125 15.125 64.078125 
Q 24.65625 74.21875 41.21875 74.21875 
Q 47.75 74.21875 53.53125 72.484375 
Q 59.328125 70.75 64.40625 67.28125 
z
" id="DejaVuSans-67"/>
      <path d="M 8.203125 72.90625 
L 55.078125 72.90625 
L 55.078125 68.703125 
L 28.609375 0 
L 18.3125 0 
L 43.21875 64.59375 
L 8.203125 64.59375 
z
" id="DejaVuSans-55"/>
     </defs>
     <g transform="translate(353.759001 345.570312)scale(0.1 -0.1)">
      <use xlink:href="#DejaVuSans-115"/>
      <use x="52.099609" xlink:href="#DejaVuSans-112"/>
      <use x="115.576172" xlink:href="#DejaVuSans-101"/>
      <use x="177.099609" xlink:href="#DejaVuSans-99"/>
      <use x="232.080078" xlink:href="#DejaVuSans-67"/>
      <use x="301.904297" xlink:href="#DejaVuSans-49"/>
      <use x="365.527344" xlink:href="#DejaVuSans-55"/>
     </g>
    </g>
   </g>
   <g id="matplotlib.axis_22">
    <g id="ytick_30">
     <g id="line2d_83">
      <g>
       <use style="stroke:#000000;stroke-width:0.8;" x="329.17038" xlink:href="#md878d188b1" y="317.29375"/>
      </g>
     </g>
     <g id="text_77">
      <!-- 0.00 -->
      <g transform="translate(299.904755 321.092969)scale(0.1 -0.1)">
       <use xlink:href="#DejaVuSans-48"/>
       <use x="63.623047" xlink:href="#DejaVuSans-46"/>
       <use x="95.410156" xlink:href="#DejaVuSans-48"/>
       <use x="159.033203" xlink:href="#DejaVuSans-48"/>
      </g>
     </g>
    </g>
    <g id="ytick_31">
     <g id="line2d_84">
      <g>
       <use style="stroke:#000000;stroke-width:0.8;" x="329.17038" xlink:href="#md878d188b1" y="286.127211"/>
      </g>
     </g>
     <g id="text_78">
      <!-- 0.05 -->
      <g transform="translate(299.904755 289.926429)scale(0.1 -0.1)">
       <use xlink:href="#DejaVuSans-48"/>
       <use x="63.623047" xlink:href="#DejaVuSans-46"/>
       <use x="95.410156" xlink:href="#DejaVuSans-48"/>
       <use x="159.033203" xlink:href="#DejaVuSans-53"/>
      </g>
     </g>
    </g>
    <g id="ytick_32">
     <g id="line2d_85">
      <g>
       <use style="stroke:#000000;stroke-width:0.8;" x="329.17038" xlink:href="#md878d188b1" y="254.960671"/>
      </g>
     </g>
     <g id="text_79">
      <!-- 0.10 -->
      <g transform="translate(299.904755 258.75989)scale(0.1 -0.1)">
       <use xlink:href="#DejaVuSans-48"/>
       <use x="63.623047" xlink:href="#DejaVuSans-46"/>
       <use x="95.410156" xlink:href="#DejaVuSans-49"/>
       <use x="159.033203" xlink:href="#DejaVuSans-48"/>
      </g>
     </g>
    </g>
   </g>
   <g id="line2d_86">
    <path clip-path="url(#pe8e6c13c8e)" d="M 329.17038 278.444781 
L 331.049859 273.074839 
L 332.929337 267.805362 
L 334.808815 262.81315 
L 336.688293 258.269297 
L 338.567771 254.325538 
L 340.447249 251.10168 
L 342.326727 248.675691 
L 344.206206 247.077742 
L 346.085684 246.289002 
L 347.965162 246.245308 
L 349.84464 246.845165 
L 351.724118 247.960914 
L 353.603596 249.45151 
L 355.483075 251.175243 
L 357.362553 253.000868 
L 359.242031 254.816036 
L 361.121509 256.532405 
L 363.000987 258.087419 
L 364.880465 259.443173 
L 366.759943 260.58314 
L 368.639422 261.50765 
L 370.5189 262.228991 
L 372.398378 262.766843 
L 374.277856 263.144506 
L 376.157334 263.386158 
L 378.036812 263.515177 
L 379.91629 263.553378 
L 381.795769 263.52098 
L 383.675247 263.437064 
L 385.554725 263.320307 
L 387.434203 263.189831 
L 389.313681 263.066044 
L 391.193159 262.971378 
L 393.072638 262.930884 
L 394.952116 262.972598 
L 396.831594 263.127634 
L 398.711072 263.429899 
L 400.59055 263.915353 
L 402.470028 264.620714 
L 404.349506 265.581586 
L 406.228985 266.830006 
L 408.108463 268.391576 
L 409.987941 270.282373 
L 411.867419 272.506013 
L 413.746897 275.051246 
L 415.626375 277.890515 
L 417.505853 280.979823 
L 419.385332 284.260131 
L 421.26481 287.660298 
" style="fill:none;stroke:#1f77b4;stroke-linecap:square;stroke-width:1.5;"/>
   </g>
   <g id="line2d_87">
    <path clip-path="url(#pe8e6c13c8e)" d="M 376.203006 317.29375 
L 376.203006 244.174558 
" style="fill:none;stroke:#808080;stroke-dasharray:1.5,2.475;stroke-dashoffset:0;stroke-width:1.5;"/>
   </g>
   <g id="patch_33">
    <path d="M 329.17038 317.29375 
L 329.17038 244.174558 
" style="fill:none;stroke:#000000;stroke-linecap:square;stroke-linejoin:miter;stroke-width:0.8;"/>
   </g>
   <g id="patch_34">
    <path d="M 329.17038 317.29375 
L 421.26481 317.29375 
" style="fill:none;stroke:#000000;stroke-linecap:square;stroke-linejoin:miter;stroke-width:0.8;"/>
   </g>
   <g id="legend_1">
    <g id="patch_35">
     <path d="M 428.26481 284.734154 
L 432.26481 284.734154 
Q 434.26481 284.734154 434.26481 282.734154 
L 434.26481 278.734154 
Q 434.26481 276.734154 432.26481 276.734154 
L 428.26481 276.734154 
Q 426.26481 276.734154 426.26481 278.734154 
L 426.26481 282.734154 
Q 426.26481 284.734154 428.26481 284.734154 
z
" style="fill:#ffffff;opacity:0.8;stroke:#cccccc;stroke-linejoin:miter;"/>
    </g>
   </g>
  </g>
 </g>
 <defs>
  <clipPath id="p0123658520">
   <rect height="73.119192" width="92.094429" x="47.675" y="12.523675"/>
  </clipPath>
  <clipPath id="p62905513f4">
   <rect height="73.119192" width="92.094429" x="188.42269" y="12.523675"/>
  </clipPath>
  <clipPath id="pc8d614081b">
   <rect height="73.119192" width="92.094429" x="329.17038" y="12.523675"/>
  </clipPath>
  <clipPath id="p2bcc42ec01">
   <rect height="73.119192" width="92.094429" x="469.918071" y="12.523675"/>
  </clipPath>
  <clipPath id="pcdce173506">
   <rect height="73.119192" width="92.094429" x="47.675" y="128.349117"/>
  </clipPath>
  <clipPath id="pa793442f6d">
   <rect height="73.119192" width="92.094429" x="188.42269" y="128.349117"/>
  </clipPath>
  <clipPath id="p63baac898a">
   <rect height="73.119192" width="92.094429" x="329.17038" y="128.349117"/>
  </clipPath>
  <clipPath id="p458e39bf8e">
   <rect height="73.119192" width="92.094429" x="469.918071" y="128.349117"/>
  </clipPath>
  <clipPath id="p5eb776737b">
   <rect height="73.119192" width="92.094429" x="47.675" y="244.174558"/>
  </clipPath>
  <clipPath id="peff39468e0">
   <rect height="73.119192" width="92.094429" x="188.42269" y="244.174558"/>
  </clipPath>
  <clipPath id="pe8e6c13c8e">
   <rect height="73.119192" width="92.094429" x="329.17038" y="244.174558"/>
  </clipPath>
 </defs>
</svg>
