<?xml version="1.0" encoding="utf-8" standalone="no"?>
<!DOCTYPE svg PUBLIC "-//W3C//DTD SVG 1.1//EN"
  "http://www.w3.org/Graphics/SVG/1.1/DTD/svg11.dtd">
<!-- Created with matplotlib (https://matplotlib.org/) -->
<svg height="432pt" version="1.1" viewBox="0 0 720 432" width="720pt" xmlns="http://www.w3.org/2000/svg" xmlns:xlink="http://www.w3.org/1999/xlink">
 <defs>
  <style type="text/css">
*{stroke-linecap:butt;stroke-linejoin:round;}
  </style>
 </defs>
 <g id="figure_1">
  <g id="patch_1">
   <path d="M 0 432 
L 720 432 
L 720 0 
L 0 0 
z
" style="fill:#ffffff;"/>
  </g>
  <g id="axes_1">
   <g id="patch_2">
    <path d="M 57.05 108.49375 
L 174.88982 108.49375 
L 174.88982 21.8 
L 57.05 21.8 
z
" style="fill:#ffffff;"/>
   </g>
   <g id="matplotlib.axis_1">
    <g id="xtick_1">
     <g id="line2d_1">
      <defs>
       <path d="M 0 0 
L 0 3.5 
" id="m2a98952320" style="stroke:#000000;stroke-width:0.8;"/>
      </defs>
      <g>
       <use style="stroke:#000000;stroke-width:0.8;" x="90.69077" xlink:href="#m2a98952320" y="108.49375"/>
      </g>
     </g>
     <g id="text_1">
      <!-- −1.575 -->
      <defs>
       <path d="M 10.59375 35.5 
L 73.1875 35.5 
L 73.1875 27.203125 
L 10.59375 27.203125 
z
" id="DejaVuSans-8722"/>
       <path d="M 12.40625 8.296875 
L 28.515625 8.296875 
L 28.515625 63.921875 
L 10.984375 60.40625 
L 10.984375 69.390625 
L 28.421875 72.90625 
L 38.28125 72.90625 
L 38.28125 8.296875 
L 54.390625 8.296875 
L 54.390625 0 
L 12.40625 0 
z
" id="DejaVuSans-49"/>
       <path d="M 10.6875 12.40625 
L 21 12.40625 
L 21 0 
L 10.6875 0 
z
" id="DejaVuSans-46"/>
       <path d="M 10.796875 72.90625 
L 49.515625 72.90625 
L 49.515625 64.59375 
L 19.828125 64.59375 
L 19.828125 46.734375 
Q 21.96875 47.46875 24.109375 47.828125 
Q 26.265625 48.1875 28.421875 48.1875 
Q 40.625 48.1875 47.75 41.5 
Q 54.890625 34.8125 54.890625 23.390625 
Q 54.890625 11.625 47.5625 5.09375 
Q 40.234375 -1.421875 26.90625 -1.421875 
Q 22.3125 -1.421875 17.546875 -0.640625 
Q 12.796875 0.140625 7.71875 1.703125 
L 7.71875 11.625 
Q 12.109375 9.234375 16.796875 8.0625 
Q 21.484375 6.890625 26.703125 6.890625 
Q 35.15625 6.890625 40.078125 11.328125 
Q 45.015625 15.765625 45.015625 23.390625 
Q 45.015625 31 40.078125 35.4375 
Q 35.15625 39.890625 26.703125 39.890625 
Q 22.75 39.890625 18.8125 39.015625 
Q 14.890625 38.140625 10.796875 36.28125 
z
" id="DejaVuSans-53"/>
       <path d="M 8.203125 72.90625 
L 55.078125 72.90625 
L 55.078125 68.703125 
L 28.609375 0 
L 18.3125 0 
L 43.21875 64.59375 
L 8.203125 64.59375 
z
" id="DejaVuSans-55"/>
      </defs>
      <g transform="translate(72.186864 123.092188)scale(0.1 -0.1)">
       <use xlink:href="#DejaVuSans-8722"/>
       <use x="83.789062" xlink:href="#DejaVuSans-49"/>
       <use x="147.412109" xlink:href="#DejaVuSans-46"/>
       <use x="179.199219" xlink:href="#DejaVuSans-53"/>
       <use x="242.822266" xlink:href="#DejaVuSans-55"/>
       <use x="306.445312" xlink:href="#DejaVuSans-53"/>
      </g>
     </g>
    </g>
    <g id="xtick_2">
     <g id="line2d_2">
      <g>
       <use style="stroke:#000000;stroke-width:0.8;" x="150.133129" xlink:href="#m2a98952320" y="108.49375"/>
      </g>
     </g>
     <g id="text_2">
      <!-- −1.570 -->
      <defs>
       <path d="M 31.78125 66.40625 
Q 24.171875 66.40625 20.328125 58.90625 
Q 16.5 51.421875 16.5 36.375 
Q 16.5 21.390625 20.328125 13.890625 
Q 24.171875 6.390625 31.78125 6.390625 
Q 39.453125 6.390625 43.28125 13.890625 
Q 47.125 21.390625 47.125 36.375 
Q 47.125 51.421875 43.28125 58.90625 
Q 39.453125 66.40625 31.78125 66.40625 
z
M 31.78125 74.21875 
Q 44.046875 74.21875 50.515625 64.515625 
Q 56.984375 54.828125 56.984375 36.375 
Q 56.984375 17.96875 50.515625 8.265625 
Q 44.046875 -1.421875 31.78125 -1.421875 
Q 19.53125 -1.421875 13.0625 8.265625 
Q 6.59375 17.96875 6.59375 36.375 
Q 6.59375 54.828125 13.0625 64.515625 
Q 19.53125 74.21875 31.78125 74.21875 
z
" id="DejaVuSans-48"/>
      </defs>
      <g transform="translate(131.629222 123.092188)scale(0.1 -0.1)">
       <use xlink:href="#DejaVuSans-8722"/>
       <use x="83.789062" xlink:href="#DejaVuSans-49"/>
       <use x="147.412109" xlink:href="#DejaVuSans-46"/>
       <use x="179.199219" xlink:href="#DejaVuSans-53"/>
       <use x="242.822266" xlink:href="#DejaVuSans-55"/>
       <use x="306.445312" xlink:href="#DejaVuSans-48"/>
      </g>
     </g>
    </g>
    <g id="text_3">
     <!-- Epo_degradation_BaF3 -->
     <defs>
      <path d="M 9.8125 72.90625 
L 55.90625 72.90625 
L 55.90625 64.59375 
L 19.671875 64.59375 
L 19.671875 43.015625 
L 54.390625 43.015625 
L 54.390625 34.71875 
L 19.671875 34.71875 
L 19.671875 8.296875 
L 56.78125 8.296875 
L 56.78125 0 
L 9.8125 0 
z
" id="DejaVuSans-69"/>
      <path d="M 18.109375 8.203125 
L 18.109375 -20.796875 
L 9.078125 -20.796875 
L 9.078125 54.6875 
L 18.109375 54.6875 
L 18.109375 46.390625 
Q 20.953125 51.265625 25.265625 53.625 
Q 29.59375 56 35.59375 56 
Q 45.5625 56 51.78125 48.09375 
Q 58.015625 40.1875 58.015625 27.296875 
Q 58.015625 14.40625 51.78125 6.484375 
Q 45.5625 -1.421875 35.59375 -1.421875 
Q 29.59375 -1.421875 25.265625 0.953125 
Q 20.953125 3.328125 18.109375 8.203125 
z
M 48.6875 27.296875 
Q 48.6875 37.203125 44.609375 42.84375 
Q 40.53125 48.484375 33.40625 48.484375 
Q 26.265625 48.484375 22.1875 42.84375 
Q 18.109375 37.203125 18.109375 27.296875 
Q 18.109375 17.390625 22.1875 11.75 
Q 26.265625 6.109375 33.40625 6.109375 
Q 40.53125 6.109375 44.609375 11.75 
Q 48.6875 17.390625 48.6875 27.296875 
z
" id="DejaVuSans-112"/>
      <path d="M 30.609375 48.390625 
Q 23.390625 48.390625 19.1875 42.75 
Q 14.984375 37.109375 14.984375 27.296875 
Q 14.984375 17.484375 19.15625 11.84375 
Q 23.34375 6.203125 30.609375 6.203125 
Q 37.796875 6.203125 41.984375 11.859375 
Q 46.1875 17.53125 46.1875 27.296875 
Q 46.1875 37.015625 41.984375 42.703125 
Q 37.796875 48.390625 30.609375 48.390625 
z
M 30.609375 56 
Q 42.328125 56 49.015625 48.375 
Q 55.71875 40.765625 55.71875 27.296875 
Q 55.71875 13.875 49.015625 6.21875 
Q 42.328125 -1.421875 30.609375 -1.421875 
Q 18.84375 -1.421875 12.171875 6.21875 
Q 5.515625 13.875 5.515625 27.296875 
Q 5.515625 40.765625 12.171875 48.375 
Q 18.84375 56 30.609375 56 
z
" id="DejaVuSans-111"/>
      <path d="M 50.984375 -16.609375 
L 50.984375 -23.578125 
L -0.984375 -23.578125 
L -0.984375 -16.609375 
z
" id="DejaVuSans-95"/>
      <path d="M 45.40625 46.390625 
L 45.40625 75.984375 
L 54.390625 75.984375 
L 54.390625 0 
L 45.40625 0 
L 45.40625 8.203125 
Q 42.578125 3.328125 38.25 0.953125 
Q 33.9375 -1.421875 27.875 -1.421875 
Q 17.96875 -1.421875 11.734375 6.484375 
Q 5.515625 14.40625 5.515625 27.296875 
Q 5.515625 40.1875 11.734375 48.09375 
Q 17.96875 56 27.875 56 
Q 33.9375 56 38.25 53.625 
Q 42.578125 51.265625 45.40625 46.390625 
z
M 14.796875 27.296875 
Q 14.796875 17.390625 18.875 11.75 
Q 22.953125 6.109375 30.078125 6.109375 
Q 37.203125 6.109375 41.296875 11.75 
Q 45.40625 17.390625 45.40625 27.296875 
Q 45.40625 37.203125 41.296875 42.84375 
Q 37.203125 48.484375 30.078125 48.484375 
Q 22.953125 48.484375 18.875 42.84375 
Q 14.796875 37.203125 14.796875 27.296875 
z
" id="DejaVuSans-100"/>
      <path d="M 56.203125 29.59375 
L 56.203125 25.203125 
L 14.890625 25.203125 
Q 15.484375 15.921875 20.484375 11.0625 
Q 25.484375 6.203125 34.421875 6.203125 
Q 39.59375 6.203125 44.453125 7.46875 
Q 49.3125 8.734375 54.109375 11.28125 
L 54.109375 2.78125 
Q 49.265625 0.734375 44.1875 -0.34375 
Q 39.109375 -1.421875 33.890625 -1.421875 
Q 20.796875 -1.421875 13.15625 6.1875 
Q 5.515625 13.8125 5.515625 26.8125 
Q 5.515625 40.234375 12.765625 48.109375 
Q 20.015625 56 32.328125 56 
Q 43.359375 56 49.78125 48.890625 
Q 56.203125 41.796875 56.203125 29.59375 
z
M 47.21875 32.234375 
Q 47.125 39.59375 43.09375 43.984375 
Q 39.0625 48.390625 32.421875 48.390625 
Q 24.90625 48.390625 20.390625 44.140625 
Q 15.875 39.890625 15.1875 32.171875 
z
" id="DejaVuSans-101"/>
      <path d="M 45.40625 27.984375 
Q 45.40625 37.75 41.375 43.109375 
Q 37.359375 48.484375 30.078125 48.484375 
Q 22.859375 48.484375 18.828125 43.109375 
Q 14.796875 37.75 14.796875 27.984375 
Q 14.796875 18.265625 18.828125 12.890625 
Q 22.859375 7.515625 30.078125 7.515625 
Q 37.359375 7.515625 41.375 12.890625 
Q 45.40625 18.265625 45.40625 27.984375 
z
M 54.390625 6.78125 
Q 54.390625 -7.171875 48.1875 -13.984375 
Q 42 -20.796875 29.203125 -20.796875 
Q 24.46875 -20.796875 20.265625 -20.09375 
Q 16.0625 -19.390625 12.109375 -17.921875 
L 12.109375 -9.1875 
Q 16.0625 -11.328125 19.921875 -12.34375 
Q 23.78125 -13.375 27.78125 -13.375 
Q 36.625 -13.375 41.015625 -8.765625 
Q 45.40625 -4.15625 45.40625 5.171875 
L 45.40625 9.625 
Q 42.625 4.78125 38.28125 2.390625 
Q 33.9375 0 27.875 0 
Q 17.828125 0 11.671875 7.65625 
Q 5.515625 15.328125 5.515625 27.984375 
Q 5.515625 40.671875 11.671875 48.328125 
Q 17.828125 56 27.875 56 
Q 33.9375 56 38.28125 53.609375 
Q 42.625 51.21875 45.40625 46.390625 
L 45.40625 54.6875 
L 54.390625 54.6875 
z
" id="DejaVuSans-103"/>
      <path d="M 41.109375 46.296875 
Q 39.59375 47.171875 37.8125 47.578125 
Q 36.03125 48 33.890625 48 
Q 26.265625 48 22.1875 43.046875 
Q 18.109375 38.09375 18.109375 28.8125 
L 18.109375 0 
L 9.078125 0 
L 9.078125 54.6875 
L 18.109375 54.6875 
L 18.109375 46.1875 
Q 20.953125 51.171875 25.484375 53.578125 
Q 30.03125 56 36.53125 56 
Q 37.453125 56 38.578125 55.875 
Q 39.703125 55.765625 41.0625 55.515625 
z
" id="DejaVuSans-114"/>
      <path d="M 34.28125 27.484375 
Q 23.390625 27.484375 19.1875 25 
Q 14.984375 22.515625 14.984375 16.5 
Q 14.984375 11.71875 18.140625 8.90625 
Q 21.296875 6.109375 26.703125 6.109375 
Q 34.1875 6.109375 38.703125 11.40625 
Q 43.21875 16.703125 43.21875 25.484375 
L 43.21875 27.484375 
z
M 52.203125 31.203125 
L 52.203125 0 
L 43.21875 0 
L 43.21875 8.296875 
Q 40.140625 3.328125 35.546875 0.953125 
Q 30.953125 -1.421875 24.3125 -1.421875 
Q 15.921875 -1.421875 10.953125 3.296875 
Q 6 8.015625 6 15.921875 
Q 6 25.140625 12.171875 29.828125 
Q 18.359375 34.515625 30.609375 34.515625 
L 43.21875 34.515625 
L 43.21875 35.40625 
Q 43.21875 41.609375 39.140625 45 
Q 35.0625 48.390625 27.6875 48.390625 
Q 23 48.390625 18.546875 47.265625 
Q 14.109375 46.140625 10.015625 43.890625 
L 10.015625 52.203125 
Q 14.9375 54.109375 19.578125 55.046875 
Q 24.21875 56 28.609375 56 
Q 40.484375 56 46.34375 49.84375 
Q 52.203125 43.703125 52.203125 31.203125 
z
" id="DejaVuSans-97"/>
      <path d="M 18.3125 70.21875 
L 18.3125 54.6875 
L 36.8125 54.6875 
L 36.8125 47.703125 
L 18.3125 47.703125 
L 18.3125 18.015625 
Q 18.3125 11.328125 20.140625 9.421875 
Q 21.96875 7.515625 27.59375 7.515625 
L 36.8125 7.515625 
L 36.8125 0 
L 27.59375 0 
Q 17.1875 0 13.234375 3.875 
Q 9.28125 7.765625 9.28125 18.015625 
L 9.28125 47.703125 
L 2.6875 47.703125 
L 2.6875 54.6875 
L 9.28125 54.6875 
L 9.28125 70.21875 
z
" id="DejaVuSans-116"/>
      <path d="M 9.421875 54.6875 
L 18.40625 54.6875 
L 18.40625 0 
L 9.421875 0 
z
M 9.421875 75.984375 
L 18.40625 75.984375 
L 18.40625 64.59375 
L 9.421875 64.59375 
z
" id="DejaVuSans-105"/>
      <path d="M 54.890625 33.015625 
L 54.890625 0 
L 45.90625 0 
L 45.90625 32.71875 
Q 45.90625 40.484375 42.875 44.328125 
Q 39.84375 48.1875 33.796875 48.1875 
Q 26.515625 48.1875 22.3125 43.546875 
Q 18.109375 38.921875 18.109375 30.90625 
L 18.109375 0 
L 9.078125 0 
L 9.078125 54.6875 
L 18.109375 54.6875 
L 18.109375 46.1875 
Q 21.34375 51.125 25.703125 53.5625 
Q 30.078125 56 35.796875 56 
Q 45.21875 56 50.046875 50.171875 
Q 54.890625 44.34375 54.890625 33.015625 
z
" id="DejaVuSans-110"/>
      <path d="M 19.671875 34.8125 
L 19.671875 8.109375 
L 35.5 8.109375 
Q 43.453125 8.109375 47.28125 11.40625 
Q 51.125 14.703125 51.125 21.484375 
Q 51.125 28.328125 47.28125 31.5625 
Q 43.453125 34.8125 35.5 34.8125 
z
M 19.671875 64.796875 
L 19.671875 42.828125 
L 34.28125 42.828125 
Q 41.5 42.828125 45.03125 45.53125 
Q 48.578125 48.25 48.578125 53.8125 
Q 48.578125 59.328125 45.03125 62.0625 
Q 41.5 64.796875 34.28125 64.796875 
z
M 9.8125 72.90625 
L 35.015625 72.90625 
Q 46.296875 72.90625 52.390625 68.21875 
Q 58.5 63.53125 58.5 54.890625 
Q 58.5 48.1875 55.375 44.234375 
Q 52.25 40.28125 46.1875 39.3125 
Q 53.46875 37.75 57.5 32.78125 
Q 61.53125 27.828125 61.53125 20.40625 
Q 61.53125 10.640625 54.890625 5.3125 
Q 48.25 0 35.984375 0 
L 9.8125 0 
z
" id="DejaVuSans-66"/>
      <path d="M 9.8125 72.90625 
L 51.703125 72.90625 
L 51.703125 64.59375 
L 19.671875 64.59375 
L 19.671875 43.109375 
L 48.578125 43.109375 
L 48.578125 34.8125 
L 19.671875 34.8125 
L 19.671875 0 
L 9.8125 0 
z
" id="DejaVuSans-70"/>
      <path d="M 40.578125 39.3125 
Q 47.65625 37.796875 51.625 33 
Q 55.609375 28.21875 55.609375 21.1875 
Q 55.609375 10.40625 48.1875 4.484375 
Q 40.765625 -1.421875 27.09375 -1.421875 
Q 22.515625 -1.421875 17.65625 -0.515625 
Q 12.796875 0.390625 7.625 2.203125 
L 7.625 11.71875 
Q 11.71875 9.328125 16.59375 8.109375 
Q 21.484375 6.890625 26.8125 6.890625 
Q 36.078125 6.890625 40.9375 10.546875 
Q 45.796875 14.203125 45.796875 21.1875 
Q 45.796875 27.640625 41.28125 31.265625 
Q 36.765625 34.90625 28.71875 34.90625 
L 20.21875 34.90625 
L 20.21875 43.015625 
L 29.109375 43.015625 
Q 36.375 43.015625 40.234375 45.921875 
Q 44.09375 48.828125 44.09375 54.296875 
Q 44.09375 59.90625 40.109375 62.90625 
Q 36.140625 65.921875 28.71875 65.921875 
Q 24.65625 65.921875 20.015625 65.03125 
Q 15.375 64.15625 9.8125 62.3125 
L 9.8125 71.09375 
Q 15.4375 72.65625 20.34375 73.4375 
Q 25.25 74.21875 29.59375 74.21875 
Q 40.828125 74.21875 47.359375 69.109375 
Q 53.90625 64.015625 53.90625 55.328125 
Q 53.90625 49.265625 50.4375 45.09375 
Q 46.96875 40.921875 40.578125 39.3125 
z
" id="DejaVuSans-51"/>
     </defs>
     <g transform="translate(58.665223 136.770313)scale(0.1 -0.1)">
      <use xlink:href="#DejaVuSans-69"/>
      <use x="63.183594" xlink:href="#DejaVuSans-112"/>
      <use x="126.660156" xlink:href="#DejaVuSans-111"/>
      <use x="187.841797" xlink:href="#DejaVuSans-95"/>
      <use x="237.841797" xlink:href="#DejaVuSans-100"/>
      <use x="301.318359" xlink:href="#DejaVuSans-101"/>
      <use x="362.841797" xlink:href="#DejaVuSans-103"/>
      <use x="426.318359" xlink:href="#DejaVuSans-114"/>
      <use x="467.431641" xlink:href="#DejaVuSans-97"/>
      <use x="528.710938" xlink:href="#DejaVuSans-100"/>
      <use x="592.1875" xlink:href="#DejaVuSans-97"/>
      <use x="653.466797" xlink:href="#DejaVuSans-116"/>
      <use x="692.675781" xlink:href="#DejaVuSans-105"/>
      <use x="720.458984" xlink:href="#DejaVuSans-111"/>
      <use x="781.640625" xlink:href="#DejaVuSans-110"/>
      <use x="845.019531" xlink:href="#DejaVuSans-95"/>
      <use x="895.019531" xlink:href="#DejaVuSans-66"/>
      <use x="963.623047" xlink:href="#DejaVuSans-97"/>
      <use x="1024.902344" xlink:href="#DejaVuSans-70"/>
      <use x="1082.421875" xlink:href="#DejaVuSans-51"/>
     </g>
    </g>
   </g>
   <g id="matplotlib.axis_2">
    <g id="ytick_1">
     <g id="line2d_3">
      <defs>
       <path d="M 0 0 
L -3.5 0 
" id="md9074385bd" style="stroke:#000000;stroke-width:0.8;"/>
      </defs>
      <g>
       <use style="stroke:#000000;stroke-width:0.8;" x="57.05" xlink:href="#md9074385bd" y="104.553125"/>
      </g>
     </g>
     <g id="text_4">
      <!-- 0 -->
      <g transform="translate(43.6875 108.352344)scale(0.1 -0.1)">
       <use xlink:href="#DejaVuSans-48"/>
      </g>
     </g>
    </g>
    <g id="ytick_2">
     <g id="line2d_4">
      <g>
       <use style="stroke:#000000;stroke-width:0.8;" x="57.05" xlink:href="#md9074385bd" y="79.609891"/>
      </g>
     </g>
     <g id="text_5">
      <!-- 500 -->
      <g transform="translate(30.9625 83.40911)scale(0.1 -0.1)">
       <use xlink:href="#DejaVuSans-53"/>
       <use x="63.623047" xlink:href="#DejaVuSans-48"/>
       <use x="127.246094" xlink:href="#DejaVuSans-48"/>
      </g>
     </g>
    </g>
    <g id="ytick_3">
     <g id="line2d_5">
      <g>
       <use style="stroke:#000000;stroke-width:0.8;" x="57.05" xlink:href="#md9074385bd" y="54.666657"/>
      </g>
     </g>
     <g id="text_6">
      <!-- 1000 -->
      <g transform="translate(24.6 58.465876)scale(0.1 -0.1)">
       <use xlink:href="#DejaVuSans-49"/>
       <use x="63.623047" xlink:href="#DejaVuSans-48"/>
       <use x="127.246094" xlink:href="#DejaVuSans-48"/>
       <use x="190.869141" xlink:href="#DejaVuSans-48"/>
      </g>
     </g>
    </g>
    <g id="ytick_4">
     <g id="line2d_6">
      <g>
       <use style="stroke:#000000;stroke-width:0.8;" x="57.05" xlink:href="#md9074385bd" y="29.723423"/>
      </g>
     </g>
     <g id="text_7">
      <!-- 1500 -->
      <g transform="translate(24.6 33.522642)scale(0.1 -0.1)">
       <use xlink:href="#DejaVuSans-49"/>
       <use x="63.623047" xlink:href="#DejaVuSans-53"/>
       <use x="127.246094" xlink:href="#DejaVuSans-48"/>
       <use x="190.869141" xlink:href="#DejaVuSans-48"/>
      </g>
     </g>
    </g>
    <g id="text_8">
     <!-- Posterior -->
     <defs>
      <path d="M 19.671875 64.796875 
L 19.671875 37.40625 
L 32.078125 37.40625 
Q 38.96875 37.40625 42.71875 40.96875 
Q 46.484375 44.53125 46.484375 51.125 
Q 46.484375 57.671875 42.71875 61.234375 
Q 38.96875 64.796875 32.078125 64.796875 
z
M 9.8125 72.90625 
L 32.078125 72.90625 
Q 44.34375 72.90625 50.609375 67.359375 
Q 56.890625 61.8125 56.890625 51.125 
Q 56.890625 40.328125 50.609375 34.8125 
Q 44.34375 29.296875 32.078125 29.296875 
L 19.671875 29.296875 
L 19.671875 0 
L 9.8125 0 
z
" id="DejaVuSans-80"/>
      <path d="M 44.28125 53.078125 
L 44.28125 44.578125 
Q 40.484375 46.53125 36.375 47.5 
Q 32.28125 48.484375 27.875 48.484375 
Q 21.1875 48.484375 17.84375 46.4375 
Q 14.5 44.390625 14.5 40.28125 
Q 14.5 37.15625 16.890625 35.375 
Q 19.28125 33.59375 26.515625 31.984375 
L 29.59375 31.296875 
Q 39.15625 29.25 43.1875 25.515625 
Q 47.21875 21.78125 47.21875 15.09375 
Q 47.21875 7.46875 41.1875 3.015625 
Q 35.15625 -1.421875 24.609375 -1.421875 
Q 20.21875 -1.421875 15.453125 -0.5625 
Q 10.6875 0.296875 5.421875 2 
L 5.421875 11.28125 
Q 10.40625 8.6875 15.234375 7.390625 
Q 20.0625 6.109375 24.8125 6.109375 
Q 31.15625 6.109375 34.5625 8.28125 
Q 37.984375 10.453125 37.984375 14.40625 
Q 37.984375 18.0625 35.515625 20.015625 
Q 33.0625 21.96875 24.703125 23.78125 
L 21.578125 24.515625 
Q 13.234375 26.265625 9.515625 29.90625 
Q 5.8125 33.546875 5.8125 39.890625 
Q 5.8125 47.609375 11.28125 51.796875 
Q 16.75 56 26.8125 56 
Q 31.78125 56 36.171875 55.265625 
Q 40.578125 54.546875 44.28125 53.078125 
z
" id="DejaVuSans-115"/>
     </defs>
     <g transform="translate(18.520312 87.419531)rotate(-90)scale(0.1 -0.1)">
      <use xlink:href="#DejaVuSans-80"/>
      <use x="60.255859" xlink:href="#DejaVuSans-111"/>
      <use x="121.4375" xlink:href="#DejaVuSans-115"/>
      <use x="173.537109" xlink:href="#DejaVuSans-116"/>
      <use x="212.746094" xlink:href="#DejaVuSans-101"/>
      <use x="274.269531" xlink:href="#DejaVuSans-114"/>
      <use x="315.382812" xlink:href="#DejaVuSans-105"/>
      <use x="343.166016" xlink:href="#DejaVuSans-111"/>
      <use x="404.347656" xlink:href="#DejaVuSans-114"/>
     </g>
    </g>
   </g>
   <g id="line2d_7">
    <path clip-path="url(#p56f1a30471)" d="M 57.05 104.553125 
L 59.454894 104.553125 
L 61.859789 104.553125 
L 64.264683 104.553125 
L 66.669577 104.553125 
L 69.074471 68.272452 
L 71.479366 25.740625 
L 73.88426 104.553125 
L 76.289154 104.553125 
L 78.694049 104.553125 
L 81.098943 104.553125 
L 83.503837 104.553125 
L 85.908731 104.553125 
L 88.313626 104.553125 
L 90.71852 104.553125 
L 93.123414 104.553125 
L 95.528309 104.553125 
L 97.933203 104.553125 
L 100.338097 104.553125 
L 102.742991 104.553125 
L 105.147886 104.553125 
L 107.55278 104.553125 
L 109.957674 104.553125 
L 112.362569 104.553125 
L 114.767463 104.553125 
L 117.172357 104.553125 
L 119.577251 104.553125 
L 121.982146 104.553125 
L 124.38704 104.553125 
L 126.791934 104.553125 
L 129.196829 104.553125 
L 131.601723 104.553125 
L 134.006617 104.553125 
L 136.411511 104.553125 
L 138.816406 104.553125 
L 141.2213 104.553125 
L 143.626194 104.553125 
L 146.031089 104.553125 
L 148.435983 104.553125 
L 150.840877 104.553125 
L 153.245771 104.553125 
L 155.650666 104.553125 
L 158.05556 104.553125 
L 160.460454 104.553125 
L 162.865349 104.553125 
L 165.270243 104.553125 
L 167.675137 104.553125 
L 170.080031 104.553125 
L 172.484926 104.553125 
L 174.88982 104.553125 
" style="fill:none;stroke:#1f77b4;stroke-linecap:square;stroke-width:1.5;"/>
   </g>
   <g id="line2d_8">
    <path clip-path="url(#p56f1a30471)" d="M 163.001348 108.49375 
L 163.001348 21.8 
" style="fill:none;stroke:#808080;stroke-dasharray:1.5,2.475;stroke-dashoffset:0;stroke-width:1.5;"/>
   </g>
   <g id="patch_3">
    <path d="M 57.05 108.49375 
L 57.05 21.8 
" style="fill:none;stroke:#000000;stroke-linecap:square;stroke-linejoin:miter;stroke-width:0.8;"/>
   </g>
   <g id="patch_4">
    <path d="M 174.88982 108.49375 
L 174.88982 21.8 
" style="fill:none;stroke:#000000;stroke-linecap:square;stroke-linejoin:miter;stroke-width:0.8;"/>
   </g>
   <g id="patch_5">
    <path d="M 57.05 108.49375 
L 174.88982 108.49375 
" style="fill:none;stroke:#000000;stroke-linecap:square;stroke-linejoin:miter;stroke-width:0.8;"/>
   </g>
   <g id="patch_6">
    <path d="M 57.05 21.8 
L 174.88982 21.8 
" style="fill:none;stroke:#000000;stroke-linecap:square;stroke-linejoin:miter;stroke-width:0.8;"/>
   </g>
  </g>
  <g id="axes_2">
   <g id="patch_7">
    <path d="M 235.153393 108.49375 
L 352.993213 108.49375 
L 352.993213 21.8 
L 235.153393 21.8 
z
" style="fill:#ffffff;"/>
   </g>
   <g id="matplotlib.axis_3">
    <g id="xtick_3">
     <g id="line2d_9">
      <g>
       <use style="stroke:#000000;stroke-width:0.8;" x="286.497301" xlink:href="#m2a98952320" y="108.49375"/>
      </g>
     </g>
     <g id="text_9">
      <!-- −0.001 -->
      <g transform="translate(267.993395 123.092188)scale(0.1 -0.1)">
       <use xlink:href="#DejaVuSans-8722"/>
       <use x="83.789062" xlink:href="#DejaVuSans-48"/>
       <use x="147.412109" xlink:href="#DejaVuSans-46"/>
       <use x="179.199219" xlink:href="#DejaVuSans-48"/>
       <use x="242.822266" xlink:href="#DejaVuSans-48"/>
       <use x="306.445312" xlink:href="#DejaVuSans-49"/>
      </g>
     </g>
    </g>
    <g id="xtick_4">
     <g id="line2d_10">
      <g>
       <use style="stroke:#000000;stroke-width:0.8;" x="337.841277" xlink:href="#m2a98952320" y="108.49375"/>
      </g>
     </g>
     <g id="text_10">
      <!-- 0.000 -->
      <g transform="translate(323.527215 123.092188)scale(0.1 -0.1)">
       <use xlink:href="#DejaVuSans-48"/>
       <use x="63.623047" xlink:href="#DejaVuSans-46"/>
       <use x="95.410156" xlink:href="#DejaVuSans-48"/>
       <use x="159.033203" xlink:href="#DejaVuSans-48"/>
       <use x="222.65625" xlink:href="#DejaVuSans-48"/>
      </g>
     </g>
    </g>
    <g id="text_11">
     <!-- k_exp_hetero -->
     <defs>
      <path d="M 9.078125 75.984375 
L 18.109375 75.984375 
L 18.109375 31.109375 
L 44.921875 54.6875 
L 56.390625 54.6875 
L 27.390625 29.109375 
L 57.625 0 
L 45.90625 0 
L 18.109375 26.703125 
L 18.109375 0 
L 9.078125 0 
z
" id="DejaVuSans-107"/>
      <path d="M 54.890625 54.6875 
L 35.109375 28.078125 
L 55.90625 0 
L 45.3125 0 
L 29.390625 21.484375 
L 13.484375 0 
L 2.875 0 
L 24.125 28.609375 
L 4.6875 54.6875 
L 15.28125 54.6875 
L 29.78125 35.203125 
L 44.28125 54.6875 
z
" id="DejaVuSans-120"/>
      <path d="M 54.890625 33.015625 
L 54.890625 0 
L 45.90625 0 
L 45.90625 32.71875 
Q 45.90625 40.484375 42.875 44.328125 
Q 39.84375 48.1875 33.796875 48.1875 
Q 26.515625 48.1875 22.3125 43.546875 
Q 18.109375 38.921875 18.109375 30.90625 
L 18.109375 0 
L 9.078125 0 
L 9.078125 75.984375 
L 18.109375 75.984375 
L 18.109375 46.1875 
Q 21.34375 51.125 25.703125 53.5625 
Q 30.078125 56 35.796875 56 
Q 45.21875 56 50.046875 50.171875 
Q 54.890625 44.34375 54.890625 33.015625 
z
" id="DejaVuSans-104"/>
     </defs>
     <g transform="translate(260.573303 136.770313)scale(0.1 -0.1)">
      <use xlink:href="#DejaVuSans-107"/>
      <use x="57.910156" xlink:href="#DejaVuSans-95"/>
      <use x="107.910156" xlink:href="#DejaVuSans-101"/>
      <use x="169.417969" xlink:href="#DejaVuSans-120"/>
      <use x="228.597656" xlink:href="#DejaVuSans-112"/>
      <use x="292.074219" xlink:href="#DejaVuSans-95"/>
      <use x="342.074219" xlink:href="#DejaVuSans-104"/>
      <use x="405.453125" xlink:href="#DejaVuSans-101"/>
      <use x="466.976562" xlink:href="#DejaVuSans-116"/>
      <use x="506.185547" xlink:href="#DejaVuSans-101"/>
      <use x="567.708984" xlink:href="#DejaVuSans-114"/>
      <use x="608.791016" xlink:href="#DejaVuSans-111"/>
     </g>
    </g>
    <g id="text_12">
     <!-- −4.999 -->
     <defs>
      <path d="M 37.796875 64.3125 
L 12.890625 25.390625 
L 37.796875 25.390625 
z
M 35.203125 72.90625 
L 47.609375 72.90625 
L 47.609375 25.390625 
L 58.015625 25.390625 
L 58.015625 17.1875 
L 47.609375 17.1875 
L 47.609375 0 
L 37.796875 0 
L 37.796875 17.1875 
L 4.890625 17.1875 
L 4.890625 26.703125 
z
" id="DejaVuSans-52"/>
      <path d="M 10.984375 1.515625 
L 10.984375 10.5 
Q 14.703125 8.734375 18.5 7.8125 
Q 22.3125 6.890625 25.984375 6.890625 
Q 35.75 6.890625 40.890625 13.453125 
Q 46.046875 20.015625 46.78125 33.40625 
Q 43.953125 29.203125 39.59375 26.953125 
Q 35.25 24.703125 29.984375 24.703125 
Q 19.046875 24.703125 12.671875 31.3125 
Q 6.296875 37.9375 6.296875 49.421875 
Q 6.296875 60.640625 12.9375 67.421875 
Q 19.578125 74.21875 30.609375 74.21875 
Q 43.265625 74.21875 49.921875 64.515625 
Q 56.59375 54.828125 56.59375 36.375 
Q 56.59375 19.140625 48.40625 8.859375 
Q 40.234375 -1.421875 26.421875 -1.421875 
Q 22.703125 -1.421875 18.890625 -0.6875 
Q 15.09375 0.046875 10.984375 1.515625 
z
M 30.609375 32.421875 
Q 37.25 32.421875 41.125 36.953125 
Q 45.015625 41.5 45.015625 49.421875 
Q 45.015625 57.28125 41.125 61.84375 
Q 37.25 66.40625 30.609375 66.40625 
Q 23.96875 66.40625 20.09375 61.84375 
Q 16.21875 57.28125 16.21875 49.421875 
Q 16.21875 41.5 20.09375 36.953125 
Q 23.96875 32.421875 30.609375 32.421875 
z
" id="DejaVuSans-57"/>
     </defs>
     <g transform="translate(315.985401 135.770313)scale(0.1 -0.1)">
      <use xlink:href="#DejaVuSans-8722"/>
      <use x="83.789062" xlink:href="#DejaVuSans-52"/>
      <use x="147.412109" xlink:href="#DejaVuSans-46"/>
      <use x="179.199219" xlink:href="#DejaVuSans-57"/>
      <use x="242.822266" xlink:href="#DejaVuSans-57"/>
      <use x="306.445312" xlink:href="#DejaVuSans-57"/>
     </g>
    </g>
   </g>
   <g id="matplotlib.axis_4">
    <g id="ytick_5">
     <g id="line2d_11">
      <g>
       <use style="stroke:#000000;stroke-width:0.8;" x="235.153393" xlink:href="#md9074385bd" y="104.553125"/>
      </g>
     </g>
     <g id="text_13">
      <!-- 0 -->
      <g transform="translate(221.790893 108.352344)scale(0.1 -0.1)">
       <use xlink:href="#DejaVuSans-48"/>
      </g>
     </g>
    </g>
    <g id="ytick_6">
     <g id="line2d_12">
      <g>
       <use style="stroke:#000000;stroke-width:0.8;" x="235.153393" xlink:href="#md9074385bd" y="61.396062"/>
      </g>
     </g>
     <g id="text_14">
      <!-- 2 -->
      <defs>
       <path d="M 19.1875 8.296875 
L 53.609375 8.296875 
L 53.609375 0 
L 7.328125 0 
L 7.328125 8.296875 
Q 12.9375 14.109375 22.625 23.890625 
Q 32.328125 33.6875 34.8125 36.53125 
Q 39.546875 41.84375 41.421875 45.53125 
Q 43.3125 49.21875 43.3125 52.78125 
Q 43.3125 58.59375 39.234375 62.25 
Q 35.15625 65.921875 28.609375 65.921875 
Q 23.96875 65.921875 18.8125 64.3125 
Q 13.671875 62.703125 7.8125 59.421875 
L 7.8125 69.390625 
Q 13.765625 71.78125 18.9375 73 
Q 24.125 74.21875 28.421875 74.21875 
Q 39.75 74.21875 46.484375 68.546875 
Q 53.21875 62.890625 53.21875 53.421875 
Q 53.21875 48.921875 51.53125 44.890625 
Q 49.859375 40.875 45.40625 35.40625 
Q 44.1875 33.984375 37.640625 27.21875 
Q 31.109375 20.453125 19.1875 8.296875 
z
" id="DejaVuSans-50"/>
      </defs>
      <g transform="translate(221.790893 65.195281)scale(0.1 -0.1)">
       <use xlink:href="#DejaVuSans-50"/>
      </g>
     </g>
    </g>
    <g id="text_15">
     <!-- 1e−86 -->
     <defs>
      <path d="M 31.78125 34.625 
Q 24.75 34.625 20.71875 30.859375 
Q 16.703125 27.09375 16.703125 20.515625 
Q 16.703125 13.921875 20.71875 10.15625 
Q 24.75 6.390625 31.78125 6.390625 
Q 38.8125 6.390625 42.859375 10.171875 
Q 46.921875 13.96875 46.921875 20.515625 
Q 46.921875 27.09375 42.890625 30.859375 
Q 38.875 34.625 31.78125 34.625 
z
M 21.921875 38.8125 
Q 15.578125 40.375 12.03125 44.71875 
Q 8.5 49.078125 8.5 55.328125 
Q 8.5 64.0625 14.71875 69.140625 
Q 20.953125 74.21875 31.78125 74.21875 
Q 42.671875 74.21875 48.875 69.140625 
Q 55.078125 64.0625 55.078125 55.328125 
Q 55.078125 49.078125 51.53125 44.71875 
Q 48 40.375 41.703125 38.8125 
Q 48.828125 37.15625 52.796875 32.3125 
Q 56.78125 27.484375 56.78125 20.515625 
Q 56.78125 9.90625 50.3125 4.234375 
Q 43.84375 -1.421875 31.78125 -1.421875 
Q 19.734375 -1.421875 13.25 4.234375 
Q 6.78125 9.90625 6.78125 20.515625 
Q 6.78125 27.484375 10.78125 32.3125 
Q 14.796875 37.15625 21.921875 38.8125 
z
M 18.3125 54.390625 
Q 18.3125 48.734375 21.84375 45.5625 
Q 25.390625 42.390625 31.78125 42.390625 
Q 38.140625 42.390625 41.71875 45.5625 
Q 45.3125 48.734375 45.3125 54.390625 
Q 45.3125 60.0625 41.71875 63.234375 
Q 38.140625 66.40625 31.78125 66.40625 
Q 25.390625 66.40625 21.84375 63.234375 
Q 18.3125 60.0625 18.3125 54.390625 
z
" id="DejaVuSans-56"/>
      <path d="M 33.015625 40.375 
Q 26.375 40.375 22.484375 35.828125 
Q 18.609375 31.296875 18.609375 23.390625 
Q 18.609375 15.53125 22.484375 10.953125 
Q 26.375 6.390625 33.015625 6.390625 
Q 39.65625 6.390625 43.53125 10.953125 
Q 47.40625 15.53125 47.40625 23.390625 
Q 47.40625 31.296875 43.53125 35.828125 
Q 39.65625 40.375 33.015625 40.375 
z
M 52.59375 71.296875 
L 52.59375 62.3125 
Q 48.875 64.0625 45.09375 64.984375 
Q 41.3125 65.921875 37.59375 65.921875 
Q 27.828125 65.921875 22.671875 59.328125 
Q 17.53125 52.734375 16.796875 39.40625 
Q 19.671875 43.65625 24.015625 45.921875 
Q 28.375 48.1875 33.59375 48.1875 
Q 44.578125 48.1875 50.953125 41.515625 
Q 57.328125 34.859375 57.328125 23.390625 
Q 57.328125 12.15625 50.6875 5.359375 
Q 44.046875 -1.421875 33.015625 -1.421875 
Q 20.359375 -1.421875 13.671875 8.265625 
Q 6.984375 17.96875 6.984375 36.375 
Q 6.984375 53.65625 15.1875 63.9375 
Q 23.390625 74.21875 37.203125 74.21875 
Q 40.921875 74.21875 44.703125 73.484375 
Q 48.484375 72.75 52.59375 71.296875 
z
" id="DejaVuSans-54"/>
     </defs>
     <g transform="translate(235.153393 18.8)scale(0.1 -0.1)">
      <use xlink:href="#DejaVuSans-49"/>
      <use x="63.623047" xlink:href="#DejaVuSans-101"/>
      <use x="125.146484" xlink:href="#DejaVuSans-8722"/>
      <use x="208.935547" xlink:href="#DejaVuSans-56"/>
      <use x="272.558594" xlink:href="#DejaVuSans-54"/>
     </g>
    </g>
   </g>
   <g id="line2d_13">
    <path clip-path="url(#p286035d278)" d="M 235.153393 104.553125 
L 237.558288 104.553125 
L 239.963182 104.553125 
L 242.368076 104.553125 
L 244.77297 104.553125 
L 247.177865 104.553125 
L 249.582759 104.553125 
L 251.987653 104.553125 
L 254.392548 104.553125 
L 256.797442 104.553125 
L 259.202336 104.553125 
L 261.60723 104.553125 
L 264.012125 104.553125 
L 266.417019 104.553125 
L 268.821913 104.553125 
L 271.226808 104.553125 
L 273.631702 104.553125 
L 276.036596 104.553125 
L 278.44149 104.553125 
L 280.846385 104.553125 
L 283.251279 104.553125 
L 285.656173 25.740625 
L 288.061068 104.553125 
L 290.465962 104.553125 
L 292.870856 104.553125 
L 295.27575 104.553125 
L 297.680645 104.553125 
L 300.085539 104.553125 
L 302.490433 104.553125 
L 304.895328 104.553125 
L 307.300222 104.553125 
L 309.705116 104.553125 
L 312.11001 104.553125 
L 314.514905 104.553125 
L 316.919799 104.553125 
L 319.324693 104.553125 
L 321.729588 104.553125 
L 324.134482 104.553125 
L 326.539376 104.553125 
L 328.94427 104.553125 
L 331.349165 104.553125 
L 333.754059 104.553125 
L 336.158953 104.553125 
L 338.563848 104.553125 
L 340.968742 104.553125 
L 343.373636 104.553125 
L 345.77853 104.553125 
L 348.183425 104.553125 
L 350.588319 104.553125 
L 352.993213 104.553125 
" style="fill:none;stroke:#1f77b4;stroke-linecap:square;stroke-width:1.5;"/>
   </g>
   <g id="line2d_14">
    <path clip-path="url(#p286035d278)" d="M 301.649237 108.49375 
L 301.649237 21.8 
" style="fill:none;stroke:#808080;stroke-dasharray:1.5,2.475;stroke-dashoffset:0;stroke-width:1.5;"/>
   </g>
   <g id="patch_8">
    <path d="M 235.153393 108.49375 
L 235.153393 21.8 
" style="fill:none;stroke:#000000;stroke-linecap:square;stroke-linejoin:miter;stroke-width:0.8;"/>
   </g>
   <g id="patch_9">
    <path d="M 352.993213 108.49375 
L 352.993213 21.8 
" style="fill:none;stroke:#000000;stroke-linecap:square;stroke-linejoin:miter;stroke-width:0.8;"/>
   </g>
   <g id="patch_10">
    <path d="M 235.153393 108.49375 
L 352.993213 108.49375 
" style="fill:none;stroke:#000000;stroke-linecap:square;stroke-linejoin:miter;stroke-width:0.8;"/>
   </g>
   <g id="patch_11">
    <path d="M 235.153393 21.8 
L 352.993213 21.8 
" style="fill:none;stroke:#000000;stroke-linecap:square;stroke-linejoin:miter;stroke-width:0.8;"/>
   </g>
  </g>
  <g id="axes_3">
   <g id="patch_12">
    <path d="M 413.256787 108.49375 
L 531.096607 108.49375 
L 531.096607 21.8 
L 413.256787 21.8 
z
" style="fill:#ffffff;"/>
   </g>
   <g id="matplotlib.axis_5">
    <g id="xtick_5">
     <g id="line2d_15">
      <g>
       <use style="stroke:#000000;stroke-width:0.8;" x="418.443726" xlink:href="#m2a98952320" y="108.49375"/>
      </g>
     </g>
     <g id="text_16">
      <!-- −2.21 -->
      <g transform="translate(403.12107 123.092188)scale(0.1 -0.1)">
       <use xlink:href="#DejaVuSans-8722"/>
       <use x="83.789062" xlink:href="#DejaVuSans-50"/>
       <use x="147.412109" xlink:href="#DejaVuSans-46"/>
       <use x="179.199219" xlink:href="#DejaVuSans-50"/>
       <use x="242.822266" xlink:href="#DejaVuSans-49"/>
      </g>
     </g>
    </g>
    <g id="xtick_6">
     <g id="line2d_16">
      <g>
       <use style="stroke:#000000;stroke-width:0.8;" x="492.672046" xlink:href="#m2a98952320" y="108.49375"/>
      </g>
     </g>
     <g id="text_17">
      <!-- −2.20 -->
      <g transform="translate(477.34939 123.092188)scale(0.1 -0.1)">
       <use xlink:href="#DejaVuSans-8722"/>
       <use x="83.789062" xlink:href="#DejaVuSans-50"/>
       <use x="147.412109" xlink:href="#DejaVuSans-46"/>
       <use x="179.199219" xlink:href="#DejaVuSans-50"/>
       <use x="242.822266" xlink:href="#DejaVuSans-48"/>
      </g>
     </g>
    </g>
    <g id="text_18">
     <!-- k_exp_homo -->
     <defs>
      <path d="M 52 44.1875 
Q 55.375 50.25 60.0625 53.125 
Q 64.75 56 71.09375 56 
Q 79.640625 56 84.28125 50.015625 
Q 88.921875 44.046875 88.921875 33.015625 
L 88.921875 0 
L 79.890625 0 
L 79.890625 32.71875 
Q 79.890625 40.578125 77.09375 44.375 
Q 74.3125 48.1875 68.609375 48.1875 
Q 61.625 48.1875 57.5625 43.546875 
Q 53.515625 38.921875 53.515625 30.90625 
L 53.515625 0 
L 44.484375 0 
L 44.484375 32.71875 
Q 44.484375 40.625 41.703125 44.40625 
Q 38.921875 48.1875 33.109375 48.1875 
Q 26.21875 48.1875 22.15625 43.53125 
Q 18.109375 38.875 18.109375 30.90625 
L 18.109375 0 
L 9.078125 0 
L 9.078125 54.6875 
L 18.109375 54.6875 
L 18.109375 46.1875 
Q 21.1875 51.21875 25.484375 53.609375 
Q 29.78125 56 35.6875 56 
Q 41.65625 56 45.828125 52.96875 
Q 50 49.953125 52 44.1875 
z
" id="DejaVuSans-109"/>
     </defs>
     <g transform="translate(440.914197 136.770313)scale(0.1 -0.1)">
      <use xlink:href="#DejaVuSans-107"/>
      <use x="57.910156" xlink:href="#DejaVuSans-95"/>
      <use x="107.910156" xlink:href="#DejaVuSans-101"/>
      <use x="169.417969" xlink:href="#DejaVuSans-120"/>
      <use x="228.597656" xlink:href="#DejaVuSans-112"/>
      <use x="292.074219" xlink:href="#DejaVuSans-95"/>
      <use x="342.074219" xlink:href="#DejaVuSans-104"/>
      <use x="405.453125" xlink:href="#DejaVuSans-111"/>
      <use x="466.634766" xlink:href="#DejaVuSans-109"/>
      <use x="564.046875" xlink:href="#DejaVuSans-111"/>
     </g>
    </g>
   </g>
   <g id="matplotlib.axis_6">
    <g id="ytick_7">
     <g id="line2d_17">
      <g>
       <use style="stroke:#000000;stroke-width:0.8;" x="413.256787" xlink:href="#md9074385bd" y="104.553125"/>
      </g>
     </g>
     <g id="text_19">
      <!-- 0 -->
      <g transform="translate(399.894287 108.352344)scale(0.1 -0.1)">
       <use xlink:href="#DejaVuSans-48"/>
      </g>
     </g>
    </g>
    <g id="ytick_8">
     <g id="line2d_18">
      <g>
       <use style="stroke:#000000;stroke-width:0.8;" x="413.256787" xlink:href="#md9074385bd" y="78.779953"/>
      </g>
     </g>
     <g id="text_20">
      <!-- 1000 -->
      <g transform="translate(380.806787 82.579172)scale(0.1 -0.1)">
       <use xlink:href="#DejaVuSans-49"/>
       <use x="63.623047" xlink:href="#DejaVuSans-48"/>
       <use x="127.246094" xlink:href="#DejaVuSans-48"/>
       <use x="190.869141" xlink:href="#DejaVuSans-48"/>
      </g>
     </g>
    </g>
    <g id="ytick_9">
     <g id="line2d_19">
      <g>
       <use style="stroke:#000000;stroke-width:0.8;" x="413.256787" xlink:href="#md9074385bd" y="53.006782"/>
      </g>
     </g>
     <g id="text_21">
      <!-- 2000 -->
      <g transform="translate(380.806787 56.806)scale(0.1 -0.1)">
       <use xlink:href="#DejaVuSans-50"/>
       <use x="63.623047" xlink:href="#DejaVuSans-48"/>
       <use x="127.246094" xlink:href="#DejaVuSans-48"/>
       <use x="190.869141" xlink:href="#DejaVuSans-48"/>
      </g>
     </g>
    </g>
    <g id="ytick_10">
     <g id="line2d_20">
      <g>
       <use style="stroke:#000000;stroke-width:0.8;" x="413.256787" xlink:href="#md9074385bd" y="27.23361"/>
      </g>
     </g>
     <g id="text_22">
      <!-- 3000 -->
      <g transform="translate(380.806787 31.032829)scale(0.1 -0.1)">
       <use xlink:href="#DejaVuSans-51"/>
       <use x="63.623047" xlink:href="#DejaVuSans-48"/>
       <use x="127.246094" xlink:href="#DejaVuSans-48"/>
       <use x="190.869141" xlink:href="#DejaVuSans-48"/>
      </g>
     </g>
    </g>
   </g>
   <g id="line2d_21">
    <path clip-path="url(#pd552a28cf8)" d="M 413.256787 104.553125 
L 415.661681 104.553125 
L 418.066575 104.553125 
L 420.47147 104.553125 
L 422.876364 104.553125 
L 425.281258 104.553125 
L 427.686152 104.553125 
L 430.091047 104.553125 
L 432.495941 104.553125 
L 434.900835 104.553125 
L 437.30573 104.553125 
L 439.710624 104.553125 
L 442.115518 104.553125 
L 444.520412 104.553125 
L 446.925307 104.553125 
L 449.330201 104.553125 
L 451.735095 104.553125 
L 454.13999 104.553125 
L 456.544884 104.553125 
L 458.949778 104.553125 
L 461.354672 104.553125 
L 463.759567 104.553125 
L 466.164461 104.553125 
L 468.569355 104.553125 
L 470.97425 104.553125 
L 473.379144 104.553125 
L 475.784038 104.553125 
L 478.188932 104.553125 
L 480.593827 104.553125 
L 482.998721 104.553125 
L 485.403615 104.553125 
L 487.80851 104.553125 
L 490.213404 104.553125 
L 492.618298 104.553125 
L 495.023192 104.553125 
L 497.428087 104.553125 
L 499.832981 104.553125 
L 502.237875 104.553125 
L 504.64277 104.553125 
L 507.047664 104.553125 
L 509.452558 104.553125 
L 511.857452 104.553125 
L 514.262347 104.553125 
L 516.667241 104.553125 
L 519.072135 104.550428 
L 521.47703 25.740625 
L 523.881924 102.666949 
L 526.286818 104.553125 
L 528.691712 104.553125 
L 531.096607 104.553125 
" style="fill:none;stroke:#1f77b4;stroke-linecap:square;stroke-width:1.5;"/>
   </g>
   <g id="line2d_22">
    <path clip-path="url(#pd552a28cf8)" d="M 420.679619 108.49375 
L 420.679619 21.8 
" style="fill:none;stroke:#808080;stroke-dasharray:1.5,2.475;stroke-dashoffset:0;stroke-width:1.5;"/>
   </g>
   <g id="patch_13">
    <path d="M 413.256787 108.49375 
L 413.256787 21.8 
" style="fill:none;stroke:#000000;stroke-linecap:square;stroke-linejoin:miter;stroke-width:0.8;"/>
   </g>
   <g id="patch_14">
    <path d="M 531.096607 108.49375 
L 531.096607 21.8 
" style="fill:none;stroke:#000000;stroke-linecap:square;stroke-linejoin:miter;stroke-width:0.8;"/>
   </g>
   <g id="patch_15">
    <path d="M 413.256787 108.49375 
L 531.096607 108.49375 
" style="fill:none;stroke:#000000;stroke-linecap:square;stroke-linejoin:miter;stroke-width:0.8;"/>
   </g>
   <g id="patch_16">
    <path d="M 413.256787 21.8 
L 531.096607 21.8 
" style="fill:none;stroke:#000000;stroke-linecap:square;stroke-linejoin:miter;stroke-width:0.8;"/>
   </g>
  </g>
  <g id="axes_4">
   <g id="patch_17">
    <path d="M 591.36018 108.49375 
L 709.2 108.49375 
L 709.2 21.8 
L 591.36018 21.8 
z
" style="fill:#ffffff;"/>
   </g>
   <g id="matplotlib.axis_7">
    <g id="xtick_7">
     <g id="line2d_23">
      <g>
       <use style="stroke:#000000;stroke-width:0.8;" x="595.587794" xlink:href="#m2a98952320" y="108.49375"/>
      </g>
     </g>
     <g id="text_23">
      <!-- −1.795 -->
      <g transform="translate(577.083887 123.092188)scale(0.1 -0.1)">
       <use xlink:href="#DejaVuSans-8722"/>
       <use x="83.789062" xlink:href="#DejaVuSans-49"/>
       <use x="147.412109" xlink:href="#DejaVuSans-46"/>
       <use x="179.199219" xlink:href="#DejaVuSans-55"/>
       <use x="242.822266" xlink:href="#DejaVuSans-57"/>
       <use x="306.445312" xlink:href="#DejaVuSans-53"/>
      </g>
     </g>
    </g>
    <g id="xtick_8">
     <g id="line2d_24">
      <g>
       <use style="stroke:#000000;stroke-width:0.8;" x="652.431115" xlink:href="#m2a98952320" y="108.49375"/>
      </g>
     </g>
     <g id="text_24">
      <!-- −1.790 -->
      <g transform="translate(633.927209 123.092188)scale(0.1 -0.1)">
       <use xlink:href="#DejaVuSans-8722"/>
       <use x="83.789062" xlink:href="#DejaVuSans-49"/>
       <use x="147.412109" xlink:href="#DejaVuSans-46"/>
       <use x="179.199219" xlink:href="#DejaVuSans-55"/>
       <use x="242.822266" xlink:href="#DejaVuSans-57"/>
       <use x="306.445312" xlink:href="#DejaVuSans-48"/>
      </g>
     </g>
    </g>
    <g id="text_25">
     <!-- k_imp_hetero -->
     <g transform="translate(616.555871 136.770313)scale(0.1 -0.1)">
      <use xlink:href="#DejaVuSans-107"/>
      <use x="57.910156" xlink:href="#DejaVuSans-95"/>
      <use x="107.910156" xlink:href="#DejaVuSans-105"/>
      <use x="135.693359" xlink:href="#DejaVuSans-109"/>
      <use x="233.105469" xlink:href="#DejaVuSans-112"/>
      <use x="296.582031" xlink:href="#DejaVuSans-95"/>
      <use x="346.582031" xlink:href="#DejaVuSans-104"/>
      <use x="409.960938" xlink:href="#DejaVuSans-101"/>
      <use x="471.484375" xlink:href="#DejaVuSans-116"/>
      <use x="510.693359" xlink:href="#DejaVuSans-101"/>
      <use x="572.216797" xlink:href="#DejaVuSans-114"/>
      <use x="613.298828" xlink:href="#DejaVuSans-111"/>
     </g>
    </g>
   </g>
   <g id="matplotlib.axis_8">
    <g id="ytick_11">
     <g id="line2d_25">
      <g>
       <use style="stroke:#000000;stroke-width:0.8;" x="591.36018" xlink:href="#md9074385bd" y="104.553125"/>
      </g>
     </g>
     <g id="text_26">
      <!-- 0 -->
      <g transform="translate(577.99768 108.352344)scale(0.1 -0.1)">
       <use xlink:href="#DejaVuSans-48"/>
      </g>
     </g>
    </g>
    <g id="ytick_12">
     <g id="line2d_26">
      <g>
       <use style="stroke:#000000;stroke-width:0.8;" x="591.36018" xlink:href="#md9074385bd" y="77.536501"/>
      </g>
     </g>
     <g id="text_27">
      <!-- 2500 -->
      <g transform="translate(558.91018 81.33572)scale(0.1 -0.1)">
       <use xlink:href="#DejaVuSans-50"/>
       <use x="63.623047" xlink:href="#DejaVuSans-53"/>
       <use x="127.246094" xlink:href="#DejaVuSans-48"/>
       <use x="190.869141" xlink:href="#DejaVuSans-48"/>
      </g>
     </g>
    </g>
    <g id="ytick_13">
     <g id="line2d_27">
      <g>
       <use style="stroke:#000000;stroke-width:0.8;" x="591.36018" xlink:href="#md9074385bd" y="50.519878"/>
      </g>
     </g>
     <g id="text_28">
      <!-- 5000 -->
      <g transform="translate(558.91018 54.319097)scale(0.1 -0.1)">
       <use xlink:href="#DejaVuSans-53"/>
       <use x="63.623047" xlink:href="#DejaVuSans-48"/>
       <use x="127.246094" xlink:href="#DejaVuSans-48"/>
       <use x="190.869141" xlink:href="#DejaVuSans-48"/>
      </g>
     </g>
    </g>
    <g id="ytick_14">
     <g id="line2d_28">
      <g>
       <use style="stroke:#000000;stroke-width:0.8;" x="591.36018" xlink:href="#md9074385bd" y="23.503254"/>
      </g>
     </g>
     <g id="text_29">
      <!-- 7500 -->
      <g transform="translate(558.91018 27.302473)scale(0.1 -0.1)">
       <use xlink:href="#DejaVuSans-55"/>
       <use x="63.623047" xlink:href="#DejaVuSans-53"/>
       <use x="127.246094" xlink:href="#DejaVuSans-48"/>
       <use x="190.869141" xlink:href="#DejaVuSans-48"/>
      </g>
     </g>
    </g>
   </g>
   <g id="line2d_29">
    <path clip-path="url(#pafd23a1ed0)" d="M 591.36018 104.553125 
L 593.765074 104.553125 
L 596.169969 104.553125 
L 598.574863 104.553125 
L 600.979757 104.553125 
L 603.384651 25.740625 
L 605.789546 104.553116 
L 608.19444 104.553125 
L 610.599334 104.553125 
L 613.004229 104.553125 
L 615.409123 104.553125 
L 617.814017 104.553125 
L 620.218911 104.553125 
L 622.623806 104.553125 
L 625.0287 104.553125 
L 627.433594 104.553125 
L 629.838489 104.553125 
L 632.243383 104.553125 
L 634.648277 104.553125 
L 637.053171 104.553125 
L 639.458066 104.553125 
L 641.86296 104.553125 
L 644.267854 104.553125 
L 646.672749 104.553125 
L 649.077643 104.553125 
L 651.482537 104.553125 
L 653.887431 104.553125 
L 656.292326 104.553125 
L 658.69722 104.553125 
L 661.102114 104.553125 
L 663.507009 104.553125 
L 665.911903 104.553125 
L 668.316797 104.553125 
L 670.721691 104.553125 
L 673.126586 104.553125 
L 675.53148 104.553125 
L 677.936374 104.553125 
L 680.341269 104.553125 
L 682.746163 104.553125 
L 685.151057 104.553125 
L 687.555951 104.553125 
L 689.960846 104.553125 
L 692.36574 104.553125 
L 694.770634 104.553125 
L 697.175529 104.553125 
L 699.580423 104.553125 
L 701.985317 104.553125 
L 704.390211 104.553125 
L 706.795106 104.553125 
L 709.2 104.553125 
" style="fill:none;stroke:#1f77b4;stroke-linecap:square;stroke-width:1.5;"/>
   </g>
   <g id="line2d_30">
    <path clip-path="url(#pafd23a1ed0)" d="M 697.831336 108.49375 
L 697.831336 21.8 
" style="fill:none;stroke:#808080;stroke-dasharray:1.5,2.475;stroke-dashoffset:0;stroke-width:1.5;"/>
   </g>
   <g id="patch_18">
    <path d="M 591.36018 108.49375 
L 591.36018 21.8 
" style="fill:none;stroke:#000000;stroke-linecap:square;stroke-linejoin:miter;stroke-width:0.8;"/>
   </g>
   <g id="patch_19">
    <path d="M 709.2 108.49375 
L 709.2 21.8 
" style="fill:none;stroke:#000000;stroke-linecap:square;stroke-linejoin:miter;stroke-width:0.8;"/>
   </g>
   <g id="patch_20">
    <path d="M 591.36018 108.49375 
L 709.2 108.49375 
" style="fill:none;stroke:#000000;stroke-linecap:square;stroke-linejoin:miter;stroke-width:0.8;"/>
   </g>
   <g id="patch_21">
    <path d="M 591.36018 21.8 
L 709.2 21.8 
" style="fill:none;stroke:#000000;stroke-linecap:square;stroke-linejoin:miter;stroke-width:0.8;"/>
   </g>
  </g>
  <g id="axes_5">
   <g id="patch_22">
    <path d="M 57.05 248.89375 
L 174.88982 248.89375 
L 174.88982 162.2 
L 57.05 162.2 
z
" style="fill:#ffffff;"/>
   </g>
   <g id="matplotlib.axis_9">
    <g id="xtick_9">
     <g id="line2d_31">
      <g>
       <use style="stroke:#000000;stroke-width:0.8;" x="61.571385" xlink:href="#m2a98952320" y="248.89375"/>
      </g>
     </g>
     <g id="text_30">
      <!-- 4.98 -->
      <g transform="translate(50.438572 263.492188)scale(0.1 -0.1)">
       <use xlink:href="#DejaVuSans-52"/>
       <use x="63.623047" xlink:href="#DejaVuSans-46"/>
       <use x="95.410156" xlink:href="#DejaVuSans-57"/>
       <use x="159.033203" xlink:href="#DejaVuSans-56"/>
      </g>
     </g>
    </g>
    <g id="xtick_10">
     <g id="line2d_32">
      <g>
       <use style="stroke:#000000;stroke-width:0.8;" x="115.533485" xlink:href="#m2a98952320" y="248.89375"/>
      </g>
     </g>
     <g id="text_31">
      <!-- 4.99 -->
      <g transform="translate(104.400673 263.492188)scale(0.1 -0.1)">
       <use xlink:href="#DejaVuSans-52"/>
       <use x="63.623047" xlink:href="#DejaVuSans-46"/>
       <use x="95.410156" xlink:href="#DejaVuSans-57"/>
       <use x="159.033203" xlink:href="#DejaVuSans-57"/>
      </g>
     </g>
    </g>
    <g id="xtick_11">
     <g id="line2d_33">
      <g>
       <use style="stroke:#000000;stroke-width:0.8;" x="169.495585" xlink:href="#m2a98952320" y="248.89375"/>
      </g>
     </g>
     <g id="text_32">
      <!-- 5.00 -->
      <g transform="translate(158.362773 263.492188)scale(0.1 -0.1)">
       <use xlink:href="#DejaVuSans-53"/>
       <use x="63.623047" xlink:href="#DejaVuSans-46"/>
       <use x="95.410156" xlink:href="#DejaVuSans-48"/>
       <use x="159.033203" xlink:href="#DejaVuSans-48"/>
      </g>
     </g>
    </g>
    <g id="text_33">
     <!-- k_imp_homo -->
     <g transform="translate(84.483191 277.170312)scale(0.1 -0.1)">
      <use xlink:href="#DejaVuSans-107"/>
      <use x="57.910156" xlink:href="#DejaVuSans-95"/>
      <use x="107.910156" xlink:href="#DejaVuSans-105"/>
      <use x="135.693359" xlink:href="#DejaVuSans-109"/>
      <use x="233.105469" xlink:href="#DejaVuSans-112"/>
      <use x="296.582031" xlink:href="#DejaVuSans-95"/>
      <use x="346.582031" xlink:href="#DejaVuSans-104"/>
      <use x="409.960938" xlink:href="#DejaVuSans-111"/>
      <use x="471.142578" xlink:href="#DejaVuSans-109"/>
      <use x="568.554688" xlink:href="#DejaVuSans-111"/>
     </g>
    </g>
   </g>
   <g id="matplotlib.axis_10">
    <g id="ytick_15">
     <g id="line2d_34">
      <g>
       <use style="stroke:#000000;stroke-width:0.8;" x="57.05" xlink:href="#md9074385bd" y="248.89375"/>
      </g>
     </g>
     <g id="text_34">
      <!-- 0 -->
      <g transform="translate(43.6875 252.692969)scale(0.1 -0.1)">
       <use xlink:href="#DejaVuSans-48"/>
      </g>
     </g>
    </g>
    <g id="ytick_16">
     <g id="line2d_35">
      <g>
       <use style="stroke:#000000;stroke-width:0.8;" x="57.05" xlink:href="#md9074385bd" y="225.505472"/>
      </g>
     </g>
     <g id="text_35">
      <!-- 25 -->
      <g transform="translate(37.325 229.304691)scale(0.1 -0.1)">
       <use xlink:href="#DejaVuSans-50"/>
       <use x="63.623047" xlink:href="#DejaVuSans-53"/>
      </g>
     </g>
    </g>
    <g id="ytick_17">
     <g id="line2d_36">
      <g>
       <use style="stroke:#000000;stroke-width:0.8;" x="57.05" xlink:href="#md9074385bd" y="202.117194"/>
      </g>
     </g>
     <g id="text_36">
      <!-- 50 -->
      <g transform="translate(37.325 205.916413)scale(0.1 -0.1)">
       <use xlink:href="#DejaVuSans-53"/>
       <use x="63.623047" xlink:href="#DejaVuSans-48"/>
      </g>
     </g>
    </g>
    <g id="ytick_18">
     <g id="line2d_37">
      <g>
       <use style="stroke:#000000;stroke-width:0.8;" x="57.05" xlink:href="#md9074385bd" y="178.728916"/>
      </g>
     </g>
     <g id="text_37">
      <!-- 75 -->
      <g transform="translate(37.325 182.528135)scale(0.1 -0.1)">
       <use xlink:href="#DejaVuSans-55"/>
       <use x="63.623047" xlink:href="#DejaVuSans-53"/>
      </g>
     </g>
    </g>
    <g id="text_38">
     <!-- Posterior -->
     <g transform="translate(31.245312 227.819531)rotate(-90)scale(0.1 -0.1)">
      <use xlink:href="#DejaVuSans-80"/>
      <use x="60.255859" xlink:href="#DejaVuSans-111"/>
      <use x="121.4375" xlink:href="#DejaVuSans-115"/>
      <use x="173.537109" xlink:href="#DejaVuSans-116"/>
      <use x="212.746094" xlink:href="#DejaVuSans-101"/>
      <use x="274.269531" xlink:href="#DejaVuSans-114"/>
      <use x="315.382812" xlink:href="#DejaVuSans-105"/>
      <use x="343.166016" xlink:href="#DejaVuSans-111"/>
      <use x="404.347656" xlink:href="#DejaVuSans-114"/>
     </g>
    </g>
   </g>
   <g id="line2d_38">
    <path clip-path="url(#p7fb75ac4ae)" d="M 57.05 236.417782 
L 59.454894 234.421828 
L 61.859789 232.530326 
L 64.264683 230.84715 
L 66.669577 229.465565 
L 69.074471 228.457152 
L 71.479366 227.86323 
L 73.88426 227.690232 
L 76.289154 227.909759 
L 78.694049 228.463139 
L 81.098943 229.26946 
L 83.503837 230.235502 
L 85.908731 231.26578 
L 88.313626 232.271139 
L 90.71852 233.174801 
L 93.123414 233.91544 
L 95.528309 234.44746 
L 97.933203 234.739093 
L 100.338097 234.769199 
L 102.742991 234.523601 
L 105.147886 233.991641 
L 107.55278 233.163369 
L 109.957674 232.027542 
L 112.362569 230.57042 
L 114.767463 228.775318 
L 117.172357 226.622906 
L 119.577251 224.092369 
L 121.982146 221.163586 
L 124.38704 217.820526 
L 126.791934 214.055911 
L 129.196829 209.876962 
L 131.601723 205.311763 
L 134.006617 200.415479 
L 136.411511 195.275476 
L 138.816406 190.014327 
L 141.2213 184.789803 
L 143.626194 179.79116 
L 146.031089 175.231414 
L 148.435983 171.335683 
L 150.840877 168.32613 
L 153.245771 166.404564 
L 155.650666 165.73418 
L 158.05556 166.422363 
L 160.460454 168.506728 
L 162.865349 171.946526 
L 165.270243 176.621148 
L 167.675137 182.336674 
L 170.080031 188.840276 
L 172.484926 195.841091 
L 174.88982 203.035021 
" style="fill:none;stroke:#1f77b4;stroke-linecap:square;stroke-width:1.5;"/>
   </g>
   <g id="line2d_39">
    <path clip-path="url(#p7fb75ac4ae)" d="M 116.148701 248.89375 
L 116.148701 162.2 
" style="fill:none;stroke:#808080;stroke-dasharray:1.5,2.475;stroke-dashoffset:0;stroke-width:1.5;"/>
   </g>
   <g id="patch_23">
    <path d="M 57.05 248.89375 
L 57.05 162.2 
" style="fill:none;stroke:#000000;stroke-linecap:square;stroke-linejoin:miter;stroke-width:0.8;"/>
   </g>
   <g id="patch_24">
    <path d="M 174.88982 248.89375 
L 174.88982 162.2 
" style="fill:none;stroke:#000000;stroke-linecap:square;stroke-linejoin:miter;stroke-width:0.8;"/>
   </g>
   <g id="patch_25">
    <path d="M 57.05 248.89375 
L 174.88982 248.89375 
" style="fill:none;stroke:#000000;stroke-linecap:square;stroke-linejoin:miter;stroke-width:0.8;"/>
   </g>
   <g id="patch_26">
    <path d="M 57.05 162.2 
L 174.88982 162.2 
" style="fill:none;stroke:#000000;stroke-linecap:square;stroke-linejoin:miter;stroke-width:0.8;"/>
   </g>
  </g>
  <g id="axes_6">
   <g id="patch_27">
    <path d="M 235.153393 248.89375 
L 352.993213 248.89375 
L 352.993213 162.2 
L 235.153393 162.2 
z
" style="fill:#ffffff;"/>
   </g>
   <g id="matplotlib.axis_11">
    <g id="xtick_12">
     <g id="line2d_40">
      <g>
       <use style="stroke:#000000;stroke-width:0.8;" x="269.698518" xlink:href="#m2a98952320" y="248.89375"/>
      </g>
     </g>
     <g id="text_39">
      <!-- 4.200 -->
      <g transform="translate(255.384456 263.492188)scale(0.1 -0.1)">
       <use xlink:href="#DejaVuSans-52"/>
       <use x="63.623047" xlink:href="#DejaVuSans-46"/>
       <use x="95.410156" xlink:href="#DejaVuSans-50"/>
       <use x="159.033203" xlink:href="#DejaVuSans-48"/>
       <use x="222.65625" xlink:href="#DejaVuSans-48"/>
      </g>
     </g>
    </g>
    <g id="xtick_13">
     <g id="line2d_41">
      <g>
       <use style="stroke:#000000;stroke-width:0.8;" x="322.608616" xlink:href="#m2a98952320" y="248.89375"/>
      </g>
     </g>
     <g id="text_40">
      <!-- 4.205 -->
      <g transform="translate(308.294554 263.492188)scale(0.1 -0.1)">
       <use xlink:href="#DejaVuSans-52"/>
       <use x="63.623047" xlink:href="#DejaVuSans-46"/>
       <use x="95.410156" xlink:href="#DejaVuSans-50"/>
       <use x="159.033203" xlink:href="#DejaVuSans-48"/>
       <use x="222.65625" xlink:href="#DejaVuSans-53"/>
      </g>
     </g>
    </g>
    <g id="text_41">
     <!-- k_phos -->
     <g transform="translate(276.67096 277.170312)scale(0.1 -0.1)">
      <use xlink:href="#DejaVuSans-107"/>
      <use x="57.910156" xlink:href="#DejaVuSans-95"/>
      <use x="107.910156" xlink:href="#DejaVuSans-112"/>
      <use x="171.386719" xlink:href="#DejaVuSans-104"/>
      <use x="234.765625" xlink:href="#DejaVuSans-111"/>
      <use x="295.947266" xlink:href="#DejaVuSans-115"/>
     </g>
    </g>
   </g>
   <g id="matplotlib.axis_12">
    <g id="ytick_19">
     <g id="line2d_42">
      <g>
       <use style="stroke:#000000;stroke-width:0.8;" x="235.153393" xlink:href="#md9074385bd" y="244.953125"/>
      </g>
     </g>
     <g id="text_42">
      <!-- 0.0 -->
      <g transform="translate(212.250268 248.752344)scale(0.1 -0.1)">
       <use xlink:href="#DejaVuSans-48"/>
       <use x="63.623047" xlink:href="#DejaVuSans-46"/>
       <use x="95.410156" xlink:href="#DejaVuSans-48"/>
      </g>
     </g>
    </g>
    <g id="ytick_20">
     <g id="line2d_43">
      <g>
       <use style="stroke:#000000;stroke-width:0.8;" x="235.153393" xlink:href="#md9074385bd" y="209.746262"/>
      </g>
     </g>
     <g id="text_43">
      <!-- 0.5 -->
      <g transform="translate(212.250268 213.545481)scale(0.1 -0.1)">
       <use xlink:href="#DejaVuSans-48"/>
       <use x="63.623047" xlink:href="#DejaVuSans-46"/>
       <use x="95.410156" xlink:href="#DejaVuSans-53"/>
      </g>
     </g>
    </g>
    <g id="ytick_21">
     <g id="line2d_44">
      <g>
       <use style="stroke:#000000;stroke-width:0.8;" x="235.153393" xlink:href="#md9074385bd" y="174.539399"/>
      </g>
     </g>
     <g id="text_44">
      <!-- 1.0 -->
      <g transform="translate(212.250268 178.338618)scale(0.1 -0.1)">
       <use xlink:href="#DejaVuSans-49"/>
       <use x="63.623047" xlink:href="#DejaVuSans-46"/>
       <use x="95.410156" xlink:href="#DejaVuSans-48"/>
      </g>
     </g>
    </g>
    <g id="text_45">
     <!-- 1e−11 -->
     <g transform="translate(235.153393 159.2)scale(0.1 -0.1)">
      <use xlink:href="#DejaVuSans-49"/>
      <use x="63.623047" xlink:href="#DejaVuSans-101"/>
      <use x="125.146484" xlink:href="#DejaVuSans-8722"/>
      <use x="208.935547" xlink:href="#DejaVuSans-49"/>
      <use x="272.558594" xlink:href="#DejaVuSans-49"/>
     </g>
    </g>
   </g>
   <g id="line2d_45">
    <path clip-path="url(#p9dc2c55316)" d="M 235.153393 244.953125 
L 237.558288 244.953125 
L 239.963182 244.953125 
L 242.368076 244.953125 
L 244.77297 244.953125 
L 247.177865 244.953125 
L 249.582759 244.953125 
L 251.987653 244.953125 
L 254.392548 244.953125 
L 256.797442 244.953125 
L 259.202336 244.953125 
L 261.60723 244.953125 
L 264.012125 244.953125 
L 266.417019 244.953125 
L 268.821913 244.953125 
L 271.226808 244.953125 
L 273.631702 244.953125 
L 276.036596 244.953125 
L 278.44149 244.953125 
L 280.846385 244.953125 
L 283.251279 244.953125 
L 285.656173 244.953125 
L 288.061068 244.953125 
L 290.465962 244.953125 
L 292.870856 244.953125 
L 295.27575 244.953125 
L 297.680645 244.953125 
L 300.085539 244.953125 
L 302.490433 244.953125 
L 304.895328 244.953125 
L 307.300222 244.953125 
L 309.705116 244.953125 
L 312.11001 244.953125 
L 314.514905 244.953125 
L 316.919799 244.953125 
L 319.324693 244.953125 
L 321.729588 244.953125 
L 324.134482 244.953125 
L 326.539376 244.953125 
L 328.94427 244.953125 
L 331.349165 244.953125 
L 333.754059 244.953125 
L 336.158953 244.953125 
L 338.563848 244.953125 
L 340.968742 166.140625 
L 343.373636 244.953125 
L 345.77853 244.953125 
L 348.183425 244.953125 
L 350.588319 244.953125 
L 352.993213 244.953125 
" style="fill:none;stroke:#1f77b4;stroke-linecap:square;stroke-width:1.5;"/>
   </g>
   <g id="line2d_46">
    <path clip-path="url(#p9dc2c55316)" d="M 245.735413 248.89375 
L 245.735413 162.2 
" style="fill:none;stroke:#808080;stroke-dasharray:1.5,2.475;stroke-dashoffset:0;stroke-width:1.5;"/>
   </g>
   <g id="patch_28">
    <path d="M 235.153393 248.89375 
L 235.153393 162.2 
" style="fill:none;stroke:#000000;stroke-linecap:square;stroke-linejoin:miter;stroke-width:0.8;"/>
   </g>
   <g id="patch_29">
    <path d="M 352.993213 248.89375 
L 352.993213 162.2 
" style="fill:none;stroke:#000000;stroke-linecap:square;stroke-linejoin:miter;stroke-width:0.8;"/>
   </g>
   <g id="patch_30">
    <path d="M 235.153393 248.89375 
L 352.993213 248.89375 
" style="fill:none;stroke:#000000;stroke-linecap:square;stroke-linejoin:miter;stroke-width:0.8;"/>
   </g>
   <g id="patch_31">
    <path d="M 235.153393 162.2 
L 352.993213 162.2 
" style="fill:none;stroke:#000000;stroke-linecap:square;stroke-linejoin:miter;stroke-width:0.8;"/>
   </g>
  </g>
  <g id="axes_7">
   <g id="patch_32">
    <path d="M 413.256787 248.89375 
L 531.096607 248.89375 
L 531.096607 162.2 
L 413.256787 162.2 
z
" style="fill:#ffffff;"/>
   </g>
   <g id="matplotlib.axis_13">
    <g id="xtick_14">
     <g id="line2d_47">
      <g>
       <use style="stroke:#000000;stroke-width:0.8;" x="442.663716" xlink:href="#m2a98952320" y="248.89375"/>
      </g>
     </g>
     <g id="text_46">
      <!-- −2.5 -->
      <g transform="translate(430.52231 263.492188)scale(0.1 -0.1)">
       <use xlink:href="#DejaVuSans-8722"/>
       <use x="83.789062" xlink:href="#DejaVuSans-50"/>
       <use x="147.412109" xlink:href="#DejaVuSans-46"/>
       <use x="179.199219" xlink:href="#DejaVuSans-53"/>
      </g>
     </g>
    </g>
    <g id="xtick_15">
     <g id="line2d_48">
      <g>
       <use style="stroke:#000000;stroke-width:0.8;" x="472.192496" xlink:href="#m2a98952320" y="248.89375"/>
      </g>
     </g>
     <g id="text_47">
      <!-- 0.0 -->
      <g transform="translate(464.240934 263.492188)scale(0.1 -0.1)">
       <use xlink:href="#DejaVuSans-48"/>
       <use x="63.623047" xlink:href="#DejaVuSans-46"/>
       <use x="95.410156" xlink:href="#DejaVuSans-48"/>
      </g>
     </g>
    </g>
    <g id="xtick_16">
     <g id="line2d_49">
      <g>
       <use style="stroke:#000000;stroke-width:0.8;" x="501.721276" xlink:href="#m2a98952320" y="248.89375"/>
      </g>
     </g>
     <g id="text_48">
      <!-- 2.5 -->
      <g transform="translate(493.769714 263.492188)scale(0.1 -0.1)">
       <use xlink:href="#DejaVuSans-50"/>
       <use x="63.623047" xlink:href="#DejaVuSans-46"/>
       <use x="95.410156" xlink:href="#DejaVuSans-53"/>
      </g>
     </g>
    </g>
    <g id="text_49">
     <!-- ratio -->
     <g transform="translate(460.648572 277.170312)scale(0.1 -0.1)">
      <use xlink:href="#DejaVuSans-114"/>
      <use x="41.113281" xlink:href="#DejaVuSans-97"/>
      <use x="102.392578" xlink:href="#DejaVuSans-116"/>
      <use x="141.601562" xlink:href="#DejaVuSans-105"/>
      <use x="169.384766" xlink:href="#DejaVuSans-111"/>
     </g>
    </g>
   </g>
   <g id="matplotlib.axis_14">
    <g id="ytick_22">
     <g id="line2d_50">
      <g>
       <use style="stroke:#000000;stroke-width:0.8;" x="413.256787" xlink:href="#md9074385bd" y="248.89375"/>
      </g>
     </g>
     <g id="text_50">
      <!-- 0.00 -->
      <g transform="translate(383.991162 252.692969)scale(0.1 -0.1)">
       <use xlink:href="#DejaVuSans-48"/>
       <use x="63.623047" xlink:href="#DejaVuSans-46"/>
       <use x="95.410156" xlink:href="#DejaVuSans-48"/>
       <use x="159.033203" xlink:href="#DejaVuSans-48"/>
      </g>
     </g>
    </g>
    <g id="ytick_23">
     <g id="line2d_51">
      <g>
       <use style="stroke:#000000;stroke-width:0.8;" x="413.256787" xlink:href="#md9074385bd" y="209.272869"/>
      </g>
     </g>
     <g id="text_51">
      <!-- 0.05 -->
      <g transform="translate(383.991162 213.072087)scale(0.1 -0.1)">
       <use xlink:href="#DejaVuSans-48"/>
       <use x="63.623047" xlink:href="#DejaVuSans-46"/>
       <use x="95.410156" xlink:href="#DejaVuSans-48"/>
       <use x="159.033203" xlink:href="#DejaVuSans-53"/>
      </g>
     </g>
    </g>
    <g id="ytick_24">
     <g id="line2d_52">
      <g>
       <use style="stroke:#000000;stroke-width:0.8;" x="413.256787" xlink:href="#md9074385bd" y="169.651987"/>
      </g>
     </g>
     <g id="text_52">
      <!-- 0.10 -->
      <g transform="translate(383.991162 173.451206)scale(0.1 -0.1)">
       <use xlink:href="#DejaVuSans-48"/>
       <use x="63.623047" xlink:href="#DejaVuSans-46"/>
       <use x="95.410156" xlink:href="#DejaVuSans-49"/>
       <use x="159.033203" xlink:href="#DejaVuSans-48"/>
      </g>
     </g>
    </g>
   </g>
   <g id="line2d_53">
    <path clip-path="url(#pfeedb424d3)" d="M 413.256787 215.574742 
L 415.661681 211.448559 
L 418.066575 207.385948 
L 420.47147 203.472159 
L 422.876364 199.782671 
L 425.281258 196.379156 
L 427.686152 193.306837 
L 430.091047 190.593313 
L 432.495941 188.248737 
L 434.900835 186.267119 
L 437.30573 184.628464 
L 439.710624 183.301452 
L 442.115518 182.246419 
L 444.520412 181.418475 
L 446.925307 180.770615 
L 449.330201 180.256696 
L 451.735095 179.834148 
L 454.13999 179.466241 
L 456.544884 179.123745 
L 458.949778 178.785784 
L 461.354672 178.439815 
L 463.759567 178.080703 
L 466.164461 177.709006 
L 468.569355 177.328701 
L 470.97425 176.944634 
L 473.379144 176.560026 
L 475.784038 176.174339 
L 478.188932 175.781751 
L 480.593827 175.370443 
L 482.998721 174.922799 
L 485.403615 174.416626 
L 487.80851 173.827437 
L 490.213404 173.131793 
L 492.618298 172.311647 
L 495.023192 171.359486 
L 497.428087 170.283866 
L 499.832981 169.114719 
L 502.237875 167.907605 
L 504.64277 166.745907 
L 507.047664 165.740044 
L 509.452558 165.022964 
L 511.857452 164.741654 
L 514.262347 165.045031 
L 516.667241 166.069262 
L 519.072135 167.922237 
L 521.47703 170.669268 
L 523.881924 174.322217 
L 526.286818 178.833882 
L 528.691712 184.09877 
L 531.096607 189.960436 
" style="fill:none;stroke:#1f77b4;stroke-linecap:square;stroke-width:1.5;"/>
   </g>
   <g id="line2d_54">
    <path clip-path="url(#pfeedb424d3)" d="M 480.377874 248.89375 
L 480.377874 162.2 
" style="fill:none;stroke:#808080;stroke-dasharray:1.5,2.475;stroke-dashoffset:0;stroke-width:1.5;"/>
   </g>
   <g id="patch_33">
    <path d="M 413.256787 248.89375 
L 413.256787 162.2 
" style="fill:none;stroke:#000000;stroke-linecap:square;stroke-linejoin:miter;stroke-width:0.8;"/>
   </g>
   <g id="patch_34">
    <path d="M 531.096607 248.89375 
L 531.096607 162.2 
" style="fill:none;stroke:#000000;stroke-linecap:square;stroke-linejoin:miter;stroke-width:0.8;"/>
   </g>
   <g id="patch_35">
    <path d="M 413.256787 248.89375 
L 531.096607 248.89375 
" style="fill:none;stroke:#000000;stroke-linecap:square;stroke-linejoin:miter;stroke-width:0.8;"/>
   </g>
   <g id="patch_36">
    <path d="M 413.256787 162.2 
L 531.096607 162.2 
" style="fill:none;stroke:#000000;stroke-linecap:square;stroke-linejoin:miter;stroke-width:0.8;"/>
   </g>
  </g>
  <g id="axes_8">
   <g id="patch_37">
    <path d="M 591.36018 248.89375 
L 709.2 248.89375 
L 709.2 162.2 
L 591.36018 162.2 
z
" style="fill:#ffffff;"/>
   </g>
   <g id="matplotlib.axis_15">
    <g id="xtick_17">
     <g id="line2d_55">
      <g>
       <use style="stroke:#000000;stroke-width:0.8;" x="620.81149" xlink:href="#m2a98952320" y="248.89375"/>
      </g>
     </g>
     <g id="text_53">
      <!-- −2.5 -->
      <g transform="translate(608.670083 263.492188)scale(0.1 -0.1)">
       <use xlink:href="#DejaVuSans-8722"/>
       <use x="83.789062" xlink:href="#DejaVuSans-50"/>
       <use x="147.412109" xlink:href="#DejaVuSans-46"/>
       <use x="179.199219" xlink:href="#DejaVuSans-53"/>
      </g>
     </g>
    </g>
    <g id="xtick_18">
     <g id="line2d_56">
      <g>
       <use style="stroke:#000000;stroke-width:0.8;" x="650.297232" xlink:href="#m2a98952320" y="248.89375"/>
      </g>
     </g>
     <g id="text_54">
      <!-- 0.0 -->
      <g transform="translate(642.34567 263.492188)scale(0.1 -0.1)">
       <use xlink:href="#DejaVuSans-48"/>
       <use x="63.623047" xlink:href="#DejaVuSans-46"/>
       <use x="95.410156" xlink:href="#DejaVuSans-48"/>
      </g>
     </g>
    </g>
    <g id="xtick_19">
     <g id="line2d_57">
      <g>
       <use style="stroke:#000000;stroke-width:0.8;" x="679.782975" xlink:href="#m2a98952320" y="248.89375"/>
      </g>
     </g>
     <g id="text_55">
      <!-- 2.5 -->
      <g transform="translate(671.831412 263.492188)scale(0.1 -0.1)">
       <use xlink:href="#DejaVuSans-50"/>
       <use x="63.623047" xlink:href="#DejaVuSans-46"/>
       <use x="95.410156" xlink:href="#DejaVuSans-53"/>
      </g>
     </g>
    </g>
    <g id="text_56">
     <!-- sd_pSTAT5A_rel -->
     <defs>
      <path d="M 53.515625 70.515625 
L 53.515625 60.890625 
Q 47.90625 63.578125 42.921875 64.890625 
Q 37.9375 66.21875 33.296875 66.21875 
Q 25.25 66.21875 20.875 63.09375 
Q 16.5 59.96875 16.5 54.203125 
Q 16.5 49.359375 19.40625 46.890625 
Q 22.3125 44.4375 30.421875 42.921875 
L 36.375 41.703125 
Q 47.40625 39.59375 52.65625 34.296875 
Q 57.90625 29 57.90625 20.125 
Q 57.90625 9.515625 50.796875 4.046875 
Q 43.703125 -1.421875 29.984375 -1.421875 
Q 24.8125 -1.421875 18.96875 -0.25 
Q 13.140625 0.921875 6.890625 3.21875 
L 6.890625 13.375 
Q 12.890625 10.015625 18.65625 8.296875 
Q 24.421875 6.59375 29.984375 6.59375 
Q 38.421875 6.59375 43.015625 9.90625 
Q 47.609375 13.234375 47.609375 19.390625 
Q 47.609375 24.75 44.3125 27.78125 
Q 41.015625 30.8125 33.5 32.328125 
L 27.484375 33.5 
Q 16.453125 35.6875 11.515625 40.375 
Q 6.59375 45.0625 6.59375 53.421875 
Q 6.59375 63.09375 13.40625 68.65625 
Q 20.21875 74.21875 32.171875 74.21875 
Q 37.3125 74.21875 42.625 73.28125 
Q 47.953125 72.359375 53.515625 70.515625 
z
" id="DejaVuSans-83"/>
      <path d="M -0.296875 72.90625 
L 61.375 72.90625 
L 61.375 64.59375 
L 35.5 64.59375 
L 35.5 0 
L 25.59375 0 
L 25.59375 64.59375 
L -0.296875 64.59375 
z
" id="DejaVuSans-84"/>
      <path d="M 34.1875 63.1875 
L 20.796875 26.90625 
L 47.609375 26.90625 
z
M 28.609375 72.90625 
L 39.796875 72.90625 
L 67.578125 0 
L 57.328125 0 
L 50.6875 18.703125 
L 17.828125 18.703125 
L 11.1875 0 
L 0.78125 0 
z
" id="DejaVuSans-65"/>
      <path d="M 9.421875 75.984375 
L 18.40625 75.984375 
L 18.40625 0 
L 9.421875 0 
z
" id="DejaVuSans-108"/>
     </defs>
     <g transform="translate(610.514465 277.170312)scale(0.1 -0.1)">
      <use xlink:href="#DejaVuSans-115"/>
      <use x="52.099609" xlink:href="#DejaVuSans-100"/>
      <use x="115.576172" xlink:href="#DejaVuSans-95"/>
      <use x="165.576172" xlink:href="#DejaVuSans-112"/>
      <use x="229.052734" xlink:href="#DejaVuSans-83"/>
      <use x="292.529297" xlink:href="#DejaVuSans-84"/>
      <use x="353.503906" xlink:href="#DejaVuSans-65"/>
      <use x="421.802734" xlink:href="#DejaVuSans-84"/>
      <use x="482.886719" xlink:href="#DejaVuSans-53"/>
      <use x="546.509766" xlink:href="#DejaVuSans-65"/>
      <use x="614.917969" xlink:href="#DejaVuSans-95"/>
      <use x="664.917969" xlink:href="#DejaVuSans-114"/>
      <use x="706" xlink:href="#DejaVuSans-101"/>
      <use x="767.523438" xlink:href="#DejaVuSans-108"/>
     </g>
    </g>
   </g>
   <g id="matplotlib.axis_16">
    <g id="ytick_25">
     <g id="line2d_58">
      <g>
       <use style="stroke:#000000;stroke-width:0.8;" x="591.36018" xlink:href="#md9074385bd" y="248.89375"/>
      </g>
     </g>
     <g id="text_57">
      <!-- 0.00 -->
      <g transform="translate(562.094555 252.692969)scale(0.1 -0.1)">
       <use xlink:href="#DejaVuSans-48"/>
       <use x="63.623047" xlink:href="#DejaVuSans-46"/>
       <use x="95.410156" xlink:href="#DejaVuSans-48"/>
       <use x="159.033203" xlink:href="#DejaVuSans-48"/>
      </g>
     </g>
    </g>
    <g id="ytick_26">
     <g id="line2d_59">
      <g>
       <use style="stroke:#000000;stroke-width:0.8;" x="591.36018" xlink:href="#md9074385bd" y="216.164151"/>
      </g>
     </g>
     <g id="text_58">
      <!-- 0.05 -->
      <g transform="translate(562.094555 219.96337)scale(0.1 -0.1)">
       <use xlink:href="#DejaVuSans-48"/>
       <use x="63.623047" xlink:href="#DejaVuSans-46"/>
       <use x="95.410156" xlink:href="#DejaVuSans-48"/>
       <use x="159.033203" xlink:href="#DejaVuSans-53"/>
      </g>
     </g>
    </g>
    <g id="ytick_27">
     <g id="line2d_60">
      <g>
       <use style="stroke:#000000;stroke-width:0.8;" x="591.36018" xlink:href="#md9074385bd" y="183.434553"/>
      </g>
     </g>
     <g id="text_59">
      <!-- 0.10 -->
      <g transform="translate(562.094555 187.233772)scale(0.1 -0.1)">
       <use xlink:href="#DejaVuSans-48"/>
       <use x="63.623047" xlink:href="#DejaVuSans-46"/>
       <use x="95.410156" xlink:href="#DejaVuSans-49"/>
       <use x="159.033203" xlink:href="#DejaVuSans-48"/>
      </g>
     </g>
    </g>
   </g>
   <g id="line2d_61">
    <path clip-path="url(#p5c41c22dbf)" d="M 591.36018 220.076233 
L 593.765074 216.087778 
L 596.169969 212.198953 
L 598.574863 208.509605 
L 600.979757 205.098402 
L 603.384651 202.01623 
L 605.789546 199.282955 
L 608.19444 196.887636 
L 610.599334 194.791763 
L 613.004229 192.934719 
L 615.409123 191.240577 
L 617.814017 189.625516 
L 620.218911 188.005397 
L 622.623806 186.303375 
L 625.0287 184.457517 
L 627.433594 182.42835 
L 629.838489 180.205874 
L 632.243383 177.815161 
L 634.648277 175.319238 
L 637.053171 172.817834 
L 639.458066 170.440901 
L 641.86296 168.336647 
L 644.267854 166.654936 
L 646.672749 165.5282 
L 649.077643 165.052905 
L 651.482537 165.274943 
L 653.887431 166.181873 
L 656.292326 167.703695 
L 658.69722 169.722192 
L 661.102114 172.087175 
L 663.507009 174.63667 
L 665.911903 177.217474 
L 668.316797 179.702797 
L 670.721691 182.004527 
L 673.126586 184.079031 
L 675.53148 185.926631 
L 677.936374 187.585942 
L 680.341269 189.124819 
L 682.746163 190.629671 
L 685.151057 192.194653 
L 687.555951 193.911716 
L 689.960846 195.862045 
L 692.36574 198.109062 
L 694.770634 200.693054 
L 697.175529 203.627488 
L 699.580423 206.897216 
L 701.985317 210.458833 
L 704.390211 214.243404 
L 706.795106 218.161611 
L 709.2 222.111004 
" style="fill:none;stroke:#1f77b4;stroke-linecap:square;stroke-width:1.5;"/>
   </g>
   <g id="line2d_62">
    <path clip-path="url(#p5c41c22dbf)" d="M 657.205804 248.89375 
L 657.205804 162.2 
" style="fill:none;stroke:#808080;stroke-dasharray:1.5,2.475;stroke-dashoffset:0;stroke-width:1.5;"/>
   </g>
   <g id="patch_38">
    <path d="M 591.36018 248.89375 
L 591.36018 162.2 
" style="fill:none;stroke:#000000;stroke-linecap:square;stroke-linejoin:miter;stroke-width:0.8;"/>
   </g>
   <g id="patch_39">
    <path d="M 709.2 248.89375 
L 709.2 162.2 
" style="fill:none;stroke:#000000;stroke-linecap:square;stroke-linejoin:miter;stroke-width:0.8;"/>
   </g>
   <g id="patch_40">
    <path d="M 591.36018 248.89375 
L 709.2 248.89375 
" style="fill:none;stroke:#000000;stroke-linecap:square;stroke-linejoin:miter;stroke-width:0.8;"/>
   </g>
   <g id="patch_41">
    <path d="M 591.36018 162.2 
L 709.2 162.2 
" style="fill:none;stroke:#000000;stroke-linecap:square;stroke-linejoin:miter;stroke-width:0.8;"/>
   </g>
  </g>
  <g id="axes_9">
   <g id="patch_42">
    <path d="M 57.05 389.29375 
L 174.88982 389.29375 
L 174.88982 302.6 
L 57.05 302.6 
z
" style="fill:#ffffff;"/>
   </g>
   <g id="matplotlib.axis_17">
    <g id="xtick_20">
     <g id="line2d_63">
      <g>
       <use style="stroke:#000000;stroke-width:0.8;" x="86.499537" xlink:href="#m2a98952320" y="389.29375"/>
      </g>
     </g>
     <g id="text_60">
      <!-- −2.5 -->
      <g transform="translate(74.358131 403.892188)scale(0.1 -0.1)">
       <use xlink:href="#DejaVuSans-8722"/>
       <use x="83.789062" xlink:href="#DejaVuSans-50"/>
       <use x="147.412109" xlink:href="#DejaVuSans-46"/>
       <use x="179.199219" xlink:href="#DejaVuSans-53"/>
      </g>
     </g>
    </g>
    <g id="xtick_21">
     <g id="line2d_64">
      <g>
       <use style="stroke:#000000;stroke-width:0.8;" x="115.963304" xlink:href="#m2a98952320" y="389.29375"/>
      </g>
     </g>
     <g id="text_61">
      <!-- 0.0 -->
      <g transform="translate(108.011741 403.892188)scale(0.1 -0.1)">
       <use xlink:href="#DejaVuSans-48"/>
       <use x="63.623047" xlink:href="#DejaVuSans-46"/>
       <use x="95.410156" xlink:href="#DejaVuSans-48"/>
      </g>
     </g>
    </g>
    <g id="xtick_22">
     <g id="line2d_65">
      <g>
       <use style="stroke:#000000;stroke-width:0.8;" x="145.427071" xlink:href="#m2a98952320" y="389.29375"/>
      </g>
     </g>
     <g id="text_62">
      <!-- 2.5 -->
      <g transform="translate(137.475508 403.892188)scale(0.1 -0.1)">
       <use xlink:href="#DejaVuSans-50"/>
       <use x="63.623047" xlink:href="#DejaVuSans-46"/>
       <use x="95.410156" xlink:href="#DejaVuSans-53"/>
      </g>
     </g>
    </g>
    <g id="text_63">
     <!-- sd_pSTAT5B_rel -->
     <g transform="translate(76.194129 417.570312)scale(0.1 -0.1)">
      <use xlink:href="#DejaVuSans-115"/>
      <use x="52.099609" xlink:href="#DejaVuSans-100"/>
      <use x="115.576172" xlink:href="#DejaVuSans-95"/>
      <use x="165.576172" xlink:href="#DejaVuSans-112"/>
      <use x="229.052734" xlink:href="#DejaVuSans-83"/>
      <use x="292.529297" xlink:href="#DejaVuSans-84"/>
      <use x="353.503906" xlink:href="#DejaVuSans-65"/>
      <use x="421.802734" xlink:href="#DejaVuSans-84"/>
      <use x="482.886719" xlink:href="#DejaVuSans-53"/>
      <use x="546.509766" xlink:href="#DejaVuSans-66"/>
      <use x="615.113281" xlink:href="#DejaVuSans-95"/>
      <use x="665.113281" xlink:href="#DejaVuSans-114"/>
      <use x="706.195312" xlink:href="#DejaVuSans-101"/>
      <use x="767.71875" xlink:href="#DejaVuSans-108"/>
     </g>
    </g>
   </g>
   <g id="matplotlib.axis_18">
    <g id="ytick_28">
     <g id="line2d_66">
      <g>
       <use style="stroke:#000000;stroke-width:0.8;" x="57.05" xlink:href="#md9074385bd" y="389.29375"/>
      </g>
     </g>
     <g id="text_64">
      <!-- 0.00 -->
      <g transform="translate(27.784375 393.092969)scale(0.1 -0.1)">
       <use xlink:href="#DejaVuSans-48"/>
       <use x="63.623047" xlink:href="#DejaVuSans-46"/>
       <use x="95.410156" xlink:href="#DejaVuSans-48"/>
       <use x="159.033203" xlink:href="#DejaVuSans-48"/>
      </g>
     </g>
    </g>
    <g id="ytick_29">
     <g id="line2d_67">
      <g>
       <use style="stroke:#000000;stroke-width:0.8;" x="57.05" xlink:href="#md9074385bd" y="348.588715"/>
      </g>
     </g>
     <g id="text_65">
      <!-- 0.05 -->
      <g transform="translate(27.784375 352.387934)scale(0.1 -0.1)">
       <use xlink:href="#DejaVuSans-48"/>
       <use x="63.623047" xlink:href="#DejaVuSans-46"/>
       <use x="95.410156" xlink:href="#DejaVuSans-48"/>
       <use x="159.033203" xlink:href="#DejaVuSans-53"/>
      </g>
     </g>
    </g>
    <g id="ytick_30">
     <g id="line2d_68">
      <g>
       <use style="stroke:#000000;stroke-width:0.8;" x="57.05" xlink:href="#md9074385bd" y="307.88368"/>
      </g>
     </g>
     <g id="text_66">
      <!-- 0.10 -->
      <g transform="translate(27.784375 311.682899)scale(0.1 -0.1)">
       <use xlink:href="#DejaVuSans-48"/>
       <use x="63.623047" xlink:href="#DejaVuSans-46"/>
       <use x="95.410156" xlink:href="#DejaVuSans-49"/>
       <use x="159.033203" xlink:href="#DejaVuSans-48"/>
      </g>
     </g>
    </g>
    <g id="text_67">
     <!-- Posterior -->
     <g transform="translate(21.704687 368.219531)rotate(-90)scale(0.1 -0.1)">
      <use xlink:href="#DejaVuSans-80"/>
      <use x="60.255859" xlink:href="#DejaVuSans-111"/>
      <use x="121.4375" xlink:href="#DejaVuSans-115"/>
      <use x="173.537109" xlink:href="#DejaVuSans-116"/>
      <use x="212.746094" xlink:href="#DejaVuSans-101"/>
      <use x="274.269531" xlink:href="#DejaVuSans-114"/>
      <use x="315.382812" xlink:href="#DejaVuSans-105"/>
      <use x="343.166016" xlink:href="#DejaVuSans-111"/>
      <use x="404.347656" xlink:href="#DejaVuSans-114"/>
     </g>
    </g>
   </g>
   <g id="line2d_69">
    <path clip-path="url(#pcf97d75914)" d="M 57.05 334.059538 
L 59.454894 327.821812 
L 61.859789 322.06531 
L 64.264683 316.987324 
L 66.669577 312.742064 
L 69.074471 309.426716 
L 71.479366 307.073662 
L 73.88426 305.6499 
L 76.289154 305.063623 
L 78.694049 305.176842 
L 81.098943 305.822073 
L 83.503837 306.820634 
L 85.908731 308.000109 
L 88.313626 309.208874 
L 90.71852 310.326289 
L 93.123414 311.26799 
L 95.528309 311.98646 
L 97.933203 312.467692 
L 100.338097 312.725115 
L 102.742991 312.792073 
L 105.147886 312.714013 
L 107.55278 312.541332 
L 109.957674 312.32348 
L 112.362569 312.104651 
L 114.767463 311.921099 
L 117.172357 311.799968 
L 119.577251 311.759371 
L 121.982146 311.809446 
L 124.38704 311.954055 
L 126.791934 312.192868 
L 129.196829 312.523591 
L 131.601723 312.944153 
L 134.006617 313.454726 
L 136.411511 314.0595 
L 138.816406 314.768116 
L 141.2213 315.596696 
L 143.626194 316.568343 
L 146.031089 317.712975 
L 148.435983 319.066321 
L 150.840877 320.66795 
L 153.245771 322.55827 
L 155.650666 324.774582 
L 158.05556 327.346465 
L 160.460454 330.290945 
L 162.865349 333.608074 
L 165.270243 337.277602 
L 167.675137 341.257371 
L 170.080031 345.483887 
L 172.484926 349.875222 
L 174.88982 354.336075 
" style="fill:none;stroke:#1f77b4;stroke-linecap:square;stroke-width:1.5;"/>
   </g>
   <g id="line2d_70">
    <path clip-path="url(#pcf97d75914)" d="M 125.615431 389.29375 
L 125.615431 302.6 
" style="fill:none;stroke:#808080;stroke-dasharray:1.5,2.475;stroke-dashoffset:0;stroke-width:1.5;"/>
   </g>
   <g id="patch_43">
    <path d="M 57.05 389.29375 
L 57.05 302.6 
" style="fill:none;stroke:#000000;stroke-linecap:square;stroke-linejoin:miter;stroke-width:0.8;"/>
   </g>
   <g id="patch_44">
    <path d="M 174.88982 389.29375 
L 174.88982 302.6 
" style="fill:none;stroke:#000000;stroke-linecap:square;stroke-linejoin:miter;stroke-width:0.8;"/>
   </g>
   <g id="patch_45">
    <path d="M 57.05 389.29375 
L 174.88982 389.29375 
" style="fill:none;stroke:#000000;stroke-linecap:square;stroke-linejoin:miter;stroke-width:0.8;"/>
   </g>
   <g id="patch_46">
    <path d="M 57.05 302.6 
L 174.88982 302.6 
" style="fill:none;stroke:#000000;stroke-linecap:square;stroke-linejoin:miter;stroke-width:0.8;"/>
   </g>
  </g>
  <g id="axes_10">
   <g id="patch_47">
    <path d="M 235.153393 389.29375 
L 352.993213 389.29375 
L 352.993213 302.6 
L 235.153393 302.6 
z
" style="fill:#ffffff;"/>
   </g>
   <g id="matplotlib.axis_19">
    <g id="xtick_23">
     <g id="line2d_71">
      <g>
       <use style="stroke:#000000;stroke-width:0.8;" x="294.063123" xlink:href="#m2a98952320" y="389.29375"/>
      </g>
     </g>
     <g id="text_68">
      <!-- 0 -->
      <g transform="translate(290.881873 403.892188)scale(0.1 -0.1)">
       <use xlink:href="#DejaVuSans-48"/>
      </g>
     </g>
    </g>
    <g id="xtick_24">
     <g id="line2d_72">
      <g>
       <use style="stroke:#000000;stroke-width:0.8;" x="352.982843" xlink:href="#m2a98952320" y="389.29375"/>
      </g>
     </g>
     <g id="text_69">
      <!-- 5 -->
      <g transform="translate(349.801593 403.892188)scale(0.1 -0.1)">
       <use xlink:href="#DejaVuSans-53"/>
      </g>
     </g>
    </g>
    <g id="text_70">
     <!-- sd_rSTAT5A_rel -->
     <g transform="translate(255.426428 417.570312)scale(0.1 -0.1)">
      <use xlink:href="#DejaVuSans-115"/>
      <use x="52.099609" xlink:href="#DejaVuSans-100"/>
      <use x="115.576172" xlink:href="#DejaVuSans-95"/>
      <use x="165.576172" xlink:href="#DejaVuSans-114"/>
      <use x="206.689453" xlink:href="#DejaVuSans-83"/>
      <use x="270.166016" xlink:href="#DejaVuSans-84"/>
      <use x="331.140625" xlink:href="#DejaVuSans-65"/>
      <use x="399.439453" xlink:href="#DejaVuSans-84"/>
      <use x="460.523438" xlink:href="#DejaVuSans-53"/>
      <use x="524.146484" xlink:href="#DejaVuSans-65"/>
      <use x="592.554688" xlink:href="#DejaVuSans-95"/>
      <use x="642.554688" xlink:href="#DejaVuSans-114"/>
      <use x="683.636719" xlink:href="#DejaVuSans-101"/>
      <use x="745.160156" xlink:href="#DejaVuSans-108"/>
     </g>
    </g>
   </g>
   <g id="matplotlib.axis_20">
    <g id="ytick_31">
     <g id="line2d_73">
      <g>
       <use style="stroke:#000000;stroke-width:0.8;" x="235.153393" xlink:href="#md9074385bd" y="389.29375"/>
      </g>
     </g>
     <g id="text_71">
      <!-- 0.00 -->
      <g transform="translate(205.887768 393.092969)scale(0.1 -0.1)">
       <use xlink:href="#DejaVuSans-48"/>
       <use x="63.623047" xlink:href="#DejaVuSans-46"/>
       <use x="95.410156" xlink:href="#DejaVuSans-48"/>
       <use x="159.033203" xlink:href="#DejaVuSans-48"/>
      </g>
     </g>
    </g>
    <g id="ytick_32">
     <g id="line2d_74">
      <g>
       <use style="stroke:#000000;stroke-width:0.8;" x="235.153393" xlink:href="#md9074385bd" y="347.885271"/>
      </g>
     </g>
     <g id="text_72">
      <!-- 0.05 -->
      <g transform="translate(205.887768 351.68449)scale(0.1 -0.1)">
       <use xlink:href="#DejaVuSans-48"/>
       <use x="63.623047" xlink:href="#DejaVuSans-46"/>
       <use x="95.410156" xlink:href="#DejaVuSans-48"/>
       <use x="159.033203" xlink:href="#DejaVuSans-53"/>
      </g>
     </g>
    </g>
    <g id="ytick_33">
     <g id="line2d_75">
      <g>
       <use style="stroke:#000000;stroke-width:0.8;" x="235.153393" xlink:href="#md9074385bd" y="306.476793"/>
      </g>
     </g>
     <g id="text_73">
      <!-- 0.10 -->
      <g transform="translate(205.887768 310.276012)scale(0.1 -0.1)">
       <use xlink:href="#DejaVuSans-48"/>
       <use x="63.623047" xlink:href="#DejaVuSans-46"/>
       <use x="95.410156" xlink:href="#DejaVuSans-49"/>
       <use x="159.033203" xlink:href="#DejaVuSans-48"/>
      </g>
     </g>
    </g>
   </g>
   <g id="line2d_76">
    <path clip-path="url(#p5538dce6bc)" d="M 235.153393 327.19622 
L 237.558288 321.576986 
L 239.963182 316.62085 
L 242.368076 312.470362 
L 244.77297 309.21679 
L 247.177865 306.894119 
L 249.582759 305.479075 
L 251.987653 304.896923 
L 254.392548 305.031975 
L 256.797442 305.741175 
L 259.202336 306.868826 
L 261.60723 308.260606 
L 264.012125 309.77532 
L 266.417019 311.293427 
L 268.821913 312.721924 
L 271.226808 313.995758 
L 273.631702 315.076338 
L 276.036596 315.947983 
L 278.44149 316.613172 
L 280.846385 317.087419 
L 283.251279 317.3944 
L 285.656173 317.56176 
L 288.061068 317.6178 
L 290.465962 317.589113 
L 292.870856 317.499097 
L 295.27575 317.367224 
L 297.680645 317.208938 
L 300.085539 317.036065 
L 302.490433 316.857645 
L 304.895328 316.681119 
L 307.300222 316.513826 
L 309.705116 316.364729 
L 312.11001 316.246271 
L 314.514905 316.176197 
L 316.919799 316.179135 
L 319.324693 316.287674 
L 321.729588 316.542674 
L 324.134482 316.992549 
L 326.539376 317.691375 
L 328.94427 318.695774 
L 331.349165 320.060688 
L 333.754059 321.834378 
L 336.158953 324.053085 
L 338.563848 326.735987 
L 340.968742 329.881078 
L 343.373636 333.462588 
L 345.77853 337.430402 
L 348.183425 341.711725 
L 350.588319 346.214951 
L 352.993213 350.835393 
" style="fill:none;stroke:#1f77b4;stroke-linecap:square;stroke-width:1.5;"/>
   </g>
   <g id="line2d_77">
    <path clip-path="url(#p5538dce6bc)" d="M 299.939592 389.29375 
L 299.939592 302.6 
" style="fill:none;stroke:#808080;stroke-dasharray:1.5,2.475;stroke-dashoffset:0;stroke-width:1.5;"/>
   </g>
   <g id="patch_48">
    <path d="M 235.153393 389.29375 
L 235.153393 302.6 
" style="fill:none;stroke:#000000;stroke-linecap:square;stroke-linejoin:miter;stroke-width:0.8;"/>
   </g>
   <g id="patch_49">
    <path d="M 352.993213 389.29375 
L 352.993213 302.6 
" style="fill:none;stroke:#000000;stroke-linecap:square;stroke-linejoin:miter;stroke-width:0.8;"/>
   </g>
   <g id="patch_50">
    <path d="M 235.153393 389.29375 
L 352.993213 389.29375 
" style="fill:none;stroke:#000000;stroke-linecap:square;stroke-linejoin:miter;stroke-width:0.8;"/>
   </g>
   <g id="patch_51">
    <path d="M 235.153393 302.6 
L 352.993213 302.6 
" style="fill:none;stroke:#000000;stroke-linecap:square;stroke-linejoin:miter;stroke-width:0.8;"/>
   </g>
  </g>
  <g id="axes_11">
   <g id="patch_52">
    <path d="M 413.256787 389.29375 
L 531.096607 389.29375 
L 531.096607 302.6 
L 413.256787 302.6 
z
" style="fill:#ffffff;"/>
   </g>
   <g id="matplotlib.axis_21">
    <g id="xtick_25">
     <g id="line2d_78">
      <g>
       <use style="stroke:#000000;stroke-width:0.8;" x="442.702751" xlink:href="#m2a98952320" y="389.29375"/>
      </g>
     </g>
     <g id="text_74">
      <!-- −2.5 -->
      <g transform="translate(430.561345 403.892188)scale(0.1 -0.1)">
       <use xlink:href="#DejaVuSans-8722"/>
       <use x="83.789062" xlink:href="#DejaVuSans-50"/>
       <use x="147.412109" xlink:href="#DejaVuSans-46"/>
       <use x="179.199219" xlink:href="#DejaVuSans-53"/>
      </g>
     </g>
    </g>
    <g id="xtick_26">
     <g id="line2d_79">
      <g>
       <use style="stroke:#000000;stroke-width:0.8;" x="472.184971" xlink:href="#m2a98952320" y="389.29375"/>
      </g>
     </g>
     <g id="text_75">
      <!-- 0.0 -->
      <g transform="translate(464.233409 403.892188)scale(0.1 -0.1)">
       <use xlink:href="#DejaVuSans-48"/>
       <use x="63.623047" xlink:href="#DejaVuSans-46"/>
       <use x="95.410156" xlink:href="#DejaVuSans-48"/>
      </g>
     </g>
    </g>
    <g id="xtick_27">
     <g id="line2d_80">
      <g>
       <use style="stroke:#000000;stroke-width:0.8;" x="501.667192" xlink:href="#m2a98952320" y="389.29375"/>
      </g>
     </g>
     <g id="text_76">
      <!-- 2.5 -->
      <g transform="translate(493.715629 403.892188)scale(0.1 -0.1)">
       <use xlink:href="#DejaVuSans-50"/>
       <use x="63.623047" xlink:href="#DejaVuSans-46"/>
       <use x="95.410156" xlink:href="#DejaVuSans-53"/>
      </g>
     </g>
    </g>
    <g id="text_77">
     <!-- specC17 -->
     <defs>
      <path d="M 48.78125 52.59375 
L 48.78125 44.1875 
Q 44.96875 46.296875 41.140625 47.34375 
Q 37.3125 48.390625 33.40625 48.390625 
Q 24.65625 48.390625 19.8125 42.84375 
Q 14.984375 37.3125 14.984375 27.296875 
Q 14.984375 17.28125 19.8125 11.734375 
Q 24.65625 6.203125 33.40625 6.203125 
Q 37.3125 6.203125 41.140625 7.25 
Q 44.96875 8.296875 48.78125 10.40625 
L 48.78125 2.09375 
Q 45.015625 0.34375 40.984375 -0.53125 
Q 36.96875 -1.421875 32.421875 -1.421875 
Q 20.0625 -1.421875 12.78125 6.34375 
Q 5.515625 14.109375 5.515625 27.296875 
Q 5.515625 40.671875 12.859375 48.328125 
Q 20.21875 56 33.015625 56 
Q 37.15625 56 41.109375 55.140625 
Q 45.0625 54.296875 48.78125 52.59375 
z
" id="DejaVuSans-99"/>
      <path d="M 64.40625 67.28125 
L 64.40625 56.890625 
Q 59.421875 61.53125 53.78125 63.8125 
Q 48.140625 66.109375 41.796875 66.109375 
Q 29.296875 66.109375 22.65625 58.46875 
Q 16.015625 50.828125 16.015625 36.375 
Q 16.015625 21.96875 22.65625 14.328125 
Q 29.296875 6.6875 41.796875 6.6875 
Q 48.140625 6.6875 53.78125 8.984375 
Q 59.421875 11.28125 64.40625 15.921875 
L 64.40625 5.609375 
Q 59.234375 2.09375 53.4375 0.328125 
Q 47.65625 -1.421875 41.21875 -1.421875 
Q 24.65625 -1.421875 15.125 8.703125 
Q 5.609375 18.84375 5.609375 36.375 
Q 5.609375 53.953125 15.125 64.078125 
Q 24.65625 74.21875 41.21875 74.21875 
Q 47.75 74.21875 53.53125 72.484375 
Q 59.328125 70.75 64.40625 67.28125 
z
" id="DejaVuSans-67"/>
     </defs>
     <g transform="translate(450.718103 417.570312)scale(0.1 -0.1)">
      <use xlink:href="#DejaVuSans-115"/>
      <use x="52.099609" xlink:href="#DejaVuSans-112"/>
      <use x="115.576172" xlink:href="#DejaVuSans-101"/>
      <use x="177.099609" xlink:href="#DejaVuSans-99"/>
      <use x="232.080078" xlink:href="#DejaVuSans-67"/>
      <use x="301.904297" xlink:href="#DejaVuSans-49"/>
      <use x="365.527344" xlink:href="#DejaVuSans-55"/>
     </g>
    </g>
   </g>
   <g id="matplotlib.axis_22">
    <g id="ytick_34">
     <g id="line2d_81">
      <g>
       <use style="stroke:#000000;stroke-width:0.8;" x="413.256787" xlink:href="#md9074385bd" y="389.29375"/>
      </g>
     </g>
     <g id="text_78">
      <!-- 0.00 -->
      <g transform="translate(383.991162 393.092969)scale(0.1 -0.1)">
       <use xlink:href="#DejaVuSans-48"/>
       <use x="63.623047" xlink:href="#DejaVuSans-46"/>
       <use x="95.410156" xlink:href="#DejaVuSans-48"/>
       <use x="159.033203" xlink:href="#DejaVuSans-48"/>
      </g>
     </g>
    </g>
    <g id="ytick_35">
     <g id="line2d_82">
      <g>
       <use style="stroke:#000000;stroke-width:0.8;" x="413.256787" xlink:href="#md9074385bd" y="353.402387"/>
      </g>
     </g>
     <g id="text_79">
      <!-- 0.05 -->
      <g transform="translate(383.991162 357.201606)scale(0.1 -0.1)">
       <use xlink:href="#DejaVuSans-48"/>
       <use x="63.623047" xlink:href="#DejaVuSans-46"/>
       <use x="95.410156" xlink:href="#DejaVuSans-48"/>
       <use x="159.033203" xlink:href="#DejaVuSans-53"/>
      </g>
     </g>
    </g>
    <g id="ytick_36">
     <g id="line2d_83">
      <g>
       <use style="stroke:#000000;stroke-width:0.8;" x="413.256787" xlink:href="#md9074385bd" y="317.511025"/>
      </g>
     </g>
     <g id="text_80">
      <!-- 0.10 -->
      <g transform="translate(383.991162 321.310244)scale(0.1 -0.1)">
       <use xlink:href="#DejaVuSans-48"/>
       <use x="63.623047" xlink:href="#DejaVuSans-46"/>
       <use x="95.410156" xlink:href="#DejaVuSans-49"/>
       <use x="159.033203" xlink:href="#DejaVuSans-48"/>
      </g>
     </g>
    </g>
   </g>
   <g id="line2d_84">
    <path clip-path="url(#p927d8e0412)" d="M 413.256787 347.637892 
L 415.661681 341.347403 
L 418.066575 335.040115 
L 420.47147 328.917355 
L 422.876364 323.184737 
L 425.281258 318.036731 
L 427.686152 313.640929 
L 430.091047 310.123843 
L 432.495941 307.560049 
L 434.900835 305.966224 
L 437.30573 305.300985 
L 439.710624 305.470659 
L 442.115518 306.340231 
L 444.520412 307.74794 
L 446.925307 309.521508 
L 449.330201 311.493802 
L 451.735095 313.515994 
L 454.13999 315.466845 
L 456.544884 317.257439 
L 458.949778 318.83153 
L 461.354672 320.162259 
L 463.759567 321.246446 
L 466.164461 322.097796 
L 468.569355 322.74027 
L 470.97425 323.202533 
L 473.379144 323.514029 
L 475.784038 323.702823 
L 478.188932 323.794991 
L 480.593827 323.81516 
L 482.998721 323.787673 
L 485.403615 323.737923 
L 487.80851 323.69349 
L 490.213404 323.684878 
L 492.618298 323.74579 
L 495.023192 323.912994 
L 497.428087 324.22585 
L 499.832981 324.725567 
L 502.237875 325.45418 
L 504.64277 326.453172 
L 507.047664 327.761635 
L 509.452558 329.413874 
L 511.857452 331.436464 
L 514.262347 333.844929 
L 516.667241 336.640371 
L 519.072135 339.806558 
L 521.47703 343.308039 
L 523.881924 347.089809 
L 526.286818 351.078897 
L 528.691712 355.187966 
L 531.096607 359.320683 
" style="fill:none;stroke:#1f77b4;stroke-linecap:square;stroke-width:1.5;"/>
   </g>
   <g id="line2d_85">
    <path clip-path="url(#p927d8e0412)" d="M 473.44681 389.29375 
L 473.44681 302.6 
" style="fill:none;stroke:#808080;stroke-dasharray:1.5,2.475;stroke-dashoffset:0;stroke-width:1.5;"/>
   </g>
   <g id="patch_53">
    <path d="M 413.256787 389.29375 
L 413.256787 302.6 
" style="fill:none;stroke:#000000;stroke-linecap:square;stroke-linejoin:miter;stroke-width:0.8;"/>
   </g>
   <g id="patch_54">
    <path d="M 531.096607 389.29375 
L 531.096607 302.6 
" style="fill:none;stroke:#000000;stroke-linecap:square;stroke-linejoin:miter;stroke-width:0.8;"/>
   </g>
   <g id="patch_55">
    <path d="M 413.256787 389.29375 
L 531.096607 389.29375 
" style="fill:none;stroke:#000000;stroke-linecap:square;stroke-linejoin:miter;stroke-width:0.8;"/>
   </g>
   <g id="patch_56">
    <path d="M 413.256787 302.6 
L 531.096607 302.6 
" style="fill:none;stroke:#000000;stroke-linecap:square;stroke-linejoin:miter;stroke-width:0.8;"/>
   </g>
  </g>
 </g>
 <defs>
  <clipPath id="p56f1a30471">
   <rect height="86.69375" width="117.83982" x="57.05" y="21.8"/>
  </clipPath>
  <clipPath id="p286035d278">
   <rect height="86.69375" width="117.83982" x="235.153393" y="21.8"/>
  </clipPath>
  <clipPath id="pd552a28cf8">
   <rect height="86.69375" width="117.83982" x="413.256787" y="21.8"/>
  </clipPath>
  <clipPath id="pafd23a1ed0">
   <rect height="86.69375" width="117.83982" x="591.36018" y="21.8"/>
  </clipPath>
  <clipPath id="p7fb75ac4ae">
   <rect height="86.69375" width="117.83982" x="57.05" y="162.2"/>
  </clipPath>
  <clipPath id="p9dc2c55316">
   <rect height="86.69375" width="117.83982" x="235.153393" y="162.2"/>
  </clipPath>
  <clipPath id="pfeedb424d3">
   <rect height="86.69375" width="117.83982" x="413.256787" y="162.2"/>
  </clipPath>
  <clipPath id="p5c41c22dbf">
   <rect height="86.69375" width="117.83982" x="591.36018" y="162.2"/>
  </clipPath>
  <clipPath id="pcf97d75914">
   <rect height="86.69375" width="117.83982" x="57.05" y="302.6"/>
  </clipPath>
  <clipPath id="p5538dce6bc">
   <rect height="86.69375" width="117.83982" x="235.153393" y="302.6"/>
  </clipPath>
  <clipPath id="p927d8e0412">
   <rect height="86.69375" width="117.83982" x="413.256787" y="302.6"/>
  </clipPath>
 </defs>
</svg>
