<?xml version="1.0" encoding="utf-8" standalone="no"?>
<!DOCTYPE svg PUBLIC "-//W3C//DTD SVG 1.1//EN"
  "http://www.w3.org/Graphics/SVG/1.1/DTD/svg11.dtd">
<!-- Created with matplotlib (https://matplotlib.org/) -->
<svg height="432pt" version="1.1" viewBox="0 0 576 432" width="576pt" xmlns="http://www.w3.org/2000/svg" xmlns:xlink="http://www.w3.org/1999/xlink">
 <defs>
  <style type="text/css">
*{stroke-linecap:butt;stroke-linejoin:round;}
  </style>
 </defs>
 <g id="figure_1">
  <g id="patch_1">
   <path d="M 0 432 
L 576 432 
L 576 0 
L 0 0 
z
" style="fill:#ffffff;"/>
  </g>
  <g id="axes_1">
   <g id="patch_2">
    <path d="M 47.675 109.576622 
L 181.498039 109.576622 
L 181.498039 12.424308 
L 47.675 12.424308 
z
" style="fill:#ffffff;"/>
   </g>
   <g id="matplotlib.axis_1">
    <g id="xtick_1">
     <g id="line2d_1">
      <defs>
       <path d="M 0 0 
L 0 3.5 
" id="m5f5bbb4568" style="stroke:#000000;stroke-width:0.8;"/>
      </defs>
      <g>
       <use style="stroke:#000000;stroke-width:0.8;" x="47.675" xlink:href="#m5f5bbb4568" y="109.576622"/>
      </g>
     </g>
     <g id="text_1">
      <!-- −3.0 -->
      <defs>
       <path d="M 10.59375 35.5 
L 73.1875 35.5 
L 73.1875 27.203125 
L 10.59375 27.203125 
z
" id="DejaVuSans-8722"/>
       <path d="M 40.578125 39.3125 
Q 47.65625 37.796875 51.625 33 
Q 55.609375 28.21875 55.609375 21.1875 
Q 55.609375 10.40625 48.1875 4.484375 
Q 40.765625 -1.421875 27.09375 -1.421875 
Q 22.515625 -1.421875 17.65625 -0.515625 
Q 12.796875 0.390625 7.625 2.203125 
L 7.625 11.71875 
Q 11.71875 9.328125 16.59375 8.109375 
Q 21.484375 6.890625 26.8125 6.890625 
Q 36.078125 6.890625 40.9375 10.546875 
Q 45.796875 14.203125 45.796875 21.1875 
Q 45.796875 27.640625 41.28125 31.265625 
Q 36.765625 34.90625 28.71875 34.90625 
L 20.21875 34.90625 
L 20.21875 43.015625 
L 29.109375 43.015625 
Q 36.375 43.015625 40.234375 45.921875 
Q 44.09375 48.828125 44.09375 54.296875 
Q 44.09375 59.90625 40.109375 62.90625 
Q 36.140625 65.921875 28.71875 65.921875 
Q 24.65625 65.921875 20.015625 65.03125 
Q 15.375 64.15625 9.8125 62.3125 
L 9.8125 71.09375 
Q 15.4375 72.65625 20.34375 73.4375 
Q 25.25 74.21875 29.59375 74.21875 
Q 40.828125 74.21875 47.359375 69.109375 
Q 53.90625 64.015625 53.90625 55.328125 
Q 53.90625 49.265625 50.4375 45.09375 
Q 46.96875 40.921875 40.578125 39.3125 
z
" id="DejaVuSans-51"/>
       <path d="M 10.6875 12.40625 
L 21 12.40625 
L 21 0 
L 10.6875 0 
z
" id="DejaVuSans-46"/>
       <path d="M 31.78125 66.40625 
Q 24.171875 66.40625 20.328125 58.90625 
Q 16.5 51.421875 16.5 36.375 
Q 16.5 21.390625 20.328125 13.890625 
Q 24.171875 6.390625 31.78125 6.390625 
Q 39.453125 6.390625 43.28125 13.890625 
Q 47.125 21.390625 47.125 36.375 
Q 47.125 51.421875 43.28125 58.90625 
Q 39.453125 66.40625 31.78125 66.40625 
z
M 31.78125 74.21875 
Q 44.046875 74.21875 50.515625 64.515625 
Q 56.984375 54.828125 56.984375 36.375 
Q 56.984375 17.96875 50.515625 8.265625 
Q 44.046875 -1.421875 31.78125 -1.421875 
Q 19.53125 -1.421875 13.0625 8.265625 
Q 6.59375 17.96875 6.59375 36.375 
Q 6.59375 54.828125 13.0625 64.515625 
Q 19.53125 74.21875 31.78125 74.21875 
z
" id="DejaVuSans-48"/>
      </defs>
      <g transform="translate(35.533594 124.17506)scale(0.1 -0.1)">
       <use xlink:href="#DejaVuSans-8722"/>
       <use x="83.789062" xlink:href="#DejaVuSans-51"/>
       <use x="147.412109" xlink:href="#DejaVuSans-46"/>
       <use x="179.199219" xlink:href="#DejaVuSans-48"/>
      </g>
     </g>
    </g>
    <g id="xtick_2">
     <g id="line2d_2">
      <g>
       <use style="stroke:#000000;stroke-width:0.8;" x="81.13076" xlink:href="#m5f5bbb4568" y="109.576622"/>
      </g>
     </g>
     <g id="text_2">
      <!-- −2.5 -->
      <defs>
       <path d="M 19.1875 8.296875 
L 53.609375 8.296875 
L 53.609375 0 
L 7.328125 0 
L 7.328125 8.296875 
Q 12.9375 14.109375 22.625 23.890625 
Q 32.328125 33.6875 34.8125 36.53125 
Q 39.546875 41.84375 41.421875 45.53125 
Q 43.3125 49.21875 43.3125 52.78125 
Q 43.3125 58.59375 39.234375 62.25 
Q 35.15625 65.921875 28.609375 65.921875 
Q 23.96875 65.921875 18.8125 64.3125 
Q 13.671875 62.703125 7.8125 59.421875 
L 7.8125 69.390625 
Q 13.765625 71.78125 18.9375 73 
Q 24.125 74.21875 28.421875 74.21875 
Q 39.75 74.21875 46.484375 68.546875 
Q 53.21875 62.890625 53.21875 53.421875 
Q 53.21875 48.921875 51.53125 44.890625 
Q 49.859375 40.875 45.40625 35.40625 
Q 44.1875 33.984375 37.640625 27.21875 
Q 31.109375 20.453125 19.1875 8.296875 
z
" id="DejaVuSans-50"/>
       <path d="M 10.796875 72.90625 
L 49.515625 72.90625 
L 49.515625 64.59375 
L 19.828125 64.59375 
L 19.828125 46.734375 
Q 21.96875 47.46875 24.109375 47.828125 
Q 26.265625 48.1875 28.421875 48.1875 
Q 40.625 48.1875 47.75 41.5 
Q 54.890625 34.8125 54.890625 23.390625 
Q 54.890625 11.625 47.5625 5.09375 
Q 40.234375 -1.421875 26.90625 -1.421875 
Q 22.3125 -1.421875 17.546875 -0.640625 
Q 12.796875 0.140625 7.71875 1.703125 
L 7.71875 11.625 
Q 12.109375 9.234375 16.796875 8.0625 
Q 21.484375 6.890625 26.703125 6.890625 
Q 35.15625 6.890625 40.078125 11.328125 
Q 45.015625 15.765625 45.015625 23.390625 
Q 45.015625 31 40.078125 35.4375 
Q 35.15625 39.890625 26.703125 39.890625 
Q 22.75 39.890625 18.8125 39.015625 
Q 14.890625 38.140625 10.796875 36.28125 
z
" id="DejaVuSans-53"/>
      </defs>
      <g transform="translate(68.989354 124.17506)scale(0.1 -0.1)">
       <use xlink:href="#DejaVuSans-8722"/>
       <use x="83.789062" xlink:href="#DejaVuSans-50"/>
       <use x="147.412109" xlink:href="#DejaVuSans-46"/>
       <use x="179.199219" xlink:href="#DejaVuSans-53"/>
      </g>
     </g>
    </g>
    <g id="xtick_3">
     <g id="line2d_3">
      <g>
       <use style="stroke:#000000;stroke-width:0.8;" x="114.58652" xlink:href="#m5f5bbb4568" y="109.576622"/>
      </g>
     </g>
     <g id="text_3">
      <!-- −2.0 -->
      <g transform="translate(102.445113 124.17506)scale(0.1 -0.1)">
       <use xlink:href="#DejaVuSans-8722"/>
       <use x="83.789062" xlink:href="#DejaVuSans-50"/>
       <use x="147.412109" xlink:href="#DejaVuSans-46"/>
       <use x="179.199219" xlink:href="#DejaVuSans-48"/>
      </g>
     </g>
    </g>
    <g id="xtick_4">
     <g id="line2d_4">
      <g>
       <use style="stroke:#000000;stroke-width:0.8;" x="148.042279" xlink:href="#m5f5bbb4568" y="109.576622"/>
      </g>
     </g>
     <g id="text_4">
      <!-- −1.5 -->
      <defs>
       <path d="M 12.40625 8.296875 
L 28.515625 8.296875 
L 28.515625 63.921875 
L 10.984375 60.40625 
L 10.984375 69.390625 
L 28.421875 72.90625 
L 38.28125 72.90625 
L 38.28125 8.296875 
L 54.390625 8.296875 
L 54.390625 0 
L 12.40625 0 
z
" id="DejaVuSans-49"/>
      </defs>
      <g transform="translate(135.900873 124.17506)scale(0.1 -0.1)">
       <use xlink:href="#DejaVuSans-8722"/>
       <use x="83.789062" xlink:href="#DejaVuSans-49"/>
       <use x="147.412109" xlink:href="#DejaVuSans-46"/>
       <use x="179.199219" xlink:href="#DejaVuSans-53"/>
      </g>
     </g>
    </g>
    <g id="xtick_5">
     <g id="line2d_5">
      <g>
       <use style="stroke:#000000;stroke-width:0.8;" x="181.498039" xlink:href="#m5f5bbb4568" y="109.576622"/>
      </g>
     </g>
     <g id="text_5">
      <!-- −1.0 -->
      <g transform="translate(169.356633 124.17506)scale(0.1 -0.1)">
       <use xlink:href="#DejaVuSans-8722"/>
       <use x="83.789062" xlink:href="#DejaVuSans-49"/>
       <use x="147.412109" xlink:href="#DejaVuSans-46"/>
       <use x="179.199219" xlink:href="#DejaVuSans-48"/>
      </g>
     </g>
    </g>
    <g id="text_6">
     <!-- log_division_rate -->
     <defs>
      <path d="M 9.421875 75.984375 
L 18.40625 75.984375 
L 18.40625 0 
L 9.421875 0 
z
" id="DejaVuSans-108"/>
      <path d="M 30.609375 48.390625 
Q 23.390625 48.390625 19.1875 42.75 
Q 14.984375 37.109375 14.984375 27.296875 
Q 14.984375 17.484375 19.15625 11.84375 
Q 23.34375 6.203125 30.609375 6.203125 
Q 37.796875 6.203125 41.984375 11.859375 
Q 46.1875 17.53125 46.1875 27.296875 
Q 46.1875 37.015625 41.984375 42.703125 
Q 37.796875 48.390625 30.609375 48.390625 
z
M 30.609375 56 
Q 42.328125 56 49.015625 48.375 
Q 55.71875 40.765625 55.71875 27.296875 
Q 55.71875 13.875 49.015625 6.21875 
Q 42.328125 -1.421875 30.609375 -1.421875 
Q 18.84375 -1.421875 12.171875 6.21875 
Q 5.515625 13.875 5.515625 27.296875 
Q 5.515625 40.765625 12.171875 48.375 
Q 18.84375 56 30.609375 56 
z
" id="DejaVuSans-111"/>
      <path d="M 45.40625 27.984375 
Q 45.40625 37.75 41.375 43.109375 
Q 37.359375 48.484375 30.078125 48.484375 
Q 22.859375 48.484375 18.828125 43.109375 
Q 14.796875 37.75 14.796875 27.984375 
Q 14.796875 18.265625 18.828125 12.890625 
Q 22.859375 7.515625 30.078125 7.515625 
Q 37.359375 7.515625 41.375 12.890625 
Q 45.40625 18.265625 45.40625 27.984375 
z
M 54.390625 6.78125 
Q 54.390625 -7.171875 48.1875 -13.984375 
Q 42 -20.796875 29.203125 -20.796875 
Q 24.46875 -20.796875 20.265625 -20.09375 
Q 16.0625 -19.390625 12.109375 -17.921875 
L 12.109375 -9.1875 
Q 16.0625 -11.328125 19.921875 -12.34375 
Q 23.78125 -13.375 27.78125 -13.375 
Q 36.625 -13.375 41.015625 -8.765625 
Q 45.40625 -4.15625 45.40625 5.171875 
L 45.40625 9.625 
Q 42.625 4.78125 38.28125 2.390625 
Q 33.9375 0 27.875 0 
Q 17.828125 0 11.671875 7.65625 
Q 5.515625 15.328125 5.515625 27.984375 
Q 5.515625 40.671875 11.671875 48.328125 
Q 17.828125 56 27.875 56 
Q 33.9375 56 38.28125 53.609375 
Q 42.625 51.21875 45.40625 46.390625 
L 45.40625 54.6875 
L 54.390625 54.6875 
z
" id="DejaVuSans-103"/>
      <path d="M 50.984375 -16.609375 
L 50.984375 -23.578125 
L -0.984375 -23.578125 
L -0.984375 -16.609375 
z
" id="DejaVuSans-95"/>
      <path d="M 45.40625 46.390625 
L 45.40625 75.984375 
L 54.390625 75.984375 
L 54.390625 0 
L 45.40625 0 
L 45.40625 8.203125 
Q 42.578125 3.328125 38.25 0.953125 
Q 33.9375 -1.421875 27.875 -1.421875 
Q 17.96875 -1.421875 11.734375 6.484375 
Q 5.515625 14.40625 5.515625 27.296875 
Q 5.515625 40.1875 11.734375 48.09375 
Q 17.96875 56 27.875 56 
Q 33.9375 56 38.25 53.625 
Q 42.578125 51.265625 45.40625 46.390625 
z
M 14.796875 27.296875 
Q 14.796875 17.390625 18.875 11.75 
Q 22.953125 6.109375 30.078125 6.109375 
Q 37.203125 6.109375 41.296875 11.75 
Q 45.40625 17.390625 45.40625 27.296875 
Q 45.40625 37.203125 41.296875 42.84375 
Q 37.203125 48.484375 30.078125 48.484375 
Q 22.953125 48.484375 18.875 42.84375 
Q 14.796875 37.203125 14.796875 27.296875 
z
" id="DejaVuSans-100"/>
      <path d="M 9.421875 54.6875 
L 18.40625 54.6875 
L 18.40625 0 
L 9.421875 0 
z
M 9.421875 75.984375 
L 18.40625 75.984375 
L 18.40625 64.59375 
L 9.421875 64.59375 
z
" id="DejaVuSans-105"/>
      <path d="M 2.984375 54.6875 
L 12.5 54.6875 
L 29.59375 8.796875 
L 46.6875 54.6875 
L 56.203125 54.6875 
L 35.6875 0 
L 23.484375 0 
z
" id="DejaVuSans-118"/>
      <path d="M 44.28125 53.078125 
L 44.28125 44.578125 
Q 40.484375 46.53125 36.375 47.5 
Q 32.28125 48.484375 27.875 48.484375 
Q 21.1875 48.484375 17.84375 46.4375 
Q 14.5 44.390625 14.5 40.28125 
Q 14.5 37.15625 16.890625 35.375 
Q 19.28125 33.59375 26.515625 31.984375 
L 29.59375 31.296875 
Q 39.15625 29.25 43.1875 25.515625 
Q 47.21875 21.78125 47.21875 15.09375 
Q 47.21875 7.46875 41.1875 3.015625 
Q 35.15625 -1.421875 24.609375 -1.421875 
Q 20.21875 -1.421875 15.453125 -0.5625 
Q 10.6875 0.296875 5.421875 2 
L 5.421875 11.28125 
Q 10.40625 8.6875 15.234375 7.390625 
Q 20.0625 6.109375 24.8125 6.109375 
Q 31.15625 6.109375 34.5625 8.28125 
Q 37.984375 10.453125 37.984375 14.40625 
Q 37.984375 18.0625 35.515625 20.015625 
Q 33.0625 21.96875 24.703125 23.78125 
L 21.578125 24.515625 
Q 13.234375 26.265625 9.515625 29.90625 
Q 5.8125 33.546875 5.8125 39.890625 
Q 5.8125 47.609375 11.28125 51.796875 
Q 16.75 56 26.8125 56 
Q 31.78125 56 36.171875 55.265625 
Q 40.578125 54.546875 44.28125 53.078125 
z
" id="DejaVuSans-115"/>
      <path d="M 54.890625 33.015625 
L 54.890625 0 
L 45.90625 0 
L 45.90625 32.71875 
Q 45.90625 40.484375 42.875 44.328125 
Q 39.84375 48.1875 33.796875 48.1875 
Q 26.515625 48.1875 22.3125 43.546875 
Q 18.109375 38.921875 18.109375 30.90625 
L 18.109375 0 
L 9.078125 0 
L 9.078125 54.6875 
L 18.109375 54.6875 
L 18.109375 46.1875 
Q 21.34375 51.125 25.703125 53.5625 
Q 30.078125 56 35.796875 56 
Q 45.21875 56 50.046875 50.171875 
Q 54.890625 44.34375 54.890625 33.015625 
z
" id="DejaVuSans-110"/>
      <path d="M 41.109375 46.296875 
Q 39.59375 47.171875 37.8125 47.578125 
Q 36.03125 48 33.890625 48 
Q 26.265625 48 22.1875 43.046875 
Q 18.109375 38.09375 18.109375 28.8125 
L 18.109375 0 
L 9.078125 0 
L 9.078125 54.6875 
L 18.109375 54.6875 
L 18.109375 46.1875 
Q 20.953125 51.171875 25.484375 53.578125 
Q 30.03125 56 36.53125 56 
Q 37.453125 56 38.578125 55.875 
Q 39.703125 55.765625 41.0625 55.515625 
z
" id="DejaVuSans-114"/>
      <path d="M 34.28125 27.484375 
Q 23.390625 27.484375 19.1875 25 
Q 14.984375 22.515625 14.984375 16.5 
Q 14.984375 11.71875 18.140625 8.90625 
Q 21.296875 6.109375 26.703125 6.109375 
Q 34.1875 6.109375 38.703125 11.40625 
Q 43.21875 16.703125 43.21875 25.484375 
L 43.21875 27.484375 
z
M 52.203125 31.203125 
L 52.203125 0 
L 43.21875 0 
L 43.21875 8.296875 
Q 40.140625 3.328125 35.546875 0.953125 
Q 30.953125 -1.421875 24.3125 -1.421875 
Q 15.921875 -1.421875 10.953125 3.296875 
Q 6 8.015625 6 15.921875 
Q 6 25.140625 12.171875 29.828125 
Q 18.359375 34.515625 30.609375 34.515625 
L 43.21875 34.515625 
L 43.21875 35.40625 
Q 43.21875 41.609375 39.140625 45 
Q 35.0625 48.390625 27.6875 48.390625 
Q 23 48.390625 18.546875 47.265625 
Q 14.109375 46.140625 10.015625 43.890625 
L 10.015625 52.203125 
Q 14.9375 54.109375 19.578125 55.046875 
Q 24.21875 56 28.609375 56 
Q 40.484375 56 46.34375 49.84375 
Q 52.203125 43.703125 52.203125 31.203125 
z
" id="DejaVuSans-97"/>
      <path d="M 18.3125 70.21875 
L 18.3125 54.6875 
L 36.8125 54.6875 
L 36.8125 47.703125 
L 18.3125 47.703125 
L 18.3125 18.015625 
Q 18.3125 11.328125 20.140625 9.421875 
Q 21.96875 7.515625 27.59375 7.515625 
L 36.8125 7.515625 
L 36.8125 0 
L 27.59375 0 
Q 17.1875 0 13.234375 3.875 
Q 9.28125 7.765625 9.28125 18.015625 
L 9.28125 47.703125 
L 2.6875 47.703125 
L 2.6875 54.6875 
L 9.28125 54.6875 
L 9.28125 70.21875 
z
" id="DejaVuSans-116"/>
      <path d="M 56.203125 29.59375 
L 56.203125 25.203125 
L 14.890625 25.203125 
Q 15.484375 15.921875 20.484375 11.0625 
Q 25.484375 6.203125 34.421875 6.203125 
Q 39.59375 6.203125 44.453125 7.46875 
Q 49.3125 8.734375 54.109375 11.28125 
L 54.109375 2.78125 
Q 49.265625 0.734375 44.1875 -0.34375 
Q 39.109375 -1.421875 33.890625 -1.421875 
Q 20.796875 -1.421875 13.15625 6.1875 
Q 5.515625 13.8125 5.515625 26.8125 
Q 5.515625 40.234375 12.765625 48.109375 
Q 20.015625 56 32.328125 56 
Q 43.359375 56 49.78125 48.890625 
Q 56.203125 41.796875 56.203125 29.59375 
z
M 47.21875 32.234375 
Q 47.125 39.59375 43.09375 43.984375 
Q 39.0625 48.390625 32.421875 48.390625 
Q 24.90625 48.390625 20.390625 44.140625 
Q 15.875 39.890625 15.1875 32.171875 
z
" id="DejaVuSans-101"/>
     </defs>
     <g transform="translate(72.67402 137.853185)scale(0.1 -0.1)">
      <use xlink:href="#DejaVuSans-108"/>
      <use x="27.783203" xlink:href="#DejaVuSans-111"/>
      <use x="88.964844" xlink:href="#DejaVuSans-103"/>
      <use x="152.441406" xlink:href="#DejaVuSans-95"/>
      <use x="202.441406" xlink:href="#DejaVuSans-100"/>
      <use x="265.917969" xlink:href="#DejaVuSans-105"/>
      <use x="293.701172" xlink:href="#DejaVuSans-118"/>
      <use x="352.880859" xlink:href="#DejaVuSans-105"/>
      <use x="380.664062" xlink:href="#DejaVuSans-115"/>
      <use x="432.763672" xlink:href="#DejaVuSans-105"/>
      <use x="460.546875" xlink:href="#DejaVuSans-111"/>
      <use x="521.728516" xlink:href="#DejaVuSans-110"/>
      <use x="585.107422" xlink:href="#DejaVuSans-95"/>
      <use x="635.107422" xlink:href="#DejaVuSans-114"/>
      <use x="676.220703" xlink:href="#DejaVuSans-97"/>
      <use x="737.5" xlink:href="#DejaVuSans-116"/>
      <use x="776.708984" xlink:href="#DejaVuSans-101"/>
     </g>
    </g>
   </g>
   <g id="matplotlib.axis_2">
    <g id="ytick_1">
     <g id="line2d_6">
      <defs>
       <path d="M 0 0 
L -3.5 0 
" id="m354d61cb46" style="stroke:#000000;stroke-width:0.8;"/>
      </defs>
      <g>
       <use style="stroke:#000000;stroke-width:0.8;" x="47.675" xlink:href="#m354d61cb46" y="105.160608"/>
      </g>
     </g>
     <g id="text_7">
      <!-- 0 -->
      <g transform="translate(34.3125 108.959827)scale(0.1 -0.1)">
       <use xlink:href="#DejaVuSans-48"/>
      </g>
     </g>
    </g>
    <g id="ytick_2">
     <g id="line2d_7">
      <g>
       <use style="stroke:#000000;stroke-width:0.8;" x="47.675" xlink:href="#m354d61cb46" y="57.169878"/>
      </g>
     </g>
     <g id="text_8">
      <!-- 5 -->
      <g transform="translate(34.3125 60.969096)scale(0.1 -0.1)">
       <use xlink:href="#DejaVuSans-53"/>
      </g>
     </g>
    </g>
    <g id="text_9">
     <!-- Posterior -->
     <defs>
      <path d="M 19.671875 64.796875 
L 19.671875 37.40625 
L 32.078125 37.40625 
Q 38.96875 37.40625 42.71875 40.96875 
Q 46.484375 44.53125 46.484375 51.125 
Q 46.484375 57.671875 42.71875 61.234375 
Q 38.96875 64.796875 32.078125 64.796875 
z
M 9.8125 72.90625 
L 32.078125 72.90625 
Q 44.34375 72.90625 50.609375 67.359375 
Q 56.890625 61.8125 56.890625 51.125 
Q 56.890625 40.328125 50.609375 34.8125 
Q 44.34375 29.296875 32.078125 29.296875 
L 19.671875 29.296875 
L 19.671875 0 
L 9.8125 0 
z
" id="DejaVuSans-80"/>
     </defs>
     <g transform="translate(28.232812 83.273122)rotate(-90)scale(0.1 -0.1)">
      <use xlink:href="#DejaVuSans-80"/>
      <use x="60.255859" xlink:href="#DejaVuSans-111"/>
      <use x="121.4375" xlink:href="#DejaVuSans-115"/>
      <use x="173.537109" xlink:href="#DejaVuSans-116"/>
      <use x="212.746094" xlink:href="#DejaVuSans-101"/>
      <use x="274.269531" xlink:href="#DejaVuSans-114"/>
      <use x="315.382812" xlink:href="#DejaVuSans-105"/>
      <use x="343.166016" xlink:href="#DejaVuSans-111"/>
      <use x="404.347656" xlink:href="#DejaVuSans-114"/>
     </g>
    </g>
   </g>
   <g id="line2d_8">
    <path clip-path="url(#pa3c3f90c64)" d="M 47.675 105.160608 
L 139.804429 105.140163 
L 140.476907 105.035609 
L 141.149384 104.611371 
L 141.821862 103.360405 
L 142.494339 100.521587 
L 143.166817 95.160705 
L 143.839295 86.244064 
L 145.856727 47.014332 
L 146.529205 39.686786 
L 147.87416 30.046738 
L 149.219115 17.865137 
L 149.891593 16.840323 
L 150.56407 24.626557 
L 152.581503 70.062566 
L 153.253981 78.276715 
L 155.271413 95.71247 
L 155.943891 100.116776 
L 156.616369 102.586331 
L 157.288846 103.350604 
L 157.961324 103.431426 
L 158.633801 103.74115 
L 159.978757 104.846761 
L 160.651234 105.08036 
L 161.996189 105.159077 
L 181.498039 105.160608 
L 181.498039 105.160608 
" style="fill:none;stroke:#1f77b4;stroke-linecap:square;stroke-width:1.5;"/>
   </g>
   <g id="line2d_9">
    <path clip-path="url(#pa3c3f90c64)" d="M 156.080765 109.576622 
L 156.080765 12.424308 
" style="fill:none;stroke:#808080;stroke-dasharray:1.5,2.475;stroke-dashoffset:0;stroke-width:1.5;"/>
   </g>
   <g id="line2d_10">
    <path clip-path="url(#pa3c3f90c64)" d="M 47.675 105.160608 
L 135.097086 105.093241 
L 135.769564 104.963612 
L 136.442041 104.664714 
L 137.114519 104.07116 
L 137.786996 103.037713 
L 138.459474 101.421259 
L 139.131951 99.076559 
L 139.804429 95.818642 
L 140.476907 91.413264 
L 141.149384 85.67884 
L 142.494339 70.669812 
L 144.511772 46.458356 
L 145.18425 40.94888 
L 145.856727 38.301819 
L 146.529205 38.925359 
L 147.201682 42.3996 
L 148.546638 53.528102 
L 151.236548 75.828119 
L 151.909026 80.684314 
L 152.581503 84.685802 
L 153.253981 87.735725 
L 154.598936 92.028055 
L 155.271413 93.706376 
L 155.943891 94.907386 
L 156.616369 95.443544 
L 157.288846 95.508806 
L 157.961324 95.704699 
L 158.633801 96.634377 
L 159.306279 98.419539 
L 160.651234 102.581836 
L 161.323712 103.940258 
L 161.996189 104.680779 
L 162.668667 105.004237 
L 164.013622 105.151204 
L 174.100786 105.160608 
L 181.498039 105.160608 
L 181.498039 105.160608 
" style="fill:none;stroke:#ff7f0e;stroke-linecap:square;stroke-width:1.5;"/>
   </g>
   <g id="patch_3">
    <path d="M 47.675 109.576622 
L 47.675 12.424308 
" style="fill:none;stroke:#000000;stroke-linecap:square;stroke-linejoin:miter;stroke-width:0.8;"/>
   </g>
   <g id="patch_4">
    <path d="M 47.675 109.576622 
L 181.498039 109.576622 
" style="fill:none;stroke:#000000;stroke-linecap:square;stroke-linejoin:miter;stroke-width:0.8;"/>
   </g>
  </g>
  <g id="axes_2">
   <g id="patch_5">
    <path d="M 237.96348 109.576622 
L 371.78652 109.576622 
L 371.78652 12.424308 
L 237.96348 12.424308 
z
" style="fill:#ffffff;"/>
   </g>
   <g id="matplotlib.axis_3">
    <g id="xtick_6">
     <g id="line2d_11">
      <g>
       <use style="stroke:#000000;stroke-width:0.8;" x="237.96348" xlink:href="#m5f5bbb4568" y="109.576622"/>
      </g>
     </g>
     <g id="text_10">
      <!-- 1.0 -->
      <g transform="translate(230.011918 124.17506)scale(0.1 -0.1)">
       <use xlink:href="#DejaVuSans-49"/>
       <use x="63.623047" xlink:href="#DejaVuSans-46"/>
       <use x="95.410156" xlink:href="#DejaVuSans-48"/>
      </g>
     </g>
    </g>
    <g id="xtick_7">
     <g id="line2d_12">
      <g>
       <use style="stroke:#000000;stroke-width:0.8;" x="271.41924" xlink:href="#m5f5bbb4568" y="109.576622"/>
      </g>
     </g>
     <g id="text_11">
      <!-- 1.5 -->
      <g transform="translate(263.467678 124.17506)scale(0.1 -0.1)">
       <use xlink:href="#DejaVuSans-49"/>
       <use x="63.623047" xlink:href="#DejaVuSans-46"/>
       <use x="95.410156" xlink:href="#DejaVuSans-53"/>
      </g>
     </g>
    </g>
    <g id="xtick_8">
     <g id="line2d_13">
      <g>
       <use style="stroke:#000000;stroke-width:0.8;" x="304.875" xlink:href="#m5f5bbb4568" y="109.576622"/>
      </g>
     </g>
     <g id="text_12">
      <!-- 2.0 -->
      <g transform="translate(296.923437 124.17506)scale(0.1 -0.1)">
       <use xlink:href="#DejaVuSans-50"/>
       <use x="63.623047" xlink:href="#DejaVuSans-46"/>
       <use x="95.410156" xlink:href="#DejaVuSans-48"/>
      </g>
     </g>
    </g>
    <g id="xtick_9">
     <g id="line2d_14">
      <g>
       <use style="stroke:#000000;stroke-width:0.8;" x="338.33076" xlink:href="#m5f5bbb4568" y="109.576622"/>
      </g>
     </g>
     <g id="text_13">
      <!-- 2.5 -->
      <g transform="translate(330.379197 124.17506)scale(0.1 -0.1)">
       <use xlink:href="#DejaVuSans-50"/>
       <use x="63.623047" xlink:href="#DejaVuSans-46"/>
       <use x="95.410156" xlink:href="#DejaVuSans-53"/>
      </g>
     </g>
    </g>
    <g id="xtick_10">
     <g id="line2d_15">
      <g>
       <use style="stroke:#000000;stroke-width:0.8;" x="371.78652" xlink:href="#m5f5bbb4568" y="109.576622"/>
      </g>
     </g>
     <g id="text_14">
      <!-- 3.0 -->
      <g transform="translate(363.834957 124.17506)scale(0.1 -0.1)">
       <use xlink:href="#DejaVuSans-51"/>
       <use x="63.623047" xlink:href="#DejaVuSans-46"/>
       <use x="95.410156" xlink:href="#DejaVuSans-48"/>
      </g>
     </g>
    </g>
    <g id="text_15">
     <!-- log_division_depth -->
     <defs>
      <path d="M 18.109375 8.203125 
L 18.109375 -20.796875 
L 9.078125 -20.796875 
L 9.078125 54.6875 
L 18.109375 54.6875 
L 18.109375 46.390625 
Q 20.953125 51.265625 25.265625 53.625 
Q 29.59375 56 35.59375 56 
Q 45.5625 56 51.78125 48.09375 
Q 58.015625 40.1875 58.015625 27.296875 
Q 58.015625 14.40625 51.78125 6.484375 
Q 45.5625 -1.421875 35.59375 -1.421875 
Q 29.59375 -1.421875 25.265625 0.953125 
Q 20.953125 3.328125 18.109375 8.203125 
z
M 48.6875 27.296875 
Q 48.6875 37.203125 44.609375 42.84375 
Q 40.53125 48.484375 33.40625 48.484375 
Q 26.265625 48.484375 22.1875 42.84375 
Q 18.109375 37.203125 18.109375 27.296875 
Q 18.109375 17.390625 22.1875 11.75 
Q 26.265625 6.109375 33.40625 6.109375 
Q 40.53125 6.109375 44.609375 11.75 
Q 48.6875 17.390625 48.6875 27.296875 
z
" id="DejaVuSans-112"/>
      <path d="M 54.890625 33.015625 
L 54.890625 0 
L 45.90625 0 
L 45.90625 32.71875 
Q 45.90625 40.484375 42.875 44.328125 
Q 39.84375 48.1875 33.796875 48.1875 
Q 26.515625 48.1875 22.3125 43.546875 
Q 18.109375 38.921875 18.109375 30.90625 
L 18.109375 0 
L 9.078125 0 
L 9.078125 75.984375 
L 18.109375 75.984375 
L 18.109375 46.1875 
Q 21.34375 51.125 25.703125 53.5625 
Q 30.078125 56 35.796875 56 
Q 45.21875 56 50.046875 50.171875 
Q 54.890625 44.34375 54.890625 33.015625 
z
" id="DejaVuSans-104"/>
     </defs>
     <g transform="translate(258.564844 137.853185)scale(0.1 -0.1)">
      <use xlink:href="#DejaVuSans-108"/>
      <use x="27.783203" xlink:href="#DejaVuSans-111"/>
      <use x="88.964844" xlink:href="#DejaVuSans-103"/>
      <use x="152.441406" xlink:href="#DejaVuSans-95"/>
      <use x="202.441406" xlink:href="#DejaVuSans-100"/>
      <use x="265.917969" xlink:href="#DejaVuSans-105"/>
      <use x="293.701172" xlink:href="#DejaVuSans-118"/>
      <use x="352.880859" xlink:href="#DejaVuSans-105"/>
      <use x="380.664062" xlink:href="#DejaVuSans-115"/>
      <use x="432.763672" xlink:href="#DejaVuSans-105"/>
      <use x="460.546875" xlink:href="#DejaVuSans-111"/>
      <use x="521.728516" xlink:href="#DejaVuSans-110"/>
      <use x="585.107422" xlink:href="#DejaVuSans-95"/>
      <use x="635.107422" xlink:href="#DejaVuSans-100"/>
      <use x="698.583984" xlink:href="#DejaVuSans-101"/>
      <use x="760.107422" xlink:href="#DejaVuSans-112"/>
      <use x="823.583984" xlink:href="#DejaVuSans-116"/>
      <use x="862.792969" xlink:href="#DejaVuSans-104"/>
     </g>
    </g>
   </g>
   <g id="matplotlib.axis_4">
    <g id="ytick_3">
     <g id="line2d_16">
      <g>
       <use style="stroke:#000000;stroke-width:0.8;" x="237.96348" xlink:href="#m354d61cb46" y="105.160608"/>
      </g>
     </g>
     <g id="text_16">
      <!-- 0 -->
      <g transform="translate(224.60098 108.959827)scale(0.1 -0.1)">
       <use xlink:href="#DejaVuSans-48"/>
      </g>
     </g>
    </g>
    <g id="ytick_4">
     <g id="line2d_17">
      <g>
       <use style="stroke:#000000;stroke-width:0.8;" x="237.96348" xlink:href="#m354d61cb46" y="75.0505"/>
      </g>
     </g>
     <g id="text_17">
      <!-- 2 -->
      <g transform="translate(224.60098 78.849719)scale(0.1 -0.1)">
       <use xlink:href="#DejaVuSans-50"/>
      </g>
     </g>
    </g>
    <g id="ytick_5">
     <g id="line2d_18">
      <g>
       <use style="stroke:#000000;stroke-width:0.8;" x="237.96348" xlink:href="#m354d61cb46" y="44.940393"/>
      </g>
     </g>
     <g id="text_18">
      <!-- 4 -->
      <defs>
       <path d="M 37.796875 64.3125 
L 12.890625 25.390625 
L 37.796875 25.390625 
z
M 35.203125 72.90625 
L 47.609375 72.90625 
L 47.609375 25.390625 
L 58.015625 25.390625 
L 58.015625 17.1875 
L 47.609375 17.1875 
L 47.609375 0 
L 37.796875 0 
L 37.796875 17.1875 
L 4.890625 17.1875 
L 4.890625 26.703125 
z
" id="DejaVuSans-52"/>
      </defs>
      <g transform="translate(224.60098 48.739612)scale(0.1 -0.1)">
       <use xlink:href="#DejaVuSans-52"/>
      </g>
     </g>
    </g>
    <g id="ytick_6">
     <g id="line2d_19">
      <g>
       <use style="stroke:#000000;stroke-width:0.8;" x="237.96348" xlink:href="#m354d61cb46" y="14.830285"/>
      </g>
     </g>
     <g id="text_19">
      <!-- 6 -->
      <defs>
       <path d="M 33.015625 40.375 
Q 26.375 40.375 22.484375 35.828125 
Q 18.609375 31.296875 18.609375 23.390625 
Q 18.609375 15.53125 22.484375 10.953125 
Q 26.375 6.390625 33.015625 6.390625 
Q 39.65625 6.390625 43.53125 10.953125 
Q 47.40625 15.53125 47.40625 23.390625 
Q 47.40625 31.296875 43.53125 35.828125 
Q 39.65625 40.375 33.015625 40.375 
z
M 52.59375 71.296875 
L 52.59375 62.3125 
Q 48.875 64.0625 45.09375 64.984375 
Q 41.3125 65.921875 37.59375 65.921875 
Q 27.828125 65.921875 22.671875 59.328125 
Q 17.53125 52.734375 16.796875 39.40625 
Q 19.671875 43.65625 24.015625 45.921875 
Q 28.375 48.1875 33.59375 48.1875 
Q 44.578125 48.1875 50.953125 41.515625 
Q 57.328125 34.859375 57.328125 23.390625 
Q 57.328125 12.15625 50.6875 5.359375 
Q 44.046875 -1.421875 33.015625 -1.421875 
Q 20.359375 -1.421875 13.671875 8.265625 
Q 6.984375 17.96875 6.984375 36.375 
Q 6.984375 53.65625 15.1875 63.9375 
Q 23.390625 74.21875 37.203125 74.21875 
Q 40.921875 74.21875 44.703125 73.484375 
Q 48.484375 72.75 52.59375 71.296875 
z
" id="DejaVuSans-54"/>
      </defs>
      <g transform="translate(224.60098 18.629504)scale(0.1 -0.1)">
       <use xlink:href="#DejaVuSans-54"/>
      </g>
     </g>
    </g>
    <g id="text_20">
     <!-- Posterior -->
     <g transform="translate(218.521293 83.273122)rotate(-90)scale(0.1 -0.1)">
      <use xlink:href="#DejaVuSans-80"/>
      <use x="60.255859" xlink:href="#DejaVuSans-111"/>
      <use x="121.4375" xlink:href="#DejaVuSans-115"/>
      <use x="173.537109" xlink:href="#DejaVuSans-116"/>
      <use x="212.746094" xlink:href="#DejaVuSans-101"/>
      <use x="274.269531" xlink:href="#DejaVuSans-114"/>
      <use x="315.382812" xlink:href="#DejaVuSans-105"/>
      <use x="343.166016" xlink:href="#DejaVuSans-111"/>
      <use x="404.347656" xlink:href="#DejaVuSans-114"/>
     </g>
    </g>
   </g>
   <g id="line2d_20">
    <path clip-path="url(#p38510c0fad)" d="M 237.96348 105.160608 
L 297.813985 105.080688 
L 298.486463 104.943946 
L 299.158941 104.643162 
L 299.831418 104.06179 
L 300.503896 103.060603 
L 301.176373 101.495725 
L 301.848851 99.229324 
L 302.521328 96.134543 
L 303.193806 92.115332 
L 303.866284 87.153455 
L 305.211239 75.006815 
L 306.556194 62.230247 
L 307.901149 51.71307 
L 309.918582 38.083053 
L 311.936015 20.598401 
L 312.608492 17.1216 
L 313.28097 16.840323 
L 313.953447 19.904035 
L 314.625925 25.497173 
L 316.643358 47.44116 
L 319.333268 77.684389 
L 320.005746 83.506406 
L 320.678223 88.229818 
L 322.023178 95.351219 
L 322.695656 98.089572 
L 323.368134 100.227548 
L 324.040611 101.671901 
L 324.713089 102.454325 
L 325.385566 102.751122 
L 327.402999 102.988556 
L 328.747954 103.714361 
L 330.092909 104.554347 
L 331.437865 105.011186 
L 332.78282 105.139772 
L 338.835118 105.160608 
L 371.78652 105.160608 
L 371.78652 105.160608 
" style="fill:none;stroke:#1f77b4;stroke-linecap:square;stroke-width:1.5;"/>
   </g>
   <g id="line2d_21">
    <path clip-path="url(#p38510c0fad)" d="M 304.875 109.576622 
L 304.875 12.424308 
" style="fill:none;stroke:#808080;stroke-dasharray:1.5,2.475;stroke-dashoffset:0;stroke-width:1.5;"/>
   </g>
   <g id="line2d_22">
    <path clip-path="url(#p38510c0fad)" d="M 237.96348 105.160608 
L 290.416732 105.077524 
L 292.434165 104.858069 
L 293.77912 104.52615 
L 295.124075 103.933169 
L 296.46903 102.942452 
L 297.141508 102.245136 
L 297.813985 101.38137 
L 298.486463 100.326358 
L 299.831418 97.549161 
L 301.176373 93.766487 
L 302.521328 88.95569 
L 304.538761 80.324088 
L 306.556194 71.691409 
L 307.901149 67.110865 
L 308.573627 65.367168 
L 309.246104 64.018363 
L 309.918582 63.055484 
L 310.591059 62.449791 
L 311.263537 62.16029 
L 311.936015 62.141638 
L 312.608492 62.350901 
L 313.28097 62.752163 
L 313.953447 63.318704 
L 315.298403 64.885136 
L 316.643358 66.986003 
L 317.988313 69.593114 
L 320.005746 74.268617 
L 323.368134 82.358223 
L 324.713089 84.960344 
L 326.058044 86.960636 
L 327.402999 88.381154 
L 328.747954 89.394359 
L 330.765387 90.771334 
L 332.110342 91.977882 
L 333.455297 93.530162 
L 338.16264 99.512265 
L 339.507596 100.786567 
L 340.852551 101.803929 
L 342.197506 102.56202 
L 343.542461 103.054845 
L 344.887416 103.310138 
L 349.594759 103.785286 
L 354.97458 104.946042 
L 357.66449 105.124468 
L 363.716789 105.160531 
L 371.78652 105.160608 
L 371.78652 105.160608 
" style="fill:none;stroke:#ff7f0e;stroke-linecap:square;stroke-width:1.5;"/>
   </g>
   <g id="patch_6">
    <path d="M 237.96348 109.576622 
L 237.96348 12.424308 
" style="fill:none;stroke:#000000;stroke-linecap:square;stroke-linejoin:miter;stroke-width:0.8;"/>
   </g>
   <g id="patch_7">
    <path d="M 237.96348 109.576622 
L 371.78652 109.576622 
" style="fill:none;stroke:#000000;stroke-linecap:square;stroke-linejoin:miter;stroke-width:0.8;"/>
   </g>
  </g>
  <g id="axes_3">
   <g id="patch_8">
    <path d="M 428.251961 109.576622 
L 562.075 109.576622 
L 562.075 12.424308 
L 428.251961 12.424308 
z
" style="fill:#ffffff;"/>
   </g>
   <g id="matplotlib.axis_5">
    <g id="xtick_11">
     <g id="line2d_23">
      <g>
       <use style="stroke:#000000;stroke-width:0.8;" x="428.251961" xlink:href="#m5f5bbb4568" y="109.576622"/>
      </g>
     </g>
     <g id="text_21">
      <!-- 0.0 -->
      <g transform="translate(420.300398 124.17506)scale(0.1 -0.1)">
       <use xlink:href="#DejaVuSans-48"/>
       <use x="63.623047" xlink:href="#DejaVuSans-46"/>
       <use x="95.410156" xlink:href="#DejaVuSans-48"/>
      </g>
     </g>
    </g>
    <g id="xtick_12">
     <g id="line2d_24">
      <g>
       <use style="stroke:#000000;stroke-width:0.8;" x="484.01156" xlink:href="#m5f5bbb4568" y="109.576622"/>
      </g>
     </g>
     <g id="text_22">
      <!-- 0.5 -->
      <g transform="translate(476.059998 124.17506)scale(0.1 -0.1)">
       <use xlink:href="#DejaVuSans-48"/>
       <use x="63.623047" xlink:href="#DejaVuSans-46"/>
       <use x="95.410156" xlink:href="#DejaVuSans-53"/>
      </g>
     </g>
    </g>
    <g id="xtick_13">
     <g id="line2d_25">
      <g>
       <use style="stroke:#000000;stroke-width:0.8;" x="539.77116" xlink:href="#m5f5bbb4568" y="109.576622"/>
      </g>
     </g>
     <g id="text_23">
      <!-- 1.0 -->
      <g transform="translate(531.819598 124.17506)scale(0.1 -0.1)">
       <use xlink:href="#DejaVuSans-49"/>
       <use x="63.623047" xlink:href="#DejaVuSans-46"/>
       <use x="95.410156" xlink:href="#DejaVuSans-48"/>
      </g>
     </g>
    </g>
    <g id="text_24">
     <!-- log_initial_spheroid_radius -->
     <defs>
      <path d="M 8.5 21.578125 
L 8.5 54.6875 
L 17.484375 54.6875 
L 17.484375 21.921875 
Q 17.484375 14.15625 20.5 10.265625 
Q 23.53125 6.390625 29.59375 6.390625 
Q 36.859375 6.390625 41.078125 11.03125 
Q 45.3125 15.671875 45.3125 23.6875 
L 45.3125 54.6875 
L 54.296875 54.6875 
L 54.296875 0 
L 45.3125 0 
L 45.3125 8.40625 
Q 42.046875 3.421875 37.71875 1 
Q 33.40625 -1.421875 27.6875 -1.421875 
Q 18.265625 -1.421875 13.375 4.4375 
Q 8.5 10.296875 8.5 21.578125 
z
M 31.109375 56 
z
" id="DejaVuSans-117"/>
     </defs>
     <g transform="translate(429.134574 137.853185)scale(0.1 -0.1)">
      <use xlink:href="#DejaVuSans-108"/>
      <use x="27.783203" xlink:href="#DejaVuSans-111"/>
      <use x="88.964844" xlink:href="#DejaVuSans-103"/>
      <use x="152.441406" xlink:href="#DejaVuSans-95"/>
      <use x="202.441406" xlink:href="#DejaVuSans-105"/>
      <use x="230.224609" xlink:href="#DejaVuSans-110"/>
      <use x="293.603516" xlink:href="#DejaVuSans-105"/>
      <use x="321.386719" xlink:href="#DejaVuSans-116"/>
      <use x="360.595703" xlink:href="#DejaVuSans-105"/>
      <use x="388.378906" xlink:href="#DejaVuSans-97"/>
      <use x="449.658203" xlink:href="#DejaVuSans-108"/>
      <use x="477.441406" xlink:href="#DejaVuSans-95"/>
      <use x="527.441406" xlink:href="#DejaVuSans-115"/>
      <use x="579.541016" xlink:href="#DejaVuSans-112"/>
      <use x="643.017578" xlink:href="#DejaVuSans-104"/>
      <use x="706.396484" xlink:href="#DejaVuSans-101"/>
      <use x="767.919922" xlink:href="#DejaVuSans-114"/>
      <use x="809.001953" xlink:href="#DejaVuSans-111"/>
      <use x="870.183594" xlink:href="#DejaVuSans-105"/>
      <use x="897.966797" xlink:href="#DejaVuSans-100"/>
      <use x="961.443359" xlink:href="#DejaVuSans-95"/>
      <use x="1011.443359" xlink:href="#DejaVuSans-114"/>
      <use x="1052.556641" xlink:href="#DejaVuSans-97"/>
      <use x="1113.835938" xlink:href="#DejaVuSans-100"/>
      <use x="1177.3125" xlink:href="#DejaVuSans-105"/>
      <use x="1205.095703" xlink:href="#DejaVuSans-117"/>
      <use x="1268.474609" xlink:href="#DejaVuSans-115"/>
     </g>
    </g>
   </g>
   <g id="matplotlib.axis_6">
    <g id="ytick_7">
     <g id="line2d_26">
      <g>
       <use style="stroke:#000000;stroke-width:0.8;" x="428.251961" xlink:href="#m354d61cb46" y="105.160608"/>
      </g>
     </g>
     <g id="text_25">
      <!-- 0 -->
      <g transform="translate(414.889461 108.959827)scale(0.1 -0.1)">
       <use xlink:href="#DejaVuSans-48"/>
      </g>
     </g>
    </g>
    <g id="ytick_8">
     <g id="line2d_27">
      <g>
       <use style="stroke:#000000;stroke-width:0.8;" x="428.251961" xlink:href="#m354d61cb46" y="76.240472"/>
      </g>
     </g>
     <g id="text_26">
      <!-- 2 -->
      <g transform="translate(414.889461 80.03969)scale(0.1 -0.1)">
       <use xlink:href="#DejaVuSans-50"/>
      </g>
     </g>
    </g>
    <g id="ytick_9">
     <g id="line2d_28">
      <g>
       <use style="stroke:#000000;stroke-width:0.8;" x="428.251961" xlink:href="#m354d61cb46" y="47.320335"/>
      </g>
     </g>
     <g id="text_27">
      <!-- 4 -->
      <g transform="translate(414.889461 51.119554)scale(0.1 -0.1)">
       <use xlink:href="#DejaVuSans-52"/>
      </g>
     </g>
    </g>
    <g id="ytick_10">
     <g id="line2d_29">
      <g>
       <use style="stroke:#000000;stroke-width:0.8;" x="428.251961" xlink:href="#m354d61cb46" y="18.400199"/>
      </g>
     </g>
     <g id="text_28">
      <!-- 6 -->
      <g transform="translate(414.889461 22.199418)scale(0.1 -0.1)">
       <use xlink:href="#DejaVuSans-54"/>
      </g>
     </g>
    </g>
    <g id="text_29">
     <!-- Posterior -->
     <g transform="translate(408.809773 83.273122)rotate(-90)scale(0.1 -0.1)">
      <use xlink:href="#DejaVuSans-80"/>
      <use x="60.255859" xlink:href="#DejaVuSans-111"/>
      <use x="121.4375" xlink:href="#DejaVuSans-115"/>
      <use x="173.537109" xlink:href="#DejaVuSans-116"/>
      <use x="212.746094" xlink:href="#DejaVuSans-101"/>
      <use x="274.269531" xlink:href="#DejaVuSans-114"/>
      <use x="315.382812" xlink:href="#DejaVuSans-105"/>
      <use x="343.166016" xlink:href="#DejaVuSans-111"/>
      <use x="404.347656" xlink:href="#DejaVuSans-114"/>
     </g>
    </g>
   </g>
   <g id="line2d_30">
    <path clip-path="url(#p12002a3819)" d="M 428.251961 105.160608 
L 503.56945 105.09856 
L 505.586883 104.850133 
L 506.931838 104.449095 
L 508.276793 103.797181 
L 510.294226 102.456079 
L 512.311659 100.883838 
L 512.984136 100.227594 
L 513.656614 99.409263 
L 514.329092 98.351299 
L 515.001569 96.980286 
L 515.674047 95.239948 
L 516.346524 93.098368 
L 517.691479 87.591639 
L 519.036435 80.508454 
L 520.38139 71.889659 
L 521.726345 61.814268 
L 526.433688 24.001891 
L 527.106166 20.50697 
L 527.778643 18.120999 
L 528.451121 16.920966 
L 529.123598 16.840323 
L 529.796076 17.670686 
L 530.468554 19.108656 
L 533.158464 26.113682 
L 533.830941 28.097677 
L 534.503419 30.562461 
L 535.175897 33.735983 
L 535.848374 37.745166 
L 537.193329 48.090802 
L 540.555717 76.842488 
L 541.900672 85.096682 
L 542.57315 88.140988 
L 543.245628 90.448368 
L 543.918105 92.058634 
L 544.590583 93.066862 
L 545.26306 93.627062 
L 547.280493 94.644644 
L 547.952971 95.344881 
L 548.625448 96.348833 
L 549.970403 98.995527 
L 551.315359 101.663699 
L 551.987836 102.735814 
L 552.660314 103.570848 
L 553.332791 104.175445 
L 554.005269 104.583665 
L 555.350224 104.993624 
L 557.367657 105.143583 
L 562.075 105.160597 
L 562.075 105.160597 
" style="fill:none;stroke:#1f77b4;stroke-linecap:square;stroke-width:1.5;"/>
   </g>
   <g id="line2d_31">
    <path clip-path="url(#p12002a3819)" d="M 548.601389 109.576622 
L 548.601389 12.424308 
" style="fill:none;stroke:#808080;stroke-dasharray:1.5,2.475;stroke-dashoffset:0;stroke-width:1.5;"/>
   </g>
   <g id="line2d_32">
    <path clip-path="url(#p12002a3819)" d="M 428.251961 105.160608 
L 489.447421 105.071212 
L 491.464854 104.832092 
L 492.809809 104.469782 
L 494.154764 103.843145 
L 495.499719 102.876877 
L 496.844674 101.550715 
L 498.862107 99.060955 
L 501.552017 95.70349 
L 502.896973 94.335524 
L 505.586883 92.091675 
L 506.931838 90.883697 
L 508.276793 89.39787 
L 509.621748 87.567131 
L 511.639181 84.261994 
L 514.329092 79.225167 
L 516.346524 74.950216 
L 517.691479 71.668677 
L 519.708912 65.95954 
L 523.0713 55.86219 
L 524.416255 52.738387 
L 525.088733 51.587351 
L 525.76121 50.763216 
L 526.433688 50.289913 
L 527.106166 50.176343 
L 527.778643 50.41566 
L 528.451121 50.985725 
L 529.123598 51.850694 
L 530.468554 54.269453 
L 535.175897 64.220632 
L 536.520852 66.302518 
L 539.88324 70.919319 
L 541.228195 73.425643 
L 542.57315 76.636225 
L 544.590583 82.491862 
L 547.280493 90.39037 
L 548.625448 93.647512 
L 549.970403 96.279017 
L 551.315359 98.340942 
L 552.660314 99.95109 
L 554.005269 101.225965 
L 555.350224 102.250472 
L 556.695179 103.075558 
L 558.712612 103.997044 
L 560.730045 104.590454 
L 562.075 104.8358 
L 562.075 104.8358 
" style="fill:none;stroke:#ff7f0e;stroke-linecap:square;stroke-width:1.5;"/>
   </g>
   <g id="patch_9">
    <path d="M 428.251961 109.576622 
L 428.251961 12.424308 
" style="fill:none;stroke:#000000;stroke-linecap:square;stroke-linejoin:miter;stroke-width:0.8;"/>
   </g>
   <g id="patch_10">
    <path d="M 428.251961 109.576622 
L 562.075 109.576622 
" style="fill:none;stroke:#000000;stroke-linecap:square;stroke-linejoin:miter;stroke-width:0.8;"/>
   </g>
  </g>
  <g id="axes_4">
   <g id="patch_11">
    <path d="M 47.675 249.435186 
L 181.498039 249.435186 
L 181.498039 152.282872 
L 47.675 152.282872 
z
" style="fill:#ffffff;"/>
   </g>
   <g id="matplotlib.axis_7">
    <g id="xtick_14">
     <g id="line2d_33">
      <g>
       <use style="stroke:#000000;stroke-width:0.8;" x="74.439608" xlink:href="#m5f5bbb4568" y="249.435186"/>
      </g>
     </g>
     <g id="text_30">
      <!-- −4 -->
      <g transform="translate(67.068514 264.033624)scale(0.1 -0.1)">
       <use xlink:href="#DejaVuSans-8722"/>
       <use x="83.789062" xlink:href="#DejaVuSans-52"/>
      </g>
     </g>
    </g>
    <g id="xtick_15">
     <g id="line2d_34">
      <g>
       <use style="stroke:#000000;stroke-width:0.8;" x="127.968824" xlink:href="#m5f5bbb4568" y="249.435186"/>
      </g>
     </g>
     <g id="text_31">
      <!-- −2 -->
      <g transform="translate(120.59773 264.033624)scale(0.1 -0.1)">
       <use xlink:href="#DejaVuSans-8722"/>
       <use x="83.789062" xlink:href="#DejaVuSans-50"/>
      </g>
     </g>
    </g>
    <g id="xtick_16">
     <g id="line2d_35">
      <g>
       <use style="stroke:#000000;stroke-width:0.8;" x="181.498039" xlink:href="#m5f5bbb4568" y="249.435186"/>
      </g>
     </g>
     <g id="text_32">
      <!-- 0 -->
      <g transform="translate(178.316789 264.033624)scale(0.1 -0.1)">
       <use xlink:href="#DejaVuSans-48"/>
      </g>
     </g>
    </g>
    <g id="text_33">
     <!-- log_initial_quiescent_cell_fraction -->
     <defs>
      <path d="M 14.796875 27.296875 
Q 14.796875 17.390625 18.875 11.75 
Q 22.953125 6.109375 30.078125 6.109375 
Q 37.203125 6.109375 41.296875 11.75 
Q 45.40625 17.390625 45.40625 27.296875 
Q 45.40625 37.203125 41.296875 42.84375 
Q 37.203125 48.484375 30.078125 48.484375 
Q 22.953125 48.484375 18.875 42.84375 
Q 14.796875 37.203125 14.796875 27.296875 
z
M 45.40625 8.203125 
Q 42.578125 3.328125 38.25 0.953125 
Q 33.9375 -1.421875 27.875 -1.421875 
Q 17.96875 -1.421875 11.734375 6.484375 
Q 5.515625 14.40625 5.515625 27.296875 
Q 5.515625 40.1875 11.734375 48.09375 
Q 17.96875 56 27.875 56 
Q 33.9375 56 38.25 53.625 
Q 42.578125 51.265625 45.40625 46.390625 
L 45.40625 54.6875 
L 54.390625 54.6875 
L 54.390625 -20.796875 
L 45.40625 -20.796875 
z
" id="DejaVuSans-113"/>
      <path d="M 48.78125 52.59375 
L 48.78125 44.1875 
Q 44.96875 46.296875 41.140625 47.34375 
Q 37.3125 48.390625 33.40625 48.390625 
Q 24.65625 48.390625 19.8125 42.84375 
Q 14.984375 37.3125 14.984375 27.296875 
Q 14.984375 17.28125 19.8125 11.734375 
Q 24.65625 6.203125 33.40625 6.203125 
Q 37.3125 6.203125 41.140625 7.25 
Q 44.96875 8.296875 48.78125 10.40625 
L 48.78125 2.09375 
Q 45.015625 0.34375 40.984375 -0.53125 
Q 36.96875 -1.421875 32.421875 -1.421875 
Q 20.0625 -1.421875 12.78125 6.34375 
Q 5.515625 14.109375 5.515625 27.296875 
Q 5.515625 40.671875 12.859375 48.328125 
Q 20.21875 56 33.015625 56 
Q 37.15625 56 41.109375 55.140625 
Q 45.0625 54.296875 48.78125 52.59375 
z
" id="DejaVuSans-99"/>
      <path d="M 37.109375 75.984375 
L 37.109375 68.5 
L 28.515625 68.5 
Q 23.6875 68.5 21.796875 66.546875 
Q 19.921875 64.59375 19.921875 59.515625 
L 19.921875 54.6875 
L 34.71875 54.6875 
L 34.71875 47.703125 
L 19.921875 47.703125 
L 19.921875 0 
L 10.890625 0 
L 10.890625 47.703125 
L 2.296875 47.703125 
L 2.296875 54.6875 
L 10.890625 54.6875 
L 10.890625 58.5 
Q 10.890625 67.625 15.140625 71.796875 
Q 19.390625 75.984375 28.609375 75.984375 
z
" id="DejaVuSans-102"/>
     </defs>
     <g transform="translate(31.03652 277.711749)scale(0.1 -0.1)">
      <use xlink:href="#DejaVuSans-108"/>
      <use x="27.783203" xlink:href="#DejaVuSans-111"/>
      <use x="88.964844" xlink:href="#DejaVuSans-103"/>
      <use x="152.441406" xlink:href="#DejaVuSans-95"/>
      <use x="202.441406" xlink:href="#DejaVuSans-105"/>
      <use x="230.224609" xlink:href="#DejaVuSans-110"/>
      <use x="293.603516" xlink:href="#DejaVuSans-105"/>
      <use x="321.386719" xlink:href="#DejaVuSans-116"/>
      <use x="360.595703" xlink:href="#DejaVuSans-105"/>
      <use x="388.378906" xlink:href="#DejaVuSans-97"/>
      <use x="449.658203" xlink:href="#DejaVuSans-108"/>
      <use x="477.441406" xlink:href="#DejaVuSans-95"/>
      <use x="527.441406" xlink:href="#DejaVuSans-113"/>
      <use x="590.917969" xlink:href="#DejaVuSans-117"/>
      <use x="654.296875" xlink:href="#DejaVuSans-105"/>
      <use x="682.080078" xlink:href="#DejaVuSans-101"/>
      <use x="743.603516" xlink:href="#DejaVuSans-115"/>
      <use x="795.703125" xlink:href="#DejaVuSans-99"/>
      <use x="850.683594" xlink:href="#DejaVuSans-101"/>
      <use x="912.207031" xlink:href="#DejaVuSans-110"/>
      <use x="975.585938" xlink:href="#DejaVuSans-116"/>
      <use x="1014.794922" xlink:href="#DejaVuSans-95"/>
      <use x="1064.794922" xlink:href="#DejaVuSans-99"/>
      <use x="1119.775391" xlink:href="#DejaVuSans-101"/>
      <use x="1181.298828" xlink:href="#DejaVuSans-108"/>
      <use x="1209.082031" xlink:href="#DejaVuSans-108"/>
      <use x="1236.865234" xlink:href="#DejaVuSans-95"/>
      <use x="1286.865234" xlink:href="#DejaVuSans-102"/>
      <use x="1322.070312" xlink:href="#DejaVuSans-114"/>
      <use x="1363.183594" xlink:href="#DejaVuSans-97"/>
      <use x="1424.462891" xlink:href="#DejaVuSans-99"/>
      <use x="1479.443359" xlink:href="#DejaVuSans-116"/>
      <use x="1518.652344" xlink:href="#DejaVuSans-105"/>
      <use x="1546.435547" xlink:href="#DejaVuSans-111"/>
      <use x="1607.617188" xlink:href="#DejaVuSans-110"/>
     </g>
    </g>
   </g>
   <g id="matplotlib.axis_8">
    <g id="ytick_11">
     <g id="line2d_36">
      <g>
       <use style="stroke:#000000;stroke-width:0.8;" x="47.675" xlink:href="#m354d61cb46" y="249.435186"/>
      </g>
     </g>
     <g id="text_34">
      <!-- 0.0 -->
      <g transform="translate(24.771875 253.234405)scale(0.1 -0.1)">
       <use xlink:href="#DejaVuSans-48"/>
       <use x="63.623047" xlink:href="#DejaVuSans-46"/>
       <use x="95.410156" xlink:href="#DejaVuSans-48"/>
      </g>
     </g>
    </g>
    <g id="ytick_12">
     <g id="line2d_37">
      <g>
       <use style="stroke:#000000;stroke-width:0.8;" x="47.675" xlink:href="#m354d61cb46" y="211.370715"/>
      </g>
     </g>
     <g id="text_35">
      <!-- 0.1 -->
      <g transform="translate(24.771875 215.169933)scale(0.1 -0.1)">
       <use xlink:href="#DejaVuSans-48"/>
       <use x="63.623047" xlink:href="#DejaVuSans-46"/>
       <use x="95.410156" xlink:href="#DejaVuSans-49"/>
      </g>
     </g>
    </g>
    <g id="ytick_13">
     <g id="line2d_38">
      <g>
       <use style="stroke:#000000;stroke-width:0.8;" x="47.675" xlink:href="#m354d61cb46" y="173.306243"/>
      </g>
     </g>
     <g id="text_36">
      <!-- 0.2 -->
      <g transform="translate(24.771875 177.105462)scale(0.1 -0.1)">
       <use xlink:href="#DejaVuSans-48"/>
       <use x="63.623047" xlink:href="#DejaVuSans-46"/>
       <use x="95.410156" xlink:href="#DejaVuSans-50"/>
      </g>
     </g>
    </g>
    <g id="text_37">
     <!-- Posterior -->
     <g transform="translate(18.692187 223.131685)rotate(-90)scale(0.1 -0.1)">
      <use xlink:href="#DejaVuSans-80"/>
      <use x="60.255859" xlink:href="#DejaVuSans-111"/>
      <use x="121.4375" xlink:href="#DejaVuSans-115"/>
      <use x="173.537109" xlink:href="#DejaVuSans-116"/>
      <use x="212.746094" xlink:href="#DejaVuSans-101"/>
      <use x="274.269531" xlink:href="#DejaVuSans-114"/>
      <use x="315.382812" xlink:href="#DejaVuSans-105"/>
      <use x="343.166016" xlink:href="#DejaVuSans-111"/>
      <use x="404.347656" xlink:href="#DejaVuSans-114"/>
     </g>
    </g>
   </g>
   <g id="line2d_39">
    <path clip-path="url(#pb9138c6115)" d="M 47.675 212.94797 
L 53.054821 201.621967 
L 55.744731 196.468537 
L 57.762164 192.996308 
L 59.779597 189.935888 
L 61.797029 187.333911 
L 63.814462 185.214442 
L 65.159417 184.070461 
L 66.504372 183.135272 
L 67.849328 182.398106 
L 69.194283 181.843813 
L 71.211715 181.312558 
L 73.229148 181.071047 
L 75.919059 181.043767 
L 81.298879 181.163804 
L 83.316312 181.010876 
L 85.333745 180.651821 
L 87.351177 180.051429 
L 89.36861 179.196354 
L 91.386043 178.094297 
L 93.403476 176.771377 
L 96.093386 174.735155 
L 100.128252 171.342199 
L 106.18055 166.252598 
L 109.542938 163.701243 
L 112.905326 161.417894 
L 116.267714 159.413663 
L 118.957624 158.032499 
L 121.647534 156.896983 
L 123.664967 156.250905 
L 125.6824 155.824327 
L 127.699832 155.657953 
L 129.717265 155.787665 
L 131.734698 156.238248 
L 133.752131 157.018104 
L 135.769564 158.116018 
L 137.786996 159.500738 
L 140.476907 161.707419 
L 143.839295 164.839606 
L 156.616369 177.375339 
L 159.306279 180.351755 
L 161.323712 182.858699 
L 163.341144 185.671755 
L 165.358577 188.83513 
L 167.37601 192.367248 
L 170.06592 197.625916 
L 172.755831 203.405042 
L 178.135651 215.701499 
L 181.498039 223.159574 
L 181.498039 223.159574 
" style="fill:none;stroke:#1f77b4;stroke-linecap:square;stroke-width:1.5;"/>
   </g>
   <g id="line2d_40">
    <path clip-path="url(#pb9138c6115)" d="M 178.154103 249.435186 
L 178.154103 152.282872 
" style="fill:none;stroke:#808080;stroke-dasharray:1.5,2.475;stroke-dashoffset:0;stroke-width:1.5;"/>
   </g>
   <g id="line2d_41">
    <path clip-path="url(#pb9138c6115)" d="M 47.675 218.483314 
L 54.399776 203.437603 
L 57.762164 196.219271 
L 60.452074 190.88566 
L 63.141984 186.069129 
L 65.159417 182.840675 
L 67.17685 179.958528 
L 69.194283 177.423311 
L 71.211715 175.222033 
L 73.229148 173.328799 
L 75.246581 171.706468 
L 77.936491 169.885464 
L 80.626402 168.347728 
L 84.661267 166.342826 
L 90.041088 163.935974 
L 94.075953 162.370756 
L 96.765864 161.542795 
L 99.455774 160.952235 
L 102.145684 160.628282 
L 104.835595 160.568619 
L 107.525505 160.745135 
L 110.887893 161.237275 
L 114.250281 161.96948 
L 117.612669 162.908409 
L 121.647534 164.292133 
L 127.027355 166.444978 
L 131.06222 167.98637 
L 133.752131 168.772102 
L 135.769564 169.155294 
L 137.786996 169.328036 
L 139.804429 169.285177 
L 142.494339 168.941565 
L 148.546638 167.909579 
L 149.891593 167.881586 
L 151.236548 168.019319 
L 152.581503 168.364842 
L 153.926458 168.956569 
L 155.271413 169.827427 
L 156.616369 171.003265 
L 157.961324 172.50159 
L 159.306279 174.330713 
L 160.651234 176.489334 
L 161.996189 178.96659 
L 164.013622 183.23398 
L 166.031055 188.070678 
L 168.720965 195.172647 
L 178.135651 220.853187 
L 180.153084 225.618902 
L 181.498039 228.540241 
L 181.498039 228.540241 
" style="fill:none;stroke:#ff7f0e;stroke-linecap:square;stroke-width:1.5;"/>
   </g>
   <g id="patch_12">
    <path d="M 47.675 249.435186 
L 47.675 152.282872 
" style="fill:none;stroke:#000000;stroke-linecap:square;stroke-linejoin:miter;stroke-width:0.8;"/>
   </g>
   <g id="patch_13">
    <path d="M 47.675 249.435186 
L 181.498039 249.435186 
" style="fill:none;stroke:#000000;stroke-linecap:square;stroke-linejoin:miter;stroke-width:0.8;"/>
   </g>
  </g>
  <g id="axes_5">
   <g id="patch_14">
    <path d="M 237.96348 249.435186 
L 371.78652 249.435186 
L 371.78652 152.282872 
L 237.96348 152.282872 
z
" style="fill:#ffffff;"/>
   </g>
   <g id="matplotlib.axis_9">
    <g id="xtick_17">
     <g id="line2d_42">
      <g>
       <use style="stroke:#000000;stroke-width:0.8;" x="264.728088" xlink:href="#m5f5bbb4568" y="249.435186"/>
      </g>
     </g>
     <g id="text_38">
      <!-- −4 -->
      <g transform="translate(257.356994 264.033624)scale(0.1 -0.1)">
       <use xlink:href="#DejaVuSans-8722"/>
       <use x="83.789062" xlink:href="#DejaVuSans-52"/>
      </g>
     </g>
    </g>
    <g id="xtick_18">
     <g id="line2d_43">
      <g>
       <use style="stroke:#000000;stroke-width:0.8;" x="318.257304" xlink:href="#m5f5bbb4568" y="249.435186"/>
      </g>
     </g>
     <g id="text_39">
      <!-- −2 -->
      <g transform="translate(310.88621 264.033624)scale(0.1 -0.1)">
       <use xlink:href="#DejaVuSans-8722"/>
       <use x="83.789062" xlink:href="#DejaVuSans-50"/>
      </g>
     </g>
    </g>
    <g id="xtick_19">
     <g id="line2d_44">
      <g>
       <use style="stroke:#000000;stroke-width:0.8;" x="371.78652" xlink:href="#m5f5bbb4568" y="249.435186"/>
      </g>
     </g>
     <g id="text_40">
      <!-- 0 -->
      <g transform="translate(368.60527 264.033624)scale(0.1 -0.1)">
       <use xlink:href="#DejaVuSans-48"/>
      </g>
     </g>
    </g>
    <g id="text_41">
     <!-- log_ecm_production_rate -->
     <defs>
      <path d="M 52 44.1875 
Q 55.375 50.25 60.0625 53.125 
Q 64.75 56 71.09375 56 
Q 79.640625 56 84.28125 50.015625 
Q 88.921875 44.046875 88.921875 33.015625 
L 88.921875 0 
L 79.890625 0 
L 79.890625 32.71875 
Q 79.890625 40.578125 77.09375 44.375 
Q 74.3125 48.1875 68.609375 48.1875 
Q 61.625 48.1875 57.5625 43.546875 
Q 53.515625 38.921875 53.515625 30.90625 
L 53.515625 0 
L 44.484375 0 
L 44.484375 32.71875 
Q 44.484375 40.625 41.703125 44.40625 
Q 38.921875 48.1875 33.109375 48.1875 
Q 26.21875 48.1875 22.15625 43.53125 
Q 18.109375 38.875 18.109375 30.90625 
L 18.109375 0 
L 9.078125 0 
L 9.078125 54.6875 
L 18.109375 54.6875 
L 18.109375 46.1875 
Q 21.1875 51.21875 25.484375 53.609375 
Q 29.78125 56 35.6875 56 
Q 41.65625 56 45.828125 52.96875 
Q 50 49.953125 52 44.1875 
z
" id="DejaVuSans-109"/>
     </defs>
     <g transform="translate(241.942969 277.711749)scale(0.1 -0.1)">
      <use xlink:href="#DejaVuSans-108"/>
      <use x="27.783203" xlink:href="#DejaVuSans-111"/>
      <use x="88.964844" xlink:href="#DejaVuSans-103"/>
      <use x="152.441406" xlink:href="#DejaVuSans-95"/>
      <use x="202.441406" xlink:href="#DejaVuSans-101"/>
      <use x="263.964844" xlink:href="#DejaVuSans-99"/>
      <use x="318.945312" xlink:href="#DejaVuSans-109"/>
      <use x="416.357422" xlink:href="#DejaVuSans-95"/>
      <use x="466.357422" xlink:href="#DejaVuSans-112"/>
      <use x="529.833984" xlink:href="#DejaVuSans-114"/>
      <use x="570.916016" xlink:href="#DejaVuSans-111"/>
      <use x="632.097656" xlink:href="#DejaVuSans-100"/>
      <use x="695.574219" xlink:href="#DejaVuSans-117"/>
      <use x="758.953125" xlink:href="#DejaVuSans-99"/>
      <use x="813.933594" xlink:href="#DejaVuSans-116"/>
      <use x="853.142578" xlink:href="#DejaVuSans-105"/>
      <use x="880.925781" xlink:href="#DejaVuSans-111"/>
      <use x="942.107422" xlink:href="#DejaVuSans-110"/>
      <use x="1005.486328" xlink:href="#DejaVuSans-95"/>
      <use x="1055.486328" xlink:href="#DejaVuSans-114"/>
      <use x="1096.599609" xlink:href="#DejaVuSans-97"/>
      <use x="1157.878906" xlink:href="#DejaVuSans-116"/>
      <use x="1197.087891" xlink:href="#DejaVuSans-101"/>
     </g>
    </g>
   </g>
   <g id="matplotlib.axis_10">
    <g id="ytick_14">
     <g id="line2d_45">
      <g>
       <use style="stroke:#000000;stroke-width:0.8;" x="237.96348" xlink:href="#m354d61cb46" y="245.019172"/>
      </g>
     </g>
     <g id="text_42">
      <!-- 0 -->
      <g transform="translate(224.60098 248.818391)scale(0.1 -0.1)">
       <use xlink:href="#DejaVuSans-48"/>
      </g>
     </g>
    </g>
    <g id="ytick_15">
     <g id="line2d_46">
      <g>
       <use style="stroke:#000000;stroke-width:0.8;" x="237.96348" xlink:href="#m354d61cb46" y="207.332618"/>
      </g>
     </g>
     <g id="text_43">
      <!-- 2 -->
      <g transform="translate(224.60098 211.131837)scale(0.1 -0.1)">
       <use xlink:href="#DejaVuSans-50"/>
      </g>
     </g>
    </g>
    <g id="ytick_16">
     <g id="line2d_47">
      <g>
       <use style="stroke:#000000;stroke-width:0.8;" x="237.96348" xlink:href="#m354d61cb46" y="169.646065"/>
      </g>
     </g>
     <g id="text_44">
      <!-- 4 -->
      <g transform="translate(224.60098 173.445284)scale(0.1 -0.1)">
       <use xlink:href="#DejaVuSans-52"/>
      </g>
     </g>
    </g>
    <g id="text_45">
     <!-- Posterior -->
     <g transform="translate(218.521293 223.131685)rotate(-90)scale(0.1 -0.1)">
      <use xlink:href="#DejaVuSans-80"/>
      <use x="60.255859" xlink:href="#DejaVuSans-111"/>
      <use x="121.4375" xlink:href="#DejaVuSans-115"/>
      <use x="173.537109" xlink:href="#DejaVuSans-116"/>
      <use x="212.746094" xlink:href="#DejaVuSans-101"/>
      <use x="274.269531" xlink:href="#DejaVuSans-114"/>
      <use x="315.382812" xlink:href="#DejaVuSans-105"/>
      <use x="343.166016" xlink:href="#DejaVuSans-111"/>
      <use x="404.347656" xlink:href="#DejaVuSans-114"/>
     </g>
    </g>
   </g>
   <g id="line2d_48">
    <path clip-path="url(#pa719782b3d)" d="M 237.96348 245.019172 
L 306.556194 244.987526 
L 307.228672 244.607678 
L 307.901149 242.116785 
L 308.573627 233.412034 
L 309.918582 198.585227 
L 310.591059 187.510597 
L 311.936015 181.697856 
L 312.608492 174.269827 
L 313.28097 163.880767 
L 313.953447 156.698887 
L 314.625925 162.333966 
L 317.315835 231.939323 
L 317.988313 240.152636 
L 318.66079 243.598469 
L 319.333268 244.73046 
L 320.005746 244.98495 
L 322.695656 245.019172 
L 371.78652 245.019172 
L 371.78652 245.019172 
" style="fill:none;stroke:#1f77b4;stroke-linecap:square;stroke-width:1.5;"/>
   </g>
   <g id="line2d_49">
    <path clip-path="url(#pa719782b3d)" d="M 310.200354 249.435186 
L 310.200354 152.282872 
" style="fill:none;stroke:#808080;stroke-dasharray:1.5,2.475;stroke-dashoffset:0;stroke-width:1.5;"/>
   </g>
   <g id="line2d_50">
    <path clip-path="url(#pa719782b3d)" d="M 237.96348 245.019172 
L 304.538761 245.009373 
L 305.211239 244.891804 
L 305.883716 244.034343 
L 306.556194 240.294172 
L 307.228672 229.968641 
L 307.901149 210.4701 
L 309.246104 161.311887 
L 309.918582 151.319918 
L 310.591059 155.703405 
L 312.608492 195.005366 
L 313.28097 202.552682 
L 314.625925 219.290355 
L 315.298403 223.127524 
L 315.97088 223.865191 
L 316.643358 226.260702 
L 317.988313 240.39495 
L 318.66079 243.992455 
L 319.333268 244.89355 
L 320.678223 245.018875 
L 371.78652 245.019172 
L 371.78652 245.019172 
" style="fill:none;stroke:#ff7f0e;stroke-linecap:square;stroke-width:1.5;"/>
   </g>
   <g id="patch_15">
    <path d="M 237.96348 249.435186 
L 237.96348 152.282872 
" style="fill:none;stroke:#000000;stroke-linecap:square;stroke-linejoin:miter;stroke-width:0.8;"/>
   </g>
   <g id="patch_16">
    <path d="M 237.96348 249.435186 
L 371.78652 249.435186 
" style="fill:none;stroke:#000000;stroke-linecap:square;stroke-linejoin:miter;stroke-width:0.8;"/>
   </g>
  </g>
  <g id="axes_6">
   <g id="patch_17">
    <path d="M 428.251961 249.435186 
L 562.075 249.435186 
L 562.075 152.282872 
L 428.251961 152.282872 
z
" style="fill:#ffffff;"/>
   </g>
   <g id="matplotlib.axis_11">
    <g id="xtick_20">
     <g id="line2d_51">
      <g>
       <use style="stroke:#000000;stroke-width:0.8;" x="455.016569" xlink:href="#m5f5bbb4568" y="249.435186"/>
      </g>
     </g>
     <g id="text_46">
      <!-- −4 -->
      <g transform="translate(447.645475 264.033624)scale(0.1 -0.1)">
       <use xlink:href="#DejaVuSans-8722"/>
       <use x="83.789062" xlink:href="#DejaVuSans-52"/>
      </g>
     </g>
    </g>
    <g id="xtick_21">
     <g id="line2d_52">
      <g>
       <use style="stroke:#000000;stroke-width:0.8;" x="508.545784" xlink:href="#m5f5bbb4568" y="249.435186"/>
      </g>
     </g>
     <g id="text_47">
      <!-- −2 -->
      <g transform="translate(501.174691 264.033624)scale(0.1 -0.1)">
       <use xlink:href="#DejaVuSans-8722"/>
       <use x="83.789062" xlink:href="#DejaVuSans-50"/>
      </g>
     </g>
    </g>
    <g id="xtick_22">
     <g id="line2d_53">
      <g>
       <use style="stroke:#000000;stroke-width:0.8;" x="562.075" xlink:href="#m5f5bbb4568" y="249.435186"/>
      </g>
     </g>
     <g id="text_48">
      <!-- 0 -->
      <g transform="translate(558.89375 264.033624)scale(0.1 -0.1)">
       <use xlink:href="#DejaVuSans-48"/>
      </g>
     </g>
    </g>
    <g id="text_49">
     <!-- log_ecm_degradation_rate -->
     <g transform="translate(428.828324 277.711749)scale(0.1 -0.1)">
      <use xlink:href="#DejaVuSans-108"/>
      <use x="27.783203" xlink:href="#DejaVuSans-111"/>
      <use x="88.964844" xlink:href="#DejaVuSans-103"/>
      <use x="152.441406" xlink:href="#DejaVuSans-95"/>
      <use x="202.441406" xlink:href="#DejaVuSans-101"/>
      <use x="263.964844" xlink:href="#DejaVuSans-99"/>
      <use x="318.945312" xlink:href="#DejaVuSans-109"/>
      <use x="416.357422" xlink:href="#DejaVuSans-95"/>
      <use x="466.357422" xlink:href="#DejaVuSans-100"/>
      <use x="529.833984" xlink:href="#DejaVuSans-101"/>
      <use x="591.357422" xlink:href="#DejaVuSans-103"/>
      <use x="654.833984" xlink:href="#DejaVuSans-114"/>
      <use x="695.947266" xlink:href="#DejaVuSans-97"/>
      <use x="757.226562" xlink:href="#DejaVuSans-100"/>
      <use x="820.703125" xlink:href="#DejaVuSans-97"/>
      <use x="881.982422" xlink:href="#DejaVuSans-116"/>
      <use x="921.191406" xlink:href="#DejaVuSans-105"/>
      <use x="948.974609" xlink:href="#DejaVuSans-111"/>
      <use x="1010.15625" xlink:href="#DejaVuSans-110"/>
      <use x="1073.535156" xlink:href="#DejaVuSans-95"/>
      <use x="1123.535156" xlink:href="#DejaVuSans-114"/>
      <use x="1164.648438" xlink:href="#DejaVuSans-97"/>
      <use x="1225.927734" xlink:href="#DejaVuSans-116"/>
      <use x="1265.136719" xlink:href="#DejaVuSans-101"/>
     </g>
    </g>
   </g>
   <g id="matplotlib.axis_12">
    <g id="ytick_17">
     <g id="line2d_54">
      <g>
       <use style="stroke:#000000;stroke-width:0.8;" x="428.251961" xlink:href="#m354d61cb46" y="245.019172"/>
      </g>
     </g>
     <g id="text_50">
      <!-- 0.0 -->
      <g transform="translate(405.348836 248.818391)scale(0.1 -0.1)">
       <use xlink:href="#DejaVuSans-48"/>
       <use x="63.623047" xlink:href="#DejaVuSans-46"/>
       <use x="95.410156" xlink:href="#DejaVuSans-48"/>
      </g>
     </g>
    </g>
    <g id="ytick_18">
     <g id="line2d_55">
      <g>
       <use style="stroke:#000000;stroke-width:0.8;" x="428.251961" xlink:href="#m354d61cb46" y="212.403112"/>
      </g>
     </g>
     <g id="text_51">
      <!-- 0.5 -->
      <g transform="translate(405.348836 216.202331)scale(0.1 -0.1)">
       <use xlink:href="#DejaVuSans-48"/>
       <use x="63.623047" xlink:href="#DejaVuSans-46"/>
       <use x="95.410156" xlink:href="#DejaVuSans-53"/>
      </g>
     </g>
    </g>
    <g id="ytick_19">
     <g id="line2d_56">
      <g>
       <use style="stroke:#000000;stroke-width:0.8;" x="428.251961" xlink:href="#m354d61cb46" y="179.787052"/>
      </g>
     </g>
     <g id="text_52">
      <!-- 1.0 -->
      <g transform="translate(405.348836 183.586271)scale(0.1 -0.1)">
       <use xlink:href="#DejaVuSans-49"/>
       <use x="63.623047" xlink:href="#DejaVuSans-46"/>
       <use x="95.410156" xlink:href="#DejaVuSans-48"/>
      </g>
     </g>
    </g>
    <g id="text_53">
     <!-- Posterior -->
     <g transform="translate(399.269148 223.131685)rotate(-90)scale(0.1 -0.1)">
      <use xlink:href="#DejaVuSans-80"/>
      <use x="60.255859" xlink:href="#DejaVuSans-111"/>
      <use x="121.4375" xlink:href="#DejaVuSans-115"/>
      <use x="173.537109" xlink:href="#DejaVuSans-116"/>
      <use x="212.746094" xlink:href="#DejaVuSans-101"/>
      <use x="274.269531" xlink:href="#DejaVuSans-114"/>
      <use x="315.382812" xlink:href="#DejaVuSans-105"/>
      <use x="343.166016" xlink:href="#DejaVuSans-111"/>
      <use x="404.347656" xlink:href="#DejaVuSans-114"/>
     </g>
    </g>
   </g>
   <g id="line2d_57">
    <path clip-path="url(#p43c00292bc)" d="M 428.251961 244.878184 
L 431.614349 244.536418 
L 435.649214 244.044047 
L 437.666647 243.985802 
L 444.391423 244.045805 
L 446.408856 243.683994 
L 449.098766 242.944171 
L 453.806109 241.415498 
L 457.168497 240.077595 
L 463.893273 237.170639 
L 467.255661 236.111244 
L 468.600616 235.351428 
L 469.945571 234.113137 
L 471.290526 232.268139 
L 472.635481 229.80423 
L 473.980436 226.829158 
L 475.997869 221.789974 
L 478.68778 214.548503 
L 480.705212 208.402184 
L 482.050168 203.541634 
L 483.395123 197.780301 
L 484.740078 190.984588 
L 486.757511 179.165709 
L 488.774943 167.178253 
L 490.119899 160.80968 
L 490.792376 158.575359 
L 491.464854 157.16652 
L 492.137331 156.698887 
L 492.809809 157.253422 
L 493.482286 158.868424 
L 494.154764 161.534568 
L 494.827242 165.19362 
L 496.172197 175.033191 
L 498.18963 193.560236 
L 500.207062 212.11463 
L 501.552017 222.515967 
L 502.896973 230.655531 
L 503.56945 233.849015 
L 504.241928 236.492739 
L 504.914405 238.633996 
L 505.586883 240.330423 
L 506.259361 241.644734 
L 506.931838 242.640185 
L 507.604316 243.376989 
L 508.276793 243.909765 
L 509.621748 244.545354 
L 510.966704 244.834416 
L 512.984136 244.98146 
L 518.363957 245.018987 
L 562.075 245.019172 
L 562.075 245.019172 
" style="fill:none;stroke:#1f77b4;stroke-linecap:square;stroke-width:1.5;"/>
   </g>
   <g id="line2d_58">
    <path clip-path="url(#p43c00292bc)" d="M 479.187418 249.435186 
L 479.187418 152.282872 
" style="fill:none;stroke:#808080;stroke-dasharray:1.5,2.475;stroke-dashoffset:0;stroke-width:1.5;"/>
   </g>
   <g id="line2d_59">
    <path clip-path="url(#p43c00292bc)" d="M 428.251961 237.332309 
L 435.649214 229.787829 
L 437.666647 228.277361 
L 439.011602 227.501239 
L 440.356557 226.913244 
L 441.701512 226.501139 
L 443.718945 226.160128 
L 445.736378 226.058088 
L 449.098766 226.143124 
L 456.496019 226.378379 
L 459.858407 226.260158 
L 461.87584 226.004564 
L 463.893273 225.53395 
L 465.910705 224.795907 
L 467.928138 223.764504 
L 469.945571 222.450094 
L 472.635481 220.342338 
L 477.342824 216.199746 
L 480.705212 213.395836 
L 482.722645 211.992176 
L 484.0676 211.255341 
L 485.412555 210.736824 
L 486.757511 210.492874 
L 488.102466 210.579565 
L 489.447421 211.046341 
L 490.792376 211.928887 
L 492.137331 213.242543 
L 493.482286 214.977453 
L 494.827242 217.096389 
L 496.844674 220.84966 
L 504.241928 235.573135 
L 505.586883 237.646115 
L 506.931838 239.409045 
L 508.276793 240.860366 
L 509.621748 242.017212 
L 510.966704 242.910175 
L 512.311659 243.577723 
L 514.329092 244.246248 
L 516.346524 244.630326 
L 519.036435 244.878486 
L 523.0713 244.99457 
L 536.520852 245.019161 
L 562.075 245.019172 
L 562.075 245.019172 
" style="fill:none;stroke:#ff7f0e;stroke-linecap:square;stroke-width:1.5;"/>
   </g>
   <g id="patch_18">
    <path d="M 428.251961 249.435186 
L 428.251961 152.282872 
" style="fill:none;stroke:#000000;stroke-linecap:square;stroke-linejoin:miter;stroke-width:0.8;"/>
   </g>
   <g id="patch_19">
    <path d="M 428.251961 249.435186 
L 562.075 249.435186 
" style="fill:none;stroke:#000000;stroke-linecap:square;stroke-linejoin:miter;stroke-width:0.8;"/>
   </g>
  </g>
  <g id="axes_7">
   <g id="patch_20">
    <path d="M 47.675 389.29375 
L 181.498039 389.29375 
L 181.498039 292.141436 
L 47.675 292.141436 
z
" style="fill:#ffffff;"/>
   </g>
   <g id="matplotlib.axis_13">
    <g id="xtick_23">
     <g id="line2d_60">
      <g>
       <use style="stroke:#000000;stroke-width:0.8;" x="74.439608" xlink:href="#m5f5bbb4568" y="389.29375"/>
      </g>
     </g>
     <g id="text_54">
      <!-- −4 -->
      <g transform="translate(67.068514 403.892187)scale(0.1 -0.1)">
       <use xlink:href="#DejaVuSans-8722"/>
       <use x="83.789062" xlink:href="#DejaVuSans-52"/>
      </g>
     </g>
    </g>
    <g id="xtick_24">
     <g id="line2d_61">
      <g>
       <use style="stroke:#000000;stroke-width:0.8;" x="127.968824" xlink:href="#m5f5bbb4568" y="389.29375"/>
      </g>
     </g>
     <g id="text_55">
      <!-- −2 -->
      <g transform="translate(120.59773 403.892187)scale(0.1 -0.1)">
       <use xlink:href="#DejaVuSans-8722"/>
       <use x="83.789062" xlink:href="#DejaVuSans-50"/>
      </g>
     </g>
    </g>
    <g id="xtick_25">
     <g id="line2d_62">
      <g>
       <use style="stroke:#000000;stroke-width:0.8;" x="181.498039" xlink:href="#m5f5bbb4568" y="389.29375"/>
      </g>
     </g>
     <g id="text_56">
      <!-- 0 -->
      <g transform="translate(178.316789 403.892187)scale(0.1 -0.1)">
       <use xlink:href="#DejaVuSans-48"/>
      </g>
     </g>
    </g>
    <g id="text_57">
     <!-- log_ecm_division_threshold -->
     <g transform="translate(45.978707 417.570312)scale(0.1 -0.1)">
      <use xlink:href="#DejaVuSans-108"/>
      <use x="27.783203" xlink:href="#DejaVuSans-111"/>
      <use x="88.964844" xlink:href="#DejaVuSans-103"/>
      <use x="152.441406" xlink:href="#DejaVuSans-95"/>
      <use x="202.441406" xlink:href="#DejaVuSans-101"/>
      <use x="263.964844" xlink:href="#DejaVuSans-99"/>
      <use x="318.945312" xlink:href="#DejaVuSans-109"/>
      <use x="416.357422" xlink:href="#DejaVuSans-95"/>
      <use x="466.357422" xlink:href="#DejaVuSans-100"/>
      <use x="529.833984" xlink:href="#DejaVuSans-105"/>
      <use x="557.617188" xlink:href="#DejaVuSans-118"/>
      <use x="616.796875" xlink:href="#DejaVuSans-105"/>
      <use x="644.580078" xlink:href="#DejaVuSans-115"/>
      <use x="696.679688" xlink:href="#DejaVuSans-105"/>
      <use x="724.462891" xlink:href="#DejaVuSans-111"/>
      <use x="785.644531" xlink:href="#DejaVuSans-110"/>
      <use x="849.023438" xlink:href="#DejaVuSans-95"/>
      <use x="899.023438" xlink:href="#DejaVuSans-116"/>
      <use x="938.232422" xlink:href="#DejaVuSans-104"/>
      <use x="1001.611328" xlink:href="#DejaVuSans-114"/>
      <use x="1042.693359" xlink:href="#DejaVuSans-101"/>
      <use x="1104.216797" xlink:href="#DejaVuSans-115"/>
      <use x="1156.316406" xlink:href="#DejaVuSans-104"/>
      <use x="1219.695312" xlink:href="#DejaVuSans-111"/>
      <use x="1280.876953" xlink:href="#DejaVuSans-108"/>
      <use x="1308.660156" xlink:href="#DejaVuSans-100"/>
     </g>
    </g>
   </g>
   <g id="matplotlib.axis_14">
    <g id="ytick_20">
     <g id="line2d_63">
      <g>
       <use style="stroke:#000000;stroke-width:0.8;" x="47.675" xlink:href="#m354d61cb46" y="384.87815"/>
      </g>
     </g>
     <g id="text_58">
      <!-- 0.0 -->
      <g transform="translate(24.771875 388.677369)scale(0.1 -0.1)">
       <use xlink:href="#DejaVuSans-48"/>
       <use x="63.623047" xlink:href="#DejaVuSans-46"/>
       <use x="95.410156" xlink:href="#DejaVuSans-48"/>
      </g>
     </g>
    </g>
    <g id="ytick_21">
     <g id="line2d_64">
      <g>
       <use style="stroke:#000000;stroke-width:0.8;" x="47.675" xlink:href="#m354d61cb46" y="358.971358"/>
      </g>
     </g>
     <g id="text_59">
      <!-- 0.2 -->
      <g transform="translate(24.771875 362.770577)scale(0.1 -0.1)">
       <use xlink:href="#DejaVuSans-48"/>
       <use x="63.623047" xlink:href="#DejaVuSans-46"/>
       <use x="95.410156" xlink:href="#DejaVuSans-50"/>
      </g>
     </g>
    </g>
    <g id="ytick_22">
     <g id="line2d_65">
      <g>
       <use style="stroke:#000000;stroke-width:0.8;" x="47.675" xlink:href="#m354d61cb46" y="333.064566"/>
      </g>
     </g>
     <g id="text_60">
      <!-- 0.4 -->
      <g transform="translate(24.771875 336.863785)scale(0.1 -0.1)">
       <use xlink:href="#DejaVuSans-48"/>
       <use x="63.623047" xlink:href="#DejaVuSans-46"/>
       <use x="95.410156" xlink:href="#DejaVuSans-52"/>
      </g>
     </g>
    </g>
    <g id="ytick_23">
     <g id="line2d_66">
      <g>
       <use style="stroke:#000000;stroke-width:0.8;" x="47.675" xlink:href="#m354d61cb46" y="307.157774"/>
      </g>
     </g>
     <g id="text_61">
      <!-- 0.6 -->
      <g transform="translate(24.771875 310.956992)scale(0.1 -0.1)">
       <use xlink:href="#DejaVuSans-48"/>
       <use x="63.623047" xlink:href="#DejaVuSans-46"/>
       <use x="95.410156" xlink:href="#DejaVuSans-54"/>
      </g>
     </g>
    </g>
    <g id="text_62">
     <!-- Posterior -->
     <g transform="translate(18.692187 362.990249)rotate(-90)scale(0.1 -0.1)">
      <use xlink:href="#DejaVuSans-80"/>
      <use x="60.255859" xlink:href="#DejaVuSans-111"/>
      <use x="121.4375" xlink:href="#DejaVuSans-115"/>
      <use x="173.537109" xlink:href="#DejaVuSans-116"/>
      <use x="212.746094" xlink:href="#DejaVuSans-101"/>
      <use x="274.269531" xlink:href="#DejaVuSans-114"/>
      <use x="315.382812" xlink:href="#DejaVuSans-105"/>
      <use x="343.166016" xlink:href="#DejaVuSans-111"/>
      <use x="404.347656" xlink:href="#DejaVuSans-114"/>
     </g>
    </g>
   </g>
   <g id="line2d_67">
    <path clip-path="url(#p6eb012ec67)" d="M 47.675 376.500318 
L 51.037388 374.606969 
L 53.727298 373.347584 
L 56.417209 372.36409 
L 59.107119 371.647452 
L 61.797029 371.157042 
L 65.159417 370.78503 
L 69.194283 370.572305 
L 88.023655 369.923555 
L 92.058521 369.480747 
L 94.748431 368.954067 
L 96.765864 368.351112 
L 98.783296 367.492697 
L 100.128252 366.736857 
L 101.473207 365.800523 
L 102.818162 364.651403 
L 104.163117 363.25443 
L 105.508072 361.572452 
L 106.853027 359.567464 
L 108.197983 357.202559 
L 109.542938 354.444673 
L 110.887893 351.268182 
L 112.232848 347.659237 
L 114.250281 341.446796 
L 116.267714 334.377707 
L 119.630101 321.428105 
L 122.320012 311.243351 
L 123.664967 306.700472 
L 125.009922 302.787169 
L 126.354877 299.693516 
L 127.027355 298.507768 
L 127.699832 297.587429 
L 128.37231 296.947857 
L 129.044788 296.601468 
L 129.717265 296.55745 
L 130.389743 296.821533 
L 131.06222 297.395829 
L 131.734698 298.278741 
L 132.407176 299.464952 
L 133.079653 300.945485 
L 134.424608 304.736215 
L 135.769564 309.512962 
L 137.114519 315.095068 
L 139.131951 324.513439 
L 144.511772 350.545559 
L 146.529205 358.920371 
L 147.87416 363.78112 
L 149.219115 368.018206 
L 150.56407 371.630673 
L 151.909026 374.644835 
L 153.253981 377.107242 
L 154.598936 379.077621 
L 155.943891 380.622425 
L 157.288846 381.809404 
L 158.633801 382.703436 
L 159.978757 383.363645 
L 161.996189 384.026387 
L 164.013622 384.417694 
L 166.703532 384.687536 
L 170.738398 384.833719 
L 180.825562 384.877576 
L 181.498039 384.877736 
L 181.498039 384.877736 
" style="fill:none;stroke:#1f77b4;stroke-linecap:square;stroke-width:1.5;"/>
   </g>
   <g id="line2d_68">
    <path clip-path="url(#p6eb012ec67)" d="M 127.968824 389.29375 
L 127.968824 292.141436 
" style="fill:none;stroke:#808080;stroke-dasharray:1.5,2.475;stroke-dashoffset:0;stroke-width:1.5;"/>
   </g>
   <g id="line2d_69">
    <path clip-path="url(#p6eb012ec67)" d="M 47.675 375.363689 
L 50.36491 372.091846 
L 57.089686 363.619309 
L 59.779597 360.686883 
L 62.469507 358.171129 
L 65.159417 356.022635 
L 68.521805 353.661014 
L 76.591536 348.385065 
L 79.953924 346.452343 
L 82.643834 345.193273 
L 85.333745 344.233138 
L 88.023655 343.550982 
L 90.713565 343.099504 
L 94.075953 342.801969 
L 97.438341 342.761693 
L 106.18055 342.901675 
L 108.197983 342.592932 
L 110.215415 342.023931 
L 112.232848 341.193811 
L 114.922758 339.798311 
L 118.285146 338.081798 
L 119.630101 337.595612 
L 120.975057 337.322208 
L 122.320012 337.323134 
L 123.664967 337.651552 
L 125.009922 338.348587 
L 126.354877 339.44043 
L 127.699832 340.936356 
L 129.044788 342.827744 
L 130.389743 345.088136 
L 132.407176 349.072071 
L 135.097086 355.15864 
L 140.476907 367.685899 
L 142.494339 371.767817 
L 144.511772 375.258226 
L 145.856727 377.223292 
L 147.201682 378.896551 
L 148.546638 380.289798 
L 149.891593 381.424212 
L 151.236548 382.327428 
L 152.581503 383.030633 
L 154.598936 383.780504 
L 156.616369 384.254618 
L 159.306279 384.604835 
L 162.668667 384.791276 
L 169.393443 384.872208 
L 181.498039 384.878138 
L 181.498039 384.878138 
" style="fill:none;stroke:#ff7f0e;stroke-linecap:square;stroke-width:1.5;"/>
   </g>
   <g id="patch_21">
    <path d="M 47.675 389.29375 
L 47.675 292.141436 
" style="fill:none;stroke:#000000;stroke-linecap:square;stroke-linejoin:miter;stroke-width:0.8;"/>
   </g>
   <g id="patch_22">
    <path d="M 47.675 389.29375 
L 181.498039 389.29375 
" style="fill:none;stroke:#000000;stroke-linecap:square;stroke-linejoin:miter;stroke-width:0.8;"/>
   </g>
   <g id="legend_1">
    <g id="patch_23">
     <path d="M 188.498039 356.895718 
L 282.321477 356.895718 
Q 284.321477 356.895718 284.321477 354.895718 
L 284.321477 326.539468 
Q 284.321477 324.539468 282.321477 324.539468 
L 188.498039 324.539468 
Q 186.498039 324.539468 186.498039 326.539468 
L 186.498039 354.895718 
Q 186.498039 356.895718 188.498039 356.895718 
z
" style="fill:#ffffff;opacity:0.8;stroke:#cccccc;stroke-linejoin:miter;"/>
    </g>
    <g id="line2d_70">
     <path d="M 190.498039 332.637906 
L 210.498039 332.637906 
" style="fill:none;stroke:#1f77b4;stroke-linecap:square;stroke-width:1.5;"/>
    </g>
    <g id="line2d_71"/>
    <g id="text_63">
     <!-- ASSA -->
     <defs>
      <path d="M 34.1875 63.1875 
L 20.796875 26.90625 
L 47.609375 26.90625 
z
M 28.609375 72.90625 
L 39.796875 72.90625 
L 67.578125 0 
L 57.328125 0 
L 50.6875 18.703125 
L 17.828125 18.703125 
L 11.1875 0 
L 0.78125 0 
z
" id="DejaVuSans-65"/>
      <path d="M 53.515625 70.515625 
L 53.515625 60.890625 
Q 47.90625 63.578125 42.921875 64.890625 
Q 37.9375 66.21875 33.296875 66.21875 
Q 25.25 66.21875 20.875 63.09375 
Q 16.5 59.96875 16.5 54.203125 
Q 16.5 49.359375 19.40625 46.890625 
Q 22.3125 44.4375 30.421875 42.921875 
L 36.375 41.703125 
Q 47.40625 39.59375 52.65625 34.296875 
Q 57.90625 29 57.90625 20.125 
Q 57.90625 9.515625 50.796875 4.046875 
Q 43.703125 -1.421875 29.984375 -1.421875 
Q 24.8125 -1.421875 18.96875 -0.25 
Q 13.140625 0.921875 6.890625 3.21875 
L 6.890625 13.375 
Q 12.890625 10.015625 18.65625 8.296875 
Q 24.421875 6.59375 29.984375 6.59375 
Q 38.421875 6.59375 43.015625 9.90625 
Q 47.609375 13.234375 47.609375 19.390625 
Q 47.609375 24.75 44.3125 27.78125 
Q 41.015625 30.8125 33.5 32.328125 
L 27.484375 33.5 
Q 16.453125 35.6875 11.515625 40.375 
Q 6.59375 45.0625 6.59375 53.421875 
Q 6.59375 63.09375 13.40625 68.65625 
Q 20.21875 74.21875 32.171875 74.21875 
Q 37.3125 74.21875 42.625 73.28125 
Q 47.953125 72.359375 53.515625 70.515625 
z
" id="DejaVuSans-83"/>
     </defs>
     <g transform="translate(218.498039 336.137906)scale(0.1 -0.1)">
      <use xlink:href="#DejaVuSans-65"/>
      <use x="68.408203" xlink:href="#DejaVuSans-83"/>
      <use x="131.884766" xlink:href="#DejaVuSans-83"/>
      <use x="195.376953" xlink:href="#DejaVuSans-65"/>
     </g>
    </g>
    <g id="line2d_72">
     <path d="M 190.498039 347.316031 
L 210.498039 347.316031 
" style="fill:none;stroke:#ff7f0e;stroke-linecap:square;stroke-width:1.5;"/>
    </g>
    <g id="line2d_73"/>
    <g id="text_64">
     <!-- Noisy model -->
     <defs>
      <path d="M 9.8125 72.90625 
L 23.09375 72.90625 
L 55.421875 11.921875 
L 55.421875 72.90625 
L 64.984375 72.90625 
L 64.984375 0 
L 51.703125 0 
L 19.390625 60.984375 
L 19.390625 0 
L 9.8125 0 
z
" id="DejaVuSans-78"/>
      <path d="M 32.171875 -5.078125 
Q 28.375 -14.84375 24.75 -17.8125 
Q 21.140625 -20.796875 15.09375 -20.796875 
L 7.90625 -20.796875 
L 7.90625 -13.28125 
L 13.1875 -13.28125 
Q 16.890625 -13.28125 18.9375 -11.515625 
Q 21 -9.765625 23.484375 -3.21875 
L 25.09375 0.875 
L 2.984375 54.6875 
L 12.5 54.6875 
L 29.59375 11.921875 
L 46.6875 54.6875 
L 56.203125 54.6875 
z
" id="DejaVuSans-121"/>
      <path id="DejaVuSans-32"/>
     </defs>
     <g transform="translate(218.498039 350.816031)scale(0.1 -0.1)">
      <use xlink:href="#DejaVuSans-78"/>
      <use x="74.804688" xlink:href="#DejaVuSans-111"/>
      <use x="135.986328" xlink:href="#DejaVuSans-105"/>
      <use x="163.769531" xlink:href="#DejaVuSans-115"/>
      <use x="215.869141" xlink:href="#DejaVuSans-121"/>
      <use x="275.048828" xlink:href="#DejaVuSans-32"/>
      <use x="306.835938" xlink:href="#DejaVuSans-109"/>
      <use x="404.248047" xlink:href="#DejaVuSans-111"/>
      <use x="465.429688" xlink:href="#DejaVuSans-100"/>
      <use x="528.90625" xlink:href="#DejaVuSans-101"/>
      <use x="590.429688" xlink:href="#DejaVuSans-108"/>
     </g>
    </g>
   </g>
  </g>
 </g>
 <defs>
  <clipPath id="pa3c3f90c64">
   <rect height="97.152314" width="133.823039" x="47.675" y="12.424308"/>
  </clipPath>
  <clipPath id="p38510c0fad">
   <rect height="97.152314" width="133.823039" x="237.96348" y="12.424308"/>
  </clipPath>
  <clipPath id="p12002a3819">
   <rect height="97.152314" width="133.823039" x="428.251961" y="12.424308"/>
  </clipPath>
  <clipPath id="pb9138c6115">
   <rect height="97.152314" width="133.823039" x="47.675" y="152.282872"/>
  </clipPath>
  <clipPath id="pa719782b3d">
   <rect height="97.152314" width="133.823039" x="237.96348" y="152.282872"/>
  </clipPath>
  <clipPath id="p43c00292bc">
   <rect height="97.152314" width="133.823039" x="428.251961" y="152.282872"/>
  </clipPath>
  <clipPath id="p6eb012ec67">
   <rect height="97.152314" width="133.823039" x="47.675" y="292.141436"/>
  </clipPath>
 </defs>
</svg>
