<?xml version="1.0" encoding="utf-8" standalone="no"?>
<!DOCTYPE svg PUBLIC "-//W3C//DTD SVG 1.1//EN"
  "http://www.w3.org/Graphics/SVG/1.1/DTD/svg11.dtd">
<!-- Created with matplotlib (https://matplotlib.org/) -->
<svg height="216pt" version="1.1" viewBox="0 0 216 216" width="216pt" xmlns="http://www.w3.org/2000/svg" xmlns:xlink="http://www.w3.org/1999/xlink">
 <defs>
  <style type="text/css">
*{stroke-linecap:butt;stroke-linejoin:round;}
  </style>
 </defs>
 <g id="figure_1">
  <g id="patch_1">
   <path d="M 0 216 
L 216 216 
L 216 0 
L 0 0 
z
" style="fill:#ffffff;"/>
  </g>
  <g id="axes_1">
   <g id="patch_2">
    <path d="M 50.8 170.4 
L 203.826923 170.4 
L 203.826923 11.992099 
L 50.8 11.992099 
z
" style="fill:#ffffff;"/>
   </g>
   <g id="matplotlib.axis_1">
    <g id="xtick_1">
     <g id="line2d_1">
      <defs>
       <path d="M 0 0 
L 0 3.5 
" id="mbb6682672a" style="stroke:#000000;stroke-width:0.8;"/>
      </defs>
      <g>
       <use style="stroke:#000000;stroke-width:0.8;" x="74.342604" xlink:href="#mbb6682672a" y="170.4"/>
      </g>
     </g>
     <g id="text_1">
      <!-- 0.055 -->
      <defs>
       <path d="M 31.78125 66.40625 
Q 24.171875 66.40625 20.328125 58.90625 
Q 16.5 51.421875 16.5 36.375 
Q 16.5 21.390625 20.328125 13.890625 
Q 24.171875 6.390625 31.78125 6.390625 
Q 39.453125 6.390625 43.28125 13.890625 
Q 47.125 21.390625 47.125 36.375 
Q 47.125 51.421875 43.28125 58.90625 
Q 39.453125 66.40625 31.78125 66.40625 
z
M 31.78125 74.21875 
Q 44.046875 74.21875 50.515625 64.515625 
Q 56.984375 54.828125 56.984375 36.375 
Q 56.984375 17.96875 50.515625 8.265625 
Q 44.046875 -1.421875 31.78125 -1.421875 
Q 19.53125 -1.421875 13.0625 8.265625 
Q 6.59375 17.96875 6.59375 36.375 
Q 6.59375 54.828125 13.0625 64.515625 
Q 19.53125 74.21875 31.78125 74.21875 
z
" id="DejaVuSans-48"/>
       <path d="M 10.6875 12.40625 
L 21 12.40625 
L 21 0 
L 10.6875 0 
z
" id="DejaVuSans-46"/>
       <path d="M 10.796875 72.90625 
L 49.515625 72.90625 
L 49.515625 64.59375 
L 19.828125 64.59375 
L 19.828125 46.734375 
Q 21.96875 47.46875 24.109375 47.828125 
Q 26.265625 48.1875 28.421875 48.1875 
Q 40.625 48.1875 47.75 41.5 
Q 54.890625 34.8125 54.890625 23.390625 
Q 54.890625 11.625 47.5625 5.09375 
Q 40.234375 -1.421875 26.90625 -1.421875 
Q 22.3125 -1.421875 17.546875 -0.640625 
Q 12.796875 0.140625 7.71875 1.703125 
L 7.71875 11.625 
Q 12.109375 9.234375 16.796875 8.0625 
Q 21.484375 6.890625 26.703125 6.890625 
Q 35.15625 6.890625 40.078125 11.328125 
Q 45.015625 15.765625 45.015625 23.390625 
Q 45.015625 31 40.078125 35.4375 
Q 35.15625 39.890625 26.703125 39.890625 
Q 22.75 39.890625 18.8125 39.015625 
Q 14.890625 38.140625 10.796875 36.28125 
z
" id="DejaVuSans-53"/>
      </defs>
      <g transform="translate(60.028541 184.998437)scale(0.1 -0.1)">
       <use xlink:href="#DejaVuSans-48"/>
       <use x="63.623047" xlink:href="#DejaVuSans-46"/>
       <use x="95.410156" xlink:href="#DejaVuSans-48"/>
       <use x="159.033203" xlink:href="#DejaVuSans-53"/>
       <use x="222.65625" xlink:href="#DejaVuSans-53"/>
      </g>
     </g>
    </g>
    <g id="xtick_2">
     <g id="line2d_2">
      <g>
       <use style="stroke:#000000;stroke-width:0.8;" x="133.199112" xlink:href="#mbb6682672a" y="170.4"/>
      </g>
     </g>
     <g id="text_2">
      <!-- 0.060 -->
      <defs>
       <path d="M 33.015625 40.375 
Q 26.375 40.375 22.484375 35.828125 
Q 18.609375 31.296875 18.609375 23.390625 
Q 18.609375 15.53125 22.484375 10.953125 
Q 26.375 6.390625 33.015625 6.390625 
Q 39.65625 6.390625 43.53125 10.953125 
Q 47.40625 15.53125 47.40625 23.390625 
Q 47.40625 31.296875 43.53125 35.828125 
Q 39.65625 40.375 33.015625 40.375 
z
M 52.59375 71.296875 
L 52.59375 62.3125 
Q 48.875 64.0625 45.09375 64.984375 
Q 41.3125 65.921875 37.59375 65.921875 
Q 27.828125 65.921875 22.671875 59.328125 
Q 17.53125 52.734375 16.796875 39.40625 
Q 19.671875 43.65625 24.015625 45.921875 
Q 28.375 48.1875 33.59375 48.1875 
Q 44.578125 48.1875 50.953125 41.515625 
Q 57.328125 34.859375 57.328125 23.390625 
Q 57.328125 12.15625 50.6875 5.359375 
Q 44.046875 -1.421875 33.015625 -1.421875 
Q 20.359375 -1.421875 13.671875 8.265625 
Q 6.984375 17.96875 6.984375 36.375 
Q 6.984375 53.65625 15.1875 63.9375 
Q 23.390625 74.21875 37.203125 74.21875 
Q 40.921875 74.21875 44.703125 73.484375 
Q 48.484375 72.75 52.59375 71.296875 
z
" id="DejaVuSans-54"/>
      </defs>
      <g transform="translate(118.88505 184.998437)scale(0.1 -0.1)">
       <use xlink:href="#DejaVuSans-48"/>
       <use x="63.623047" xlink:href="#DejaVuSans-46"/>
       <use x="95.410156" xlink:href="#DejaVuSans-48"/>
       <use x="159.033203" xlink:href="#DejaVuSans-54"/>
       <use x="222.65625" xlink:href="#DejaVuSans-48"/>
      </g>
     </g>
    </g>
    <g id="xtick_3">
     <g id="line2d_3">
      <g>
       <use style="stroke:#000000;stroke-width:0.8;" x="192.055621" xlink:href="#mbb6682672a" y="170.4"/>
      </g>
     </g>
     <g id="text_3">
      <!-- 0.065 -->
      <g transform="translate(177.741559 184.998437)scale(0.1 -0.1)">
       <use xlink:href="#DejaVuSans-48"/>
       <use x="63.623047" xlink:href="#DejaVuSans-46"/>
       <use x="95.410156" xlink:href="#DejaVuSans-48"/>
       <use x="159.033203" xlink:href="#DejaVuSans-54"/>
       <use x="222.65625" xlink:href="#DejaVuSans-53"/>
      </g>
     </g>
    </g>
    <g id="text_4">
     <!-- Parameter $\theta_1$ -->
     <defs>
      <path d="M 19.671875 64.796875 
L 19.671875 37.40625 
L 32.078125 37.40625 
Q 38.96875 37.40625 42.71875 40.96875 
Q 46.484375 44.53125 46.484375 51.125 
Q 46.484375 57.671875 42.71875 61.234375 
Q 38.96875 64.796875 32.078125 64.796875 
z
M 9.8125 72.90625 
L 32.078125 72.90625 
Q 44.34375 72.90625 50.609375 67.359375 
Q 56.890625 61.8125 56.890625 51.125 
Q 56.890625 40.328125 50.609375 34.8125 
Q 44.34375 29.296875 32.078125 29.296875 
L 19.671875 29.296875 
L 19.671875 0 
L 9.8125 0 
z
" id="DejaVuSans-80"/>
      <path d="M 34.28125 27.484375 
Q 23.390625 27.484375 19.1875 25 
Q 14.984375 22.515625 14.984375 16.5 
Q 14.984375 11.71875 18.140625 8.90625 
Q 21.296875 6.109375 26.703125 6.109375 
Q 34.1875 6.109375 38.703125 11.40625 
Q 43.21875 16.703125 43.21875 25.484375 
L 43.21875 27.484375 
z
M 52.203125 31.203125 
L 52.203125 0 
L 43.21875 0 
L 43.21875 8.296875 
Q 40.140625 3.328125 35.546875 0.953125 
Q 30.953125 -1.421875 24.3125 -1.421875 
Q 15.921875 -1.421875 10.953125 3.296875 
Q 6 8.015625 6 15.921875 
Q 6 25.140625 12.171875 29.828125 
Q 18.359375 34.515625 30.609375 34.515625 
L 43.21875 34.515625 
L 43.21875 35.40625 
Q 43.21875 41.609375 39.140625 45 
Q 35.0625 48.390625 27.6875 48.390625 
Q 23 48.390625 18.546875 47.265625 
Q 14.109375 46.140625 10.015625 43.890625 
L 10.015625 52.203125 
Q 14.9375 54.109375 19.578125 55.046875 
Q 24.21875 56 28.609375 56 
Q 40.484375 56 46.34375 49.84375 
Q 52.203125 43.703125 52.203125 31.203125 
z
" id="DejaVuSans-97"/>
      <path d="M 41.109375 46.296875 
Q 39.59375 47.171875 37.8125 47.578125 
Q 36.03125 48 33.890625 48 
Q 26.265625 48 22.1875 43.046875 
Q 18.109375 38.09375 18.109375 28.8125 
L 18.109375 0 
L 9.078125 0 
L 9.078125 54.6875 
L 18.109375 54.6875 
L 18.109375 46.1875 
Q 20.953125 51.171875 25.484375 53.578125 
Q 30.03125 56 36.53125 56 
Q 37.453125 56 38.578125 55.875 
Q 39.703125 55.765625 41.0625 55.515625 
z
" id="DejaVuSans-114"/>
      <path d="M 52 44.1875 
Q 55.375 50.25 60.0625 53.125 
Q 64.75 56 71.09375 56 
Q 79.640625 56 84.28125 50.015625 
Q 88.921875 44.046875 88.921875 33.015625 
L 88.921875 0 
L 79.890625 0 
L 79.890625 32.71875 
Q 79.890625 40.578125 77.09375 44.375 
Q 74.3125 48.1875 68.609375 48.1875 
Q 61.625 48.1875 57.5625 43.546875 
Q 53.515625 38.921875 53.515625 30.90625 
L 53.515625 0 
L 44.484375 0 
L 44.484375 32.71875 
Q 44.484375 40.625 41.703125 44.40625 
Q 38.921875 48.1875 33.109375 48.1875 
Q 26.21875 48.1875 22.15625 43.53125 
Q 18.109375 38.875 18.109375 30.90625 
L 18.109375 0 
L 9.078125 0 
L 9.078125 54.6875 
L 18.109375 54.6875 
L 18.109375 46.1875 
Q 21.1875 51.21875 25.484375 53.609375 
Q 29.78125 56 35.6875 56 
Q 41.65625 56 45.828125 52.96875 
Q 50 49.953125 52 44.1875 
z
" id="DejaVuSans-109"/>
      <path d="M 56.203125 29.59375 
L 56.203125 25.203125 
L 14.890625 25.203125 
Q 15.484375 15.921875 20.484375 11.0625 
Q 25.484375 6.203125 34.421875 6.203125 
Q 39.59375 6.203125 44.453125 7.46875 
Q 49.3125 8.734375 54.109375 11.28125 
L 54.109375 2.78125 
Q 49.265625 0.734375 44.1875 -0.34375 
Q 39.109375 -1.421875 33.890625 -1.421875 
Q 20.796875 -1.421875 13.15625 6.1875 
Q 5.515625 13.8125 5.515625 26.8125 
Q 5.515625 40.234375 12.765625 48.109375 
Q 20.015625 56 32.328125 56 
Q 43.359375 56 49.78125 48.890625 
Q 56.203125 41.796875 56.203125 29.59375 
z
M 47.21875 32.234375 
Q 47.125 39.59375 43.09375 43.984375 
Q 39.0625 48.390625 32.421875 48.390625 
Q 24.90625 48.390625 20.390625 44.140625 
Q 15.875 39.890625 15.1875 32.171875 
z
" id="DejaVuSans-101"/>
      <path d="M 18.3125 70.21875 
L 18.3125 54.6875 
L 36.8125 54.6875 
L 36.8125 47.703125 
L 18.3125 47.703125 
L 18.3125 18.015625 
Q 18.3125 11.328125 20.140625 9.421875 
Q 21.96875 7.515625 27.59375 7.515625 
L 36.8125 7.515625 
L 36.8125 0 
L 27.59375 0 
Q 17.1875 0 13.234375 3.875 
Q 9.28125 7.765625 9.28125 18.015625 
L 9.28125 47.703125 
L 2.6875 47.703125 
L 2.6875 54.6875 
L 9.28125 54.6875 
L 9.28125 70.21875 
z
" id="DejaVuSans-116"/>
      <path id="DejaVuSans-32"/>
      <path d="M 45.515625 34.671875 
L 14.453125 34.671875 
Q 12.359375 20.0625 14.5 13.875 
Q 17.1875 6.25 24.46875 6.25 
Q 31.78125 6.25 37.359375 13.921875 
Q 42.234375 20.65625 45.515625 34.671875 
z
M 47.015625 42.96875 
Q 48.34375 56.84375 46.625 61.71875 
Q 43.953125 69.4375 36.765625 69.4375 
Q 29.296875 69.4375 23.828125 61.8125 
Q 19.53125 55.671875 16.15625 42.96875 
z
M 38.1875 76.765625 
Q 49.90625 76.765625 54.59375 66.40625 
Q 59.28125 56.109375 55.71875 37.84375 
Q 52.203125 19.625 43.453125 9.28125 
Q 34.765625 -1.125 23.046875 -1.125 
Q 11.28125 -1.125 6.640625 9.28125 
Q 2 19.625 5.515625 37.84375 
Q 9.078125 56.109375 17.71875 66.40625 
Q 26.421875 76.765625 38.1875 76.765625 
z
" id="DejaVuSans-Oblique-952"/>
      <path d="M 12.40625 8.296875 
L 28.515625 8.296875 
L 28.515625 63.921875 
L 10.984375 60.40625 
L 10.984375 69.390625 
L 28.421875 72.90625 
L 38.28125 72.90625 
L 38.28125 8.296875 
L 54.390625 8.296875 
L 54.390625 0 
L 12.40625 0 
z
" id="DejaVuSans-49"/>
     </defs>
     <g transform="translate(94.063462 198.676562)scale(0.1 -0.1)">
      <use transform="translate(0 0.234375)" xlink:href="#DejaVuSans-80"/>
      <use transform="translate(60.302734 0.234375)" xlink:href="#DejaVuSans-97"/>
      <use transform="translate(121.582031 0.234375)" xlink:href="#DejaVuSans-114"/>
      <use transform="translate(162.695312 0.234375)" xlink:href="#DejaVuSans-97"/>
      <use transform="translate(223.974609 0.234375)" xlink:href="#DejaVuSans-109"/>
      <use transform="translate(321.386719 0.234375)" xlink:href="#DejaVuSans-101"/>
      <use transform="translate(382.910156 0.234375)" xlink:href="#DejaVuSans-116"/>
      <use transform="translate(422.119141 0.234375)" xlink:href="#DejaVuSans-101"/>
      <use transform="translate(483.642578 0.234375)" xlink:href="#DejaVuSans-114"/>
      <use transform="translate(524.755859 0.234375)" xlink:href="#DejaVuSans-32"/>
      <use transform="translate(556.542969 0.234375)" xlink:href="#DejaVuSans-Oblique-952"/>
      <use transform="translate(617.724609 -16.171875)scale(0.7)" xlink:href="#DejaVuSans-49"/>
     </g>
    </g>
   </g>
   <g id="matplotlib.axis_2">
    <g id="ytick_1">
     <g id="line2d_4">
      <defs>
       <path d="M 0 0 
L -3.5 0 
" id="md06b98131a" style="stroke:#000000;stroke-width:0.8;"/>
      </defs>
      <g>
       <use style="stroke:#000000;stroke-width:0.8;" x="50.8" xlink:href="#md06b98131a" y="163.209699"/>
      </g>
     </g>
     <g id="text_5">
      <!-- 0 -->
      <g transform="translate(37.4375 167.008917)scale(0.1 -0.1)">
       <use xlink:href="#DejaVuSans-48"/>
      </g>
     </g>
    </g>
    <g id="ytick_2">
     <g id="line2d_5">
      <g>
       <use style="stroke:#000000;stroke-width:0.8;" x="50.8" xlink:href="#md06b98131a" y="133.51167"/>
      </g>
     </g>
     <g id="text_6">
      <!-- 50 -->
      <g transform="translate(31.075 137.310889)scale(0.1 -0.1)">
       <use xlink:href="#DejaVuSans-53"/>
       <use x="63.623047" xlink:href="#DejaVuSans-48"/>
      </g>
     </g>
    </g>
    <g id="ytick_3">
     <g id="line2d_6">
      <g>
       <use style="stroke:#000000;stroke-width:0.8;" x="50.8" xlink:href="#md06b98131a" y="103.813642"/>
      </g>
     </g>
     <g id="text_7">
      <!-- 100 -->
      <g transform="translate(24.7125 107.61286)scale(0.1 -0.1)">
       <use xlink:href="#DejaVuSans-49"/>
       <use x="63.623047" xlink:href="#DejaVuSans-48"/>
       <use x="127.246094" xlink:href="#DejaVuSans-48"/>
      </g>
     </g>
    </g>
    <g id="ytick_4">
     <g id="line2d_7">
      <g>
       <use style="stroke:#000000;stroke-width:0.8;" x="50.8" xlink:href="#md06b98131a" y="74.115613"/>
      </g>
     </g>
     <g id="text_8">
      <!-- 150 -->
      <g transform="translate(24.7125 77.914832)scale(0.1 -0.1)">
       <use xlink:href="#DejaVuSans-49"/>
       <use x="63.623047" xlink:href="#DejaVuSans-53"/>
       <use x="127.246094" xlink:href="#DejaVuSans-48"/>
      </g>
     </g>
    </g>
    <g id="ytick_5">
     <g id="line2d_8">
      <g>
       <use style="stroke:#000000;stroke-width:0.8;" x="50.8" xlink:href="#md06b98131a" y="44.417585"/>
      </g>
     </g>
     <g id="text_9">
      <!-- 200 -->
      <defs>
       <path d="M 19.1875 8.296875 
L 53.609375 8.296875 
L 53.609375 0 
L 7.328125 0 
L 7.328125 8.296875 
Q 12.9375 14.109375 22.625 23.890625 
Q 32.328125 33.6875 34.8125 36.53125 
Q 39.546875 41.84375 41.421875 45.53125 
Q 43.3125 49.21875 43.3125 52.78125 
Q 43.3125 58.59375 39.234375 62.25 
Q 35.15625 65.921875 28.609375 65.921875 
Q 23.96875 65.921875 18.8125 64.3125 
Q 13.671875 62.703125 7.8125 59.421875 
L 7.8125 69.390625 
Q 13.765625 71.78125 18.9375 73 
Q 24.125 74.21875 28.421875 74.21875 
Q 39.75 74.21875 46.484375 68.546875 
Q 53.21875 62.890625 53.21875 53.421875 
Q 53.21875 48.921875 51.53125 44.890625 
Q 49.859375 40.875 45.40625 35.40625 
Q 44.1875 33.984375 37.640625 27.21875 
Q 31.109375 20.453125 19.1875 8.296875 
z
" id="DejaVuSans-50"/>
      </defs>
      <g transform="translate(24.7125 48.216803)scale(0.1 -0.1)">
       <use xlink:href="#DejaVuSans-50"/>
       <use x="63.623047" xlink:href="#DejaVuSans-48"/>
       <use x="127.246094" xlink:href="#DejaVuSans-48"/>
      </g>
     </g>
    </g>
    <g id="ytick_6">
     <g id="line2d_9">
      <g>
       <use style="stroke:#000000;stroke-width:0.8;" x="50.8" xlink:href="#md06b98131a" y="14.719556"/>
      </g>
     </g>
     <g id="text_10">
      <!-- 250 -->
      <g transform="translate(24.7125 18.518775)scale(0.1 -0.1)">
       <use xlink:href="#DejaVuSans-50"/>
       <use x="63.623047" xlink:href="#DejaVuSans-53"/>
       <use x="127.246094" xlink:href="#DejaVuSans-48"/>
      </g>
     </g>
    </g>
    <g id="text_11">
     <!-- Posterior -->
     <defs>
      <path d="M 30.609375 48.390625 
Q 23.390625 48.390625 19.1875 42.75 
Q 14.984375 37.109375 14.984375 27.296875 
Q 14.984375 17.484375 19.15625 11.84375 
Q 23.34375 6.203125 30.609375 6.203125 
Q 37.796875 6.203125 41.984375 11.859375 
Q 46.1875 17.53125 46.1875 27.296875 
Q 46.1875 37.015625 41.984375 42.703125 
Q 37.796875 48.390625 30.609375 48.390625 
z
M 30.609375 56 
Q 42.328125 56 49.015625 48.375 
Q 55.71875 40.765625 55.71875 27.296875 
Q 55.71875 13.875 49.015625 6.21875 
Q 42.328125 -1.421875 30.609375 -1.421875 
Q 18.84375 -1.421875 12.171875 6.21875 
Q 5.515625 13.875 5.515625 27.296875 
Q 5.515625 40.765625 12.171875 48.375 
Q 18.84375 56 30.609375 56 
z
" id="DejaVuSans-111"/>
      <path d="M 44.28125 53.078125 
L 44.28125 44.578125 
Q 40.484375 46.53125 36.375 47.5 
Q 32.28125 48.484375 27.875 48.484375 
Q 21.1875 48.484375 17.84375 46.4375 
Q 14.5 44.390625 14.5 40.28125 
Q 14.5 37.15625 16.890625 35.375 
Q 19.28125 33.59375 26.515625 31.984375 
L 29.59375 31.296875 
Q 39.15625 29.25 43.1875 25.515625 
Q 47.21875 21.78125 47.21875 15.09375 
Q 47.21875 7.46875 41.1875 3.015625 
Q 35.15625 -1.421875 24.609375 -1.421875 
Q 20.21875 -1.421875 15.453125 -0.5625 
Q 10.6875 0.296875 5.421875 2 
L 5.421875 11.28125 
Q 10.40625 8.6875 15.234375 7.390625 
Q 20.0625 6.109375 24.8125 6.109375 
Q 31.15625 6.109375 34.5625 8.28125 
Q 37.984375 10.453125 37.984375 14.40625 
Q 37.984375 18.0625 35.515625 20.015625 
Q 33.0625 21.96875 24.703125 23.78125 
L 21.578125 24.515625 
Q 13.234375 26.265625 9.515625 29.90625 
Q 5.8125 33.546875 5.8125 39.890625 
Q 5.8125 47.609375 11.28125 51.796875 
Q 16.75 56 26.8125 56 
Q 31.78125 56 36.171875 55.265625 
Q 40.578125 54.546875 44.28125 53.078125 
z
" id="DejaVuSans-115"/>
      <path d="M 9.421875 54.6875 
L 18.40625 54.6875 
L 18.40625 0 
L 9.421875 0 
z
M 9.421875 75.984375 
L 18.40625 75.984375 
L 18.40625 64.59375 
L 9.421875 64.59375 
z
" id="DejaVuSans-105"/>
     </defs>
     <g transform="translate(18.632812 113.468706)rotate(-90)scale(0.1 -0.1)">
      <use xlink:href="#DejaVuSans-80"/>
      <use x="60.255859" xlink:href="#DejaVuSans-111"/>
      <use x="121.4375" xlink:href="#DejaVuSans-115"/>
      <use x="173.537109" xlink:href="#DejaVuSans-116"/>
      <use x="212.746094" xlink:href="#DejaVuSans-101"/>
      <use x="274.269531" xlink:href="#DejaVuSans-114"/>
      <use x="315.382812" xlink:href="#DejaVuSans-105"/>
      <use x="343.166016" xlink:href="#DejaVuSans-111"/>
      <use x="404.347656" xlink:href="#DejaVuSans-114"/>
     </g>
    </g>
   </g>
   <g id="line2d_10">
    <path clip-path="url(#pb3f2977585)" d="M 50.8 158.423283 
L 53.922998 155.65418 
L 57.045997 151.930202 
L 60.168995 147.297898 
L 63.291994 141.995822 
L 66.414992 136.430287 
L 69.537991 131.075718 
L 72.660989 126.337531 
L 75.783987 122.44429 
L 78.906986 119.423462 
L 82.029984 117.166604 
L 85.152983 115.536866 
L 88.275981 114.449871 
L 91.39898 113.882373 
L 94.521978 113.814775 
L 97.644976 114.157367 
L 100.767975 114.717223 
L 103.890973 115.231949 
L 107.013972 115.453098 
L 110.13697 115.235384 
L 113.259969 114.5895 
L 116.382967 113.67699 
L 119.505965 112.749323 
L 122.628964 112.052379 
L 125.751962 111.731646 
L 128.874961 111.778336 
L 131.997959 112.043629 
L 135.120958 112.316785 
L 138.243956 112.428504 
L 141.366954 112.325941 
L 144.489953 112.081383 
L 147.612951 111.834942 
L 150.73595 111.709938 
L 153.858948 111.753334 
L 156.981947 111.932435 
L 160.104945 112.177792 
L 163.227943 112.432285 
L 166.350942 112.670843 
L 169.47394 112.887704 
L 172.596939 113.077693 
L 175.719937 113.239471 
L 178.842936 113.405384 
L 181.965934 113.679698 
L 185.088932 114.261277 
L 188.211931 115.432855 
L 191.334929 117.50635 
L 194.457928 120.725999 
L 197.580926 125.156366 
L 200.703925 130.607959 
L 203.826923 136.650263 
" style="fill:none;stroke:#ff7f0e;stroke-linecap:square;stroke-width:1.5;"/>
   </g>
   <g id="line2d_11">
    <path clip-path="url(#pb3f2977585)" d="M 50.8 163.19737 
L 53.922998 163.161342 
L 57.045997 163.049438 
L 60.168995 162.756744 
L 63.291994 162.103987 
L 66.414992 160.838543 
L 69.537991 158.648052 
L 72.660989 155.161993 
L 75.783987 149.966866 
L 78.906986 142.75038 
L 82.029984 133.636558 
L 85.152983 123.492363 
L 88.275981 113.790185 
L 91.39898 105.912428 
L 94.521978 100.404648 
L 97.644976 96.867275 
L 100.767975 94.567082 
L 103.890973 93.111319 
L 107.013972 92.556711 
L 110.13697 93.023125 
L 113.259969 94.329454 
L 116.382967 95.970569 
L 119.505965 97.373419 
L 122.628964 98.198557 
L 125.751962 98.448376 
L 128.874961 98.279545 
L 131.997959 97.698349 
L 135.120958 96.49198 
L 138.243956 94.537628 
L 141.366954 92.180751 
L 144.489953 90.211322 
L 147.612951 89.369766 
L 150.73595 89.836374 
L 153.858948 91.144418 
L 156.981947 92.495592 
L 160.104945 93.213369 
L 163.227943 93.178863 
L 166.350942 93.089058 
L 169.47394 94.266834 
L 172.596939 98.000103 
L 175.719937 104.82975 
L 178.842936 114.244663 
L 181.965934 124.901364 
L 185.088932 135.194138 
L 188.211931 143.867012 
L 191.334929 150.364964 
L 194.457928 154.810724 
L 197.580926 157.72083 
L 200.703925 159.662349 
L 203.826923 161.023876 
" style="fill:none;stroke:#2ca02c;stroke-linecap:square;stroke-width:1.5;"/>
   </g>
   <g id="line2d_12">
    <path clip-path="url(#pb3f2977585)" d="M 50.8 163.170605 
L 53.922998 163.07588 
L 57.045997 162.893176 
L 60.168995 162.672318 
L 63.291994 162.492245 
L 66.414992 162.309692 
L 69.537991 161.930711 
L 72.660989 161.144092 
L 75.783987 159.826501 
L 78.906986 157.898472 
L 82.029984 155.205464 
L 85.152983 151.525334 
L 88.275981 146.719327 
L 91.39898 140.745082 
L 94.521978 133.464566 
L 97.644976 124.591355 
L 100.767975 113.671962 
L 103.890973 100.449956 
L 107.013972 86.156028 
L 110.13697 73.752956 
L 113.259969 65.822845 
L 116.382967 62.50039 
L 119.505965 61.417871 
L 122.628964 59.846166 
L 125.751962 57.528405 
L 128.874961 56.192617 
L 131.997959 56.220271 
L 135.120958 55.99886 
L 138.243956 54.374139 
L 141.366954 52.105981 
L 144.489953 50.728406 
L 147.612951 51.6225 
L 150.73595 56.796601 
L 153.858948 67.626586 
L 156.981947 82.252485 
L 160.104945 97.09045 
L 163.227943 110.473179 
L 166.350942 122.680939 
L 169.47394 133.689677 
L 172.596939 142.77153 
L 175.719937 149.33237 
L 178.842936 153.324946 
L 181.965934 155.453582 
L 185.088932 156.778665 
L 188.211931 157.955391 
L 191.334929 159.216596 
L 194.457928 160.60293 
L 197.580926 161.871611 
L 200.703925 162.703331 
L 203.826923 163.073512 
" style="fill:none;stroke:#d62728;stroke-linecap:square;stroke-width:1.5;"/>
   </g>
   <g id="line2d_13">
    <path clip-path="url(#pb3f2977585)" d="M 50.8 163.194822 
L 53.922998 163.178992 
L 57.045997 163.145179 
L 60.168995 163.080058 
L 63.291994 162.96098 
L 66.414992 162.755358 
L 69.537991 162.432745 
L 72.660989 161.949542 
L 75.783987 161.189099 
L 78.906986 159.959971 
L 82.029984 158.12053 
L 85.152983 155.641963 
L 88.275981 152.396964 
L 91.39898 147.90948 
L 94.521978 141.598223 
L 97.644976 133.451802 
L 100.767975 124.231542 
L 103.890973 114.675916 
L 107.013972 104.55825 
L 110.13697 93.005482 
L 113.259969 79.798093 
L 116.382967 65.737069 
L 119.505965 51.906855 
L 122.628964 39.458085 
L 125.751962 29.803241 
L 128.874961 24.135666 
L 131.997959 22.690507 
L 135.120958 24.22675 
L 138.243956 26.917992 
L 141.366954 30.987651 
L 144.489953 38.681399 
L 147.612951 50.938182 
L 150.73595 66.337986 
L 153.858948 82.594649 
L 156.981947 97.790229 
L 160.104945 111.04775 
L 163.227943 122.355098 
L 166.350942 132.011237 
L 169.47394 140.10959 
L 172.596939 146.354643 
L 175.719937 150.675502 
L 178.842936 153.636832 
L 181.965934 155.973317 
L 185.088932 158.029391 
L 188.211931 159.743078 
L 191.334929 160.988568 
L 194.457928 161.803607 
L 197.580926 162.331085 
L 200.703925 162.682459 
L 203.826923 162.909822 
" style="fill:none;stroke:#1f77b4;stroke-linecap:square;stroke-width:1.5;"/>
   </g>
   <g id="line2d_14">
    <path clip-path="url(#pb3f2977585)" d="M 50.8 163.199641 
L 62.334693 163.074666 
L 67.717549 162.818713 
L 71.562447 162.42036 
L 74.638365 161.870955 
L 76.945303 161.258497 
L 79.252242 160.412662 
L 81.559181 159.265736 
L 83.09714 158.295339 
L 84.635099 157.130412 
L 86.173058 155.743433 
L 87.711017 154.105681 
L 89.248976 152.187835 
L 90.786935 149.960707 
L 92.324894 147.39613 
L 93.862853 144.467972 
L 95.400812 141.153266 
L 96.938771 137.433422 
L 98.47673 133.295489 
L 100.783668 126.293612 
L 103.090607 118.354217 
L 105.397545 109.541005 
L 108.473463 96.64302 
L 112.318361 79.320508 
L 117.701218 55.080088 
L 120.008156 45.597087 
L 122.315095 37.148255 
L 123.853054 32.24824 
L 125.391013 28.033704 
L 126.928972 24.57795 
L 128.466931 21.941288 
L 129.23591 20.944971 
L 130.00489 20.169283 
L 130.773869 19.617401 
L 131.542849 19.291443 
L 132.311828 19.192458 
L 133.080808 19.320418 
L 133.849787 19.674224 
L 134.618767 20.25172 
L 135.387746 21.04971 
L 136.156726 22.063991 
L 137.694685 24.719787 
L 139.232644 28.166846 
L 140.770603 32.339777 
L 142.308562 37.162101 
L 144.615501 45.424869 
L 146.922439 54.643614 
L 150.767337 71.252506 
L 156.150193 94.757265 
L 159.226111 107.230303 
L 161.53305 115.802518 
L 163.839988 123.582803 
L 166.146927 130.513058 
L 168.453865 136.576683 
L 170.760804 141.791723 
L 172.298763 144.818356 
L 173.836722 147.505901 
L 175.374681 149.875623 
L 176.91264 151.950726 
L 178.450599 153.75554 
L 179.988558 155.314813 
L 181.526517 156.653107 
L 183.833456 158.298164 
L 186.140394 159.57527 
L 188.447333 160.552831 
L 190.754271 161.290793 
L 193.830189 161.989236 
L 196.906107 162.449715 
L 200.751005 162.801519 
L 203.826923 162.96718 
L 203.826923 162.96718 
" style="fill:none;stroke:#808080;stroke-dasharray:5.55,2.4;stroke-dashoffset:0;stroke-width:1.5;"/>
   </g>
   <g id="patch_3">
    <path d="M 50.8 170.4 
L 50.8 11.992099 
" style="fill:none;stroke:#000000;stroke-linecap:square;stroke-linejoin:miter;stroke-width:0.8;"/>
   </g>
   <g id="patch_4">
    <path d="M 50.8 170.4 
L 203.826923 170.4 
" style="fill:none;stroke:#000000;stroke-linecap:square;stroke-linejoin:miter;stroke-width:0.8;"/>
   </g>
   <g id="legend_1">
    <g id="patch_5">
     <path d="M 164.918846 93.470224 
L 334.018846 93.470224 
Q 336.018846 93.470224 336.018846 91.470224 
L 336.018846 18.992099 
Q 336.018846 16.992099 334.018846 16.992099 
L 164.918846 16.992099 
Q 162.918846 16.992099 162.918846 18.992099 
L 162.918846 91.470224 
Q 162.918846 93.470224 164.918846 93.470224 
z
" style="fill:#ffffff;opacity:0.8;stroke:#cccccc;stroke-linejoin:miter;"/>
    </g>
    <g id="line2d_15">
     <path d="M 166.918846 25.092099 
L 186.918846 25.092099 
" style="fill:none;stroke:#ff7f0e;stroke-linecap:square;stroke-width:1.5;"/>
    </g>
    <g id="line2d_16"/>
    <g id="text_12">
     <!-- Not reweighted, $\log(c) = 20$ -->
     <defs>
      <path d="M 9.8125 72.90625 
L 23.09375 72.90625 
L 55.421875 11.921875 
L 55.421875 72.90625 
L 64.984375 72.90625 
L 64.984375 0 
L 51.703125 0 
L 19.390625 60.984375 
L 19.390625 0 
L 9.8125 0 
z
" id="DejaVuSans-78"/>
      <path d="M 4.203125 54.6875 
L 13.1875 54.6875 
L 24.421875 12.015625 
L 35.59375 54.6875 
L 46.1875 54.6875 
L 57.421875 12.015625 
L 68.609375 54.6875 
L 77.59375 54.6875 
L 63.28125 0 
L 52.6875 0 
L 40.921875 44.828125 
L 29.109375 0 
L 18.5 0 
z
" id="DejaVuSans-119"/>
      <path d="M 45.40625 27.984375 
Q 45.40625 37.75 41.375 43.109375 
Q 37.359375 48.484375 30.078125 48.484375 
Q 22.859375 48.484375 18.828125 43.109375 
Q 14.796875 37.75 14.796875 27.984375 
Q 14.796875 18.265625 18.828125 12.890625 
Q 22.859375 7.515625 30.078125 7.515625 
Q 37.359375 7.515625 41.375 12.890625 
Q 45.40625 18.265625 45.40625 27.984375 
z
M 54.390625 6.78125 
Q 54.390625 -7.171875 48.1875 -13.984375 
Q 42 -20.796875 29.203125 -20.796875 
Q 24.46875 -20.796875 20.265625 -20.09375 
Q 16.0625 -19.390625 12.109375 -17.921875 
L 12.109375 -9.1875 
Q 16.0625 -11.328125 19.921875 -12.34375 
Q 23.78125 -13.375 27.78125 -13.375 
Q 36.625 -13.375 41.015625 -8.765625 
Q 45.40625 -4.15625 45.40625 5.171875 
L 45.40625 9.625 
Q 42.625 4.78125 38.28125 2.390625 
Q 33.9375 0 27.875 0 
Q 17.828125 0 11.671875 7.65625 
Q 5.515625 15.328125 5.515625 27.984375 
Q 5.515625 40.671875 11.671875 48.328125 
Q 17.828125 56 27.875 56 
Q 33.9375 56 38.28125 53.609375 
Q 42.625 51.21875 45.40625 46.390625 
L 45.40625 54.6875 
L 54.390625 54.6875 
z
" id="DejaVuSans-103"/>
      <path d="M 54.890625 33.015625 
L 54.890625 0 
L 45.90625 0 
L 45.90625 32.71875 
Q 45.90625 40.484375 42.875 44.328125 
Q 39.84375 48.1875 33.796875 48.1875 
Q 26.515625 48.1875 22.3125 43.546875 
Q 18.109375 38.921875 18.109375 30.90625 
L 18.109375 0 
L 9.078125 0 
L 9.078125 75.984375 
L 18.109375 75.984375 
L 18.109375 46.1875 
Q 21.34375 51.125 25.703125 53.5625 
Q 30.078125 56 35.796875 56 
Q 45.21875 56 50.046875 50.171875 
Q 54.890625 44.34375 54.890625 33.015625 
z
" id="DejaVuSans-104"/>
      <path d="M 45.40625 46.390625 
L 45.40625 75.984375 
L 54.390625 75.984375 
L 54.390625 0 
L 45.40625 0 
L 45.40625 8.203125 
Q 42.578125 3.328125 38.25 0.953125 
Q 33.9375 -1.421875 27.875 -1.421875 
Q 17.96875 -1.421875 11.734375 6.484375 
Q 5.515625 14.40625 5.515625 27.296875 
Q 5.515625 40.1875 11.734375 48.09375 
Q 17.96875 56 27.875 56 
Q 33.9375 56 38.25 53.625 
Q 42.578125 51.265625 45.40625 46.390625 
z
M 14.796875 27.296875 
Q 14.796875 17.390625 18.875 11.75 
Q 22.953125 6.109375 30.078125 6.109375 
Q 37.203125 6.109375 41.296875 11.75 
Q 45.40625 17.390625 45.40625 27.296875 
Q 45.40625 37.203125 41.296875 42.84375 
Q 37.203125 48.484375 30.078125 48.484375 
Q 22.953125 48.484375 18.875 42.84375 
Q 14.796875 37.203125 14.796875 27.296875 
z
" id="DejaVuSans-100"/>
      <path d="M 11.71875 12.40625 
L 22.015625 12.40625 
L 22.015625 4 
L 14.015625 -11.625 
L 7.71875 -11.625 
L 11.71875 4 
z
" id="DejaVuSans-44"/>
      <path d="M 9.421875 75.984375 
L 18.40625 75.984375 
L 18.40625 0 
L 9.421875 0 
z
" id="DejaVuSans-108"/>
      <path d="M 31 75.875 
Q 24.46875 64.65625 21.28125 53.65625 
Q 18.109375 42.671875 18.109375 31.390625 
Q 18.109375 20.125 21.3125 9.0625 
Q 24.515625 -2 31 -13.1875 
L 23.1875 -13.1875 
Q 15.875 -1.703125 12.234375 9.375 
Q 8.59375 20.453125 8.59375 31.390625 
Q 8.59375 42.28125 12.203125 53.3125 
Q 15.828125 64.359375 23.1875 75.875 
z
" id="DejaVuSans-40"/>
      <path d="M 53.609375 52.59375 
L 51.8125 43.703125 
Q 48.578125 46.046875 44.9375 47.21875 
Q 41.3125 48.390625 37.40625 48.390625 
Q 33.109375 48.390625 29.21875 46.875 
Q 25.34375 45.359375 22.703125 42.578125 
Q 18.5 38.328125 16.203125 32.609375 
Q 13.921875 26.90625 13.921875 20.796875 
Q 13.921875 13.421875 17.609375 9.8125 
Q 21.296875 6.203125 28.8125 6.203125 
Q 32.515625 6.203125 36.6875 7.328125 
Q 40.875 8.453125 45.40625 10.6875 
L 43.703125 1.8125 
Q 39.796875 0.203125 35.671875 -0.609375 
Q 31.546875 -1.421875 27.203125 -1.421875 
Q 16.3125 -1.421875 10.453125 4.015625 
Q 4.59375 9.46875 4.59375 19.578125 
Q 4.59375 28.078125 7.640625 35.234375 
Q 10.6875 42.390625 16.703125 48.09375 
Q 20.796875 52 26.3125 54 
Q 31.84375 56 38.375 56 
Q 42.1875 56 45.9375 55.140625 
Q 49.703125 54.296875 53.609375 52.59375 
z
" id="DejaVuSans-Oblique-99"/>
      <path d="M 8.015625 75.875 
L 15.828125 75.875 
Q 23.140625 64.359375 26.78125 53.3125 
Q 30.421875 42.28125 30.421875 31.390625 
Q 30.421875 20.453125 26.78125 9.375 
Q 23.140625 -1.703125 15.828125 -13.1875 
L 8.015625 -13.1875 
Q 14.5 -2 17.703125 9.0625 
Q 20.90625 20.125 20.90625 31.390625 
Q 20.90625 42.671875 17.703125 53.65625 
Q 14.5 64.65625 8.015625 75.875 
z
" id="DejaVuSans-41"/>
      <path d="M 10.59375 45.40625 
L 73.1875 45.40625 
L 73.1875 37.203125 
L 10.59375 37.203125 
z
M 10.59375 25.484375 
L 73.1875 25.484375 
L 73.1875 17.1875 
L 10.59375 17.1875 
z
" id="DejaVuSans-61"/>
     </defs>
     <g transform="translate(194.918846 28.592099)scale(0.1 -0.1)">
      <use transform="translate(0 0.015625)" xlink:href="#DejaVuSans-78"/>
      <use transform="translate(74.804688 0.015625)" xlink:href="#DejaVuSans-111"/>
      <use transform="translate(135.986328 0.015625)" xlink:href="#DejaVuSans-116"/>
      <use transform="translate(175.195312 0.015625)" xlink:href="#DejaVuSans-32"/>
      <use transform="translate(206.982422 0.015625)" xlink:href="#DejaVuSans-114"/>
      <use transform="translate(248.095703 0.015625)" xlink:href="#DejaVuSans-101"/>
      <use transform="translate(309.619141 0.015625)" xlink:href="#DejaVuSans-119"/>
      <use transform="translate(391.40625 0.015625)" xlink:href="#DejaVuSans-101"/>
      <use transform="translate(452.929688 0.015625)" xlink:href="#DejaVuSans-105"/>
      <use transform="translate(480.712891 0.015625)" xlink:href="#DejaVuSans-103"/>
      <use transform="translate(544.189453 0.015625)" xlink:href="#DejaVuSans-104"/>
      <use transform="translate(607.568359 0.015625)" xlink:href="#DejaVuSans-116"/>
      <use transform="translate(646.777344 0.015625)" xlink:href="#DejaVuSans-101"/>
      <use transform="translate(708.300781 0.015625)" xlink:href="#DejaVuSans-100"/>
      <use transform="translate(771.777344 0.015625)" xlink:href="#DejaVuSans-44"/>
      <use transform="translate(803.564453 0.015625)" xlink:href="#DejaVuSans-32"/>
      <use transform="translate(835.351562 0.015625)" xlink:href="#DejaVuSans-108"/>
      <use transform="translate(863.134766 0.015625)" xlink:href="#DejaVuSans-111"/>
      <use transform="translate(924.316406 0.015625)" xlink:href="#DejaVuSans-103"/>
      <use transform="translate(987.792969 0.015625)" xlink:href="#DejaVuSans-40"/>
      <use transform="translate(1026.806641 0.015625)" xlink:href="#DejaVuSans-Oblique-99"/>
      <use transform="translate(1081.787109 0.015625)" xlink:href="#DejaVuSans-41"/>
      <use transform="translate(1140.283203 0.015625)" xlink:href="#DejaVuSans-61"/>
      <use transform="translate(1243.554688 0.015625)" xlink:href="#DejaVuSans-50"/>
      <use transform="translate(1307.177734 0.015625)" xlink:href="#DejaVuSans-48"/>
     </g>
    </g>
    <g id="line2d_17">
     <path d="M 166.918846 39.792099 
L 186.918846 39.792099 
" style="fill:none;stroke:#2ca02c;stroke-linecap:square;stroke-width:1.5;"/>
    </g>
    <g id="line2d_18"/>
    <g id="text_13">
     <!-- Not reweighted, $\log(c) = 23$ -->
     <defs>
      <path d="M 40.578125 39.3125 
Q 47.65625 37.796875 51.625 33 
Q 55.609375 28.21875 55.609375 21.1875 
Q 55.609375 10.40625 48.1875 4.484375 
Q 40.765625 -1.421875 27.09375 -1.421875 
Q 22.515625 -1.421875 17.65625 -0.515625 
Q 12.796875 0.390625 7.625 2.203125 
L 7.625 11.71875 
Q 11.71875 9.328125 16.59375 8.109375 
Q 21.484375 6.890625 26.8125 6.890625 
Q 36.078125 6.890625 40.9375 10.546875 
Q 45.796875 14.203125 45.796875 21.1875 
Q 45.796875 27.640625 41.28125 31.265625 
Q 36.765625 34.90625 28.71875 34.90625 
L 20.21875 34.90625 
L 20.21875 43.015625 
L 29.109375 43.015625 
Q 36.375 43.015625 40.234375 45.921875 
Q 44.09375 48.828125 44.09375 54.296875 
Q 44.09375 59.90625 40.109375 62.90625 
Q 36.140625 65.921875 28.71875 65.921875 
Q 24.65625 65.921875 20.015625 65.03125 
Q 15.375 64.15625 9.8125 62.3125 
L 9.8125 71.09375 
Q 15.4375 72.65625 20.34375 73.4375 
Q 25.25 74.21875 29.59375 74.21875 
Q 40.828125 74.21875 47.359375 69.109375 
Q 53.90625 64.015625 53.90625 55.328125 
Q 53.90625 49.265625 50.4375 45.09375 
Q 46.96875 40.921875 40.578125 39.3125 
z
" id="DejaVuSans-51"/>
     </defs>
     <g transform="translate(194.918846 43.292099)scale(0.1 -0.1)">
      <use transform="translate(0 0.015625)" xlink:href="#DejaVuSans-78"/>
      <use transform="translate(74.804688 0.015625)" xlink:href="#DejaVuSans-111"/>
      <use transform="translate(135.986328 0.015625)" xlink:href="#DejaVuSans-116"/>
      <use transform="translate(175.195312 0.015625)" xlink:href="#DejaVuSans-32"/>
      <use transform="translate(206.982422 0.015625)" xlink:href="#DejaVuSans-114"/>
      <use transform="translate(248.095703 0.015625)" xlink:href="#DejaVuSans-101"/>
      <use transform="translate(309.619141 0.015625)" xlink:href="#DejaVuSans-119"/>
      <use transform="translate(391.40625 0.015625)" xlink:href="#DejaVuSans-101"/>
      <use transform="translate(452.929688 0.015625)" xlink:href="#DejaVuSans-105"/>
      <use transform="translate(480.712891 0.015625)" xlink:href="#DejaVuSans-103"/>
      <use transform="translate(544.189453 0.015625)" xlink:href="#DejaVuSans-104"/>
      <use transform="translate(607.568359 0.015625)" xlink:href="#DejaVuSans-116"/>
      <use transform="translate(646.777344 0.015625)" xlink:href="#DejaVuSans-101"/>
      <use transform="translate(708.300781 0.015625)" xlink:href="#DejaVuSans-100"/>
      <use transform="translate(771.777344 0.015625)" xlink:href="#DejaVuSans-44"/>
      <use transform="translate(803.564453 0.015625)" xlink:href="#DejaVuSans-32"/>
      <use transform="translate(835.351562 0.015625)" xlink:href="#DejaVuSans-108"/>
      <use transform="translate(863.134766 0.015625)" xlink:href="#DejaVuSans-111"/>
      <use transform="translate(924.316406 0.015625)" xlink:href="#DejaVuSans-103"/>
      <use transform="translate(987.792969 0.015625)" xlink:href="#DejaVuSans-40"/>
      <use transform="translate(1026.806641 0.015625)" xlink:href="#DejaVuSans-Oblique-99"/>
      <use transform="translate(1081.787109 0.015625)" xlink:href="#DejaVuSans-41"/>
      <use transform="translate(1140.283203 0.015625)" xlink:href="#DejaVuSans-61"/>
      <use transform="translate(1243.554688 0.015625)" xlink:href="#DejaVuSans-50"/>
      <use transform="translate(1307.177734 0.015625)" xlink:href="#DejaVuSans-51"/>
     </g>
    </g>
    <g id="line2d_19">
     <path d="M 166.918846 54.492099 
L 186.918846 54.492099 
" style="fill:none;stroke:#d62728;stroke-linecap:square;stroke-width:1.5;"/>
    </g>
    <g id="line2d_20"/>
    <g id="text_14">
     <!-- Not reweighted, $\log(c) = 25$ -->
     <g transform="translate(194.918846 57.992099)scale(0.1 -0.1)">
      <use transform="translate(0 0.015625)" xlink:href="#DejaVuSans-78"/>
      <use transform="translate(74.804688 0.015625)" xlink:href="#DejaVuSans-111"/>
      <use transform="translate(135.986328 0.015625)" xlink:href="#DejaVuSans-116"/>
      <use transform="translate(175.195312 0.015625)" xlink:href="#DejaVuSans-32"/>
      <use transform="translate(206.982422 0.015625)" xlink:href="#DejaVuSans-114"/>
      <use transform="translate(248.095703 0.015625)" xlink:href="#DejaVuSans-101"/>
      <use transform="translate(309.619141 0.015625)" xlink:href="#DejaVuSans-119"/>
      <use transform="translate(391.40625 0.015625)" xlink:href="#DejaVuSans-101"/>
      <use transform="translate(452.929688 0.015625)" xlink:href="#DejaVuSans-105"/>
      <use transform="translate(480.712891 0.015625)" xlink:href="#DejaVuSans-103"/>
      <use transform="translate(544.189453 0.015625)" xlink:href="#DejaVuSans-104"/>
      <use transform="translate(607.568359 0.015625)" xlink:href="#DejaVuSans-116"/>
      <use transform="translate(646.777344 0.015625)" xlink:href="#DejaVuSans-101"/>
      <use transform="translate(708.300781 0.015625)" xlink:href="#DejaVuSans-100"/>
      <use transform="translate(771.777344 0.015625)" xlink:href="#DejaVuSans-44"/>
      <use transform="translate(803.564453 0.015625)" xlink:href="#DejaVuSans-32"/>
      <use transform="translate(835.351562 0.015625)" xlink:href="#DejaVuSans-108"/>
      <use transform="translate(863.134766 0.015625)" xlink:href="#DejaVuSans-111"/>
      <use transform="translate(924.316406 0.015625)" xlink:href="#DejaVuSans-103"/>
      <use transform="translate(987.792969 0.015625)" xlink:href="#DejaVuSans-40"/>
      <use transform="translate(1026.806641 0.015625)" xlink:href="#DejaVuSans-Oblique-99"/>
      <use transform="translate(1081.787109 0.015625)" xlink:href="#DejaVuSans-41"/>
      <use transform="translate(1140.283203 0.015625)" xlink:href="#DejaVuSans-61"/>
      <use transform="translate(1243.554688 0.015625)" xlink:href="#DejaVuSans-50"/>
      <use transform="translate(1307.177734 0.015625)" xlink:href="#DejaVuSans-53"/>
     </g>
    </g>
    <g id="line2d_21">
     <path d="M 166.918846 69.192099 
L 186.918846 69.192099 
" style="fill:none;stroke:#1f77b4;stroke-linecap:square;stroke-width:1.5;"/>
    </g>
    <g id="line2d_22"/>
    <g id="text_15">
     <!-- Reweighted, $\log(c) =20$ -->
     <defs>
      <path d="M 44.390625 34.1875 
Q 47.5625 33.109375 50.5625 29.59375 
Q 53.5625 26.078125 56.59375 19.921875 
L 66.609375 0 
L 56 0 
L 46.6875 18.703125 
Q 43.0625 26.03125 39.671875 28.421875 
Q 36.28125 30.8125 30.421875 30.8125 
L 19.671875 30.8125 
L 19.671875 0 
L 9.8125 0 
L 9.8125 72.90625 
L 32.078125 72.90625 
Q 44.578125 72.90625 50.734375 67.671875 
Q 56.890625 62.453125 56.890625 51.90625 
Q 56.890625 45.015625 53.6875 40.46875 
Q 50.484375 35.9375 44.390625 34.1875 
z
M 19.671875 64.796875 
L 19.671875 38.921875 
L 32.078125 38.921875 
Q 39.203125 38.921875 42.84375 42.21875 
Q 46.484375 45.515625 46.484375 51.90625 
Q 46.484375 58.296875 42.84375 61.546875 
Q 39.203125 64.796875 32.078125 64.796875 
z
" id="DejaVuSans-82"/>
     </defs>
     <g transform="translate(194.918846 72.692099)scale(0.1 -0.1)">
      <use transform="translate(0 0.015625)" xlink:href="#DejaVuSans-82"/>
      <use transform="translate(69.482422 0.015625)" xlink:href="#DejaVuSans-101"/>
      <use transform="translate(131.005859 0.015625)" xlink:href="#DejaVuSans-119"/>
      <use transform="translate(212.792969 0.015625)" xlink:href="#DejaVuSans-101"/>
      <use transform="translate(274.316406 0.015625)" xlink:href="#DejaVuSans-105"/>
      <use transform="translate(302.099609 0.015625)" xlink:href="#DejaVuSans-103"/>
      <use transform="translate(365.576172 0.015625)" xlink:href="#DejaVuSans-104"/>
      <use transform="translate(428.955078 0.015625)" xlink:href="#DejaVuSans-116"/>
      <use transform="translate(468.164062 0.015625)" xlink:href="#DejaVuSans-101"/>
      <use transform="translate(529.6875 0.015625)" xlink:href="#DejaVuSans-100"/>
      <use transform="translate(593.164062 0.015625)" xlink:href="#DejaVuSans-44"/>
      <use transform="translate(624.951172 0.015625)" xlink:href="#DejaVuSans-32"/>
      <use transform="translate(656.738281 0.015625)" xlink:href="#DejaVuSans-108"/>
      <use transform="translate(684.521484 0.015625)" xlink:href="#DejaVuSans-111"/>
      <use transform="translate(745.703125 0.015625)" xlink:href="#DejaVuSans-103"/>
      <use transform="translate(809.179688 0.015625)" xlink:href="#DejaVuSans-40"/>
      <use transform="translate(848.193359 0.015625)" xlink:href="#DejaVuSans-Oblique-99"/>
      <use transform="translate(903.173828 0.015625)" xlink:href="#DejaVuSans-41"/>
      <use transform="translate(961.669922 0.015625)" xlink:href="#DejaVuSans-61"/>
      <use transform="translate(1064.941406 0.015625)" xlink:href="#DejaVuSans-50"/>
      <use transform="translate(1128.564453 0.015625)" xlink:href="#DejaVuSans-48"/>
     </g>
    </g>
    <g id="line2d_23">
     <path d="M 166.918846 83.890536 
L 186.918846 83.890536 
" style="fill:none;stroke:#808080;stroke-dasharray:5.55,2.4;stroke-dashoffset:0;stroke-width:1.5;"/>
    </g>
    <g id="line2d_24"/>
    <g id="text_16">
     <!-- True posterior -->
     <defs>
      <path d="M -0.296875 72.90625 
L 61.375 72.90625 
L 61.375 64.59375 
L 35.5 64.59375 
L 35.5 0 
L 25.59375 0 
L 25.59375 64.59375 
L -0.296875 64.59375 
z
" id="DejaVuSans-84"/>
      <path d="M 8.5 21.578125 
L 8.5 54.6875 
L 17.484375 54.6875 
L 17.484375 21.921875 
Q 17.484375 14.15625 20.5 10.265625 
Q 23.53125 6.390625 29.59375 6.390625 
Q 36.859375 6.390625 41.078125 11.03125 
Q 45.3125 15.671875 45.3125 23.6875 
L 45.3125 54.6875 
L 54.296875 54.6875 
L 54.296875 0 
L 45.3125 0 
L 45.3125 8.40625 
Q 42.046875 3.421875 37.71875 1 
Q 33.40625 -1.421875 27.6875 -1.421875 
Q 18.265625 -1.421875 13.375 4.4375 
Q 8.5 10.296875 8.5 21.578125 
z
M 31.109375 56 
z
" id="DejaVuSans-117"/>
      <path d="M 18.109375 8.203125 
L 18.109375 -20.796875 
L 9.078125 -20.796875 
L 9.078125 54.6875 
L 18.109375 54.6875 
L 18.109375 46.390625 
Q 20.953125 51.265625 25.265625 53.625 
Q 29.59375 56 35.59375 56 
Q 45.5625 56 51.78125 48.09375 
Q 58.015625 40.1875 58.015625 27.296875 
Q 58.015625 14.40625 51.78125 6.484375 
Q 45.5625 -1.421875 35.59375 -1.421875 
Q 29.59375 -1.421875 25.265625 0.953125 
Q 20.953125 3.328125 18.109375 8.203125 
z
M 48.6875 27.296875 
Q 48.6875 37.203125 44.609375 42.84375 
Q 40.53125 48.484375 33.40625 48.484375 
Q 26.265625 48.484375 22.1875 42.84375 
Q 18.109375 37.203125 18.109375 27.296875 
Q 18.109375 17.390625 22.1875 11.75 
Q 26.265625 6.109375 33.40625 6.109375 
Q 40.53125 6.109375 44.609375 11.75 
Q 48.6875 17.390625 48.6875 27.296875 
z
" id="DejaVuSans-112"/>
     </defs>
     <g transform="translate(194.918846 87.390536)scale(0.1 -0.1)">
      <use xlink:href="#DejaVuSans-84"/>
      <use x="60.865234" xlink:href="#DejaVuSans-114"/>
      <use x="101.978516" xlink:href="#DejaVuSans-117"/>
      <use x="165.357422" xlink:href="#DejaVuSans-101"/>
      <use x="226.880859" xlink:href="#DejaVuSans-32"/>
      <use x="258.667969" xlink:href="#DejaVuSans-112"/>
      <use x="322.144531" xlink:href="#DejaVuSans-111"/>
      <use x="383.326172" xlink:href="#DejaVuSans-115"/>
      <use x="435.425781" xlink:href="#DejaVuSans-116"/>
      <use x="474.634766" xlink:href="#DejaVuSans-101"/>
      <use x="536.158203" xlink:href="#DejaVuSans-114"/>
      <use x="577.271484" xlink:href="#DejaVuSans-105"/>
      <use x="605.054688" xlink:href="#DejaVuSans-111"/>
      <use x="666.236328" xlink:href="#DejaVuSans-114"/>
     </g>
    </g>
   </g>
  </g>
 </g>
 <defs>
  <clipPath id="pb3f2977585">
   <rect height="158.407901" width="153.026923" x="50.8" y="11.992099"/>
  </clipPath>
 </defs>
</svg>
