<?xml version="1.0" encoding="utf-8" standalone="no"?>
<!DOCTYPE svg PUBLIC "-//W3C//DTD SVG 1.1//EN"
  "http://www.w3.org/Graphics/SVG/1.1/DTD/svg11.dtd">
<!-- Created with matplotlib (https://matplotlib.org/) -->
<svg height="432pt" version="1.1" viewBox="0 0 576 432" width="576pt" xmlns="http://www.w3.org/2000/svg" xmlns:xlink="http://www.w3.org/1999/xlink">
 <defs>
  <style type="text/css">
*{stroke-linecap:butt;stroke-linejoin:round;}
  </style>
 </defs>
 <g id="figure_1">
  <g id="patch_1">
   <path d="M 0 432 
L 576 432 
L 576 0 
L 0 0 
z
" style="fill:#ffffff;"/>
  </g>
  <g id="axes_1">
   <g id="patch_2">
    <path d="M 54.05 107.478388 
L 181.498039 107.478388 
L 181.498039 10.8 
L 54.05 10.8 
z
" style="fill:#ffffff;"/>
   </g>
   <g id="matplotlib.axis_1">
    <g id="xtick_1">
     <g id="line2d_1">
      <defs>
       <path d="M 0 0 
L 0 3.5 
" id="m4baf63deac" style="stroke:#000000;stroke-width:0.8;"/>
      </defs>
      <g>
       <use style="stroke:#000000;stroke-width:0.8;" x="54.05" xlink:href="#m4baf63deac" y="107.478388"/>
      </g>
     </g>
     <g id="text_1">
      <!-- −3.0 -->
      <defs>
       <path d="M 10.59375 35.5 
L 73.1875 35.5 
L 73.1875 27.203125 
L 10.59375 27.203125 
z
" id="DejaVuSans-8722"/>
       <path d="M 40.578125 39.3125 
Q 47.65625 37.796875 51.625 33 
Q 55.609375 28.21875 55.609375 21.1875 
Q 55.609375 10.40625 48.1875 4.484375 
Q 40.765625 -1.421875 27.09375 -1.421875 
Q 22.515625 -1.421875 17.65625 -0.515625 
Q 12.796875 0.390625 7.625 2.203125 
L 7.625 11.71875 
Q 11.71875 9.328125 16.59375 8.109375 
Q 21.484375 6.890625 26.8125 6.890625 
Q 36.078125 6.890625 40.9375 10.546875 
Q 45.796875 14.203125 45.796875 21.1875 
Q 45.796875 27.640625 41.28125 31.265625 
Q 36.765625 34.90625 28.71875 34.90625 
L 20.21875 34.90625 
L 20.21875 43.015625 
L 29.109375 43.015625 
Q 36.375 43.015625 40.234375 45.921875 
Q 44.09375 48.828125 44.09375 54.296875 
Q 44.09375 59.90625 40.109375 62.90625 
Q 36.140625 65.921875 28.71875 65.921875 
Q 24.65625 65.921875 20.015625 65.03125 
Q 15.375 64.15625 9.8125 62.3125 
L 9.8125 71.09375 
Q 15.4375 72.65625 20.34375 73.4375 
Q 25.25 74.21875 29.59375 74.21875 
Q 40.828125 74.21875 47.359375 69.109375 
Q 53.90625 64.015625 53.90625 55.328125 
Q 53.90625 49.265625 50.4375 45.09375 
Q 46.96875 40.921875 40.578125 39.3125 
z
" id="DejaVuSans-51"/>
       <path d="M 10.6875 12.40625 
L 21 12.40625 
L 21 0 
L 10.6875 0 
z
" id="DejaVuSans-46"/>
       <path d="M 31.78125 66.40625 
Q 24.171875 66.40625 20.328125 58.90625 
Q 16.5 51.421875 16.5 36.375 
Q 16.5 21.390625 20.328125 13.890625 
Q 24.171875 6.390625 31.78125 6.390625 
Q 39.453125 6.390625 43.28125 13.890625 
Q 47.125 21.390625 47.125 36.375 
Q 47.125 51.421875 43.28125 58.90625 
Q 39.453125 66.40625 31.78125 66.40625 
z
M 31.78125 74.21875 
Q 44.046875 74.21875 50.515625 64.515625 
Q 56.984375 54.828125 56.984375 36.375 
Q 56.984375 17.96875 50.515625 8.265625 
Q 44.046875 -1.421875 31.78125 -1.421875 
Q 19.53125 -1.421875 13.0625 8.265625 
Q 6.59375 17.96875 6.59375 36.375 
Q 6.59375 54.828125 13.0625 64.515625 
Q 19.53125 74.21875 31.78125 74.21875 
z
" id="DejaVuSans-48"/>
      </defs>
      <g transform="translate(41.908594 122.076825)scale(0.1 -0.1)">
       <use xlink:href="#DejaVuSans-8722"/>
       <use x="83.789062" xlink:href="#DejaVuSans-51"/>
       <use x="147.412109" xlink:href="#DejaVuSans-46"/>
       <use x="179.199219" xlink:href="#DejaVuSans-48"/>
      </g>
     </g>
    </g>
    <g id="xtick_2">
     <g id="line2d_2">
      <g>
       <use style="stroke:#000000;stroke-width:0.8;" x="85.91201" xlink:href="#m4baf63deac" y="107.478388"/>
      </g>
     </g>
     <g id="text_2">
      <!-- −2.5 -->
      <defs>
       <path d="M 19.1875 8.296875 
L 53.609375 8.296875 
L 53.609375 0 
L 7.328125 0 
L 7.328125 8.296875 
Q 12.9375 14.109375 22.625 23.890625 
Q 32.328125 33.6875 34.8125 36.53125 
Q 39.546875 41.84375 41.421875 45.53125 
Q 43.3125 49.21875 43.3125 52.78125 
Q 43.3125 58.59375 39.234375 62.25 
Q 35.15625 65.921875 28.609375 65.921875 
Q 23.96875 65.921875 18.8125 64.3125 
Q 13.671875 62.703125 7.8125 59.421875 
L 7.8125 69.390625 
Q 13.765625 71.78125 18.9375 73 
Q 24.125 74.21875 28.421875 74.21875 
Q 39.75 74.21875 46.484375 68.546875 
Q 53.21875 62.890625 53.21875 53.421875 
Q 53.21875 48.921875 51.53125 44.890625 
Q 49.859375 40.875 45.40625 35.40625 
Q 44.1875 33.984375 37.640625 27.21875 
Q 31.109375 20.453125 19.1875 8.296875 
z
" id="DejaVuSans-50"/>
       <path d="M 10.796875 72.90625 
L 49.515625 72.90625 
L 49.515625 64.59375 
L 19.828125 64.59375 
L 19.828125 46.734375 
Q 21.96875 47.46875 24.109375 47.828125 
Q 26.265625 48.1875 28.421875 48.1875 
Q 40.625 48.1875 47.75 41.5 
Q 54.890625 34.8125 54.890625 23.390625 
Q 54.890625 11.625 47.5625 5.09375 
Q 40.234375 -1.421875 26.90625 -1.421875 
Q 22.3125 -1.421875 17.546875 -0.640625 
Q 12.796875 0.140625 7.71875 1.703125 
L 7.71875 11.625 
Q 12.109375 9.234375 16.796875 8.0625 
Q 21.484375 6.890625 26.703125 6.890625 
Q 35.15625 6.890625 40.078125 11.328125 
Q 45.015625 15.765625 45.015625 23.390625 
Q 45.015625 31 40.078125 35.4375 
Q 35.15625 39.890625 26.703125 39.890625 
Q 22.75 39.890625 18.8125 39.015625 
Q 14.890625 38.140625 10.796875 36.28125 
z
" id="DejaVuSans-53"/>
      </defs>
      <g transform="translate(73.770604 122.076825)scale(0.1 -0.1)">
       <use xlink:href="#DejaVuSans-8722"/>
       <use x="83.789062" xlink:href="#DejaVuSans-50"/>
       <use x="147.412109" xlink:href="#DejaVuSans-46"/>
       <use x="179.199219" xlink:href="#DejaVuSans-53"/>
      </g>
     </g>
    </g>
    <g id="xtick_3">
     <g id="line2d_3">
      <g>
       <use style="stroke:#000000;stroke-width:0.8;" x="117.77402" xlink:href="#m4baf63deac" y="107.478388"/>
      </g>
     </g>
     <g id="text_3">
      <!-- −2.0 -->
      <g transform="translate(105.632613 122.076825)scale(0.1 -0.1)">
       <use xlink:href="#DejaVuSans-8722"/>
       <use x="83.789062" xlink:href="#DejaVuSans-50"/>
       <use x="147.412109" xlink:href="#DejaVuSans-46"/>
       <use x="179.199219" xlink:href="#DejaVuSans-48"/>
      </g>
     </g>
    </g>
    <g id="xtick_4">
     <g id="line2d_4">
      <g>
       <use style="stroke:#000000;stroke-width:0.8;" x="149.636029" xlink:href="#m4baf63deac" y="107.478388"/>
      </g>
     </g>
     <g id="text_4">
      <!-- −1.5 -->
      <defs>
       <path d="M 12.40625 8.296875 
L 28.515625 8.296875 
L 28.515625 63.921875 
L 10.984375 60.40625 
L 10.984375 69.390625 
L 28.421875 72.90625 
L 38.28125 72.90625 
L 38.28125 8.296875 
L 54.390625 8.296875 
L 54.390625 0 
L 12.40625 0 
z
" id="DejaVuSans-49"/>
      </defs>
      <g transform="translate(137.494623 122.076825)scale(0.1 -0.1)">
       <use xlink:href="#DejaVuSans-8722"/>
       <use x="83.789062" xlink:href="#DejaVuSans-49"/>
       <use x="147.412109" xlink:href="#DejaVuSans-46"/>
       <use x="179.199219" xlink:href="#DejaVuSans-53"/>
      </g>
     </g>
    </g>
    <g id="xtick_5">
     <g id="line2d_5">
      <g>
       <use style="stroke:#000000;stroke-width:0.8;" x="181.498039" xlink:href="#m4baf63deac" y="107.478388"/>
      </g>
     </g>
     <g id="text_5">
      <!-- −1.0 -->
      <g transform="translate(169.356633 122.076825)scale(0.1 -0.1)">
       <use xlink:href="#DejaVuSans-8722"/>
       <use x="83.789062" xlink:href="#DejaVuSans-49"/>
       <use x="147.412109" xlink:href="#DejaVuSans-46"/>
       <use x="179.199219" xlink:href="#DejaVuSans-48"/>
      </g>
     </g>
    </g>
    <g id="text_6">
     <!-- log_division_rate -->
     <defs>
      <path d="M 9.421875 75.984375 
L 18.40625 75.984375 
L 18.40625 0 
L 9.421875 0 
z
" id="DejaVuSans-108"/>
      <path d="M 30.609375 48.390625 
Q 23.390625 48.390625 19.1875 42.75 
Q 14.984375 37.109375 14.984375 27.296875 
Q 14.984375 17.484375 19.15625 11.84375 
Q 23.34375 6.203125 30.609375 6.203125 
Q 37.796875 6.203125 41.984375 11.859375 
Q 46.1875 17.53125 46.1875 27.296875 
Q 46.1875 37.015625 41.984375 42.703125 
Q 37.796875 48.390625 30.609375 48.390625 
z
M 30.609375 56 
Q 42.328125 56 49.015625 48.375 
Q 55.71875 40.765625 55.71875 27.296875 
Q 55.71875 13.875 49.015625 6.21875 
Q 42.328125 -1.421875 30.609375 -1.421875 
Q 18.84375 -1.421875 12.171875 6.21875 
Q 5.515625 13.875 5.515625 27.296875 
Q 5.515625 40.765625 12.171875 48.375 
Q 18.84375 56 30.609375 56 
z
" id="DejaVuSans-111"/>
      <path d="M 45.40625 27.984375 
Q 45.40625 37.75 41.375 43.109375 
Q 37.359375 48.484375 30.078125 48.484375 
Q 22.859375 48.484375 18.828125 43.109375 
Q 14.796875 37.75 14.796875 27.984375 
Q 14.796875 18.265625 18.828125 12.890625 
Q 22.859375 7.515625 30.078125 7.515625 
Q 37.359375 7.515625 41.375 12.890625 
Q 45.40625 18.265625 45.40625 27.984375 
z
M 54.390625 6.78125 
Q 54.390625 -7.171875 48.1875 -13.984375 
Q 42 -20.796875 29.203125 -20.796875 
Q 24.46875 -20.796875 20.265625 -20.09375 
Q 16.0625 -19.390625 12.109375 -17.921875 
L 12.109375 -9.1875 
Q 16.0625 -11.328125 19.921875 -12.34375 
Q 23.78125 -13.375 27.78125 -13.375 
Q 36.625 -13.375 41.015625 -8.765625 
Q 45.40625 -4.15625 45.40625 5.171875 
L 45.40625 9.625 
Q 42.625 4.78125 38.28125 2.390625 
Q 33.9375 0 27.875 0 
Q 17.828125 0 11.671875 7.65625 
Q 5.515625 15.328125 5.515625 27.984375 
Q 5.515625 40.671875 11.671875 48.328125 
Q 17.828125 56 27.875 56 
Q 33.9375 56 38.28125 53.609375 
Q 42.625 51.21875 45.40625 46.390625 
L 45.40625 54.6875 
L 54.390625 54.6875 
z
" id="DejaVuSans-103"/>
      <path d="M 50.984375 -16.609375 
L 50.984375 -23.578125 
L -0.984375 -23.578125 
L -0.984375 -16.609375 
z
" id="DejaVuSans-95"/>
      <path d="M 45.40625 46.390625 
L 45.40625 75.984375 
L 54.390625 75.984375 
L 54.390625 0 
L 45.40625 0 
L 45.40625 8.203125 
Q 42.578125 3.328125 38.25 0.953125 
Q 33.9375 -1.421875 27.875 -1.421875 
Q 17.96875 -1.421875 11.734375 6.484375 
Q 5.515625 14.40625 5.515625 27.296875 
Q 5.515625 40.1875 11.734375 48.09375 
Q 17.96875 56 27.875 56 
Q 33.9375 56 38.25 53.625 
Q 42.578125 51.265625 45.40625 46.390625 
z
M 14.796875 27.296875 
Q 14.796875 17.390625 18.875 11.75 
Q 22.953125 6.109375 30.078125 6.109375 
Q 37.203125 6.109375 41.296875 11.75 
Q 45.40625 17.390625 45.40625 27.296875 
Q 45.40625 37.203125 41.296875 42.84375 
Q 37.203125 48.484375 30.078125 48.484375 
Q 22.953125 48.484375 18.875 42.84375 
Q 14.796875 37.203125 14.796875 27.296875 
z
" id="DejaVuSans-100"/>
      <path d="M 9.421875 54.6875 
L 18.40625 54.6875 
L 18.40625 0 
L 9.421875 0 
z
M 9.421875 75.984375 
L 18.40625 75.984375 
L 18.40625 64.59375 
L 9.421875 64.59375 
z
" id="DejaVuSans-105"/>
      <path d="M 2.984375 54.6875 
L 12.5 54.6875 
L 29.59375 8.796875 
L 46.6875 54.6875 
L 56.203125 54.6875 
L 35.6875 0 
L 23.484375 0 
z
" id="DejaVuSans-118"/>
      <path d="M 44.28125 53.078125 
L 44.28125 44.578125 
Q 40.484375 46.53125 36.375 47.5 
Q 32.28125 48.484375 27.875 48.484375 
Q 21.1875 48.484375 17.84375 46.4375 
Q 14.5 44.390625 14.5 40.28125 
Q 14.5 37.15625 16.890625 35.375 
Q 19.28125 33.59375 26.515625 31.984375 
L 29.59375 31.296875 
Q 39.15625 29.25 43.1875 25.515625 
Q 47.21875 21.78125 47.21875 15.09375 
Q 47.21875 7.46875 41.1875 3.015625 
Q 35.15625 -1.421875 24.609375 -1.421875 
Q 20.21875 -1.421875 15.453125 -0.5625 
Q 10.6875 0.296875 5.421875 2 
L 5.421875 11.28125 
Q 10.40625 8.6875 15.234375 7.390625 
Q 20.0625 6.109375 24.8125 6.109375 
Q 31.15625 6.109375 34.5625 8.28125 
Q 37.984375 10.453125 37.984375 14.40625 
Q 37.984375 18.0625 35.515625 20.015625 
Q 33.0625 21.96875 24.703125 23.78125 
L 21.578125 24.515625 
Q 13.234375 26.265625 9.515625 29.90625 
Q 5.8125 33.546875 5.8125 39.890625 
Q 5.8125 47.609375 11.28125 51.796875 
Q 16.75 56 26.8125 56 
Q 31.78125 56 36.171875 55.265625 
Q 40.578125 54.546875 44.28125 53.078125 
z
" id="DejaVuSans-115"/>
      <path d="M 54.890625 33.015625 
L 54.890625 0 
L 45.90625 0 
L 45.90625 32.71875 
Q 45.90625 40.484375 42.875 44.328125 
Q 39.84375 48.1875 33.796875 48.1875 
Q 26.515625 48.1875 22.3125 43.546875 
Q 18.109375 38.921875 18.109375 30.90625 
L 18.109375 0 
L 9.078125 0 
L 9.078125 54.6875 
L 18.109375 54.6875 
L 18.109375 46.1875 
Q 21.34375 51.125 25.703125 53.5625 
Q 30.078125 56 35.796875 56 
Q 45.21875 56 50.046875 50.171875 
Q 54.890625 44.34375 54.890625 33.015625 
z
" id="DejaVuSans-110"/>
      <path d="M 41.109375 46.296875 
Q 39.59375 47.171875 37.8125 47.578125 
Q 36.03125 48 33.890625 48 
Q 26.265625 48 22.1875 43.046875 
Q 18.109375 38.09375 18.109375 28.8125 
L 18.109375 0 
L 9.078125 0 
L 9.078125 54.6875 
L 18.109375 54.6875 
L 18.109375 46.1875 
Q 20.953125 51.171875 25.484375 53.578125 
Q 30.03125 56 36.53125 56 
Q 37.453125 56 38.578125 55.875 
Q 39.703125 55.765625 41.0625 55.515625 
z
" id="DejaVuSans-114"/>
      <path d="M 34.28125 27.484375 
Q 23.390625 27.484375 19.1875 25 
Q 14.984375 22.515625 14.984375 16.5 
Q 14.984375 11.71875 18.140625 8.90625 
Q 21.296875 6.109375 26.703125 6.109375 
Q 34.1875 6.109375 38.703125 11.40625 
Q 43.21875 16.703125 43.21875 25.484375 
L 43.21875 27.484375 
z
M 52.203125 31.203125 
L 52.203125 0 
L 43.21875 0 
L 43.21875 8.296875 
Q 40.140625 3.328125 35.546875 0.953125 
Q 30.953125 -1.421875 24.3125 -1.421875 
Q 15.921875 -1.421875 10.953125 3.296875 
Q 6 8.015625 6 15.921875 
Q 6 25.140625 12.171875 29.828125 
Q 18.359375 34.515625 30.609375 34.515625 
L 43.21875 34.515625 
L 43.21875 35.40625 
Q 43.21875 41.609375 39.140625 45 
Q 35.0625 48.390625 27.6875 48.390625 
Q 23 48.390625 18.546875 47.265625 
Q 14.109375 46.140625 10.015625 43.890625 
L 10.015625 52.203125 
Q 14.9375 54.109375 19.578125 55.046875 
Q 24.21875 56 28.609375 56 
Q 40.484375 56 46.34375 49.84375 
Q 52.203125 43.703125 52.203125 31.203125 
z
" id="DejaVuSans-97"/>
      <path d="M 18.3125 70.21875 
L 18.3125 54.6875 
L 36.8125 54.6875 
L 36.8125 47.703125 
L 18.3125 47.703125 
L 18.3125 18.015625 
Q 18.3125 11.328125 20.140625 9.421875 
Q 21.96875 7.515625 27.59375 7.515625 
L 36.8125 7.515625 
L 36.8125 0 
L 27.59375 0 
Q 17.1875 0 13.234375 3.875 
Q 9.28125 7.765625 9.28125 18.015625 
L 9.28125 47.703125 
L 2.6875 47.703125 
L 2.6875 54.6875 
L 9.28125 54.6875 
L 9.28125 70.21875 
z
" id="DejaVuSans-116"/>
      <path d="M 56.203125 29.59375 
L 56.203125 25.203125 
L 14.890625 25.203125 
Q 15.484375 15.921875 20.484375 11.0625 
Q 25.484375 6.203125 34.421875 6.203125 
Q 39.59375 6.203125 44.453125 7.46875 
Q 49.3125 8.734375 54.109375 11.28125 
L 54.109375 2.78125 
Q 49.265625 0.734375 44.1875 -0.34375 
Q 39.109375 -1.421875 33.890625 -1.421875 
Q 20.796875 -1.421875 13.15625 6.1875 
Q 5.515625 13.8125 5.515625 26.8125 
Q 5.515625 40.234375 12.765625 48.109375 
Q 20.015625 56 32.328125 56 
Q 43.359375 56 49.78125 48.890625 
Q 56.203125 41.796875 56.203125 29.59375 
z
M 47.21875 32.234375 
Q 47.125 39.59375 43.09375 43.984375 
Q 39.0625 48.390625 32.421875 48.390625 
Q 24.90625 48.390625 20.390625 44.140625 
Q 15.875 39.890625 15.1875 32.171875 
z
" id="DejaVuSans-101"/>
     </defs>
     <g transform="translate(75.86152 135.75495)scale(0.1 -0.1)">
      <use xlink:href="#DejaVuSans-108"/>
      <use x="27.783203" xlink:href="#DejaVuSans-111"/>
      <use x="88.964844" xlink:href="#DejaVuSans-103"/>
      <use x="152.441406" xlink:href="#DejaVuSans-95"/>
      <use x="202.441406" xlink:href="#DejaVuSans-100"/>
      <use x="265.917969" xlink:href="#DejaVuSans-105"/>
      <use x="293.701172" xlink:href="#DejaVuSans-118"/>
      <use x="352.880859" xlink:href="#DejaVuSans-105"/>
      <use x="380.664062" xlink:href="#DejaVuSans-115"/>
      <use x="432.763672" xlink:href="#DejaVuSans-105"/>
      <use x="460.546875" xlink:href="#DejaVuSans-111"/>
      <use x="521.728516" xlink:href="#DejaVuSans-110"/>
      <use x="585.107422" xlink:href="#DejaVuSans-95"/>
      <use x="635.107422" xlink:href="#DejaVuSans-114"/>
      <use x="676.220703" xlink:href="#DejaVuSans-97"/>
      <use x="737.5" xlink:href="#DejaVuSans-116"/>
      <use x="776.708984" xlink:href="#DejaVuSans-101"/>
     </g>
    </g>
   </g>
   <g id="matplotlib.axis_2">
    <g id="ytick_1">
     <g id="line2d_6">
      <defs>
       <path d="M 0 0 
L -3.5 0 
" id="meb657e7e5c" style="stroke:#000000;stroke-width:0.8;"/>
      </defs>
      <g>
       <use style="stroke:#000000;stroke-width:0.8;" x="54.05" xlink:href="#meb657e7e5c" y="103.083916"/>
      </g>
     </g>
     <g id="text_7">
      <!-- 0 -->
      <g transform="translate(40.6875 106.883135)scale(0.1 -0.1)">
       <use xlink:href="#DejaVuSans-48"/>
      </g>
     </g>
    </g>
    <g id="ytick_2">
     <g id="line2d_7">
      <g>
       <use style="stroke:#000000;stroke-width:0.8;" x="54.05" xlink:href="#meb657e7e5c" y="76.360205"/>
      </g>
     </g>
     <g id="text_8">
      <!-- 2 -->
      <g transform="translate(40.6875 80.159424)scale(0.1 -0.1)">
       <use xlink:href="#DejaVuSans-50"/>
      </g>
     </g>
    </g>
    <g id="ytick_3">
     <g id="line2d_8">
      <g>
       <use style="stroke:#000000;stroke-width:0.8;" x="54.05" xlink:href="#meb657e7e5c" y="49.636495"/>
      </g>
     </g>
     <g id="text_9">
      <!-- 4 -->
      <defs>
       <path d="M 37.796875 64.3125 
L 12.890625 25.390625 
L 37.796875 25.390625 
z
M 35.203125 72.90625 
L 47.609375 72.90625 
L 47.609375 25.390625 
L 58.015625 25.390625 
L 58.015625 17.1875 
L 47.609375 17.1875 
L 47.609375 0 
L 37.796875 0 
L 37.796875 17.1875 
L 4.890625 17.1875 
L 4.890625 26.703125 
z
" id="DejaVuSans-52"/>
      </defs>
      <g transform="translate(40.6875 53.435713)scale(0.1 -0.1)">
       <use xlink:href="#DejaVuSans-52"/>
      </g>
     </g>
    </g>
    <g id="ytick_4">
     <g id="line2d_9">
      <g>
       <use style="stroke:#000000;stroke-width:0.8;" x="54.05" xlink:href="#meb657e7e5c" y="22.912784"/>
      </g>
     </g>
     <g id="text_10">
      <!-- 6 -->
      <defs>
       <path d="M 33.015625 40.375 
Q 26.375 40.375 22.484375 35.828125 
Q 18.609375 31.296875 18.609375 23.390625 
Q 18.609375 15.53125 22.484375 10.953125 
Q 26.375 6.390625 33.015625 6.390625 
Q 39.65625 6.390625 43.53125 10.953125 
Q 47.40625 15.53125 47.40625 23.390625 
Q 47.40625 31.296875 43.53125 35.828125 
Q 39.65625 40.375 33.015625 40.375 
z
M 52.59375 71.296875 
L 52.59375 62.3125 
Q 48.875 64.0625 45.09375 64.984375 
Q 41.3125 65.921875 37.59375 65.921875 
Q 27.828125 65.921875 22.671875 59.328125 
Q 17.53125 52.734375 16.796875 39.40625 
Q 19.671875 43.65625 24.015625 45.921875 
Q 28.375 48.1875 33.59375 48.1875 
Q 44.578125 48.1875 50.953125 41.515625 
Q 57.328125 34.859375 57.328125 23.390625 
Q 57.328125 12.15625 50.6875 5.359375 
Q 44.046875 -1.421875 33.015625 -1.421875 
Q 20.359375 -1.421875 13.671875 8.265625 
Q 6.984375 17.96875 6.984375 36.375 
Q 6.984375 53.65625 15.1875 63.9375 
Q 23.390625 74.21875 37.203125 74.21875 
Q 40.921875 74.21875 44.703125 73.484375 
Q 48.484375 72.75 52.59375 71.296875 
z
" id="DejaVuSans-54"/>
      </defs>
      <g transform="translate(40.6875 26.712003)scale(0.1 -0.1)">
       <use xlink:href="#DejaVuSans-54"/>
      </g>
     </g>
    </g>
    <g id="text_11">
     <!-- Posterior -->
     <defs>
      <path d="M 19.671875 64.796875 
L 19.671875 37.40625 
L 32.078125 37.40625 
Q 38.96875 37.40625 42.71875 40.96875 
Q 46.484375 44.53125 46.484375 51.125 
Q 46.484375 57.671875 42.71875 61.234375 
Q 38.96875 64.796875 32.078125 64.796875 
z
M 9.8125 72.90625 
L 32.078125 72.90625 
Q 44.34375 72.90625 50.609375 67.359375 
Q 56.890625 61.8125 56.890625 51.125 
Q 56.890625 40.328125 50.609375 34.8125 
Q 44.34375 29.296875 32.078125 29.296875 
L 19.671875 29.296875 
L 19.671875 0 
L 9.8125 0 
z
" id="DejaVuSans-80"/>
     </defs>
     <g transform="translate(34.607812 81.41185)rotate(-90)scale(0.1 -0.1)">
      <use xlink:href="#DejaVuSans-80"/>
      <use x="60.255859" xlink:href="#DejaVuSans-111"/>
      <use x="121.4375" xlink:href="#DejaVuSans-115"/>
      <use x="173.537109" xlink:href="#DejaVuSans-116"/>
      <use x="212.746094" xlink:href="#DejaVuSans-101"/>
      <use x="274.269531" xlink:href="#DejaVuSans-114"/>
      <use x="315.382812" xlink:href="#DejaVuSans-105"/>
      <use x="343.166016" xlink:href="#DejaVuSans-111"/>
      <use x="404.347656" xlink:href="#DejaVuSans-114"/>
     </g>
    </g>
   </g>
   <g id="line2d_10">
    <path clip-path="url(#p8a135e7b32)" d="M 54.05 103.083916 
L 56.65098 103.083916 
L 59.251961 103.083916 
L 61.852941 103.083916 
L 64.453922 103.083916 
L 67.054902 103.083916 
L 69.655882 103.083916 
L 72.256863 103.083916 
L 74.857843 103.083916 
L 77.458824 103.083916 
L 80.059804 103.083916 
L 82.660784 103.083916 
L 85.261765 103.083916 
L 87.862745 103.083916 
L 90.463725 103.083916 
L 93.064706 103.083916 
L 95.665686 103.083916 
L 98.266667 103.083916 
L 100.867647 103.083916 
L 103.468627 103.083916 
L 106.069608 103.083916 
L 108.670588 103.083916 
L 111.271569 103.083916 
L 113.872549 103.083916 
L 116.473529 103.083916 
L 119.07451 103.083916 
L 121.67549 103.083916 
L 124.276471 103.083916 
L 126.877451 103.083916 
L 129.478431 103.083916 
L 132.079412 103.083916 
L 134.680392 103.083895 
L 137.281373 103.07665 
L 139.882353 102.666554 
L 142.483333 98.453689 
L 145.084314 89.86282 
L 147.685294 75.873478 
L 150.286275 46.451093 
L 152.887255 15.194472 
L 155.488235 30.136924 
L 158.089216 63.229938 
L 160.690196 84.229537 
L 163.291176 98.003538 
L 165.892157 102.481047 
L 168.493137 103.062793 
L 171.094118 103.083791 
L 173.695098 103.083916 
L 176.296078 103.083916 
L 178.897059 103.083916 
L 181.498039 103.083916 
" style="fill:none;stroke:#1f77b4;stroke-linecap:square;stroke-width:1.5;"/>
   </g>
   <g id="line2d_11">
    <path clip-path="url(#p8a135e7b32)" d="M 157.291582 107.478388 
L 157.291582 10.8 
" style="fill:none;stroke:#808080;stroke-dasharray:1.5,2.475;stroke-dashoffset:0;stroke-width:1.5;"/>
   </g>
   <g id="line2d_12">
    <path clip-path="url(#p8a135e7b32)" d="M 54.05 103.083916 
L 56.65098 103.083916 
L 59.251961 103.083916 
L 61.852941 103.083916 
L 64.453922 103.083916 
L 67.054902 103.083916 
L 69.655882 103.083916 
L 72.256863 103.083916 
L 74.857843 103.083916 
L 77.458824 103.083916 
L 80.059804 103.083916 
L 82.660784 103.083916 
L 85.261765 103.083916 
L 87.862745 103.083916 
L 90.463725 103.083916 
L 93.064706 103.083916 
L 95.665686 103.083916 
L 98.266667 103.083916 
L 100.867647 103.083916 
L 103.468627 103.083916 
L 106.069608 103.083916 
L 108.670588 103.083916 
L 111.271569 103.083916 
L 113.872549 103.083916 
L 116.473529 103.083916 
L 119.07451 103.083916 
L 121.67549 103.083916 
L 124.276471 103.083915 
L 126.877451 103.08344 
L 129.478431 103.018298 
L 132.079412 101.180074 
L 134.680392 88.136367 
L 137.281373 58.413488 
L 139.882353 35.039901 
L 142.483333 36.044586 
L 145.084314 41.945259 
L 147.685294 54.625561 
L 150.286275 84.565843 
L 152.887255 100.713653 
L 155.488235 102.879504 
L 158.089216 103.076158 
L 160.690196 103.083864 
L 163.291176 103.083916 
L 165.892157 103.083916 
L 168.493137 103.083916 
L 171.094118 103.083916 
L 173.695098 103.083916 
L 176.296078 103.083916 
L 178.897059 103.083916 
L 181.498039 103.083916 
" style="fill:none;stroke:#ff7f0e;stroke-linecap:square;stroke-width:1.5;"/>
   </g>
   <g id="patch_3">
    <path d="M 54.05 107.478388 
L 54.05 10.8 
" style="fill:none;stroke:#000000;stroke-linecap:square;stroke-linejoin:miter;stroke-width:0.8;"/>
   </g>
   <g id="patch_4">
    <path d="M 181.498039 107.478388 
L 181.498039 10.8 
" style="fill:none;stroke:#000000;stroke-linecap:square;stroke-linejoin:miter;stroke-width:0.8;"/>
   </g>
   <g id="patch_5">
    <path d="M 54.05 107.478388 
L 181.498039 107.478388 
" style="fill:none;stroke:#000000;stroke-linecap:square;stroke-linejoin:miter;stroke-width:0.8;"/>
   </g>
   <g id="patch_6">
    <path d="M 54.05 10.8 
L 181.498039 10.8 
" style="fill:none;stroke:#000000;stroke-linecap:square;stroke-linejoin:miter;stroke-width:0.8;"/>
   </g>
  </g>
  <g id="axes_2">
   <g id="patch_7">
    <path d="M 244.33848 107.478388 
L 371.78652 107.478388 
L 371.78652 10.8 
L 244.33848 10.8 
z
" style="fill:#ffffff;"/>
   </g>
   <g id="matplotlib.axis_3">
    <g id="xtick_6">
     <g id="line2d_13">
      <g>
       <use style="stroke:#000000;stroke-width:0.8;" x="244.33848" xlink:href="#m4baf63deac" y="107.478388"/>
      </g>
     </g>
     <g id="text_12">
      <!-- 1.0 -->
      <g transform="translate(236.386918 122.076825)scale(0.1 -0.1)">
       <use xlink:href="#DejaVuSans-49"/>
       <use x="63.623047" xlink:href="#DejaVuSans-46"/>
       <use x="95.410156" xlink:href="#DejaVuSans-48"/>
      </g>
     </g>
    </g>
    <g id="xtick_7">
     <g id="line2d_14">
      <g>
       <use style="stroke:#000000;stroke-width:0.8;" x="276.20049" xlink:href="#m4baf63deac" y="107.478388"/>
      </g>
     </g>
     <g id="text_13">
      <!-- 1.5 -->
      <g transform="translate(268.248928 122.076825)scale(0.1 -0.1)">
       <use xlink:href="#DejaVuSans-49"/>
       <use x="63.623047" xlink:href="#DejaVuSans-46"/>
       <use x="95.410156" xlink:href="#DejaVuSans-53"/>
      </g>
     </g>
    </g>
    <g id="xtick_8">
     <g id="line2d_15">
      <g>
       <use style="stroke:#000000;stroke-width:0.8;" x="308.0625" xlink:href="#m4baf63deac" y="107.478388"/>
      </g>
     </g>
     <g id="text_14">
      <!-- 2.0 -->
      <g transform="translate(300.110937 122.076825)scale(0.1 -0.1)">
       <use xlink:href="#DejaVuSans-50"/>
       <use x="63.623047" xlink:href="#DejaVuSans-46"/>
       <use x="95.410156" xlink:href="#DejaVuSans-48"/>
      </g>
     </g>
    </g>
    <g id="xtick_9">
     <g id="line2d_16">
      <g>
       <use style="stroke:#000000;stroke-width:0.8;" x="339.92451" xlink:href="#m4baf63deac" y="107.478388"/>
      </g>
     </g>
     <g id="text_15">
      <!-- 2.5 -->
      <g transform="translate(331.972947 122.076825)scale(0.1 -0.1)">
       <use xlink:href="#DejaVuSans-50"/>
       <use x="63.623047" xlink:href="#DejaVuSans-46"/>
       <use x="95.410156" xlink:href="#DejaVuSans-53"/>
      </g>
     </g>
    </g>
    <g id="xtick_10">
     <g id="line2d_17">
      <g>
       <use style="stroke:#000000;stroke-width:0.8;" x="371.78652" xlink:href="#m4baf63deac" y="107.478388"/>
      </g>
     </g>
     <g id="text_16">
      <!-- 3.0 -->
      <g transform="translate(363.834957 122.076825)scale(0.1 -0.1)">
       <use xlink:href="#DejaVuSans-51"/>
       <use x="63.623047" xlink:href="#DejaVuSans-46"/>
       <use x="95.410156" xlink:href="#DejaVuSans-48"/>
      </g>
     </g>
    </g>
    <g id="text_17">
     <!-- log_division_depth -->
     <defs>
      <path d="M 18.109375 8.203125 
L 18.109375 -20.796875 
L 9.078125 -20.796875 
L 9.078125 54.6875 
L 18.109375 54.6875 
L 18.109375 46.390625 
Q 20.953125 51.265625 25.265625 53.625 
Q 29.59375 56 35.59375 56 
Q 45.5625 56 51.78125 48.09375 
Q 58.015625 40.1875 58.015625 27.296875 
Q 58.015625 14.40625 51.78125 6.484375 
Q 45.5625 -1.421875 35.59375 -1.421875 
Q 29.59375 -1.421875 25.265625 0.953125 
Q 20.953125 3.328125 18.109375 8.203125 
z
M 48.6875 27.296875 
Q 48.6875 37.203125 44.609375 42.84375 
Q 40.53125 48.484375 33.40625 48.484375 
Q 26.265625 48.484375 22.1875 42.84375 
Q 18.109375 37.203125 18.109375 27.296875 
Q 18.109375 17.390625 22.1875 11.75 
Q 26.265625 6.109375 33.40625 6.109375 
Q 40.53125 6.109375 44.609375 11.75 
Q 48.6875 17.390625 48.6875 27.296875 
z
" id="DejaVuSans-112"/>
      <path d="M 54.890625 33.015625 
L 54.890625 0 
L 45.90625 0 
L 45.90625 32.71875 
Q 45.90625 40.484375 42.875 44.328125 
Q 39.84375 48.1875 33.796875 48.1875 
Q 26.515625 48.1875 22.3125 43.546875 
Q 18.109375 38.921875 18.109375 30.90625 
L 18.109375 0 
L 9.078125 0 
L 9.078125 75.984375 
L 18.109375 75.984375 
L 18.109375 46.1875 
Q 21.34375 51.125 25.703125 53.5625 
Q 30.078125 56 35.796875 56 
Q 45.21875 56 50.046875 50.171875 
Q 54.890625 44.34375 54.890625 33.015625 
z
" id="DejaVuSans-104"/>
     </defs>
     <g transform="translate(261.752344 135.75495)scale(0.1 -0.1)">
      <use xlink:href="#DejaVuSans-108"/>
      <use x="27.783203" xlink:href="#DejaVuSans-111"/>
      <use x="88.964844" xlink:href="#DejaVuSans-103"/>
      <use x="152.441406" xlink:href="#DejaVuSans-95"/>
      <use x="202.441406" xlink:href="#DejaVuSans-100"/>
      <use x="265.917969" xlink:href="#DejaVuSans-105"/>
      <use x="293.701172" xlink:href="#DejaVuSans-118"/>
      <use x="352.880859" xlink:href="#DejaVuSans-105"/>
      <use x="380.664062" xlink:href="#DejaVuSans-115"/>
      <use x="432.763672" xlink:href="#DejaVuSans-105"/>
      <use x="460.546875" xlink:href="#DejaVuSans-111"/>
      <use x="521.728516" xlink:href="#DejaVuSans-110"/>
      <use x="585.107422" xlink:href="#DejaVuSans-95"/>
      <use x="635.107422" xlink:href="#DejaVuSans-100"/>
      <use x="698.583984" xlink:href="#DejaVuSans-101"/>
      <use x="760.107422" xlink:href="#DejaVuSans-112"/>
      <use x="823.583984" xlink:href="#DejaVuSans-116"/>
      <use x="862.792969" xlink:href="#DejaVuSans-104"/>
     </g>
    </g>
   </g>
   <g id="matplotlib.axis_4">
    <g id="ytick_5">
     <g id="line2d_18">
      <g>
       <use style="stroke:#000000;stroke-width:0.8;" x="244.33848" xlink:href="#meb657e7e5c" y="103.083916"/>
      </g>
     </g>
     <g id="text_18">
      <!-- 0 -->
      <g transform="translate(230.97598 106.883135)scale(0.1 -0.1)">
       <use xlink:href="#DejaVuSans-48"/>
      </g>
     </g>
    </g>
    <g id="ytick_6">
     <g id="line2d_19">
      <g>
       <use style="stroke:#000000;stroke-width:0.8;" x="244.33848" xlink:href="#meb657e7e5c" y="78.086032"/>
      </g>
     </g>
     <g id="text_19">
      <!-- 1 -->
      <g transform="translate(230.97598 81.885251)scale(0.1 -0.1)">
       <use xlink:href="#DejaVuSans-49"/>
      </g>
     </g>
    </g>
    <g id="ytick_7">
     <g id="line2d_20">
      <g>
       <use style="stroke:#000000;stroke-width:0.8;" x="244.33848" xlink:href="#meb657e7e5c" y="53.088148"/>
      </g>
     </g>
     <g id="text_20">
      <!-- 2 -->
      <g transform="translate(230.97598 56.887367)scale(0.1 -0.1)">
       <use xlink:href="#DejaVuSans-50"/>
      </g>
     </g>
    </g>
    <g id="ytick_8">
     <g id="line2d_21">
      <g>
       <use style="stroke:#000000;stroke-width:0.8;" x="244.33848" xlink:href="#meb657e7e5c" y="28.090265"/>
      </g>
     </g>
     <g id="text_21">
      <!-- 3 -->
      <g transform="translate(230.97598 31.889483)scale(0.1 -0.1)">
       <use xlink:href="#DejaVuSans-51"/>
      </g>
     </g>
    </g>
    <g id="text_22">
     <!-- Posterior -->
     <g transform="translate(224.896293 81.41185)rotate(-90)scale(0.1 -0.1)">
      <use xlink:href="#DejaVuSans-80"/>
      <use x="60.255859" xlink:href="#DejaVuSans-111"/>
      <use x="121.4375" xlink:href="#DejaVuSans-115"/>
      <use x="173.537109" xlink:href="#DejaVuSans-116"/>
      <use x="212.746094" xlink:href="#DejaVuSans-101"/>
      <use x="274.269531" xlink:href="#DejaVuSans-114"/>
      <use x="315.382812" xlink:href="#DejaVuSans-105"/>
      <use x="343.166016" xlink:href="#DejaVuSans-111"/>
      <use x="404.347656" xlink:href="#DejaVuSans-114"/>
     </g>
    </g>
   </g>
   <g id="line2d_22">
    <path clip-path="url(#p11a09e1246)" d="M 244.33848 103.083916 
L 246.939461 103.083916 
L 249.540441 103.083916 
L 252.141422 103.083916 
L 254.742402 103.083916 
L 257.343382 103.083916 
L 259.944363 103.083916 
L 262.545343 103.083916 
L 265.146324 103.083916 
L 267.747304 103.083916 
L 270.348284 103.083916 
L 272.949265 103.083916 
L 275.550245 103.083914 
L 278.151225 103.083876 
L 280.752206 103.083157 
L 283.353186 103.074251 
L 285.954167 102.999426 
L 288.555147 102.566134 
L 291.156127 100.798022 
L 293.757108 95.588705 
L 296.358088 84.279317 
L 298.959069 65.965987 
L 301.560049 43.765822 
L 304.161029 24.302173 
L 306.76201 15.194472 
L 309.36299 20.886572 
L 311.963971 37.563741 
L 314.564951 55.864788 
L 317.165931 69.746784 
L 319.766912 78.84795 
L 322.367892 85.149945 
L 324.968873 90.330644 
L 327.569853 94.629355 
L 330.170833 97.386964 
L 332.771814 98.329554 
L 335.372794 98.135541 
L 337.973775 98.205019 
L 340.574755 99.389706 
L 343.175735 101.024394 
L 345.776716 102.079912 
L 348.377696 102.46233 
L 350.978676 102.634742 
L 353.579657 102.827636 
L 356.180637 102.985396 
L 358.781618 103.059271 
L 361.382598 103.079931 
L 363.983578 103.0835 
L 366.584559 103.083888 
L 369.185539 103.083915 
L 371.78652 103.083916 
" style="fill:none;stroke:#1f77b4;stroke-linecap:square;stroke-width:1.5;"/>
   </g>
   <g id="line2d_23">
    <path clip-path="url(#p11a09e1246)" d="M 308.0625 107.478388 
L 308.0625 10.8 
" style="fill:none;stroke:#808080;stroke-dasharray:1.5,2.475;stroke-dashoffset:0;stroke-width:1.5;"/>
   </g>
   <g id="line2d_24">
    <path clip-path="url(#p11a09e1246)" d="M 244.33848 103.083916 
L 246.939461 103.083916 
L 249.540441 103.083916 
L 252.141422 103.083916 
L 254.742402 103.083916 
L 257.343382 103.083916 
L 259.944363 103.083915 
L 262.545343 103.083913 
L 265.146324 103.0839 
L 267.747304 103.083846 
L 270.348284 103.083636 
L 272.949265 103.08292 
L 275.550245 103.080738 
L 278.151225 103.074804 
L 280.752206 103.060341 
L 283.353186 103.02853 
L 285.954167 102.964653 
L 288.555147 102.84547 
L 291.156127 102.634199 
L 293.757108 102.2706 
L 296.358088 101.656056 
L 298.959069 100.64074 
L 301.560049 99.029685 
L 304.161029 96.627763 
L 306.76201 93.330106 
L 309.36299 89.23209 
L 311.963971 84.697193 
L 314.564951 80.313067 
L 317.165931 76.713061 
L 319.766912 74.330248 
L 322.367892 73.22022 
L 324.968873 73.067084 
L 327.569853 73.37193 
L 330.170833 73.701808 
L 332.771814 73.849738 
L 335.372794 73.837801 
L 337.973775 73.807925 
L 340.574755 73.899872 
L 343.175735 74.190353 
L 345.776716 74.704472 
L 348.377696 75.464624 
L 350.978676 76.53284 
L 353.579657 78.016969 
L 356.180637 80.032053 
L 358.781618 82.631214 
L 361.382598 85.742113 
L 363.983578 89.150522 
L 366.584559 92.548976 
L 369.185539 95.628566 
L 371.78652 98.166771 
" style="fill:none;stroke:#ff7f0e;stroke-linecap:square;stroke-width:1.5;"/>
   </g>
   <g id="patch_8">
    <path d="M 244.33848 107.478388 
L 244.33848 10.8 
" style="fill:none;stroke:#000000;stroke-linecap:square;stroke-linejoin:miter;stroke-width:0.8;"/>
   </g>
   <g id="patch_9">
    <path d="M 371.78652 107.478388 
L 371.78652 10.8 
" style="fill:none;stroke:#000000;stroke-linecap:square;stroke-linejoin:miter;stroke-width:0.8;"/>
   </g>
   <g id="patch_10">
    <path d="M 244.33848 107.478388 
L 371.78652 107.478388 
" style="fill:none;stroke:#000000;stroke-linecap:square;stroke-linejoin:miter;stroke-width:0.8;"/>
   </g>
   <g id="patch_11">
    <path d="M 244.33848 10.8 
L 371.78652 10.8 
" style="fill:none;stroke:#000000;stroke-linecap:square;stroke-linejoin:miter;stroke-width:0.8;"/>
   </g>
  </g>
  <g id="axes_3">
   <g id="patch_12">
    <path d="M 434.626961 107.478388 
L 562.075 107.478388 
L 562.075 10.8 
L 434.626961 10.8 
z
" style="fill:#ffffff;"/>
   </g>
   <g id="matplotlib.axis_5">
    <g id="xtick_11">
     <g id="line2d_25">
      <g>
       <use style="stroke:#000000;stroke-width:0.8;" x="434.626961" xlink:href="#m4baf63deac" y="107.478388"/>
      </g>
     </g>
     <g id="text_23">
      <!-- 0.0 -->
      <g transform="translate(426.675398 122.076825)scale(0.1 -0.1)">
       <use xlink:href="#DejaVuSans-48"/>
       <use x="63.623047" xlink:href="#DejaVuSans-46"/>
       <use x="95.410156" xlink:href="#DejaVuSans-48"/>
      </g>
     </g>
    </g>
    <g id="xtick_12">
     <g id="line2d_26">
      <g>
       <use style="stroke:#000000;stroke-width:0.8;" x="487.73031" xlink:href="#m4baf63deac" y="107.478388"/>
      </g>
     </g>
     <g id="text_24">
      <!-- 0.5 -->
      <g transform="translate(479.778748 122.076825)scale(0.1 -0.1)">
       <use xlink:href="#DejaVuSans-48"/>
       <use x="63.623047" xlink:href="#DejaVuSans-46"/>
       <use x="95.410156" xlink:href="#DejaVuSans-53"/>
      </g>
     </g>
    </g>
    <g id="xtick_13">
     <g id="line2d_27">
      <g>
       <use style="stroke:#000000;stroke-width:0.8;" x="540.83366" xlink:href="#m4baf63deac" y="107.478388"/>
      </g>
     </g>
     <g id="text_25">
      <!-- 1.0 -->
      <g transform="translate(532.882098 122.076825)scale(0.1 -0.1)">
       <use xlink:href="#DejaVuSans-49"/>
       <use x="63.623047" xlink:href="#DejaVuSans-46"/>
       <use x="95.410156" xlink:href="#DejaVuSans-48"/>
      </g>
     </g>
    </g>
    <g id="text_26">
     <!-- log_initial_spheroid_radius -->
     <defs>
      <path d="M 8.5 21.578125 
L 8.5 54.6875 
L 17.484375 54.6875 
L 17.484375 21.921875 
Q 17.484375 14.15625 20.5 10.265625 
Q 23.53125 6.390625 29.59375 6.390625 
Q 36.859375 6.390625 41.078125 11.03125 
Q 45.3125 15.671875 45.3125 23.6875 
L 45.3125 54.6875 
L 54.296875 54.6875 
L 54.296875 0 
L 45.3125 0 
L 45.3125 8.40625 
Q 42.046875 3.421875 37.71875 1 
Q 33.40625 -1.421875 27.6875 -1.421875 
Q 18.265625 -1.421875 13.375 4.4375 
Q 8.5 10.296875 8.5 21.578125 
z
M 31.109375 56 
z
" id="DejaVuSans-117"/>
     </defs>
     <g transform="translate(432.322074 135.75495)scale(0.1 -0.1)">
      <use xlink:href="#DejaVuSans-108"/>
      <use x="27.783203" xlink:href="#DejaVuSans-111"/>
      <use x="88.964844" xlink:href="#DejaVuSans-103"/>
      <use x="152.441406" xlink:href="#DejaVuSans-95"/>
      <use x="202.441406" xlink:href="#DejaVuSans-105"/>
      <use x="230.224609" xlink:href="#DejaVuSans-110"/>
      <use x="293.603516" xlink:href="#DejaVuSans-105"/>
      <use x="321.386719" xlink:href="#DejaVuSans-116"/>
      <use x="360.595703" xlink:href="#DejaVuSans-105"/>
      <use x="388.378906" xlink:href="#DejaVuSans-97"/>
      <use x="449.658203" xlink:href="#DejaVuSans-108"/>
      <use x="477.441406" xlink:href="#DejaVuSans-95"/>
      <use x="527.441406" xlink:href="#DejaVuSans-115"/>
      <use x="579.541016" xlink:href="#DejaVuSans-112"/>
      <use x="643.017578" xlink:href="#DejaVuSans-104"/>
      <use x="706.396484" xlink:href="#DejaVuSans-101"/>
      <use x="767.919922" xlink:href="#DejaVuSans-114"/>
      <use x="809.001953" xlink:href="#DejaVuSans-111"/>
      <use x="870.183594" xlink:href="#DejaVuSans-105"/>
      <use x="897.966797" xlink:href="#DejaVuSans-100"/>
      <use x="961.443359" xlink:href="#DejaVuSans-95"/>
      <use x="1011.443359" xlink:href="#DejaVuSans-114"/>
      <use x="1052.556641" xlink:href="#DejaVuSans-97"/>
      <use x="1113.835938" xlink:href="#DejaVuSans-100"/>
      <use x="1177.3125" xlink:href="#DejaVuSans-105"/>
      <use x="1205.095703" xlink:href="#DejaVuSans-117"/>
      <use x="1268.474609" xlink:href="#DejaVuSans-115"/>
     </g>
    </g>
   </g>
   <g id="matplotlib.axis_6">
    <g id="ytick_9">
     <g id="line2d_28">
      <g>
       <use style="stroke:#000000;stroke-width:0.8;" x="434.626961" xlink:href="#meb657e7e5c" y="103.083916"/>
      </g>
     </g>
     <g id="text_27">
      <!-- 0 -->
      <g transform="translate(421.264461 106.883135)scale(0.1 -0.1)">
       <use xlink:href="#DejaVuSans-48"/>
      </g>
     </g>
    </g>
    <g id="ytick_10">
     <g id="line2d_29">
      <g>
       <use style="stroke:#000000;stroke-width:0.8;" x="434.626961" xlink:href="#meb657e7e5c" y="65.732206"/>
      </g>
     </g>
     <g id="text_28">
      <!-- 2 -->
      <g transform="translate(421.264461 69.531424)scale(0.1 -0.1)">
       <use xlink:href="#DejaVuSans-50"/>
      </g>
     </g>
    </g>
    <g id="ytick_11">
     <g id="line2d_30">
      <g>
       <use style="stroke:#000000;stroke-width:0.8;" x="434.626961" xlink:href="#meb657e7e5c" y="28.380495"/>
      </g>
     </g>
     <g id="text_29">
      <!-- 4 -->
      <g transform="translate(421.264461 32.179714)scale(0.1 -0.1)">
       <use xlink:href="#DejaVuSans-52"/>
      </g>
     </g>
    </g>
    <g id="text_30">
     <!-- Posterior -->
     <g transform="translate(415.184773 81.41185)rotate(-90)scale(0.1 -0.1)">
      <use xlink:href="#DejaVuSans-80"/>
      <use x="60.255859" xlink:href="#DejaVuSans-111"/>
      <use x="121.4375" xlink:href="#DejaVuSans-115"/>
      <use x="173.537109" xlink:href="#DejaVuSans-116"/>
      <use x="212.746094" xlink:href="#DejaVuSans-101"/>
      <use x="274.269531" xlink:href="#DejaVuSans-114"/>
      <use x="315.382812" xlink:href="#DejaVuSans-105"/>
      <use x="343.166016" xlink:href="#DejaVuSans-111"/>
      <use x="404.347656" xlink:href="#DejaVuSans-114"/>
     </g>
    </g>
   </g>
   <g id="line2d_31">
    <path clip-path="url(#p5a7d7f8b34)" d="M 434.626961 103.083916 
L 437.227941 103.083916 
L 439.828922 103.083916 
L 442.429902 103.083916 
L 445.030882 103.083916 
L 447.631863 103.083916 
L 450.232843 103.083916 
L 452.833824 103.083916 
L 455.434804 103.083916 
L 458.035784 103.083916 
L 460.636765 103.083916 
L 463.237745 103.083916 
L 465.838725 103.083916 
L 468.439706 103.083916 
L 471.040686 103.083916 
L 473.641667 103.083916 
L 476.242647 103.083916 
L 478.843627 103.083916 
L 481.444608 103.083916 
L 484.045588 103.083915 
L 486.646569 103.083906 
L 489.247549 103.083774 
L 491.848529 103.082405 
L 494.44951 103.072346 
L 497.05049 103.019079 
L 499.651471 102.812386 
L 502.252451 102.21085 
L 504.853431 100.862787 
L 507.454412 98.476875 
L 510.055392 95.035622 
L 512.656373 90.729022 
L 515.257353 85.612958 
L 517.858333 79.732231 
L 520.459314 73.720869 
L 523.060294 68.455617 
L 525.661275 63.735745 
L 528.262255 57.901889 
L 530.863235 48.958196 
L 533.464216 36.30576 
L 536.065196 22.750221 
L 538.666176 15.194472 
L 541.267157 20.235721 
L 543.868137 37.081622 
L 546.469118 57.709522 
L 549.070098 74.765262 
L 551.671078 86.352268 
L 554.272059 93.838873 
L 556.873039 98.569031 
L 559.47402 101.241909 
L 562.075 102.479637 
" style="fill:none;stroke:#1f77b4;stroke-linecap:square;stroke-width:1.5;"/>
   </g>
   <g id="line2d_32">
    <path clip-path="url(#p5a7d7f8b34)" d="M 549.243239 107.478388 
L 549.243239 10.8 
" style="fill:none;stroke:#808080;stroke-dasharray:1.5,2.475;stroke-dashoffset:0;stroke-width:1.5;"/>
   </g>
   <g id="line2d_33">
    <path clip-path="url(#p5a7d7f8b34)" d="M 434.626961 103.083916 
L 437.227941 103.083916 
L 439.828922 103.083916 
L 442.429902 103.083916 
L 445.030882 103.083916 
L 447.631863 103.083916 
L 450.232843 103.083916 
L 452.833824 103.083916 
L 455.434804 103.083916 
L 458.035784 103.083916 
L 460.636765 103.083916 
L 463.237745 103.083916 
L 465.838725 103.083916 
L 468.439706 103.083916 
L 471.040686 103.083916 
L 473.641667 103.083916 
L 476.242647 103.083916 
L 478.843627 103.083914 
L 481.444608 103.083905 
L 484.045588 103.083839 
L 486.646569 103.083452 
L 489.247549 103.081563 
L 491.848529 103.073807 
L 494.44951 103.046985 
L 497.05049 102.968432 
L 499.651471 102.772109 
L 502.252451 102.348534 
L 504.853431 101.546758 
L 507.454412 100.186886 
L 510.055392 98.067521 
L 512.656373 94.952561 
L 515.257353 90.554962 
L 517.858333 84.60274 
L 520.459314 77.099265 
L 523.060294 68.716834 
L 525.661275 60.924932 
L 528.262255 55.43506 
L 530.863235 53.188864 
L 533.464216 53.773124 
L 536.065196 55.825276 
L 538.666176 57.983246 
L 541.267157 59.522095 
L 543.868137 60.369047 
L 546.469118 60.807058 
L 549.070098 61.241427 
L 551.671078 62.153393 
L 554.272059 64.134546 
L 556.873039 67.779435 
L 559.47402 73.329305 
L 562.075 80.305859 
" style="fill:none;stroke:#ff7f0e;stroke-linecap:square;stroke-width:1.5;"/>
   </g>
   <g id="patch_13">
    <path d="M 434.626961 107.478388 
L 434.626961 10.8 
" style="fill:none;stroke:#000000;stroke-linecap:square;stroke-linejoin:miter;stroke-width:0.8;"/>
   </g>
   <g id="patch_14">
    <path d="M 562.075 107.478388 
L 562.075 10.8 
" style="fill:none;stroke:#000000;stroke-linecap:square;stroke-linejoin:miter;stroke-width:0.8;"/>
   </g>
   <g id="patch_15">
    <path d="M 434.626961 107.478388 
L 562.075 107.478388 
" style="fill:none;stroke:#000000;stroke-linecap:square;stroke-linejoin:miter;stroke-width:0.8;"/>
   </g>
   <g id="patch_16">
    <path d="M 434.626961 10.8 
L 562.075 10.8 
" style="fill:none;stroke:#000000;stroke-linecap:square;stroke-linejoin:miter;stroke-width:0.8;"/>
   </g>
  </g>
  <g id="axes_4">
   <g id="patch_17">
    <path d="M 54.05 248.386069 
L 181.498039 248.386069 
L 181.498039 151.707681 
L 54.05 151.707681 
z
" style="fill:#ffffff;"/>
   </g>
   <g id="matplotlib.axis_7">
    <g id="xtick_14">
     <g id="line2d_34">
      <g>
       <use style="stroke:#000000;stroke-width:0.8;" x="79.539608" xlink:href="#m4baf63deac" y="248.386069"/>
      </g>
     </g>
     <g id="text_31">
      <!-- −4 -->
      <g transform="translate(72.168514 262.984506)scale(0.1 -0.1)">
       <use xlink:href="#DejaVuSans-8722"/>
       <use x="83.789062" xlink:href="#DejaVuSans-52"/>
      </g>
     </g>
    </g>
    <g id="xtick_15">
     <g id="line2d_35">
      <g>
       <use style="stroke:#000000;stroke-width:0.8;" x="130.518824" xlink:href="#m4baf63deac" y="248.386069"/>
      </g>
     </g>
     <g id="text_32">
      <!-- −2 -->
      <g transform="translate(123.14773 262.984506)scale(0.1 -0.1)">
       <use xlink:href="#DejaVuSans-8722"/>
       <use x="83.789062" xlink:href="#DejaVuSans-50"/>
      </g>
     </g>
    </g>
    <g id="xtick_16">
     <g id="line2d_36">
      <g>
       <use style="stroke:#000000;stroke-width:0.8;" x="181.498039" xlink:href="#m4baf63deac" y="248.386069"/>
      </g>
     </g>
     <g id="text_33">
      <!-- 0 -->
      <g transform="translate(178.316789 262.984506)scale(0.1 -0.1)">
       <use xlink:href="#DejaVuSans-48"/>
      </g>
     </g>
    </g>
    <g id="text_34">
     <!-- log_initial_quiescent_cell_fraction -->
     <defs>
      <path d="M 14.796875 27.296875 
Q 14.796875 17.390625 18.875 11.75 
Q 22.953125 6.109375 30.078125 6.109375 
Q 37.203125 6.109375 41.296875 11.75 
Q 45.40625 17.390625 45.40625 27.296875 
Q 45.40625 37.203125 41.296875 42.84375 
Q 37.203125 48.484375 30.078125 48.484375 
Q 22.953125 48.484375 18.875 42.84375 
Q 14.796875 37.203125 14.796875 27.296875 
z
M 45.40625 8.203125 
Q 42.578125 3.328125 38.25 0.953125 
Q 33.9375 -1.421875 27.875 -1.421875 
Q 17.96875 -1.421875 11.734375 6.484375 
Q 5.515625 14.40625 5.515625 27.296875 
Q 5.515625 40.1875 11.734375 48.09375 
Q 17.96875 56 27.875 56 
Q 33.9375 56 38.25 53.625 
Q 42.578125 51.265625 45.40625 46.390625 
L 45.40625 54.6875 
L 54.390625 54.6875 
L 54.390625 -20.796875 
L 45.40625 -20.796875 
z
" id="DejaVuSans-113"/>
      <path d="M 48.78125 52.59375 
L 48.78125 44.1875 
Q 44.96875 46.296875 41.140625 47.34375 
Q 37.3125 48.390625 33.40625 48.390625 
Q 24.65625 48.390625 19.8125 42.84375 
Q 14.984375 37.3125 14.984375 27.296875 
Q 14.984375 17.28125 19.8125 11.734375 
Q 24.65625 6.203125 33.40625 6.203125 
Q 37.3125 6.203125 41.140625 7.25 
Q 44.96875 8.296875 48.78125 10.40625 
L 48.78125 2.09375 
Q 45.015625 0.34375 40.984375 -0.53125 
Q 36.96875 -1.421875 32.421875 -1.421875 
Q 20.0625 -1.421875 12.78125 6.34375 
Q 5.515625 14.109375 5.515625 27.296875 
Q 5.515625 40.671875 12.859375 48.328125 
Q 20.21875 56 33.015625 56 
Q 37.15625 56 41.109375 55.140625 
Q 45.0625 54.296875 48.78125 52.59375 
z
" id="DejaVuSans-99"/>
      <path d="M 37.109375 75.984375 
L 37.109375 68.5 
L 28.515625 68.5 
Q 23.6875 68.5 21.796875 66.546875 
Q 19.921875 64.59375 19.921875 59.515625 
L 19.921875 54.6875 
L 34.71875 54.6875 
L 34.71875 47.703125 
L 19.921875 47.703125 
L 19.921875 0 
L 10.890625 0 
L 10.890625 47.703125 
L 2.296875 47.703125 
L 2.296875 54.6875 
L 10.890625 54.6875 
L 10.890625 58.5 
Q 10.890625 67.625 15.140625 71.796875 
Q 19.390625 75.984375 28.609375 75.984375 
z
" id="DejaVuSans-102"/>
     </defs>
     <g transform="translate(34.22402 276.662631)scale(0.1 -0.1)">
      <use xlink:href="#DejaVuSans-108"/>
      <use x="27.783203" xlink:href="#DejaVuSans-111"/>
      <use x="88.964844" xlink:href="#DejaVuSans-103"/>
      <use x="152.441406" xlink:href="#DejaVuSans-95"/>
      <use x="202.441406" xlink:href="#DejaVuSans-105"/>
      <use x="230.224609" xlink:href="#DejaVuSans-110"/>
      <use x="293.603516" xlink:href="#DejaVuSans-105"/>
      <use x="321.386719" xlink:href="#DejaVuSans-116"/>
      <use x="360.595703" xlink:href="#DejaVuSans-105"/>
      <use x="388.378906" xlink:href="#DejaVuSans-97"/>
      <use x="449.658203" xlink:href="#DejaVuSans-108"/>
      <use x="477.441406" xlink:href="#DejaVuSans-95"/>
      <use x="527.441406" xlink:href="#DejaVuSans-113"/>
      <use x="590.917969" xlink:href="#DejaVuSans-117"/>
      <use x="654.296875" xlink:href="#DejaVuSans-105"/>
      <use x="682.080078" xlink:href="#DejaVuSans-101"/>
      <use x="743.603516" xlink:href="#DejaVuSans-115"/>
      <use x="795.703125" xlink:href="#DejaVuSans-99"/>
      <use x="850.683594" xlink:href="#DejaVuSans-101"/>
      <use x="912.207031" xlink:href="#DejaVuSans-110"/>
      <use x="975.585938" xlink:href="#DejaVuSans-116"/>
      <use x="1014.794922" xlink:href="#DejaVuSans-95"/>
      <use x="1064.794922" xlink:href="#DejaVuSans-99"/>
      <use x="1119.775391" xlink:href="#DejaVuSans-101"/>
      <use x="1181.298828" xlink:href="#DejaVuSans-108"/>
      <use x="1209.082031" xlink:href="#DejaVuSans-108"/>
      <use x="1236.865234" xlink:href="#DejaVuSans-95"/>
      <use x="1286.865234" xlink:href="#DejaVuSans-102"/>
      <use x="1322.070312" xlink:href="#DejaVuSans-114"/>
      <use x="1363.183594" xlink:href="#DejaVuSans-97"/>
      <use x="1424.462891" xlink:href="#DejaVuSans-99"/>
      <use x="1479.443359" xlink:href="#DejaVuSans-116"/>
      <use x="1518.652344" xlink:href="#DejaVuSans-105"/>
      <use x="1546.435547" xlink:href="#DejaVuSans-111"/>
      <use x="1607.617188" xlink:href="#DejaVuSans-110"/>
     </g>
    </g>
   </g>
   <g id="matplotlib.axis_8">
    <g id="ytick_12">
     <g id="line2d_37">
      <g>
       <use style="stroke:#000000;stroke-width:0.8;" x="54.05" xlink:href="#meb657e7e5c" y="227.154541"/>
      </g>
     </g>
     <g id="text_35">
      <!-- 0.10 -->
      <g transform="translate(24.784375 230.95376)scale(0.1 -0.1)">
       <use xlink:href="#DejaVuSans-48"/>
       <use x="63.623047" xlink:href="#DejaVuSans-46"/>
       <use x="95.410156" xlink:href="#DejaVuSans-49"/>
       <use x="159.033203" xlink:href="#DejaVuSans-48"/>
      </g>
     </g>
    </g>
    <g id="ytick_13">
     <g id="line2d_38">
      <g>
       <use style="stroke:#000000;stroke-width:0.8;" x="54.05" xlink:href="#meb657e7e5c" y="201.952438"/>
      </g>
     </g>
     <g id="text_36">
      <!-- 0.15 -->
      <g transform="translate(24.784375 205.751657)scale(0.1 -0.1)">
       <use xlink:href="#DejaVuSans-48"/>
       <use x="63.623047" xlink:href="#DejaVuSans-46"/>
       <use x="95.410156" xlink:href="#DejaVuSans-49"/>
       <use x="159.033203" xlink:href="#DejaVuSans-53"/>
      </g>
     </g>
    </g>
    <g id="ytick_14">
     <g id="line2d_39">
      <g>
       <use style="stroke:#000000;stroke-width:0.8;" x="54.05" xlink:href="#meb657e7e5c" y="176.750336"/>
      </g>
     </g>
     <g id="text_37">
      <!-- 0.20 -->
      <g transform="translate(24.784375 180.549555)scale(0.1 -0.1)">
       <use xlink:href="#DejaVuSans-48"/>
       <use x="63.623047" xlink:href="#DejaVuSans-46"/>
       <use x="95.410156" xlink:href="#DejaVuSans-50"/>
       <use x="159.033203" xlink:href="#DejaVuSans-48"/>
      </g>
     </g>
    </g>
    <g id="text_38">
     <!-- Posterior -->
     <g transform="translate(18.704687 222.319531)rotate(-90)scale(0.1 -0.1)">
      <use xlink:href="#DejaVuSans-80"/>
      <use x="60.255859" xlink:href="#DejaVuSans-111"/>
      <use x="121.4375" xlink:href="#DejaVuSans-115"/>
      <use x="173.537109" xlink:href="#DejaVuSans-116"/>
      <use x="212.746094" xlink:href="#DejaVuSans-101"/>
      <use x="274.269531" xlink:href="#DejaVuSans-114"/>
      <use x="315.382812" xlink:href="#DejaVuSans-105"/>
      <use x="343.166016" xlink:href="#DejaVuSans-111"/>
      <use x="404.347656" xlink:href="#DejaVuSans-114"/>
     </g>
    </g>
   </g>
   <g id="line2d_40">
    <path clip-path="url(#p970e07a2ac)" d="M 54.05 196.650718 
L 56.65098 188.705274 
L 59.251961 181.629696 
L 61.852941 175.637555 
L 64.453922 170.865117 
L 67.054902 167.360843 
L 69.655882 165.085107 
L 72.256863 163.919993 
L 74.857843 163.68743 
L 77.458824 164.172769 
L 80.059804 165.150262 
L 82.660784 166.406903 
L 85.261765 167.761748 
L 87.862745 169.078763 
L 90.463725 170.272503 
L 93.064706 171.306978 
L 95.665686 172.188964 
L 98.266667 172.957517 
L 100.867647 173.671622 
L 103.468627 174.397784 
L 106.069608 175.199021 
L 108.670588 176.126298 
L 111.271569 177.212987 
L 113.872549 178.472504 
L 116.473529 179.898927 
L 119.07451 181.470107 
L 121.67549 183.152552 
L 124.276471 184.90728 
L 126.877451 186.695759 
L 129.478431 188.485191 
L 132.079412 190.252507 
L 134.680392 191.986767 
L 137.281373 193.68988 
L 139.882353 195.375884 
L 142.483333 197.069171 
L 145.084314 198.802135 
L 147.685294 200.612686 
L 150.286275 202.541884 
L 152.887255 204.631765 
L 155.488235 206.923261 
L 158.089216 209.453968 
L 160.690196 212.255563 
L 163.291176 215.350806 
L 165.892157 218.750246 
L 168.493137 222.44904 
L 171.094118 226.424426 
L 173.695098 230.634478 
L 176.296078 235.018645 
L 178.897059 239.500355 
L 181.498039 243.991597 
" style="fill:none;stroke:#1f77b4;stroke-linecap:square;stroke-width:1.5;"/>
   </g>
   <g id="line2d_41">
    <path clip-path="url(#p970e07a2ac)" d="M 178.3134 248.386069 
L 178.3134 151.707681 
" style="fill:none;stroke:#808080;stroke-dasharray:1.5,2.475;stroke-dashoffset:0;stroke-width:1.5;"/>
   </g>
   <g id="line2d_42">
    <path clip-path="url(#p970e07a2ac)" d="M 54.05 227.765588 
L 56.65098 219.832265 
L 59.251961 211.618443 
L 61.852941 203.314667 
L 64.453922 195.131995 
L 67.054902 187.291099 
L 69.655882 180.0092 
L 72.256863 173.485748 
L 74.857843 167.888108 
L 77.458824 163.338813 
L 80.059804 159.905957 
L 82.660784 157.59814 
L 85.261765 156.364803 
L 87.862745 156.102153 
L 90.463725 156.664005 
L 93.064706 157.876217 
L 95.665686 159.552874 
L 98.266667 161.512253 
L 100.867647 163.590743 
L 103.468627 165.653395 
L 106.069608 167.600326 
L 108.670588 169.368868 
L 111.271569 170.931847 
L 113.872549 172.292783 
L 116.473529 173.478964 
L 119.07451 174.533454 
L 121.67549 175.506975 
L 124.276471 176.450563 
L 126.877451 177.409675 
L 129.478431 178.420287 
L 132.079412 179.507288 
L 134.680392 180.685218 
L 137.281373 181.961146 
L 139.882353 183.339151 
L 142.483333 184.825646 
L 145.084314 186.434557 
L 147.685294 188.191329 
L 150.286275 190.134811 
L 152.887255 192.316347 
L 155.488235 194.795841 
L 158.089216 197.635074 
L 160.690196 200.88908 
L 163.291176 204.596842 
L 165.892157 208.772769 
L 168.493137 213.400416 
L 171.094118 218.429585 
L 173.695098 223.777451 
L 176.296078 229.333695 
L 178.897059 234.968991 
L 181.498039 240.545677 
" style="fill:none;stroke:#ff7f0e;stroke-linecap:square;stroke-width:1.5;"/>
   </g>
   <g id="patch_18">
    <path d="M 54.05 248.386069 
L 54.05 151.707681 
" style="fill:none;stroke:#000000;stroke-linecap:square;stroke-linejoin:miter;stroke-width:0.8;"/>
   </g>
   <g id="patch_19">
    <path d="M 181.498039 248.386069 
L 181.498039 151.707681 
" style="fill:none;stroke:#000000;stroke-linecap:square;stroke-linejoin:miter;stroke-width:0.8;"/>
   </g>
   <g id="patch_20">
    <path d="M 54.05 248.386069 
L 181.498039 248.386069 
" style="fill:none;stroke:#000000;stroke-linecap:square;stroke-linejoin:miter;stroke-width:0.8;"/>
   </g>
   <g id="patch_21">
    <path d="M 54.05 151.707681 
L 181.498039 151.707681 
" style="fill:none;stroke:#000000;stroke-linecap:square;stroke-linejoin:miter;stroke-width:0.8;"/>
   </g>
  </g>
  <g id="axes_5">
   <g id="patch_22">
    <path d="M 244.33848 248.386069 
L 371.78652 248.386069 
L 371.78652 151.707681 
L 244.33848 151.707681 
z
" style="fill:#ffffff;"/>
   </g>
   <g id="matplotlib.axis_9">
    <g id="xtick_17">
     <g id="line2d_43">
      <g>
       <use style="stroke:#000000;stroke-width:0.8;" x="269.828088" xlink:href="#m4baf63deac" y="248.386069"/>
      </g>
     </g>
     <g id="text_39">
      <!-- −4 -->
      <g transform="translate(262.456994 262.984506)scale(0.1 -0.1)">
       <use xlink:href="#DejaVuSans-8722"/>
       <use x="83.789062" xlink:href="#DejaVuSans-52"/>
      </g>
     </g>
    </g>
    <g id="xtick_18">
     <g id="line2d_44">
      <g>
       <use style="stroke:#000000;stroke-width:0.8;" x="320.807304" xlink:href="#m4baf63deac" y="248.386069"/>
      </g>
     </g>
     <g id="text_40">
      <!-- −2 -->
      <g transform="translate(313.43621 262.984506)scale(0.1 -0.1)">
       <use xlink:href="#DejaVuSans-8722"/>
       <use x="83.789062" xlink:href="#DejaVuSans-50"/>
      </g>
     </g>
    </g>
    <g id="xtick_19">
     <g id="line2d_45">
      <g>
       <use style="stroke:#000000;stroke-width:0.8;" x="371.78652" xlink:href="#m4baf63deac" y="248.386069"/>
      </g>
     </g>
     <g id="text_41">
      <!-- 0 -->
      <g transform="translate(368.60527 262.984506)scale(0.1 -0.1)">
       <use xlink:href="#DejaVuSans-48"/>
      </g>
     </g>
    </g>
    <g id="text_42">
     <!-- log_ecm_production_rate -->
     <defs>
      <path d="M 52 44.1875 
Q 55.375 50.25 60.0625 53.125 
Q 64.75 56 71.09375 56 
Q 79.640625 56 84.28125 50.015625 
Q 88.921875 44.046875 88.921875 33.015625 
L 88.921875 0 
L 79.890625 0 
L 79.890625 32.71875 
Q 79.890625 40.578125 77.09375 44.375 
Q 74.3125 48.1875 68.609375 48.1875 
Q 61.625 48.1875 57.5625 43.546875 
Q 53.515625 38.921875 53.515625 30.90625 
L 53.515625 0 
L 44.484375 0 
L 44.484375 32.71875 
Q 44.484375 40.625 41.703125 44.40625 
Q 38.921875 48.1875 33.109375 48.1875 
Q 26.21875 48.1875 22.15625 43.53125 
Q 18.109375 38.875 18.109375 30.90625 
L 18.109375 0 
L 9.078125 0 
L 9.078125 54.6875 
L 18.109375 54.6875 
L 18.109375 46.1875 
Q 21.1875 51.21875 25.484375 53.609375 
Q 29.78125 56 35.6875 56 
Q 41.65625 56 45.828125 52.96875 
Q 50 49.953125 52 44.1875 
z
" id="DejaVuSans-109"/>
     </defs>
     <g transform="translate(245.130469 276.662631)scale(0.1 -0.1)">
      <use xlink:href="#DejaVuSans-108"/>
      <use x="27.783203" xlink:href="#DejaVuSans-111"/>
      <use x="88.964844" xlink:href="#DejaVuSans-103"/>
      <use x="152.441406" xlink:href="#DejaVuSans-95"/>
      <use x="202.441406" xlink:href="#DejaVuSans-101"/>
      <use x="263.964844" xlink:href="#DejaVuSans-99"/>
      <use x="318.945312" xlink:href="#DejaVuSans-109"/>
      <use x="416.357422" xlink:href="#DejaVuSans-95"/>
      <use x="466.357422" xlink:href="#DejaVuSans-112"/>
      <use x="529.833984" xlink:href="#DejaVuSans-114"/>
      <use x="570.916016" xlink:href="#DejaVuSans-111"/>
      <use x="632.097656" xlink:href="#DejaVuSans-100"/>
      <use x="695.574219" xlink:href="#DejaVuSans-117"/>
      <use x="758.953125" xlink:href="#DejaVuSans-99"/>
      <use x="813.933594" xlink:href="#DejaVuSans-116"/>
      <use x="853.142578" xlink:href="#DejaVuSans-105"/>
      <use x="880.925781" xlink:href="#DejaVuSans-111"/>
      <use x="942.107422" xlink:href="#DejaVuSans-110"/>
      <use x="1005.486328" xlink:href="#DejaVuSans-95"/>
      <use x="1055.486328" xlink:href="#DejaVuSans-114"/>
      <use x="1096.599609" xlink:href="#DejaVuSans-97"/>
      <use x="1157.878906" xlink:href="#DejaVuSans-116"/>
      <use x="1197.087891" xlink:href="#DejaVuSans-101"/>
     </g>
    </g>
   </g>
   <g id="matplotlib.axis_10">
    <g id="ytick_15">
     <g id="line2d_46">
      <g>
       <use style="stroke:#000000;stroke-width:0.8;" x="244.33848" xlink:href="#meb657e7e5c" y="243.991597"/>
      </g>
     </g>
     <g id="text_43">
      <!-- 0 -->
      <g transform="translate(230.97598 247.790816)scale(0.1 -0.1)">
       <use xlink:href="#DejaVuSans-48"/>
      </g>
     </g>
    </g>
    <g id="ytick_16">
     <g id="line2d_47">
      <g>
       <use style="stroke:#000000;stroke-width:0.8;" x="244.33848" xlink:href="#meb657e7e5c" y="214.06239"/>
      </g>
     </g>
     <g id="text_44">
      <!-- 5 -->
      <g transform="translate(230.97598 217.861609)scale(0.1 -0.1)">
       <use xlink:href="#DejaVuSans-53"/>
      </g>
     </g>
    </g>
    <g id="ytick_17">
     <g id="line2d_48">
      <g>
       <use style="stroke:#000000;stroke-width:0.8;" x="244.33848" xlink:href="#meb657e7e5c" y="184.133184"/>
      </g>
     </g>
     <g id="text_45">
      <!-- 10 -->
      <g transform="translate(224.61348 187.932402)scale(0.1 -0.1)">
       <use xlink:href="#DejaVuSans-49"/>
       <use x="63.623047" xlink:href="#DejaVuSans-48"/>
      </g>
     </g>
    </g>
    <g id="ytick_18">
     <g id="line2d_49">
      <g>
       <use style="stroke:#000000;stroke-width:0.8;" x="244.33848" xlink:href="#meb657e7e5c" y="154.203977"/>
      </g>
     </g>
     <g id="text_46">
      <!-- 15 -->
      <g transform="translate(224.61348 158.003196)scale(0.1 -0.1)">
       <use xlink:href="#DejaVuSans-49"/>
       <use x="63.623047" xlink:href="#DejaVuSans-53"/>
      </g>
     </g>
    </g>
    <g id="text_47">
     <!-- Posterior -->
     <g transform="translate(218.533793 222.319531)rotate(-90)scale(0.1 -0.1)">
      <use xlink:href="#DejaVuSans-80"/>
      <use x="60.255859" xlink:href="#DejaVuSans-111"/>
      <use x="121.4375" xlink:href="#DejaVuSans-115"/>
      <use x="173.537109" xlink:href="#DejaVuSans-116"/>
      <use x="212.746094" xlink:href="#DejaVuSans-101"/>
      <use x="274.269531" xlink:href="#DejaVuSans-114"/>
      <use x="315.382812" xlink:href="#DejaVuSans-105"/>
      <use x="343.166016" xlink:href="#DejaVuSans-111"/>
      <use x="404.347656" xlink:href="#DejaVuSans-114"/>
     </g>
    </g>
   </g>
   <g id="line2d_50">
    <path clip-path="url(#pf6a9782ace)" d="M 244.33848 243.991597 
L 246.939461 243.991597 
L 249.540441 243.991597 
L 252.141422 243.991597 
L 254.742402 243.991597 
L 257.343382 243.991597 
L 259.944363 243.991597 
L 262.545343 243.991597 
L 265.146324 243.991597 
L 267.747304 243.991597 
L 270.348284 243.991597 
L 272.949265 243.991597 
L 275.550245 243.991597 
L 278.151225 243.991597 
L 280.752206 243.991597 
L 283.353186 243.991597 
L 285.954167 243.991597 
L 288.555147 243.991597 
L 291.156127 243.991597 
L 293.757108 243.991597 
L 296.358088 243.991597 
L 298.959069 243.991597 
L 301.560049 243.991597 
L 304.161029 243.991597 
L 306.76201 243.991597 
L 309.36299 243.985132 
L 311.963971 156.102153 
L 314.564951 240.091347 
L 317.165931 243.991597 
L 319.766912 243.991597 
L 322.367892 243.991597 
L 324.968873 243.991597 
L 327.569853 243.991597 
L 330.170833 243.991597 
L 332.771814 243.991597 
L 335.372794 243.991597 
L 337.973775 243.991597 
L 340.574755 243.991597 
L 343.175735 243.991597 
L 345.776716 243.991597 
L 348.377696 243.991597 
L 350.978676 243.991597 
L 353.579657 243.991597 
L 356.180637 243.991597 
L 358.781618 243.991597 
L 361.382598 243.991597 
L 363.983578 243.991597 
L 366.584559 243.991597 
L 369.185539 243.991597 
L 371.78652 243.991597 
" style="fill:none;stroke:#1f77b4;stroke-linecap:square;stroke-width:1.5;"/>
   </g>
   <g id="line2d_51">
    <path clip-path="url(#pf6a9782ace)" d="M 313.134167 248.386069 
L 313.134167 151.707681 
" style="fill:none;stroke:#808080;stroke-dasharray:1.5,2.475;stroke-dashoffset:0;stroke-width:1.5;"/>
   </g>
   <g id="line2d_52">
    <path clip-path="url(#pf6a9782ace)" d="M 244.33848 243.991597 
L 246.939461 243.991597 
L 249.540441 243.991597 
L 252.141422 243.991597 
L 254.742402 243.991597 
L 257.343382 243.991597 
L 259.944363 243.991597 
L 262.545343 243.991597 
L 265.146324 243.991597 
L 267.747304 243.991597 
L 270.348284 243.991597 
L 272.949265 243.991597 
L 275.550245 243.991597 
L 278.151225 243.991597 
L 280.752206 243.991597 
L 283.353186 243.991597 
L 285.954167 243.991597 
L 288.555147 243.991597 
L 291.156127 243.991597 
L 293.757108 243.991597 
L 296.358088 243.991597 
L 298.959069 243.991597 
L 301.560049 243.991597 
L 304.161029 243.991597 
L 306.76201 243.991597 
L 309.36299 243.059258 
L 311.963971 189.117638 
L 314.564951 235.332791 
L 317.165931 243.821296 
L 319.766912 243.991597 
L 322.367892 243.991597 
L 324.968873 243.991597 
L 327.569853 243.991597 
L 330.170833 243.991597 
L 332.771814 243.991597 
L 335.372794 243.991597 
L 337.973775 243.991597 
L 340.574755 243.991597 
L 343.175735 243.991597 
L 345.776716 243.991597 
L 348.377696 243.991597 
L 350.978676 243.991597 
L 353.579657 243.991597 
L 356.180637 243.991597 
L 358.781618 243.991597 
L 361.382598 243.991597 
L 363.983578 243.991597 
L 366.584559 243.991597 
L 369.185539 243.991597 
L 371.78652 243.991597 
" style="fill:none;stroke:#ff7f0e;stroke-linecap:square;stroke-width:1.5;"/>
   </g>
   <g id="patch_23">
    <path d="M 244.33848 248.386069 
L 244.33848 151.707681 
" style="fill:none;stroke:#000000;stroke-linecap:square;stroke-linejoin:miter;stroke-width:0.8;"/>
   </g>
   <g id="patch_24">
    <path d="M 371.78652 248.386069 
L 371.78652 151.707681 
" style="fill:none;stroke:#000000;stroke-linecap:square;stroke-linejoin:miter;stroke-width:0.8;"/>
   </g>
   <g id="patch_25">
    <path d="M 244.33848 248.386069 
L 371.78652 248.386069 
" style="fill:none;stroke:#000000;stroke-linecap:square;stroke-linejoin:miter;stroke-width:0.8;"/>
   </g>
   <g id="patch_26">
    <path d="M 244.33848 151.707681 
L 371.78652 151.707681 
" style="fill:none;stroke:#000000;stroke-linecap:square;stroke-linejoin:miter;stroke-width:0.8;"/>
   </g>
  </g>
  <g id="axes_6">
   <g id="patch_27">
    <path d="M 434.626961 248.386069 
L 562.075 248.386069 
L 562.075 151.707681 
L 434.626961 151.707681 
z
" style="fill:#ffffff;"/>
   </g>
   <g id="matplotlib.axis_11">
    <g id="xtick_20">
     <g id="line2d_53">
      <g>
       <use style="stroke:#000000;stroke-width:0.8;" x="460.116569" xlink:href="#m4baf63deac" y="248.386069"/>
      </g>
     </g>
     <g id="text_48">
      <!-- −4 -->
      <g transform="translate(452.745475 262.984506)scale(0.1 -0.1)">
       <use xlink:href="#DejaVuSans-8722"/>
       <use x="83.789062" xlink:href="#DejaVuSans-52"/>
      </g>
     </g>
    </g>
    <g id="xtick_21">
     <g id="line2d_54">
      <g>
       <use style="stroke:#000000;stroke-width:0.8;" x="511.095784" xlink:href="#m4baf63deac" y="248.386069"/>
      </g>
     </g>
     <g id="text_49">
      <!-- −2 -->
      <g transform="translate(503.724691 262.984506)scale(0.1 -0.1)">
       <use xlink:href="#DejaVuSans-8722"/>
       <use x="83.789062" xlink:href="#DejaVuSans-50"/>
      </g>
     </g>
    </g>
    <g id="xtick_22">
     <g id="line2d_55">
      <g>
       <use style="stroke:#000000;stroke-width:0.8;" x="562.075" xlink:href="#m4baf63deac" y="248.386069"/>
      </g>
     </g>
     <g id="text_50">
      <!-- 0 -->
      <g transform="translate(558.89375 262.984506)scale(0.1 -0.1)">
       <use xlink:href="#DejaVuSans-48"/>
      </g>
     </g>
    </g>
    <g id="text_51">
     <!-- log_ecm_degradation_rate -->
     <g transform="translate(432.015824 276.662631)scale(0.1 -0.1)">
      <use xlink:href="#DejaVuSans-108"/>
      <use x="27.783203" xlink:href="#DejaVuSans-111"/>
      <use x="88.964844" xlink:href="#DejaVuSans-103"/>
      <use x="152.441406" xlink:href="#DejaVuSans-95"/>
      <use x="202.441406" xlink:href="#DejaVuSans-101"/>
      <use x="263.964844" xlink:href="#DejaVuSans-99"/>
      <use x="318.945312" xlink:href="#DejaVuSans-109"/>
      <use x="416.357422" xlink:href="#DejaVuSans-95"/>
      <use x="466.357422" xlink:href="#DejaVuSans-100"/>
      <use x="529.833984" xlink:href="#DejaVuSans-101"/>
      <use x="591.357422" xlink:href="#DejaVuSans-103"/>
      <use x="654.833984" xlink:href="#DejaVuSans-114"/>
      <use x="695.947266" xlink:href="#DejaVuSans-97"/>
      <use x="757.226562" xlink:href="#DejaVuSans-100"/>
      <use x="820.703125" xlink:href="#DejaVuSans-97"/>
      <use x="881.982422" xlink:href="#DejaVuSans-116"/>
      <use x="921.191406" xlink:href="#DejaVuSans-105"/>
      <use x="948.974609" xlink:href="#DejaVuSans-111"/>
      <use x="1010.15625" xlink:href="#DejaVuSans-110"/>
      <use x="1073.535156" xlink:href="#DejaVuSans-95"/>
      <use x="1123.535156" xlink:href="#DejaVuSans-114"/>
      <use x="1164.648438" xlink:href="#DejaVuSans-97"/>
      <use x="1225.927734" xlink:href="#DejaVuSans-116"/>
      <use x="1265.136719" xlink:href="#DejaVuSans-101"/>
     </g>
    </g>
   </g>
   <g id="matplotlib.axis_12">
    <g id="ytick_19">
     <g id="line2d_56">
      <g>
       <use style="stroke:#000000;stroke-width:0.8;" x="434.626961" xlink:href="#meb657e7e5c" y="243.991597"/>
      </g>
     </g>
     <g id="text_52">
      <!-- 0.0 -->
      <g transform="translate(411.723836 247.790816)scale(0.1 -0.1)">
       <use xlink:href="#DejaVuSans-48"/>
       <use x="63.623047" xlink:href="#DejaVuSans-46"/>
       <use x="95.410156" xlink:href="#DejaVuSans-48"/>
      </g>
     </g>
    </g>
    <g id="ytick_20">
     <g id="line2d_57">
      <g>
       <use style="stroke:#000000;stroke-width:0.8;" x="434.626961" xlink:href="#meb657e7e5c" y="211.167827"/>
      </g>
     </g>
     <g id="text_53">
      <!-- 0.2 -->
      <g transform="translate(411.723836 214.967046)scale(0.1 -0.1)">
       <use xlink:href="#DejaVuSans-48"/>
       <use x="63.623047" xlink:href="#DejaVuSans-46"/>
       <use x="95.410156" xlink:href="#DejaVuSans-50"/>
      </g>
     </g>
    </g>
    <g id="ytick_21">
     <g id="line2d_58">
      <g>
       <use style="stroke:#000000;stroke-width:0.8;" x="434.626961" xlink:href="#meb657e7e5c" y="178.344057"/>
      </g>
     </g>
     <g id="text_54">
      <!-- 0.4 -->
      <g transform="translate(411.723836 182.143276)scale(0.1 -0.1)">
       <use xlink:href="#DejaVuSans-48"/>
       <use x="63.623047" xlink:href="#DejaVuSans-46"/>
       <use x="95.410156" xlink:href="#DejaVuSans-52"/>
      </g>
     </g>
    </g>
    <g id="text_55">
     <!-- Posterior -->
     <g transform="translate(405.644148 222.319531)rotate(-90)scale(0.1 -0.1)">
      <use xlink:href="#DejaVuSans-80"/>
      <use x="60.255859" xlink:href="#DejaVuSans-111"/>
      <use x="121.4375" xlink:href="#DejaVuSans-115"/>
      <use x="173.537109" xlink:href="#DejaVuSans-116"/>
      <use x="212.746094" xlink:href="#DejaVuSans-101"/>
      <use x="274.269531" xlink:href="#DejaVuSans-114"/>
      <use x="315.382812" xlink:href="#DejaVuSans-105"/>
      <use x="343.166016" xlink:href="#DejaVuSans-111"/>
      <use x="404.347656" xlink:href="#DejaVuSans-114"/>
     </g>
    </g>
   </g>
   <g id="line2d_59">
    <path clip-path="url(#pe0154209f1)" d="M 434.626961 182.107598 
L 437.227941 168.499225 
L 439.828922 159.613249 
L 442.429902 156.102153 
L 445.030882 156.823572 
L 447.631863 159.705439 
L 450.232843 162.87294 
L 452.833824 165.319138 
L 455.434804 166.913531 
L 458.035784 168.027724 
L 460.636765 169.150275 
L 463.237745 170.657427 
L 465.838725 172.714451 
L 468.439706 175.27025 
L 471.040686 178.172061 
L 473.641667 181.387191 
L 476.242647 185.180748 
L 478.843627 190.056196 
L 481.444608 196.434669 
L 484.045588 204.288881 
L 486.646569 213.011685 
L 489.247549 221.620636 
L 491.848529 229.153161 
L 494.44951 235.0043 
L 497.05049 239.046007 
L 499.651471 241.530342 
L 502.252451 242.888613 
L 504.853431 243.548287 
L 507.454412 243.832384 
L 510.055392 243.940667 
L 512.656373 243.977127 
L 515.257353 243.987954 
L 517.858333 243.990786 
L 520.459314 243.991437 
L 523.060294 243.991569 
L 525.661275 243.991593 
L 528.262255 243.991596 
L 530.863235 243.991597 
L 533.464216 243.991597 
L 536.065196 243.991597 
L 538.666176 243.991597 
L 541.267157 243.991597 
L 543.868137 243.991597 
L 546.469118 243.991597 
L 549.070098 243.991597 
L 551.671078 243.991597 
L 554.272059 243.991597 
L 556.873039 243.991597 
L 559.47402 243.991597 
L 562.075 243.991597 
" style="fill:none;stroke:#1f77b4;stroke-linecap:square;stroke-width:1.5;"/>
   </g>
   <g id="line2d_60">
    <path clip-path="url(#pe0154209f1)" d="M 483.135978 248.386069 
L 483.135978 151.707681 
" style="fill:none;stroke:#808080;stroke-dasharray:1.5,2.475;stroke-dashoffset:0;stroke-width:1.5;"/>
   </g>
   <g id="line2d_61">
    <path clip-path="url(#pe0154209f1)" d="M 434.626961 198.712544 
L 437.227941 188.335929 
L 439.828922 179.875025 
L 442.429902 174.292867 
L 445.030882 171.819647 
L 447.631863 171.927757 
L 450.232843 173.61043 
L 452.833824 175.811533 
L 455.434804 177.788183 
L 458.035784 179.251919 
L 460.636765 180.273146 
L 463.237745 181.055903 
L 465.838725 181.733096 
L 468.439706 182.290186 
L 471.040686 182.63528 
L 473.641667 182.747861 
L 476.242647 182.800755 
L 478.843627 183.176553 
L 481.444608 184.369009 
L 484.045588 186.824412 
L 486.646569 190.798098 
L 489.247549 196.27571 
L 491.848529 202.968974 
L 494.44951 210.372537 
L 497.05049 217.864622 
L 499.651471 224.832834 
L 502.252451 230.796953 
L 504.853431 235.492807 
L 507.454412 238.890552 
L 510.055392 241.147386 
L 512.656373 242.522151 
L 515.257353 243.289613 
L 517.858333 243.682035 
L 520.459314 243.865756 
L 523.060294 243.944492 
L 525.661275 243.975375 
L 528.262255 243.986461 
L 530.863235 243.990103 
L 533.464216 243.991198 
L 536.065196 243.991499 
L 538.666176 243.991575 
L 541.267157 243.991592 
L 543.868137 243.991596 
L 546.469118 243.991597 
L 549.070098 243.991597 
L 551.671078 243.991597 
L 554.272059 243.991597 
L 556.873039 243.991597 
L 559.47402 243.991597 
L 562.075 243.991597 
" style="fill:none;stroke:#ff7f0e;stroke-linecap:square;stroke-width:1.5;"/>
   </g>
   <g id="patch_28">
    <path d="M 434.626961 248.386069 
L 434.626961 151.707681 
" style="fill:none;stroke:#000000;stroke-linecap:square;stroke-linejoin:miter;stroke-width:0.8;"/>
   </g>
   <g id="patch_29">
    <path d="M 562.075 248.386069 
L 562.075 151.707681 
" style="fill:none;stroke:#000000;stroke-linecap:square;stroke-linejoin:miter;stroke-width:0.8;"/>
   </g>
   <g id="patch_30">
    <path d="M 434.626961 248.386069 
L 562.075 248.386069 
" style="fill:none;stroke:#000000;stroke-linecap:square;stroke-linejoin:miter;stroke-width:0.8;"/>
   </g>
   <g id="patch_31">
    <path d="M 434.626961 151.707681 
L 562.075 151.707681 
" style="fill:none;stroke:#000000;stroke-linecap:square;stroke-linejoin:miter;stroke-width:0.8;"/>
   </g>
  </g>
  <g id="axes_7">
   <g id="patch_32">
    <path d="M 54.05 389.29375 
L 181.498039 389.29375 
L 181.498039 292.615362 
L 54.05 292.615362 
z
" style="fill:#ffffff;"/>
   </g>
   <g id="matplotlib.axis_13">
    <g id="xtick_23">
     <g id="line2d_62">
      <g>
       <use style="stroke:#000000;stroke-width:0.8;" x="79.539608" xlink:href="#m4baf63deac" y="389.29375"/>
      </g>
     </g>
     <g id="text_56">
      <!-- −4 -->
      <g transform="translate(72.168514 403.892188)scale(0.1 -0.1)">
       <use xlink:href="#DejaVuSans-8722"/>
       <use x="83.789062" xlink:href="#DejaVuSans-52"/>
      </g>
     </g>
    </g>
    <g id="xtick_24">
     <g id="line2d_63">
      <g>
       <use style="stroke:#000000;stroke-width:0.8;" x="130.518824" xlink:href="#m4baf63deac" y="389.29375"/>
      </g>
     </g>
     <g id="text_57">
      <!-- −2 -->
      <g transform="translate(123.14773 403.892188)scale(0.1 -0.1)">
       <use xlink:href="#DejaVuSans-8722"/>
       <use x="83.789062" xlink:href="#DejaVuSans-50"/>
      </g>
     </g>
    </g>
    <g id="xtick_25">
     <g id="line2d_64">
      <g>
       <use style="stroke:#000000;stroke-width:0.8;" x="181.498039" xlink:href="#m4baf63deac" y="389.29375"/>
      </g>
     </g>
     <g id="text_58">
      <!-- 0 -->
      <g transform="translate(178.316789 403.892188)scale(0.1 -0.1)">
       <use xlink:href="#DejaVuSans-48"/>
      </g>
     </g>
    </g>
    <g id="text_59">
     <!-- log_ecm_division_threshold -->
     <g transform="translate(49.166207 417.570312)scale(0.1 -0.1)">
      <use xlink:href="#DejaVuSans-108"/>
      <use x="27.783203" xlink:href="#DejaVuSans-111"/>
      <use x="88.964844" xlink:href="#DejaVuSans-103"/>
      <use x="152.441406" xlink:href="#DejaVuSans-95"/>
      <use x="202.441406" xlink:href="#DejaVuSans-101"/>
      <use x="263.964844" xlink:href="#DejaVuSans-99"/>
      <use x="318.945312" xlink:href="#DejaVuSans-109"/>
      <use x="416.357422" xlink:href="#DejaVuSans-95"/>
      <use x="466.357422" xlink:href="#DejaVuSans-100"/>
      <use x="529.833984" xlink:href="#DejaVuSans-105"/>
      <use x="557.617188" xlink:href="#DejaVuSans-118"/>
      <use x="616.796875" xlink:href="#DejaVuSans-105"/>
      <use x="644.580078" xlink:href="#DejaVuSans-115"/>
      <use x="696.679688" xlink:href="#DejaVuSans-105"/>
      <use x="724.462891" xlink:href="#DejaVuSans-111"/>
      <use x="785.644531" xlink:href="#DejaVuSans-110"/>
      <use x="849.023438" xlink:href="#DejaVuSans-95"/>
      <use x="899.023438" xlink:href="#DejaVuSans-116"/>
      <use x="938.232422" xlink:href="#DejaVuSans-104"/>
      <use x="1001.611328" xlink:href="#DejaVuSans-114"/>
      <use x="1042.693359" xlink:href="#DejaVuSans-101"/>
      <use x="1104.216797" xlink:href="#DejaVuSans-115"/>
      <use x="1156.316406" xlink:href="#DejaVuSans-104"/>
      <use x="1219.695312" xlink:href="#DejaVuSans-111"/>
      <use x="1280.876953" xlink:href="#DejaVuSans-108"/>
      <use x="1308.660156" xlink:href="#DejaVuSans-100"/>
     </g>
    </g>
   </g>
   <g id="matplotlib.axis_14">
    <g id="ytick_22">
     <g id="line2d_65">
      <g>
       <use style="stroke:#000000;stroke-width:0.8;" x="54.05" xlink:href="#meb657e7e5c" y="384.903584"/>
      </g>
     </g>
     <g id="text_60">
      <!-- 0.0 -->
      <g transform="translate(31.146875 388.702803)scale(0.1 -0.1)">
       <use xlink:href="#DejaVuSans-48"/>
       <use x="63.623047" xlink:href="#DejaVuSans-46"/>
       <use x="95.410156" xlink:href="#DejaVuSans-48"/>
      </g>
     </g>
    </g>
    <g id="ytick_23">
     <g id="line2d_66">
      <g>
       <use style="stroke:#000000;stroke-width:0.8;" x="54.05" xlink:href="#meb657e7e5c" y="359.211841"/>
      </g>
     </g>
     <g id="text_61">
      <!-- 0.1 -->
      <g transform="translate(31.146875 363.01106)scale(0.1 -0.1)">
       <use xlink:href="#DejaVuSans-48"/>
       <use x="63.623047" xlink:href="#DejaVuSans-46"/>
       <use x="95.410156" xlink:href="#DejaVuSans-49"/>
      </g>
     </g>
    </g>
    <g id="ytick_24">
     <g id="line2d_67">
      <g>
       <use style="stroke:#000000;stroke-width:0.8;" x="54.05" xlink:href="#meb657e7e5c" y="333.520098"/>
      </g>
     </g>
     <g id="text_62">
      <!-- 0.2 -->
      <g transform="translate(31.146875 337.319317)scale(0.1 -0.1)">
       <use xlink:href="#DejaVuSans-48"/>
       <use x="63.623047" xlink:href="#DejaVuSans-46"/>
       <use x="95.410156" xlink:href="#DejaVuSans-50"/>
      </g>
     </g>
    </g>
    <g id="ytick_25">
     <g id="line2d_68">
      <g>
       <use style="stroke:#000000;stroke-width:0.8;" x="54.05" xlink:href="#meb657e7e5c" y="307.828354"/>
      </g>
     </g>
     <g id="text_63">
      <!-- 0.3 -->
      <g transform="translate(31.146875 311.627573)scale(0.1 -0.1)">
       <use xlink:href="#DejaVuSans-48"/>
       <use x="63.623047" xlink:href="#DejaVuSans-46"/>
       <use x="95.410156" xlink:href="#DejaVuSans-51"/>
      </g>
     </g>
    </g>
    <g id="text_64">
     <!-- Posterior -->
     <g transform="translate(25.067187 363.227212)rotate(-90)scale(0.1 -0.1)">
      <use xlink:href="#DejaVuSans-80"/>
      <use x="60.255859" xlink:href="#DejaVuSans-111"/>
      <use x="121.4375" xlink:href="#DejaVuSans-115"/>
      <use x="173.537109" xlink:href="#DejaVuSans-116"/>
      <use x="212.746094" xlink:href="#DejaVuSans-101"/>
      <use x="274.269531" xlink:href="#DejaVuSans-114"/>
      <use x="315.382812" xlink:href="#DejaVuSans-105"/>
      <use x="343.166016" xlink:href="#DejaVuSans-111"/>
      <use x="404.347656" xlink:href="#DejaVuSans-114"/>
     </g>
    </g>
   </g>
   <g id="line2d_69">
    <path clip-path="url(#p0634ddff8e)" d="M 54.05 346.083594 
L 56.65098 339.482719 
L 59.251961 333.350424 
L 61.852941 327.951802 
L 64.453922 323.446998 
L 67.054902 319.877627 
L 69.655882 317.17275 
L 72.256863 315.170481 
L 74.857843 313.651287 
L 77.458824 312.379872 
L 80.059804 311.151674 
L 82.660784 309.836672 
L 85.261765 308.409327 
L 87.862745 306.952855 
L 90.463725 305.631383 
L 93.064706 304.634452 
L 95.665686 304.110335 
L 98.266667 304.111557 
L 100.867647 304.57339 
L 103.468627 305.334255 
L 106.069608 306.191157 
L 108.670588 306.970696 
L 111.271569 307.592004 
L 113.872549 308.102905 
L 116.473529 308.680811 
L 119.07451 309.60054 
L 121.67549 311.178591 
L 124.276471 313.706883 
L 126.877451 317.38936 
L 129.478431 322.29367 
L 132.079412 328.327476 
L 134.680392 335.244668 
L 137.281373 342.680778 
L 139.882353 350.210283 
L 142.483333 357.413193 
L 145.084314 363.936214 
L 147.685294 369.535801 
L 150.286275 374.095922 
L 152.887255 377.620457 
L 155.488235 380.206391 
L 158.089216 382.007483 
L 160.690196 383.198239 
L 163.291176 383.945405 
L 165.892157 384.390284 
L 168.493137 384.641597 
L 171.094118 384.776263 
L 173.695098 384.844701 
L 176.296078 384.877682 
L 178.897059 384.892751 
L 181.498039 384.899278 
" style="fill:none;stroke:#1f77b4;stroke-linecap:square;stroke-width:1.5;"/>
   </g>
   <g id="line2d_70">
    <path clip-path="url(#p0634ddff8e)" d="M 130.518824 389.29375 
L 130.518824 292.615362 
" style="fill:none;stroke:#808080;stroke-dasharray:1.5,2.475;stroke-dashoffset:0;stroke-width:1.5;"/>
   </g>
   <g id="line2d_71">
    <path clip-path="url(#p0634ddff8e)" d="M 54.05 346.083715 
L 56.65098 337.926629 
L 59.251961 329.697439 
L 61.852941 321.819192 
L 64.453922 314.701921 
L 67.054902 308.681292 
L 69.655882 303.96469 
L 72.256863 300.599979 
L 74.857843 298.478411 
L 77.458824 297.374015 
L 80.059804 297.009834 
L 82.660784 297.131501 
L 85.261765 297.565322 
L 87.862745 298.243466 
L 90.463725 299.19103 
L 93.064706 300.483669 
L 95.665686 302.194348 
L 98.266667 304.34966 
L 100.867647 306.910031 
L 103.468627 309.777253 
L 106.069608 312.822102 
L 108.670588 315.918664 
L 111.271569 318.97202 
L 113.872549 321.931238 
L 116.473529 324.787009 
L 119.07451 327.559428 
L 121.67549 330.283954 
L 124.276471 333.002023 
L 126.877451 335.758488 
L 129.478431 338.603333 
L 132.079412 341.592331 
L 134.680392 344.781725 
L 137.281373 348.215385 
L 139.882353 351.907428 
L 142.483333 355.826717 
L 145.084314 359.890225 
L 147.685294 363.969521 
L 150.286275 367.909872 
L 152.887255 371.556854 
L 155.488235 374.782791 
L 158.089216 377.505905 
L 160.690196 379.697985 
L 163.291176 381.380414 
L 165.892157 382.611689 
L 168.493137 383.471197 
L 171.094118 384.043748 
L 173.695098 384.407895 
L 176.296078 384.62915 
L 178.897059 384.757655 
L 181.498039 384.829046 
" style="fill:none;stroke:#ff7f0e;stroke-linecap:square;stroke-width:1.5;"/>
   </g>
   <g id="patch_33">
    <path d="M 54.05 389.29375 
L 54.05 292.615362 
" style="fill:none;stroke:#000000;stroke-linecap:square;stroke-linejoin:miter;stroke-width:0.8;"/>
   </g>
   <g id="patch_34">
    <path d="M 181.498039 389.29375 
L 181.498039 292.615362 
" style="fill:none;stroke:#000000;stroke-linecap:square;stroke-linejoin:miter;stroke-width:0.8;"/>
   </g>
   <g id="patch_35">
    <path d="M 54.05 389.29375 
L 181.498039 389.29375 
" style="fill:none;stroke:#000000;stroke-linecap:square;stroke-linejoin:miter;stroke-width:0.8;"/>
   </g>
   <g id="patch_36">
    <path d="M 54.05 292.615362 
L 181.498039 292.615362 
" style="fill:none;stroke:#000000;stroke-linecap:square;stroke-linejoin:miter;stroke-width:0.8;"/>
   </g>
   <g id="legend_1">
    <g id="patch_37">
     <path d="M 188.498039 357.132681 
L 319.210539 357.132681 
Q 321.210539 357.132681 321.210539 355.132681 
L 321.210539 326.776431 
Q 321.210539 324.776431 319.210539 324.776431 
L 188.498039 324.776431 
Q 186.498039 324.776431 186.498039 326.776431 
L 186.498039 355.132681 
Q 186.498039 357.132681 188.498039 357.132681 
z
" style="fill:#ffffff;opacity:0.8;stroke:#cccccc;stroke-linejoin:miter;"/>
    </g>
    <g id="line2d_72">
     <path d="M 190.498039 332.874869 
L 210.498039 332.874869 
" style="fill:none;stroke:#1f77b4;stroke-linecap:square;stroke-width:1.5;"/>
    </g>
    <g id="line2d_73"/>
    <g id="text_65">
     <!-- Stochastic acceptor -->
     <defs>
      <path d="M 53.515625 70.515625 
L 53.515625 60.890625 
Q 47.90625 63.578125 42.921875 64.890625 
Q 37.9375 66.21875 33.296875 66.21875 
Q 25.25 66.21875 20.875 63.09375 
Q 16.5 59.96875 16.5 54.203125 
Q 16.5 49.359375 19.40625 46.890625 
Q 22.3125 44.4375 30.421875 42.921875 
L 36.375 41.703125 
Q 47.40625 39.59375 52.65625 34.296875 
Q 57.90625 29 57.90625 20.125 
Q 57.90625 9.515625 50.796875 4.046875 
Q 43.703125 -1.421875 29.984375 -1.421875 
Q 24.8125 -1.421875 18.96875 -0.25 
Q 13.140625 0.921875 6.890625 3.21875 
L 6.890625 13.375 
Q 12.890625 10.015625 18.65625 8.296875 
Q 24.421875 6.59375 29.984375 6.59375 
Q 38.421875 6.59375 43.015625 9.90625 
Q 47.609375 13.234375 47.609375 19.390625 
Q 47.609375 24.75 44.3125 27.78125 
Q 41.015625 30.8125 33.5 32.328125 
L 27.484375 33.5 
Q 16.453125 35.6875 11.515625 40.375 
Q 6.59375 45.0625 6.59375 53.421875 
Q 6.59375 63.09375 13.40625 68.65625 
Q 20.21875 74.21875 32.171875 74.21875 
Q 37.3125 74.21875 42.625 73.28125 
Q 47.953125 72.359375 53.515625 70.515625 
z
" id="DejaVuSans-83"/>
      <path id="DejaVuSans-32"/>
     </defs>
     <g transform="translate(218.498039 336.374869)scale(0.1 -0.1)">
      <use xlink:href="#DejaVuSans-83"/>
      <use x="63.476562" xlink:href="#DejaVuSans-116"/>
      <use x="102.685547" xlink:href="#DejaVuSans-111"/>
      <use x="163.867188" xlink:href="#DejaVuSans-99"/>
      <use x="218.847656" xlink:href="#DejaVuSans-104"/>
      <use x="282.226562" xlink:href="#DejaVuSans-97"/>
      <use x="343.505859" xlink:href="#DejaVuSans-115"/>
      <use x="395.605469" xlink:href="#DejaVuSans-116"/>
      <use x="434.814453" xlink:href="#DejaVuSans-105"/>
      <use x="462.597656" xlink:href="#DejaVuSans-99"/>
      <use x="517.578125" xlink:href="#DejaVuSans-32"/>
      <use x="549.365234" xlink:href="#DejaVuSans-97"/>
      <use x="610.644531" xlink:href="#DejaVuSans-99"/>
      <use x="665.625" xlink:href="#DejaVuSans-99"/>
      <use x="720.605469" xlink:href="#DejaVuSans-101"/>
      <use x="782.128906" xlink:href="#DejaVuSans-112"/>
      <use x="845.605469" xlink:href="#DejaVuSans-116"/>
      <use x="884.814453" xlink:href="#DejaVuSans-111"/>
      <use x="945.996094" xlink:href="#DejaVuSans-114"/>
     </g>
    </g>
    <g id="line2d_74">
     <path d="M 190.498039 347.552994 
L 210.498039 347.552994 
" style="fill:none;stroke:#ff7f0e;stroke-linecap:square;stroke-width:1.5;"/>
    </g>
    <g id="line2d_75"/>
    <g id="text_66">
     <!-- Incorrect -->
     <defs>
      <path d="M 9.8125 72.90625 
L 19.671875 72.90625 
L 19.671875 0 
L 9.8125 0 
z
" id="DejaVuSans-73"/>
     </defs>
     <g transform="translate(218.498039 351.052994)scale(0.1 -0.1)">
      <use xlink:href="#DejaVuSans-73"/>
      <use x="29.492188" xlink:href="#DejaVuSans-110"/>
      <use x="92.871094" xlink:href="#DejaVuSans-99"/>
      <use x="147.851562" xlink:href="#DejaVuSans-111"/>
      <use x="209.033203" xlink:href="#DejaVuSans-114"/>
      <use x="250.130859" xlink:href="#DejaVuSans-114"/>
      <use x="291.212891" xlink:href="#DejaVuSans-101"/>
      <use x="352.736328" xlink:href="#DejaVuSans-99"/>
      <use x="407.716797" xlink:href="#DejaVuSans-116"/>
     </g>
    </g>
   </g>
  </g>
 </g>
 <defs>
  <clipPath id="p8a135e7b32">
   <rect height="96.678388" width="127.448039" x="54.05" y="10.8"/>
  </clipPath>
  <clipPath id="p11a09e1246">
   <rect height="96.678388" width="127.448039" x="244.33848" y="10.8"/>
  </clipPath>
  <clipPath id="p5a7d7f8b34">
   <rect height="96.678388" width="127.448039" x="434.626961" y="10.8"/>
  </clipPath>
  <clipPath id="p970e07a2ac">
   <rect height="96.678388" width="127.448039" x="54.05" y="151.707681"/>
  </clipPath>
  <clipPath id="pf6a9782ace">
   <rect height="96.678388" width="127.448039" x="244.33848" y="151.707681"/>
  </clipPath>
  <clipPath id="pe0154209f1">
   <rect height="96.678388" width="127.448039" x="434.626961" y="151.707681"/>
  </clipPath>
  <clipPath id="p0634ddff8e">
   <rect height="96.678388" width="127.448039" x="54.05" y="292.615362"/>
  </clipPath>
 </defs>
</svg>
