<?xml version="1.0" encoding="utf-8" standalone="no"?>
<!DOCTYPE svg PUBLIC "-//W3C//DTD SVG 1.1//EN"
  "http://www.w3.org/Graphics/SVG/1.1/DTD/svg11.dtd">
<!-- Created with matplotlib (https://matplotlib.org/) -->
<svg height="144pt" version="1.1" viewBox="0 0 216 144" width="216pt" xmlns="http://www.w3.org/2000/svg" xmlns:xlink="http://www.w3.org/1999/xlink">
 <defs>
  <style type="text/css">
*{stroke-linecap:butt;stroke-linejoin:round;}
  </style>
 </defs>
 <g id="figure_1">
  <g id="patch_1">
   <path d="M 0 144 
L 216 144 
L 216 0 
L 0 0 
z
" style="fill:#ffffff;"/>
  </g>
  <g id="axes_1">
   <g id="patch_2">
    <path clip-path="url(#p62f6ba8470)" d="M 19.636364 133.2 
L 24.054545 133.2 
L 24.054545 133.2 
L 19.636364 133.2 
z
" style="fill:#9467bd;"/>
   </g>
   <g id="patch_3">
    <path clip-path="url(#p62f6ba8470)" d="M 24.054545 133.2 
L 28.472727 133.2 
L 28.472727 133.2 
L 24.054545 133.2 
z
" style="fill:#9467bd;"/>
   </g>
   <g id="patch_4">
    <path clip-path="url(#p62f6ba8470)" d="M 28.472727 133.2 
L 32.890909 133.2 
L 32.890909 133.2 
L 28.472727 133.2 
z
" style="fill:#9467bd;"/>
   </g>
   <g id="patch_5">
    <path clip-path="url(#p62f6ba8470)" d="M 32.890909 133.2 
L 37.309091 133.2 
L 37.309091 133.2 
L 32.890909 133.2 
z
" style="fill:#9467bd;"/>
   </g>
   <g id="patch_6">
    <path clip-path="url(#p62f6ba8470)" d="M 37.309091 133.2 
L 41.727273 133.2 
L 41.727273 133.2 
L 37.309091 133.2 
z
" style="fill:#9467bd;"/>
   </g>
   <g id="patch_7">
    <path clip-path="url(#p62f6ba8470)" d="M 41.727273 133.2 
L 46.145455 133.2 
L 46.145455 133.2 
L 41.727273 133.2 
z
" style="fill:#9467bd;"/>
   </g>
   <g id="patch_8">
    <path clip-path="url(#p62f6ba8470)" d="M 46.145455 133.2 
L 50.563636 133.2 
L 50.563636 133.2 
L 46.145455 133.2 
z
" style="fill:#9467bd;"/>
   </g>
   <g id="patch_9">
    <path clip-path="url(#p62f6ba8470)" d="M 50.563636 133.2 
L 54.981818 133.2 
L 54.981818 131.066263 
L 50.563636 131.066263 
z
" style="fill:#9467bd;"/>
   </g>
   <g id="patch_10">
    <path clip-path="url(#p62f6ba8470)" d="M 54.981818 133.2 
L 59.4 133.2 
L 59.4 131.090004 
L 54.981818 131.090004 
z
" style="fill:#9467bd;"/>
   </g>
   <g id="patch_11">
    <path clip-path="url(#p62f6ba8470)" d="M 59.4 133.2 
L 63.818182 133.2 
L 63.818182 129.281888 
L 59.4 129.281888 
z
" style="fill:#9467bd;"/>
   </g>
   <g id="patch_12">
    <path clip-path="url(#p62f6ba8470)" d="M 63.818182 133.2 
L 68.236364 133.2 
L 68.236364 128.396888 
L 63.818182 128.396888 
z
" style="fill:#9467bd;"/>
   </g>
   <g id="patch_13">
    <path clip-path="url(#p62f6ba8470)" d="M 68.236364 133.2 
L 72.654545 133.2 
L 72.654545 121.416941 
L 68.236364 121.416941 
z
" style="fill:#9467bd;"/>
   </g>
   <g id="patch_14">
    <path clip-path="url(#p62f6ba8470)" d="M 72.654545 133.2 
L 77.072727 133.2 
L 77.072727 123.1628 
L 72.654545 123.1628 
z
" style="fill:#9467bd;"/>
   </g>
   <g id="patch_15">
    <path clip-path="url(#p62f6ba8470)" d="M 77.072727 133.2 
L 81.490909 133.2 
L 81.490909 115.848907 
L 77.072727 115.848907 
z
" style="fill:#9467bd;"/>
   </g>
   <g id="patch_16">
    <path clip-path="url(#p62f6ba8470)" d="M 81.490909 133.2 
L 85.909091 133.2 
L 85.909091 108.742309 
L 81.490909 108.742309 
z
" style="fill:#9467bd;"/>
   </g>
   <g id="patch_17">
    <path clip-path="url(#p62f6ba8470)" d="M 85.909091 133.2 
L 90.327273 133.2 
L 90.327273 99.124914 
L 85.909091 99.124914 
z
" style="fill:#9467bd;"/>
   </g>
   <g id="patch_18">
    <path clip-path="url(#p62f6ba8470)" d="M 90.327273 133.2 
L 94.745455 133.2 
L 94.745455 86.595561 
L 90.327273 86.595561 
z
" style="fill:#9467bd;"/>
   </g>
   <g id="patch_19">
    <path clip-path="url(#p62f6ba8470)" d="M 94.745455 133.2 
L 99.163636 133.2 
L 99.163636 71.582224 
L 94.745455 71.582224 
z
" style="fill:#9467bd;"/>
   </g>
   <g id="patch_20">
    <path clip-path="url(#p62f6ba8470)" d="M 99.163636 133.2 
L 103.581818 133.2 
L 103.581818 64.139483 
L 99.163636 64.139483 
z
" style="fill:#9467bd;"/>
   </g>
   <g id="patch_21">
    <path clip-path="url(#p62f6ba8470)" d="M 103.581818 133.2 
L 108 133.2 
L 108 52.636992 
L 103.581818 52.636992 
z
" style="fill:#9467bd;"/>
   </g>
   <g id="patch_22">
    <path clip-path="url(#p62f6ba8470)" d="M 108 133.2 
L 112.418182 133.2 
L 112.418182 36.451909 
L 108 36.451909 
z
" style="fill:#9467bd;"/>
   </g>
   <g id="patch_23">
    <path clip-path="url(#p62f6ba8470)" d="M 112.418182 133.2 
L 116.836364 133.2 
L 116.836364 25.499964 
L 112.418182 25.499964 
z
" style="fill:#9467bd;"/>
   </g>
   <g id="patch_24">
    <path clip-path="url(#p62f6ba8470)" d="M 116.836364 133.2 
L 121.254545 133.2 
L 121.254545 25.573352 
L 116.836364 25.573352 
z
" style="fill:#9467bd;"/>
   </g>
   <g id="patch_25">
    <path clip-path="url(#p62f6ba8470)" d="M 121.254545 133.2 
L 125.672727 133.2 
L 125.672727 16.628571 
L 121.254545 16.628571 
z
" style="fill:#9467bd;"/>
   </g>
   <g id="patch_26">
    <path clip-path="url(#p62f6ba8470)" d="M 125.672727 133.2 
L 130.090909 133.2 
L 130.090909 24.926848 
L 125.672727 24.926848 
z
" style="fill:#9467bd;"/>
   </g>
   <g id="patch_27">
    <path clip-path="url(#p62f6ba8470)" d="M 130.090909 133.2 
L 134.509091 133.2 
L 134.509091 29.279741 
L 130.090909 29.279741 
z
" style="fill:#9467bd;"/>
   </g>
   <g id="patch_28">
    <path clip-path="url(#p62f6ba8470)" d="M 134.509091 133.2 
L 138.927273 133.2 
L 138.927273 38.042759 
L 134.509091 38.042759 
z
" style="fill:#9467bd;"/>
   </g>
   <g id="patch_29">
    <path clip-path="url(#p62f6ba8470)" d="M 138.927273 133.2 
L 143.345455 133.2 
L 143.345455 56.239264 
L 138.927273 56.239264 
z
" style="fill:#9467bd;"/>
   </g>
   <g id="patch_30">
    <path clip-path="url(#p62f6ba8470)" d="M 143.345455 133.2 
L 147.763636 133.2 
L 147.763636 62.169509 
L 143.345455 62.169509 
z
" style="fill:#9467bd;"/>
   </g>
   <g id="patch_31">
    <path clip-path="url(#p62f6ba8470)" d="M 147.763636 133.2 
L 152.181818 133.2 
L 152.181818 74.030572 
L 147.763636 74.030572 
z
" style="fill:#9467bd;"/>
   </g>
   <g id="patch_32">
    <path clip-path="url(#p62f6ba8470)" d="M 152.181818 133.2 
L 156.6 133.2 
L 156.6 94.155996 
L 152.181818 94.155996 
z
" style="fill:#9467bd;"/>
   </g>
   <g id="patch_33">
    <path clip-path="url(#p62f6ba8470)" d="M 156.6 133.2 
L 161.018182 133.2 
L 161.018182 97.598798 
L 156.6 97.598798 
z
" style="fill:#9467bd;"/>
   </g>
   <g id="patch_34">
    <path clip-path="url(#p62f6ba8470)" d="M 161.018182 133.2 
L 165.436364 133.2 
L 165.436364 110.24737 
L 161.018182 110.24737 
z
" style="fill:#9467bd;"/>
   </g>
   <g id="patch_35">
    <path clip-path="url(#p62f6ba8470)" d="M 165.436364 133.2 
L 169.854545 133.2 
L 169.854545 118.770847 
L 165.436364 118.770847 
z
" style="fill:#9467bd;"/>
   </g>
   <g id="patch_36">
    <path clip-path="url(#p62f6ba8470)" d="M 169.854545 133.2 
L 174.272727 133.2 
L 174.272727 124.470157 
L 169.854545 124.470157 
z
" style="fill:#9467bd;"/>
   </g>
   <g id="patch_37">
    <path clip-path="url(#p62f6ba8470)" d="M 174.272727 133.2 
L 178.690909 133.2 
L 178.690909 128.161028 
L 174.272727 128.161028 
z
" style="fill:#9467bd;"/>
   </g>
   <g id="patch_38">
    <path clip-path="url(#p62f6ba8470)" d="M 178.690909 133.2 
L 183.109091 133.2 
L 183.109091 127.425042 
L 178.690909 127.425042 
z
" style="fill:#9467bd;"/>
   </g>
   <g id="patch_39">
    <path clip-path="url(#p62f6ba8470)" d="M 183.109091 133.2 
L 187.527273 133.2 
L 187.527273 129.42088 
L 183.109091 129.42088 
z
" style="fill:#9467bd;"/>
   </g>
   <g id="patch_40">
    <path clip-path="url(#p62f6ba8470)" d="M 187.527273 133.2 
L 191.945455 133.2 
L 191.945455 133.2 
L 187.527273 133.2 
z
" style="fill:#9467bd;"/>
   </g>
   <g id="patch_41">
    <path clip-path="url(#p62f6ba8470)" d="M 191.945455 133.2 
L 196.363636 133.2 
L 196.363636 133.2 
L 191.945455 133.2 
z
" style="fill:#9467bd;"/>
   </g>
   <g id="line2d_1">
    <path clip-path="url(#p62f6ba8470)" d="M 19.636364 133.198799 
L 41.838282 133.089805 
L 48.942896 132.836422 
L 53.38328 132.478288 
L 56.935587 131.991595 
L 59.599817 131.455014 
L 62.264048 130.720848 
L 64.928278 129.734296 
L 67.592508 128.432368 
L 69.368661 127.354929 
L 71.144815 126.084434 
L 72.920968 124.598483 
L 74.697122 122.874769 
L 76.473275 120.891733 
L 78.249429 118.629329 
L 80.025582 116.069864 
L 81.801736 113.198909 
L 83.577889 110.006239 
L 85.354043 106.486781 
L 88.018273 100.598896 
L 90.682503 94.01273 
L 93.346734 86.801144 
L 96.899041 76.418382 
L 107.555962 44.301876 
L 110.220192 37.315457 
L 111.996345 33.158231 
L 113.772499 29.482691 
L 115.548652 26.351048 
L 117.324806 23.81685 
L 119.100959 21.92345 
L 119.989036 21.227499 
L 120.877113 20.70277 
L 121.76519 20.351323 
L 122.653266 20.174409 
L 123.541343 20.172468 
L 124.42942 20.345127 
L 125.317497 20.691208 
L 126.205573 21.208735 
L 127.09365 21.894959 
L 127.981727 22.746375 
L 129.75788 24.927186 
L 131.534034 27.709319 
L 133.310187 31.041261 
L 135.086341 34.863396 
L 136.862494 39.109759 
L 139.526725 46.119835 
L 143.079032 56.27715 
L 151.959799 82.290214 
L 155.512106 91.752838 
L 158.176336 98.205907 
L 160.840566 104.029314 
L 163.504797 109.19029 
L 166.169027 113.685757 
L 167.94518 116.322657 
L 169.721334 118.683916 
L 171.497487 120.783521 
L 173.273641 122.637626 
L 175.049794 124.263876 
L 176.825948 125.680797 
L 179.490178 127.454947 
L 182.154408 128.863363 
L 184.818639 129.965675 
L 187.482869 130.816472 
L 190.147099 131.464211 
L 193.699406 132.083399 
L 196.363636 132.408836 
L 196.363636 132.408836 
" style="fill:none;stroke:#1f77b4;stroke-linecap:square;stroke-width:1.5;"/>
   </g>
  </g>
 </g>
 <defs>
  <clipPath id="p62f6ba8470">
   <rect height="122.4" width="194.4" x="10.8" y="10.8"/>
  </clipPath>
 </defs>
</svg>
